<?xml version="1.0" encoding="utf-8"?>
<!-- Generator: Adobe Illustrator 17.1.0, SVG Export Plug-In . SVG Version: 6.00 Build 0)  -->
<!DOCTYPE svg PUBLIC "-//W3C//DTD SVG 1.1//EN" "http://www.w3.org/Graphics/SVG/1.1/DTD/svg11.dtd">
<svg version="1.1" id="Layer_1" xmlns="http://www.w3.org/2000/svg" xmlns:xlink="http://www.w3.org/1999/xlink" x="0px" y="0px"
	 viewBox="0 0 1440 937" enable-background="new 0 0 1440 937" xml:space="preserve">
<g>
	<g>
		<path d="M808.6,683c-16.8,0-33.6,0-50.4,0c-6.9,1.9-14,0.8-21.1,1c-7.2,0.2-14.3,0-21.5,0c-0.5,0-0.9-0.1-1.4-0.1
			c-2.3-2.9-3.8-6.3-5.1-9.5c-0.9-2.5-2.2-4.8-3.2-7.2c-2.7-6-5.7-12-8.3-18.1c-2-4.7-4.6-9.1-6.6-13.8c-3.9-9.2-8.2-18.3-12.6-27.3
			c-0.7-1.3-0.5-2.5-0.5-3.8c0-19,0-38,0-57c0-15.3,0-30.6,0-46.1c2.5,0,5,0,7.4,0c0.5-0.6,0.9-1.2,1.6-2c0-4.7,0-9.8,0-15.1
			c6,0,11.7-2,17.7-1c0.9-1.9-1.3-3-0.8-4.7c0.4-1.4,0.1-3,0.1-4.5c0-1.7,0-3.3,0-5c0-1.5,0-3,0-4.5c0.5-0.5,1-1,1.6-1.6
			c7.4,0.9,14.8-1.6,22.4-0.9c4.4-1.6,9.2-0.2,13.5-1.2c3.8-0.8,7.4-0.8,11.1-0.7c2.6,0,4.9-1.6,7.6-1.2c2.4,0.4,5.2,0.7,7.4-0.1
			c4.6-1.6,9.1-0.3,14.1-1.1c0.3-0.5,0.8-1.3,1.2-1.8c3.1,0,5.6-0.2,8.1,0c2.5,0.2,4.5-1.5,7.1-1.1c2.4,0.4,5.2,0.7,7.4-0.1
			c3.9-1.3,7.8-0.2,11.6-1c4.9-1,9.8-0.2,14.6-1.1c3.6-0.7,7.1-0.3,10.6-0.8c5.2-0.8,10.4-1.2,15.6-1c2.9-1.8,6.1-1.1,9.1-0.9
			c2.9,0.2,5.3-1.2,8.1-1.1c2.8,0.1,5.9,0.6,8.5-0.1c3.9-1.2,7.8-0.2,11.6-1c4.9-1,9.8-0.2,14.6-1.1c3.6-0.7,7.1-0.8,10.6-0.7
			c2.8,0.1,5.2-1.6,8.1-1.2c2.6,0.4,5.3,0.1,8,0c0.4,0,0.7-0.6,1.3-1c3.4,4.9,4.4,10.9,8.2,16.1c3.1-0.4,6.8,0.9,10.4-1
			c5.6,0.4,11.1-0.5,16.6-1c0.6-0.1,1.3,0,1.9,0c2.2,5,4.3,9.8,6.4,14.6c3.1,7.1,6.5,13.9,9.2,21.2c1.6,4.2,3.7,8.1,5.7,12.1
			c1.8,3.6,3.5,7.3,4.7,11c1.2,3.7,4.3,6.6,4.3,10.7c4.4,5.6,4.1,12.3,3.9,18.9c0,1.2,0,2.3,0,3.5c-0.1,2.3,0.4,4.3,1.6,6.3
			c1.7,2.8,2.6,6,2.4,9.5c-0.2,3.2,0.1,6.3-0.1,9.5c-0.2,3.5,0.9,6.6,2.4,9.5c1.7,3.3,2.7,6.6,2.7,10.4c-0.1,26.8,0,53.6,0,80.5
			c0,1.7,0,3.3,0,5.3c-2.2,0-4.3,0-6.5,0c-7.7,0-15.4-0.7-23,0.2c-7.4,0.9-14.7,0.6-22.1,0.8c-7.5,0.2-15,0-22.5,0s-15,0-22.5,0
			c-1,0.7-0.1,1.9-0.9,3c-1.4,0-3,0-4.7,0c-27.5,0-55,0.1-82.5-0.1c-3.5,0-6.6,1.4-10.1,1.1c-3.3-0.2-6.7-0.1-10-0.1c-1,0-2,0-2.9,0
			C809.7,685.1,810.2,683.5,808.6,683z"/>
	</g>
</g>
</svg>
