<?xml version="1.0" encoding="utf-8"?>
<!-- Generator: Adobe Illustrator 17.1.0, SVG Export Plug-In . SVG Version: 6.00 Build 0)  -->
<!DOCTYPE svg PUBLIC "-//W3C//DTD SVG 1.1//EN" "http://www.w3.org/Graphics/SVG/1.1/DTD/svg11.dtd">
<svg version="1.1" id="Layer_1" xmlns="http://www.w3.org/2000/svg" xmlns:xlink="http://www.w3.org/1999/xlink" x="0px" y="0px"
	 viewBox="0 0 1440 937" enable-background="new 0 0 1440 937" xml:space="preserve">
<g>
	<g>
		<path d="M603.5,366c-0.8,0.8-1.4,1.4-2,2c-6.9-0.5-13.6,1.8-20.6,1c-4.4,1.7-9,0.8-13.6,1c-1.3,0-2.5,0.4-3.4,1.4
			c-0.7-0.7-1.2-1.1-1.7-1.5c-1-5.6-1.6-11.2-3.2-16.7c-0.6-1.9,0.4-4.2-1.1-6.1c0.2-4.7-1.9-9-2.2-13.7c-0.2-3-1.3-6.1-1.8-9.2
			c-0.5-2.9-1.5-5.9-1.8-8.7c-0.4-3.4-1.6-6.6-1.2-10.4c-2.9,0.3-5.7-1-8.5,0.8c-0.8,0.5-2.3,0.2-3.4,0.1c-7.9-0.5-15.7,1.7-23.6,1
			c-4.9,2-10.1,0.5-15.4,1.1c0,22.2,0,44.4,0,66.7c-0.8,0.1-1.2,0.1-1.7,0.2c-0.2-0.4-0.4-0.6-0.4-0.9c-0.2-2.4,0.3-4.7-0.9-7.1
			c-0.9-1.9,0.7-4.6-1.1-6.5c-0.2-0.2-0.1-0.7,0-1c0.5-3.9-1.6-7.6-1.1-11.6c0.3-1.7-1.4-3.1-1-5.1c0.3-1.5,0.4-3.3-0.9-4.6
			c0.7-3.1-1.2-6.1-0.9-9.1c0.2-2.2-0.9-4-1.1-6.1c-0.2-1.9,0.9-4-1-5.6c-0.1-0.1,0-0.3,0-0.5c0.5-4.4-1.1-8.6-1.1-13.1
			c0.2-24.3,0.2-48.7,0-73c0-4.3,2.1-8.2,1-12.2c0.6-0.6,1-1,1.5-1.5c9.9,0,20.1,0,30.5,0c0-4.7,0-9.3,0-14c16.8,0,33.2,0,49.7,0
			c1.2,5.8,2.5,11.7,3.8,17.7c23.8,0,47.9,0,72.1,0c0.9-3.2,1.9-6.6,1.4-10.4c0.6-0.5,1.2-1,1.9-1.5c0-1.9,0-3.7,0-5.3
			c0.6-0.6,1.1-1.1,1.6-1.6c19.6,0,39.3,0,58.9,0c1.2,2.3,3.1,4.2,4,7c2.4,0,4.9,0,7.4,0c9.2,14.2,18.3,28.2,27.5,42.6
			c-2.2,0.8-4.3,0.3-6.4,0.4c-2,0.1-4,0-5.9,0c-1,1.1-2,2.2-2.8,3.1c-5.4,0-10.2,0-15.1,0c0,9.6,0,19.1,0,28.9
			c-6-0.6-11.7,1.9-18,0.8c-0.3-3.3,0.4-7.2-2.1-10.3c0.1-3.6-1.8-6.6-2.7-9.9c-0.5-1.8-1.1-3.6-1.2-5.5c-0.1-1-0.9-1.3-1.4-2.3
			c-1.6,0.5-3.3-0.5-5.1,0.8c-0.9,0.6-2.6,0.4-3.9,0.2c-5.9-0.6-11.7,1.2-17.6,1c-1.8,1.5-4,0.8-6.1,1.1c0,34,0,67.8,0,101.9
			c-1.8,0-3.4,0.2-5,0c-2.8-0.4-5.3,1.4-8.1,1.1c-2.8-0.3-5.8-0.7-8.4,0.1c-3.7,1.1-7.4,0.8-11.1,0.8c-2.8,0-5.2,1.5-8.1,1.1
			c-2.6-0.3-5.3-0.3-8,0c-1.5,0.2-2.9,1.2-4.6,1C607,365.8,605.3,366,603.5,366z"/>
	</g>
</g>
</svg>
