<?xml version="1.0" encoding="utf-8"?>
<!-- Generator: Adobe Illustrator 17.1.0, SVG Export Plug-In . SVG Version: 6.00 Build 0)  -->
<!DOCTYPE svg PUBLIC "-//W3C//DTD SVG 1.1//EN" "http://www.w3.org/Graphics/SVG/1.1/DTD/svg11.dtd">
<svg version="1.1" id="Layer_1" xmlns="http://www.w3.org/2000/svg" xmlns:xlink="http://www.w3.org/1999/xlink" x="0px" y="0px"
	 viewBox="0 0 1440 937" enable-background="new 0 0 1440 937" xml:space="preserve">
<g>
	<g>
		<path d="M358,428.7c0-3.3,0-6.6,0-9.9c-0.1-3.9,1.2-7.5,1.7-11.2c0.5-4.1,1.8-8,2.5-12.1c0.6-3.6,1.9-7.3,2.5-10.9
			c0.6-4.1,2.5-7.9,2.3-12.1c-0.1-1.2,0.8-1.7,1.6-2.6c3.6,1,7.1-1.3,10.9-0.9c1.8-3.8,1.6-8.2,3.4-11.7c2.4-0.9,4.5,0.1,6.6-1.1
			c1.6-0.9,4.1-0.2,5.6-0.2c3.4-2.2,2.2-5.8,3.8-7.7c4.8-1.4,9.6-0.8,14-2.4c3.3,0.7,6.3-1.1,9.6-1c2.1,0.1,4.1-0.2,6.1-0.9
			c1.9-0.7,4.3,0.8,6.1-1.1c0.2-0.2,0.6-0.1,1,0c3.9,0.5,7.6-1.7,11.6-1c3-1.9,6.7,0,9.7-2c0.2-0.2,0.7,0,1,0
			c2.4-0.2,4.7,0.2,7.1-0.9c2.1-0.9,4.8,0.4,7.1-1.1c0.5-0.3,1.3-0.1,2,0c2.3,0.1,4.4-0.2,6.6-0.9c1.9-0.6,4-0.1,6.1-0.9
			c2.3-0.9,5.2-0.2,8.3-0.2c-0.9,4.2,1.3,8,0.9,12.1c-0.2,1.8,1.5,3.1,1.1,5.1c-0.3,1.5-0.5,3.3,0.9,4.6c-0.7,4.3,1.8,8.3,0.9,12.4
			c0.7,1.4,2,1.7,3,2.2c0.6,2.4-0.4,4.8,1,7.2c1.1,2-0.7,4.8,1.1,7c0.3,0.4,0,1.3,0,2c0,2.2,0,4.4,0.9,6.6c0.8,2,0.1,4.3,0.9,6.6
			c0.8,2.3,0.7,5.1,0.9,7.5c0.3,3.5,1.7,7,1.2,10.6c-0.2,1.8,1.3,3.2,1,5.1c-0.2,1.5,0.3,3.1,0.8,4.6c0.7,2.5,0.8,5.4,1,8
			c0.3,4,1.7,7.9,1.3,12.1c-0.4,4,0.2,8-0.2,12c-0.2,2.4,1,4.3,1.2,6.6c0.1,2-1,4.3,0.9,6.1c0.1,0.1,0,0.3,0,0.5
			c-0.5,4.3,1.1,8.3,1.1,12.6c-0.1,39.7-0.1,79.3-0.1,119c-1.2,0.8-2.6,0.4-3.9,0.4c-5.6,0-11,1.8-16.6,1c-3.6,1.7-7.5,0.4-11.1,1.1
			c-4.4,0.9-8.9,0.2-13.1,1.1c-3.6,0.8-7.2,0.1-10.6,0.9c-4.5,1-9.2,0.2-13.6,1.1c-3.3,0.7-6.5,0.2-9.6,0.9c-4.7,1-9.5,0.3-14.1,1.1
			c-3.6,0.7-7.2,0.1-10.6,0.9c-4.1,1-8.2,0.2-12.1,1c-4.1,0.9-8.2,0.1-12.1,1c-3.9,0.9-7.8,0.2-11.6,1c-4.2,0.8-8.5,0.2-12.6,1.1
			c-3.9,0.9-7.9,0.1-11.6,0.9c-4.4,1-8.7,0.7-13.1,0.9c-0.5,0-1,0.6-1.5,0.8c-1.7-0.9-1.5-2.4-1.5-3.9c0-19.5,0-39,0-58.5
			c0-7,0-14,0-21c0-2.3,0-4.7,0-7c2.3-1.5-0.2-4.6,2-6.2c0.1-5.3,1.7-10.3,3.1-15.2c2.3-8.5,2-17.1,1.8-25.7c-0.1-3.1,1.2-6,1.2-9
			c2-1.7-0.2-4.6,1.9-6.2c-0.5-2.3,0.8-4.4,1.2-6.5c0.7-3.6,1-7.4,2.5-10.9c0.9-2.3,0.9-5,1.3-7.4c0.4-2,0.3-4.4,1.4-5.9
			c1.4-1.9,0.1-4,1.4-6C355.6,429.7,355.1,429.3,358,428.7z"/>
	</g>
</g>
</svg>
