<?xml version="1.0" encoding="utf-8"?>
<!-- Generator: Adobe Illustrator 17.1.0, SVG Export Plug-In . SVG Version: 6.00 Build 0)  -->
<!DOCTYPE svg PUBLIC "-//W3C//DTD SVG 1.1//EN" "http://www.w3.org/Graphics/SVG/1.1/DTD/svg11.dtd">
<svg version="1.1" id="Layer_1" xmlns="http://www.w3.org/2000/svg" xmlns:xlink="http://www.w3.org/1999/xlink" x="0px" y="0px"
	 viewBox="0 0 1440 937" enable-background="new 0 0 1440 937" xml:space="preserve">
<g>
	<g>
		<path d="M961,490.6c0-7.3,0-14.6,0-21.9c0-28,0-56,0.1-84c0-3.5-1.1-6.5-2.4-9.5c-1.3-3-3.5-5.5-3.9-9.1c-1.4,0-2.9,0-4.2,0
			c-2.3-2.3-2.8-5.5-4.6-7.9c-1.9,0-3.7,0-5.9,0c0-3.9-0.1-7.7,0.1-11.5c0.1-1.9-0.3-3.5-1.1-5.1c-1.2-2.3-2.5-4.6-3.2-7.2
			c-0.4-1.3-0.9-3.4-3.3-3.6c-1.1-0.1-1.3-1.7-1.8-2.8c-3.1,0.5-6.4-0.8-9.5,1c-0.2,0.1-0.7,0-1,0c-7.9-0.8-15.7,1.9-23.8,0.8
			c0-26.4,0-53,0-79.9c7.2,1,14.2-1,21.4-1c6.5,0.1,13-1.5,19.6-0.9c4.6-1.8,9.5-0.3,14.1-1.1c5.4-1,10.9-0.1,16.1-1.1
			c4.6-0.9,9.1-0.6,13.6-0.8c2.7-0.1,5.2-1.5,8.1-1.1c2.8,0.4,5.8,0.7,8.5,0c6.4-1.7,12.7-0.3,19.1-1c1.2,4.4,2.4,8.5,3.6,12.9
			c2.6,0,5.4,0,8.1,0c1.8,4.3,2,9,4,13.2c3.4,0,6.9,0,10,0c3.4,12.4,6.7,24.5,10,36.9c0.9,0,2.1,0,3.1,0c2,4.7,3,9.6,4.4,14.4
			c1.5,4.9,2.1,10.1,4.6,14.6c0.7,1.4,0.5,2.8,0.8,4.1c1.8,6.9,4,13.7,5.8,20.7c1.2,4.9,2.4,10,4.1,14.8c0.4,1.1,0.8,2.1,0.8,3.2
			c0,31.5,0,63,0,94.5c0,0.1-0.1,0.3-0.3,0.8c-2.6-0.6-5,1.4-7.8,1c-2.6-0.3-5,0.8-7.6,1.1c-4.4,0.6-8.7,1.4-13.2,2
			c-2.2,0.3-4.8,0-6.5,1c-2.2,1.2-4.2,0.2-6.2,0.9c-4.6,1.6-9.7,1.1-14.3,2.9c-2.2,0.8-4.9-0.6-7,1.1c-3.3-0.7-6.3,1.7-9.6,0.9
			c-1.8-0.4-2.9,1.3-4.6,1.1c-1.5-0.2-3.3-0.6-4.6,0.9c-3-0.7-5.7,0.9-8.6,1.1c-3.4,0.2-6.9,0.6-10.2,1.8c-0.7,0.3-1.6,0.2-2.4,0.1
			c-3.3-0.3-6.3,1.6-9.6,1.1C963,490,962.5,491.5,961,490.6z"/>
	</g>
</g>
</svg>
