<?xml version="1.0" encoding="utf-8"?>
<!-- Generator: Adobe Illustrator 17.1.0, SVG Export Plug-In . SVG Version: 6.00 Build 0)  -->
<!DOCTYPE svg PUBLIC "-//W3C//DTD SVG 1.1//EN" "http://www.w3.org/Graphics/SVG/1.1/DTD/svg11.dtd">
<svg version="1.1" id="Layer_1" xmlns="http://www.w3.org/2000/svg" xmlns:xlink="http://www.w3.org/1999/xlink" x="0px" y="0px"
	 viewBox="0 0 1440 937" enable-background="new 0 0 1440 937" xml:space="preserve">
<g>
	<g>
		<path d="M861,592.9c0-9.1,0.3-17.8-0.1-26.4c-0.2-5.1,1.6-10,1.1-15.1c1.4-1.8,0.9-4,1.1-6.2c13.9-2.4,27.6-5.5,41.7-7.4
			c4.3,7.3,11.6,11.7,16.1,18.9c0,9.2,0,18.6,0,28.1c-4.9,1.2-9.7,2-14.6,2.2c-1.9,0.1-3.5,1.5-5.6,1.1c-1.8-0.3-3.9-0.5-5.6,0.9
			c-3.5-0.7-6.7,1.4-10.1,0.9c-2.1-0.3-3.6,1.3-5.6,1.1c-1.7-0.1-3.6-0.6-5.1,0.9C869.9,591.3,865.7,593.6,861,592.9z"/>
		<path d="M1019.1,570.6c0-4.8-1.4-9.4-1.9-14.1c-0.3-3-1.6-5.9-1.3-9.1c0.3-3.1,0.1-6.3,0.1-9.5c0-4.8,0-9.6,0-14.9
			c3.5,0,6.9,0,10.3,0c12.4,0.1,24.7-2,37.4-0.7c4.1,4.5,9.4,8.5,13.1,14.4c0,9.1,0,18.5,0,28c-3.8,1.1-7.7,1.1-11.4,1.6
			c-2.9,0.4-6,0.1-8.5,1c-2.8,1-5.6,0.1-8.1,0.9c-2.9,0.9-5.9,0.3-8.6,1.1c-2.8,0.8-5.6,0.2-8.1,1c-2.4,0.8-4.7,0.8-7.1,0.8
			c-0.8,0-1.5,0.1-2.3,0.6C1021.3,572.4,1021.2,572.2,1019.1,570.6z"/>
	</g>
</g>
</svg>
