<?xml version="1.0" encoding="utf-8"?>
<!-- Generator: Adobe Illustrator 17.1.0, SVG Export Plug-In . SVG Version: 6.00 Build 0)  -->
<!DOCTYPE svg PUBLIC "-//W3C//DTD SVG 1.1//EN" "http://www.w3.org/Graphics/SVG/1.1/DTD/svg11.dtd">
<svg version="1.1" id="Layer_1" xmlns="http://www.w3.org/2000/svg" xmlns:xlink="http://www.w3.org/1999/xlink" x="0px" y="0px"
	 viewBox="0 0 1440 937" enable-background="new 0 0 1440 937" xml:space="preserve">
<g>
	<g>
		<path d="M522.7,604c1.4,0.4,3.1-0.6,4.8,0.8c0.7,0.6,2.2,0.2,3.4,0.2c9.6,0,19.2,0,29.2,0c0,6.3-0.3,12.4,0.1,18.5
			c0.5,8.9-1.6,17.7-1.1,26.5c-1.7,4.4-0.7,9-1.1,14c-8.7,2.9-18,3.9-27.1,6.9c-0.9-0.2-1.9-1-1.7-1.8c0.3-2.1-1.1-3.6-1.2-5.6
			c-0.1-1.7-1.2-3.3-0.9-5.1c-2-1.2,0-4-2-5.2c0.1-3.1-0.9-5.9-1.8-8.7c-0.8-2.6-0.7-5.6-2.1-8.1c-0.4-0.6-0.1-1.6-0.1-2.5
			c0-8.8,0-17.6,0-26.4C521,606.2,521,604.9,522.7,604z"/>
		<path d="M539,566.8c-11.3,2.7-22.4,5.4-33.5,8.1c-0.5-0.5-1.2-1-1.5-2.1c-1.9-7.3-4.4-14.5-6-22c-0.5-2.4-1.5-4.7-2.1-7.1
			c-0.4-1.6-0.8-3.1-0.8-4.6c0-8.6,0-17.2,0-26c0.9,0,1.6-0.2,2.2,0c3.9,1.6,8.1,0.6,12.1,1c6.1,0.6,12.3,1.4,18.4,0.9
			c4.6,7.3,7.3,15.3,11.3,23C539,547.2,539,556.8,539,566.8z"/>
	</g>
</g>
</svg>
