<?xml version="1.0" encoding="utf-8"?>
<!-- Generator: Adobe Illustrator 17.1.0, SVG Export Plug-In . SVG Version: 6.00 Build 0)  -->
<!DOCTYPE svg PUBLIC "-//W3C//DTD SVG 1.1//EN" "http://www.w3.org/Graphics/SVG/1.1/DTD/svg11.dtd">
<svg version="1.1" id="Layer_1" xmlns="http://www.w3.org/2000/svg" xmlns:xlink="http://www.w3.org/1999/xlink" x="0px" y="0px"
	 viewBox="0 0 1440 937" enable-background="new 0 0 1440 937" xml:space="preserve">
<g>
	<g>
		<path d="M652,594.7c-5.3,1-10.3,1-15.3,1.6c-3.9,0.4-7.8,0.1-11.6,0.9c-4.2,0.9-8.5,0.1-12.6,1c-3.8,0.8-7.5,0.2-11.1,0.9
			c-4.4,0.9-8.8,0.2-13.1,1.1c-3.3,0.7-6.5,0.2-9.6,0.9c-4.5,1-9.2,0.2-13.6,1.1c-3.3,0.7-6.4,0.8-9.6,0.7c-2.2-0.1-4,1.2-6,1.2
			c-1-1.8-2.1-3.5-1.6-5.5c0.6-1.9-1.3-3.2-1.1-5.1c0.2-1.7,0.9-3.6-0.9-5.1c-0.2-0.2,0-1,0-1.5c0-2.1,0-4.1-0.9-6.1
			c-0.7-1.7,0.4-3.8-1-5.6c-0.5-0.6-0.1-1.9-0.1-2.9c0-1.6,0.4-3.3-1.4-4.3c0.7-0.8,1.2-1.3,1.7-1.9c1.3,0,2.8,0,4.6,0
			c0-1.6,0-3.1,0-4.5c0-12.7-0.2-25.3,0.1-38c0.1-4.3-1.4-8.3-1.1-12.6c-1.6-2-0.2-4.7-1.2-6.5c-1.3-2.2-0.1-4.3-0.8-6.2
			c-1.7-4.6-1.1-9.7-2.9-14.3c-0.5-1.3-0.2-3,0-4.5c0.1-1.4-1.4-2.1-1.1-3.6c0.4-1.9-0.4-3.7-0.9-5.6c-0.5-1.6,0.4-3.5-1-5.1
			c-0.5-0.6-0.1-1.9-0.1-2.9c0-106,0-211.9,0-318.1c5-0.4,9.9-1.9,14.9-1.2c3.8,0.5,7.4-1.1,11.1-1c3.8,0,7.8,0.7,11.5-0.2
			c4.8-1.2,9.4-0.6,14.1-0.8c2.9-0.1,5.6-1.5,8.6-1.1c3,0.4,6.1,0.7,9,0c5.7-1.5,11.4-0.7,17.1-0.8c2,0,3.5-1.5,5.6-1.2
			c2,0.3,4,0.1,6,0.1c0.6,0,1.3,0,0.7,0c3.6,1.1,2.2,3.4,2.9,5c2.5,6.3,3.8,13.1,5.7,19.6c1.1,3.7,2.1,7.4,3.2,11.1
			c0.9,3,1.7,6,1.7,9.3c0,89.8,0,179.6,0,269.4C652,499.8,652,547.1,652,594.7z"/>
			<path d="M653.4,291.1c5.3-0.7,10.8,0.9,16.4-1.3c1.5,5,3,10.1,4.5,15.2c3.5-0.1,6.7-1.4,10.2-1.1c3.5,0.3,7,0,10.6-0.8
			c3.4-0.7,7-0.1,10.5-0.1c2.5,1.9,1.4,5.4,3.5,7.5c-0.1,3.6,1.9,6.5,2.8,9.8c0.6,2.3,0.6,4.7,2.6,6.4c1-0.3,1.7-1.6,2.3-1.2
			c1.2,0.6,1.3,1,1.4,1.5c0.6,2.1,1.4,4.1,2,6.2c2.2,7.4,4.6,14.8,6.7,22.2c1.9,6.6,4.4,12.9,5.8,19.6c0.9,4.1,2.2,8.1,3.6,12
			c1.3,3.8,1.8,7.8,3.7,11.5c0.8,1.5,0.4,3.7,1.7,5.2c5,1.2,9.9-1,14.9-0.8c2,0.1,4,0,5.9,0c1.6,0.8,1.3,2.4,1.9,3.7
			c2,4.4,2.8,9,2.8,13.9c-0.1,25-0.1,50-0.1,75.2c-4,0-7.7,1.9-12,1c0,29.9,0,59.3,0,88.6c-0.9,0.8-1.4,1.7-2.6,1.5
			c-1.7-0.2-3.4,0.2-5-0.1c-2.7-0.5-5,1.2-7.6,1.1c-2.5-0.1-5.2-0.7-7.4,0.1c-3.4,1.2-6.8,0.8-10.1,0.8c-2.5-0.1-4.6,1.5-7.1,1.1
			c-2.3-0.3-4.9-0.7-6.9,0.1c-3.3,1.3-6.5,0.9-9.6,0.7c-2.5-0.1-4.6,1.5-7.1,1.2c-2.5-0.3-5.2-0.7-7.4,0.1c-2.9,1.1-5.8,1-8.6,0.7
			c-2.7-0.2-5,1.3-7.6,1.1c-2.5-0.1-5.2-0.6-7.4,0.1c-2.7,0.9-5.4,0.7-8.4,0.9c0-1.8,0-3.5,0-5.1c0-97.6,0-195.3,0-292.9
			c0-1.2,0.1-2.3,0-3.5C651.8,292.3,652.8,291.8,653.4,291.1z"/>
		<path d="M440.2,352.2c6.3-0.7,12.5-0.9,18.7-1.5c4.7-0.4,9.5,0,14.1-0.9c4.7-1,9.5,0,14.1-1c4.6-1,9.2-0.1,13.6-1
			c4.9-1,9.7-0.6,14.6-0.9c2.2-0.1,4.2-1.6,6.7-0.6c0-15.7,0-30.8,0-46.1c5.9-0.9,11.9,0.8,17.6-1.4c0.9,1.5,0.5,3,0.5,4.4
			c0,52.3,0,104.6,0,156.9c0,1.9-0.2,3.7,0.9,5.6c0.9,1.6-0.6,3.7,0.9,5.6c0.7,0.8,0.3,2.6,0.1,3.9c-0.2,1.4,1.4,2.1,1.1,3.6
			c-0.8,3.3,1.6,6.3,1,9.6c2,4.9,1,10.4,3,15.3c-0.7,2.8,0.6,5.4,1.1,8.1c1.6,8.8,0.7,17.7,0.9,26.6c0.2,9,0,18,0,27
			c-3.2,1.9-6.8,1.3-10.3,1.6c-5.2,0.4-10.3,1.3-15.6,0.9c-2.9,1.8-6,0.8-9.1,1c-5.2,0.3-10.3,1.6-15.6,1c-3.6,1.7-7.5,0.3-11.1,1.1
			c-4.2,0.9-8.5,0.2-12.6,1.1c-3.9,0.8-7.7,0.8-11.6,0.8c-2,0-3.8,2.1-6.2,0.6c0-1.3,0-2.8,0-4.3c0-12.7-0.2-25.3,0.1-38
			c0.1-4.8-1.4-9.3-1.1-14.1c-1.7-3.1-0.9-6.4-1-9.6c-0.1-2.4-1.4-4.5-1.1-7.1c0.3-2.2,0.6-4.6-0.9-6.6c-0.1-0.1,0-0.3,0-0.5
			c0.8-5.3-1.5-10.3-1-15.6c0.3-2.5-1.4-4.5-1.1-7.1c0.2-2.1,0.9-4.6-0.9-6.6c-0.2-0.2-0.1-0.7,0-1c0.7-5.4-1.4-10.7-1.1-16.1
			c0.1-2.2-1.2-4.2-1-6.6c0.2-2.2,0.6-4.6-0.9-6.6c-0.1-0.1,0-0.3,0-0.5c0.8-5.3-1.6-10.3-1-15.6c0.3-2.5-1.4-4.5-1.1-7.1
			c0.2-2.1,0.9-4.6-0.9-6.6c-0.2-0.2-0.1-0.7,0-1c0.7-5.4-1.5-10.7-1.1-16.1c0.1-2.2-1.2-4.2-1-6.6c0.2-2.2,0.6-4.6-0.9-6.6
			c-0.1-0.1,0-0.3,0-0.5C441.4,366.5,439,359.5,440.2,352.2z"/>
	</g>
</g>
</svg>
