<?xml version="1.0" encoding="utf-8"?>
<!-- Generator: Adobe Illustrator 17.1.0, SVG Export Plug-In . SVG Version: 6.00 Build 0)  -->
<!DOCTYPE svg PUBLIC "-//W3C//DTD SVG 1.1//EN" "http://www.w3.org/Graphics/SVG/1.1/DTD/svg11.dtd">
<svg version="1.1" id="Layer_1" xmlns="http://www.w3.org/2000/svg" xmlns:xlink="http://www.w3.org/1999/xlink" x="0px" y="0px"
	 viewBox="0 0 1440 937" enable-background="new 0 0 1440 937" xml:space="preserve">
<g>
	<g>
		<path d="M678,605.9c-1.8,0-3.2,0-4.6,0c-3-6.4-6.2-12.6-8.8-19c-1.9-4.5-4.2-8.9-5.8-13.6c-0.9-2.7-0.6-5.2-0.6-7.7
			c0-1.8-0.3-3.6-1.1-5.1c-4.5-8.1-7.8-16.8-12-25c-0.2-0.4-0.7-0.7-1.1-1.3c-0.9-0.9-2.4,0.2-3.5-0.5c-2-4-4.1-7.8-5.7-11.8
			c-2.4-6-6.1-11.5-7.8-17.7c0-0.1-0.3-0.2-0.3-0.4c-1.2-2.3-2.9-4.6-3.4-7.1c-0.6-2.9-0.1-6-0.1-9c0-29.2,0-58.3,0-87.9
			c3.7,0.6,7.1-1.6,11-1c0-5.8,0-11.2,0-16.5c0.5-0.5,0.9-0.9,1.4-1.4c3.3,0,6.7,0,10.5,0c0-4.7,0-9.3,0-13.9
			c6.3-0.5,12.3-1.1,18.3-1.5c5-0.3,10.2-0.1,15.1-1c4.4-0.8,8.8-0.1,13.1-0.9c5-1,10.2-0.1,15.1-1.1c4.3-0.8,8.4-0.7,12.6-0.7
			c2.5,0,4.5-1.5,7.1-1.1c2.4,0.4,5.2,0.7,7.4-0.1c2.7-0.9,5.4-0.7,8.2-0.9c1.8,5.1,3.5,10,5.2,15.2c3.3-0.6,6.5,0.6,9.7-0.9
			c2.2,0.6,0.7,3.4,2.3,4.5c2.8,9.2,5.3,18.4,8.7,27.4c0.4,1,0.3,1.9,0.3,2.9c0.1,3.8,0.1,7.7,0,11.5c-0.1,2.1,0.3,4.1,1,6.1
			c2.2,6.3,3.6,12.8,6.4,19.3c1.3,0,2.9,0,4.2,0c3.5,5.8,4,9.2,1.9,12.1c-7.4-0.9-14.8,1.6-22.4,0.9c-4.4,1.6-9.2,0.2-13.5,1.2
			c-4.1,0.9-8.2,0.1-12.1,0.9c-4.5,0.9-9.2,0.2-13.6,1.1c-4.2,0.8-8.4,0.8-12.6,0.7c-1.7,0-2.5,1.4-4.3,1.1c0.4,6.4-0.8,12.6,1,19.1
			c-5.4-0.8-10.6,1.5-16,1c-0.5,0-1,0-1.8,0c0,5.6,0,11.2,0,16.9c-2.8,0-5.3,0-7.5,0c-0.7,0.7-1.2,1.1-1.6,1.6
			C678,536.8,678,571.2,678,605.9z"/>
	</g>
</g>
</svg>
