<?xml version="1.0" encoding="utf-8"?>
<!-- Generator: Adobe Illustrator 17.1.0, SVG Export Plug-In . SVG Version: 6.00 Build 0)  -->
<!DOCTYPE svg PUBLIC "-//W3C//DTD SVG 1.1//EN" "http://www.w3.org/Graphics/SVG/1.1/DTD/svg11.dtd">
<svg version="1.1" id="Layer_1" xmlns="http://www.w3.org/2000/svg" xmlns:xlink="http://www.w3.org/1999/xlink" x="0px" y="0px"
	 viewBox="0 0 1440 937" enable-background="new 0 0 1440 937" xml:space="preserve">
<g>
	<g>
		<path d="M532.1,486.1c0,4.9,0,9.7,0,14.3c-0.6,0.6-1.1,1.1-1.6,1.6c-2.8,0-5.8-0.6-8.4,0.2c-2.3,0.7-4.4,0.6-7.1,0.9
			c0-5.6,0-11,0-16.5c0-2.1,0-4.1-0.9-6.1c-0.8-1.8,0.9-4.3-1.1-6.1c-0.2-0.2-0.1-0.6,0-1c0.6-3.9-1.5-7.6-1.1-11.6
			c0.4-3.8,0.2-7.7,0-11.5c-0.1-2.4,0.5-4.7-0.8-7.2c-1.1-2,0.1-4.6-1-7.1c-0.9-2.2-0.8-5-1-7.5c-0.3-3.6-1.7-7-1.2-10.6
			c0.3-1.8-1.3-3.2-1.1-5.1c0.2-1.5,0.7-3.3-0.9-4.6c-0.2-0.2-0.1-1,0-1.5c0.7-4-1.6-7.6-1-11.6c-1.4-2.2-0.4-4.8-1.1-7
			c-0.8-2.4-0.2-4.9-1-7.1c-0.9-2.6-0.7-5.1-0.9-7.8c-0.9-0.8-1.9-1.7-2.8-2.4c-1.2-11.7-3.7-23-4.5-34.7
			c15.4-2.1,30.7-4.2,46.4-6.3c-0.5,2.3,0.3,4.2,1.5,6.1c2.5-1.2,5.2-1.1,7.9-1.2c2.7-0.2,5.4-0.7,8.1-1.1c4.9-0.8,9.8-1,14.7-2
			c2.7-0.5,5.7-0.1,8-1.1c2.7-1.1,5.3,0.1,7.6-0.9c2.4-1.1,5-0.1,7.1-1c2.4-1,4.8-0.8,7.1-0.8c1.6,0,2.8-1.6,4.5-1.1
			c1.4-3.1,1.6-6.2,1.4-9.4c0.6-0.6,1-1,1.7-1.7c4.3,1.1,8.5-0.7,12.9-1.1c2.7-0.2,5.7,0.1,8-1c3.1-1.4,6.5,0.4,9.3-1.8
			c0.3-0.2,1,0,1.5,0c2.4-0.1,4.7,0,7.1-0.9c2-0.7,4.5,0.5,6.5-1.1c0.1-0.1,0.3,0,0.5,0c2.7-0.1,5.4-0.2,8.1-0.8
			c2.4-0.6,5.1-0.4,7.5-1.2c0.4-0.1,1,0,1.6,0c1.6,5.7,3.2,11.4,4.8,17c1.1,4,2.3,8.1,3.3,12.1c1.2,4.5,2.9,8.9,3.5,13.6
			c0.1,1,0.6,2.1,0.6,3.2c0.1,3.7,0.3,7.4-0.1,11c-0.3,3,1.4,5.7,1.1,8.6c1.6,1.1,1,2.7,1,4.1c0,32,0,64,0,95.9
			c-4.9,1.4-9.9,1.8-14.9,1.4c-2.5-0.2-4.5,1.5-7.1,1.1c-2.4-0.4-5.2-0.7-7.4,0.1c-4.1,1.3-8.2,0.2-12.1,1
			c-4.5,0.9-9.2,0.2-13.6,1.1c-4.2,0.8-8.5,0.2-12.6,1c-4.2,0.8-8.5,0.2-12.6,1c-4.1,0.9-8.2,0.2-12.1,0.9
			c-4.7,0.9-9.5,0.2-14.1,1.1c-4.1,0.8-8.2,0.1-12.1,0.9c-4.5,0.9-9.2,0.2-13.6,1.1c-4.4,0.8-8.9,0.1-13.1,1
			C539.3,485.9,535.8,485.7,532.1,486.1z"/>
	</g>
</g>
</svg>
