<?xml version="1.0" encoding="utf-8"?>
<!-- Generator: Adobe Illustrator 17.1.0, SVG Export Plug-In . SVG Version: 6.00 Build 0)  -->
<!DOCTYPE svg PUBLIC "-//W3C//DTD SVG 1.1//EN" "http://www.w3.org/Graphics/SVG/1.1/DTD/svg11.dtd">
<svg version="1.1" id="Layer_1" xmlns="http://www.w3.org/2000/svg" xmlns:xlink="http://www.w3.org/1999/xlink" x="0px" y="0px"
	 viewBox="0 0 1440 937" enable-background="new 0 0 1440 937" xml:space="preserve">
<g>
	<g>
		<path d="M908.2,500.7c-0.1-0.5-0.2-0.9-0.4-1.4c-1.5-1.1-2.7,0.7-3.9,0.6c-3.2-0.4-6.1,0.7-9.1,1.3c-5.3,1-10.7,0.8-15.8,2.8
			c-3.3-0.7-6.4,1.3-9.6,0.9c-1.9-0.2-3.1,1.5-5.1,1.2c-1.7-0.3-3.6-0.7-5.1,0.9c-3-0.7-5.7,1.1-8.6,1c-2.7-0.1-5.3,1.8-8,0.9
			c-0.9,0.9-2.2,1.3-1.6,2.8c-22.3,3.5-44.4,7-66.5,10.5c-2.8-7.9-4.5-16-7.4-23.6c-0.4-1.2-0.2-2.6-0.2-3.9c0-24.5-0.1-49,0.1-73.5
			c0-4.6-1-8.8-2.4-13c-0.6-1.8-1.3-3.4-2.1-5.3c-3.2,0-6.3,0-9.5,0c0-21,0-41.7,0-62.4c0.4-0.7,0.9-0.3,1.7-0.6c0-2.1,0-4.3,0-6.2
			c0.7-0.7,1.1-1.1,1.7-1.7c7.6,0.9,15.3-1.5,23.2-0.9c2.8,0.2,5.2-1.5,8.1-1.1c2.8,0.4,5.8,0.7,8.4-0.1c4.6-1.3,9.2-0.1,13.6-1
			c3.9-0.8,7.7-0.7,11.8-0.9c2.8,7.3,5.6,14.7,8.4,22.1c2.5-0.3,4.7,0.3,6.9-1c1-0.6,2.6-0.2,3.9-0.1c7.2,0.3,14.3-1.7,21.6-1
			c4.2-1.9,8.7-0.9,13.1-0.9c1.8,0,2.9-1.4,4.6-1.2c1.5,0.2,3,0,4.8,0c0-5,0-9.9,0-14.7c6.2-0.9,12-0.9,17.8-1.6
			c5.2-0.6,10.5,0.1,15.6-1c4.1-0.8,8.1-0.5,12.1-0.8c2.3,2.3,4.4,4.6,5.9,7.6c1.3,2.6,1.4,5.8,3.7,8c0,4.7,0,9.3,0,14.2
			c2.1,0,4.2,0,6.1,0c2.2,2.5,1.8,6,4.4,8.2c1.2,0,2.7,0,4.1,0c2.4,4.5,3.7,9.4,6.5,13.7c0,0,0,0.1,0,0.3c0,37.5,0,75,0,112.8
			c-4.6,0.9-9.1,2.3-13.9,2.2c-1.7-0.1-2.8,1.6-4.6,1.2c-1.3-0.3-3-0.6-4.1,0.9c-0.2,0.2-1,0-1.5,0c-4,0.1-7.8,1.4-11.7,1.8
			c-3.2,0.3-6.3,1.6-9.6,1.2C913.2,499.7,911.1,501.8,908.2,500.7z"/>
	</g>
</g>
</svg>
