<?xml version="1.0" encoding="utf-8"?>
<!-- Generator: Adobe Illustrator 17.1.0, SVG Export Plug-In . SVG Version: 6.00 Build 0)  -->
<!DOCTYPE svg PUBLIC "-//W3C//DTD SVG 1.1//EN" "http://www.w3.org/Graphics/SVG/1.1/DTD/svg11.dtd">
<svg version="1.1" id="Layer_1" xmlns="http://www.w3.org/2000/svg" xmlns:xlink="http://www.w3.org/1999/xlink" x="0px" y="0px"
	 viewBox="0 0 1440 937" enable-background="new 0 0 1440 937" xml:space="preserve">
<g>
	<g>
		<path d="M686.2,359.5c-6.1,1.6-11.8,1.4-17.5,1.6c-2.1,0-4.2,1.6-6.5,0.6c0-33.8,0-67.6,0-101.4c1.7-1,3.8,0.3,5.6-1.2
			c1.1-0.9,3.3,0,5.1-1c1.3-0.7,3.3,0,4.9-0.2c3.9-0.3,7.8,0.7,11.6-0.9c1.6-0.6,3.6-0.1,5.2-0.1c2.4,2.4,2.3,5.6,3.4,8.3
			c1.6,3.8,2.3,8,3.7,12c0.8,2.2,0.4,4.9,0.5,7.6c5.8,0.7,11.5-2.1,17.7-0.5c0-10,0-19.6,0-29.4c5.5-0.1,10.7,0.5,16-1.5
			c0.1-0.1,0.3-0.7,0.5-1.3c7.7,0.3,15.3-1.4,23-1.2c0.8,0,1.6,0,2.4,0c4.3,7.5,9.3,14.4,14.3,21.9c0,5.1,0,10.7,0,16.4
			c0,2.1,0.4,4,1.6,5.9c1.6,2.4,2.8,4.9,5,6.9c1,0,2,0,2.9,0c7.2,11.2,14.4,22.4,21.6,33.5c-1.7,1.2-3.6-0.2-5.3,1.1
			c-1.3,1-3.2,0.3-4.8,0.4c-1.8,0.1-3.7,0.2-5.5,0c-2.8-0.3-5.2,1.5-8.1,1.1c-2.6-0.3-5.5-0.7-7.9,0.1c-3.9,1.3-7.8,0.8-11.6,0.8
			c-2.8-0.1-5.2,1.6-8.1,1.2c-2.8-0.4-5.9-0.7-8.4,0.1c-3.3,1-6.5,0.9-9.6,0.7c-3.2-0.2-6,1.2-9.1,1.1c-3-0.1-6.2-0.7-9,0.1
			c-4.4,1.3-8.9,0.1-13.1,1c-4.9,1-9.7,0.8-14.6,0.9c-1.9,0-3.5,1.6-5.7,0.8C686.2,349.9,686.2,354.7,686.2,359.5z"/>
	</g>
</g>
</svg>
