<?xml version="1.0" encoding="utf-8"?>
<!-- Generator: Adobe Illustrator 17.1.0, SVG Export Plug-In . SVG Version: 6.00 Build 0)  -->
<!DOCTYPE svg PUBLIC "-//W3C//DTD SVG 1.1//EN" "http://www.w3.org/Graphics/SVG/1.1/DTD/svg11.dtd">
<svg version="1.1" id="Layer_1" xmlns="http://www.w3.org/2000/svg" xmlns:xlink="http://www.w3.org/1999/xlink" x="0px" y="0px"
	 viewBox="0 0 1440 937" enable-background="new 0 0 1440 937" xml:space="preserve">
<g>
	<g>
		<path d="M536.1,605c-0.3-2.7,0-5.1-1-7.4c-0.8-2,0.4-4.5-1.1-6.5c0.8-3.6-0.6-7.1-1.2-10.6c-1.7-10.4-0.5-20.7-0.8-31.1
			c-0.3-10.5-0.1-21-0.1-31.5c0-10.5,0-21,0-31.8c5.6,0.3,11-1.8,16.5-1c2.6,0.4,4.9-1.4,7.6-1.1c2.5,0.3,5.2,0.7,7.4-0.1
			c3.7-1.3,7.4-0.8,11.1-0.8c2.6,0,4.9-1.6,7.6-1.2c2.4,0.4,5.2,0.7,7.4-0.1c3.4-1.2,6.8-0.9,10.1-0.7c2.7,0.2,4.9-1.4,7.6-1.2
			c2.5,0.2,5.2,0.7,7.4-0.1c3.1-1.2,6.1-0.8,9.1-0.8c5.6-0.1,11-1.8,16.6-1c3.6-1.8,7.4-1,11.1-0.9c2.6,0,4.9-1.6,7.6-1.2
			c2.4,0.4,5.2,0.7,7.4-0.1c3.4-1.2,6.8-0.7,10.1-0.8c4.2-0.1,8.3-2,12.4-0.9c1.4-1.2,0.3-2.7,1-4c1.2-0.5,2.5-0.3,3.8-0.2
			c6.7,0.4,13.3-1.8,20.1-1c4.1-1.6,8.5-0.3,12.6-1.1c4.6-0.9,9.2-0.2,13.6-1c4.3-0.9,8.5-0.1,12.6-1c4.2-0.9,8.5-0.1,12.6-1.1
			c4.1-0.9,8.2-0.1,12.1-0.9c4.7-1,9.5-0.2,14.1-1.1c3.8-0.8,7.4-0.8,11.1-0.7c2.6,0,4.9-1.6,7.6-1.2c2.4,0.4,5.2,0.7,7.4-0.1
			c3.4-1.2,6.8-0.9,10.1-0.8c2.8,0.1,5.3-1.4,8.1-1.1c2.6,0.3,5.6,0.7,7.9-0.1c3.1-1.1,6.1-0.9,9.1-0.7c2.9,0.2,5.3-1.2,8.1-1.1
			c2.8,0.1,5.9,0.6,8.5-0.1c3.7-1.1,7.5-0.3,11.1-0.9c3.3-0.6,6.6-1.3,10-0.7c0.5,3,2.2,5.4,3.2,8.2c1.7,4.8,3.3,9.4,3.2,14.7
			c-0.2,25.5-0.1,51-0.1,76.4c-1.1,2.1-3.6,1.1-5,2.5c-3.3-0.7-6.4,1.3-9.6,0.9c-1.9-0.2-3.2,1.5-5.1,1.2c-1.7-0.3-3.4,0-5.1,0.8
			c-2.1,0.9-4.8-0.5-7,1.2c-3.3-0.7-6.3,1.7-9.6,0.9c-1.8-0.4-2.9,1.3-4.6,1.1c-1.4-0.1-2.9-0.7-4.2,0.6c-0.4,0.4-1.2,0.3-1.8,0.3
			c-4.3,0.4-8.5,1.2-12.7,1.8c-3.2,0.4-6.3,1.9-9.5,1.2c-2-0.4-3.2,1.4-5.1,1.1c-1.7-0.2-3.3-0.2-5.2,0.7c-1.8,0.9-4.5-0.2-6.5,1.2
			c-3.6-0.8-7,1.5-10.6,1c-1.7-0.3-2.9,1.2-4.6,1.1c-1.4-0.1-2.9-0.6-4.2,0.8c-0.3,0.3-1.3,0.1-1.9,0.1c-1.9,0-3.8-0.1-5.6,0.9
			c-1.6,0.9-3.9-0.8-5.6,1c-0.3,0.3-1.3,0.2-1.9,0c-3-0.6-5.6,1.4-8.6,1.1c-2.7-0.3-5.3,1.7-8.1,1c-2,1.7-4.5,0.3-6.5,1.1
			c-2.1,0.8-4.1,1-6.1,0.8c-1.7-0.2-2.8,1.6-4.6,1.1c-1.3-0.3-2.9-0.6-4.1,0.9c-0.3,0.3-1.3,0.2-1.9,0c-3-0.6-5.6,1.4-8.6,1.1
			c-2.7-0.3-5.4,0.7-8,1.2c-3.9,0.6-7.8,1.4-11.7,1.7c-1.8,0.1-3.2,1.4-5.1,1.2c-1.5-0.2-3.3-0.8-4.6,0.9c-0.2,0.2-1,0-1.5,0
			c-2.1,0-4.1,0-6.1,0.9c-1.7,0.7-3.6,0.2-5.6,0.9c-2.5,0.8-5.3,0.4-8,1.1c-3.9,1-8.1,1.4-12.2,1.9c-3.2,0.4-6.3,1.5-9.5,1.2
			c-1.9-0.2-3.1,1.5-5.1,1.2c-1.7-0.3-3.4,0.1-5.1,0.7c-2.5,0.8-5.3,0.4-8.1,1.1c-3.9,1-8.1,1.5-12.2,1.9c-4,0.4-8,1.5-12.1,1.3
			c-5.9-0.3-11.7,1.7-17.6,1c-3.2,1.7-6.7,1-10.1,0.9c-2.5-0.1-4.6,1.5-7.1,1.1c-2.3-0.3-4.9-0.7-6.9,0.1c-3.2,1.2-6.5,0.9-9.6,0.8
			c-2.5-0.2-4.6,1.5-7.1,1.2c-2.5-0.3-5.1-0.6-7.4,0.1C540.2,604.7,538.4,605,536.1,605z"/>
	</g>
</g>
</svg>
