<?xml version="1.0" encoding="utf-8"?>
<!-- Generator: Adobe Illustrator 17.1.0, SVG Export Plug-In . SVG Version: 6.00 Build 0)  -->
<!DOCTYPE svg PUBLIC "-//W3C//DTD SVG 1.1//EN" "http://www.w3.org/Graphics/SVG/1.1/DTD/svg11.dtd">
<svg version="1.1" id="Layer_1" xmlns="http://www.w3.org/2000/svg" xmlns:xlink="http://www.w3.org/1999/xlink" x="0px" y="0px"
	 viewBox="0 0 1440 937" enable-background="new 0 0 1440 937" xml:space="preserve">
<g>
	<g>
		<path d="M500,307.9c8.3,0.9,16.1-1.6,24-0.9c4.9-1.7,10.1-0.2,15-1.2c3.9-0.7,7.7-0.7,11.6-0.9c4.2,22.9,8.4,45.6,12.7,68.9
			c0.1,0,0.6,0.5,1.6,1.3c1,0.5,1.8-2.2,3.7-0.9c0.3,0.8,1.3,2,1.2,3c-0.3,2.5,1.5,4.6,1.1,7.1c-0.4,2.3,0.7,4.4,1.2,6.5
			c1.2,5.2,1.6,10.6,2.9,15.8c1.6,6.1,1.6,12.5,3.9,18.4c-0.7,2.3,1.4,4.4,0.9,6.6c-0.4,2.4,0.8,4.4,1.2,6.6
			c0.9,4.1,1.1,8.4,2.7,12.3c0.8,2-0.5,4.5,1.2,6.5c-0.2,4.7,1.5,9.1,2.2,13.6c0.6,4.1,0.7,8.1,0.7,12.1c0.1,24.3,0,48.6,0,73
			c0,1.6,0,3.3,0,5.3c-1.6,0-3,0.1-4.5,0c-2.8-0.3-5.4,0.8-8.1,1c-2.6,0.2-5.3-0.1-8,0.1c-1.7,0.2-3.2,1.2-5.1,1c-1.6-0.2-3.3,0-5,0
			c-1.3-3.7-2.4-7.4-3.9-10.9c-3.4-8.1-6.3-16.4-9.3-24.6c-2.9-7.8-5.6-15.7-8.5-23.5c-2.7-7.5-5.7-15-8.5-22.4
			c-2.9-7.8-5.7-15.7-8.5-23.5c-2.7-7.5-5.1-15.2-8.5-22.5c-1.3-2.8-2.3-6-3.3-9.1c-0.9-2.9-1.9-5.9-2.9-8.8
			c-0.2-0.6-0.1-1.3-0.1-1.9c-0.1-1.9,0-3.7-0.9-5.6c-0.8-1.8,0.4-4.1-0.7-6.2c-1-1.8,0.3-4.1-0.5-5.8c-1.1-2.2-0.3-4.6-1-6.6
			c-0.7-2.1-0.8-4.1-0.9-6.1c0-2.3,0-4.7,0-7C500,355,500,331.7,500,307.9z"/>
	</g>
</g>
</svg>
