<?xml version="1.0" encoding="utf-8"?>
<!-- Generator: Adobe Illustrator 17.1.0, SVG Export Plug-In . SVG Version: 6.00 Build 0)  -->
<!DOCTYPE svg PUBLIC "-//W3C//DTD SVG 1.1//EN" "http://www.w3.org/Graphics/SVG/1.1/DTD/svg11.dtd">
<svg version="1.1" id="Layer_1" xmlns="http://www.w3.org/2000/svg" xmlns:xlink="http://www.w3.org/1999/xlink" x="0px" y="0px"
	 viewBox="0 0 1440 937" enable-background="new 0 0 1440 937" xml:space="preserve">
<g>
	<g>
		<path d="M863.6,450c-1.6-1-2.2-2.6-2.5-3.7c-2.2-8.1-5.4-15.8-8.3-23.5c-2.4-6.4-4.2-13.3-7.8-19.3c-0.2-4.6-3.5-8.2-4.2-12.8
			c-0.2-1.1-0.8-2.3-0.8-3.6c0-24.6,0-49.3,0-73.9c0-0.3,0.1-0.6,0.3-1.1c2.9,0.3,5.4-1.4,8.4-1.2c3.1,0.2,6.2,0.7,9.3-0.4
			c2.9-1,5.8-0.2,8.7-0.6c7.2,10.9,14.2,21.7,21.3,32.4c8,12.2,16.1,24.3,24.2,36.4c8.8,13.2,17.9,26.2,26.4,39.6
			c4.2,6.6,8.6,13,12.8,19.7c1.5,2.4,2.8,5.1,3.8,7.9c1.5,4.3,3.7,8.5,5.7,12.9c-2.6-0.3-4.8,1.5-7.6,1.2c-2.6-0.2-5.3-0.1-7.9-0.1
			c-3.1-4.7-4-10.2-6.8-15c-3.2,0-6.6-0.5-9.8,0.1c-4.7,0.9-9.5,0.2-14.1,1.1c-4.3,0.9-8.5,0-12.6,0.9c-4.6,1.1-9.1,0.2-13.6,1
			c-4.4,0.8-8.9,0.1-13.1,1.1C871.3,450.1,867.4,449.6,863.6,450z"/>
	</g>
</g>
</svg>
