<?xml version="1.0" encoding="utf-8"?>
<!-- Generator: Adobe Illustrator 17.1.0, SVG Export Plug-In . SVG Version: 6.00 Build 0)  -->
<!DOCTYPE svg PUBLIC "-//W3C//DTD SVG 1.1//EN" "http://www.w3.org/Graphics/SVG/1.1/DTD/svg11.dtd">
<svg version="1.1" id="Layer_1" xmlns="http://www.w3.org/2000/svg" xmlns:xlink="http://www.w3.org/1999/xlink" x="0px" y="0px"
	 viewBox="0 0 1440 937" enable-background="new 0 0 1440 937" xml:space="preserve">
<g>
	<g>
		<path d="M753,388.9c-2.2,0.1-3.9,0.4-4.1,3.2c-3.5-0.6-6.8,1.7-10.5,0.9c-2.3-1.8-1.4-5.3-3.3-7.4c-0.8-6.4-3.5-12.2-5.1-18.4
			c-1.4-5.5-3.3-11-4.9-16.4c-1.8-5.9-3.7-11.8-5.6-17.7c-0.6-1.9-0.2-4.2-1.9-5.9c-1.3,0-2.7,0-4.2,0c-2.4-8-4.7-15.9-7.2-24.1
			c-4.2,0.5-8.2-0.6-12.2,1c-1.6,0.6-3.7,0.3-5.4,0.1c-4.8-0.7-9.3,1.4-14,1c-0.7-0.8-0.4-2-1.5-2.5c1.8-1.2,3.8-1.9,5.9-1.5
			c2.4,0.5,4.3-1,6.6-1.1c2-0.1,4.3,1,6.1-0.9c0.2-0.2,0.6-0.1,1,0c4.3,0.6,8.3-1.4,12.6-1.1c1.9,0.2,3.5-1.3,5.6-1
			c1.7,0.2,3.6,0.5,5.1-0.9c0.2-0.2,0.7-0.1,1,0c4.3,0.7,8.3-1.1,12.6-1.2c2.6-0.1,5.5-0.3,8-0.9c2.7-0.7,5.5-0.3,8.1-1
			c2.7-0.8,5.5-0.3,8.1-1c2.7-0.8,5.6-0.2,8.1-1c2.7-0.8,5.6-0.2,8.1-1c2.6-0.8,5.2-0.3,7.6-1c2.7-0.7,5.5-0.3,8.1-1
			c2.7-0.7,5.5-0.3,8.1-1c2.9-0.8,6-0.1,8.6-1c2.8-1,5.6-0.1,8.1-0.9c4.5-1.4,9.2-0.2,13.6-1c5.1-1,10.2-0.1,15.1-1
			c5.1-1,10.2-0.1,15.1-1c4.9-0.9,9.8-0.1,14.6-1c3.1-0.6,6.1-0.6,9.2-0.9c2.7,3.2,3.6,7.3,5.1,10.9c1.2,2.9,2.7,5.9,3.8,8.9
			c0.9,2.3,1.4,4.5,1.4,6.9c0,7.8,0,15.7,0,23.5c0,0.1-0.1,0.3-0.1,0.4c-0.7,0.7-1.6,0.2-2.4,0.4c-0.1,0.1-0.3,0.2-0.3,0.3
			c0,4.8,0,9.6,0,14.9c-3.2-1.1-5.5,0.9-8.3,0.8c-2.8-0.1-5.8-0.5-8.5,0.1c-4.9,1.1-9.9,0.1-14.6,1.1c-4.6,0.9-9.1,0.3-13.6,0.9
			c-3.2,0.5-6.3,1.2-10.2,0.7c-3.4-6.7-5.3-14.3-8.5-21.9c-2.9,0.6-6.2-1-9.2,1c-0.2,0.2-0.7,0.1-1,0c-6.9-0.8-13.7,1.6-20.6,0.9
			c-3.2-0.3-5.9,1.4-9.1,1.1c-3-0.3-6.2-0.7-8.9,0.1c-4.4,1.2-8.8,0.8-13.1,0.8c-1.8,0-3,0.9-4.5,1.5c0,2,0,3.9,0,6.2
			c-0.7,0.5-1.5,1.1-2.1,1.4C753,357.2,753,372.8,753,388.9z"/>
	</g>
</g>
</svg>
