<?xml version="1.0" encoding="utf-8"?>
<!-- Generator: Adobe Illustrator 17.1.0, SVG Export Plug-In . SVG Version: 6.00 Build 0)  -->
<!DOCTYPE svg PUBLIC "-//W3C//DTD SVG 1.1//EN" "http://www.w3.org/Graphics/SVG/1.1/DTD/svg11.dtd">
<svg version="1.1" id="Layer_1" xmlns="http://www.w3.org/2000/svg" xmlns:xlink="http://www.w3.org/1999/xlink" x="0px" y="0px"
	 viewBox="0 0 1440 937" enable-background="new 0 0 1440 937" xml:space="preserve">
<g>
	<g>
		<path d="M685.9,363.9c2,0,3.5,0,5.1,0c0-38,0-75.7,0-114c3.3,1,6.1-0.9,9.1-0.8c3,0.1,6.1,0.5,9-0.1c5.4-1.1,10.8-0.2,16.1-1.1
			c4.8-0.8,9.5-0.1,14.1-0.9c5.7-1.1,11.5-0.1,17.1-1.1c4.4-0.8,8.8-0.8,13.1-0.7c1.9,0,3.1-1.6,5.1-1.2c1.6,0.3,3.3,0.1,5.4,0.1
			c5.5,13.4,10,27.4,15.4,41c2.6,0,5.1-0.1,7.5,0c2.6,0.1,4.9-1.4,7.6-1.1c2.6,0.3,5.5,0.7,7.9-0.1c4.4-1.4,8.8-0.7,13.1-0.8
			c2.8,0,5.2-1.5,8.1-1.1c2.6,0.3,5.5,0.7,7.9-0.1c4.1-1.3,8.1-0.9,12.1-0.8c3,0.1,5.6-1.6,8.6-1.2c2.8,0.3,5.8,0.7,8.4-0.1
			c2.6-0.8,5.3-1.4,7.6-0.7c4.2,1.3,8.4,0.4,12.6,0.9c2.8,0.3,5.3-1.4,8.1-1.1c2.8,0.3,5.9,0.7,8.4-0.1c4.4-1.3,8.8-0.7,13.1-0.8
			c2.6,0,4.9-1.6,7.6-1.2c2.4,0.4,5,0.1,7.5,0.1c0.6,0,1.3,0,2.1,0c2.1,3.9,4.2,7.7,6.2,11.6c2,3.8,4.1,7.7,5.6,11.7
			c2.3,5.8,5.1,11.2,7.9,16.7c0.6,1.2,0.4,2.2,0.4,3.3c0.1,5.8,0,11.6,0,17.6c3.3,0,6.4,0,9.5,0c2.5,5.3,5,10.4,7.5,15.6
			c2.5,5.1,4.8,10.4,7.5,15.4c0.7,1.4,0.5,2.5,0.5,3.8c0.1,9,0,18,0,27c6.6,0.9,11,0.7,13.6-0.6c2.2,2.7,3.6,5.9,4.8,9
			c1.9,5.1,4.3,9.9,7,14.6c2.8,5,3.9,9.9,3.8,15.5c-0.3,12.8-0.1,25.7-0.1,38.5c-1.2,0.9-2.6,0.5-3.8,0.4c-6.2-0.3-12.3,1.8-18.6,1
			c-3.9,1.8-8.1,0.3-12.1,1.1c-4.7,1-9.5,0.2-14.1,1.1c-3.8,0.7-7.5,0.1-11.1,0.9c-4.5,1-9.2,0.2-13.6,1.1c-3.9,0.8-7.7,0.5-11.7,1
			c0,11.9,0,23.7,0,35.9c-5.7-0.6-11,1.7-16.6,0.9c-2.5-0.4-4.6,1.5-7.1,1.1c-2.3-0.3-4.7,0-7-0.1c-0.7,0-1.1,0.6-1.7,0.7
			c-1.6,0.5-3.2,0.7-4.6-1.1c0-17.2,0-34.7,0-50.9c-2.3-5.5-4.1-9.9-6-14.6c-1.9,0.2-3.6-0.8-5.2,0.6c-0.5,0.4-0.9,0.4-1.4,0.4
			c-6.3-0.7-12.4,1.6-18.6,0.9c-2.9-0.3-5.3,1.2-8.1,1.1c-2.8-0.1-5.9-0.7-8.4,0.1c-3.8,1.2-7.4,0.8-11.1,0.8
			c-2.6,0-4.9,1.6-7.6,1.2c-2.4-0.4-5.2-0.7-7.4,0.1c-3.4,1.2-6.8,0.9-10.1,0.7c-2.7-0.2-4.9,1.4-7.6,1.2c-2.6-0.2-5.5-0.7-8,0.1
			c-4.1,1.3-8.2,0.2-12.1,1c-4.7,1-9.5,0.2-14.1,1.1c-3.6,0.7-7.2,0.1-10.6,0.9c-4.7,1-9.5,0.2-14.1,1.1c-4.3,0.8-8.5,0.1-12.6,0.9
			c-4.1,0.8-8.1,0.7-12.1,0.9c-1.7,0.1-2.8-1.6-4.6-1.1c-1.4,0.4-3,0.3-4.5,0c-2.7-0.4-4.9,1.4-7.6,1.1c-2.6-0.3-5.5-0.6-7.9,0.1
			c-2.7,0.8-5.4,0.7-8.4,0.9c0-1.8,0-3.4,0-5.1c0-27.8,0-55.7,0-83.5c0-3.3,0-6.6-1.2-9.5C685.9,368.7,686.2,366.6,685.9,363.9z"/>
	</g>
</g>
</svg>
