<?xml version="1.0" encoding="utf-8"?>
<!-- Generator: Adobe Illustrator 17.1.0, SVG Export Plug-In . SVG Version: 6.00 Build 0)  -->
<!DOCTYPE svg PUBLIC "-//W3C//DTD SVG 1.1//EN" "http://www.w3.org/Graphics/SVG/1.1/DTD/svg11.dtd">
<svg version="1.1" id="Layer_1" xmlns="http://www.w3.org/2000/svg" xmlns:xlink="http://www.w3.org/1999/xlink" x="0px" y="0px"
	 viewBox="0 0 1440 937" enable-background="new 0 0 1440 937" xml:space="preserve">
<g>
	<g>
		<path d="M514.4,486c-1.6-4-0.7-8.2-2.4-11.9c0.7-3.1-1.2-6.1-0.9-9.1c0.2-2.2-1-4-1.1-6.1c-0.2-1.9,0.8-4-0.9-5.6
			c-0.2-0.2,0-0.6,0-1c-0.1-2.6,0.1-5-0.9-7.6c-0.8-2.2,0.2-4.8-1.1-7.1c-0.3-0.5,0-1.3,0-2c0-40.5,0-81,0-121.5
			c0-0.3,0.1-0.6,0.2-0.8c3.3-1.8,6.9-1.4,10.5-1.4c6.5-0.1,13-1.7,19.6-1c4.6-1.7,9.5-0.3,14.1-1.1c5-0.9,10.2-0.2,15.1-1.1
			c4.6-0.9,9.1-0.6,13.6-0.7c2.6-0.1,4.9-1.5,7.6-1.1c2.6,0.3,5.3,0,8,0.1c1.5,0.1,2.3-2.2,4-0.8c0.9-1.5,0.5-2.8,0.5-4.1
			c0-11.7,0-23.3,0-35c0-1.5-0.4-3.1,1.8-4.1c1.7,0,4,0.4,6-0.1c5-1.3,10.2-0.1,15.1-1.1c5.1-1,10.2,0,15.1-1c5.1-1,10.2,0,15.1-1
			c5.1-1,10.2,0,15.1-1c4.7-1,9.5-0.2,14.1-1c5.4-0.9,10.8-0.1,16.1-1.1c4.8-0.9,9.5,0,14.1-0.9c5.4-1,10.9-0.1,16.1-1.1
			c4.6-0.8,9.1-0.6,13.6-0.8c2.7-0.1,5.2-1.5,8.1-1.1c2.8,0.4,5.9,0.7,8.4-0.1c4.2-1.3,8.4-0.7,12.6-0.8c2.9,0,5.6-1.4,8.6-1.1
			c3,0.3,6.2,0.8,8.9-0.1c5.4-1.7,10.7-0.3,15.8-0.9c1.6,1.5,2,3.1,2.6,4.8c2.1,6.1,4.6,12.1,6.9,18.1c3,7.6,6.3,15.1,8.9,22.8
			c1.4,4.1,3,8.1,4.6,12.1c2.2,5.4,3.9,10.7,3.6,16.5c-0.1,2.9-0.7,5.9,0.5,8.8c1,2.6,1.8,5.3,2.9,7.8c0.8,1.8,1.5,3.7,2.3,5.6
			c0.9,2.1,1.4,4.5,1.4,7c-0.1,32.7-0.1,65.3-0.1,97.9c-2.9,1.8-6.1,1.7-9.3,1.6c-6.1-0.1-12,1.7-18.1,1c-4.2,1.8-8.9,0.1-13,1.2
			c-4.4,1.2-8.8,0.4-13,0.9c-2.2-3.1-1.3-7.3-4-10.2c-1.4,0-2.9,0-4,0c-2.7-1.4-0.6-4.4-2.6-5.7c-1.4-4.6-2.6-9.3-4.2-13.7
			c-0.4-1.1-0.7-2.1-0.8-3.2c0-2.5-0.2-5,0-7.5c0.6-6.5-1.5-12.5-3.4-18.6c-1.9-6.2-4.8-12.1-5.8-18.6c-0.1-0.9-0.9-2-0.9-3.3
			c-3.8,0-7.5,0-11.6,0c-1.3-5.2-2.6-10.3-4.8-15.3c-1.6,0.5-3.3-0.6-5,0.9c-0.7,0.6-2.2,0.2-3.4,0.2c-7.2-0.5-14.3,1.7-21.6,1
			c-4.2,1.9-8.8,0.2-13.1,1.1c-4.9,1-9.8,0.2-14.6,1.1c-4.6,0.9-9.2,0.1-13.6,1c-4.6,0.9-9.2,0.2-13.6,1.1c-3.9,0.8-7.7,0.5-11.7,1
			c0,4.6,0,9,0,13.8c-2.1,0-4.1,0.2-6-0.1c-2-0.3-3.6,1.4-5.9,1c0,5.6,0,11.2,0,16.8c-3.8,0.5-7.1,2-10.9,1c0,26.1,0,51.9,0,77.8
			c-4.4,0.7-8.6,2.1-13,1.4c-2.9-0.5-5.3,1.1-8.1,1.1c-2.8-0.1-5.9-0.6-8.5,0.1c-4.1,1.2-8.2,0.2-12.1,1c-4.7,1-9.5,0.2-14.1,1.1
			c-3.8,0.7-7.4,0.8-11.1,0.7c-2.5,0-4.6,1.5-7.1,1.1c-2.3-0.3-4.9-0.7-6.9,0.1c-3.6,1.3-7.1,0.8-10.6,0.8c-2.9,0-5.6,1.6-8.6,1.2
			C520.3,485.7,517.4,486,514.4,486z"/>
		<path d="M500.5,353.7c-0.6-3.8-1.4-6.9-1.6-10.1c-0.2-2.5-0.3-5.2-1-7.5c-0.7-2.4,0-5.1-1-7.1c-1.5-3-0.5-6.2-1.6-9.3
			c-1.1-3-0.2-6.6-0.2-9.9c0-10.5,0-20.9,0-31.4c1.3-1.3,3.5,0.7,4.4-1.5c1.2,0.9,1.7,1.8,1.7,3.4c-0.2,4.8-0.1,9.6-0.1,14.5
			c0,17.8,0,35.6,0,53.4C501,349.8,501.3,351.5,500.5,353.7z"/>
	</g>
</g>
</svg>
