<?xml version="1.0" encoding="utf-8"?>
<!-- Generator: Adobe Illustrator 17.1.0, SVG Export Plug-In . SVG Version: 6.00 Build 0)  -->
<!DOCTYPE svg PUBLIC "-//W3C//DTD SVG 1.1//EN" "http://www.w3.org/Graphics/SVG/1.1/DTD/svg11.dtd">
<svg version="1.1" id="Layer_1" xmlns="http://www.w3.org/2000/svg" xmlns:xlink="http://www.w3.org/1999/xlink" x="0px" y="0px"
	 viewBox="0 0 1440 937" enable-background="new 0 0 1440 937" xml:space="preserve">
<g>
	<g>
		<path d="M750.5,232.2c0.1,1.8,2.2,1.7,3.2,2.8c5.2-1.9,10.7-3.2,15.3-7.2c3.9,1.8,8.7,2.2,11.6,6.2c0.4-0.4,0.7-0.7,1.1-1.1
			c3.6,5.1,4.3,11.4,7.2,16.8c-0.3,0.3-0.7,0.7-1.2,1.2c-0.5,0.4-1.4,0.1-2.2,0.1c-7.2-0.2-14.3,1.8-21.6,1
			c-4.8,1.8-9.8,0.2-14.5,1.1c-5.2,1-10.5,0.1-15.6,1c-4.8,0.9-9.5,0.1-14.1,0.9c-5.4,1-10.8,0.1-16,1.1c-4.6,0.8-9.1,0.6-13.6,0.8
			c-2.7,0.1-5.2,1.5-8.1,1.1c-2.8-0.4-5.8-0.7-8.4,0.1c-4.6,1.4-9.1,0.8-13.6,0.8c-2.6,0-4.8,2.5-7.6,0.8c-0.5-0.1-0.4-0.6-0.4-1.5
			c8.3-0.5,16.4-2.1,24.2-4.4c1,0.5,0.7,1.3,1,1.8c0.3,0.1,0.6,0.3,0.9,0.3c4.2,0.3,8.1-1.1,12.2-1.9c2.5-0.5,2.8-1.7,2.8-3.7
			c2.6-0.9,5.2-1.3,7.9-1.6c2.4-0.3,4.9-0.8,7.2-1.9c2.4-1.1,5-1.6,7.6-2.6c0.6,0.4,0.4,1.8,1.4,2.4c4.2-0.8,8.4-1.6,12.7-3
			c0-0.9,0-2.1,0-2.9c1.5-2.1,3.8-2.3,5.7-2.6C741.1,237.3,745.8,234.6,750.5,232.2z"/>
		<path d="M499.8,348.5c-0.7,1.3-1.1,2-1.3,2.4c-2,0.3-1-1.7-2.1-2c-0.3,0-0.6,0-0.9,0c-0.1-0.1-0.4-0.3-0.4-0.4
			c0.4-2.2-1.3-3.9-1.1-6c0-0.4,0.6-0.7,0.9-1.1c-0.2-0.2-0.7-0.5-0.7-0.7c-0.7-22.4-0.1-44.9-0.4-67.2c2.2-2.3,2.2-5.7,4.5-7.6
			c1.2-0.3,1.6,0.6,2.4,1.3c0,3,0,6.1,0,9.4c-0.3,0.3-0.8,0.8-1.5,1.5c-1.3,0-2.7,0-4.4,0c0,6.3,0,12.4,0,18.6c0,6,0,12,0,18
			c-0.1,6,1.4,11.8,2.2,17.6C498,337.9,498.2,343.6,499.8,348.5z"/>
	</g>
</g>
</svg>
