<?xml version="1.0" encoding="utf-8"?>
<!-- Generator: Adobe Illustrator 17.1.0, SVG Export Plug-In . SVG Version: 6.00 Build 0)  -->
<!DOCTYPE svg PUBLIC "-//W3C//DTD SVG 1.1//EN" "http://www.w3.org/Graphics/SVG/1.1/DTD/svg11.dtd">
<svg version="1.1" id="Layer_1" xmlns="http://www.w3.org/2000/svg" xmlns:xlink="http://www.w3.org/1999/xlink" x="0px" y="0px"
	 viewBox="0 0 1440 937" enable-background="new 0 0 1440 937" xml:space="preserve">
<g>
	<g>
		<path d="M1115.8,483.2c-0.5-0.4-0.9-0.8-1.3-1.1c-1.2,0.6-0.2,1.8-0.7,2.5c-3.3,1.3-5.7,4.4-9.2,5.4c-0.4-0.4-0.8-0.7-1.1-1
			c-1.6,1.2-1.8,3.5-3.5,4.5c-2,1.2-4,2.4-6.1,3.4c-0.7,0.3-1.6,0.1-2.4,0.1c-1.4,2.7-2.6,3.6-10.1,7.9c-0.5-0.5-0.9-1-1.8-0.8
			c-0.8,0.8-0.8,2.3-2.4,3.1c-1.2-1-2.9-1.3-4.8-1c-0.5,0.5-1.1,1.1-1.7,1.7c-0.3,0.1-0.6,0.2-0.9,0.2c-3.4,0.3-6.8-0.6-10.1,0.9
			c-0.7,0.3-2,0.5-2.7-0.5c-0.6-0.8-1.6-0.2-2.3-0.5c-1.8-0.6-3,1.6-4.6,1c-1.5-0.7-3-1.1-4.7-0.9c-0.2,0.5-0.4,1.1-0.6,1.7
			c-3.1,1-6.3-0.4-9.5,1.1c-3,1.4-6.2-1.3-9.9-0.8c-0.4,0.6-0.9,1.4-1.4,2.3c-1.1-1-1.8-1.7-2.4-2.3c-1.3-0.5-1.6,1.3-2.7,1
			c-2.8-1.5-3.6-4.4-4.6-6.9c-0.6-1.6-1.3-3.1-2.1-4.7c-2.7-5.4-5-10.9-7.6-16.4c-0.7-1.4-0.5-3.1-1.8-4.2c0.6-0.7,1.1-1.1,1.6-1.8
			c4,0,8.1,0,12,0c0.5-0.5,0.9-0.9,1.4-1.4c0-15,0-30.1,0-44.8c-4.4-10.7-9.9-20.6-14.9-30.9c-4.7,0.5-9.2-0.6-13.8,0.8
			c0-10.3,0-20.7,0-30.6c-5.8-10.8-10.6-21.3-15.5-32c-3,0-6.2,0-9.7,0c0-5.6,0-11,0-16.5c0-2.6-0.6-4.8-1.9-7.2
			c-3.2-5.6-5.9-11.5-8.6-17.4c-2.7-5.9-5.2-11.9-8.5-17.5c-0.3-0.5,0-1.3,0-2c1.3-1.4,3.8,0.8,4.7-2c3.3,3.3,6.3,0.2,9.4,0.4
			c3.2,0.2,6.2,2,9.4,1.1c0.5,0.5,0.9,0.9,1.6,1.6c0,2.9,0,6.1,0,9.1c1.7,1.1,2.2-1.1,3.8-0.5c0.6,3,0,6.3,0.4,9.8
			c3.2,2.2,6.9,0.4,10.5,1.3c0.2,0.2,0.5,0.5,1.1,1.1c0,2.6,0,5.3,0,8.1c0.6,0.5,1.1,1,2.3,1.9c0.7,0.4,1.1-1.8,2.7-1.2
			c0.7,2.3-0.1,5,0.5,7.9c3.8-0.9,7.4,1.8,11.2,0.9c0.6,0.6,1.1,1.1,1.7,1.7c0,2.6,0,5.4,0,8.1c1.4,0.3,2.6,0.6,3.8-1.6
			c0,2.8,0,4.6,0,6.2c0.9,0.8,2.1,0.5,2.6,1.6c3,0,6,0,9.3,0c0.5,3.2,0,6.5,0.3,9.8c1.7,0.4,3.2,0.5,4.7-0.8c0,6.3,0,12.4,0,18.1
			c0.5,1.2,1.3,0.9,1.9,1.2c0.9,3.6,1.5,7.4,4.3,10.4c0,2.9,0,6,0,9c1.8,1.2,2.8-0.5,4.6-0.7c0.3,4,4.1,5.1,6.5,7.7
			c-0.9,2.1,1.2,3.8,0.9,6c3.2,1.6,6.4,3.1,8.9,4.4c2.4,0.3,2.6-1.7,3.9-1.9c2.4,0.5,4.4,2.1,6,3.6c3.1,3,7.1,3.8,10.8,5.4
			c1.4,0.6,3,1,4.2,2.5c0,1.5,0,3.3,0,5.2c4.2,3,9.2,3.8,14,5.6c0,3.4,0,6.9,0,10.7c3.6,1.4,7.2,2.9,10.9,4.4c0,2,0,4.1,0,6.2
			c4.1,1.9,8,3.7,12,5.6c0,1.5,0,2.9,0,4.2c3.1,3.2,7.7,3.2,11,5.9c0,7.4,0,14.9,0,22.5C1122.1,479.8,1119,481.6,1115.8,483.2z"/>
	</g>
</g>
</svg>
