<?xml version="1.0" encoding="utf-8"?>
<!-- Generator: Adobe Illustrator 17.1.0, SVG Export Plug-In . SVG Version: 6.00 Build 0)  -->
<!DOCTYPE svg PUBLIC "-//W3C//DTD SVG 1.1//EN" "http://www.w3.org/Graphics/SVG/1.1/DTD/svg11.dtd">
<svg version="1.1" id="_x38__x5F_a_x5F_0012_xA0_Image_1_"
	 xmlns="http://www.w3.org/2000/svg" xmlns:xlink="http://www.w3.org/1999/xlink" x="0px" y="0px" viewBox="0 0 1440 937"
	 enable-background="new 0 0 1440 937" xml:space="preserve">
<g>
	<g>
		<path d="M635,555.2c0.8-0.2,1.2-0.3,1.8-0.5c0.1-0.9,0.3-1.8,0.4-2.7c1,0.3,0.7,1,1.1,1.9c4.5-0.5,9.2,1.1,13.7-1
			c0.1-0.1,0.3,0,0.5,0c6.3,0.7,12.4-1.5,18.6-0.9c2.7,0.3,4.9-1.4,7.6-1.1c2.6,0.3,5.5,0.7,7.9-0.1c3.4-1.1,6.8-0.8,10.1-0.8
			c2.5,0,4.6-1.5,7.1-1.1c2.3,0.3,4.9,0.7,6.9-0.1c3.1-1.2,6.1-0.9,9.1-0.8c2.7,0.1,4.9-1.4,7.6-1.1c2.6,0.2,5.5,0.7,7.9-0.1
			c3.7-1.2,7.5-0.2,11.1-1c4.5-1,9.2-0.3,13.6-1.1c3.7-0.6,7.5-0.1,11.1-1c4.2-1,8.5-0.1,12.6-1c4.2-0.9,8.5-0.1,12.6-1.1
			c3.9-0.9,7.9-0.1,11.6-0.9c4.1-0.9,8.2-0.2,12.1-1c4.2-0.9,8.5-0.2,12.6-1c4.2-0.8,8.5-0.2,12.6-1c3.9-0.8,7.8-0.2,11.6-1
			c4.2-0.9,8.5-0.1,12.6-1.1c4.1-0.9,8.1-0.6,12.1-0.8c2.3-0.1,4.2-1.5,6.6-1.1c2.1,0.4,4.5,0.6,6.4,0c3.7-1.3,7.5-0.2,11.1-1
			c4.5-1,9.2-0.2,13.6-1.1c3.7-0.7,7.5-0.1,11.1-1c4.1-1,8.1-0.7,12.1-0.8c2.3,0,4.2-1.5,6.6-1.1c2.1,0.4,4.5,0.6,6.4,0
			c3.7-1.3,7.5-0.2,11.1-1c4.5-0.9,9.1-0.9,13.6-0.9c1.8,0,3-1.6,4.8-1.1c0.2-0.9-0.2-1.4,0.6-1.7c0.8,0.1,0.4,1,0.9,1.7
			c0.6,0.7,2-0.4,2.9,0.7c1,1.5,1.2,3.2,1.8,4.8c0.4,1,0.1,2.3,0.1,3.5c0,26.8,0,53.7-0.1,80.5c0,2,0.7,4.1-0.8,6.2
			c-1.1,1.6,0.8,4.2-1.1,6c-0.4,0.4-0.1,1.6-0.1,2.4c0.1,3.2-0.9,6.2-1.8,9.3c-0.2,0.8-0.2,1.6-0.2,2.4c0.1,3.7-0.6,7.3-1.9,10.7
			c-0.2,0.6-0.2,1.3-0.1,1.9c0.2,2.9-0.3,5.7-1.4,8.7c-7-1.8-14.1-2.6-21.5-1.9c-0.1,1.2-0.1,2.4-0.2,3.7c-3,0.9-5.6-1.3-8.5-0.9
			c-3,0.5-5.9-1.4-9.1-1c-2.8,0.4-5.9-0.7-8.4,1.1c-2.6-0.6-1.2-3.7-3.4-4.8c-4.8,0-9.9,0-15.2,0c-1,1.2,0.8,3.6-1.6,4.5
			c-2.9,1.1-5.6-0.7-8.4-0.7c-2.9,0-5.7-0.1-8.6,0.8c-2.7,0.8-5.8-0.3-8.2,1.2c-2.5-0.4-2.4-2.2-2.7-4.1c-2.8,0-5.6,0.2-8.3,0
			c-2.8-0.2-5.2,1.8-8.4,0.8c0,1.9,0,3.5,0,5.2c-2.5,0-4.6,0-6.8,0c-4-0.1-7.8,1-11.7,1.7c-3,0.5-6.1,2.2-9.4,1.1
			c-0.1-0.9-0.2-1.7-0.3-2.4c-5.9-1.1-10.9,0.6-15.7,1.9c0,1.4,0,2.8,0,4.3c-1.6,0.2-2.5,1.6-4.1,1.5c-7.6-0.3-14.5,2.6-21.4,5
			c-1.5-0.7-1.8-2.1-1.8-3.6c-3-0.2-11.9,2.2-14.8,4c0,1.3,0,2.8,0,4.2c-0.9,0.5-1.1,1.4-2.1,1.5c-7.9,0.8-14.9,4-21.6,7.9
			c-1.4-0.8-1.6-2.1-1.5-3.4c-0.3-0.5-0.8-0.5-1.3-0.5c-3.2,0.2-6,1.6-8.9,2.7c-0.7,0.3-1.6,0.3-2.6,0.5c0,2,0,4.1,0,6.6
			c-4,1.8-8.2,2.9-12,4.7c-3.9,1.8-7.5,4.4-11.4,6.8c-1.3-1.2-0.2-3.5-2.2-4.1c-6.9,1.9-12.4,4.9-18.2,9.8
			c-4.1-1.2-7.2-4.2-11.2-6.4c-0.5-1.1,0.1-3.1-2.1-3.6c-1-0.3-1.1,1.1-2.2,1c-3.4-2.3-6.9-4.5-10.8-6.4c-0.4-1.2,0.4-3.1-1.9-3.5
			c-0.6-0.2-1.2,0-1.5,0.8c-4.2-2.1-8.2-4.4-11.7-7.1c-0.2-1.2,0.2-2-0.4-2.7c-1.3-0.2-2.4-0.3-3.1,0.8c-3.7-2.3-7.4-4.6-11.2-6.9
			c-0.4-0.4-0.4-0.9-0.4-1.4c0-0.5-0.1-0.9-0.1-1.6c-1.5,0-3,0-4.4,0c-1.2-1.8,0.3-3.9-1.3-5.7c-1-1.1,0.6-3.5-1.1-5
			c-0.3-0.3-0.1-1.3,0-1.9c0-3.7-1.1-7.2-2-10.7c-0.9-3.5-1.4-7.1-2.1-10.6c-1.7-8.7-0.8-17.4-0.8-26.1
			C634.9,598.5,635,577,635,555.2z"/>
	</g>
</g>
</svg>
