<?xml version="1.0" encoding="utf-8"?>
<!-- Generator: Adobe Illustrator 17.1.0, SVG Export Plug-In . SVG Version: 6.00 Build 0)  -->
<!DOCTYPE svg PUBLIC "-//W3C//DTD SVG 1.1//EN" "http://www.w3.org/Graphics/SVG/1.1/DTD/svg11.dtd">
<svg version="1.1" id="Layer_1" xmlns="http://www.w3.org/2000/svg" xmlns:xlink="http://www.w3.org/1999/xlink" x="0px" y="0px"
	 viewBox="0 0 1440 937" enable-background="new 0 0 1440 937" xml:space="preserve">
<g>
	<g>
		<path d="M1027.1,746c0-4.3,0-8.4,0-12.4c-0.6-0.6-1.1-1.1-1.6-1.6c-3,0-6,0-9,0c-0.9,1.1-0.4,2.5-0.4,3.7c-0.1,3-0.2,6,0,9
			c0.6,6.6-1.7,13-1,19.6c-1.6,3.3-0.7,7-1.2,10.7c-7.3,0-14.5,0.8-21.5-0.2c-8.4-1.2-16.8,0.2-25.1-1c-8.7-1.2-17.4-0.4-26.2-1
			c0-2.9,0-5.7,0-8.9c-1.6,0-3.1-0.1-4.5,0c-9.1,0.5-18-2.1-27.4-0.7c0,2.3,0,4.9,0,7.8c-2.6-0.3-4.9,0.5-7-0.6
			c-3.4-1.8-8-0.9-10.5-4.6c-0.4,0.4-0.8,0.7-1.4,1.2c-1.5-1.6-4.5-0.6-5.5-3.3c-2.4,2.3-3.6-0.5-5.7-0.9c0-3.3-0.1-6.4,0-9.5
			c0-2.2,2.5-3.7,2.1-6.1c2-2.8,2-6,1.9-9.2c0-1.8,0-3.7,0-5.5c0-4.5,0.5-9-2-13.2c-1.5-2.5-0.9-5.3-1-8.1c-0.8-0.8-0.9,0.3-1.4,0.5
			c-2.3-1-0.9-4.5-3.5-5.2c0-1.8,0-3.5,0-5.1c-0.7-1.1-1.9-0.2-2.9-0.9c-1-1.7-2.2-3.6-4-5c0-1,0-2,0-3c-0.7-0.7-1.4-1.4-2-2.1
			c0-2,0-4,0-6c1.4-0.6,2.7-1.8,4.4-1.5c0.9-1.8,2.3-3.4,1.4-5.6c1.9-0.4,3.1-1.8,5-1.4c0-1.5,0-3,0-4.2c1.7-2.2,3.7-3.4,6.2-4.1
			c0-1.8,0-3.6,0-5.3c5.1-3.5,11.2-4.5,15.4-2.4c0.4-0.3,0.7-0.6,1-0.9c0.4,0.3,0.7,0.7,1.3,1.2c1.4-1.7,3.8-1.8,5.3-1.1
			c2.3,1.1,4.5,0.8,6.7,0.8c5.8,0.1,11.7,0.2,17.5,0c3.6-0.1,7,1.8,10.6,1.1c0.6-0.1,1.3,0,2.3,0c-0.8-4.2,1-7.8,1-11.7
			c5.3-2.3,10.9-0.9,16.4-1.4c0.6-0.9,0.7-2.1,2.2-3.1c7.9,1.1,16.2-0.9,24.5-0.8c10.9,0.1,21.7-1.8,32.6-1c6.9-2,14.2,0,21.1-1.1
			c8.7-1.4,17.4-0.6,26.1-0.8c7.2-0.2,14.4-0.7,21.9,1.4c0,2.6,0,5.6,0,8.5c0,3,0,6,0,9c0.1,2.9-1.7,5.6-1,8.6
			c0.6,3-1.4,5.5-1.1,8.3c-1.9,0.3-2.8-1.1-4.4-1c-14.5,0.9-29-1.2-43.6-1c-7.5,0.2-15,2-22.7,0.8c0,9.8,0,19.2,0,28.9
			c0.3,0.3,0.8,0.7,1.3,1.2c3.1,0,6.2,0,9.3,0c0.7-8.6,1-17.2,2.4-26c2.6,0.5,5.1-0.8,7.6,1c0.6,0.5,1.9,0.1,2.9,0.1
			c5,0,10,0,14.9,0c0.8,1.2,0.3,2.4,0.4,3.5c0.8,0.9,1.9,0.5,2.8,0.5c6.6-0.5,13,1.8,19.6,1c0.8-0.1,1.6,0,2.5,0
			c0.1-1.4,0.1-2.5,0.2-4c2.3,0,4.5,0,6.8,0c2.2,0,4.1,2.2,6.6,0.7c0.9-0.9,0.4-2.2,0.4-3.5c0.1-3.7,0.3-7.4,0-11
			c-0.6-6.9,1.4-13.7,1.1-20.6c1.5-3.1,1-6.4,0.9-9.6c0-1.6,1.1-2.6,1.5-4.1c2.2,0.3,4.4-0.3,6.6,0.9c1.1,0.6,2.9,0.1,4.4,0.1
			c3,0,6,0,9,0c3.2,0,6.3,0,9.5,0c2.9-0.1,5.6,1.4,8.6,1.1c3-0.3,6-0.1,9-0.1c1.1,1.1,0,2.6,0.8,3.9c1.7,0,3.5,0,5.1,0
			c1.2,1.3,0,2.8,1,4.1c1.3,0,2.8,0,4.8,0c-0.7,3.3,0.9,6.6-1.2,9.6c0.7,4.4-1.4,8.7-1,13.1c0.1,1,0.8,1.3,0.8,1.4
			c0.5,1.7-0.8,2-0.7,2.8c0.7,4.4-1.6,8.7-1,13.1c0.3,2-1.2,3.6-1.1,5.6c0.1,1.7,0.8,3.7-0.9,5.1c-0.2,0.1-0.1,0.6,0,1
			c0.6,3.9-1.5,7.6-1.1,11.6c0.2,2.1-1.4,4.2-0.9,6.3c-0.8,0.8-1.4,1.4-1.9,1.9c-1.1,7.5-2.1,14.9-3.1,22.3c-1.4,0.8-2.7,0.4-4,0.4
			c-8.4-0.4-16.7,1.8-25.1,1c-1.8-0.2-3.2,1.4-5.1,1.1c-1.6-0.3-3.3-0.1-5-0.1c-1.8,0-3.6,0-5.4,0c-0.7,0.7-1.3,1.3-2,2
			c-3,0-6.1-0.1-9.3,0c-2.4,0.1-4.9-0.7-7.1,0.9c-0.4,0.3-1.4,0.3-2,0c-4.3-2-8.8-1.2-13.1-0.8c-3.9,0.4-7.7,0.8-11.6,0.8
			c-1.5,0-2.8,0.8-4,1.2c-2.7,0.9-5.4,0.7-8.1,0.8c-3.5,0.2-7.1-0.6-10.6,0.9C1030.4,746.5,1028.8,746,1027.1,746z M911.1,693
			c3.4,0.1,6.6-0.5,9.4,1c7.1,0,14.2,0,21.7,0c-0.6-1.9,0.3-3.5-0.7-5c-2.4-0.1-4.8-0.7-7.1-0.8c-7.7-0.5-15.5-0.2-23.3-0.2
			C911.1,689.8,911.1,691.2,911.1,693z"/>
	</g>
</g>
</svg>
