<?xml version="1.0" encoding="utf-8"?>
<!-- Generator: Adobe Illustrator 17.1.0, SVG Export Plug-In . SVG Version: 6.00 Build 0)  -->
<!DOCTYPE svg PUBLIC "-//W3C//DTD SVG 1.1//EN" "http://www.w3.org/Graphics/SVG/1.1/DTD/svg11.dtd">
<svg version="1.1" id="Layer_1" xmlns="http://www.w3.org/2000/svg" xmlns:xlink="http://www.w3.org/1999/xlink" x="0px" y="0px"
	 viewBox="0 0 1440 937" enable-background="new 0 0 1440 937" xml:space="preserve">
<g>
	<g>
		<path d="M1081,366.1c-0.7-0.1-1.1-0.1-1.7-0.2c-0.8-2.8,0.1-5.7-0.4-8.8c-4.4-0.9-9.1,1-13.8-2c-0.2-0.6-0.6-2,0.5-3.3
			c0.7-0.9,0.4-1.9,0.4-2.8c0.1-3.3,0-6.7,0-10c0-1.8-0.6-3.9,0.2-5.4c0.7-1.3,0.1-2.6,0.7-3.9c0.6-1.6,0.2-3.6,0.2-5.4
			c0-1.7,0-3.3,0-5c0-1.8-0.4-3.8,0.1-5.5c1.7-6.2,0.7-12.4,0.9-18.6c0.1-3.7,1.5-7.3,1.1-11.1c-0.4-3.8-0.8-7.8,0.1-11.5
			c1.3-5.6,0.6-11.1,0.8-16.6c0.1-3.6,1.4-6.9,1.1-10.6c-0.3-3.6-0.8-7.5,0.1-11c1.3-5.1,0.8-10.1,0.7-15.1
			c-0.1-4.3,1.5-8.3,1.2-12.6c-0.3-4.3-0.8-8.8,0.1-13c1.2-5.6,0-11.2,0.9-16.6c1.2-7.2,0-14.5,1.1-21.6c0.9-5.8,0.6-11.4,0.7-17.1
			c0.1-4.7,2-9.3,0.9-13.9c5-5,9.8-9.8,14.7-14.7c2.2,0,4.3,0.1,6.5,0c2.4-0.2,4.7,0.2,6.9,0.6c2.8,0.6,5.6,0.2,8.3,0.4
			c2.7,0.1,5.5-0.5,8,0.1c6.2,1.7,12.4,0.7,18.6,0.8c3.6,0,6.9,1.5,10.6,1.2c3.6-0.3,7.5-0.8,11,0.1c5.4,1.4,10.8,0.8,16.1,0.7
			c3.8,0,7.3,1.3,11.1,1.1c3.8-0.1,7.8-0.7,11.5,0.1c6.7,1.5,13.5,0,20.1,1c7,1,14.2,0.1,21.1,1.1c5.9,0.9,11.8,0.6,17.6,0.7
			c2.7,0,4.9,1.4,7.6,1.2c2.6-0.2,5.3,0,8-0.1c0.9,2.4,2.8,3,5.2,3c5,0,10,0,14.9,0c0.4,1.2,1.9,0.6,2.4,1.5c0.1,0.5-0.2,1,0.5,1.4
			c5.2,0,10.5,0,16.1,0c0.4,0.5,1,1.1,1.7,1.9c-2.4,2-0.2,5.3-2.3,7.5c0.7,2.8-0.7,5.4-1.2,8c-0.5,2.5-0.2,5.4-1.8,7.7
			c0.4,5-1.5,9.8-2.3,14.6c-0.7,4.4-1.9,8.9-2.5,13.3c-0.7,4.6-1.6,9.1-2.4,13.6c-1.2,6.1-1.6,12.5-3.8,18.4c0.4,5-1.5,9.8-2.2,14.6
			c-0.7,4.4-1.1,9-2.7,13.3c-0.5,1.3-0.1,3-0.1,4.5c1.2,1.5,3.9-0.8,4.7,1.9c0.4,0.7-0.7,0.7-0.7,1.3c-0.1,1.7,0.2,3.4-0.9,5.1
			c-0.8,1.2,0.3,3-0.9,4.6c-1,1.3-0.1,3.3-1,5.1c-1,2-0.6,4.6-1,7c-0.6,3.6-1.6,7.1-2.1,10.7c-0.5,3.6-1.4,7.1-1.9,10.7
			c-0.4,2.8-1.9,5.6-1.2,8.6c-1.8,4.2-1.1,9-3,13.3c0.7,3-1.5,5.6-1.1,8.6c0.2,1.6-0.6,3.4-1.1,5c-1.2,4.4-0.6,9.2-2.8,13.3
			c0.5,2.8-0.6,5.4-1,8.1c-0.6,4.2-1.8,8.4-2,12.7c-2,1.4-0.1,3.9-1.4,5.4c-1.6,1.9,0.3,4.3-1,6.1c-1.3,1.8,0,3.9-0.7,5.7
			c-0.7,1.6-2.7,1.1-3.8,3.1c0.6,3-0.5,6.5-1.3,9.8c-1,4.4-1,9.1-2.8,13.3c0.7,2.8-0.9,5.4-1.2,8.1c-0.5,4.2-1.5,8.3-2.5,12.4
			c-0.6,2.6-0.9,5.3-1.3,8c-0.4,2.5-1.8,4.9-1.1,7.6c-2.1,1.8-0.5,4.5-1.8,6.8c-1.1,1.9-0.5,4.6-1.1,7c-1.3,5-1.4,10.3-3.1,15.2
			c-0.4,1.2-0.1,2.6,0,4c0,1.2-1.4,1.7-1,3.1c0.6,2.4-1.6,4.6-1,7.1c-2.1,1.8-0.1,4.7-1.9,6.8c-0.7,0.7-0.1,2.5-0.1,4.1
			c-4.9,0.1-9.6,2-14.5,1c-1.8-0.4-3.1,2.5-4.8,0.4c-1.7,1.1-3.6,0.7-5.5,0.8c-1.8,0-3.8-0.5-5.5,0.1c-3.9,1.3-7.8,0.2-11.6,1
			c-4.2,0.9-8.6,0.1-12.6,1.1c-4.1,0.9-8.2,0.1-12.1,0.9c-4.7,1-9.5,0.2-14.1,1.1c-3.8,0.7-7.4,0.8-11.1,0.7c-2.6,0-4.9,1.5-7.6,1.2
			c-2.5-0.2-5.2-0.9-7.6,0.9c-0.2,0.2-0.7,0.1-1,0c-6.4-0.8-12.7,1.4-19.1,1c-2.8-0.1-5.2,1.4-8.1,1.1c-2.8-0.4-5.8-0.7-8.4,0.1
			c-3.6,1-7.2,0.2-10.6,1c-4.7,1-9.4,0.8-14.1,0.9c-0.5,0-1,0.6-1.8,1.1c0-5.7-0.9-11.4,0.2-16.6c1.3-6.4,0-12.8,1-18.9
			c-1.8-1.4-3-0.1-4.2,0.4c-0.3-0.1-0.6-0.2-0.9-0.4c-1.4-0.8-1.6-2.5-1-3.5c1.5-2.8,0.8-5.8,0.9-8.6c0.1-4,0-8,0-12
			c-1.1-1.1-2.5,0-4-0.8c1.7-3.7,1-7.8,0.9-11.8c-0.1-7.9,2-15.6,0.9-23.1c1.2-1.5,2.2-2.2,3.4-1.7c1.2-0.7-0.1-2.5,1.7-2.3
			c0-2.4,0.1-4.6,0-6.8c-0.5-9.9,1.7-19.7,1-29.6C1080.9,369.1,1081,367.8,1081,366.1z"/>
	</g>
</g>
</svg>
