<?xml version="1.0" encoding="utf-8"?>
<!-- Generator: Adobe Illustrator 17.1.0, SVG Export Plug-In . SVG Version: 6.00 Build 0)  -->
<!DOCTYPE svg PUBLIC "-//W3C//DTD SVG 1.1//EN" "http://www.w3.org/Graphics/SVG/1.1/DTD/svg11.dtd">
<svg version="1.1" id="Layer_1" xmlns="http://www.w3.org/2000/svg" xmlns:xlink="http://www.w3.org/1999/xlink" x="0px" y="0px"
	 viewBox="0 0 1440 937" enable-background="new 0 0 1440 937" xml:space="preserve">
<g>
	<g>
		<path d="M958.9,710.2c-10.7-1.3-20.9,1-31.3,0.8c-12.4-0.2-24.7,1.7-37,0.9c-0.9-0.1-1.6,0.3-2,1c-0.4-0.4-0.8-0.7-1.3-1.2
			c-2.1,1.6-4.5,1.2-6.9,1c-2.1-1.6-1.9-3.8-1-5.8c2-4.1,1.8-8.9,4.5-12.6c-0.8-3,1.5-5.1,2.2-7.6c0.7-2.4,1.2-5,2.5-7.5
			c1-1.8,1.6-4.4,1.9-6.7c0.5-4.2,3.6-4.7,6.4-4.7c4.3,0,8.3-1.1,12.6-1.4c2.8-0.2,5.9,0,8.5-1c2.8-1,5.4-0.5,8.1-0.8
			c1.9-0.2,3.6-1.3,5.6-1c1.7,0.2,3.4,0.2,5.1-0.9c0.8-0.5,2.3,0,3.4-0.1c1.4-0.1,2.8,0.4,4.2-0.8c1.2-1,2.6,0.4,4.4,1.5
			c2,2.8,1.8,7.1,2.8,10.9c1,3.7,1.6,7.7,2.4,11.6c0.9,3.9,1.7,7.9,2.7,11.8C957.9,701.7,959.4,705.5,958.9,710.2z"/>
		<path d="M1162.5,671.8c2.2,11.3,4.2,21.9,6.3,32.9c-0.4,1-1.6,0.3-2.5,0.3c-13.6,0.1-27.3,0-40.9,0.1c-3.2,0-6.4-0.7-9.6,0.9
			c-1.1,0.6-2.9,0.5-3.7-1.2c-0.9,0.6-1.4,0.9-1.9,1.3c-1.9-1.3-3.7,0.4-5.7,0.1c-2.1-0.3-4.3-0.1-6.5-0.1s-4.3,0-6.5,0
			c-1.2-0.7-1.6-2.6-3.8-1.9c3.3-15.9,6.6-31.4,9.7-46.8c3.7-0.8,6.4,0.9,9.3,1.2c2.8,0.3,5.5,1.1,8.3,1.7c4.4,0.9,9.1,0.8,13.3,2.8
			c2.6-0.6,4.9,1.2,7.6,1.1c2.8-0.1,5.5,1,8.3,1.7c2.3,0.6,4.7,0,7,1.1c1.4,0.6,3.3,0.7,5,1.1C1160.7,669,1160.8,668.9,1162.5,671.8
			z"/>
	</g>
</g>
</svg>
