<?xml version="1.0" encoding="utf-8"?>
<!-- Generator: Adobe Illustrator 17.1.0, SVG Export Plug-In . SVG Version: 6.00 Build 0)  -->
<!DOCTYPE svg PUBLIC "-//W3C//DTD SVG 1.1//EN" "http://www.w3.org/Graphics/SVG/1.1/DTD/svg11.dtd">
<svg version="1.1" id="Layer_1" xmlns="http://www.w3.org/2000/svg" xmlns:xlink="http://www.w3.org/1999/xlink" x="0px" y="0px"
	 viewBox="0 0 1440 937" enable-background="new 0 0 1440 937" xml:space="preserve">
<g>
	<g>
		<path d="M617,671.8c-3.5,8-8,14.7-11.5,22.2c-4.7,0-9.6,0.7-14.3-0.2c-6.6-1.2-13.2,0.1-19.6-1c-7.2-1.2-14.5,0.1-21.6-1
			c-6.9-1.1-13.8,0.1-20.6-1c-7.1-1.2-14.1,0-21.1-1c-5.6-0.8-11.2,0-16.6-1c-6.1-1.1-12.2,0-18.1-1c-6.2-1-12.4-0.7-18.8-0.9
			c0-4.9-0.8-9.9,0.2-14.5c1-4.8,0.7-9.4,0.7-14.1c0-4.2,1.5-8.3,1.2-12.6c-0.4-4.3-0.8-8.8,0.1-12.9c1.2-5.7,0.5-11.4,0.8-17.1
			c0.2-3.7,1.3-7.3,1.1-11.1c-0.3-3.6-0.7-7.5,0.1-11c1.3-5.6,0.6-11.1,0.8-16.6c0.1-3.6,1.5-6.9,1.1-10.6c-0.3-3.6,0-7.3-0.1-11
			c0-1.4,2.3-2.7,0.2-4.1c1.5-1.1,0.8-2.7,0.9-4.1c0.1-1.7,0-3.3,0-5c0-1.5,0-3,0-4.9c0.7-0.5,1.6-1.2,3.1-2.3
			c3.3,0.6,6.8-1.7,10.6-2.5c5.1-1.1,10-3,15.4-2.6c3.7,0.2,7.3,0.2,11,0c3.9-0.2,7.6,1.5,11.6,1.1c3.8-0.4,7.8-0.7,11.5,0.1
			c6.1,1.3,12.1,0.1,18.1,1c7.4,1.1,14.8,0.1,22.1,1.1c5.8,0.8,11.4,0.6,17.1,0.7c3.9,0.1,7.6,1.5,11.6,1.1
			c3.8-0.4,7.8-0.8,11.4,0.1c5.7,1.5,11.4,0.2,17.3,1c0.3,0.3,0.8,0.8,1.3,1.3c0.9,1.4-1.1,1.7-1,3.1c0.9,10.8-1.4,21.5-0.9,32.2
			c0.2,4.1-1.5,7.9-1.1,12.1c0.4,4.1,0.8,8.5-0.1,12.4c-1.3,5.9-0.6,11.8-0.8,17.6c-0.1,3.6-1.5,6.9-1.1,10.6
			c0.3,3.6,0.8,7.5-0.1,10.9c-1.4,5.4-0.7,10.8-0.7,16.1c0,3.5-1.4,6.6-1.2,10.1C617.2,665.9,617,669.2,617,671.8z"/>
		<path d="M753.9,679c-4.8,0-8.2,0.1-11.5,0c-1.6-0.1-3.3,0.8-4.7-0.7c-1.6,1.5-3-0.3-4.6-0.3c-1.7,0-3.3,0-5,0c-1.8,0-3.7,0-5.5,0
			c-1.7,0-3.5,0.4-5-0.1c-5.5-1.7-11.1-0.7-16.6-0.9c-3.9-0.1-7.6-1.5-11.6-1.1c-3.8,0.4-7.8,0.7-11.5-0.1c-6.2-1.4-12.5,0.1-18.6-1
			c-6.4-1.1-12.9,0.1-19.1-1c-7.7-1.4-15.4-0.2-23.4-1c0-4.9-0.7-10,0.2-14.8c1.2-6.4-0.1-12.8,0.9-19.1c1.2-7.2,0-14.5,1.1-21.6
			c1-6.4-0.1-12.9,1-19.1c1.2-6.6-0.1-13.2,1-19.6c1.1-6.9-0.1-13.9,1-20.6c1.2-7.3,0.3-14.4,0.9-21.6c-1.3-0.9-2.7-0.5-3.9-0.5
			c-11.1,0.6-22-1.7-33.1-1c-5.9-1.9-12.1-0.2-18.1-1.1c-7.7-1.3-15.5,0.1-23.1-1.1c-6.4-1-12.8,0.1-19.1-0.9
			c-6.1-1-12.1-0.9-18.1-0.8c-1.4,0-2.1-2.1-4-0.7c-0.7,0.6-2.7-0.7-4.3-0.5c-1.5,0.2-3,0-4.5,0s-3,0.1-4.5,0
			c-4.4-0.5-8.6,0.8-12.6,2.1c-3.6,1.2-7.2,1.9-10.8,2.8c-1.8,0.4-3.2,1.2-4.5,2c-1,1.2-0.6,2.5-0.5,3.5c0.5,10.6-1.8,21-1,31.6
			c-1.9,6.6-0.1,13.5-1.1,20.1c-1.2,7.4,0,14.8-1.1,22.1c-0.7,4.9-0.7,9.7-0.7,14.6c0,1.6-1.6,3.1-0.2,4.7c-1.4,1-0.2,2.5-0.8,3.8
			c-0.7,1.5-0.2,3.6-0.2,5.4c0,1.7,0,3.3,0,5c0,1.8,0.3,3.7-0.1,5.5c-0.5,2.5-1.5,4.9-0.8,7.3c-2.2,1.7-3.5-0.6-5.3-0.5
			c-10.9,0.8-21.7-1.6-32.6-0.9c-3.9,0.3-7.6-1.5-11.6-1.1c-4,0.3-8.2,0.8-12-0.1c-5.4-1.3-10.8-0.6-16.1-0.8
			c-3.4-0.1-6.6-2.2-9.9-0.8c-1.1-1.4-0.6-2.8-0.6-4c-0.6-11.4,1.7-22.7,1-34.1c1.8-5.8,0.1-11.8,1.1-17.6
			c1.3-7.2-0.1-14.5,1.1-21.6c1-6.3-0.1-12.5,1-18.6c1.2-6.7-0.1-13.5,1-20.1c0.9-5.7,0.4-11.4,0.9-16.9c0.4-0.4,0.8-0.8,1.4-1.4
			c6.4,0,13.1-0.8,19.6,0.2c6.4,1,12.8,0.5,19.1,0.7c3.4,0.1,6.6,1.5,10.1,1.1c3.3-0.3,6.8-0.7,10,0.1c5.4,1.4,10.8,0.4,16.1,0.9
			c1.4,0.1,2.9-0.5,4.1,0.9c0.7,0.9,1.5-1.3,2.3-0.5c0.7,0.7,1.5,0.6,2.3,0.5c8.7-0.7,17.4,1.2,26.1,1c0.8,0,1.6,0,2.7,0
			c0-1.8,0.2-3.4,0-5c-0.6-4.6,1.1-9,1-13.6c0-4.5-0.7-9.1,0.2-13.5c1.3-6.2,0.5-12.4,0.8-18.6c0.1-1.7,0.4-3.1,1.3-4.5
			c-0.6-0.6-1-1.1-1.6-1.8c-1,0-2.1,0-3.2,0c-9-0.1-18-1.6-27.1-1c-5.8-1.8-11.7-0.8-17.6-0.9c-1,0-2.1-1.9-3.2-0.1
			c-1.1-1.6-2.7-0.9-4.1-1c-1.3-0.1-2.7,0-4,0c-1.5,0-3,0-4.5,0c-1.3,0-2.7,0.3-4,0c-7.5-1.7-15.2,0-22.6-1.2
			c-7.1-1.1-14.1-0.2-20.8-0.9c-2-1-2.1-2.9-1.4-4c1.2-2.2,0.7-4.4,0.9-6.6c0.1-0.8,0-1.7,0-2.5c0.1-10.5,1.7-21,1-31.6
			c1.8-5.8,0.7-11.7,1-17.6c0-0.9,0.3-1.6,1.1-2c-0.4-0.4-0.7-0.8-1.3-1.4c1.5-1.3,1.3-3.1,1.2-4.8c-0.5-7.7,0.8-15.3,1.2-23
			c0.5-0.4,0.9-0.9,1.6-1.5c3.5,1.6,7.3,1.2,11,1.2c9.9-0.1,19.7,1.8,29.6,1c5.4,1.9,11.1,0.8,16.6,0.9c3.6,0.1,6.9,1.5,10.6,1.1
			c3.6-0.3,7.5-0.8,11,0.1c5.2,1.3,10.4,0.7,15.6,0.8c5.5,0.1,10.9,2.1,16.7,0.7c1.8-3.4,1.4-7.3,1.3-11.2c-0.2-9.4,1.8-18.7,1-28.1
			c1.8-6.8,0-13.8,1.2-20.6c1.2-6.8,0.4-13.4,0.8-20.1c0-0.5-0.1-0.9-0.1-1.7c-4.2,0-8.3-0.2-12.4,0c-4.3,0.2-8.3-1.5-12.6-1.1
			c-4.3,0.4-8.8,0.8-13-0.1c-6.4-1.3-12.8-0.5-19.1-0.8c-3.4-0.1-6.6-1.5-10.1-1.1c-3.3,0.3-6.8,0.7-10-0.1
			c-5.7-1.5-11.4-0.7-17.1-0.7c-2.5,0-4.7-1.2-7.1-1.1c-2.3,0.1-4.7,0-7.1,0c-0.7-1.8-2.9-1.8-4.4-3.6c0.3-1.8-0.7-4,0.9-6.1
			c0.4-0.5,0.1-1.6,0.1-2.5c0-3.7,0.2-7.3-0.1-11c-0.3-3.6,1.5-6.9,1.1-10.6c-0.3-3.6-0.4-7.4,0.1-11c0.1-1.2,0.1-2.5,0.7-3.8
			c0.6-1.4,0.2-3.3,0.2-4.9c0-1.7,0-3.3,0-5s0.1-3.3,0-5c-0.2-3.8,1.4-7.3,1.1-11.1c-0.3-3.6-0.1-7.3-0.1-10.9c0.5-0.5,1-1,1.4-1.4
			c1.4-0.4,2.1,1.1,3.6,1c11.2-0.8,22.4,1.7,33.6,0.9c3.8-0.3,7.3,1.3,11.1,1.1c3.8-0.2,7.8-0.7,11.5,0.1c6.1,1.3,12.1,0.5,18.1,0.9
			c3.7,0.2,7.3,1.3,11.1,1.1c3.6-0.3,7.5-0.7,11,0.1c4.1,1,8.1,0.5,12.1,0.9c1.3-1,0.1-2.6,0.9-4c5.6,0,11.5-0.7,17.2,0.2
			c5.1,0.9,10.1,0.8,15.1,0.7c3.8-0.1,7.3,1.5,11.1,1.2c3.6-0.3,7.4-0.7,11,0.1c6.3,1.3,12.5,0.8,18.8,0.8c3.7,0,7.3,1.4,11.1,1.1
			c3.8-0.3,7.8-0.7,11.5,0.1c5.9,1.3,11.9-0.1,17.6,1c7.1,1.3,14.2,0,21.1,1c5.7,0.9,11.5,0,17.1,1c7.2,1.3,14.5-0.1,21.6,1
			c6.9,1.1,13.8-0.1,20.6,1c6.6,1.1,13.1,0.5,19.6,0.8c2.4,0.1,4.4,1.6,6.7,1.9c2.4,0.4,5.1-0.4,7.4,0.4c1.5,0.5,2.8,0.6,4.2,0.6
			c3.8,0.1,7.7,0.1,11.5,0c4.1-0.1,8,1.4,12.1,1.1c4-0.3,8,0,12-0.1c1.7,0,2.7,1.7,4.6,0.9c0,4.3,0.6,8.2-0.1,11.8
			c-1.5,6.9,0.1,13.8-1,20.6c-1.1,6.9,0.1,13.9-1,20.6c-1,6.3,0.1,12.5-1,18.6c-1.1,6.6,0.1,13.2-1,19.6c-1.2,6.6,0.1,13.2-0.9,19.6
			c-1.3,8.4,0,16.8-1.1,25.1c-0.9,6.8,0.2,13.5-1,20.1c-1.2,6.9-0.3,13.8-0.9,20.7c1.4,0.9,3,0.1,4.3,0.6c1.2,0.4,2.1,1.8,3.2,0
			c1.1,1.4,2.7,0.9,4.1,0.9c1.3,0.1,2.7,0.2,4,0c4.9-0.7,9.7,1.1,14.6,1c4.8,0,9.7,0,14.5,0c0.4,1.2,1.8,0.7,2.5,1.6
			c-0.4,6.7,1,13.6-1.9,20.2c-1.6,0.2-3,0.8-4.2-0.4c-0.5-0.4-0.9-0.3-1.4-0.3c-0.5,0-1,0-1.5,0c-11.2,0.7-22.4-1.6-33.6-1
			c-0.9,0-1.8,0.1-2.7-0.7c-1.2-0.9-2.5-0.3-3.5,1.1c0,4.6,0,9.3,0,14.6c2.6,0,5.4,0.3,8.2-0.1c4.8-0.6,9.4,1.2,14.1,1.1
			c4.7-0.1,9.5-0.7,14,0.2c3.8,0.7,7.4,0.5,11.6,0.9c0,5.4,0.4,10.8-0.1,16.2c-0.4,5.2-1.2,10.3-0.9,15.6c-2.1,0-4.2,0.6-5.6-0.2
			c-1.4-0.9-3,1.7-4-0.6c-0.2-0.4-1.9-0.1-2.9-0.1c-3.3,0-6.7-0.1-10,0c-3.9,0.1-7.6-1.5-11.6-1.1c-4,0.4-8,0.1-12,0
			c-0.5,0-1-0.6-1.6-0.9c-0.5,0.5-0.9,0.9-1.4,1.4c0,2.2,0.4,4.4-0.1,6.5c-1.4,6.7,0,13.5-1.1,20.1c-1.1,6.6,0,13.2-0.9,19.6
			c-1,6.9,0,13.8-1.1,20.6c-0.9,5.9-0.5,11.8-0.7,17.6c-0.1,3.7-1.5,7.3-1.1,11.1c0.4,3.8,0.8,7.8-0.1,11.5
			c-1.4,5.6-0.7,11.1-0.7,16.6c0,2.4-1.4,4.8-0.4,7.3c-1.4,2.6-0.6,5.3-0.7,8c-0.1,2.7,0.5,5.5-0.1,8c-1.6,5.9-0.6,11.8-0.8,17.6
			c-0.1,3.7-1.5,7.3-1.1,11.1c0.4,3.8,0.8,7.8-0.1,11.4c-1.1,4.4-0.5,8.8-0.8,13.1c-0.1,1.7,0,3.3,0,5c0,1.4,0.5,3-0.9,4.1
			C755,676.1,751.3,677.2,753.9,679z"/>
	</g>
</g>
</svg>
