<?xml version="1.0" encoding="utf-8"?>
<!-- Generator: Adobe Illustrator 17.1.0, SVG Export Plug-In . SVG Version: 6.00 Build 0)  -->
<!DOCTYPE svg PUBLIC "-//W3C//DTD SVG 1.1//EN" "http://www.w3.org/Graphics/SVG/1.1/DTD/svg11.dtd">
<svg version="1.1" id="Layer_1" xmlns="http://www.w3.org/2000/svg" xmlns:xlink="http://www.w3.org/1999/xlink" x="0px" y="0px"
	 viewBox="0 0 1440 937" enable-background="new 0 0 1440 937" xml:space="preserve">
<g>
	<g>
		<path d="M807,530.7c0-3.2-0.6-6.5,0.1-9.5c1.5-6.5,0.5-13.1,0.9-19.6c0.1-1.1,0-2.1,0.9-3.2c0.6-0.7,0.3-2.2-0.9-3
			c0.1-0.1,0.3-0.2,0.4-0.4c0.2-0.2,0.6-0.5,0.6-0.7c-0.6-9,1.1-17.8,1.1-26.9c0.6-0.8,2.1-0.5,2.9-2.3c0-0.6,0.1-1.9,0-3.2
			c-0.5-7.7,1.7-15.3,1-23.1c-0.1-1.1,0-2.3,0-3.3c-0.4-0.7-1-0.5-1.4-0.6c-0.2-0.2-0.5-0.5-0.5-0.7c0-4.6,0-9.3,0-13.8
			c0.7-0.7,1.3-1.3,2-2c-0.5-5.8,2.2-11.6,0.9-17.4c-1.4-6.2-1.3-12.5-0.7-18.6c0.6-6.9,0.1-13.8,1-20.6c0.6-4.4,0.6-8.7,0.8-12.9
			c1.6-1.6,3.1-3.1,5-5c2.3,0,5.4,0.3,8.3-0.1c1.5-0.2,2.3,1.2,3.9,0.6c0.9-0.3,2.5,0.6,3.9,0.5c1.7-0.1,3.3,0,5,0c1.5,0,3,0,4.5,0
			s3.1-0.3,4.5,0.1c6.6,1.9,13.4,0.6,20.1,0.9c3.2,0.1,6.2,1.5,9.6,1.1c3.1-0.4,6.5-0.7,9.5,0.1c5.7,1.5,11.4,0.5,17.1,0.8
			c1.8,0.1,3.6-0.2,4.8,1.2c0.6-0.6,1-0.9,1.2-1c2.1,0.8,4.1,1.9,6.4,1.8c0.3,0,0.7,0,1,0c10.7-0.8,21.4,1.6,32.1,1
			c6.8,1.9,13.8,0,20.6,1.1c7.6,1.2,15.2-0.1,22.6,1c9.4,1.5,18.7,0.5,28.1,0.8c8,0.2,16,1.8,24.1,1.1c6.1,1.9,12.4,0.5,18.6,1
			c4,0.4,7.9,1.4,11.8,0.9c0.6,0.6,0.9,0.9,1.3,1.3c-1.3,2-0.6,4.3-0.8,6.2c1,0.9,1.5,2.1,2.9,1.5c0.1,0.9,0.3,1.4-0.2,1.8
			c-1.1,0.7-0.7,1.8-0.7,2.7c0.8,12.4-1.9,24.7-0.9,36.2c-1,3.1-4.1,1.5-5.1,4c0.7,11.4-1.8,23-0.9,34.8c0.1,1.2,3-0.2,3.6,1.9
			c-1.7,1.1,0.3,2.8-0.6,4.5c-0.8,1.6-0.2,3.9-0.2,5.9s0,4,0,6c0,1.9,0.5,3.9-1.6,5.6c2.4,1,4.4,0.2,6.2,0.6
			c0.4,0.4,0.7,0.7,1.1,1.1c0.4,0.6-0.5,0.6-0.5,1c-0.1,1.5-0.2,2.9-0.2,4.4c0.2,11.4-2.1,22.6-0.8,33.6c-0.8,0.8-1.1,1.1-1.8,1.8
			c-7.2-0.9-14.6,1.6-22.2,0.9c-2.6-0.2-4.9,1.4-7.6,1.1c-2.5-0.2-5.2-0.9-7.6,0.9c-0.2,0.2-0.7,0-1,0c-7.1-0.7-14,1.6-21.1,1
			c-2.4-0.2-4.2,1.5-6.6,1.1c-2.1-0.3-4.6-0.8-6.4,0.1c-3.5,1.6-6.4-0.9-9.7-0.5c-0.5,0.1-1.7-0.7-2.6-0.7c-0.8,0-1.6,0-2.2,0
			c-1-1.4,0.2-2.8-0.8-3.9c-1-0.4-1.5,0.3-2.1,0.9c-1.8,0-3.7,0-5.5,0c-5.6-0.1-11,1.7-16.6,1c-3.4,1.6-7.1,0.4-10.6,1.1
			c-5,1-10.2,0.3-15.1,1.1c-3.9,0.7-7.9,0.1-11.6,0.9c-4.6,1-9.2,0.2-13.6,1c-3.4,0.7-6.7,0.7-10.1,0.8c-0.5,0.5-0.9,0.9-1.6,1.6
			c0,1.3,0,2.7,0,4c-5.1,1.8-10.1,1.4-15.2,1.3c-2.2-0.1-3.8,1.5-6.1,1.1c-2.1-0.4-4.6-0.7-6.4,0.1c-3.2,1.3-6.5,0.9-9.6,0.8
			c-2.7-0.1-5,1.3-7.6,1.1c-2.7-0.1-5.6-0.7-7.9,0.1c-3.1,1.1-6.1,0.6-9.1,0.8c-5.2,0.4-10.3,1.6-15.6,1c-3.4,1.8-7.1,0.7-10.6,1
			c-0.8,0.1-1.8-0.2-2.4,0.2C811.3,534.3,809.3,532.1,807,530.7z"/>
	</g>
</g>
</svg>
