<?xml version="1.0" encoding="utf-8"?>
<!-- Generator: Adobe Illustrator 17.1.0, SVG Export Plug-In . SVG Version: 6.00 Build 0)  -->
<!DOCTYPE svg PUBLIC "-//W3C//DTD SVG 1.1//EN" "http://www.w3.org/Graphics/SVG/1.1/DTD/svg11.dtd">
<svg version="1.1" id="Layer_1" xmlns="http://www.w3.org/2000/svg" xmlns:xlink="http://www.w3.org/1999/xlink" x="0px" y="0px"
	 viewBox="0 0 1440 937" enable-background="new 0 0 1440 937" xml:space="preserve">
<g>
	<g>
		<path d="M846.5,186c-1.8,2.6-1.9,5.6-3.6,7.8c-0.9,0.2-1.1-0.9-2-0.8c-9.9,0.8-19.8-1.5-29.7-0.9c-4.1,0.3-8-1.1-12.1-1.1
			c-4,0-8.1,0.7-12-0.1c-6.9-1.4-13.8,0-20.6-1c-6.9-1-13.8,0-20.6-1.1c-6.1-0.9-12.1-0.5-18.1-0.7c-3.4-0.1-6.6-1.5-10.1-1.1
			c-3.3,0.3-6.8,0.7-10-0.1c-5.6-1.4-11.1-0.8-16.6-0.7c-4.1,0.1-8-1.5-12.1-1.2c-4,0.3-8.1,0.7-12-0.1c-5.9-1.3-11.9,0.1-17.6-1
			c-7.4-1.4-14.8,0.1-22.1-1c-6.1-0.9-12.2,0.1-18.1-1c-6.7-1.2-13.4-0.3-20.1-0.9c-2.5-0.2-5-1.3-7.5-0.9
			c-4.9-6.2-5.6-12.4-3.9-17.3c0.2-0.6,0.2-1.3,0.3-1.9c0-0.8,0-1.7,0-2.5c0-3-0.2-6,0-9c0.2-3-0.4-6,0.8-9.2c1-2.6,0.2-5.9,0.2-9.2
			c1.7,0,3.4-0.2,5,0c3.5,0.4,6.6-1.4,10.1-1.1c3.5,0.3,7.2,0.8,10.4-0.1c4.4-1.2,8.8-0.4,13.1-0.8c2.8-0.3,5.5-0.8,8.3-0.9
			c3.2-0.2,6.5,0.6,9.5-0.2c5.1-1.4,10.1-0.6,15.1-0.8c3.2-0.1,6.2-1.5,9.6-1.1c3.1,0.4,6.5,0.7,9.4-0.1c3.9-1.1,7.8-0.9,11.6-0.7
			c1.9,0.1,3.6-2.2,5.6-0.3c1.9-1.6,4.1-0.6,6.2-0.7c2.2-0.2,4.5,0.5,6.5-0.1c5-1.6,10.1-0.7,15.1-0.8c2.9-0.1,5.6-1.6,8.6-1.1
			c2.8,0.4,5.9,0.7,8.4-0.1c4.4-1.3,8.8-0.2,13.1-0.9c5.9-1.1,11.8-0.2,17.6-1.1c5.3-0.9,10.5-0.1,15.6-0.9
			c5.9-0.9,11.8-0.2,17.6-1.1c4.4-0.7,8.8,0,13.1-0.9c5.9-1.2,11.9,0,17.6-1.1c5.3-0.9,10.5,0,15.6-1c5.6-1.1,11.2,0,16.6-1
			c5.1-1,10.2,0,15.1-0.9c5.7-1,11.5,0,17.1-1.1c5.1-1,10.1-0.6,15.1-0.7c3.1-0.1,5.9-1.5,9.1-1.1c3,0.3,6.2,0.7,8.9-0.1
			c4.6-1.4,9.2-0.1,13.6-0.9c5.4-1,10.8-0.3,16.1-1.1c4.2-0.7,8.1,0.7,12.2,0.3c4.3-0.4,8.8-0.8,12.9,0.1c5.4,1.2,10.8,0.6,16.1,0.7
			c2.6,0,4.9,1.5,7.6,1.2c2.6-0.3,5.3-0.1,8-0.1s5.5-0.5,8,0.1c5.9,1.5,11.8,0,17.6,1c6.4,1.1,12.7,0.6,19.1,0.8
			c2.1,0.1,3.8,1.8,6.7,0.6c-2,4.2-1.4,7.9-1.3,11.6c0.2,4.8-0.7,9.4-1,14.1c-0.3,4.6,0.1,9.3-0.1,14c-0.1,2.9-1.1,5.8-1,8.8
			c0.1,3.3,0.7,6.8-0.1,10c-1.3,5.6-0.5,11.1-1,17c-4,1.7-6.3,6.1-10.8,8.1c-1.8,0-4.1,0.4-6.1-0.1c-7-1.5-14.2,0-21.1-1.1
			c-6.3-1-12.5,0-18.6-0.9c-6.9-1-13.8,0-20.6-1.1c-6.1-1-12.1-0.6-18.1-0.7c-3.6-0.1-6.9-1.6-10.6-1.2c-3.5,0.4-7.2,0.8-10.4-0.1
			c-5.4-1.4-10.8-0.7-16.1-0.7c-4.3,0-8.3-1.5-12.6-1.2c-4.3,0.4-8.8,0.8-13-0.1c-6.1-1.3-12.2,0-18.1-1c-6.4-1-12.8,0-19.1-1.1
			C856.6,185.9,851.5,186.4,846.5,186z"/>
	</g>
</g>
</svg>
