<?xml version="1.0" encoding="utf-8"?>
<!-- Generator: Adobe Illustrator 17.1.0, SVG Export Plug-In . SVG Version: 6.00 Build 0)  -->
<!DOCTYPE svg PUBLIC "-//W3C//DTD SVG 1.1//EN" "http://www.w3.org/Graphics/SVG/1.1/DTD/svg11.dtd">
<svg version="1.1" id="Layer_1" xmlns="http://www.w3.org/2000/svg" xmlns:xlink="http://www.w3.org/1999/xlink" x="0px" y="0px"
	 viewBox="0 0 1440 937" enable-background="new 0 0 1440 937" xml:space="preserve">
<g>
	<g>
		<path d="M384.4,521.8c-4,0.5-7.3-0.6-10.6,1.7c1.1,8-1,16.1-0.9,24.3c0.2,9.5-1.8,19-0.9,28.6c0.1,1.1-1.8,1.6-0.5,2.9
			c0.3,0.3-0.7,2.1-0.6,3.4c0.1,1.2,0,2.3,0,3.5s0,2.3,0,3.5c0,1.3,0,2.7,0,4c0,1.2,0.2,2.4,0,3.5c-1.6,6.5-0.1,13.2-1.1,19.6
			c-1,6.1,0.1,12.2-1,18.1c-1.1,5.9-0.4,11.8-0.9,17.8c-3.3,0.2-5.8,3.2-9.3,3.5c-0.6-0.6-1-1.1-1.5-1.6c0.3-0.3,0.6-0.7,0.9-1
			c-0.2-0.2-0.4-0.4-0.7-0.5c-1.9-0.5-3.6,0.4-4.9,1.3c-1.5,1-2.9,0.9-4.1,0.3c-5.6-2.7-11.4-4.6-17.1-7c-0.8-2.5,1.7-3.9,1.9-6.1
			c-0.9-1.1-1.2,0.4-1.9,0.5c-4.4,1.1-6.7,1.1-10.7-1.2c-1.7-1-3.4-1.4-5.1-2.1c-1.7-0.7-3.3-1.8-5.3-1.9c-0.3-2.2,1.9-3.3,1.9-5.2
			c-0.6-0.8-1.2-0.7-2-0.1c-1,0.7-2.2,1.2-3.2,1.7c-6.1-2.2-11.7-5.2-17.9-7c1.1-2.2,2-4,2.9-5.8c-0.6-0.6-1.5-0.6-1.9,0.2
			c-1,1.9-3.4,0.8-4.4,2.1c-5.6-2.3-11.2-4.6-16.4-6.7c-0.7-2.3,0.4-3.7,1.3-4.9c3.5-4.7,5.3-10.1,6.7-15.8c0.5-1.9,0.8-4,1.3-6.7
			c-0.3-0.6-1.8-1.4-3-0.5c-1.8,1.4-3.4,0.3-5,0.9c-0.6-1.4-0.3-2.2,0.3-3.4c2.1-4.1,3.8-8.4,5.8-12.6c0.2-0.4,0.7-0.7,0.6-1.3
			c-0.6-3.3,1.5-6.3,1-9.6c-0.3-2.1,1.7-3.8,0.8-6.1c1.5-0.1,2.6-0.1,3.8-0.3c0.4-0.1,0.7-0.5,0.9-0.7c2.1,0.6,1,2.9,2.5,4.3
			c2.2-2.9,3.5-5.8,3.9-8.9c0.2-1.7,1.5-2.8,1.2-4.6c-0.2-1.5,0-3-0.1-4.5c-0.1-2.4,1.8-4.6,0.8-7.1c-0.6-0.6-1.9-0.3-2.3-1.3
			c-0.7,0.4-0.4,1.2-0.7,1.7c-1.8,0.7-3.4,1.8-5.7,1.1c0-1.4-0.7-3.1,0.9-4.3c1.2-6.4,3.7-12.5,3.1-19.3c-0.3-3.3-0.1-6.6-0.1-10
			c1.6-0.2,2.9-0.5,4.1-1.2c1.9,0.2,1.6,2.7,3.5,3.4c1.3-9.3,4.3-18.1,0.9-27.2c-0.1,0-0.4-0.2-0.7-0.2c-0.5,0-1,0-1.3,0.1
			c-0.7,0.4-0.4,0.9-0.5,1.4c0,0.3,0,0.7,0,1c-0.5,0.5-0.5,0.5-4.7,0.3c-0.4-0.5-0.9-0.9-1.5-1.5c0.7-1.4,1.1-2.8,1.2-4.5
			c0.3-4.4,1.1-8.7,1-13.1c0-2-0.9-3.7-1.1-5.6c-0.2-1.9,0.6-3.8-0.8-5.7c-0.8-1.1-0.6-3.3,1.4-4.4c0.9,0,1.8,0,2.9,0
			c1.1,0.6,1.6,1.8,2.1,2.9c0.5-0.5,1-1,1.5-1.5c0-3.8-0.2-7.6,0.1-11.4c0.1-2.2-0.7-4.2-1.3-6c-0.7-2.3-0.6-4.4-0.8-6.6
			c-0.7-0.4-0.9-1.4-1.9-1.4c-1.8,1.6-1.8,1.6-2.3,4c-1.2-1.5-2.9-0.7-4.4-1.1c0.5-1.4-2.3-2-0.9-3.8c0.8-1.1-0.9-2.1-0.4-3.3
			c0.2-0.6,0-1.3,0-2c0.8-6.6-1.1-12.6-3.5-18.6c-0.6-1.4-0.3-3.2-2.2-4.4c1-0.7,1.7-1.1,2.8-1.9c1.7-0.2,3.3,1.8,5.4,2.2
			c1.5-4.7-0.5-8.9-0.9-13.2c-0.3-4-2.7-7.8-4.2-11.7c-3,0.2-3,0.2-4.1,4.2c-1.5-1.6-4-0.9-5.5-2.9c0.7-5.1-2.3-9.8-2-14.6
			c-2.7-5.3-5.2-10.2-7.9-15.6c0.4-0.3,1-0.7,2-1.3c1.9-0.3,4.3,3,6.6-0.2c-0.6-3.2-2.2-6.2-2.8-9.5c-0.9-4.4-4-8-5.9-11.8
			c-2-1-3-0.1-4,1.1c0.6,0.6,1.3,1,0.8,2.2c-1.3,0.7-2.8-0.1-4.2,0.3c-1.3-1.3-2.4-2.4-2.9-4.4c-0.8-3.2-2.3-6.4-3.3-9.6
			c-1.4-4-4.2-7.3-6.6-10.7c-1.1-1.6-2.4-3-3.5-4.6c-0.6-0.8-0.6-1.8,0.2-3c2.4,1.8,4.9,1.4,7.6-0.4c-1.3-4.7-4.1-8.8-6.2-13.2
			c-2.1-4.6-6.5-7.4-8.8-12c4.7-3.3,9.7-6.7,14.6-10.2c1.7-0.4,2.8,1.5,4.8,0.9c0.4-0.4,1-0.9,1.5-1.4c-0.4-2-2.3-2.6-3.1-4.1
			c4.3-4.1,10-6.5,14.6-10.4c1.7-0.6,2.9,1.4,5.1,0.9c0.2-0.3,0.6-0.9,1.2-1.7c-0.4-1.6-1.3-3.3-3-4.7c4.6-4.2,10.5-6.4,15-10.8
			c2.5,1.7,4.8,1.5,7-0.1c0.2-1.4-0.7-2.2-1.8-2.5c-1.9-0.4-2.3-1.6-2.1-3.4c5.3-3.6,10.7-7.3,15.4-10.5c2.4-0.5,3.1,1.3,3.7,1.1
			c2.2-0.6,2.8-2,3.9-2.7c-1.2-0.8-1-1.9-1-3.1c0.3-0.5,0.8-0.5,1.3-0.5c1.6-0.1,2.8,0.9,3.8,1.7c1.1,1,2.6,1.2,3.6,2.2
			c1.1-0.6,1.3-1.8,1.8-2.9c4.8,0,9.6-0.3,14.4,0.1c3.2,0.3,6.7,0.6,9.1,3.3c0.9,1,1.8,0.3,2.6,0.6c1-0.8,0.4-1.7,0.6-2.6
			c0.9-1,2.1-0.2,3.1-0.5c2.1,1.5,4.2,2.9,6.1,4.2c1.3-0.9,0.3-2.2,1.1-3.1c6.2,0,12.5,0,19,0c1.8,0.9,3.8,1.9,4.9,3.9
			c0.9,0,1.6,0,2.2,0c1-0.7,0.1-1.9,0.7-2.8c2.4-0.8,4.5,0.1,6,1.7c1.1,1.2,2.4,0.9,3.8,1.4c0,5.2,0.7,10.6-0.2,15.8
			c-1.2,6.4,0.1,12.8-0.9,19.1c-1.2,7.2,0,14.5-1.1,21.6c-0.9,6.1-0.6,12.1-0.8,18.1c0,1.2-0.8,2-1.1,3.1c-0.2,0.8,0.7,1,0.9,1.6
			c-0.3,0.3-0.6,0.7-1,1.1c2.9,2.1,5.9,4,10,3.3c0,3.7,0.7,7.3-0.2,10.6c-1.4,5.4-0.8,10.8-0.7,16.1c0,3.8-1.5,7.3-1.2,11.1
			c0.3,3.6,0.5,7.4-0.1,11c-0.3,1.9,0,3.9-0.7,5.8c-0.6,2-0.1,4.3-0.1,6.5c0,2.3-0.2,4.7,0.1,7c0.3,2.4-1.5,4.2-1.1,6.6
			c0.3,2.3,0.1,4.7,0.1,7.4c-3.2,0.4-6.5,0-10.1,0.2c1,7.3-1.4,14.4-0.9,21.6c0.2,2.3,0.5,4.8-0.1,7c-1.5,6,0,12.2-1.1,18.1
			c-1.2,6.9,0,13.8-1,20.6c-1,6.6-0.7,13.1-0.8,19.6c0,1.9-1.9,3.5-0.8,5.8c3,0.5,6.1,1.9,9.8,1.2c-0.4,5.5,0.5,10.5-0.9,15.6
			c-0.6,2-0.1,4.3-0.1,6.4c0,3.3,0.7,6.9-0.2,9.9c-1.1,3.5-0.6,6.8-0.8,10.1c-0.2,3.3-0.2,6.7,0,10
			C385.2,518.8,383,519.7,384.4,521.8z"/>
	</g>
</g>
</svg>
