<?xml version="1.0" encoding="utf-8"?>
<!-- Generator: Adobe Illustrator 17.1.0, SVG Export Plug-In . SVG Version: 6.00 Build 0)  -->
<!DOCTYPE svg PUBLIC "-//W3C//DTD SVG 1.1//EN" "http://www.w3.org/Graphics/SVG/1.1/DTD/svg11.dtd">
<svg version="1.1" id="Layer_1" xmlns="http://www.w3.org/2000/svg" xmlns:xlink="http://www.w3.org/1999/xlink" x="0px" y="0px"
	 viewBox="0 0 1440 937" enable-background="new 0 0 1440 937" xml:space="preserve">
<g>
	<g>
		<path d="M870,566.4c-4-1.8-7.8-1.3-11.5-1.4c-0.8-0.8-1.6-1.6-2.5-2.7c1-4.6-1.4-9.1-1-13.9c0.1-1.6-1.1-3.2-1-5.1
			c0.1-1.5,0.4-3.1-0.6-4.8c-0.8-1.4,0.2-3.7-0.5-5.3c-1.2-2.9-0.8-5.7-0.9-8.6c-0.1-2.6,1.4-4.9,1.1-7.6c-0.3-2.3-0.8-4.9,0.9-7.1
			c0.2-0.2,0.1-0.7,0-1c-0.7-5.4,1.7-10.7,1-16.1c1.5-3.9,0.4-8.1,1.1-12.1c0.7-3.4,0.3-6.9,1-10.1c0.8-3.6,0.2-7.2,1-10.6
			c1-4.3,0.6-8.7,0.9-12.8c0.5-0.5,0.9-0.9,1.5-1.5c1.5,0.5,3.2-0.7,4.9,0.8c0.6,0.5,1.9,0.2,2.9,0.2c3.5,0,7,0.3,10.5-0.1
			c2.7-0.3,4.9,1.4,7.6,1.1c2.6-0.2,5.3-0.1,8,0c0.4,0,0.7,0.6,1.1,0.9c1-2.5,1.8-5,1.5-7.5c0.6-0.6,1-1,1.4-1.4
			c0.4,0,0.8,0,1.2,0.2c0.4,0.2,0.8,0.7,1.2,0.8c2,0.1,4,0.1,6,0c2-0.1,3.5,1.3,5.6,1.1c5.7-0.7,11.3,1.7,17.1,0.9
			c2.9,1.5,6.1,0.4,9.1,1.1c3.7,0.9,7.5,0.2,11.1,1.1c3.1,0.7,6.2,0.2,9.1,0.9c3.9,1,7.8,0.3,11.6,1.1c3.4,0.7,6.9,0.2,10.1,1
			c3.4,0.9,7,0,10.1,1.1c3.3,1.2,6.6,0,9.6,0.9c3.5,1,7.2,0.4,10.6,1.1c2,0.4,4,0.7,6.1,0.8c1.1,3.8-1.8,7-0.7,10.4
			c-0.5,0.5-0.9,0.9-1.2,1.2c-0.2,0.4-0.4,0.4-0.7-0.1c-0.2-0.3-0.5-0.6-0.7-0.6c-5.4,0.7-10.7-1.3-16.1-1.1
			c-1.9,0.1-3.9-0.4-6.2-0.7c-0.2,0.1-0.2,0.9,0,1.5c3.5,16.3,5.4,32.9,9.4,49.1c0.1,0.4,0.7,0.7,1,1.1c1.4,0.4,2.1-1.3,3.6-1
			c1.1,0.2,2.3,0,3.5,0c0.4-0.3,0.7-0.7,1.1-1c1.3-0.2,1.7,0.9,2.1,1.2c-1.2,3.1-0.3,6.3-0.7,9.3c-1.1,0.4-0.6,1.8-1.3,2.3
			c-2,0.6-4-0.6-5.8,0.8c-1.6,1.2-3.6,0.2-5.5,1.1c-1.9,0.9-4.6,0.6-7,1.2c-1.7,0.4-3.4-0.1-5.1,1c-1.2,0.8-3-0.3-4.6,0.9
			c-1.3,1-3.6-0.6-5,1.2c-3.8-0.6-7.3,1.9-11,0.9c-0.5,1.3-1.8,0.9-2.6,1.7c0,1.4-0.1,2.9,0,4.4c0.1,1.4-0.3,2.8-0.6,4
			c-0.3,1.5-0.3,2.9-0.4,4.3c-0.1,1.5,0.4,3.2-0.1,4.5c-1.5,3.3-0.2,6.9-1,10.1c-0.9,3.7-0.9,7.4-0.9,11.1c0,1-0.9,1.3-1.5,2.2
			c-1.5-0.5-3.4,0.7-5-0.9c-0.3-0.3-1.3-0.1-1.9-0.2c-3.4-0.2-6.9,0.7-10.1-1c-5.4,0.7-10.7-1.2-16.1-1c-4.5,0.1-9-1.7-13.6-1
			c-2.3-1.8-5.1-1.1-7.6-0.9c-2.4,0.2-4.3-1.4-6.6-1.2c-2.1,0.2-4.4,0.3-6.5,0c-1.7-0.3-3.2-1.3-5.3-0.8c0-1-0.2-1.7,0-2.2
			c1.3-3.5,0.9-7,1-10.6c0.1-2.2,1.3-4.2,1.1-6.6c-0.2-2.2-0.7-4.6,0.9-6.6c0.2-0.3,0.1-1,0-1.5c-0.7-5.9,1.5-11.7,1-17.6
			c-0.2-2.1,1.4-3.8,1-6.1c-0.3-2-0.4-4.2,0.9-6.1c0.1-0.1,0-0.3,0-0.5c-0.5-6.4,1.6-12.7,1-19.1c-0.3-3,1.6-5.9,1-9.1
			c-0.1-0.6,0-1.3,0-1.9c-6.4,0.1-12.4-1.7-18.5-1.3c-2,5.1-1.5,10.3-1.4,15.5c0,2-1.3,3.6-1.1,5.6c0.2,1.9,0.4,3.8-0.8,5.7
			c-0.7,1.1,0,2.9-0.1,4.4c-0.2,2.2,0.6,4.5-0.9,6.6c-0.5,0.7-0.2,2,0.9,2.6c-0.4,0.6-1.1,1.1-0.9,2.1c0.8,4.6-0.5,9.1-1.2,13.6
			c-0.6,3.7-0.8,7.4-0.8,11.1c0,1.6-2,3-0.8,4.5c1.1,1.3,1.1,3,1.6,4.4c1.2,3.2,2.2,6.7,0.2,10.1C869.7,563.7,870,564.7,870,566.4z
			 M964,514.5c0.5-0.5,0.9-0.9,1.6-1.6c2.2,0.7,4.2-1.1,6.4-0.8c2.6,0.3,4.6-1.3,7.1-1.2c2.2,0.1,4.2-1.6,6.4-0.9
			c0.6-0.6,1.1-1.1,1.7-1.7c-1.4-5.1-2.4-10.3-3.2-15.6c-0.8-5.1-2.2-10.1-2.9-15.3c-0.7-5.4-2.9-10.6-2-15.8
			c-0.7-0.7-1.1-1.2-1.5-1.7c-3.5,0.4-6.7-1.4-10.2-1.1c-4.7,0.4-9.3-1.7-14.1-0.9c-2.2-1.3-4.6-1.1-7-0.9c-0.5,1.1-1.3,2.1-1.3,3.1
			c0.2,3.6-0.5,7.1-1,10.6c-0.5,3.2,0.6,6.5-1.1,9.6c0.8,4.9-1.3,9.7-1,14.6c0.3,4.1-1.8,8-1,12.1c-2,3.5-0.5,7.3-1.1,10.8
			c2.6,0.4,4.8-0.1,7.1,1c1.5,0.7,3.6,0.1,5.4,0.2c1.8,0.1,3.9-0.8,5.3,0.4c2,1.7,3.2-0.6,4.9-0.4c0.8,0.1,1.7,0.4,2.3-0.4
			C964.9,517.2,965.6,515.6,964,514.5z M904.5,515c3.8,0.3,7.4-0.2,11.2,0.9c2.8,0.8,5.9,0.2,8.9,0.2c0.6,0.6,1.1,1.3,2.1,0.9
			c1.3-2.8,1.8-5.8,1.4-8.8c-0.4-3.1,2-5.8,0.8-8.9c-4.4-0.6-8.6-1.7-13-1.2c-0.3,0-0.8,0.1-1,0c-3-2-6.3-0.4-9.5-1.1
			c-0.7,5.8-1.3,11.3-2,16.9C903.5,514,903.8,514.3,904.5,515z M901.9,526c0.7,6.5-1.7,12.5-0.9,18.8c0.1,0.5,0.2,1.2,0,1.5
			c-1.9,2.4-0.6,5.1-1,7.6c-0.2,1,0.8,1.3,1.4,2.2c1.7,0,3.5,0,5.3,0c1.8,0,3.5,0,5.4,0c-0.8-5.6,1.5-10.4,0.9-15.5
			c0-0.2-0.1-0.4,0-0.5c2.1-4.2,0.5-8.6,1-13.3C909.7,527.9,906,525.9,901.9,526z M927.9,458.9c-5.3,0.7-9.9-2.1-14.9-0.5
			c0,2-0.3,4,0.1,5.9c0.4,2-1.4,3.2-1.1,5.1c0.3,1.9-0.2,4,0.1,6c0.3,2-1,3.6-1.1,5.6c2.3,0,4.6-0.6,6.2,0.1c2.9,1.4,5.7,0.4,8.8,1
			c0.1-4,0.5-7.7,0.8-11.3C927,467,928.3,463.2,927.9,458.9z M944.8,535c-2.5,0.2-4.4-1.5-6.8-1.1c-2.2,0.4-4.6,0.1-6.9,0.1
			c-0.3,3.4-0.1,6.3-0.9,9.4c-0.8,3.3-0.2,6.9-0.2,10.4c4,0.5,8-0.5,11.7,1.1c1.1,0.5,1.6-0.9,2.4-1.6
			C943.2,547.4,946,541.5,944.8,535z"/>
		<path d="M1028,532c0,4.3-0.1,8.1-0.8,12c-0.7,3.9,0.5,8.1-0.3,11.9c-1.6,7.5-0.2,15.1-1,23c-2.7-0.3-5.5,1.1-8.3-0.8
			c-0.2-0.2-0.6-0.1-1-0.1c-5.4,0.7-10.7-1.7-16.1-1c-2.6,0.4-4.7-1.1-7.1-1.1c-2.5,0.1-5.3,0.7-7.4-0.2c-2.8-1.1-5.4-0.7-8.1-0.8
			c-2.6,0-4.9-1.9-8-0.7c0.5-4.6,0.1-8.6,0.9-12.9c1.2-6.2,2-12.6,1-18.6c1.8-2.7,4.6-2,6.8-2.7c3-0.9,6.1-1.1,9.1-2
			c2.1-0.6,4.4-0.7,6.6-0.9c4.7-0.6,9.4-1.5,14.1-2.4c4.4-0.8,9-1.1,13.3-2.7C1023.4,531.5,1025.6,532,1028,532z"/>
	</g>
</g>
</svg>
