<?xml version="1.0" encoding="utf-8"?>
<!-- Generator: Adobe Illustrator 17.1.0, SVG Export Plug-In . SVG Version: 6.00 Build 0)  -->
<!DOCTYPE svg PUBLIC "-//W3C//DTD SVG 1.1//EN" "http://www.w3.org/Graphics/SVG/1.1/DTD/svg11.dtd">
<svg version="1.1" id="Layer_1" xmlns="http://www.w3.org/2000/svg" xmlns:xlink="http://www.w3.org/1999/xlink" x="0px" y="0px"
	 viewBox="0 0 1440 937" enable-background="new 0 0 1440 937" xml:space="preserve">
<g>
	<g>
		<path d="M1010.3,523.1c1-4.5,1.2-8.7-0.1-13.3c0.5-0.9,1-2.1,0.9-3.7c-0.6-5.9,1.7-11.6,1-17.6c1.6-3.2,0.3-6.8,1.1-10
			c0.8-3.2,0.9-6.4,0.8-9.6c0-1.7,0.8-3.1,1.2-4.5c1.1-4,0.7-8.2,2.2-12.4c1.5,0.5,3.2-0.7,4.9,0.8c0.4,0.4,1.2,0.3,1.9,0.3
			c3.5,0.1,7.2-0.5,10.6,1c5.9-0.7,11.7,1.5,17.6,1c2.3-0.2,4.1,1.8,7,0.7c-0.7,2.2,0.5,4.1-1,5.6c-0.2,0.2-0.2,0.6-0.2,0.9
			c0,2-0.2,4,0.1,6c0.3,2.1-1.6,3.5-1.1,5.6c0.7,2.8-0.8,5.3-1,8.1c-0.2,2.7,0.8,5.6-1,8.1c-0.2,0.2-0.1,0.7,0,1
			c0.7,5.4-1.5,10.7-1,16.1c0.2,1.6-1.4,2.5-1.1,4.1c0.2,1.5,0,3,0,4.6c-1.9,0.8-4,0.3-6,1.1c-1.8,0.6-3.8,1.7-6,1.2s-3.9,1.5-6.1,1
			c-2.3-0.5-4.2,1.5-6.6,1.1c-2.1-0.4-4.1,0.7-6,1.2c-2,0.5-4.3,0-6,1C1014.2,523.5,1012.3,522.6,1010.3,523.1z M1042.4,498.9
			c-1.5-8.2,1.2-15.7,0.6-23.5c-0.1-1,0.7-1.4,1-2.1c0.1-0.3,0-0.6-0.1-0.8c-0.5-0.5-1-1-1.5-1.6c-5.1,1.2-10.1-2.1-15.5-0.5
			c1,3.2-1.1,6-0.9,9.1c0.5,5.7-1.8,11.3-1,17.1c0,0.3,0.1,0.8,0,1c-1.8,1.7-0.6,3.6-0.9,5.1
			C1030.1,501.4,1036.2,501.3,1042.4,498.9z"/>
	</g>
</g>
</svg>
