<?xml version="1.0" encoding="utf-8"?>
<!-- Generator: Adobe Illustrator 17.1.0, SVG Export Plug-In . SVG Version: 6.00 Build 0)  -->
<!DOCTYPE svg PUBLIC "-//W3C//DTD SVG 1.1//EN" "http://www.w3.org/Graphics/SVG/1.1/DTD/svg11.dtd">
<svg version="1.1" id="Layer_1" xmlns="http://www.w3.org/2000/svg" xmlns:xlink="http://www.w3.org/1999/xlink" x="0px" y="0px"
	 viewBox="0 0 1440 937" enable-background="new 0 0 1440 937" xml:space="preserve">
<g>
	<g>
		<path d="M1035.5,635.8c6.6,0.7,12.5-0.9,18.6,1.4c-0.5,3.7,0.7,7.4-1,11c-0.5,1.1,0,2.6-0.1,4c-0.3,3.7,0.6,7.4-0.9,11.1
			c-0.6,1.5,0,3.6,0.1,5.4c0,0.3-0.3,9.9-0.5,10.1c-1.2,0.9-0.7,2.1-0.7,3.2c-0.1,3.2-0.2,6.3,0,9.5c0.2,3.4-0.6,6.7-1.3,10.2
			c-2.9,1.6-5.7-0.5-8.7-0.7c-3-0.2-6.2,1.1-9-1.1c0-3.9,0-7.7,0-11.5c1.5-1,4,0.9,4.8-2.5c0-1.3,0-3.4,0-5.7c-1.9,0-3.7,0-5.3,0
			c-0.5-0.5-0.9-0.9-1.6-1.6c0.6-2.4-0.4-5.1,0.8-8.1c1.1-2.6,0.2-5.9,0.2-9.2c2.3,0,4.5,0,6.6,0c1.2-4.4,1.8-8.5,1.2-12.8
			c-1-0.7-2.2-0.2-3.7-0.4c-0.2-2-0.8-4,0.8-5.8C1034.7,640.3,1036.8,638.4,1035.5,635.8z"/>
	</g>
</g>
</svg>
