<?xml version="1.0" encoding="utf-8"?>
<!-- Generator: Adobe Illustrator 17.1.0, SVG Export Plug-In . SVG Version: 6.00 Build 0)  -->
<!DOCTYPE svg PUBLIC "-//W3C//DTD SVG 1.1//EN" "http://www.w3.org/Graphics/SVG/1.1/DTD/svg11.dtd">
<svg version="1.1" id="Layer_1" xmlns="http://www.w3.org/2000/svg" xmlns:xlink="http://www.w3.org/1999/xlink" x="0px" y="0px"
	 viewBox="0 0 1440 937" enable-background="new 0 0 1440 937" xml:space="preserve">
<g>
	<g>
		<path d="M940.8,362.6c-0.4,0.5-0.6,0.9-0.9,1.2c0.1,0.4,0.1,0.8,0.3,1c1.8,1.9,3.4,3.6,3.9,6.4c0.3,1.6,2.4,3,3.8,4.5
			c0,0.9,0,1.9,0,3c4.2,2.1,5.7,6.1,7,10.4c0.4,1.2,1.1,2.2,1.6,3.2c-1,0.9-2,1.8-2.9,2.6c1,2.4-1.1,3.5-0.8,5.2c0.2,1.5,0,3,0,4.5
			c1.4,0.8,2.9,0.4,4.3,0.4c4.6,0,9,1.7,13.6,1c3,1.9,6.4,0.5,9.7,1.2c1.7,2.6-0.8,5.1-0.6,7.7c0.2,2.6,0,5.3,0,7.6
			c-0.6,0.6-1,1-1.5,1.5c-3.3-0.6-6.9,0.9-10.3-1c-0.9-0.5-2.3-0.1-3.5-0.1c-9.7,0-19.3,0-29,0c-1.1,0-2.3,0-3.5,0
			c-0.1-1-0.1-1.8-0.2-2.7c-10.4-1.8-21.1-1.8-31.9-3.6c0.5-2.9-1-6.1,1-9.2c0.2-0.2,0-0.7,0-1c-0.5-6.2,1.8-12.3,1-18.6
			c-0.4-3,1.8-5.6,0.8-8.9c-1.3,0-3.4,0.6-4.1-0.1c-1.6-1.6-2.5,0.9-3.8,0.2c-0.8-0.4-1.8,0.1-2.8-0.4c-1.6-0.8-5-0.8-6.9-0.6
			c-3.7,0.4-7.2-1-10.7-2.1c-1.1-1.2,0.5-3.4-1.3-4.4c1.8-1,0.2-3.2,1.3-4.4c1.3-1.4,0.1-3.2,0.8-4.8c0.4-0.4,0.8-0.8,1.3-1.3
			c1,0,2,0,3,0c0.9-3.9,4.9-4.3,7.5-5.8c4.8-2.8,9.7-5.7,14.2-9c1.4-1,2.8-1.9,4.6-2.2c1.4-0.3,5.7-2.7,6-3.9
			c0.4-1.7,2.3-0.6,2.5-1.9c2.9-0.2,5.1-2.1,8.1-3.4c1.1,1.7,2.6,3.4,3.5,5.3c1.4,3.1,4,5.7,4.6,9.1c0.3,1.8,2.8,1.5,2.5,3.4
			C936.2,355.5,938.2,359.3,940.8,362.6z M890.3,361.1c2.9,1.8,5.2,2.5,7.8,1.6c-0.6-0.6-1.1-1.1-1.6-1.6
			C894.9,361.1,893.1,361.1,890.3,361.1z"/>
		<path d="M847.4,280.7c2,4.5,4.5,8.3,6.8,12.1c1.7,2.8,3,5.8,4.8,8.5c3.6,5.1,6.1,10.9,9.5,16.1c2.9,4.3,5.5,9,8.1,14.1
			c4.3-3.5,9.8-4.9,14-8.5c1.7-1.5,4-2.3,6.1-3.4c-0.6-1.8-3.7-1.6-3.5-4.4c0,0,0.3-0.3,0.5-0.5c-1.1-2.1-2.1-4.2-3.3-6.5
			c-0.5,0-1.3-0.1-2.1-0.1c0-1.8-1.8-2.5-2.2-3.2c-0.3-1.7,1.2-1.9,0.5-3.6c-0.4-0.2-1.6-0.9-2.7-1.6c-0.9-1.1-1.9,0.2-3.3,0.6
			c-1.3-3.4-4.1-6-5.3-10c4.9-2.9,10.3-6.1,15.8-9.4c3.2,3,4.7,7,6.6,10.6c2.1,3.8,4.6,7.3,6.6,11.2c1.8,3.7,4.5,7.1,6.4,10.9
			c1.9,3.7,4.9,6.8,5.7,11.7c-0.9,1.4-3.2,2.4-4.7,4.4c-0.5,0.7-1.9,1.8-3.3,1.5c-1.7-0.5-2.6,1.1-4.1,1.1c-0.9,2.9-3.1,4.4-5.9,4.9
			c-3.3,0.6-6.5,1-8,4.8c-0.4,1-2,1.4-3.1,2.2c-1.3,0-2.6,0-3.9,0c-1.2,1.1-2,2.5-3,3.6c-0.8,0.8-2.1,1.8-3.1,2.3
			c-0.9,0.2-1.2-0.1-1.7-0.7c-1.7,0.2-2.9,2.1-5.4,1.7c-0.7-2.2-2.5-4.1-3.7-6.4c-1-1.8-1.9-4.5-4.7-5c-1.2-0.3-1.6-2-1.6-2.7
			c-0.2-3.6-2.5-6.3-3.7-9.6c-0.6-0.3-0.6,0.5-1.2,0.7c-2.5-1.9-2.7-4.6-2.5-6.7c-1.1-2.7-1.8-4.9-4.5-4.2c-1.6-2.1-1.6-4.3-1.5-6.3
			c-0.8-1.3-1.7-2.3-1.9-3.5c-0.2-1.1-0.9-2-1.7-2.2c-2.5-0.5-3-2.7-4.4-4.9c-0.1-0.2,1.1-0.3,1-0.3c-0.3-4.4-4.4-4.8-6.1-7.7
			c0.5-2.7,1.6-5,4.7-6.4C841.5,284.5,844.2,282.6,847.4,280.7z"/>
		<path d="M870.6,282.5c-2-3.3-3.9-6.4-5.8-9.5c0.6-1.5,2.8-1.1,3.1-2.7c-1-2.1-1-2-2.8-3.7c-1.6-1.4-2.8-3-3.2-5
			c0.4-0.4,0.6-0.6,0.8-0.8c0.2-0.2-0.1-0.4-0.2-0.7c-0.6-1.8-2.5-2.9-2.9-4.8c-3.4-0.7-3.1-3.9-4.1-6.1c-1.9,0.9-3.6,2.1-5,4
			c-2.9-1-4.7,1.3-6.7,2.7c-2,1.3-3.5,3.3-6.2,3.3c-0.6,0-0.6,0.2-1.8,2.7c2.6,4.5,5.3,9.1,8.2,14c-5.2,1.8-8.6,7.1-14.4,7.3
			c-2.5-2.2-3-4.6-2.6-7.3c-1.6-2.8-6-3.3-6-7.3c0.2-0.2,0.5-0.5,0.7-0.7c0.2-0.2,0-0.4-0.2-0.7c-2.3-4.2-4.4-8.5-8.5-11.8
			c0-0.6,0-1.6,0-2.7c2.2-3.5,6.9-3.4,9.4-6.5c1.2,0.6,1.4,1.8,1.8,2.8c1.6,0.8,2.7-0.7,4.2-0.9c0.8-2.2,2.5-3.8,4.9-4.6
			c0.5-0.3,0.6,0.4,1.3,0.7c4.5-1.1,6.8-5.6,11.3-8.1c0.9,0,2.3,0,3.9,0c1.3-3.4,3.6-5,7.3-5c1.4,0,2.7-1.4,4.4-2.3
			c3.9,7.7,9,14.3,12.7,21.9c3.6,7.5,8.4,14.5,12.8,22c-2.5,2.1-5.5,3.4-8.1,5.2C876.3,279.5,873.3,280.3,870.6,282.5z"/>
	</g>
</g>
</svg>
