<?xml version="1.0" encoding="utf-8"?>
<!-- Generator: Adobe Illustrator 17.1.0, SVG Export Plug-In . SVG Version: 6.00 Build 0)  -->
<!DOCTYPE svg PUBLIC "-//W3C//DTD SVG 1.1//EN" "http://www.w3.org/Graphics/SVG/1.1/DTD/svg11.dtd">
<svg version="1.1" id="Layer_1" xmlns="http://www.w3.org/2000/svg" xmlns:xlink="http://www.w3.org/1999/xlink" x="0px" y="0px"
	 viewBox="0 0 1440 937" enable-background="new 0 0 1440 937" xml:space="preserve">
<g>
	<g>
		<path d="M856.7,187c2.9,4.7,5.5,9.9,7.7,15.3c-2,1.1-3.6,1.9-4.9,2.6c-0.8,1.3-0.1,1.8,0.4,2.5c0.3,0.5,0.2,1.3,0.3,2
			c-1.6,2.1-4.3,2.3-6.3,4c-0.8-1.6-1.5-3-2.3-4.5c-3,1.5-6.1,3-9.3,4.6c-0.9,2.1,2.1,3.9,0.6,6.3c-4.7,1.9-9,5-13.7,6.5
			c-2-1-1.9-3.1-3.4-4.1c-2.9,2-6.1,3.9-9.7,5c0.4,2.1,1.5,3.5,2.5,5.2c-2.5,1.3-4.7,2.4-7,3.6c-0.4-0.4-0.9-0.9-1.4-1.4
			c0-0.7,0-1.3,0-2.2c-2.5-0.9-4.6-0.1-6.7,1.8c-3.3-4.9-6.4-9.8-7.5-15.4c6-3.7,12.1-6,17.7-9.5c5-3.2,10.7-5.4,16-8.2
			c7.7-4.2,15.6-8.1,23.5-12C854.2,188.5,854.6,187,856.7,187z"/>
	</g>
</g>
</svg>
