<?xml version="1.0" encoding="utf-8"?>
<!-- Generator: Adobe Illustrator 17.1.0, SVG Export Plug-In . SVG Version: 6.00 Build 0)  -->
<!DOCTYPE svg PUBLIC "-//W3C//DTD SVG 1.1//EN" "http://www.w3.org/Graphics/SVG/1.1/DTD/svg11.dtd">
<svg version="1.1" id="Layer_1" xmlns="http://www.w3.org/2000/svg" xmlns:xlink="http://www.w3.org/1999/xlink" x="0px" y="0px"
	 viewBox="0 0 1440 937" enable-background="new 0 0 1440 937" xml:space="preserve">
<g>
	<g>
		<path d="M802.6,385.9c1.4-3,1.8-5.7,1.3-8.4c-0.5-2.7,1.6-5,0.9-7.9c0.9-0.7,2-1.5,3.3-2.5c6.4,0.7,13.4,1.4,20.7,2.2
			c0-3.5,0-6.6,0-9.8c-3.1-1.5-6.7-1.7-10.2-1.4c-1.6,0.1-3.1-0.3-4.5-0.6c-1.7-0.4-3.2-0.2-4.8-0.4c-1.7-0.2-3.6,0.5-5.1-1
			c-0.2-0.2-0.6-0.1-1,0c-5.6,0.8-11-1.5-16.6-1c-2.2,0.2-3.9-1.3-6.1-1.1c-2,0.2-4.3,1.1-6.1-0.8c-0.2-0.2-0.6-0.1-1,0
			c-7.1,0.6-14-2-21.5-0.7c0,1.3,0,2.9,0,4.5c0.1,4.7-1.5,9.3-1.1,14.1c0.1,1.1-0.9,2.6-1.1,4c-3.5,0-7,0-10.7,0c0-1.5,0-3,0-4.5
			c0-1.5-0.6-3.5,0.1-4.4c1-1.2-0.6-2.6,0.7-3.4c0.2-0.1,0.1-0.6,0.2-0.9c0.4-3.2-0.3-6.3,0.8-9.6c1-2.8,0.2-6.3,0.2-9.5
			c1.7-2.1,4.3-3.2,6.6-4.4c5.6-3.1,10.9-6.7,16.5-9.5c5.3-2.6,10-6.1,15.4-8.7c4.5-2.1,8.6-5.1,12.8-7.7c3.5-2.1,6.8-4.3,10.5-6.1
			c1.8-0.9,3.6-1.8,4.9-3.2c1.7,0.5,2.8,1.6,3.2,2.6c2.2,5.3,5.8,9.9,8.3,15c2.7,5.4,6.5,10.3,9.3,15.6c2.5,4.8,5.7,9.3,8.1,14.1
			c1.5,2.9,3.5,5.5,4.8,8.5c0.5,1.2,0.9,2.5,0.5,3.2c-1.5,2.5-1,5.1-0.8,7.6c0.2,2.7-1.2,5-1.2,7.6c0,2.5,0.9,5.2-0.9,7.6
			c-0.2,0.2-0.1,0.7,0,1c0.7,5.6-1.5,11-1,16.6c0.2,2.6-1.9,4.8-0.8,7.6c-4,0-7.4,0.1-10.9,0c-2.2-0.1-4.2-1.3-6.6-1.1
			c-2.2,0.2-4.6,0.7-6.6-0.9c-0.2-0.2-0.7-0.1-1,0c-5.6,0.7-11-1.5-16.6-1c-2.1,0.2-3.8-1.5-6.1-1.1c-1.9,0.3-4.2,0.6-5.9,0
			c-3.2-1.1-6.7,0-9.6-1.1c-3.3-1.2-6.5-0.4-9.6-0.8c-2.2-0.2-4.2-1.4-6.6-1.1c-2.2,0.2-4.5,0.6-6.6-0.9c-0.6-0.4-1.6-0.1-2.5-0.1
			c-3.5,0-7.1,0.4-10.7-1.5c0.6-3.3-0.5-6.7,0.9-10.3c1.1-3-0.6-6.8,1.7-10.2c1.8,1.4,4.1,1.3,6.3,1.1c5.4-0.4,10.7,1.8,16.1,1
			c2.9,1.8,6.1,1,9.1,0.9c2.5-0.1,4.5,1.5,7.1,1.2c2.1-0.2,4.6-1,6.6,0.9c0.1,0.1,0.3,0,0.5,0C791.7,384.2,797,386.7,802.6,385.9z
			 M818.9,345.9c-4.3-9.1-9.5-17.5-14.1-26c-3.7,0.7-22.7,11.7-25.5,14.4c0,2.6,0,5.1,0,7.6c3,0.1,5.8,0.1,8.7,0.9
			c3,0.8,6.5-0.5,9.5,1.1c5.2-0.7,10.3,1.2,15.5,1C814.8,345,816.8,344.6,818.9,345.9z"/>
	</g>
</g>
</svg>
