<?xml version="1.0" encoding="utf-8"?>
<!-- Generator: Adobe Illustrator 17.1.0, SVG Export Plug-In . SVG Version: 6.00 Build 0)  -->
<!DOCTYPE svg PUBLIC "-//W3C//DTD SVG 1.1//EN" "http://www.w3.org/Graphics/SVG/1.1/DTD/svg11.dtd">
<svg version="1.1" id="Layer_1" xmlns="http://www.w3.org/2000/svg" xmlns:xlink="http://www.w3.org/1999/xlink" x="0px" y="0px"
	 viewBox="0 0 1440 937" enable-background="new 0 0 1440 937" xml:space="preserve">
<g>
	<g>
		<path d="M735.8,278.9c3.6,6.1,6.8,12.3,10.6,18.2c2.8,4.3,5,8.9,7.6,13.3c1.6,2.7,3.5,5.1,4.8,8.5c-8.7,5.9-18.5,10.7-27.7,16.8
			c0.2,4.2-1.8,8.6-1,13.5c-2.9-0.6-5.5,0.8-7.9-1.1c-0.2-0.2-0.7-0.1-1,0c-5.9,0.7-11.7-1.2-17.6-1.1c-3.1,0.1-6.2-1.3-9.4-0.8
			c-1.1-4.2,0.3-8,1-12.2c3.7,0.7,7.5-0.4,11.4,0.9c3.6,1.2,7.8-0.7,11.7,1.2c1.3-2.7,2.2-5.5,1.5-8.4c7.6-4.5,14.9-8.9,22.5-13.4
			c-4.4-6.6-7.8-13.6-11.8-20.2c-7,4.6-14.8,8.1-21.6,13.2c0,2.8,0.5,5.6-0.1,8.1c-0.8,2.8-0.8,5.7-0.9,8.6c-2.2,0-3.9,0.1-5.9-0.8
			c-1.6-0.8-3.9-0.2-6-0.2c-0.7-4.1,0.8-7.9,1.1-11.6c0.3-3.9,0.6-7.7,0.8-12.2c8.2-5.5,17.2-10.5,26.2-15.6
			c-1.4-3.6-4.1-6.2-5.4-10c3-2.8,7.2-4,10.6-6.4c3.4-2.5,7.2-4.3,11-6.6c-2.8-4.5-5.3-8.6-7.9-13c-6.3,3.7-12.3,7.2-18.5,10.8
			c0.3,5.3-2.1,10.7-0.9,15.7c-1.5,2.6-4,2.3-5.2,1.7c-2.2-1.2-4.5-0.4-7-1.1c0.6-3.6-0.9-7.3,1.1-10.9c-0.8-4.6,1.8-8.9,0.9-13.4
			c2.9-2.3,6.2-3.5,9.1-5.4c5.3-3.5,10.9-6.8,16.5-9.8c5.3-2.9,10.4-6.2,15.7-9c5.1-2.7,10-5.6,15.2-8.6c1.9,3.1,3.9,5.9,5.5,8.8
			c0.4,0.7,0.4,1.7,1.2,2c3.3,1.1,4,4.2,5.5,6.7c3,4.9,5.8,9.9,8.7,14.8c-0.5,0.6-0.7,1-1.1,1.5c0,0.6,0.6,1.4,0.9,1.8
			c3.1,3.6,4.7,8.1,7.4,12c2.5,3.7,4.4,7.8,6.7,11.7c2.8,4.8,5.1,10,8.7,14.4c0.3,0.4,0.2,1.3,0.3,2.2c-8.4,4.9-16.8,9.7-25.5,14.8
			c-7-9.9-11.7-21.1-18.4-30.9c1.8-2.1,4-3.9,6.8-4.9c2.5-0.9,4.1-3.4,7.4-3.7c-1.5-3.1-2.9-5.8-4.2-8.6c-3.1-0.8-5.1,1.2-7,2.3
			c-5.5,3.3-11,6.4-16.5,9.6C742.2,274.1,738.4,275.5,735.8,278.9z"/>
		<path d="M787.7,195.7c-4.3,1.8-8.1,4-11.8,6.5c-1.5-1.1-2.5-2.3-3.3-4c-2.3-5.1-5.4-9.8-8.4-14.5c-0.2-0.2-0.2-0.6-0.3-1
			c0.9-1.5,2.2-2.7,4-3.2c-3.2-5.8-6.5-11.6-9.8-17.6c3.3-4.8-3-6.6-3.5-11.1c2.4-2.5,6.3-4.5,9.9-6.8c3.5-2.2,6.5-5.5,11-6.2
			c2.2,3.4,4.4,6.7,6.7,10.1c-2.4,3.9-7,4.8-10.2,7.4c1.8,3,3.3,6,5.4,8.8c1.9,2.6,2.9,5.7,4.4,8.6c-0.8,1.4-2.9,1.2-3.7,2.6
			c1.6,2.9,3.3,5.7,4.9,8.5c1.6,2.8,2.3,6.1,4.9,8.6C788,193.6,788.3,194.8,787.7,195.7z"/>
		<path d="M682.7,204.6c3.5-1.7,5.8-4.8,9.7-6c-2-0.9-2.3-2.7-3.3-4.2c4.2-2.9,8.1-6.6,13.4-8.9c1.2,4.2,4.4,6.8,6.6,10.5
			c-0.9,0.8-2.1,1.7-3,2.4c-0.6,1.5,1.6,1.7,0.5,3.1c-1.6,0.4-2.7,2.1-4.1,3.4c-0.7-0.7-1.4-1.3-2.1-2c-1.5-0.2-2.7,0.2-3.6,2
			c2.7,4.4,5.7,9.2,8.7,14.1c5.8-2.6,10.6-7,16.3-9.6c3.2,3.8,4.5,8,7.4,11.6c-8.8,5.3-17.6,10.6-26.7,16.1
			C696,226.5,689.5,215.8,682.7,204.6z"/>
		<path d="M723.9,198.3c-4.6-6.4-8.6-12.8-12.5-19.3c4.4-2.9,8.2-5.4,12.1-8c2.8,2.5,4.2,6,6.5,9c2.3,3,3.7,6.6,6.6,9
			c2.3-0.4,3.8-1.9,5.6-3.7c3.9,7.1,7.6,13.8,11.4,20.7c-4.1,3.4-8.8,4.9-12.8,8.4c-4.1-6.5-7.4-13.1-11.4-19.5
			C727.3,195.3,725.7,196.9,723.9,198.3z"/>
		<path d="M729.6,163.6c4.9-1.9,7.8-6.4,12.3-7.8c2,1,2.5,3.2,5,3.2c-0.3,2.1,0.7,3.9,1.2,5.8c-0.6,1.7-2.3,2.4-3.2,3.9
			c0.7,2.7-1.7,3-3.5,4.1c-0.6,0.1-1-1.1-2.1-0.9c-1.1,0.1-1.4,1.4-3,1C734.3,170,732,166.9,729.6,163.6z"/>
	</g>
</g>
</svg>
