<?xml version="1.0" encoding="utf-8"?>
<!-- Generator: Adobe Illustrator 17.1.0, SVG Export Plug-In . SVG Version: 6.00 Build 0)  -->
<!DOCTYPE svg PUBLIC "-//W3C//DTD SVG 1.1//EN" "http://www.w3.org/Graphics/SVG/1.1/DTD/svg11.dtd">
<svg version="1.1" id="Layer_1" xmlns="http://www.w3.org/2000/svg" xmlns:xlink="http://www.w3.org/1999/xlink" x="0px" y="0px"
	 viewBox="0 0 1440 937" enable-background="new 0 0 1440 937" xml:space="preserve">
<g>
	<g>
		<path d="M558.5,343c-2.9-2.4-1.7-6.3-3.6-9.1c1.8-3.1,5.1-4,8.1-5.2c4.7-2,9.3-4.2,13.7-6.6c6.8-3.6,14.2-6,20.8-10
			c0.4-0.2,1,0,1.8,0c4,3,5.8,8,9.1,12c5.5-0.7,10.9,1.7,16.5,1c0.6-0.1,1.3,0,2.1,0c0-1.7-0.4-3.4,0.1-4.6c0.6-1.5-0.5-3.1,0.2-4
			c1.1-1.4,0.5-2.9,0.6-4.3c0.2-1.5,0-3,0-4.5c3.1-2.2,6.9-2.7,9.9-4.6c0.8-0.1,0.9,0.3,1.1,0.8c0.9,2.3,3.5,3.9,3,6.8
			c-0.4,2.4,0.9,4.9-1,7.1c-0.2,0.3-0.1,1,0,1.5c0.5,6.9-1.9,13.6-0.9,20.3c-0.7,0.7-1.2,1.1-1.7,1.6c-6.3-1.8-13-0.8-19.6-3
			c-3.2,3.2-6.8-2-10.4,0.4c-2.1-4.4-4-8.5-6-12.7c-2.3,1.1-4.5,2.2-6.7,3.4c-0.4-0.4-0.8-0.7-1.2-1c-0.1,0-0.3,0-0.3,0.1
			c-1.2,4.9-6.5,3.6-9.5,6.1c-2.7,2.3-6.6,3.7-10.1,4.3c-4.5,0.8-8.4,3.5-13.1,3.4c-0.4,0-0.7,0.8-1.1,0.9
			C560.1,343.1,559.5,343,558.5,343z"/>
		<path d="M488,362c10-5,19.8-9.9,30-15c4.6,9.8,6.7,20.6,11,30.7c0.3,0.6,0.4,1.6-0.5,2.4c-2.2-1.5-4.9-1.3-7.4-1
			c-2.7,0.3-5-0.8-7.6-1.1c-2.4-0.3-4.7,0.3-7.2-0.8c-2.3-0.9-5.2-0.2-8.2-0.2c0,2,0,3.9,0,5.9c-3.5,0-6.6,0-9.7,0
			c-0.3-0.3-0.7-0.7-1.4-1.4c0.5-2.9-0.3-6.1,0.9-9.6C488.7,369,488,365.6,488,362z"/>
	</g>
</g>
</svg>
