<?xml version="1.0" encoding="utf-8"?>
<!-- Generator: Adobe Illustrator 17.1.0, SVG Export Plug-In . SVG Version: 6.00 Build 0)  -->
<!DOCTYPE svg PUBLIC "-//W3C//DTD SVG 1.1//EN" "http://www.w3.org/Graphics/SVG/1.1/DTD/svg11.dtd">
<svg version="1.1" id="Layer_1" xmlns="http://www.w3.org/2000/svg" xmlns:xlink="http://www.w3.org/1999/xlink" x="0px" y="0px"
	 viewBox="0 0 1440 937" enable-background="new 0 0 1440 937" xml:space="preserve">
<g>
	<g>
		<path d="M600.3,394.2c-3.3-2-6.8-0.4-9.8-1.3c-3.2-1-6.4-0.7-9.6-0.9c-3.2-0.2-6.2-1.7-9.4-0.9c-1.5-2.5-1.6-5.3-2.4-7.7
			c-0.9-2.5-1.5-5.1-2.2-7.6c4.2-1.9,8.3-3.6,12.3-5.4c6.1-2.7,12.3-4.9,18.2-8c1.7-0.9,4.2-0.1,6.7-0.1c-0.6,3.6,0.9,7.3-1.1,10.9
			c-0.1,0.1,0,0.3,0,0.5c0.5,6.4-1.9,12.6-0.9,18.8C601.4,393.1,601,393.5,600.3,394.2z"/>
	</g>
</g>
</svg>
