<?xml version="1.0" encoding="utf-8"?>
<!-- Generator: Adobe Illustrator 17.1.0, SVG Export Plug-In . SVG Version: 6.00 Build 0)  -->
<!DOCTYPE svg PUBLIC "-//W3C//DTD SVG 1.1//EN" "http://www.w3.org/Graphics/SVG/1.1/DTD/svg11.dtd">
<svg version="1.1" id="Layer_1" xmlns="http://www.w3.org/2000/svg" xmlns:xlink="http://www.w3.org/1999/xlink" x="0px" y="0px"
	 viewBox="0 0 1440 937" enable-background="new 0 0 1440 937" xml:space="preserve">
<g>
	<g>
		<path d="M721.6,406c-0.6-0.4-0.8-1.1-1.6-1c-1.3,0.1-2.7,0.2-4,0c-2.4-0.3-4.8,0.8-7.2-0.7c-1.9-1.2-4.6,0.6-6.5-1.3
			c-0.3-0.2-1-0.1-1.5,0c-6.2,0.7-12.3-1.4-18.3-1c-0.5-0.5-0.9-0.9-1.2-1.2c1.4-3.9-0.5-8.3,1-11.8c1.6-3.9-1.1-8.2,2.7-11.9
			c1.5,0.2,3.7-0.9,5.8,0.9c0.2,0.2,0.6,0.1,1,0c5.9-0.7,11.6,1.5,17.5,1c2.6-0.2,4.9,1.7,7.6,1c2.5-0.7,4.6,1.1,7.3,1.1
			c-0.4,4.3-0.2,8.4-0.9,12.6C722.6,397.7,722.3,401.9,721.6,406z"/>
	</g>
</g>
</svg>
