<?xml version="1.0" encoding="utf-8"?>
<!-- Generator: Adobe Illustrator 17.1.0, SVG Export Plug-In . SVG Version: 6.00 Build 0)  -->
<!DOCTYPE svg PUBLIC "-//W3C//DTD SVG 1.1//EN" "http://www.w3.org/Graphics/SVG/1.1/DTD/svg11.dtd">
<svg version="1.1" id="Layer_1" xmlns="http://www.w3.org/2000/svg" xmlns:xlink="http://www.w3.org/1999/xlink" x="0px" y="0px"
	 viewBox="0 0 1440 937" enable-background="new 0 0 1440 937" xml:space="preserve">
<g>
	<g>
		<path d="M551.5,383.2c-0.6-1.4-1.2-2.6-1.8-3.9c-2.7-1.1-4.6,1.4-8,0.8c-2.9-4.1-3.2-10.6-6.4-16c-0.1,0-0.6-0.1-1.1-0.2
			c0-1.4-0.8-2.9,0.6-4c-1.2-4-2.4-7.9-3.6-12.3c0.3-2.2,3.1-1.3,4.6-2.3c1.3-0.9,1.7-2.9,4.3-2.6c2.1,1.9,4.7-0.4,7.7-0.6
			c1.4,5.5,2.7,11.1,4.4,16.5c1.4,4.2,2.1,8.9,5.9,12c0.2,1.5-0.5,3.3,1.4,4.4c-1.9,1.7-1.1,3.8-1.3,5.8
			C555.9,381.5,553.7,382.3,551.5,383.2z"/>
	</g>
</g>
</svg>
