<?xml version="1.0" encoding="utf-8"?>
<!-- Generator: Adobe Illustrator 17.1.0, SVG Export Plug-In . SVG Version: 6.00 Build 0)  -->
<!DOCTYPE svg PUBLIC "-//W3C//DTD SVG 1.1//EN" "http://www.w3.org/Graphics/SVG/1.1/DTD/svg11.dtd">
<svg version="1.1" id="Layer_1" xmlns="http://www.w3.org/2000/svg" xmlns:xlink="http://www.w3.org/1999/xlink" x="0px" y="0px"
	 viewBox="0 0 1440 937" enable-background="new 0 0 1440 937" xml:space="preserve">
<g>
	<g>
		<path d="M681.5,401c-2.3,0-4.7-0.3-7,0.1c-2.2,0.3-3.9-1.2-6.1-1.2c-2,0-4.1,0.7-6.2-0.8c-0.9-0.6-3,0.6-4.2,0.3
			c-1.5-0.5-2.9-0.5-4.3-0.3c-5.3,0.5-10.3-1.7-15.6-1c-4.4-2.5-9.6-1.3-14.3-2.9c-1.6-0.6-3.7-0.3-5.5,0c-3.8,0.5-7.3-1.3-11-1.2
			c-0.3,0-0.7-0.7-1.2-1.1c-0.5-0.9,0.9-1.2,0.9-2.3c-0.1-3.7-0.8-7.5,0.9-11.1c-0.7-5.4,2-10.6,0.6-16.6c3.3,0.7,6.2-1,8.9,1.2
			c0.2,0.2,0.7,0.1,1,0c6.1-0.7,12,1.3,18,1.1c0.5,0.5,0.9,0.9,1.4,1.4c-0.3,0.4-0.6,0.7-0.9,1.1c0.5,0.5,0.9,0.9,1.5,1.5
			c2.2-0.1,4.4,0.4,6.5-0.9c0.9-0.5,2.4,0.4,3.6,0.7c2.3,0.6,4.7,0.8,7,1c2.3,0.2,4.2,1.5,6.6,1.3c2-0.2,4.2-0.4,6.1,0.9
			c0.1,0.1,0.3,0,0.5,0c5.1-0.5,10,0.9,15.3,1.2c-0.5,2.8,0.8,5.7-1.1,8.4c-0.2,0.2,0,0.7,0,1c0.5,5.6-1.8,11-1,16.6
			C682.1,399.8,682.2,400.5,681.5,401z"/>
	</g>
</g>
</svg>
