<?xml version="1.0" encoding="utf-8"?>
<!-- Generator: Adobe Illustrator 17.1.0, SVG Export Plug-In . SVG Version: 6.00 Build 0)  -->
<!DOCTYPE svg PUBLIC "-//W3C//DTD SVG 1.1//EN" "http://www.w3.org/Graphics/SVG/1.1/DTD/svg11.dtd">
<svg version="1.1" id="Layer_1" xmlns="http://www.w3.org/2000/svg" xmlns:xlink="http://www.w3.org/1999/xlink" x="0px" y="0px"
	 viewBox="0 0 1440 937" enable-background="new 0 0 1440 937" xml:space="preserve">
<g>
	<g>
		<path d="M650.9,340c0-1.9,0-3.3,0-5.1c-3.1,0.7-5.7-1-8.6-1c-1.4-2.6,0.8-4.9,0.7-7.8c2.1,0,4.3-0.5,6.3,0.1
			c1.9,0.6,3.5-0.1,5.2-0.2c2.1,0,4.1,0.3,6.1,1c1.6,0.5,3.2-0.7,5.2-0.1c1.9,0.7,4.5-0.4,6.4,0.3c1.9,0.8,4,0.2,5.6,1
			c2,0.9,4,0.7,6.4,1c-0.7,4.2-1.6,8.3-1,12.2c-1.7,2.6-4.4,2.1-6,1.5c-3.1-1.2-6.1-0.5-9.1-0.8c-2.2-0.3-4.4,0.5-6.6-0.9
			c-1.6-1-4.1,0.5-6.1-1C654.4,339.5,652.7,340,650.9,340z"/>
	</g>
</g>
</svg>
