<?xml version="1.0" encoding="utf-8"?>
<!-- Generator: Adobe Illustrator 17.1.0, SVG Export Plug-In . SVG Version: 6.00 Build 0)  -->
<!DOCTYPE svg PUBLIC "-//W3C//DTD SVG 1.1//EN" "http://www.w3.org/Graphics/SVG/1.1/DTD/svg11.dtd">
<svg version="1.1" id="Layer_1" xmlns="http://www.w3.org/2000/svg" xmlns:xlink="http://www.w3.org/1999/xlink" x="0px" y="0px"
	 viewBox="0 0 1440 937" enable-background="new 0 0 1440 937" xml:space="preserve">
<g>
	<g>
		<path d="M627.4,358c-0.7,0.7-1,1.1-2,0.9c-0.6-0.7-2.4-1.8-2.2-2.5c0.7-2.6-3.6-3.4-1.9-6.2c0.7-0.6,1.6,0,2.4-0.3
			c1-1.1-0.1-2.6,0.7-3.7c1.8-0.7,3.4-0.1,4.7,0.8c1.1-0.2,1.4-1.4,2.4-1c1.5,0.8,1.8,2.1,1.6,3.7c-0.2,1.6,1.8,1.8,2,2.9
			c0.3,2.5-0.9,3.5-3.2,3.6c0.5,0.5,0.8,0.8,1,1C630.8,359.4,630.5,359.5,627.4,358z"/>
	</g>
</g>
</svg>
