<?xml version="1.0" encoding="utf-8"?>
<!-- Generator: Adobe Illustrator 17.1.0, SVG Export Plug-In . SVG Version: 6.00 Build 0)  -->
<!DOCTYPE svg PUBLIC "-//W3C//DTD SVG 1.1//EN" "http://www.w3.org/Graphics/SVG/1.1/DTD/svg11.dtd">
<svg version="1.1" id="Layer_1" xmlns="http://www.w3.org/2000/svg" xmlns:xlink="http://www.w3.org/1999/xlink" x="0px" y="0px"
	 viewBox="0 0 1440 937" enable-background="new 0 0 1440 937" xml:space="preserve">
<g>
	<g>
		<path d="M376.8,664.7c2.3-2.5,5.5-2.8,7.8-4.8c-0.5-2.7-2.7-4.8-2.8-7.6c-2.2-1.1-4,0.2-5.7,1.1c-2.4,1.3-4.8,2.1-7.6,2.7
			c-2.8-3.2-3.1-7.4-5.3-11.1c-2.2-0.8-3.7,2.2-5.9,2c-2.3-0.4-2.3-2.2-2.5-3.7c-2-1.1-3.8,0-5.4,0.8c-3.3,1.8-6.7,3.1-10.2,4.1
			c-0.9,2.6,1.6,4,1.9,6.5c-5.7,2.2-11.4,4.4-17,6.5c-3-2-3-5-4-7.6c-2.4-6.3-4.5-12.8-7.1-19.1c-3.1-7.7-6.1-15.5-9-23.3
			c-0.8-2.3-1.8-4.6-2.8-7c0.5-0.5,1.2-1.2,1.8-1.9c0.2-1.4-1.6-2-1.4-3.4c-0.7,0-1.3,0-2.2,0c-4.9-12.7-9.7-25.5-14.6-38.2
			c3.7-2.5,7.8-3.9,11.6-5.3c3.8-1.4,7.2-3.5,11.1-4.7c3.6-1.1,6.9-3.3,10.5-4.7c5-2,9.7-4.6,14.8-6.4c1.1-0.4,2.6-0.4,3.1-2.4
			c3.5,3.9,4.1,8.3,6.2,12.1c2,3.8,4,7.7,5.4,11.7c1.4,4.1,4,7.7,4.7,11.9c-0.7,1.9-2.1,2.5-4.4,1.8c1.4,5.8,4.7,9.8,7.6,14.3
			c2.8-1.9,5.9-2.8,8.8-4c2,1.8,5,7.9,6,12.2c-2,2-5.2,2-7,4.4c0.4,2.8,3.1,4.7,3,7.8c2.8,1.6,2.7,4.8,4,7.3c1.3,2.5,2.5,5,3.5,7.5
			c3.3,7.8,6.6,15.6,10.3,23.2c0,4.5,3.2,7.7,4.5,11.6c2.2-1.2,4.3-2.6,6.7-3c2.6,2.5,5,7.5,6,12.4c-1,0.7-2.4,0.9-3,2.2
			c0,1,0,2,0,3c-3,1.5-6,3.1-9.4,3.5c-1-0.5-0.2-1.8-1.6-2.1c-1,1.2-3,0.7-4.4,1.9C380,673.1,379,668.6,376.8,664.7z M359.4,602.9
			c-3,0.1-5.2,2.6-8.6,2.7c-1.6-3.8-3.4-7.9-5.1-11.8c0.6-0.6,0.9-0.8,1-1c0.4-1.2,2-0.3,2.5-2c-1.7-4-3.6-8.4-5.5-12.7
			c-3.3-0.5-5.3,2.6-8.1,3c-2.7-2.2-2.3-5.6-4.3-8.4c-6.1,2.6-12.2,5.2-18.4,7.9c1.5,3.8,2.8,7.2,4.2,10.8c-0.7,0.8-1.4,1.6-2.2,2.4
			c0.5,1.1,1,2.1,1.4,3.2c1.5,0,3.5,0.3,3.5,1.8c0.1,2.4,1.6,4.1,2.3,6.1c2,6.1,4.7,12,6.8,18.1c1.9,5.5,4.6,10.8,6,16.5
			c1.7,1.1,0.2,4.1,3.1,4.7c4.2-2.5,8.6-5.1,12-7.2c2.1-2.2-0.4-2.8,0-4.4c1.3-2.2,4.3-1.4,6.1-3.2c-1.7-4-3.3-8-5.1-12.3
			c4.2-1.9,8.1-3.6,12.2-5.4C362.1,608.6,361,605.7,359.4,602.9z"/>
		<path d="M393.7,712.2c-3.4-6.4-6.1-12.9-8.8-19.6c2.6-1.3,5.2-2.6,7.9-4c-0.5-0.9-0.6-2.2-1.8-3.1c2.8-2.3,6.6-2.5,9.5-4.8
			c3.7,8,7.3,15.7,9.9,23.7C404.8,707.6,399,709.3,393.7,712.2z"/>
		<path d="M359.2,715.6c-7,2.6-13.8,5.1-20.8,7.8c-1.5-4.4-3.8-8.3-4.6-13c6.6-3.6,13.9-5.2,20.8-8.6
			C355.5,706.7,358.3,710.7,359.2,715.6z"/>
		<path d="M257.6,514.5c-3-4.6-3.3-10-5.7-14.5c0.6-2,2.5-2.7,4-2.9c2.8-0.2,3.1-1.8,3.3-4c3.3-1.1,6.7-2.3,10.3-3.5
			c0.9,3.5,1.9,6.7,3.7,9.6c-1.7,1-3,2.1-5,1.9c-0.9,2.8,0.7,5.1,1.7,7.6C266.5,511.8,261.4,511.3,257.6,514.5z"/>
		<path d="M278.1,496.1c3.5-2.5,6.6-3.4,9.8-4.4c0.1-1.1,0.1-2.2,0.2-3.5c2.6-0.5,4.7-2.5,7.5-2.2c1.5,4.1,3,8.2,4.5,12.4
			c-2.6,2.9-6.8,2.7-10,5.1c0,0.9-0.1,2-0.2,3.1c-1.7,1.3-3.8,1.3-5.8,2.2C281.2,505.3,281.7,500,278.1,496.1z"/>
		<path d="M362.1,556.2c-1.2-3-3.5-5.3-3.1-8.9c3.7-0.6,5.9-5.1,10.3-4.3c0.8,0.3,0.5,1.1,0.7,1.6c0.8,0.7,1.6,0.2,2.7,0.5
			c-0.1,2.3,1.6,4.1,2.5,6.7c1.5,0.4,4.1,0.2,3.7,3.5c-1.3,3.1-4.7,3.2-7.3,4.6c-2.6,1.4-5.4,2.2-8.4,3c-0.4-0.3-0.8-1.2-1.7-0.7
			c-0.5-1.1-1-2-1.5-3C360.1,557.8,361.5,557.4,362.1,556.2z"/>
		<path d="M284.4,528.8c2.2,3.5,2.2,7.6,4.9,11.1c-5.9,2.2-11.6,4.3-17.6,6.4c-2-3.5-1.8-7.5-4.2-10.5
			C273.2,532.7,279.1,531.4,284.4,528.8z"/>
		<path d="M390.1,710c-3.5,0.7-5.9,3.4-9.7,3c-1.4-5.6-4.4-10.6-6.5-15.6c0.5-1.4,1.1-2.1,2.1-2.3c0.8-0.1,1,0.7,1.6,1
			c1.2-1.4,2.9-1.7,4.9-2.4C385.9,698.6,387,704.5,390.1,710z"/>
	</g>
</g>
</svg>
