<?xml version="1.0" encoding="utf-8"?>
<!-- Generator: Adobe Illustrator 17.1.0, SVG Export Plug-In . SVG Version: 6.00 Build 0)  -->
<!DOCTYPE svg PUBLIC "-//W3C//DTD SVG 1.1//EN" "http://www.w3.org/Graphics/SVG/1.1/DTD/svg11.dtd">
<svg version="1.1" id="Layer_1" xmlns="http://www.w3.org/2000/svg" xmlns:xlink="http://www.w3.org/1999/xlink" x="0px" y="0px"
	 viewBox="0 0 1440 937" enable-background="new 0 0 1440 937" xml:space="preserve">
<g>
	<g>
		<path d="M410.7,774.2c-2.7-0.3-3-2.6-3.7-4.4c-2-4.8-3.8-9.7-5.7-14.6c1.6-1.8,4.4-1.8,6.2-3.6c1.4-2.6-0.2-5.3-0.6-7.9
			c0.4-0.7,1-0.6,1.4-0.6c1-2.8,1-2.8,4.5-4.4c4.8-2.2,9.6-4.3,14.2-6.7c2.4-1.2,4.8-2,7.3-3c1.9,3,3,6.4,4.8,8.8
			c1.8,0.7,1.9-1.4,3.6-0.3c2.2,4.9,4.8,10.3,7.2,15.8c0.3,0.7,0,1.6,0,2.3c-1,0.9-1.5,2.1-2.9,1.5c2,4.8,4,9.3,5.9,13.8
			c0.4,1,0.9,2,1.3,3c0.9,2.2,2.1,4.3,1.6,6.8c-0.5,2.4,1.3,4.2,1.1,6.6c-0.1,2.2-0.9,4.6,0.9,6.6c-0.8,5,1.6,9.9,0.9,14.8
			c-0.5,0.5-0.9,0.9-1.1,1.1c-10.2,1-20.2,2-30.9,3C420.8,800.7,416.6,787.3,410.7,774.2z"/>
	</g>
</g>
</svg>
