<?xml version="1.0" encoding="utf-8"?>
<!-- Generator: Adobe Illustrator 17.1.0, SVG Export Plug-In . SVG Version: 6.00 Build 0)  -->
<!DOCTYPE svg PUBLIC "-//W3C//DTD SVG 1.1//EN" "http://www.w3.org/Graphics/SVG/1.1/DTD/svg11.dtd">
<svg version="1.1" id="Layer_1" xmlns="http://www.w3.org/2000/svg" xmlns:xlink="http://www.w3.org/1999/xlink" x="0px" y="0px"
	 viewBox="0 0 1440 937" enable-background="new 0 0 1440 937" xml:space="preserve">
<g>
	<g>
		<path d="M475.9,813.6c0.6-0.6,1.1-1.1,1.5-1.5c5,0.2,9.9-2.2,15.3-0.6c0.4,1.5,1,3.4,1.6,5.5c0.7,0.1,1.5,0.1,2.3,0.3
			c0.4,0.1,0.7,0.7,1.2,1.2c0,1.9,0,4,0,6.4c-0.5,0.8-1.7-0.2-2.7,0.6c0,2.3,0,4.8,0,7c-1.8,2.8-5.2,1-7,3.1c-0.5,2.8,0,5.4,1.2,7.7
			c-3.6,3.5-8.2,0.8-11.9,2.7c-1.1-0.4-1.5-1.5-1.4-2.9c0.1-1.8,0-3.6-0.1-5.4c0-0.3-0.5-0.7-0.8-1c1.5-0.4,2.4-1.7,3.5-1.5
			C477.3,827.6,477.5,820.4,475.9,813.6z"/>
		<path d="M402.9,853.2c-1.4-1.6-2.9-1.1-4.4-1.2c-1.2,1.3,0.6,3.8-2.3,4.9c-2.6,0.5-5.7,0-8.8-1.1c-1.6-2.8,1.2-5.4,0.7-8.3
			c-1.5-0.8-2.9-1.8-4.8-1.7c-1.2-3.9,1.6-7.5,0.6-11.7c5.7-0.7,10.8,1.2,16,1.9c0.1,1,0.2,1.8,0.3,2.6c2,0.6,3.9,1.2,5.4,1.6
			C404.6,844.4,404.8,848.7,402.9,853.2z"/>
		<path d="M367.6,801.4c-1.6-5.9-4.2-11.8-6.8-17.8c4.7-2.8,9.8-3.9,14.6-6.1c2.6,6.4,5,12.4,7.6,18.8c-1.5,2.3-4.7,2.5-7,3.4
			C373.6,800.6,371.5,803.2,367.6,801.4z"/>
	</g>
</g>
</svg>
