<?xml version="1.0" encoding="utf-8"?>
<!-- Generator: Adobe Illustrator 17.1.0, SVG Export Plug-In . SVG Version: 6.00 Build 0)  -->
<!DOCTYPE svg PUBLIC "-//W3C//DTD SVG 1.1//EN" "http://www.w3.org/Graphics/SVG/1.1/DTD/svg11.dtd">
<svg version="1.1" id="Layer_1" xmlns="http://www.w3.org/2000/svg" xmlns:xlink="http://www.w3.org/1999/xlink" x="0px" y="0px"
	 viewBox="0 0 1440 937" enable-background="new 0 0 1440 937" xml:space="preserve">
<g>
	<g>
		<path d="M506.6,465.9c-1.2,1.1-1.9,2.4-4,1.9c-0.8-2.1-4.7-1.3-4.7-4.9c-5.9,0-11.7,0-17.8,0c0-3.9-0.8-8,0.2-11.4
			c1-3.6-0.1-7.3,1.7-10.8c0.6-1.2,0.1-2.9,0.1-4.3c1.1-1,2.4-0.1,3.8-0.8c0.4-1.8-0.4-4.3,0.3-6.3c0.8-2.4,0.7-4.7,0.9-7.1
			c0.2-2.2-0.9-4.6,0.9-6.8c-0.9-1.1-3.2,0.3-3.6-1.6c-0.4-1.8-2-3.6-1.3-5.4c1.5-3.3,0.5-6.7,1-9.8c0.6-0.6,1-1.1,1.4-1.6
			c6,1.5,12.2,1,17.8,2.2c1.2-1,0.4-2,1.1-3.1c3.1,1.2,6.6,0.8,10.5,0.9c0.2,0.2,0.6,0.7,0.9,1.3c0.2,0.4,0.3,0.9,0.3,1.3
			c3.5,1.9,7.3,1.5,11,1.3c2.2-0.1,3.9,1.4,6.1,1.1c2-0.3,4-0.1,6,0c0.5,0,1,0.7,1.5,1c-1.3,3.3,0.2,7-0.9,10
			c-1.2,3.2,0,6.7-2.7,9.9c-4.8,0.7-10.2-2.2-16-0.6c0.7,2.1-1.1,3.9-1.1,6.2c0.1,2.3-0.1,4.7,0.1,7c0.2,2.1-1.4,3.8-1.1,6.1
			c0.2,2,0.9,4.3-0.9,6.1c-0.2,0.3-0.1,1,0,1.5c0.7,5.9-1.5,11.6-0.9,18c-2.1-0.3-4.1,0.5-5.9-0.5
			C509.7,465.8,508,468.4,506.6,465.9z"/>
	</g>
</g>
</svg>
