<?xml version="1.0" encoding="utf-8"?>
<!-- Generator: Adobe Illustrator 17.1.0, SVG Export Plug-In . SVG Version: 6.00 Build 0)  -->
<!DOCTYPE svg PUBLIC "-//W3C//DTD SVG 1.1//EN" "http://www.w3.org/Graphics/SVG/1.1/DTD/svg11.dtd">
<svg version="1.1" id="Layer_1" xmlns="http://www.w3.org/2000/svg" xmlns:xlink="http://www.w3.org/1999/xlink" x="0px" y="0px"
	 viewBox="0 0 1440 937" enable-background="new 0 0 1440 937" xml:space="preserve">
<g>
	<g>
		<path d="M480,461.3c1.2,1.9,2.5,1.9,3.9,1.6c0,1.5,0,2.6,0,3.7c-0.5,0.5-0.9,1-1.4,1.5c-1.4,0-2.4-1.7-4-1.1
			c-1.1-1.1,0.1-2.6-0.8-3.9c-6.3,0-12.8,0-19,0c-0.6-0.6-1.1-1.1-1.7-1.7c1-1.8,1.6-3.8,0.8-6.3c-2.9,0-6.2,0-9.5,0
			c0-3.1,0-5.9,0-8.7c0.4-0.4,0.9-0.9,1.5-1.5c2,1.6,4.5,1.1,6.8,1.2c0.6-0.6,1.2-1.2,1.9-1.9c1.3,0,2.8,0,4.2,0
			c0.7,0.7,0.2,1.6,0.4,2.6c1.3,0,2.5,0.9,4.1,0.8c1.4-0.1,2.8,0.7,4.4,0.5c1.5-0.2,3,0,4.5,0c1.6,0,3.2,0,4.7,0
			c0.9,1.7-2.2,3.1,0.2,4.5c-1.5,1.1-0.9,2.7-0.9,4.1C479.9,458.2,480,459.8,480,461.3z"/>
	</g>
</g>
</svg>
