<?xml version="1.0" encoding="utf-8"?>
<!-- Generator: Adobe Illustrator 17.1.0, SVG Export Plug-In . SVG Version: 6.00 Build 0)  -->
<!DOCTYPE svg PUBLIC "-//W3C//DTD SVG 1.1//EN" "http://www.w3.org/Graphics/SVG/1.1/DTD/svg11.dtd">
<svg version="1.1" id="Layer_1" xmlns="http://www.w3.org/2000/svg" xmlns:xlink="http://www.w3.org/1999/xlink" x="0px" y="0px"
	 viewBox="0 0 1440 937" enable-background="new 0 0 1440 937" xml:space="preserve">
<g>
	<g>
		<path d="M480.1,712.4c1.8-1.9,3.9-2.6,6.5-2.4c4.7,0.5,9.3-1.8,14-1c2.5-1.5,5.5-0.5,8-1.1c3.4-0.9,6.7-0.9,10.1-0.8
			c1.1,0,1.4-1.5,2.9-0.9c2.7,5.5,0.6,11.6,1.4,17.3c-0.8,0.8-1.4,1.4-2,2c0.3,1.4,2.8-0.3,2.5,2c0,5,3,9.8,2.2,15.6
			c-2.6-0.6-4.8,1.5-7.4,0.9c-2.5-0.6-4.6,1.2-7.1,1.1c-0.9,1.5,0.1,3.2-0.8,5c-2.8-0.4-5.5,0.2-8.6,1.4c-0.4,0.4,0.1,1.3,0,2
			c-2.9,0.4-2.9,0.4-4.5-2.5c-1.9-0.8-3.1,1.5-5.1,1c-1.6-0.4-3.3-0.1-5-0.1c-1.1-1.1,0-2.6-0.2-2.9c-1.1-1.9-2.4-1.9-3.3-2.6
			c0.2-4.9-1.8-9.6-1-14.5c-1.6-2-1-4.4-0.9-6.6c0.1-2-1.4-3.5-1.1-5.6c0.3-2,0.1-4,0-6C480.9,713.4,480.4,712.9,480.1,712.4z"/>
	</g>
</g>
</svg>
