<?xml version="1.0" encoding="utf-8"?>
<!-- Generator: Adobe Illustrator 17.1.0, SVG Export Plug-In . SVG Version: 6.00 Build 0)  -->
<!DOCTYPE svg PUBLIC "-//W3C//DTD SVG 1.1//EN" "http://www.w3.org/Graphics/SVG/1.1/DTD/svg11.dtd">
<svg version="1.1" id="Layer_1" xmlns="http://www.w3.org/2000/svg" xmlns:xlink="http://www.w3.org/1999/xlink" x="0px" y="0px"
	 viewBox="0 0 1440 937" enable-background="new 0 0 1440 937" xml:space="preserve">
<g>
	<g>
		<path d="M524.9,737.4c0.8-3.3-1.4-6.4-0.9-9.9c-0.8-0.8-2.2-0.7-2.8-1.9c0.1-0.9,1.2-1.3,1.8-2.3c0-2.2,0-4.7,0-6.8
			c0.9-1.3,1.9-1.7,3.1-1.6c4.3,0.6,8.4-0.9,12.6-1.2c4.9-0.4,9.7-1.4,14.7-2c3.2-0.4,6.6,0,9.5-1c3.3-1,6.7,0.1,9.6-1
			c3.9-1.5,8.1,0.4,11.7-1.8c0.1-0.1,0.3,0,0.5,0c5.6,0.7,11-1.6,16.6-1c2.4,0.3,4.5-1.4,7.1-1.1c2.2,0.3,4.5,0.5,6.6-0.8
			c0.8-0.5,2.3-0.1,3.7-0.1c1.8,6.1,1.4,12.5,2.5,19c-1.3,0-2.1,0-2.9,0c-2.6,0.1-5.1,0-7.6,0.9c-2.3,0.8-5,0.2-7.6,0.9
			c-3.3,0.9-6.9,0.2-10.4,0.2c-2.1,0-4,0.1-6.1,0.9c-5.2,2-10.6,2.4-16.1,2c-1,1.5,0,3.3-0.5,4.5c-3.2,2-6.4,1.6-9.6,1.6
			c-2.1,0-3.9,1.4-6.1,1.1c-2-0.2-4.2-0.6-6.1,0.9c-0.2,0.2-0.7,0.1-1,0c-5.4-0.7-10.7,1.7-16.1,1c-0.8-0.1-1.5,0-2.3,0.6
			C527.3,739.7,526.1,738.9,524.9,737.4z"/>
	</g>
</g>
</svg>
