<?xml version="1.0" encoding="utf-8"?>
<!-- Generator: Adobe Illustrator 17.1.0, SVG Export Plug-In . SVG Version: 6.00 Build 0)  -->
<!DOCTYPE svg PUBLIC "-//W3C//DTD SVG 1.1//EN" "http://www.w3.org/Graphics/SVG/1.1/DTD/svg11.dtd">
<svg version="1.1" id="Layer_1" xmlns="http://www.w3.org/2000/svg" xmlns:xlink="http://www.w3.org/1999/xlink" x="0px" y="0px"
	 viewBox="0 0 1440 937" enable-background="new 0 0 1440 937" xml:space="preserve">
<g>
	<g>
		<path d="M579.1,729.4c1.3-2.2,3.6-1.1,5.4-1.4c1.7-1.9,4.4-1.5,6.2-2.9c3.8,1.8,7.8,0.5,11.7,1.1c1.5,1.5,1.6,3.5,1.6,5.6
			c0,1.4-0.2,2.8,0.4,4.3c0.4,1,0.4,2.3,0.6,3.4c0.2,1.5,0.1,3,0,4.5c0,1.5,0,2.9,1,4.1c0.1,0.1,0,0.3,0,0.5c-0.6,5.1,1.6,10,1,15
			c-0.3,2.2,1.5,4.2,1.1,6.6c-0.3,2-0.3,4.1,0.9,6.1c0.4,0.6,0.1,1.6,0.1,2.6c-4.1,0.1-8,1-12,1.4c-3.9,0.4-7.7,0.8-11.6,0.7
			c-1.4-3.8-1.7-7.8-1.5-11.9c0.1-2.1-1.4-3.8-1.1-6.1c0.3-2,0.5-4.2-0.9-6.1c-0.2-0.2-0.1-0.7,0-1c0.7-5.1-0.9-10-1.2-15
			c-0.2-3.3-0.7-6.7-0.8-10.1C579.9,730.4,579.4,729.9,579.1,729.4z"/>
	</g>
</g>
</svg>
