<?xml version="1.0" encoding="utf-8"?>
<!-- Generator: Adobe Illustrator 17.1.0, SVG Export Plug-In . SVG Version: 6.00 Build 0)  -->
<!DOCTYPE svg PUBLIC "-//W3C//DTD SVG 1.1//EN" "http://www.w3.org/Graphics/SVG/1.1/DTD/svg11.dtd">
<svg version="1.1" id="Layer_1" xmlns="http://www.w3.org/2000/svg" xmlns:xlink="http://www.w3.org/1999/xlink" x="0px" y="0px"
	 viewBox="0 0 1440 937" enable-background="new 0 0 1440 937" xml:space="preserve">
<g>
	<g>
		<path d="M567.9,797.9c0.9-5.1-1.9-9.5-0.6-14.7c0.2-0.2,0.7-0.6,1.3-1.2c7.3,0.5,14.7-1.8,22.3-1c1.9,0.2,3.5-1.5,5.6-1.1
			c1.9,0.4,3.7-0.2,5.6-0.8c2-0.6,4.3-0.1,6.4-0.1c1.2,4.8,1.9,9.6,1.3,14.7c-3.8,0.3-7.6,1.9-11.7,1.2c-2.3-0.4-4.2,1.3-6.6,1.1
			c-2-0.2-4.3-1.1-6.1,0.9c-0.1,0.1-0.3,0-0.5,0C579.4,796.3,574,798.6,567.9,797.9z"/>
	</g>
</g>
</svg>
