<?xml version="1.0" encoding="utf-8"?>
<!-- Generator: Adobe Illustrator 17.1.0, SVG Export Plug-In . SVG Version: 6.00 Build 0)  -->
<!DOCTYPE svg PUBLIC "-//W3C//DTD SVG 1.1//EN" "http://www.w3.org/Graphics/SVG/1.1/DTD/svg11.dtd">
<svg version="1.1" id="Layer_1" xmlns="http://www.w3.org/2000/svg" xmlns:xlink="http://www.w3.org/1999/xlink" x="0px" y="0px"
	 viewBox="0 0 1440 937" enable-background="new 0 0 1440 937" xml:space="preserve">
<g>
	<g>
		<path d="M650,799.9c5.4,1,10.3-1.7,15.5-0.7c1.6,2.5,1.8,5.6,1.5,8.6c-0.3,2.4,1.3,4.2,1.2,6.6c-0.1,2-1,4.3,0.8,6.1
			c0.3,0.3,0.3,1,0.1,1.4c-1.9,4.1-1,8.1,0,12.2c0.1,0.5,0,1,0,1.5c-5.4,2-11,1.3-16.6,1.5c-0.6-1.2-1.1-2.5-1.7-3.8
			c-0.5-0.2-1.1-0.4-1.7-0.6c0-1.1,0-2.1,0-3.2c1.5-1.2,2.5-3.3,4.8-3.8c0-1.1-0.9-0.6-1.4-0.8c-1.3-1.8,0.3-4.1-1-6.1
			c-1.2-1.9-0.6-4.2-0.4-6.3c0.2-2.1-1.2-3.6-1.1-5.6C650.1,804.8,650,802.7,650,799.9z"/>
	</g>
</g>
</svg>
