<?xml version="1.0" encoding="utf-8"?>
<!-- Generator: Adobe Illustrator 17.1.0, SVG Export Plug-In . SVG Version: 6.00 Build 0)  -->
<!DOCTYPE svg PUBLIC "-//W3C//DTD SVG 1.1//EN" "http://www.w3.org/Graphics/SVG/1.1/DTD/svg11.dtd">
<svg version="1.1" id="Layer_1" xmlns="http://www.w3.org/2000/svg" xmlns:xlink="http://www.w3.org/1999/xlink" x="0px" y="0px"
	 viewBox="0 0 1440 937" enable-background="new 0 0 1440 937" xml:space="preserve">
<g>
	<g>
		<path d="M614.5,828c0.5,1.5,1.6,2.6,1.6,4.3c0,3-0.4,6.1,0.8,9.1c0.5,1.3,0.7,3.3-1.6,4.6c-4.7-0.8-9.5,1.7-14.6,1
			c-3.1,1.4-6.6,0.3-9.5,1.2c-3.3,1-6.5,0.2-9.6,0.9c-2.4,0.6-4.7,1.1-7.3,0.7c-2-5.3-1-11.1-2.5-16.6c4.6-0.3,8.7-1.9,12.9-1.2
			c2.5-1.5,5.3-1,8.1-1c2.1,0,3.9-1.4,6.1-1.1c2,0.2,4,0,6.1-0.8c2-0.8,4.6-0.2,6.9-0.2C612.9,829,613.9,829,614.5,828z"/>
	</g>
</g>
</svg>
