<?xml version="1.0" encoding="utf-8"?>
<!-- Generator: Adobe Illustrator 17.1.0, SVG Export Plug-In . SVG Version: 6.00 Build 0)  -->
<!DOCTYPE svg PUBLIC "-//W3C//DTD SVG 1.1//EN" "http://www.w3.org/Graphics/SVG/1.1/DTD/svg11.dtd">
<svg version="1.1" id="Layer_1" xmlns="http://www.w3.org/2000/svg" xmlns:xlink="http://www.w3.org/1999/xlink" x="0px" y="0px"
	 viewBox="0 0 1440 937" enable-background="new 0 0 1440 937" xml:space="preserve">
<g>
	<g>
		<path d="M525,832.7c5.5,1.2,10.2-1.1,15-0.7c2.7-1.9,5.7-0.6,8.1-1c2.9,2.9,5.9,5.3,8.5,8.1c2.5,2.7,6.3,4,8.6,7
			c-0.9,1.4-2,0.9-2.9,0.8c-5.1-0.3-9.9,1.8-15,1c-2.5,1.5-5.4,0.5-8,1.1c-3.5,0.9-7,0.8-10.6,0.9c-0.4,0-0.8,0.5-1.3,1
			c-2.3-2.3-1.7-5.5-2.3-8.3C524.5,839.7,525,836.5,525,832.7z"/>
		<path d="M565.7,846c-4.4-3.2-16.1-11.8-17.7-15.6c0-2.4,0.8-5.4-0.2-7.6c-1.6-3.9,0-7.9-1.6-11.8c-1-2.4-0.2-5.6-0.2-8.4
			c1.9-1.3,4.1-1.5,6.4-1.6c3-0.1,6.2,1.1,9.1-1.4c0.8,4.5,2.1,8.6,1.4,12.8c-0.4,2.4,1.2,4.3,1.2,6.6c0,2.2-1.1,4.6,0.9,6.6
			c0.2,0.2,0,0.6,0,1C564.6,832.9,567,839.1,565.7,846z"/>
	</g>
</g>
</svg>
