<?xml version="1.0" encoding="utf-8"?>
<!-- Generator: Adobe Illustrator 17.1.0, SVG Export Plug-In . SVG Version: 6.00 Build 0)  -->
<!DOCTYPE svg PUBLIC "-//W3C//DTD SVG 1.1//EN" "http://www.w3.org/Graphics/SVG/1.1/DTD/svg11.dtd">
<svg version="1.1" id="Layer_1" xmlns="http://www.w3.org/2000/svg" xmlns:xlink="http://www.w3.org/1999/xlink" x="0px" y="0px"
	 viewBox="0 0 1440 937" enable-background="new 0 0 1440 937" xml:space="preserve">
<g>
	<g>
		<path d="M546,767.5c-0.6-0.6-0.9-0.9-1.3-1.3c-1.5-0.8-2.4,1.9-4.1,0.8c-2.3-0.7-1.3-2.9-1.8-4.9c-0.9,0.8-1.7,1.4-2.4,2
			c-1.3,0.2-2.3-0.1-3.1-1.2c1.1-1.2,0.2-3.4,2.7-4.9c0.2-0.1,1.4,0.3,2.5,0.2c1,0.7,0.1,1.9,0.7,2.7c2.7-1.5,5.6-0.3,7.9-0.8
			c2.4,1.2,1.7,3,1.9,4.6c3.9,1.9,7.5-1.7,11.5-0.2c2,4.4,1.3,9.4,1.4,14.4c-0.7,0.2-1.1,0.2-1.6,0.4c-0.1,0.3-0.4,0.5-0.4,0.8
			c0,2-0.6,4.2,0.1,5.9c1,2.4,0.7,4.8,0.9,7.1c0.1,1.6-0.4,3.1,0.9,4.7c0.9,1.1-0.2,2.5-1.4,3.3c-1.9,0-3.9-0.1-5.9,0
			c-1.7,0.1-3.5-0.6-5.2,0.9c-0.6,0.6-2.5,0.5-3.4,0c-2.5-1.5-5.1-0.5-7.6-1c-2.5-0.4-4.6,1.3-7.1,1.1c-2.3-0.2-4.9-0.8-7.1,0.9
			c-0.1,0.1-0.3,0-0.5,0c-4.4-0.8-8.7,1.3-13.1,1c-1.7-0.1-3.6-0.4-5.3,2c-0.2-5-2-8.7-1.2-12.8c-1.1-0.1-1.9-0.2-2.7-0.3
			c-0.8-0.7-0.1-1.6-0.4-2.2c0.4-0.9,1.2-0.6,1.9-0.9c0-1.7,0-3.5,0-5.2c1.1-0.6,2.2-1.6,3-1.5c5,0.5,9.7-1.6,14.7-1.1
			c0.8-1.2,0.4-2.4,0.3-3.7c-1.8-0.8-3.4-0.1-5.2,0.8c-0.4-0.4-0.9-0.8-1.7-1.5c0.5-5.6-2.1-11.2-0.7-17.3c1.6-0.9,3.8,0.6,5.4-0.6
			c1.7-1.3,3.5-0.3,5.2-0.7c1.8-0.4,4,0.9,5.6-1c0.5,0.5,1.4,1,1.3,1.4c-0.4,3.9,1.4,7.6,1.2,11.6c-0.1,3.2-1,6.3-1.4,9.5
			c2.5,0.3,2.5,0.3,4.3-1c-0.4-2.1,0.1-4.3-0.5-6.6c-0.5-1.9,1-3.9,1.8-5.8c2-0.8,3,0.7,4.1,1.9C542.4,768.8,544.6,769.8,546,767.5z
			"/>
	</g>
</g>
</svg>
