<?xml version="1.0" encoding="utf-8"?>
<!-- Generator: Adobe Illustrator 17.1.0, SVG Export Plug-In . SVG Version: 6.00 Build 0)  -->
<!DOCTYPE svg PUBLIC "-//W3C//DTD SVG 1.1//EN" "http://www.w3.org/Graphics/SVG/1.1/DTD/svg11.dtd">
<svg version="1.1" id="Layer_1" xmlns="http://www.w3.org/2000/svg" xmlns:xlink="http://www.w3.org/1999/xlink" x="0px" y="0px"
	 viewBox="0 0 1440 937" enable-background="new 0 0 1440 937" xml:space="preserve">
<g>
	<g>
		<path d="M762.1,805.8c3.4,2.9,6.8,4.8,11.3,4.1c1.9-1.4,4.5-1.8,6.2-3.9c1.7-2.1,0.9-4.9,2.4-7c-3.5-7.5-3.5-7.5-7.5-9.9
			c-2.2,0-4.5,0-7,0c-1.6,2-4.6,2.4-6.2,4.9c-0.2-6.6,3.3-11.9,4.8-17.9c3.9,0,7.3-1.4,10.7-2.2c7.2-1.8,14.2-4.1,20.7-7.8
			c7.1-4.1,14.3-8.3,20.1-14.3c1.5-1.5,3.6-2.1,5-3.8c1.3-1.7,3-2.9,4.9-3.9c2.5-1.3,5.1-2.3,7.9-3.3c0.7,1.5,1.4,2.8,2,4.2
			c2.7-1.5,5.1-3.5,8-4.7c2.7-0.7,5.7,0.5,8.4-1c0.1,0.3,0.3,0.8,0.2,0.9c-2.9,2-5.9,3.9-8.9,5.9c-0.2,0.2-0.6,0.2-0.9,0.3
			c-0.2,0.6-0.4,1.2-0.6,1.7c-0.8,0-1.4,0-2.2,0c-1.6,2.2-3.9,3.6-6.6,4.5c0.6,2.2,3.1,3.1,2.9,4.5c0.6,1.9-0.9,2-0.6,3.7
			c0.4,0.8,2.9,1.6,1.8,3.6c0.8,1.2,2.1,0.1,2.9,0.9c0.3,0.4,0.7,0.7,1.1,1.1c0.8,1.6-0.6,3.2-0.2,4.8c0.4,1.5,0.5,3.6,1.5,4.3
			c1.5,1,2.2,2.4,3,4.1c-1.5,2-1.1,4.4-1.2,7.2c1,0.8,2.2,1.7,3,2.3c0,1.9,0,3.3,0,4.7c-0.6,0.2-1.1,0.4-1.7,0.6
			c1.1,1.8,1.1,3.7-0.2,5.6c0.5,0.1,1,0.2,1.7,0.4c0,1.8,0,3.7,0,5.6c-0.5,0.1-0.9,0.2-1.5,0.3c-1.2,2,0.8,4.6-1.3,6.5
			c0.6,0.2,1.2,0.4,1.9,0.7c0,1.4,0,2.9,0,4.4c-0.6,0.7-1.5,0.2-2.3,0.4c-1.4,1.1,0.2,3-1.3,4.4c-1.2,1.1,0.6,2.6,0.8,4.1
			c-0.2,1.5-1,2.8-2,4c4.4,2.2,9.1,3.8,12.9,6.7c0,1.4,0,2.4,0,3.3c-1.8,1.3-3.8,1.7-6,1.4c-5.2-0.5-10.3,1.8-15.6,1
			c-2.7,1.5-6,0.2-8.5,1.2c-4,1.5-8.4-0.3-12.2,1.8c-5.3-0.7-10.4,0.8-15.6,1.1c-4.3,0.3-7.4-1.6-10.4-4c-4.5-3.6-8.8-7.4-12.7-11.6
			c-4.2-4.6-7.9-9.4-10.2-15.3C763.5,813.1,761.7,810.1,762.1,805.8z"/>
		<path d="M694,736.5c0-4.1,0.1-7.5,0-10.8c-0.1-2.5,0.7-5.2-0.9-7.6c-1-1.4,1-2.2,1-3.6c0-1.7-0.9-3.7,0.9-5.1
			c0.2-6.2,4.6-8.8,9.3-11.6c5.4-3.2,11.5-4.5,17.2-6.8c2.1-0.8,4.7-0.3,7.1-1c2-0.6,4.1-1.5,6.5-1.3c2,0.2,3.9-1.2,6.1-0.9
			c2.3,0.3,4.7,0.1,7.1,0.1c3.3,2.2,6.8,4.4,10,6.9c2,1.6,3.3,4,4.9,6c2.8,3.5,5.7,7.1,7.5,11.3c1.4,3.3,3,6.5,3.8,9.9
			c1.2,5.6,0.9,11-2.2,16.2c-1.9,3.2-4.8,5.2-7.5,7.2c-2,1.5-4.9,2.2-7.4,2.4c-6.3,0.6-12.3-0.6-17.9-3.7c-1.3-0.7-2.6-1.5-3.3-2.6
			c-2.6-4.3-5.1-8.6-8.2-12.6c-1.9-2.4-3.6-5-6.3-6.8c-0.8-0.6-1.6-0.9-2.5-1.2c-8.8-2.6-15.1-0.5-20.2,7.4c-1.3,2-3,3.7-3.1,6.3
			C695.9,735.1,695,735.5,694,736.5z"/>
		<path d="M676.6,762.8c1-3.1,3.7-3.2,5.2-4.7c0.4-0.4,1.4-0.8,1.9-1.4c2.5-3.4,5.6-6.4,7.5-10.3c2.8-5.5,5.9-10.8,8.8-16.3
			c1.3-2.6,3.5-4.6,6.1-6c1.1-0.6,2.2-1.2,3.6-2c1.5,0,3.5,0.1,5.5,0c2-0.1,3.7,0.6,5.2,2c3.7,3.6,7.3,7.2,9.5,12
			c1.2,2.5,2.9,4.8,4.6,7.1c2.6,3.6,6.7,4.6,10.6,5.7c1.4,0.4,2.9,1.2,4.5,1.2c2.7-0.1,5.4-0.3,8,0.1c1.5,0.2,2.6-0.6,3.5-1.2
			c1.4-0.9,2.7-0.8,4.2-0.9c3.5-3.6,8.8-5.5,9.9-11c0.6,0.1,0.9,0.1,1.3,0.1c0.1,0.3,0.3,0.5,0.4,0.8c0.1,1-1,1.4-1.1,2.6
			c-0.3,5.6-2.6,12.9-5.2,18.3c-2.4,4.8-4.6,9.7-6.9,14.8c-3.1,1.5-6.6,1.7-10.1,1.3c-3.3-0.4-6.3,1.5-9.6,1.1
			c-3.1-0.3-6.3-0.1-9.5-0.1c-2.1,0-4.1-0.1-6.1-0.9c-1.9-0.7-4.3,0.9-6.1-1.1c-0.2-0.2-0.6,0-1,0c-7.2,0.3-13.7-3.5-20.8-4
			c-4.8-2.6-10.2-3.4-15.3-5.2C682.6,763.8,680,763.1,676.6,762.8z"/>
		<path d="M837.9,705.4c-0.2,3.7,1.6,7.2,1.1,11c-0.6,4.8-2.1,9.3-4.4,13.7c-3.1,5.9-8.2,8.8-13.5,11.9c-2.2,1.3-4.8,1.6-7.2,1.9
			c-3.3,0.5-6.7,0.3-10,0.1c-3.9-0.3-7.3-2.5-10.7-4.3c-6-3.2-9.8-8.8-11.8-14.9c-1.7-5.3-2.3-11.1-0.7-17
			c1.9-6.8,5.5-12.1,10.6-16.6c3.2-2.8,7.2-4.5,11.3-5c1.9-0.3,3.6-1.2,5.5-1.3c2.8-0.1,5.3,1,8.1,1.3c2.7,0.3,5.7,1.4,8.2,2.9
			c3,1.7,5.5,4.1,7.6,6.8c1.9,2.4,3.3,5.3,4.7,8C837.2,704.4,837.5,705,837.9,705.4z"/>
		<path d="M713.6,691c-2.1,1.7-4,1.9-5.7,2.6c-6.3,2.3-10.5,7.1-14.3,12.3c-0.9,1.2,0.2,3.1-1.5,3.9c-1.3,5.3-1.4,10.8-0.1,17.7
			c-1.7,1,1.3,2.7-0.6,3.9c-0.8,0.5-0.4,1.9-0.3,2.8c0.5,4.3-0.6,8.4-2.2,12.1c-1.6,3.8-4.1,7.4-7.6,9.7c-1.5,1-2.5,2.4-4.1,3.2
			c-3.6,1.7-7,3.5-11.3,3c-3.1-0.4-6.3-0.1-9.5-0.1c-0.4-3.2-1.9-6.2-1.2-9.8c1.6-0.7,3.7,0.1,5.1-0.3c0.8-0.6,1.3-1,2-1.6
			c-1.6-2.9-0.7-6.1-1.4-9c-0.9-3.9-0.3-7.8-1-11.6c-0.6-3.1-0.2-6.2-1-9.1c-0.9-3.2-0.6-6.4-0.9-9.7c-2.3,0-4.4,0-6.4,0
			c-0.7-0.9-1.3-2-1.4-2.6c-0.3-3.6-0.1-7.3-0.1-11c0.5-0.7,1.2-0.5,1.8-0.5c2.9-0.1,5.7,0.1,8.6-0.9c2.7-0.9,5.8,0.8,8.5-1.1
			c0.2-0.2,0.7-0.1,1,0c5.4,0.7,10.7-1.2,16.1-1.1c2.2,0.1,4.2-1.2,6.6-1c2.2,0.2,4.5,0.4,6.6-0.9c0.2-0.2,0.7,0,1,0
			c3.2,0,6.5,0.3,9.6-0.9C710.6,690.7,711.7,691,713.6,691z"/>
		<path d="M733.5,805.9c-1.7,1.3-1.5,2.6-1.5,3.9c-0.1,6-2.7,10.9-6.6,15.2c-2,2.1-3.9,4.4-6.6,5.7c-1.3,0.6-6.5,3-8.2,3.2
			c-5.4,0.7-8.8-0.6-13.1-2.7c-7.6-3.7-10.4-10.5-13.2-17.5c-0.1-0.3-0.3-0.6-0.3-0.9c-0.1-2.1-0.1-4.1-0.8-6.1
			c-0.5-1.4-0.6-3.4,0.5-5.2c1.2-1.8-0.6-4.5,1.3-6.4c1.7-7.1,6.4-11.9,12.2-15.8c1.1-0.8,2.6-1.2,3.9-1.3c5.2-0.5,10.3,0.1,15.1,2
			c0.9,0.3,1.4,1.5,2.2,1.9c9.4,5,10.7,11.6,13.2,17.4c0.5,1.1,0.3,2.6,0.2,3.9C731.9,804.3,732.3,805,733.5,805.9z"/>
		<path d="M770,831.4c5.2,5.7,11.2,11.2,18.4,15.9c-1.8,0.7-3.1,1.4-4.5,1.6c-1.5,0.3-3,0.3-4.5,0c-2.7-0.6-5,1.2-7.6,1.1
			c-2.5-0.1-5.2-0.8-7.6,0.9c-0.2,0.2-0.7,0.1-1,0c-5.1-0.7-10,1.4-15.1,1.1c-2.2-0.1-4.2,1.2-6.6,1c-2.2-0.2-4.6-0.6-6.6,0.9
			c-0.2,0.2-0.7,0.1-1,0c-5.1-0.7-10,0.9-15.1,1.2c-3.5,0.2-7.2,0.1-10.5,1c-3.3,0.8-6.4,0.9-9.6,0.7c-2.1-0.1-3.5,1.4-5.6,1.2
			c-1.8-0.1-4-1-5.6,0.8c-0.1,0.1-0.3,0.1-0.5,0.1c-7-0.7-13.9,2-21.4,0.7c1.8-1.2,3.5-0.3,5.1-0.9c0.4-0.4,1-1,1.6-1.6
			c0.3-0.1,0.6-0.2,0.9-0.2c6.5,0.7,12.6-1.3,18.6-3.4c3.2-1.1,6.2-2.8,9.3-4.2c3.2-1.4,5.1-4.2,7.9-6.1c4.5-3.1,8.9-6.4,13.9-8.7
			c1.8-0.9,3.9-1.1,5.6-2.5c2-0.6,4.4,0.4,6.6-0.6c2-1,4.7,0.4,6.2-0.6c2.1-1.6,4.7,0.4,6.4-1.8c0.3-0.4,1.6,0.1,2.4-0.1
			c1.7-0.4,2.8,1.6,4.6,1.1c1.4-0.4,3.3-0.6,4.4,0C762.4,831.9,765.8,830.3,770,831.4z"/>
		<path d="M718,778.3c0-0.3,0.1-0.6,0.1-0.9c0.1-0.1,0.2-0.2,0.4-0.4c2.5,2.5,6.2-0.4,8.8,1.7c0.1,0.1,0.3,0.2,0.4,0.2
			c8.5,0,17,0,25.5,0c2.7-1.9,5.7-0.6,8.9-1.1c-1.4,3.7-2.8,7.1-3.8,10.5c-0.5,1.5-0.3,3.3-0.2,4.9c0.1,1.4-0.2,2.5-1.1,3.6
			c2.5,3.4,0.3,7.5,1.8,11.3c1.4,3.5,1.6,7.6,3.3,11.1c1.6,3.3,3.9,6.2,6.1,9.7c-2.9,0-5.3-1.2-7.9-1.1c-2.5,0.1-4.9-1.2-7.6-1
			c-2.6,0.3-5.3,0.1-8,0c-2.4-0.1-4.5,1.5-7.1,1.1c-2.6-0.4-4.7,1.7-7.2,1.9c-2.5,0.1-4.6,1.7-8,2.1c3.4-3.6,6.6-6.4,8.6-10.2
			c2-3.8,3.8-7.5,3.9-11.9c0.1-4.4,0.7-8.9-1-13.1c-1.6-3.9-3.4-7.7-6.3-10.9C725.2,783.4,721.7,780.3,718,778.3z"/>
		<path d="M674.1,803.4c-1.9,2.4-4.5,1.7-6.4,3.1c-1.7-3.5-1.9-6.6-1.7-9.9c0.2-3.1-1.9-5.9-0.9-8.9c-1-1.2-2.2-2.4-3.4-1.5
			c-1.7,1.3-3.4,0.7-5.1,0.9c-1.4,0.1-2.8-0.2-4.2,0.9c-0.9,0.7-2.7,0.3-3.5-1.3c0-1.5,0-2.9,0-4.5c-2.6,0-5.1,0-8,0
			c0.8-2.6-1-4.6-1-7.1c0-2.2,0.9-4.6-0.9-6.6c0.8-0.8,1.5-1.6,2.9-1.5c5.2,0.6,10.3-1.7,15.5-1c3.7-1.7,7.7-0.9,11.6-1
			c2-0.1,3.9,1.6,6.1,1c2.3-0.6,4.6,0.5,6.5,1.2c1.9,0.8,4,0.4,5.9,1.5c1.6,0.9,3.8,1.3,5.7,1.9c3.6,1.2,7.3,2.4,11.4,3.8
			c-2.7,1.3-5.4-0.3-7.4,1.6c-9,1.4-17.2,9.3-20.1,15.2c-1.3,2.6-1.8,5.6-3.7,8C672.1,800.7,673.6,801.9,674.1,803.4z"/>
		<path d="M780.4,728.2c1.1,1.4,2.1,2.2,2.4,3.2c1,3.7,3.9,5.5,6.7,7.7c2.3,1.8,4.6,3.5,7.1,4.8c2.3,1.2,5,1.6,7.6,2.1
			c1.3,0.3,2.7,0.3,4,0c1.2-0.3,1.8,1.4,2.9,0.6c1.2-0.9,2.6-0.5,3.8-0.4c2.1,0.1,3.8-2.3,6.1-0.5c-5.8,5.8-11.7,11.5-19.1,15.5
			c-2.4,1.3-4.9,2.6-7.3,4c-6.6,3.9-14.2,5.2-21.3,7.8c-1.5,0.5-3.3,0.1-4.7,0.1c-1.3-1.4,0.1-1.9,0.5-2.6c1.6-3.2,3.2-6.3,4.7-9.6
			c2.7-5.8,4.4-11.9,5.6-18.2C780,738,779.4,733.5,780.4,728.2z"/>
		<path d="M714.1,836.9c-5.6,4.3-10,8.4-15.1,11.3c-4.2,2.4-8.8,4.6-14,4.7c-2.1,0.1-3.8,1.6-6.1,1c-1.9-0.5-3.7,0.4-5.6,0.9
			c-0.6,0.2-1.3,0-2.4,0c0.6-2.7-1.4-4.9-1-7.5c0.4-2.8-0.7-5.4-1-8.1c-0.3-2.5-0.1-5-0.9-7.6c-0.8-2.6-0.2-5.6-0.2-8.4
			c0-2.7,0-5.3,0-8.2c1.8-0.1,3.4-0.6,4.1-1.2c1.9,0,2.2,1,2.9,1.4c0,1.3,0,2.6,0,3.9c1.1,1.6,2.4,3.2,3.6,4.5
			c2.3,2.4,3.9,5.2,6.7,7.3c4.2,3.1,8.7,4.7,13.6,5.9c2.3,0.6,4.8,1.8,7,0.9C708.3,836.9,710.6,837.2,714.1,836.9z"/>
		<path d="M812.9,682.7c0.3-1.1-0.3-1.7-1.2-2.2c4.8-0.9,9.2-1.8,13.8-1.5c2.4,0.2,4.6-1.4,7.1-1c2.2,0.3,4.4,0.1,6.6-0.8
			c1.6-0.6,3.6-0.1,5.3-0.1c1.5,1.9,1.5,4,1.5,6.1c-0.2,5.2,1.7,10.3,1,15.6c1.7,3.1,0.9,6.4,1,9.6c0.1,2.6,1.4,4.9,1.1,7.6
			c-0.3,2.3-0.8,4.9,0.9,7.1c0.2,0.2,0,0.7,0,1c0,1.8,0.3,3.7-0.1,5.5c-0.5,2,2.1,3.1,0.8,5.2c-4.4,1.6-9.2,1.6-13.9,1.3
			c-1,0.3-0.8,1.1-1,1.8c-1.2,0.4-2.4,0.3-4,0c5.5-6.2,8.9-13,9.2-21.2c0.3-8.5-1.8-16.1-7.5-22.4
			C829.1,689.3,829.6,688.4,812.9,682.7z"/>
		<path d="M755.3,687.8c5.8,0.8,10.4-1.4,15.4-0.9c2.2,0.2,4.2-1.3,6.6-1c2.2,0.2,4.6,0.7,6.6-0.9c5,0.7,9.9-1.6,15.3-0.9
			c-1.5,2.4-4,2.8-5.9,3.8c-5,2.6-8.8,6.2-11.2,11.4c-1.3,2.7-2.7,5.1-3.2,8.2c-0.5,3-0.6,6.1-0.8,9.2c-2.5-0.3-2.5-2.9-3.9-4.1
			c0.4-3.1-2.1-4.9-3.3-7.1c-2-3.7-4.8-7-7.3-10.5c-1.5-2-4.2-2.5-5.6-4.6C757.4,689.7,756.7,689.2,755.3,687.8z"/>
		<path d="M774.6,792.1c1.5,1.7,3.5,3,4.2,5.4c0.9,4.5-1.1,7.6-5.6,9.5c-2.7,0.3-5.7,0.2-8.1-2.3c-1.4-1.5-1.9-3.6-1.9-5.1
			s0.4-3.6,1.9-5.1C767.7,791.6,770.9,791.9,774.6,792.1z"/>
		<path d="M688.1,783.4c-1.4,2.5-2.5,5.2-4.2,7.5c-1.8,2.6-2,5.6-2.6,8.4c-0.7,3-0.7,6.3-0.2,9.3c0.4,2.7,0.8,5.5,1.8,8.2
			c1,2.9,2.6,5.3,4,7.8c1.6,2.8,4.4,4.3,6,6.9c-0.8,0.7-1.3,0.1-2.1-0.3c-4.7-2.1-8.1-5.7-10.7-9.9c-0.7-1.2-1.2-2.8-1.2-4.5
			c0-2.4,0.8-4.8-0.6-7.2c-1.1-1.9,0.3-4.3-1.2-6.5c-0.8-1.3-0.2-3.6-0.2-4.7C679.2,791.9,682.6,786.9,688.1,783.4z"/>
		<path d="M719.8,857.5c-5.9-0.1-11.7,2.5-18.4,1.1c3.6-1.3,6.7,0.2,9.4-1C713.8,856.3,716.8,857.4,719.8,857.5z"/>
		<path d="M770.3,852c-0.7,1.2-1.4,1-2.1,1c-2.4,0-4.8,0-7.2-0.3c1.4-1.1,3-0.6,4.5-0.7C767.1,851.9,768.6,852,770.3,852z"/>
		<path d="M751.2,853.2c2.9,0,5.8,0,8.6,0C757,854.3,754.1,853.8,751.2,853.2z"/>
		<path d="M740.7,855c0.7-1.2,1.4-1,2.1-1c2.4,0,4.8,0,7.2,0.3c-1.4,1.1-3,0.6-4.5,0.7C743.9,855.1,742.4,855,740.7,855z"/>
		<path d="M741.3,855c-0.7,1.2-1.4,1-2.1,1c-2.4,0-4.8,0-7.2-0.3c1.4-1.1,3-0.6,4.5-0.7C738.1,854.9,739.6,855,741.3,855z"/>
		<path d="M730.8,856.8c-2.9,0-5.8,0-8.6,0C725,855.7,727.9,856.2,730.8,856.8z"/>
		<path d="M692.2,859.2c2.9,0,5.8,0,9.6,0c-2.2,1.3-3.8,0.7-5.2,0.8c-1.4,0.1-2.9,0-4.3,0C692.2,859.7,692.2,859.4,692.2,859.2z"/>
		<path d="M681.9,861c3-1.2,6-0.9,9-0.7c-1.4,1.1-3,0.6-4.5,0.7C684.9,861.1,683.4,861,681.9,861z"/>
		<path d="M768.9,685c2.7-1.1,5.3-1,9-0.9c-2.2,1.3-3.7,0.8-5,0.9C771.6,685.1,770.3,685,768.9,685z"/>
		<path d="M769.9,852c2.7-1.1,5.3-1,9-0.9c-2.2,1.3-3.7,0.8-5,0.9C772.6,852.1,771.3,852,769.9,852z"/>
		<path d="M671.9,862c2.7-1.1,5.3-1,9-0.9c-2.2,1.3-3.7,0.8-5,0.9C674.6,862.1,673.3,862,671.9,862z"/>
		<path d="M788.2,682.2c3.2,0,5.4,0,8.3,0c-1.6,1.2-2.9,0.8-4,0.8C791.4,683,790.3,683.3,788.2,682.2z"/>
		<path d="M766.8,685.8c-2.2,0-4.4,0-6.7,0C762.3,684.6,764.6,685.2,766.8,685.8z"/>
		<path d="M780.2,850.2c3.2,0,5.4,0,8.3,0c-1.6,1.2-2.9,0.8-4,0.8C783.4,851,782.3,851.3,780.2,850.2z"/>
		<path d="M785,683.5c-1.7,0.6-3.3,0.6-5,0C781.7,682.9,783.3,682.9,785,683.5z"/>
		<path d="M753.1,686.2c1.6,0,3.1,0,4.9,0C756.4,687.9,754.7,686.3,753.1,686.2z"/>
		<path d="M672.7,862.5c-2.4,0.7-4,0.5-5.7,0.1C668.7,861.8,670.3,861.8,672.7,862.5z"/>
		<path d="M799.2,681.5c1.2-0.7,2.4-0.7,4.1-0.2C801.7,682.4,800.4,681.9,799.2,681.5z"/>
		<path d="M804,681.5c0.7-0.7,1.3-0.7,2,0C805.3,682.2,804.7,682.2,804,681.5z"/>
		<path d="M769,685c0.1,0.5-0.1,0.8-0.6,0.9c-0.1,0-0.3-0.2-0.3-0.3C768.2,685.1,768.5,684.9,769,685z"/>
		<path d="M713,837c-0.1-0.5,0.1-0.8,0.6-0.9c0.1,0,0.3,0.2,0.3,0.3C713.8,836.9,713.5,837.1,713,837z"/>
		<path d="M682,861c0.1,0.5-0.1,0.8-0.6,0.9c-0.1,0-0.3-0.2-0.3-0.3C681.2,861.1,681.5,860.9,682,861z"/>
	</g>
</g>
</svg>
