<?xml version="1.0" encoding="utf-8"?>
<!-- Generator: Adobe Illustrator 17.1.0, SVG Export Plug-In . SVG Version: 6.00 Build 0)  -->
<!DOCTYPE svg PUBLIC "-//W3C//DTD SVG 1.1//EN" "http://www.w3.org/Graphics/SVG/1.1/DTD/svg11.dtd">
<svg version="1.1" id="Layer_1" xmlns="http://www.w3.org/2000/svg" xmlns:xlink="http://www.w3.org/1999/xlink" x="0px" y="0px"
	 viewBox="0 0 1440 937" enable-background="new 0 0 1440 937" xml:space="preserve">
<g>
	<g>
		<path d="M536,492.5c0.4-0.4,0.8-0.8,1.3-1.3c3.4-1.2,6.7,2,10.6,0.5c-0.3-2.1,1.1-4.2,1.4-6.6c0.8-0.1,1.6-0.2,2.4-0.3
			c0.2-2.2,1.5-4.1,1.4-6.5c-0.2-2.1-0.7-4.3,0.4-6.3c1.1-2.2,0.1-4.5,0.9-7.2c2.9,0.6,6.2-1,9.2,1.1c0.2,0.2,0.7,0.1,1,0
			c5.3-0.7,10.3,1.6,15.6,1c2.3-0.2,4.2,1.4,6.6,1.1c2-0.2,4.2-0.7,6.1,0.9c0.2,0.2,0.7,0.1,1,0c5.6-0.7,11,1.3,16.6,1.1
			c2.7-0.1,5.3,1.6,8.5,0.7c-0.2,4.4,1.1,8.5-0.8,12.6c-0.2,0.4-0.2,1-0.1,1.4c0.7,5.4-1.5,10.6-1.1,16.1c0.1,2.1-1.1,4.3-1,6.6
			c0.2,2.2,0.5,4.5-0.9,6.6c-0.1,0.1,0,0.3,0,0.5c0.7,5.6-1.7,11-1,16.6c0.3,2.2-1.5,3.8-1.1,6.1c0.4,2.1,0.1,4.3,0.1,6.3
			c-0.7,0.6-1.2,1.4-1.7,1.4c-3.1-0.3-6.1,0.5-9.1,1.1c-3.2,0.7-6.5,0.8-9.7,1.8c-2.2,0.7-4.7,0.5-7.1,1c-5.2,1-10.3,2.9-15.5,3.6
			c-3.9,0.5-7.5,2.4-11.5,2.7c-3.1,0.2-5.9,1.9-9.1,2c-1.7,2-4.6-0.3-6.2,1.9c-2.1-0.1-4.1,0.7-6,1.2c-2.2,0.6-4.7,0.2-7.3,2.9
			c0.7-4-0.9-6.9,1.2-9.6c0.2-0.2,0.1-0.7,0-1c-0.8-5.6,1.5-11,1-16.6c-0.2-2.2,1.4-3.9,1.1-6.1c-0.3-2.1-0.6-4.5,0.1-6.4
			c1-2.9,0.9-5.8,0.8-8.6c-0.1-1.4,1.4-2.1,1.2-3.6c-0.2-0.8-1.7-1.5-0.2-2.8c0.7-0.6,0.1-2.5,0.1-3.9c0-1.2,0.2-2.4,0-3.5
			c-0.3-1.6,1.3-2.5,1.1-4.1C535.8,495.5,536,493.9,536,492.5z M554.6,543.1c4.8-1.4,9.2-3.1,14-3.1c0.9-1.2,2.8-1,3.4-2.4
			c0.3-3.1-0.6-6.4,0.5-9.3c1.2-3.3,0.2-6.5,0.6-9.7c0-0.2-0.1-0.4,0-0.5c2-3.5,0.6-7.2,1-10.8c-5.9-0.3-11.3-2.1-17-0.8
			c0,1.6,0.6,3.6-0.1,4.8c-1.3,2.4-0.2,4.9-1,7.1c-0.9,2.5-1,5-0.9,7.6c0.3,4.9-1.8,9.6-1.1,14.6c0,0.2-0.3,0.5-0.6,0.7
			c-0.4,0.3-0.5,0.5,0,0.7C553.7,542.2,554,542.5,554.6,543.1z M585,515.5c0,2.8,0.7,5.9-0.2,8.4c-1.4,4.1-0.4,8-1,12.4
			c2.1-0.6,3.6-1.8,5.4-1.2c1.9,0.6,3.2-1.3,5.1-1c2.1,0.3,4.1,0,5-0.9c1.7-5.9,1.3-11.2,2.5-16.7c-0.3-0.3-0.9-0.8-1.5-1.4
			c-2.3,0-4.7,0.5-6.9-0.1c-2.4-0.6-4.6-1-7-0.8C585.9,514.6,585.5,515,585,515.5z M558.6,485.7c1.2,3.3-1.1,5.3-0.7,7.8
			c0.4,2.4,0.1,4.9,0.1,7.7c5.9-1.4,11.3,1.4,16.8,0.6c0.5-5,2-9.7,0.9-15C570.2,487.6,564.8,486.4,558.6,485.7z M603,504.8
			c-0.3-5.1,2.1-9.7,0.7-14.8c-2.7,0-5.6,0.8-7.9-0.2c-2.7-1.2-5.1-0.4-7.8-0.9c0.6,4.9-1.9,9.2-0.8,13.5c2.2,2.1,4.9,1.7,7.4,1.6
			C597.3,503.8,599.8,505.7,603,504.8z"/>
		<path d="M619.1,464c-2.3,0.8-4.6-1-7.2-1.1c-2.5-0.1-5.3,1-7.6-0.9c-0.2-0.2-0.6,0-1,0c-8-0.1-16-1.6-24.1-1
			c-4.7,0.3-9.3-1.5-14.1-1.1c-1.2,0.1-2.5-1.1-4.3-1.1c0.5-6.9,0.9-13.8,2.2-20.5c0.7-0.3,1.3-0.5,1.8-0.6c0-2.6,0-5,0-7.5
			c-7-0.4-13.9-1-21-2.1c0.7-3.5-0.4-6.5,1-9.8c1.1-2.7-0.7-6.1,1.2-9.2c3.7,2.3,7.6,0.1,11.3,1.6c3.4,1.4,7.4-0.4,11.3,1
			c2.4-1,0.8-3.5,1.6-5.8c2.7,0.6,5.6-1.1,8.3,1c0.3,0.2,1,0.1,1.5,0c5.6-0.7,11,1.5,16.6,1c2.3-0.2,4.2,1.4,6.6,1.1
			c2.1-0.2,4.6-0.9,6.6,0.9c0.2,0.2,0.6,0,1,0c2.3,0,4.7,0.1,7,0c2.1-0.1,3.8,1.8,6.4,0.7c-0.4,2.7,0,4.7-0.9,7.1
			c-0.9,2.3-0.2,5.2-0.2,7.9c0,1.6,0.4,3.3-1.6,4.5c1.2,0.9,2,1.4,2.6,1.8c-2.1,3.7,0.1,7.6-1.4,10.8c-1.7,3.4,0.3,7-1.2,10.5
			C620,456.5,621.9,460.4,619.1,464z"/>
	</g>
</g>
</svg>
