<?xml version="1.0" encoding="utf-8"?>
<!-- Generator: Adobe Illustrator 17.1.0, SVG Export Plug-In . SVG Version: 6.00 Build 0)  -->
<!DOCTYPE svg PUBLIC "-//W3C//DTD SVG 1.1//EN" "http://www.w3.org/Graphics/SVG/1.1/DTD/svg11.dtd">
<svg version="1.1" id="Layer_1" xmlns="http://www.w3.org/2000/svg" xmlns:xlink="http://www.w3.org/1999/xlink" x="0px" y="0px"
	 viewBox="0 0 1440 937" enable-background="new 0 0 1440 937" xml:space="preserve">
<g>
	<g>
		<path d="M624,411.4c3.3-1.4,5.8,1.1,9.1,0.7c-0.5,4,0.8,8.1-1.1,12c-0.1,0.1,0,0.3,0,0.5c0.7,5.6-1.7,11-1,16.6
			c0.3,2.4-1.4,4.5-1.1,7.1c0.3,2.1,0,4.3-0.7,6.6c-0.9,3-0.2,6.5-0.2,10c-2.6,0-5.1,0-7.7,0c-0.2-0.2-0.6-0.6-1.3-1.3
			c0.3-1.3-0.8-3.1,0.6-4.7c0.2-0.2,0.4-0.6,0.3-0.8c-0.5-4.3,1.5-8.3,1.1-12.6c-0.4-3.7,1.6-7.3,1-11.1c-0.2-1.2,0.4-2.5-0.7-3.7
			c-0.6-0.7-0.6-2.4-0.2-3.3c1.4-3,0.6-6.1,1-9.1C623.3,415.9,624.5,413.7,624,411.4z"/>
	</g>
</g>
</svg>
