<?xml version="1.0" encoding="utf-8"?>
<!-- Generator: Adobe Illustrator 17.1.0, SVG Export Plug-In . SVG Version: 6.00 Build 0)  -->
<!DOCTYPE svg PUBLIC "-//W3C//DTD SVG 1.1//EN" "http://www.w3.org/Graphics/SVG/1.1/DTD/svg11.dtd">
<svg version="1.1" id="Layer_1" xmlns="http://www.w3.org/2000/svg" xmlns:xlink="http://www.w3.org/1999/xlink" x="0px" y="0px"
	 viewBox="0 0 1440 937" enable-background="new 0 0 1440 937" xml:space="preserve">
<g>
	<g>
		<path d="M627.1,520.3c2.7-1.1,4.6,0.9,6.9,0.8c2.2-0.1,4.6-0.9,6.6,0.9c0.2,0.2,0.7,0.1,1,0c5.3-0.7,10.3,1.1,15.6,1.2
			c3,0,6.3,0.3,9.2,1.7c0.4,0.2,1,0.2,1.4,0.1c4.8-0.7,9.3,1.3,14.3,1c-1.7,5.6-3.9,10.6-5.4,16c-3.2,0-6.2-0.1-9.1,0
			c-2.7,0.1-5.5-0.6-8,1c-0.4-0.4-0.8-0.7-1.1-1.1c-0.7,1.3-1.9,1-3.1,1c-6.7,0-13.3,0-20,0c-3.7,0-7.5-0.6-10.8,1.3
			c-1.9-3.2,0.8-5.7,0.3-8.3c-0.5-2.7,1.6-4.9,1-7.6C625.4,525.6,627.3,523.1,627.1,520.3z"/>
	</g>
</g>
</svg>
