<?xml version="1.0" encoding="utf-8"?>
<!-- Generator: Adobe Illustrator 17.1.0, SVG Export Plug-In . SVG Version: 6.00 Build 0)  -->
<!DOCTYPE svg PUBLIC "-//W3C//DTD SVG 1.1//EN" "http://www.w3.org/Graphics/SVG/1.1/DTD/svg11.dtd">
<svg version="1.1" id="Layer_1" xmlns="http://www.w3.org/2000/svg" xmlns:xlink="http://www.w3.org/1999/xlink" x="0px" y="0px"
	 viewBox="0 0 1440 937" enable-background="new 0 0 1440 937" xml:space="preserve">
<g>
	<g>
		<path d="M661.7,523.3c1.4-4.3,2.4-8.5,4.1-12.5c1.8-4,2.2-8.3,4-12.3c1.8-3.9,2.5-8.2,4-12.3c1.5-3.9,2.8-7.9,4-11.8
			c1.2-4.2,2.8-8.2,4-12.3c1.2-4.1,2.7-8.2,3.9-12.4c1.2-4.2,2.5-8.3,3.9-12c2.5-1.7,4.4,0,6.3,0.5c4,1,7.9,2.6,11.9,3.9
			c1.8,0.5,2.2,1.7,2.1,3.3c-0.7,1.5-2.6,2-3,3.8c-1.4,6.9-5.7,13-5,20.4c-0.3,0.8-1.1,0.5-1.5,0.7c-0.8,2.4-1.2,5.1-2.6,7
			c-1.2,1.7-0.8,3.4-1.3,5c-0.9,2.8-3.2,5.2-2.6,8.4c-2.1,2.1-0.3,4.8-1.2,7.2c-0.2,0.4-0.8,0.3-1.5,0.3c-1.4,3.9-2.9,8-4.3,12
			c-0.6,1.6-0.6,3.5-1.5,4.8c-1.1,1.7-0.2,2.7,0.5,3.9c-0.3,3.1-4.5,3.7-4,7.2c-2.7,0-5.3,0.7-7.2-0.2c-2.2-1-4.1-0.6-6.2-0.8
			C666.3,524.9,664.1,525.2,661.7,523.3z"/>
	</g>
</g>
</svg>
