<?xml version="1.0" encoding="utf-8"?>
<!-- Generator: Adobe Illustrator 17.1.0, SVG Export Plug-In . SVG Version: 6.00 Build 0)  -->
<!DOCTYPE svg PUBLIC "-//W3C//DTD SVG 1.1//EN" "http://www.w3.org/Graphics/SVG/1.1/DTD/svg11.dtd">
<svg version="1.1" id="Layer_1" xmlns="http://www.w3.org/2000/svg" xmlns:xlink="http://www.w3.org/1999/xlink" x="0px" y="0px"
	 viewBox="0 0 1440 937" enable-background="new 0 0 1440 937" xml:space="preserve">
<g>
	<g>
		<path d="M651.2,434c-1-6.5,1.8-12.4,0.7-18.4c0.6-0.6,1.1-1.1,1.5-1.5c5.6-0.7,11,1.7,16.5,0.9c2.5,1.7,5.4,1,8.1,0.9
			c2.2-0.1,3.9,1.4,6.1,1.1c2.1-0.3,4.5-0.6,6.4,0.1c3.2,1.2,6.6,0.2,9.6,1c4.4,1.2,8.7,0.6,13.5,1c0.5,0.6,1.2,1.6,2.2,3
			c0,0.2,0,1.2,0,2.6c-0.3,0.2-1.1,0.6-1.8,1.1c0.3,4.5-3,7.6-3.2,11.8c-1.6,1-0.5,2.8-1.1,4.1c-2.6,1.4-4.8-1.4-7.4-0.7
			c-2.7-2.5-6.6-1.8-9.5-3.6c-0.5-0.3-0.9-0.4-1.3-0.4c-2.7,0-5.4-0.3-8,0.1c-2.5,0.3-4.6-1.6-7.1-1.1c-2.8,0.6-5.4-0.7-8.1-0.9
			c-2.6-0.2-5.3,0-8-0.1c-1.6-0.1-2.9-1.3-4.6-1C654.4,434.2,652.9,434,651.2,434z"/>
	</g>
</g>
</svg>
