<?xml version="1.0" encoding="utf-8"?>
<!-- Generator: Adobe Illustrator 17.1.0, SVG Export Plug-In . SVG Version: 6.00 Build 0)  -->
<!DOCTYPE svg PUBLIC "-//W3C//DTD SVG 1.1//EN" "http://www.w3.org/Graphics/SVG/1.1/DTD/svg11.dtd">
<svg version="1.1" id="Layer_1" xmlns="http://www.w3.org/2000/svg" xmlns:xlink="http://www.w3.org/1999/xlink" x="0px" y="0px"
	 viewBox="0 0 1440 937" enable-background="new 0 0 1440 937" xml:space="preserve">
<g>
	<g>
		<path d="M738.9,490.4c-9.1-3-17.6-5.8-26.3-8.6c6-19.2,12.1-38,18.2-56.9c4,0.7,7.7-0.9,11.1,1.1c0.4,0.2,1,0.1,1.5,0
			c5.6-0.7,11,1.4,16.6,1.1c2.1-0.1,4.3,1.1,6.6,1c2.2-0.2,4.5-0.5,6.6,0.9c0.2,0.2,0.7,0.1,1,0c5.6-0.7,11,0.9,16.6,1.2
			c4.2,0.3,8.4,0.6,12.6,0.8c1.9,0.1,3.5,1.4,5.8,0.8c-0.8,9.2-2.2,17.8-2.1,26.8c-0.4,0.3-0.9,0.7-1.4,1.2c-0.8-1-2.2-0.9-3.4-0.8
			c-5.9,0.5-11.6-1.8-17.6-1c-3.4-1.6-7.1-0.3-10.5-1.1c-3.9-0.9-7.9-0.1-11.6-1.1c-4.1-1-8.1-0.5-12.1-0.9c-1.9,6-3.6,12-5.7,17.8
			C742.7,478.5,740.8,484.4,738.9,490.4z"/>
	</g>
</g>
</svg>
