<?xml version="1.0" encoding="utf-8"?>
<!-- Generator: Adobe Illustrator 17.1.0, SVG Export Plug-In . SVG Version: 6.00 Build 0)  -->
<!DOCTYPE svg PUBLIC "-//W3C//DTD SVG 1.1//EN" "http://www.w3.org/Graphics/SVG/1.1/DTD/svg11.dtd">
<svg version="1.1" id="Layer_1" xmlns="http://www.w3.org/2000/svg" xmlns:xlink="http://www.w3.org/1999/xlink" x="0px" y="0px"
	 viewBox="0 0 1440 937" enable-background="new 0 0 1440 937" xml:space="preserve">
<g>
	<g>
		<path d="M815,433c3.7,0,7.4-0.6,10.6,0.2c3.1,0.8,6,0.6,9.2,0.9c0,2.9,0,5.7,0,8.7c2.7,0.7,5.7-0.5,8,1.6c0.1,1.3,0.7,2.7-0.6,4
			c-0.2,0.2-0.2,0.6-0.2,0.9c0.7,4.8-0.9,9.3-1.1,14.1c-0.2,4.9-1.4,9.7-0.9,14.6c-1.7,2.7-1,5.7-0.9,8.6c0,2.1-1.5,3.8-1.1,6.1
			c0.3,1.9,0.6,4.2,0,5.9c-1.5,4-0.5,8.1-1,12.1c-0.4,0.4-0.9,0.9-1.2,1.2c-5.7,1.1-11.1-1.6-16.7-0.8c-3-1.9-6.4-0.6-9.6-1.1
			c-0.4-0.4-0.9-0.9-1.2-1.2c-1-2.6,1.1-4.7,0.9-7.2c-0.2-2.3-1-4.9,0.9-7.1c0.2-0.2,0.1-0.7,0-1c-0.7-5.7,1.4-11.4,0.9-17
			c-0.2-2.4,1.4-4.2,1.1-6.6c-0.3-2.1-0.6-4.5,0.1-6.4c1.1-3.1,0.7-6.1,0.9-9.1c0.2-2.2,1.3-4.2,1.1-6.6c-0.2-2.2-0.1-4.3,0.7-6.6
			C815.6,438.7,815,435.8,815,433z"/>
	</g>
</g>
</svg>
