<?xml version="1.0" encoding="utf-8"?>
<!-- Generator: Adobe Illustrator 17.1.0, SVG Export Plug-In . SVG Version: 6.00 Build 0)  -->
<!DOCTYPE svg PUBLIC "-//W3C//DTD SVG 1.1//EN" "http://www.w3.org/Graphics/SVG/1.1/DTD/svg11.dtd">
<svg version="1.1" id="Layer_1" xmlns="http://www.w3.org/2000/svg" xmlns:xlink="http://www.w3.org/1999/xlink" x="0px" y="0px"
	 viewBox="0 0 1440 937" enable-background="new 0 0 1440 937" xml:space="preserve">
<g>
	<g>
		<path d="M724,574.3c0,2.8,0,5.6,0,8.3c-5.8,2.1-11.9,0.7-17.6,2.7c-0.7-4.6-1.1-8.7-1.6-12.9c-0.3-3-0.7-6.1-0.7-9.1
			c0-2.1-1.4-3.9-1.1-6.1c0.3-2,0.6-4.2-0.9-6.1c-0.2-0.2-0.1-0.7,0-1c0.7-5.4-1.7-10.7-1-16.1c-1.5-3.8-0.9-7.7-1-11.6
			c-0.3-0.5-1.1-0.7-0.9-2.1c0.4-0.4,1.2-1,1.7-1.8c0.6-0.9-0.3-2.4,1.1-3c1.3-7.4,4.3-14.2,6.1-21.5c0.2-0.9,1-1.3,1.3-1.9
			c4.8,1.6,9.6,3.2,14.8,5c-0.3,4.9-2.5,9.4-3.7,14.5c0.7,0.4,2.2,0.6,2.5,1.8c0.3,1.3-0.1,2.7,1.6,3.3c2.9,1,5.4-1.5,8.4-0.7
			c0.1-1.5,0.1-2.6,0.2-3.7c0.8-0.5,2-1.3,2.5-1.3c5.4,0.6,10.7-1.6,16-1.1c0.5,0.5,1,1,1.5,1.5c-0.7,5.4,1.7,10.6,1,16
			c1.6,3.1,0.4,6.5,1.1,9.5c0.9,3.7,0.6,7.4,1,11.1c0.3,2.5,1.5,4.9,0.6,7.8c-5.1-0.8-10.2,0.8-15.3,1.2c-4.3,0.3-8.7,0.6-12.8,0.8
			c-2.3,1.4-2.1,3.7-1.4,5c1.7,3.5,0.3,7.1,0.9,10.5C726.8,574.4,725.6,573.7,724,574.3z"/>
	</g>
</g>
</svg>
