<?xml version="1.0" encoding="utf-8"?>
<!-- Generator: Adobe Illustrator 17.1.0, SVG Export Plug-In . SVG Version: 6.00 Build 0)  -->
<!DOCTYPE svg PUBLIC "-//W3C//DTD SVG 1.1//EN" "http://www.w3.org/Graphics/SVG/1.1/DTD/svg11.dtd">
<svg version="1.1" id="Layer_1" xmlns="http://www.w3.org/2000/svg" xmlns:xlink="http://www.w3.org/1999/xlink" x="0px" y="0px"
	 viewBox="0 0 1440 937" enable-background="new 0 0 1440 937" xml:space="preserve">
<g>
	<g>
		<path d="M506.4,629c1.9,3.6,1,7,1.7,10.1c0.8,3.4,0,7,1.1,10c1.2,3.5,0.3,6.8,0.8,10.2c0.3,1.9,1.2,3.6,1,5.6
			c-0.2,1.7-0.4,3.6,0.9,5.1c0.2,0.2,0.1,0.7,0,1c-0.7,5.4,1.7,10.7,1,16.1c1.6,4.1,0.8,8.4,1,12.5c-3.2,1.6-6.6,1.4-10,1.6
			c-2.2,0.1-4.3,1.2-6.6,1c-2.2-0.2-4.5-0.5-6.6,0.9c-4.4-0.7-8.7,1.1-13.1,1.1c-2.2,0-4.4-0.5-6.7,0.8c-1.2,0.7-3.2,0.1-5.3,0.1
			c-4.8-10.8-9.7-21.7-14.9-33.3c0-0.3-0.2-1.5,0-2.6c0.2-1.3-0.9-2-1-3.1c-0.2-1.1,0-2.3-0.1-3.5c-0.1-1.1,0.6-2.7-0.4-3.3
			c-1.6-0.9,1.5-2-0.4-2.6c-0.2-0.1-0.3-0.9-0.2-1.4c0.5-4.6-1.4-9-1.1-13.6c0.1-2.1-1.5-4.2-0.5-6.8c4.3,0.9,8.5-0.8,12.9-1.2
			c3.3-0.3,6.8-0.3,10.1-0.9c3.3-0.5,6.6-0.6,9.8-1.5c3.2-0.9,6.8,0.4,9.8-0.6c2.9-0.9,5.9-0.1,8.6-1
			C501.3,628.9,503.9,629.2,506.4,629z"/>
	</g>
</g>
</svg>
