<?xml version="1.0" encoding="utf-8"?>
<!-- Generator: Adobe Illustrator 17.1.0, SVG Export Plug-In . SVG Version: 6.00 Build 0)  -->
<!DOCTYPE svg PUBLIC "-//W3C//DTD SVG 1.1//EN" "http://www.w3.org/Graphics/SVG/1.1/DTD/svg11.dtd">
<svg version="1.1" id="Layer_1" xmlns="http://www.w3.org/2000/svg" xmlns:xlink="http://www.w3.org/1999/xlink" x="0px" y="0px"
	 viewBox="0 0 1440 937" enable-background="new 0 0 1440 937" xml:space="preserve">
<g>
	<g>
		<path d="M416.3,593.5c3-2,6.3-1.5,9.5-1.5c2.1,0,3.9-1.4,6.1-1.1c2,0.3,4.2,0.6,6.1-0.9c0.2-0.2,0.7-0.1,1,0
			c5.4,0.7,10.6-1.5,16.1-1.1c2.1,0.2,4.2-1.2,6.6-1c2.2,0.2,4.5,0.4,6.6-0.9c0.1-0.1,0.3,0,0.5,0c5.1,0.6,10-1.6,15.1-1
			c2.1,0.2,3.9-1.3,6.1-1.1c2,0.2,4,0,6.1-0.8c2-0.8,4.5-0.2,6.8-0.2c0.5,4.6,1.1,8.9,1.5,13.2c0.3,3.4,0.2,6.8,0.9,10.1
			c0.7,3.1,0.9,6.1,0.8,9.1c0,1.5,1.8,2.5,0.8,4.4c-3.5,0-6.9,1.5-10.7,1.3c-2.2-0.1-4.2,1.2-6.6,1c-2.2-0.2-4.6-0.6-6.6,0.9
			c-0.1,0.1-0.3,0-0.5,0c-5.3-0.7-10.4,1.3-15.6,0.9c-2.3-0.2-4.2,1.4-6.6,1.2c-2-0.2-4.2-0.8-6.1,0.9c-0.3,0.2-1,0.1-1.5,0
			c-5.1-0.7-10,1.4-15.1,1.1c-1.9-0.1-3.9,1.4-5.9,0.8C426,617.4,420.9,605.5,416.3,593.5z"/>
	</g>
</g>
</svg>
