<?xml version="1.0" encoding="utf-8"?>
<!-- Generator: Adobe Illustrator 17.1.0, SVG Export Plug-In . SVG Version: 6.00 Build 0)  -->
<!DOCTYPE svg PUBLIC "-//W3C//DTD SVG 1.1//EN" "http://www.w3.org/Graphics/SVG/1.1/DTD/svg11.dtd">
<svg version="1.1" id="Layer_1" xmlns="http://www.w3.org/2000/svg" xmlns:xlink="http://www.w3.org/1999/xlink" x="0px" y="0px"
	 viewBox="0 0 1440 937" enable-background="new 0 0 1440 937" xml:space="preserve">
<g>
	<g>
		<path d="M761.6,601.9c1,3.8,1.6,7.4,1.5,11.2c-0.1,2,1.2,3.9,1,6.1c-0.2,1.9-0.5,3.8,0.8,5.6c0.6,0.8,0.1,2.3,0.1,3.4
			c0,2.1-0.1,4.1,0.9,6.1c1,1.8,1.2,3.9,1.1,6.1c-0.3,6,2,12,0.8,17.9c0.8,0.8,1.5,1.2,1.1,2.2c-4,1.5-8.2,1.6-12.4,1.4
			c-4.1-0.2-7.9,2-12.3,0.7c-1-1.5,0.9-4.2-1.9-5.7c-2.1,0.3-4.8-0.8-7.1,1c-0.1,0.1-0.3,0-0.5,0c-4.8-0.7-9.3,1.1-14.1,1
			c-6-0.1-12,1.7-18.1,1c-3.9,1.8-8.2,0.2-12,1.2c-3.8,1-7.4,0.5-10.6,0.9c-5.5-5.5-10.6-10.6-15.5-15.5c-1.7-3.1-1.6-6.2-1.3-9.3
			c0.3-3.2-1.2-5.9-1.2-9.2c-2.9,0-5.7,0-8.3,0c-1.9-8.4-3.7-16.6-5.5-24.8c-5.2-1.3-9.9,0.8-14.7,0.8c-1.4,3.1,0.7,5.9,0.7,8.9
			c0,3.2,0,6.4,0.9,9.6c0.7,2.9-0.5,6.2,1.6,9.3c2.6-0.2,5.6,0.6,8.4-0.5c2.9-1.1,5.8-0.2,9.1-0.7c-0.3,4.1,1.9,7.6,0.9,11.8
			c-9.6,1.9-19.6,1.7-29.6,3.4c-0.2-4.1-1.6-7.9-1.4-12c0.1-2.1-1.1-4.3-1-6.6c0.2-2.2,0.5-4.5-0.9-6.6c-0.3-0.5-0.1-1.3,0-2
			c0.7-4.6-1.6-9-1-13.6c-1.8-3.9-0.6-8-1.1-12.4c4.5,0.7,8.4-1.6,12.6-0.8c0.7-1.2,0.9-2.2-0.1-3.2c-0.2-0.2-0.4-0.5-0.4-0.8
			c0-2.3-0.2-4.7,0-7c0.3-2.4-1.1-4.3-1.2-6.6c-0.1-4.9,1.1-9.5,2.5-14.5c1.2,0,2.7-0.1,4.1,0c3.6,0.4,6.9-1.5,10.6-1.1
			c3.5,0.4,7.2,0.8,10.4-0.1c5.1-1.5,10.1-0.2,14.7-0.9c2.3,1.6,1.7,4.5,3.8,5.8c2.1,1.3,4.2,1.3,6.7,1.3c0.7,3,2.1,5.8,2.3,9.1
			c0.2,3.1,1.7,6,2.1,9.1c0.2,1.3,0.9,2.7,0.8,4.1c-0.2,1.4,1,2.2,1.2,3.6c0.3,3.8,2.7,8.2,5.1,10.9c2.5,2.8,5.7,4,9.2,4.2
			c3.3,0.3,6.7,0,10,0.1c2.3,0.1,4.2-1.5,6.6-1.1c2.1,0.4,4.5,0.6,6.4,0c3.4-1.2,6.8-0.3,10.1-1c4.7-1,9.5-0.2,14.1-1.1
			C755,602.1,758.3,602.3,761.6,601.9z M727.5,617c-2.6,0.2-5.2-0.2-7.9,0.9c-1.7,0.7-4,0.4-5.9,0.1c-2.2-0.4-4,1.1-6.1,1.1
			c-4.4,0.1-8.7-0.6-13.1,0.8c-2.4,0.8-5.3,0-7.9,0.2c-2.7,0.2-5.3,1.3-8.1,1c-1.4-0.2-2.9,0-4.3,0c-0.4,6.4-0.1,12.4,1.2,18.6
			c2.9,2.9,6,6,9.4,9.4c1.4,0,3.1-0.3,4.7,0.1c1.8,0.4,2.9-1.2,4.6-1.2c3.9,0,7.8,0.8,11.6-0.9c7.1,0.7,14-1.5,21-1
			c1.4,0.1,2.9,0,4.3,0c0.2-3.1,0.5-5.9-0.9-8.4c0.8-5.6-1.4-11-1-16.5c0.1-0.9,0.3-2-0.3-2.8C728.3,617.8,728,617.5,727.5,617z
			 M645.2,590c4-0.1,7.8,0.5,11.3-1.2c0.5,0.9,1.5,1.2,1.6,2.1c0.6,5.7,2.3,11.1,3.1,16.7c0.4,2.4,0.5,5.3,2.3,7.1
			c6.8,1.1,13.1-1,19.1-0.9c1.4-2.2-1.1-3.2-0.5-4.9c0.5-1.4-1.2-2.2-1-3.6c0.2-1.4-0.5-2.8-0.8-4.1c-0.5-2.8-1.7-5.4-2-8.1
			c-0.3-2.7-1.1-5.3-1.5-7.9c-0.4-2.6-0.8-5.3-1.7-7.8c-0.9-2.4-0.6-5.3-2.5-7.3c-7.8-0.6-15.4,1.7-23.1,1c-2.3-0.2-4.5-0.1-6.1,1.4
			c-0.9,3.1,1.1,5.8,0.8,8.7C643.6,584.1,645.1,586.8,645.2,590z"/>
		<path d="M527.2,582.3c1-1.9,3.2-1.8,4.6-2.1c4.6-1,9.2-2,13.7-3.1c3.3-0.9,6.9-1,10.1-2.1c3.2-1.1,6.8-1,9.8-2.9
			c7-0.1,13.4-3.2,20.3-4.2c4.4-0.6,8.8-2,13.1-3.2c0.4-0.1,0.7-0.7,1.3-0.6c4.3,0.7,8.4-1,12.6-1c2,0,4.1,0.5,6.1-0.9
			c0.9-0.6,2.5-0.1,3.6-0.1c2.3,4.2,0.6,8.7,1.8,12.6c1.3,4.1,0.1,8.1,0.7,11.9c-1.8,2-3.9,2.6-6.2,2.6c-1.9,0-3.8-0.2-5.8,0.3
			c-1.5,0.4-3.2,0.8-5.1,0.9c0.5,2.6,1.3,5.1,1.2,7.6c-0.1,2.4-0.7,4.9,0.9,7.1c0.1,0.1,0,0.3,0,0.5c-0.8,4.6,1.6,9,1,13.6
			c-0.3,2.3,1.4,4.2,1.1,6.6c-0.2,2-0.8,4.3,0.9,6.1c0.2,0.2,0.1,0.7,0,1c-0.7,5.1,1.2,10,1.1,15.1c-0.1,2.6,1.6,5.2,0.7,7.8
			c-3.4,1.9-7,1.6-10.6,1.4c-2.5-0.1-4.6,1.4-7.1,1.1c-2.3-0.2-4.9-0.8-7.1,0.9c-0.1,0.1-0.3,0-0.5,0c-4.6-0.8-9,1.5-13.6,1
			c-2.5-0.3-4.5,1.4-7.1,1.1c-2.1-0.2-4.6-0.9-6.6,0.9c-0.2,0.2-0.7,0.1-1,0c-5.1-0.7-10,1.5-15.1,1c-1.9-0.2-3.2,1.5-5.1,1.1
			c-1.6-0.3-3.3-0.1-4.9-0.1c-0.6-4.5-1.2-8.8-1.5-13.1c-0.3-3-0.2-6.2-0.9-9.1c-0.7-2.9-0.2-5.9-1-8.6c-1-3.1-0.5-6.1-0.9-9.1
			c-0.3-2.2-1.2-4.3-1-6.6c0.2-2.2,0.2-4.4-0.8-6.6c-0.6-1.4-0.1-3.3-0.1-4.9c-0.1-3.9-0.8-7.7-1.3-11.5c-0.5-3.7-1.1-7.5-1.7-11.2
			C527,582.9,527.2,582.6,527.2,582.3z M546.9,651c1,0,1.6,0,2.3,0c0.8-0.1,1.1-1,2.1-1c3.7,0,7.4-0.5,11.1-0.7
			c4.7-0.3,9.3-1.9,14.1-1.2c0.2,0,0.4,0.1,0.5,0c1.9-1.3,4.1-1.2,6.1-0.9c2.2,0.4,4-1.1,6.1-1.1c4,0.2,8-0.1,11.9-1.5
			c0-2.1-0.2-4.3,0.1-6.5c0.2-2-1.2-3.6-1.1-5.6c0-2.1,0.8-4.4-0.4-6.3c-1.3-2,0.3-4.2-1-6.2c-1.6,0-3.7-0.6-4.9,0.1
			c-2.4,1.5-4.8,0.9-7.2,0.8c-2.5-0.2-4.6,1.7-7.1,1.1c-2.2-0.5-4.4,0.2-6.4,0.6c-2.7,0.6-5.2,0-7.8,0.4c-0.2,0-0.4-0.1-0.5,0
			c-2,1.8-4.4,1-6.6,0.9c-2.5-0.1-4.6,1.5-7.1,1.1c-1.9-0.3-3.9-0.1-6.2-0.1c0.7,4.3-0.8,8.4,1.2,12.3
			C545.2,641.9,547.5,646.2,546.9,651z M589.1,585.5c-11,2-21.3,4.9-31.7,7.4c-0.6-1.9-1.2-3.8-1.7-5.8c-4.6,2.3-10.2,1.4-14.2,3.8
			c-1.5,4.2,1,7.5,0.6,11.1c-0.4,3.8,1.8,7.2,1,11c2.4,0,4.4-0.2,6.4,0.1c2.1,0.3,3.5-1.4,5.6-1.1c5.2,0.7,10.3-1.7,15.6-1
			c0.2,0,0.4,0.1,0.5,0c2.7-2.1,6.1-0.2,8.9-1.4c3.2-1.4,6.5-0.2,9.7-0.6c0.3,0,0.6-0.1,0.9-0.1c0.5-0.5,1-0.9,1.3-1.2
			c0.9-2.8-1.5-5-0.9-7.8c0.5-2.4-0.4-4.7-0.9-7.1C589.5,590.4,591.1,587.6,589.1,585.5z"/>
		<path d="M651.8,690.7c-4.1,0.9-8.2,2-12.8,1c0.6-4-1.8-7.9-1-12.1c-0.9-0.9-1.7-2.2-2.9-1.5c-2.5,1.4-5.1,1.1-7.6,0.8
			c-1.7-0.2-2.6,1.4-4.2,1.1c-0.2-0.6-0.4-1.2-0.6-1.7c-0.1-0.3-0.5-0.5-0.9-0.9c1.1-5.6-1.9-11.1-0.6-17.2
			c3.9,0.3,7.9-1.9,12.1-1.1c1.8,0.3,3-1,4.6-1.2c3.2-0.4,6.1,0.6,9.1,1.2c3.2,0.6,6.1,2.4,9.3,2.8c3.2,0.4,5.8,2.7,9.1,2.1
			c0.9,1.2,2.5,1.1,3.6,2.4c1.9,2.3,4.2,4.3,6.5,6.7c3.1-0.3,6.5,0.7,9.7-1c0.1-0.1,0.3,0,0.5,0c6.2,0.6,12.4-1,18.6-1.2
			c4.7-0.2,9.5,0,14-1c4.3-0.9,8.4-0.6,12.6-0.7c1.3,0,2-1,3.1-1.1c1,0.1,1.2,1,1.9,1.4c0.4,2.9-0.5,5.8,1,8.6
			c0.6,1.2,0.3,3-1.4,3.9c-4.6-0.1-9.2,1.5-13.9,1.2c-1.7-0.1-3.6,0.8-5.6,0.9c-1.9,0.1-3.7-0.3-5.7,0.8c-1.5,0.9-4.1-0.4-5.9,0.3
			c-3,1.1-6.1,0.8-9.1,0.8c-2.1,0-3.8,1.4-6.1,1.1c-2-0.3-4,0.2-6.1,0.7c-3,0.8-6.3,0.2-9.1,0.2c-5.9-2.9-9-8.8-14.5-12.1
			c-2.7,0.5-5.8-1-8.2,1.1C650,681.8,653,686.2,651.8,690.7z"/>
		<path d="M540.4,703.1c-1.7-8.8-1.8-17.4-3.3-26.7c0.6-2,3.5-1.3,5.2-2.4c0.2-0.2,0.7-0.1,1,0c5.1,0.6,10-1.6,15.1-1
			c3.1-1.4,6.5-0.4,9.5-1.1c3.6-0.8,7.2-0.3,10.6-1c3.1-0.7,6.2-0.2,9.1-1c2.9-0.8,6-0.1,8.6-1c4-1.5,8.3,0,12.3-1.7
			c2-0.8,4.6-0.1,6.9-0.1c1.7,1.6,1.9,3.6,1.7,5.7c-0.3,2.6,0.6,5.1,1,7.6c0.4,2.5-0.1,5,0.8,7.7c0.6,1.9,1.4,4.9-1.4,7.1
			c-3.6-0.4-7.3,0.3-11,1.4c-0.7-5-2-9.4-1.3-14c-5.8-1.4-11.1,1.4-16.6,0.6c-1.8,2.7,0.5,5,0.5,7.5c-0.1,2.5,0,4.9,0,7.8
			c-4.5-1.1-8.4,1.6-13,0.6c0.7-4.5-1.9-8.7-0.9-13.3c-6-1.8-11.7,1.4-17.6,0.4c-1.9,5.1,1.6,9.9,0.3,14.8
			C552,701.7,546.1,701.7,540.4,703.1z"/>
	</g>
</g>
</svg>
