<?xml version="1.0" encoding="utf-8"?>
<!-- Generator: Adobe Illustrator 17.1.0, SVG Export Plug-In . SVG Version: 6.00 Build 0)  -->
<!DOCTYPE svg PUBLIC "-//W3C//DTD SVG 1.1//EN" "http://www.w3.org/Graphics/SVG/1.1/DTD/svg11.dtd">
<svg version="1.1" id="Layer_1" xmlns="http://www.w3.org/2000/svg" xmlns:xlink="http://www.w3.org/1999/xlink" x="0px" y="0px"
	 viewBox="0 0 1440 937" enable-background="new 0 0 1440 937" xml:space="preserve">
<g>
	<g>
		<path d="M776,601.5c0.6-0.9,2-0.3,2.5-1.5c1.8,0,3.7-0.3,5.4,0.1c2.6,0.5,4.6-1.3,7.1-1.1c2.3,0.2,4.9,0.7,6.9-0.1
			c2.9-1.1,5.8-0.9,8.6-0.8c2.5,0.2,4.6-1.5,7.1-1.2c2.2,0.3,4.5,0.4,6.6-0.9c0.6-0.4,1.6-0.1,2.4-0.1c0.6,1.8,1.6,3.2,1.4,5.1
			c-0.4,6.4,1.7,12.7,1,19.1c1.5,3.6,0.4,7.5,1.2,11c0.7,3.4,0.2,6.9,1,10.1c0.9,3.7-0.1,7.7,1.1,11c1.3,3.9-0.3,8,1.7,11.8
			c0.7,1.5,0.1,3.6,0.1,5.3c-0.6,1.1-2.3-0.1-2.2,1.5c-2.6,0-4.9,0.3-7.2-0.1c-2.5-0.4-4.6,1.3-7.1,1.2c-2.3-0.1-4.9-1-7.1,0.9
			c-0.1,0.1-0.3,0-0.5,0c-4.3-0.7-8.3,1.3-12.6,1c-2.5-0.2-5.1-0.3-7.6,0.9c-0.9,0.4-2.2,0.1-3.8,0.1c0.7-5.4-1.7-10.4-1-15.6
			c0.3-2.2-1.3-4.2-1.1-6.6c0.2-2.2,0.9-4.6-0.9-6.6c-0.1-0.1,0-0.3,0-0.5c-0.1-4,0.4-8.1-1-12.1c0.7-6.2-0.7-12.4-1.2-18.6
			C776.4,610.5,776.2,606,776,601.5z"/>
		<path d="M863.6,735.9c-3.7,0.6-7.5-0.8-11,1.1c-1.4-0.8-1.8-2.3-2.6-4.1c0,0.1,0-0.4,0-0.9c0.6-6.2-1.7-12.3-1-18.6
			c-1.5-3.1-0.4-6.5-1.1-9.5c-0.8-3.6-0.2-7.2-1.1-10.6c-1-3.6-0.5-7.1-0.8-10.6c-0.1-1.1,0.1-2.1-0.8-3.2c-0.8-1.1-0.2-2.4,1.2-4.6
			c4.3-0.1,8.9,0.5,13.2-1.4c0.7-0.5,0-1.4,0.6-2.3c1-0.5,2.2-0.3,3.4-0.1c0.1,0.2,0.3,0.3,0.3,0.5c-0.6,5.6,1.7,11,1,16.6
			c1.4,3.1,0.5,6.5,1.1,9.6c0.9,4,0.1,8.2,1.1,12c1,3.8,0.4,7.3,0.9,11c-1.2,0.1-2,0.2-2.8,0.3C864.1,726,866.4,731.3,863.6,735.9z"
			/>
	</g>
</g>
</svg>
