<?xml version="1.0" encoding="utf-8"?>
<!-- Generator: Adobe Illustrator 17.1.0, SVG Export Plug-In . SVG Version: 6.00 Build 0)  -->
<!DOCTYPE svg PUBLIC "-//W3C//DTD SVG 1.1//EN" "http://www.w3.org/Graphics/SVG/1.1/DTD/svg11.dtd">
<svg version="1.1" id="Layer_1" xmlns="http://www.w3.org/2000/svg" xmlns:xlink="http://www.w3.org/1999/xlink" x="0px" y="0px"
	 viewBox="0 0 1440 937" enable-background="new 0 0 1440 937" xml:space="preserve">
<g>
	<g>
		<path d="M863.6,671.1c-2.5-1-4.6,0.9-7,0.9c-2.3-0.1-4.8-0.6-6.9,0.1c-3.4,1.1-6.8,0.3-10.1,1c-2.2,0.5-4.4,0.9-6.6,0.9
			c-2.2,0-4.3,0-6.4,0c-0.8-0.9-0.6-1.9-0.2-2.8c0.7-1.5,2.2-1.2,3.8-1.5c-0.4-1.8,0.7-3.7-1-5.4c-0.2-0.2-0.1-0.6,0-1
			c0.7-5.6-1.7-11-1-16.6c0.3-2.4-1.4-4.5-1.1-7.1c0.3-2.1,0.7-4.6-0.9-6.6c-0.1-0.1,0-0.3,0-0.5c0-2.3-0.1-4.7,0-7
			c0.2-2.1-1.4-3.8-1.1-6.1c0.9-6.1-1.5-12-1-18.1c0.2-1.7-1.9-3.1-0.2-5.7c0.4-0.3,1.8,0,3,0.2c2.7,0.5,4.9-1.4,7.6-1.1
			c2.5,0.2,5.2,0.7,7.4-0.1c2.9-1.1,5.8-0.6,8.6-0.8c0.9-0.1,1.8,0.1,2.8-0.6c1.4-1.1,2.7-0.2,3.7,1.1c-0.4,5,1.8,9.9,1,15
			c1.6,3.2,1,6.7,0.9,10.1c0,2.1,1.5,3.8,1.1,6.1c-0.3,1.9-0.6,4.2,0,5.9c1.3,3.4,0.2,6.8,1,10.1c0.9,3.9,0.3,7.8,1.1,11.6
			c0.7,3.4,0.8,6.7,0.8,10.1c0,1.1,0.7,1.7,1,2.2c0.2,1.2-0.6,1.5-1,2.1C862.3,668.8,864.8,669.2,863.6,671.1z"/>
	</g>
</g>
</svg>
