<?xml version="1.0" encoding="utf-8"?>
<!-- Generator: Adobe Illustrator 17.1.0, SVG Export Plug-In . SVG Version: 6.00 Build 0)  -->
<!DOCTYPE svg PUBLIC "-//W3C//DTD SVG 1.1//EN" "http://www.w3.org/Graphics/SVG/1.1/DTD/svg11.dtd">
<svg version="1.1" id="Layer_1" xmlns="http://www.w3.org/2000/svg" xmlns:xlink="http://www.w3.org/1999/xlink" x="0px" y="0px"
	 viewBox="0 0 1440 937" enable-background="new 0 0 1440 937" xml:space="preserve">
<g>
	<g>
		<path d="M1022.5,808.9c-3.1-2.1,0-5.6-2.5-7.4c0-2.8,0.3-5.7-0.1-8.5c-0.3-2.7,1-5,1.1-7.6c0.1-2.7,0-5.3,0-7.9
			c-1-1-1.9-1.9-2.7-2.7c-1.3-4.1,1.1-7.8,0.8-11.7c-0.3-3.8-0.8-7.8,0.1-11.4c1.4-5.6,0.8-11.1,0.7-16.6c0-4.3,1.8-8.3,1-13
			c3.5,0.2,6.8-0.9,10.1,0.8c1,0.5,2.6,0.1,3.9,0.1c2,0,4,0,6,0c1.8,0,3.8,0.4,5.5-0.1c1.9-0.6,3.5,1.9,5.2,0.1
			c1.6,1.9,3.7,0.7,5.6,1c1.8,0.2,3.7,0,5.5,0c2,0,4,0,6,0c0.5,0.8,1.3,0.9,2,1.2c0.6,0.2,1,0.9,1.3,1.2c0.7,1.4-1.2,1.7-0.9,2.8
			c0.7,3-0.9,5.7-1.1,8.6c-0.3,2.7-0.4,5.6-1.8,8.2c-0.3,0.6-0.1,1.6-0.1,2.5c0,2.3,0.7,5-0.2,6.9c-1,2.1,0.1,4.7-1,6
			c-1.7,2,0.4,4.8-1.8,6.3c0,2.2,0.4,4.5-1,6.6c0.5,3.8-2.3,6.9-2.2,10.6c-2.1,1.9,0.6,5-1.8,6.8c-0.1,4.8-1.7,9.4-2.2,14.2
			c-1.1,0.8-2.5,0.3-3.8,0.3c-5.9-0.2-11.6,1.8-17.6,1c-3.9,1.8-8,0.8-12.1,1C1023.6,808,1023.1,808.5,1022.5,808.9z"/>
	</g>
</g>
</svg>
