<?xml version="1.0" encoding="utf-8"?>
<!-- Generator: Adobe Illustrator 17.1.0, SVG Export Plug-In . SVG Version: 6.00 Build 0)  -->
<!DOCTYPE svg PUBLIC "-//W3C//DTD SVG 1.1//EN" "http://www.w3.org/Graphics/SVG/1.1/DTD/svg11.dtd">
<svg version="1.1" id="Layer_1" xmlns="http://www.w3.org/2000/svg" xmlns:xlink="http://www.w3.org/1999/xlink" x="0px" y="0px"
	 viewBox="0 0 1440 937" enable-background="new 0 0 1440 937" xml:space="preserve">
<g>
	<g>
		<path d="M976.9,851.8c0.3-3.7,2.6-6.4,3.3-9.9c4.3,0.8,8.3-1.9,12.6-0.6c0.7,3.4,1.5,6.9,2.3,10.6
			C988.9,851.8,983,851.8,976.9,851.8z"/>
		<path d="M1024.3,850.8c-0.5-0.5-0.8-0.8-1-1c0.7-3.3,1.3-6.5,1.9-9.9c5-0.1,9.7,1.9,14.1,2.5c1.2,2.6-0.6,5,2,6.4
			c-0.7,0.8-1.1,1.3-1.7,1.9C1034.8,850.8,1029.7,850.8,1024.3,850.8z"/>
	</g>
</g>
</svg>
