<?xml version="1.0" encoding="utf-8"?>
<!-- Generator: Adobe Illustrator 17.1.0, SVG Export Plug-In . SVG Version: 6.00 Build 0)  -->
<!DOCTYPE svg PUBLIC "-//W3C//DTD SVG 1.1//EN" "http://www.w3.org/Graphics/SVG/1.1/DTD/svg11.dtd">
<svg version="1.1" id="Layer_1" xmlns="http://www.w3.org/2000/svg" xmlns:xlink="http://www.w3.org/1999/xlink" x="0px" y="0px"
	 viewBox="0 0 1440 937" enable-background="new 0 0 1440 937" xml:space="preserve">
<g>
	<g>
		<path d="M927,853.1c-2.1-0.4-4,0.6-5.7-1.1c-1.9,1.3-3.8-0.3-5.7,0c-1.5,0.2-3,0.1-4.5,0c-4.7,0-9.4,0.4-14.1-1.4
			c-2-1.9-2.1-5.1-4.1-7.2c0-2,0.2-4,0-6c-0.7-7.7,1.9-15.3,0.9-23.2c1.5-0.4,2.9-0.8,4.2,0.2c0.9,0.7,1.9,0.3,2.8,0.4
			c2.2,0.1,4.3,0,6.5,0c2.8,0,5.7,0.1,8.5,0c2.6-0.2,4.9,1.9,7.4,0.9c1.8,1.3,1.9,3.5,3.7,4.6c-0.6,1.3,1.2,1.7,1.1,3.1
			c-0.3,3.5,0.5,7.1-0.2,10.4c-1,4.6-0.7,9.2-0.9,13.8C927,849.4,927,851.1,927,853.1z"/>
	</g>
</g>
</svg>
