<?xml version="1.0" encoding="utf-8"?>
<!-- Generator: Adobe Illustrator 17.1.0, SVG Export Plug-In . SVG Version: 6.00 Build 0)  -->
<!DOCTYPE svg PUBLIC "-//W3C//DTD SVG 1.1//EN" "http://www.w3.org/Graphics/SVG/1.1/DTD/svg11.dtd">
<svg version="1.1" id="Layer_1" xmlns="http://www.w3.org/2000/svg" xmlns:xlink="http://www.w3.org/1999/xlink" x="0px" y="0px"
	 viewBox="0 0 1440 937" enable-background="new 0 0 1440 937" xml:space="preserve">
<g>
	<g>
		<path d="M984.4,811.1c-0.5,0.5-1.1,1.1-1.7,1.7c-6.8,0.6-13.5,2-20.5,1c-1.6-2-1.3-4.5-1.3-6.9c0-2.2,2.1-4.1,0.8-6.2
			c2.5-2.5,2.2-5.3,2.2-8.3c-0.6-0.4-1.4-1-2.2-1.7c0.7-2,1.4-3.7,2.1-5.6c-1.8-4-0.5-8.4-1-13.1c6.3,0,12.5-0.8,18.5,0.2
			c5.3,0.9,10.4,0.6,15.6,0.7c3.4,0.1,6.6,1.5,10.1,1.1c3.4-0.4,7-0.1,10.3-0.1c1.3,1.2,2.5,2.4,3.7,3.5c0,3.1,0.7,6.3-0.2,9
			c-1.4,4.7-0.4,9.4-0.9,13.9c0.7,0.7,1.3,1.3,1.9,1.9c-1.4,0.8,0.6,2.2-0.8,3.3c-0.7,0.5-0.1,2.5-0.1,3.8c-5.2,2-10.7,2.2-15.8,1.3
			c-4.1-0.8-8.1-0.4-12.1-0.8C990.4,811.8,987.4,810.7,984.4,811.1z"/>
	</g>
</g>
</svg>
