<?xml version="1.0" encoding="utf-8"?>
<!-- Generator: Adobe Illustrator 17.1.0, SVG Export Plug-In . SVG Version: 6.00 Build 0)  -->
<!DOCTYPE svg PUBLIC "-//W3C//DTD SVG 1.1//EN" "http://www.w3.org/Graphics/SVG/1.1/DTD/svg11.dtd">
<svg version="1.1" id="Layer_1" xmlns="http://www.w3.org/2000/svg" xmlns:xlink="http://www.w3.org/1999/xlink" x="0px" y="0px"
	 viewBox="0 0 1440 937" enable-background="new 0 0 1440 937" xml:space="preserve">
<g>
	<g>
		<path d="M1016.8,723c0.5,5.7,0.1,11.2-1.2,16.9c-1.1,0-2.5,0.7-3.8-0.5c-0.8-0.8-1.9-0.3-2.9-0.3c-2.8-0.1-5.7-0.3-8.5,0
			c-4.6,0.5-9-1.4-13.6-1.1c-4.5,0.2-9,0-13.5,0.1c-0.9,0-1.3-0.7-2.1-1c-0.2,0.6-0.4,1.2-0.7,1.9c-3.4,0-7,0.6-10.3-0.1
			c-6-1.3-12.2,0-18.1-1c-6.7-1.2-13.4-0.5-20.1-0.8c-1.1,0-2.1-1.2-2.9-0.7c-1.4,0.9-2.1-0.9-3.4-0.5c-1,0.4-2.3,0.1-3.4,0.1
			c-0.6-1.9-2.5-3.4-0.5-5.7c0.7-0.7,0.1-2.6,0.1-3.9c2-1.4,4.1-1.7,6.4-1.5c8.6,0.6,17-1.6,25.6-1c5.6-1.8,11.5-0.1,17-1.2
			c5.1-1,10.2,0,15.1-1c4.6-0.9,9.1-0.7,13.6-0.8c1.9-0.1,3.8-0.1,5.6,0.9c1.5,0.8,3.5-0.6,5.2,0.9c0.7,0.6,2.2,0.2,3.4,0.2
			C1008.1,723,1012.4,723,1016.8,723z"/>
	</g>
</g>
</svg>
