<?xml version="1.0" encoding="utf-8"?>
<!-- Generator: Adobe Illustrator 17.1.0, SVG Export Plug-In . SVG Version: 6.00 Build 0)  -->
<!DOCTYPE svg PUBLIC "-//W3C//DTD SVG 1.1//EN" "http://www.w3.org/Graphics/SVG/1.1/DTD/svg11.dtd">
<svg version="1.1" id="Layer_1" xmlns="http://www.w3.org/2000/svg" xmlns:xlink="http://www.w3.org/1999/xlink" x="0px" y="0px"
	 viewBox="0 0 1440 937" enable-background="new 0 0 1440 937" xml:space="preserve">
<g>
	<g>
		<path d="M893,842c-3.5,0-6.7,0.7-9.4-0.1c-5.4-1.6-10.8-0.3-16.5-1.1c0.1-1.7-0.8-3.5,0.7-5.3c0.5-0.6,0.1-1.9,0.1-2.9
			c0-4.3,0.1-8.7,0-13c-0.1-2.9,1.2-5.6,1.4-8.4c0-0.2,0.4-0.5,0.8-0.8c3.6,1.4,7.5,0.8,11.2,0.6c3.8-0.2,7.3,1.4,11.4,1.1
			c0.6-3.4-0.3-7,0.6-11c-1.2-1.4-3.5-0.9-5.7-1c-0.8,0-1.7,0-2.5,0c-2.8,0-5.7-0.1-8.5,0c-2.6,0.1-4.8-2.2-8.2-0.3
			c2.3-7.7,0.9-14.6,1.5-21.4c8.2-1.5,16.3,1.4,24.7,0.6c0-5.5,0-11.1,0-16.9c-7.5,0.5-14.9-1.7-22.5-1c-0.3,0-0.6-0.1-1.4-0.2
			c0.6-6.1,1.7-12.2,0.9-18.8c5.5,0,10.8,0,16.1,0c2.7,1.7,5.7,0.8,8.6,1c1.2-1.7,3.1-1.2,4.6-0.9c6.7,1.5,13.5,0,20.1,1.1
			c6.4,1.1,12.7,0.5,19.1,0.7c2.3,0.1,4.2,1.5,6.6,1.1c2.1-0.3,4.3-0.1,6.9-0.1c0.5,0.7,1.1,1.7,1.8,2.7c0.1-0.1,0.2-0.2,0.4-0.4
			c0.1,0.3,0.2,0.6,0.2,0.9c0,3,0.6,6.1-0.1,9c-1.8,7.9-0.4,15.7-0.9,23.6c0,0.3,0.1,0.6,0.2,0.9c2.1,2.6,5,0.6,7.1,1.3
			c2.3,1.1,1.7,2.9,1.7,4.5c-1,1.3-2.1,2.1-3.8,1.2c-2.2-1.2-4.3-1.5-6.1,0.7c2.6,1.7,5.6,1.7,8.4,1.6c2.8,2.3,1,5.1,1.6,7.4
			c-0.5,0.5-0.9,0.9-1.4,1.4c-1.9,0-4.1,0-6.4,0c-0.4-0.4-0.9-1.2-1.9-0.8c-0.1,0.3-0.4,0.5-0.4,0.8c0.3,4.1-1.5,7.9-1.1,12.1
			c0.4,4,0.8,8.1-0.1,12c-1.5,6.6-0.3,13.1-1,19.7c-0.6,0.6-1.3,1.2-0.9,2.4c-4.8,0-9.1-0.2-13.4,0.1c-1.9,0.1-3.2-1.5-5.1-1.2
			c-1.6,0.3-3.3,0.1-5.2,0.1c-1.6-7.5,1.6-14.9,0.5-22.6c-2.1-1.3-2.1-4.2-4.1-6.1c-1.1-0.6-2.5-0.3-3.7-0.2
			c-3.8,0.4-7.3-1.5-11.1-1.1c-3.8,0.4-7.7-0.1-11.5,0.2c-1.3,0.1-1.7-1.8-3.2-0.9c-0.7,1.1-0.2,2.5-0.3,3.7c-0.1,1.7,0.1,3.3-0.1,5
			c-0.1,1.6,0.8,3.4-1,4.6c1.9,1.4-0.7,2.6-0.1,4.2c0.5,1.5,0.1,3.3,0.1,5C893,838.3,893,840,893,842z"/>
	</g>
</g>
</svg>
