<?xml version="1.0" encoding="utf-8"?>
<!-- Generator: Adobe Illustrator 17.1.0, SVG Export Plug-In . SVG Version: 6.00 Build 0)  -->
<!DOCTYPE svg PUBLIC "-//W3C//DTD SVG 1.1//EN" "http://www.w3.org/Graphics/SVG/1.1/DTD/svg11.dtd">
<svg version="1.1" id="Layer_1" xmlns="http://www.w3.org/2000/svg" xmlns:xlink="http://www.w3.org/1999/xlink" x="0px" y="0px"
	 viewBox="0 0 1440 937" enable-background="new 0 0 1440 937" xml:space="preserve">
<g>
	<g>
		<path d="M910.4,636.9c-0.4-0.4-0.7-0.7-1.4-1.4c0.5-3.6-0.5-7.5,0.9-11.6c0.8-2.5,0.2-5.6,0.2-8.5c6.6-1.6,13,1.1,19.6,0.6
			c2.6-3.9,1-8.4,1.5-13c-6.7,0.7-12.9-1.6-19.3-0.9c-0.1,0-0.3-0.1-0.6-0.1c-1.4-6.2,1.5-12.2,0.6-18.5c1.5-0.6,2.9-0.8,4.2,0.2
			c0.4,0.3,0.8,0.5,1.3,0.4c4.9-0.7,9.7,1.4,14.6,1c3.3-0.3,6.3,1.9,9.5,0.9c1.2,3,3.5,3.3,6.1,3c0.6-0.6,1.2-1.2,1.7-1.7
			c2.9,0,5.7-0.3,8.4,0.2c0.9,0.2,2.1-0.9,3,0.5c0.3,0.5,2.2,0.1,3.4,0.1c4.9-0.1,9.6,2.1,14.3,0.8c0.8,1.2,1.7,1.5,2.6,1.4
			c0,2.7,0.4,5.1-0.1,7.3c-1.4,5.8-0.1,11.8-1.1,17.5c-0.9,5.1-0.1,10.2-1,15.1c-0.7,3.5-0.7,7-0.9,11c-2.2-0.5-4.4,0.9-6.5-1
			c-0.6-0.5-1.9-0.1-2.9-0.1c-8.9,0.6-17.7-1.8-26.5-1c-5.3-1.8-10.8-0.1-16-1.2C920.7,636.7,915.5,637.4,910.4,636.9z"/>
		<path d="M976,650.2c0-1.6,0-2.8,0-3.8c0.5-0.2,0.8-0.4,1.1-0.3c6.7,0.5,13.5,1.4,20.3,1c4.8,1.9,9.7,0.9,14.6,0.9
			c2.3,0,4.2,1.9,6.6,1c0.9,5.1,0.5,11.4-0.4,18c-0.4,2.9,0,6-0.1,9c-0.1,1.6,0.7,3.3-0.9,4.6c-0.2,0.2,0,1-0.1,1.4
			c-0.1,2.1,1.8,3.8,0.2,6.3c-1,1.5-0.2,4.2-0.2,6.4c0,2.3,0,4.6,0,6.9c-3.2,1.7-6.6,1.5-10,1.4c-1.8-0.1-3.2,1.3-5.1,1.1
			c-1.5-0.2-3.3-0.5-4.6,0.9c-0.2,0.2-0.6,0.1-1,0c-4.3-0.7-8.3,1.1-12.6,1.2c-2.6,0.1-5.4,0.3-8.1,0.9c-2.5,0.5-5.1,0.7-7.6,1
			c-1.5,0.2-3,1-4.6,0.9c-1.7-0.1-3.3,0-5,0c-0.5-0.5-0.9-0.9-1.2-1.2c-1.3-3.5,1-6.5,0.8-9.7c-0.2-3.3-0.7-6.8,0.1-9.9
			c0.8-2.9,0.8-5.8,0.8-8.6c0-7.5,1.6-15,1.1-22.6c-0.1-2.1,1.5-4.2,0.8-6.7C965.9,650.2,970.7,650.2,976,650.2z M978.7,665
			c0.8,2.4-0.4,3.9-0.7,5.6c-0.3,2-0.1,4-0.1,6c0,1.8,0.6,4-0.2,5.4c-0.9,1.7,1.2,3.4-0.7,4.7c0.6,0.5,1,1,1.5,1.3
			c6.3-2.1,13-1.3,19.1-3.2c1-6.2,1.9-12.3,1.1-18.9c-3.1,0.4-6-0.5-9-0.8C986.3,664.7,982.8,665,978.7,665z"/>
		<path d="M950.8,711.2c-5.9-0.9-10.4,1-15.2,1c-2.4,0-5.2,0.2-7.5,1c-2.6,0.9-5.2,0.2-7.6,0.9c-2.9,0.9-5.9,0.2-8.6,1.1
			c-2.3,0.7-4.4,0.6-6.5,0.8c-0.5-0.8-1.6-1.1-1.4-2.1c0.5-3.5-0.9-7.1,0.9-10.6c0.8-1.6,0.1-3.9,0.1-5.8c4.1-2.3,8.8-1.6,13.1-2.2
			c4.3-0.6,8.6-2.1,12.9-1.1c1.3-0.9,2.8-1.1,3.7-2.3c0.1-0.3,0.3-0.6,0.3-0.9c0-3.7,0.1-7.3,0-11c0-2.9,2-5.5,0.6-8.9
			c-1.2,0-2.6-0.1-4.1,0c-6.4,0.6-12.6-2-18.8-0.9c-1.6-1.2-2.4-3.1-4.5-3.3c-1.5-3.6-1.9-7.3-0.4-11.1c0.3-0.9,0.2-1.9,0.2-2.9
			c0-3.5,0-7,0-10.2c1.6-2.4,4-2.1,5.5-1.3c1.5,0.8,2.8,0.6,4.2,0.7c1.5,0.1,3,0,4.5,0c3.4,0,6.8-0.5,10.1,1.1
			c1.6,0.9,2.5,3,4.8,3.2c0,1.5,0,3,0,4.6c6.3,0.5,12.8-0.9,19,2.3c-0.4,1.8,0.5,3.6-1,5.5c-0.6,0.8-0.2,2.6-0.1,3.9
			c0.6,9.2-2,18.3-0.8,27.3c-1.2,1.7-1.6,3.6-3.2,4.5c0,2.9-0.2,5.7,0.1,8.5C951.3,705.6,948.7,707.8,950.8,711.2z"/>
		<path d="M895,598.1c0.3,4.4-1.3,8.3-1.1,12.4c0.1,4-1.5,7.9-0.5,12.4c1.2,0,2.7,0.1,4.1,0c1.5-0.1,2.5,1.8,4.4,0.9
			c0.3,5.2,0.4,10.1-1.2,15.1c-1.7,0-3.5,0-5.3,0c-1.6,6,1.4,11.7,0.6,17.5c0.8,1.1,2,0.1,2.8,0.8c0.4,0.3,0.7,0.7,1.3,1.3
			c-0.5,2.6,0.6,5.4-0.9,8.3c-0.8,1.6-0.1,3.9-0.1,6c-1.3,0.1-2.4,0.1-4,0.2c0.3,1.8-0.9,3.7,0.9,5.4c0.3,0.2,0.1,1,0,1.5
			c-0.7,5.4,1.4,10.6,1.1,16.1c-0.3,5.5-0.1,11-0.1,16.4c-0.5,0.5-1,1-1.4,1.4c-1.5-1.2-3.5-1.6-5.2-1.8c-2.1-0.3-3.4-1.5-4.8-1.8
			c-0.9-1.6-0.6-2.7-0.6-3.9c0-5.1-1.7-10-1-15.1c-1.6-2.9-0.4-6.1-1.1-9.1c-0.9-3.9-0.3-7.8-1.1-11.6c-0.7-3.4,0-7-1-10
			c-1.5-4.2,0.5-8.8-1.8-12.7c-0.1-0.1,0-0.3,0-0.5c0.6-5.6-1.7-11-1-16.6c0.3-2.3-1.4-4.2-1.1-6.6c0.3-2.1,0-4.3,0.1-6.5
			c0.3-5.2,1.5-10.3,1-15.6c1.5-2.5,0.4-5.5,1.1-8.1c1-4,0.9-8.1,0.9-12.1c0-1,1-1.2,1.4-2.2c3.6,1.9,7.6,0.1,11,1.4
			c3.8,1.4,7.5,0,11.7,1.1c1,0.6,1.6,2.2,0.9,3.5c-1.5,3-0.7,6.1-0.9,9.1c-0.1,1,0,1.9,0,3.2C900.8,598.1,897.9,598.1,895,598.1z"/>
		<path d="M1015.9,723c-3.8,0-7.6-0.3-11.3,0.1c-3.7,0.3-6.9-1.6-10.5-1.2C999,720.4,1009.3,720.9,1015.9,723z"/>
	</g>
</g>
</svg>
