<?xml version="1.0" encoding="utf-8"?>
<!-- Generator: Adobe Illustrator 17.1.0, SVG Export Plug-In . SVG Version: 6.00 Build 0)  -->
<!DOCTYPE svg PUBLIC "-//W3C//DTD SVG 1.1//EN" "http://www.w3.org/Graphics/SVG/1.1/DTD/svg11.dtd">
<svg version="1.1" id="Layer_1" xmlns="http://www.w3.org/2000/svg" xmlns:xlink="http://www.w3.org/1999/xlink" x="0px" y="0px"
	 viewBox="0 0 1440 937" enable-background="new 0 0 1440 937" xml:space="preserve">
<g>
	<g>
		<path d="M960,571.5c-0.7,0.7-1,1-1.3,1.3c-2.9,0.9-5.3-0.9-8.1-1c-2.7,0-5.6,1.2-8.1-0.9c-0.2-0.2-0.7-0.1-1,0
			c-5.8,0.8-11.4-1.6-17.1-1c-2.5,0.3-4.6-1.3-7.1-1.2c-2.3,0.2-4.9,0.9-7.1-0.9c-0.1-0.1-0.3,0-0.5,0c-3.7-0.1-7.4-0.4-11.1-0.8
			c-4.1-0.5-8.3-0.4-12.9-1.6c1.6-4.5,1.2-9.2,1.3-13.9c1.6-1.6,0.9-3.7,1-5.6c0.3-5.2,1.6-10.3,1-15.6c1.6-3.2,0.1-7,1.2-10
			c1.4-3.9-0.4-8.1,1.8-11.7c0.1-0.1,0-0.3,0-0.5c-0.4-6.4,1.6-12.7,1.1-19.1c-0.3-3,1.6-5.9,1-9.1c-0.1-0.6,0-1.3,0-1.9
			c-5.8-0.4-11.3-0.8-16.8-1.2c-0.6,0-1.3,0-1.7,0c-2,5.1-1.6,10.1-1.4,15.1c0.1,2.2-1.5,3.9-1.2,6.1c0.3,1.8,0.6,3.9-0.9,5.6
			c-0.1,0.1,0,0.3,0,0.5c0.7,5.6-1.5,11-0.9,16.6c0.5,4.5-1.6,8.7-1.1,13.1c-1.7,2.7-0.8,5.7-1,8.6c0,0.5-0.1,1,0,1.5
			c0.5,1.8-2.6,3.4-0.2,5.3c-0.2,1.8,0.9,3.4,1.4,5c0.9,2.9,1.5,5.4-0.1,8.3c-0.5,0.9,0.2,2.3-0.6,3.6c-3.5-1.5-7.2-1.1-11.1-1.1
			c-0.6-0.7-1.4-1.6-2.4-2.9c0.9-4.1-1.6-8.4-1-13c0.2-1.8-1.2-3.2-1.1-5.1c0.1-1.8,0.6-3.7-0.7-5.7c-0.8-1.3,0.4-3.8-0.3-5.3
			c-1.1-2.3-0.6-4.4-0.9-6.6c-0.4-2.5,1.4-4.6,1.1-7.1c-0.3-2.3-0.7-4.9,0.1-6.9c1.1-3.1,0.6-6.1,0.9-9.1c0.2-2.2,1.3-4.2,1.1-6.6
			c-0.2-2.2-0.6-4.5,0.9-6.6c0.2-0.3,0.1-1,0-1.5c-0.7-5.9,1.6-11.7,1-17.6c1.4-3.6,0.4-7.5,1.2-11c1-4.2,0.6-8.4,0.9-12.5
			c0.5-0.5,0.8-0.8,1.5-1.5c1.4,0.4,3.1-0.7,4.8,0.7c0.5,0.4,1.6,0.3,2.4,0.3c1.2,0,2.3,0.1,3.5,0c7.6-0.7,15,1.6,22.6,1
			c0.8-0.1,1.3,0.6,1.9,1.2c0.9-3.4,0.8-6.6,2.5-9c1.6-0.8,1.9,0.9,3,0.8c3.2-0.1,6.5-0.4,9.6,1c5.9-0.7,11.7,1.5,17.6,1
			c2.4-0.2,4.5,1.4,7.1,1.1c2.2-0.3,4.6-0.6,6.6,0.9c0.2,0.2,0.7,0.1,1,0c5.3-0.7,10.3,1.6,15.6,1c2.1-0.3,3.9,1.4,6.1,1.1
			c1.9-0.3,4.3-0.7,5.9,0.1c3.8,1.8,8.1-0.3,11.7,1.9c0.1,0.1,0.3,0,0.5,0c5.6-0.7,11,1.6,16.6,1c2.4-0.3,4.5,1.4,7.1,1.1
			c2.2-0.3,4.6-0.6,6.6,0.9c0.1,0.1,0.3,0,0.5,0c5.6-0.7,11,1.7,16.6,1c2.2-0.3,3.9,1.5,6.1,1.1c2.1-0.3,4.5-0.6,6.4,0.1
			c3.2,1.2,6.4,0.8,9.6,0.8c2.3,0,4.1,1.8,7,0.8c-0.7,2.2,0.5,4.1-1.1,5.6c-0.2,0.2-0.2,0.6-0.2,0.9c0.6,4.4-1.1,8.7-0.9,13.1
			c0.1,2.7-1.4,4.9-1.2,7.6c0.2,2.3,0.7,4.9-0.9,7.1c-0.2,0.2-0.1,0.7,0,1c0.7,5.4-1.5,10.7-1,16.1c0.2,1.6-1.5,2.5-1.1,4.1
			c0.3,1.4,0.1,3,0.1,4.6c-5.1,0.4-9.9,2.2-14.9,2.8c-5,0.6-10,1.6-14.9,2.5c-5.1,0.9-10.1,2.2-15.3,2.9c-5,0.7-9.9,2.1-14.9,2.6
			c-5.1,0.5-10,1.6-14.9,2.7c-4.9,1.1-10.1,0.9-15,3.1c0.5,5.5-0.9,10.9-1.2,16.5c-0.2,3.8-0.1,7.9-1,11.6
			C959.9,564.1,960.2,567.8,960,571.5z M985.7,509.7c1.1-0.7,1.7-1.9,1.2-3c-2-4.6-1.8-9.6-3.1-14.2c-0.7-2.4-0.2-4.9-1-7.1
			c-1.7-4.5-1.5-9.3-2.8-13.8c-1-3.4-1.3-6.9-1-10.1c-0.7-0.7-1-1-1.6-1.6c-2.8,0.8-5.3-1.2-8.3-1c-2.7,0.1-5.4,0.4-8.1-0.7
			c-2.2-0.9-5.1,0.3-7.4-0.3c-2.4-0.7-4.7-0.9-7.5-0.8c0.2,1-0.2,1.8-1.2,2.5c0.8,6-1.7,11.9-0.9,17.9c0,0.2,0.1,0.4,0,0.5
			c-1.7,2.4-1,5.1-0.9,7.6c0.1,2.6-1.6,4.9-1.1,7.6c0.8,4.6-1.6,9-1,13.6c-1.8,3.6-0.6,7.3-1.1,11.4c4.3-0.9,7.9,1.3,11.8,0.9
			c2.3-0.2,4.9-0.8,7.1,0.9c0.4,0.3,1.6,0.2,1.8-0.2c1.2-1.5,2.9-0.2,4.4-1.2c-0.2-1.3,0.4-2.9-0.9-4.2c0.4-0.4,0.7-1,1.1-1.1
			C972.1,512.1,978.9,510.9,985.7,509.7z M1011,508.6c0-2.7,0.2-5.1-0.1-7.4c-0.3-2.4,1.3-4.2,1.2-6.6c-0.2-2.8-0.8-5.9,0.9-8.6
			c-0.7-4.9,1.1-9.7,1-14.6c0-1.7-0.3-3.4,0.9-5.1c0.9-1.2-0.4-2.4-1.5-3.3c-2.7,0-5.5,0.5-7.9-0.1c-2.6-0.7-5.1-0.7-7.6-0.9
			c-2.2-0.1-4.4-0.4-6.9-0.6c0,0.9-0.3,1.9,0,2.8c2.2,6.6,2.4,13.6,3.9,20.4c0.6,2.6,0.8,5.4,1.3,8c0.6,2.9,1.5,5.8,1.7,8.7
			c0.2,3.2,2,6,2,9.2c0,1.4,0.8,2,2,2.7c1.9-1.9,4.5-0.7,6.7-1.4C1010.5,511.4,1009.5,509.2,1011,508.6z M1042.4,470.9
			c-5,1.1-10-2.1-15.7-0.5c1.4,3-0.9,5.6-0.7,8.5c0.5,5.9-1.8,11.6-1,17.6c0.1,0.4,0,1-0.3,1.3c-1.5,1.6-0.2,3.4-0.9,5.5
			c6.3-2.6,12.7-1.6,18.2-4.4c0.4-4.8-0.9-9.5,0.5-13.7c1.4-4.3-1-8.8,1.7-12.6C1043.5,472,1043,471.5,1042.4,470.9z M905.2,496.9
			c-0.7,6-1.3,11.4-2,16.9c0.3,0.3,0.7,0.7,1.2,1.2c3.7,0.3,7.3-0.2,11.1,0.9c3.5,1,7.4-0.6,11,1.1c1.2-2.8,2-5.7,1.4-8.8
			c-0.5-3.1,2.1-5.8,0.8-8.9c-4.3-0.4-8.5-1.7-12.9-1.2c-0.3,0-0.8,0.1-1,0C911.8,495.9,908.5,497.5,905.2,496.9z M912.1,555.9
			c-0.8-5.4,1.5-10.3,0.9-15.4c0-0.2-0.1-0.4,0-0.5c2-4.2,0.5-8.6,1.1-13c-3.8-0.2-7.2,0.4-10.3-1.2c-0.6,0.6-1.1,1-1.6,1.5
			c-0.8,2.8,0.1,5.6-1,8.6c-1,2.6-0.2,5.9-0.2,8.9c0,0.5,0.2,1.2,0,1.5c-1.9,2.4-0.6,5.1-1,7.6c-0.2,1,0.8,1.3,1.3,2.1
			C904.7,555.9,908.2,555.9,912.1,555.9z M927.7,459c-4.9,0.3-9.6-2.1-14.7-0.7c-0.1,3.7-0.1,7.3-0.9,11c-0.8,3.7,0.5,7.7-1.4,11.8
			c5.5-1.1,10.3,1.8,15.3,0.5c0-2.7-0.7-5.5,0.2-7.7c1-2.6,0.7-5.1,0.8-7.6C927,464,929,461.9,927.7,459z M930.9,533.9
			c0.5,7.1-2.1,13.4-0.6,20c4.1,0.2,8.2-0.6,12.1,1.3c0.5-0.6,1-1.1,1.6-1.9c-0.9-5.8,2.1-11.8,0.8-17.9
			C940.4,533.3,935.8,534.2,930.9,533.9z"/>
		<path d="M972,542.5c0.4-0.4,0.7-1,1.2-1.1c2-0.5,3.9-1,5.9-1.4c2.8-0.4,5.5-1,8.2-1.8c2.3-0.7,4.9,0.4,7-1.2c5,0.3,9.6-2.4,14.6-2
			c4.2-1.9,8.9-1.4,13.3-2.9c1.6-0.6,3.6-0.1,5.9-0.1c-0.6,3.8,0.1,7.3-0.9,11.1c-1,4.1,0.5,8.7-0.4,12.9c-1.6,7.5-0.2,15.1-1.1,23
			c-2.7-0.4-5.6,1.1-8.3-0.9c-0.2-0.2-0.6-0.1-1-0.1c-5.6,0.6-11-1.7-16.6-0.9c-2.4,0.3-4.3-1.2-6.6-1.1c-2.3,0.1-4.8,0.6-6.9-0.1
			c-3.2-1.1-6.4-0.7-9.6-0.9c-2.2-0.1-4.1-2-7.1-0.3c0.6-5-0.6-9.2,1.2-13.3c-0.7-3.3,1.3-6.3,1-9.6
			C971.8,548.7,972,545.6,972,542.5z"/>
	</g>
</g>
</svg>
