<?xml version="1.0" encoding="utf-8"?>
<!-- Generator: Adobe Illustrator 17.1.0, SVG Export Plug-In . SVG Version: 6.00 Build 0)  -->
<!DOCTYPE svg PUBLIC "-//W3C//DTD SVG 1.1//EN" "http://www.w3.org/Graphics/SVG/1.1/DTD/svg11.dtd">
<svg version="1.1" id="Layer_1" xmlns="http://www.w3.org/2000/svg" xmlns:xlink="http://www.w3.org/1999/xlink" x="0px" y="0px"
	 viewBox="0 0 1440 937" enable-background="new 0 0 1440 937" xml:space="preserve">
<g>
	<g>
		<path d="M1098.9,586.6c-0.4,0.4-0.7,0.7-1.1,1.1c-0.6,0.4-0.6-0.5-1-0.5c-1.3-0.1-2.7-0.4-3.9-0.2c-1.5,0.3-2.2-1.5-3.6-1.1
			c-1.7,0.5-3.1-0.5-4.6-1c-2-0.7-3.9-1.2-6.1-1c-2.4,0.2-4.6-1.8-7-0.9c-0.9-0.9-1.8-1.8-2.6-2.6c0-1.8-0.3-3.7,0.1-5.5
			c0.5-2.4-1.1-4.3-1.1-6.6c-0.1-2,0.5-4-0.8-6.2c-0.8-1.4-0.5-3.8,0.4-6c-0.4-1.2-1.6-3-1.5-4.6c0.4-5.1-1.4-10.1-1-15.1
			c0.2-2.4-1.3-4.3-1.2-6.6c0.1-2.2,0.8-4.5-0.8-6.6c-0.5-0.6,0-1.9-0.1-2.9c-0.7-7.6,1.1-15,1-22.6c0-1.6,1.5-2.8,1.1-4.6
			c-0.3-1.4-0.1-3-0.1-4.5c0.8-1.5,2.2-2.4,3.6-1.5c1.1,0.8,2.1,0.7,3.2,0.8c3.4,0.1,6.8-0.4,10.2,1.6c-0.3,2.6,0.9,5.8-1.3,8.8
			c4.9,2.1,10.1,2.2,15.1,3.3c0.2-0.2,0.6-0.6,0.8-0.8c1.6-8.8,3.1-17.6,4.7-26.6c-2.5,0-4.8,0-7.1,0c-2.4,2.7-2,6.8-4.6,9.8
			c-5.1-0.3-9.6-2.9-14.6-4.3c2.5-7.4,4.9-14.8,8.1-21.6c2.7-0.5,4.6,1.3,6.9,0.9c2.1-0.3,4.3-0.1,6.5-0.1c1.5,2.2,4.6-0.2,6.2,2
			c2.1-2.3,4.1-0.1,6.2,0c2.2,0.1,4.4-0.2,6.5,0.1c2.2,0.3,4.2,1.3,6.5,0.9c-2.1,11.4-4.1,22.5-6.2,34.1c-0.2,0.2-0.8,0.8-1.6,1.6
			c0.8,2.2-0.9,4.4,0,6.9c0.5,1.4-0.7,3-1.1,4.5c-0.9,3.7-0.5,7.6-2.3,11c-0.2,0.4-0.6,0.9-0.5,1.3c0.7,3.5-1.5,6.7-1,10.1
			c0.2,1.4-0.8,2.3-1.1,3.6c-1.1,4.4-1.5,8.8-2.1,13.2c-0.7,5.1-1.8,10.2-2.7,15.3c-0.1,0.3,0.1,0.8,0,1c-2.7,3-1.3,6.8-2.2,10.1
			c-0.6,2.2-0.4,4.6-1.5,6.9C1098.6,582.8,1099,584.9,1098.9,586.6z M1088,531c0.4-3,2.2-5.6,2.1-8.9c1.3-0.5,2.7,0.4,3.1,0.1
			c2.1-4.3,1.3-8.3,3-12.1c-2.4,0-4.2-0.4-6,0.8c-1.9,1.3-3.7-1.8-5.9-0.7c-1.2,5-1.3,10.3-3.3,15.1c0.7,1.3,1.7,1.9,3.2,1.7
			c1.5-0.2,2.5,1.2,3.8,1.5c0,0.9,0,1.7,0,2.3c-2.3,1.4-0.1,3.7-1.5,5.3c-1.4,1.6-0.1,3.8-0.8,5.8c-3.2,1.9-2.2,5.8-3.5,9
			c1.3,0.1,2.7,0.6,4.5,1.7c-0.2-2.3,1.4-3,2.2-4.1c-0.2-3.7,1.1-6.9,1.7-10.2c-0.6-1.1-2-0.9-2.7-1.8
			C1088,534.6,1088,532.8,1088,531z"/>
		<path d="M1033.8,567c3.4,0,6,0,8.7,0c1.8,0,3.8-0.3,5.5,0.1c1.4,0.4,2.9,0.4,4.3,0.8c1.7,0.4,3.8-0.3,5.4,0.2
			c1.8,0.6,4.2,0.4,5.4,2.8c-1.6,2.9-1.1,6.2-1.1,9.4c0,3.7,0.4,7.5-1.2,11c2.7,2.3,6.1,2,9,2.6c4.7,0.9,9.3,2.3,14.1,2.1
			c1.8,2,4.7,0.1,6.8,1.9c0.8,0.7,2.5,0.1,3.7,0.1c0.6,0.6,1.1,1,1.7,1.7c-1.6,3.7-1.6,7.8-3,11.7c-0.4,1.2-0.4,2.6-0.2,3.9
			c0.2,1.5-1.2,2.1-1.1,3.6c0.4,4.8-2.4,9.3-1.9,14.2c-1.8,3.7-1.3,7.9-2.9,11.8c-0.8,2.1-0.5,4.7-1,7.1c-0.4,2.2-1.7,4.2-1.2,6.6
			c0.4,2.2-0.7,4.4-1.1,6.5c-1.2,5.2-1.8,10.5-2.9,15.8c-0.8,3.7-1.5,7.4-2,11.2c-0.1,1-0.8,2-1.4,3.1c-5.1,0.2-9.9-2-14.6-2
			c-1.1-1.2-1.9-2.1-2.9-3.2c1.4-1.5,0.2-4,1-5.6c1.1-2,0.1-4.3,1.3-6c1.4-2-0.3-4.3,1-6.1c1.4-1.8,0-4,1.4-6c1-1.5,0.2-3.9,1-6
			c0.7-1.8,1.8-3.8,1.2-6c2.1-1.7,0-4.5,1.7-6.3c-0.6-1.9,0.6-3.7,0.2-5.5c-0.5-2.2,1.4-3.9,1.1-6.1c-0.3-2.1,1.6-3.9,1-6.1
			c1.8-1.7,0.2-4.2,1.4-5.9c1.4-2-0.4-4.3,1-6.1c1.4-1.8-0.4-4.2,1.8-6.1c-5.9-2.2-12-2.4-18-3.7c-0.2,3.8-1.8,7.7-1.2,11.9
			c0.6,4.3-0.9,8.3-1.2,12.8c-4.1-0.6-8.1-1.5-12.1-1c-4.3,0.6-8.3-1.3-12.6-1.1c0-1.6,0-2.9,0-4.2c0-1.5-0.4-3.3,0.3-4.3
			c0.7-1.1-0.4-1.9,0.5-3.1c0.9-1.2,0.3-3.5,0.2-5.4c-0.3-8.1,1.8-16,1-24.1c1.8-4.8,0.7-9.7,1-14.6
			C1033.2,572.7,1034.6,570.1,1033.8,567z"/>
		<path d="M1038.8,648.1c-1.3-0.1-2.4-0.1-3.5-0.2c-0.6-2.2,0.8-4.4,0.5-6.1c-0.3-2.1,1.1-3.7-0.1-5.9c6.4,0.5,12.3-0.8,18.4,1.1
			c-0.6,3.8,0.8,7.4-1,11.1c-0.5,1.1,0,2.6-0.1,4c-0.2,3.9,0.4,7.7-0.8,11.6c-0.5,1.6-0.9,3.9,0.6,5.6c-1.1,1.5-0.9,3.3-0.8,5
			c0.3,3.8-1.5,7.3-1.1,11.1c0.3,3.6,0.2,7.3,0,11c-0.1,1.8-1.3,3.5-0.8,5.8c-5.9-0.1-11.3-1.9-17-0.9c-2.5-4.2-0.3-8.6-1.5-12.7
			c1.7-1.1,4.1,0.5,5.2-2.4c0-1.5,0-3.6,0-5.9c-1.8,0-3.6,0-5.2,0c-0.6-0.6-1.1-1.1-1.6-1.6c-0.6-5.8,1.9-11.5,0.8-17.5
			c2.5,0,4.7,0,6.7,0C1038.8,656.8,1039.5,652.7,1038.8,648.1z"/>
	</g>
</g>
</svg>
