<?xml version="1.0" encoding="utf-8"?>
<!-- Generator: Adobe Illustrator 17.1.0, SVG Export Plug-In . SVG Version: 6.00 Build 0)  -->
<!DOCTYPE svg PUBLIC "-//W3C//DTD SVG 1.1//EN" "http://www.w3.org/Graphics/SVG/1.1/DTD/svg11.dtd">
<svg version="1.1" id="Layer_1" xmlns="http://www.w3.org/2000/svg" xmlns:xlink="http://www.w3.org/1999/xlink" x="0px" y="0px"
	 viewBox="0 0 1440 937" enable-background="new 0 0 1440 937" xml:space="preserve">
<g>
	<g>
		<path d="M902.9,379.2c-2-0.7-4,0.6-5.4-1.2c-1.4,1.7-3.6,1.4-5,0.8c-1.3-0.6-2.5-0.5-3.7-0.8c-1.6-0.4-3.1-0.3-4.7-0.1
			c-3.5,0.4-6.8-0.8-9.7-2.1c-2.7-4.7,1.2-8.9,0.4-13.3c0.5-0.5,1-1,1.5-1.5c0.9,0,1.9,0,2.9,0c1.5-3.6,5.2-4.2,8-6
			c2.8-1.9,5.9-3.4,8.9-5c1.5-0.8,2.2-2.3,3.7-3.1c2.2-1.1,4.1-2.6,6.7-3.3c2-0.6,4.1-1.8,5.4-3.9c0.5-0.8,1.7-1.6,2.6-1.7
			c2.8-0.2,4.8-2.2,7.3-3.1c2.3,0.4,2.7,2.8,3.5,4.2c1.6,3.1,4.1,5.9,4.8,9.5c0.3,1.5,1.9,2.1,2.8,3.3c2.6,3.6,5.3,7.1,7.9,10.6
			c-0.3,0.4-0.6,0.8-1.1,1.4c1.6,2.4,4.7,4.1,4.2,7.6c1.4,1.4,2.7,2.7,4,4c0,1,0,2,0,3.1c3.4,1.9,5.4,4.7,6.1,8.7
			c0.3,1.7,1.7,3.3,2.5,4.8c-1.1,0.8-2.1,1.7-3.2,2.5c0.3,0.2,0.5,0.5,0.8,0.7c-1.1,3.1-1.7,6.2-1,9.6c2.2,0,4.3-0.1,6.5,0
			c2.2,0.1,4.2,1.3,6.6,1.1c2.2-0.2,4.4-0.1,6.6,0.7c2.3,0.8,5.2,0.2,8.2,0.2c-0.6,5.4-1.7,10.5-1.1,15.4c-0.6,0.6-1,1-1.6,1.6
			c-3.2-0.7-6.8,1-10.2-1c-0.9-0.5-2.3-0.1-3.5-0.1c-10.8,0-21.6,0-32.3,0c-0.9-0.8-0.2-1.7-0.8-2.7c-10.1-1.8-20.8-1.7-31.6-3.6
			c0.2-2.9-1.1-6.1,0.8-9.1c0.1-0.2,0.1-0.6,0.1-1c-0.7-5.4,1.7-10.7,1-16.1C901.4,386.7,903.4,383.2,902.9,379.2z M890.3,361.2
			c2.9,1.7,5.1,2.4,7.2,1.7c-0.4-0.5-0.9-1-1.5-1.7C894.7,361.2,892.9,361.2,890.3,361.2z"/>
		<path d="M876.8,331.3c4-2.3,7.8-4.4,11.6-6.5c2.8-1.6,5.3-3.8,8.6-5.1c-0.9-1.8-3.8-1.7-3.6-4.5c0,0,0.3-0.3,0.5-0.5
			c-1.1-2.1-2.1-4.2-3.4-6.7c-0.3-0.3-1.2,0.4-2.1-0.2c0.1-1.6-1.8-2.3-2.1-2.9c-0.5-1.9,1.1-2,0.6-3.6c-0.6-0.4-1.7-1.2-2.7-1.9
			c-1-0.9-2,0.1-3.4,0.7c-1.8-3.2-3.7-6.3-5.7-9.8c5.4-3.2,10.8-6.4,16.6-9.8c8.6,14.8,17.1,29.2,25.3,44c-1.2,2.1-3.8,2.8-5,5
			c-0.5,0.9-2.2,1.5-3.3,1.4c-1.6-0.1-2.7,0.7-4.3,1.6c-1.5,4.9-6.7,4.1-11,5.8c-7,7.3-4.8,5.4-9.8,5.7c-2.1,1.9-3.5,4.7-6.8,6.1
			c-0.3,0.1-0.7-0.5-1.1-1c-1.7,0.8-3.1,2.2-5.2,1.9c-1.8-3.2-3.7-6.4-5.6-9.6c-0.9-1.7-4-1.1-3.9-3.8c-2-1.2-0.3-3.7-1.9-5.3
			c-1.3-1.3-1.7-3.5-2.5-5.4c-0.4,0.4-0.6,0.6-0.8,0.8c-2.7-2.6-2.7-2.7-2.8-7.3c-1.9-3.1-1.9-3.1-4.5-3.5c-1-1.7-1.1-3.6-1.6-5.3
			c-0.7-2.5-0.8-5.6-4.3-6.7c-1.7-0.6-2.7-2.7-3.4-4.5c0.2-0.2,0.5-0.6,0.9-0.9c-0.3-3.8-4.1-4.5-6.1-7c0.3-3,1.5-5.2,4.6-6.5
			c2.8-1.3,5.4-3.2,8.4-5C857.3,297.2,866.2,314.5,876.8,331.3z"/>
		<path d="M870.4,282.2c-1.9-3.1-3.8-6.3-5.6-9.4c1.1-1.1,2.7-1,3.2-2.6c-0.4-1.3-0.9-2.7-2.7-3.6c-1.8-0.8-2.5-2.8-3.2-4.6
			c-0.2-0.8,0.7-1,0.9-1.4c-1.4-2.4-2.8-4.7-5.1-6.4c-1.5-1.1-1.8-3.2-2-5.1c-2.1,0.8-3.7,2.1-5.2,4c-3.2-0.8-5.1,1.7-7.3,3.3
			c-1.5,1.1-2.8,2.5-4.9,2.7c-1.7,0.1-2.5,1.3-2.3,2.8c2.7,4.7,5.4,9.3,8.2,14.2c-5.3,1.5-8.5,6.6-14.6,7.2c-0.7-1-1.5-2-2.6-3.6
			c0-0.8,0-2.5,0-4.1c-0.8-0.8-1.7-1.7-2.5-2.5c-0.4,0.3-0.7,0.6-1.1,1c-0.9-1.8-1.8-3.6-2.6-5.3c0.4-0.4,0.7-0.7,0.9-0.9
			c0.1-0.1,0.2-0.3,0.2-0.3c-2.7-4.1-4.5-8.9-8.8-12.1c0-0.6,0-1.6,0-2.7c2.1-3.5,6.9-3.4,9.4-6.6c0.7,1,2.2,1.3,1.5,2.7
			c2.1,1.1,3.2-0.7,4.7-0.9c0.5-2.5,2.6-3.5,4.6-4.5c0.7-0.3,0.8,0.8,1.8,0.7c2-0.3,3.4-2.6,5.7-3.3c0.1-3,3.6-2.4,4.5-4.7
			c1.5,0,3,0,4.5,0c1.4-3.3,3.6-5.1,7.3-5.1c1.4,0,2.7-1.3,4.4-2.2c4.1,7.7,9.1,14.6,12.9,22.2c3.8,7.4,8.3,14.5,12.5,21.8
			C881.7,276.1,876.5,279.5,870.4,282.2z"/>
		<path d="M856.5,186.6c3.1,5.2,5.8,10.4,7.8,15.8c-2,1.2-3.9,1.5-5.2,3.1c-0.6,1.5,1.9,2.4,1.2,3.5c-1,1.7-2.2,2.4-3.4,2.6
			c-1.3,0.2-2,1.7-3.4,1.5c-0.7-1.3-1.3-2.7-2.1-4.2c-3.1,1.6-6.1,3.1-9.3,4.7c-0.9,2,2,3.7,0.4,6.3c-4.1,2-8.7,4.3-12.9,6.4
			c-2.8-0.5-2.3-3.2-4.2-4.1c-2.3,3.2-6.6,3-9.7,5.5c0.8,1.6,1.6,3.1,2.4,4.9c-2.2,1.1-4.4,2.2-6.7,3.3c-1.6-0.4-1.5-1.9-1.5-3.3
			c-0.3-0.1-0.5-0.4-0.8-0.4c-2.2-0.3-4,0.6-5.8,2.1c-3.6-4.7-5.9-9.8-7.8-15.3c5.2-2.6,10-4.7,14.5-7.3c6.8-4,14.1-7.1,20.9-11
			c3.5-2,7.2-3.6,10.7-5.6c3.5-1.9,7-4,10.7-5.6C853.6,188.8,854.5,187.6,856.5,186.6z"/>
	</g>
</g>
</svg>
