<?xml version="1.0" encoding="utf-8"?>
<!-- Generator: Adobe Illustrator 17.1.0, SVG Export Plug-In . SVG Version: 6.00 Build 0)  -->
<!DOCTYPE svg PUBLIC "-//W3C//DTD SVG 1.1//EN" "http://www.w3.org/Graphics/SVG/1.1/DTD/svg11.dtd">
<svg version="1.1" id="Layer_1" xmlns="http://www.w3.org/2000/svg" xmlns:xlink="http://www.w3.org/1999/xlink" x="0px" y="0px"
	 viewBox="0 0 1440 937" enable-background="new 0 0 1440 937" xml:space="preserve">
<g>
	<g>
		<path d="M738.1,400.4c0-3-0.9-6.4,0.2-8.9c1.6-3.8-1-8.2,2.4-11.6c1.3,0.5,2.7,1.4,4.4,1.1c5.7-0.8,11.3,1.6,17.1,1
			c3.6,1.6,7.5,0.4,11,1.1c3.2,0.7,6.5,0.3,9.6,1c3.7,0.8,7.6,0.1,11,1.1c3,0.8,5.8,0.3,8.5,0.9c2-3.4,1.6-7,1.5-10.6
			c-0.1-2.2,1.9-3.9,0.9-5.9c1-1,1.8-1.8,2.6-2.6c3.6-0.4,6.9,1.6,10.6,1.1c3.5-0.5,6.9,1.9,10.7,0.6c0-2.9,0-6,0-9.2
			c-2.9-1.5-6.2-1.7-9.6-1.4c-2.6,0.2-4.9-1.4-7.6-1.1c-2.5,0.2-5.2,0.7-7.6-0.8c-0.6-0.4-1.6-0.1-2.5,0c-5.4,0.6-10.7-1.8-16.1-1
			c-3.6-2.2-8,0.2-11.7-2c-7.2,0.6-14.3-2-21.6-0.8c-0.5,3.8,0,7.6-1,11.5c-0.9,3.5,0.3,7.4-1.7,11.1c-3.1,0-6.6,0-10.2,0
			c-0.7-1.2-0.2-2.8-0.3-4.2c-0.1-1.5-0.6-3.5,0.1-4.4c1-1.3-0.6-2.5,0.5-3.5c0.3-0.2,0.3-0.9,0.3-1.3c-0.5-6.4,1.9-12.6,0.9-19.2
			c22.4-13.1,44.7-26.1,67.4-39.3c1,0.8,2,1.8,2.9,3.3c4.8,7.6,8.9,15.7,13.7,23.4c3,4.8,5.7,9.9,8.4,15c2.3,4.3,5,8.3,7.3,12.5
			c1.1,2,2.8,4.1,0.6,6.5c-0.2,0.2-0.1,0.6,0,1c0.8,5.4-1.5,10.7-0.9,16.1c0.2,2.4-1.4,4.2-1.1,6.6c0.3,2.1,0.6,4.5-0.1,6.4
			c-1.1,3.1-0.7,6.1-0.9,9.1c-0.2,2.4-1.6,4.5-0.8,7.3c-4.2,0-8.1,0.6-11.7-0.2c-3.1-0.7-6.2-0.2-9.1-0.9c-4-1-8.2-0.2-12.1-1.1
			c-3.1-0.7-6.1-0.4-9.1-0.9c-2.4-0.3-4.6-1-7.1-1c-2.4,0-4.9,0.7-7.1-0.9c-0.1-0.1-0.3,0-0.5,0c-5.6,0.5-11-1.7-16.6-1
			c-2.3,0.3-4.2-1.4-6.6-1.1c-2,0.2-4.2,0.8-6.1-0.8c-0.5-0.4-1.6,0-2.4-0.1C745.2,401.9,741.6,402.5,738.1,400.4z M779,342
			c1.9,0,3.4,0.2,4.8-0.1c1.6-0.3,2.5,1.3,4.1,1.1c5.7-0.7,11.3,1.6,17,1c0.3,0,0.8-0.1,1,0c2,1.5,4.4,1,6.6,0.9
			c2.2,0,4.3,0.2,6.8,0.4c-4.9-8.5-9.8-17-15-25.9c-7.9,3.7-14.7,8.5-22.1,12.5c-1.4,0.7-2.2,1.8-3.2,2.6
			C779,336.9,779,339.3,779,342z"/>
	</g>
</g>
</svg>
