<?xml version="1.0" encoding="utf-8"?>
<!-- Generator: Adobe Illustrator 17.1.0, SVG Export Plug-In . SVG Version: 6.00 Build 0)  -->
<!DOCTYPE svg PUBLIC "-//W3C//DTD SVG 1.1//EN" "http://www.w3.org/Graphics/SVG/1.1/DTD/svg11.dtd">
<svg version="1.1" id="Layer_1" xmlns="http://www.w3.org/2000/svg" xmlns:xlink="http://www.w3.org/1999/xlink" x="0px" y="0px"
	 viewBox="0 0 1440 937" enable-background="new 0 0 1440 937" xml:space="preserve">
<g>
	<g>
		<path d="M869.4,172.2c2.8-1.4,5.8-1.5,8.4-3.2c4.4-2.9,9.2-5.2,13.6-8.1c1.7-1.1,3.6-1.8,5.3-2.9c1.4-0.9,3-1.5,4.4-2.6
			c2.3-1.9,5.4-2.5,7.7-4.4c0.3-0.2,1,0,1.6,0c2.3,1.5,2.1,4.9,4.5,6.4c2.5,5.5,6,10.5,8.9,15.8c2.1,4,4.1,8.2,7.4,11.4
			c0.7,0.7,0.6,1.4,0.9,2.1c0.9,2.3,1.8,4.7,3.7,6.5c1.5,1.5,2.8,4.7,3.3,7.3c-1.2,0.6-2.5,1.1-3.9,1.8c-0.5,0.6,0.1,1.5-0.3,2.3
			c-1.5,1.3-3.2,2.7-5.4,2.3c-1.7-0.3-2.6,1-4.1,1.1c-0.8,0.7-0.1,1.6-0.5,2.4c-1.3,0.5-2.6,1.5-3.2,2.4c-1.5,0.4-1.7-1-2.6-0.8
			c-1.5,0.1-1.8,2.1-3.6,2.2c-1.4,0.1-1.3,2-2.1,3.1c-0.8,1-2.3,0.5-2.8,1.7c-1.3,0-2.7,0-4.1,0c-1.7-4.3-5.1-7.7-6.8-12.4
			c6-4.2,12.4-7.5,18.3-11c0.4-2.7-1.8-4.2-2.2-6.5c-0.8-0.1-1.5-0.2-2.4-0.3c-1.5-3.8-2-8.1-4.7-11.5c-0.5-0.8-1.4-0.2-2.2-0.4
			c-1.1-1.8-1.8-3.6-1.4-5.6c-1.6-0.9-2.4,0.1-2.7,0.9c-0.6,1.6-1.8,2.7-2.9,3.7c-1,0.3-1.5-0.5-2.4-1.2c-2.3,2.4-5.9,2.9-7.8,5.4
			c2.6,5.2,6.3,9.7,8,15c-3.8,2.3-7.3,4.3-11.3,6.7c-0.6,0-1.9,0-3.3,0c-3-2.1-0.1-6.3-3.1-8.6c-0.4-0.8-1.3-0.2-2.1-0.4
			c-0.2-1.6-1.5-2.4-2.5-3.5c0-1.3,0-2.6,0-3.9c-2.2-3.7-4.3-7.3-6.7-11.2C868.6,173.8,869,172.9,869.4,172.2z"/>
		<path d="M795,174.3c10.5-5.3,20.3-12,30.7-17.6c0.2-0.1,0.2-0.6,0.3-0.9c-0.3-1.6-1.6-0.5-2.4-0.9c-2.3-3.1-4-6.6-5.7-10.2
			c0.2-0.3,0.5-0.7,0.8-1.2c-0.3-0.9-0.9-1.5-2.1-1.6c-5.6,5.7-13.7,8-19.9,13.6c-2.2-3.4-6.7-3.9-7.6-8.3c0.1-0.1,0.4-0.5,0.8-0.8
			c0.2-1.2-0.9-1.6-1.4-2.4c-0.4-0.6-0.7-1.4-1-2c-0.3,0.3-0.5,0.5-0.9,0.9c-1.6-0.8-2.4-2.7-2.4-4c-0.1-2.4-1.4-4.1-2.3-6.4
			c3.7-3.1,7.6-5.9,12.2-7.9c2.6,3.3,4.1,6.9,7.2,10c1-2.9,2.9-4.5,5.4-5.4c0.1,0.1,0.3,0.3,0.8,0.8c3-2.3,6.9-3.5,9.1-6.9
			c1.1-1.6,2.9-2.4,4.9-3c0.5,0.6,1.4,1.1,1.5,1.8c0.6,4.4,3.3,7.7,5.6,11.1c1.2,1.7,2.3,3.3,3.1,5.3c0.8,2,1.9,3.9,3.3,5.6
			c3.6,4.2,5,9.6,7.9,14.2c0.8,1.3,3.4,2.2,1.5,5.1c-1.2,1-3.4,2-4.4,4.3c-0.6,1.3-2.1,1.9-3.7,2.3c-0.2-0.1-0.7-0.4-1.2-0.7
			c-0.7,1.2-2.4,0.3-3.2,2.2c-1.3,3-3.4,3.6-7.2,3.8c-2.6,2.1-4.4,5.2-8,6c-0.4-0.3-0.7-0.6-1.1-1c-3.4,1.5-4.8,5.7-8.7,7
			c-0.4,0.1-0.6-0.4-1.1-0.9c-0.9,0.5-2,1-3.3,1.6c-0.5-0.5-1.3-1-1.7-1.7c-1.7-3.3-3.5-6.6-5.6-9.7C794.8,176,795,175.4,795,174.3z
			"/>
		<path d="M869,140.3c0,2.6,1,4.4,2.8,5.9c2.8-1.5,5.2-4.1,9-4.2c0.5,3,2.1,5.2,5.2,6.1c0,1.1,0,2.1,0,3.6c-1.7,2.7-5.3,3.6-8.2,5.3
			c-0.7,0.4-1.6,0.8-2.4,1.3c-3,2-6,3.9-9.1,5.8c-2,1.2-4.1,2-6.2-0.6c1.3-4.5-3-7.1-4.2-11.2c-0.5-0.6-1.4-0.1-2.3-0.3
			c-0.5-1-1.1-2.1-1.6-3.2c0.4-0.4,0.7-0.8,1-1.2c-0.5-1.6-2.5-1.3-3.2-2.4c-0.7-1-1.2-2.2-1.8-3.3c0.3-0.4,0.6-0.8,0.9-1.2
			c-1-2.7-3.4-4.6-4.1-7.6c-0.7,0-1.4,0-2,0c-1.3-1.7-1.9-3.6-1.6-5.7c-1.9-0.3-2.8-1.7-4-2.8c-0.1-1.1-0.2-2.3,1-3.1
			c-1.7-1.3-2.4-3.3-3.2-5.2c-0.6-0.4-0.7,0.4-1.5,0.6c-0.3-0.8-0.8-1.8-1.3-2.9c-0.3,0.2-0.6,0.5-0.9,0.7c0-1.3,0-2.6,0-3.7
			c-1.9-3.1-4.6-5.5-5.3-9.4c1.2-0.7,2.4-1.4,3.6-2.2c0.2-0.6,0.3,0,0.9,0.3c4.5-2.8,8.8-5.9,12.3-10c2.1,1.1,2.8,2.8,4,4.3
			c1.1,1.4,1.4,3.3,3.2,4.2c0,1.1,0,2.3,0,3.4c-0.5,0.5-0.9,1-1.5,1.3c-0.4,0.2-1-0.1-1.4,0.6c0.1,0.3,0.1,0.8,0.3,1.2
			c1.9,3.8,4.2,7.3,6.8,10.7c1.2,1.7,1.4,3.7,2.8,5.4c1,1.3,2.2,2.8,2.6,4.9c0.8,3.5,3.7,6.1,5.9,9c0.7,0.9,0.6,1.8,0.7,3.2
			C866.9,138.6,868.1,139.5,869,140.3z"/>
		<path d="M875.4,237.5c-2-4.6-5.5-8-6.7-12.9c8.5-4.5,15.9-10.4,24.8-14.9c1.5,5.1,5.8,8.6,6.6,13.6C892,228,884,232.5,875.4,237.5
			z"/>
	</g>
</g>
</svg>
