<?xml version="1.0" encoding="utf-8"?>
<!-- Generator: Adobe Illustrator 17.1.0, SVG Export Plug-In . SVG Version: 6.00 Build 0)  -->
<!DOCTYPE svg PUBLIC "-//W3C//DTD SVG 1.1//EN" "http://www.w3.org/Graphics/SVG/1.1/DTD/svg11.dtd">
<svg version="1.1" id="Layer_1" xmlns="http://www.w3.org/2000/svg" xmlns:xlink="http://www.w3.org/1999/xlink" x="0px" y="0px"
	 viewBox="0 0 1440 937" enable-background="new 0 0 1440 937" xml:space="preserve">
<g>
	<g>
		<path d="M606.1,392.6c1.7-2.2,1-4.8,0.8-7c-0.2-2.7,1.2-5,1.2-7.6c-0.1-2.4,0-4.7,0.8-7.1c0.7-2.2,0.2-4.9,0.2-7.9
			c2.9,0.5,5.8-1.1,8.5,1c0.2,0.2,0.6,0.1,1,0c6.1-0.7,12,2,17.9,0.8c0.7,0.7,1.1,1.1,1.6,1.6c-0.3,0.3-0.6,0.7-1,1.1
			c0.5,0.4,0.9,0.9,1.6,1.5c1.8-0.5,4,0.8,5.9-0.9c0.6-0.5,2.3-0.5,3.2,0.2c0.6,0.4,1,0.6,1.7,0.7c1.7,0.1,3.4-0.3,5.2,0.8
			c1.3,0.8,3.5-0.4,5,1.1c0.1,0.1,0.3,0,0.5,0c4.6-0.6,9,1.6,13.6,1c3.4-0.4,6.5,1.9,10.1,0.9c0.1,1.5,0.1,2.6,0.2,3.7
			c0.3,0.1,0.6,0.4,0.8,0.4c2.7-0.6,5,0.9,7.6,1c2.5,0.1,5.2-0.6,7.4,0.2c2.9,1.1,5.8,0.9,8.6,0.8c2.6-0.1,4.9,1.7,7.6,1.1
			c2.6-0.6,5,0.7,8,1.3c-0.5,4-0.1,8.1-0.8,12.3c-0.6,3.9-1.2,8-1.4,12.5c-1.5-1.6-3.2-1-4.9-1.1c-2.6-0.2-5.5,0.8-7.8-0.5
			c-2.3-1.3-5,0.7-6.9-1.5c-0.3-0.3-1.3-0.1-1.9,0c-5.6,0.7-11.1-0.5-16.5-1.2c-3.7-0.5-7.7,0.1-11-1c-3.6-1.2-7.4,0.3-10.8-1.7
			c-0.9-0.5-2.6-0.5-3.5,0.9c-0.5-0.4-0.8-1-1.6-1c-2,0.1-4-0.2-6,0.1c-3.3,0.4-6.3-1.5-9.6-1.1c-3,0.3-6-0.5-8.7-1.8
			c-0.3-0.1-0.6-0.1-0.9-0.1c-5.2,0.4-10.3-1.7-15.6-1c-3.1,0.4-5.9-1.1-8.9-1.4C606.9,393.6,606.7,393.2,606.1,392.6z"/>
		<path d="M638.3,302.5c0.6,1.2,0.8,2,1.4,2.6c3.4,3.5,2.6,7.7,1.8,11.8c-0.1,0.5-0.5,1.1-0.5,1.8c0.6,6.6-1.7,13-1,19.6
			c0.1,0.5-0.1,0.9-0.1,1.4c-0.5,0.5-1,1-1.6,1.6c-3.1-1.6-6.6-1.2-10-1.1c-1.2,0-2.1-0.6-3.1-1c-0.9-0.3-2-0.2-3,0
			c-1.2,0.2-2.1-0.6-3.3-1.1c-3.4,3.3-6.9-1.6-10.8,0.5c-1.6-4.4-3.6-8.4-5.8-12.6c-2.2,1.1-4.4,2.2-6.6,3.3c-0.5-0.4-0.8-0.7-1.2-1
			c-0.5,0.2-0.4,0.6-0.6,1c-0.7,1.9-2.6,2.4-4.1,2.7c-1.3,0.2-2.6,0.8-3.4,1.4c-3.6,2.7-7.8,3.8-11.8,5.4c-2.2,0.9-4.8,1-7.1,2.1
			c-2.2,1-4.8,1-7.1,2.1c-1.6,0.8-2.6-0.3-3.5-2.3c-1-2.2-0.5-4.7-2.2-7c2.5-2.1,5.2-4,8.2-5.1c6.6-2.4,12.6-5.9,18.8-8.9
			c5.3-2.6,10.9-4.3,15.9-7.6c0.3-0.2,1,0,1.7,0c4,3,5.8,8,9.1,12c5.5-0.7,10.9,1.7,16.5,1c0.6-0.1,1.3,0.3,2.1-0.5
			c0-1.3-0.4-3,0.1-4.2c0.7-1.5-0.6-3,0.2-4c1.1-1.4,0.5-2.9,0.6-4.3c0.2-1.5,0-3,0-4.5C631,305.3,635,305.1,638.3,302.5z"/>
		<path d="M498,377c0,2.1,0,3.9,0,5.8c-3.3,0-6.4,0-9.6,0c-0.3-0.3-0.8-0.8-1.3-1.3c-0.8-6.4,2-12.6,0.7-19.4c10-5,19.9-10,29.9-15
			c2.2,1.8,2.4,4.7,3.3,7.3c2.6,7.6,5.1,15.2,7.8,22.7c0.4,1.1-0.1,1.8,0.1,2.9c-2.6-1.5-5.3-1.3-7.7-1c-2.7,0.3-5-0.8-7.6-1.1
			c-2.4-0.3-4.7,0.3-7.2-0.8C504.1,376.3,501.2,377,498,377z"/>
		<path d="M571.2,391.3c-1.5-5.5-3-10.7-4.4-15.8c1.5-0.8,2.7-0.9,3.9-1.4c7.4-3.1,14.5-6.7,22.1-9.4c1.9-0.7,3.5-2.1,5.4-2.6
			c1.7-0.4,3.6-0.1,5.9-0.1c-0.5,3.7,0.9,7.4-1.1,11c-0.1,0.1,0,0.3,0,0.5c0.6,6.4-1.9,12.6-0.9,18.9c-0.6,0.6-1.1,1.1-1.5,1.5
			c-1.3,0.7-1.5-1.1-2.6-0.9c-5.4,0.7-10.7-1.4-16.1-1C578.3,392.3,575,389.9,571.2,391.3z"/>
		<path d="M554.8,367.6c1.2,0.9,2.3,1.9,3.3,2.7c-0.4,2.1-0.1,3.8,1.1,4.8c-0.7,1.1-1.2,0.9-1.7,1c-1,0.9,0.6,1.1,0.5,1.8
			c-0.1,0.8,0,1.7,0,2.5c-1.7,1.8-4.4,1.2-6.3,3.1c-0.8-1.6-1.3-2.8-2-4.3c-2.6-0.8-4.8,0.8-7.5,1.8c-3.2-5.2-3.9-11.5-6.8-16.9
			c-0.3,0-0.6-0.1-1.3-0.1c0.1-1.5-0.6-3.1,0.8-4.3c-1.9-3.7-1.8-8.1-3.9-11.6c0.9-2.4,3.4-1.6,4.9-2.8c1.2-1,1.9-2.6,4.1-2.8
			c1.3,0.6,1.3,0.6,7.7-0.2C550.4,350.4,551.6,359.2,554.8,367.6z"/>
		<path d="M663.5,326.1c3,2.5,7.2-0.7,10.2,1.9c3.5-0.7,6.6,1.7,10,0.9c1.1,2.5-1.2,4.3-0.8,6.6c0.4,2.2,0.1,4.6,0.1,7.3
			c-2.2-0.3-4.2,0.8-6.5-0.7c-1-0.7-2.9-0.2-4.4-0.2c-3-0.1-6.2,0.6-8.8-0.4c-2.8-1.1-5.8,0.5-8.4-1.5c-0.7-0.6-2.3-0.1-3.5-0.1
			c-1-1.4-0.1-3.2-0.8-5c-2.8,0.8-5.3-1.2-8.4-1c-0.6-1.4-0.8-3.3-0.1-4.2c0.9-1.2,0.5-2.5,1.3-3.8c2.5,0.4,5.1-0.7,7.6,0.6
			c0.5,0.3,0.7,0,1.1-0.1c2.5-0.6,4.9-1,7.4,0.4C660.6,327.4,662.4,327.6,663.5,326.1z"/>
		<path d="M621.3,350c0.8,0,1.5,0,2.1,0c1.2-1.1,0.1-2.5,0.7-3.7c1.7-0.5,3.4-0.8,4.5,0.7c1.3,0.1,1.5-1.3,3.1-0.8
			c1.5,0.5,1.1,2.3,1.3,3.9c0.2,1.6,2.8,2,1.7,4.6c-0.5,0.7-1.2,1.8-3.2,1.3c0.8,0.9,1.1,1.2,1.4,1.6c-2.5,1.9-2.5,1.9-5.5,0.5
			c-0.2,0.2-0.4,0.5-0.7,0.6c-0.3,0.2-0.6,0.2-1.2,0.5c-0.8-0.8-2.6-1.9-2.5-2.6C623.7,353.9,619.9,353,621.3,350z"/>
	</g>
</g>
</svg>
