<?xml version="1.0" encoding="utf-8"?>
<!-- Generator: Adobe Illustrator 17.1.0, SVG Export Plug-In . SVG Version: 6.00 Build 0)  -->
<!DOCTYPE svg PUBLIC "-//W3C//DTD SVG 1.1//EN" "http://www.w3.org/Graphics/SVG/1.1/DTD/svg11.dtd">
<svg version="1.1" id="Layer_1" xmlns="http://www.w3.org/2000/svg" xmlns:xlink="http://www.w3.org/1999/xlink" x="0px" y="0px"
	 viewBox="0 0 1440 937" enable-background="new 0 0 1440 937" xml:space="preserve">
<g>
	<g>
		<path d="M457.7,809.8c-0.1,0.1-0.3,0.2-0.4,0.2c-5.6-0.8-11,1.5-16.6,1c-3.2,1.5-6.7,1.1-10.1,0.9c-1.3-0.1-1.6,1.2-2.9,1.1
			c-2-0.9-2.7-3.4-3.2-5.2c-0.8-3.4-2.9-6.1-3.9-9.4c-1-3.4-2.6-6.6-3.9-9.9c-1.3-3.3-2.8-6.5-3.9-9.9c-0.5-1.4-1.6-2.6-2-4.2
			c-2.6-0.5-3.1-2.7-3.9-4.8c-1.8-4.7-3.7-9.4-5.7-14.4c1.5-1.9,4.4-2,6.6-3.9c0.5-2.2-0.1-4.7-0.9-6.6c-0.1-2.1,2.3-2.3,2.1-4.2
			c0-0.4,0.9-1.2,1.8-1.5c5.8-1.8,11.1-4.6,16.5-7.1c2.3-1.1,4.8-1.4,6.8-3.1c2,3.1,3,6.6,5,9c1.7,0.7,1.9-1.3,3.6-0.5
			c2.1,5.9,5.8,11.6,7.6,17.5c-1.1,1.9-2.3,2.1-3.1,2.5c2.8,6.7,5.6,13.3,8.4,19.9c0.1,0.3,0.3,0.6,0.3,0.9c-0.6,4.1,1.7,8,1,12.1
			c-0.4,2.3,1.4,4.2,1.1,6.6c-0.3,2,0.2,4,0.7,6.1C459.3,805,460.2,807.9,457.7,809.8z"/>
		<path d="M495.2,832.1c-2.1,2.9-5.3,1.1-7,3.4c-0.7,2.6,0.3,5.2,1,7.7c-1.8,2.1-4,1.8-6.2,1.9c-1.9,0.1-3.8-0.6-5.5,0.9
			c-3.1-2.6,0.2-6.7-2.2-9.5c1.3-0.6,2.5-1.2,3.9-1.8c-0.3-0.3-0.9-0.7-0.8-1c0.3-3.7-0.7-7.4-1.1-11c-0.3-2.5,0.6-5.1-0.9-7.6
			c-0.7-1.2,0.5-2.1,1.4-2.9c5,0,9.9-1.9,15.4-0.9c-0.2,1.8,1.5,3.4,1.4,5.4c1.3,0.5,2.6,1,3.6,1.4c0,2.6,0,4.7,0,6.9
			c-0.9,0.1-1.7,0.2-2.7,0.3C495.2,827.6,495.2,830,495.2,832.1z"/>
		<path d="M402.9,853.2c-0.6-0.6-1-1.1-1.3-1.1c-1-0.1-2,0-3.1,0c-1.2,1.2,0.6,3.7-2.3,4.9c-2.5,0.4-5.6,0-9.1-1.3
			c0-1.2-0.5-2.9,0.1-4c0.8-1.4,0.8-2.7,0.9-4.2c-1.5-0.7-2.9-1.8-4.8-1.7c-1.2-3.9,1.6-7.5,0.6-11.7c5.7-0.7,10.8,1.1,16,2
			c0.1,0.9,0.2,1.7,0.3,2.5c2,0.6,3.9,1.2,5.4,1.6C404.6,844.4,404.8,848.7,402.9,853.2z"/>
		<path d="M383.2,796.9c-5.1,1.4-9.5,4.4-15.2,5.4c-2.1-6.6-4.6-12.6-7.2-18.7c4.6-2.7,9.6-3.7,14.6-6
			C378,783.9,380.4,790,383.2,796.9z"/>
	</g>
</g>
</svg>
