<?xml version="1.0" encoding="utf-8"?>
<!-- Generator: Adobe Illustrator 17.1.0, SVG Export Plug-In . SVG Version: 6.00 Build 0)  -->
<!DOCTYPE svg PUBLIC "-//W3C//DTD SVG 1.1//EN" "http://www.w3.org/Graphics/SVG/1.1/DTD/svg11.dtd">
<svg version="1.1" id="Layer_1" xmlns="http://www.w3.org/2000/svg" xmlns:xlink="http://www.w3.org/1999/xlink" x="0px" y="0px"
	 viewBox="0 0 1440 937" enable-background="new 0 0 1440 937" xml:space="preserve">
<g>
	<g>
		<path d="M427.6,541.5c-6.5,1.9-12.5,1.9-18.8,3.1c-2.3-5.2-4.8-10.7-7.4-16.5c-2.4-1-5.1,0.3-7.6,0.9c-6-10.1-11.8-20-17.8-30.1
			c0.1-0.5-0.1-1.2,0.5-2c0.8-1.2,0.6-2.6,0-4c-2.3-5.7-4.4-11.5-6.4-17.3c-0.6-1.7-1.2-3.2-2.5-4.5c-0.6,0.2-0.8,1.1-1.5,0.9
			c-1.1,0.1-1.2-1.1-2-1.3c-0.2-5.5-2.3-10.5-3.1-16.1c6.2-3.4,12-7.7,17.6-12c7.3-5.6,15.3-9.8,23-14.5c6.1-3.7,12.4-7.1,18.6-10.6
			c7.5-4.2,14.8-9,22.8-12.4c0.1-0.1,0.3,0,0.5,0.1c1.2,4,2.3,8,3.6,12.3c-1.7,1.4-3.1,2.9-5.1,4.2c-4.3,2.7-8.5,5.4-12.5,8.5
			c-3.9,3.1-8.1,5.6-11.9,8.7c-3,2.5-4.6,6-6.7,9.2c-4.9,7.3-9.7,14.7-14.5,22c-0.6,1-1.6,1.7-2.4,2.4c-0.8,3.1,1.2,5.2,2.4,7.5
			c1.9,3.6,4.3,6.8,6.3,10.4c3.1,5.8,6.8,11.2,9.8,16.9c2.3,4.5,5.1,8.7,6.7,13.7c1.8,5.7,3.7,11.4,6.3,16.9
			C426.1,539.1,424.9,541,427.6,541.5z"/>
		<path d="M457.6,455c-3.1,0-6.1,0-9.4,0c0-2.7,0-5.5,0-8.8c0.2-0.1,0.8-0.6,1.7-1.3c1.7,1.8,4.1,1,6.7,1.2c0.5-0.7,1-1.5,1.4-1.9
			c2,0,3.4,0,4.9,0c0.1,0.9,0.2,1.7,0.3,2.5c1.7,0.9,3.5,0.8,5.2,1.1c1.9,0.3,3.9,0.2,5.9,0.2c2.1,0,4.3,0,6.9,0
			c-1-4.1,1.6-7.6,0.8-11.5c1.2-1.1,2.7,0,4.1-1c0-2.2-0.7-4.7,0.2-6.7c1-2.3,0.5-4.5,0.8-6.7c0.3-2.2-0.9-4.6,0.9-6.8
			c-0.9-1.1-3.2,0.3-3.6-1.6c-0.4-2-2.2-4-1.2-5.9c1.3-2.6,0.6-5.1,0.9-7.6c0.1-0.6,0-1.3,0-1.6c0.7-0.8,1.1-1.3,1.5-1.8
			c6,1.7,12.2,0.9,17.7,2.4c1.1-1.2,0.6-2.1,0.8-2.9c3.4,1.1,6.9,0.3,10.5,0.6c0.8,0.6,1.6,1.4,1.7,2.5c3.8,1.9,8.1,0.8,11.9,1.6
			c3.9,0.8,7.7,0.7,11.4,0.9c0.5,0.5,0.9,0.9,1.2,1.2c-1.2,2-0.9,4.3-0.7,6.5c0.3,2.4-1.2,4.4-1,6.6c0.2,2.4-1.3,4.3-1.3,6.6
			c-5.5,0.7-10.9-2.1-16.8-0.5c0.8,2.1-1.1,4-1,6.3c0.1,2.3,0,4.7,0,7c0.1,2.1-1.3,3.9-1.1,6.1c0.2,2,0.8,4.2-0.9,6.1
			c-0.2,0.3-0.1,1,0,1.5c0.8,5.9-1.5,11.6-0.9,17.7c-1.6,0-3-0.3-4.2,0.1c-1.2,0.4-1.8-1.4-2.9-0.6c-1.3,1-2.4,0.6-3.5-0.4
			c-1.1,0.5-1.4,2.2-3.6,1.8c-1.3-1.7-4.9-1.4-5.1-4.9c-4.5,0-8.9,0-13.4,0c-1.1,1.4,0.8,4.2-2.5,5c-0.8-0.1-1.9-1.5-3.4-1.1
			c-0.9-1.1-0.1-2.3-0.8-3.8c0.2,0.3,0.1,0,0,0c-6.5,0-12.9,0-19,0c-0.8-0.8-1.2-1.3-1.8-1.9C458,459.3,458.5,457.2,457.6,455z"/>
		<path d="M516.3,476c2.4,1.8,4.9,1,7.3,0.9c2.3,0,4.2,1.2,7.1,1.4c-2,1.9-1.8,3.9-1.7,5.8c0.2,4.9-1.8,9.6-1,14.6
			c-1.5,2.7-0.4,5.8-1.1,8.5c-1.1,3.9-0.8,7.7-0.8,11.6c0,2.1-1.4,3.9-1.1,6.1c0.3,2,0.6,4.2-0.9,6.1c-0.2,0.2-0.1,0.7,0,1
			c0.7,5.8-1.6,11.3-1,17.1c-1.4,3.4-1.1,7-0.9,10.6c0.1,1.4-2,1.6-0.9,3c-4.4,0.9-8.5,1.1-12.7,1.7c-3.2,0.4-6.5,0.2-9.6,0.9
			c-3.4,0.8-6.8,0.3-10.1,1c-3.4,0.8-6.8,0.3-10.1,1c-3.4,0.8-6.8,0.3-10.1,1c-3.1,0.7-6.2,0.3-9.1,1c-3.1,0.8-6.2,0.2-9.1,1
			c-3.6,1-7.3,0-10.6,1c-4.8,1.5-9.5,1-14.1,0.6c-3.7-0.3-7.5-0.7-11.3-0.8c-2.3-4-1.4-8.4-1.6-12.5c2-1.7,4.1-1.8,6.2-1.4
			c2.7,0.5,5-1,7.6-1.1c2.4-0.1,4.9,0.8,7.1-0.9c0.2-0.2,0.7-0.1,1,0c5.3,0.7,10.3-1.6,15.6-1c2.1,0.3,3.9-1.3,6.1-1.1
			c2,0.2,4.3,1.1,6.1-0.9c0.2-0.2,0.6-0.1,1,0c5.3,0.8,10.3-1.6,15.6-1c2.3,0.3,4.2-1.4,6.6-1.1c2,0.2,4.2,0.8,6.1-0.9
			c0.3-0.2,1-0.1,1.5,0c4.9,0.6,9.6-2,14.8-0.7c-0.6-5,0.8-9.2,1.2-13.5c0.3-3.7,0.1-7.5,0.9-11.1c0.7-3.4,0.2-6.9,1-10.1
			c0.8-3.4,0.2-6.9,1-10.1c1-3.6,0.7-7.1,0.8-10.6c0-1.8,1.4-3.2,1.1-5.1c-0.2-1.6,0-3.3-0.1-5c-0.1-1.8,1.7-3.1,1.1-5.1
			C515,477.5,515.7,476.8,516.3,476z"/>
		<path d="M335.7,467.2c2.1,2.2,4.4,4.4,6.3,7.1c1.7,2.5,2.5,5.3,3.9,7.9c2.3,4.5,3.9,9.4,6.2,13.9c-3.8,2.3-7.8,3.1-12.2,2.9
			c-6.8-0.3-13.6-0.1-20.8-0.1c-3.1-6.3-6.3-12.6-9.5-19C318.2,474.9,327.1,471.4,335.7,467.2z"/>
		<path d="M468.8,390.2c0.1,1.2,0.4,2,1.2,2.3c0,1.7-1.7,2.9-4.6,3.6c-0.7-0.9-1.4-2-2.4-3.3c0-0.6-0.4-1.9,1.1-2.6
			C465.6,390.2,467,390.2,468.8,390.2z"/>
		<path d="M464.1,533.9c0-1.6,0-3.1,0-4.5c1.4-0.7,2.3-0.3,3.5,0.6c0.8,0.6,2.2-0.2,3.2,0.4c0.5,1.4,0.1,2.5-1.3,3.5
			C468,533.9,466.3,533.9,464.1,533.9z"/>
	</g>
</g>
</svg>
