<?xml version="1.0" encoding="utf-8"?>
<!-- Generator: Adobe Illustrator 17.1.0, SVG Export Plug-In . SVG Version: 6.00 Build 0)  -->
<!DOCTYPE svg PUBLIC "-//W3C//DTD SVG 1.1//EN" "http://www.w3.org/Graphics/SVG/1.1/DTD/svg11.dtd">
<svg version="1.1" id="Layer_1" xmlns="http://www.w3.org/2000/svg" xmlns:xlink="http://www.w3.org/1999/xlink" x="0px" y="0px"
	 viewBox="0 0 1440 937" enable-background="new 0 0 1440 937" xml:space="preserve">
<g>
	<g>
		<path d="M610,794.3c-2.8-0.9-4.8,0.6-7.1,0.7c-2.3,0.1-4.9-0.6-6.9,0.2c-2.5,1-4.8,0.8-7.2,0.8c-2.5,0-4.5,1.5-7.1,1.2
			c-2.1-0.3-4.3-0.2-6.6,0.7c-2,0.8-4.5,0.2-7.2,0.2c0.9-5.1-1.9-9.7-0.7-14.7c1.3-2.1,3.5-1,5.4-1.3c2-0.3,4,0.4,6.2-0.8
			c1.5-0.9,3.9-0.2,6.1-0.2c0.1-1.5,0.8-2.9-0.5-4.2c-0.4-0.4-0.4-0.9-0.3-1.4c0.7-4.9-1.4-9.7-1-14.6c0.2-2.5-1.4-4.5-1.1-7.1
			c0.2-2.1,0.9-4.6-0.9-6.6c-0.2-0.2-0.1-0.7,0-1c0.7-4.9-1.7-9.7-1-14.6c0.2-1.3-0.7-1.7-1.4-2.5c-2.7,0-5.5,0-8.5,0
			c0,1.5,0,3,0,4.4c-3.3,1.6-6.7,1.7-10.1,1.6c-2.1-0.1-3.8,1.4-6.1,1.1c-2-0.3-4.2-0.4-6.1,0.9c-0.1,0.1-0.3,0-0.5,0
			c-5.3-0.7-10.3,1.6-15.6,1c-2.1-0.3-3.5,1.5-5.7,1.2c0,1.2,0,2.3,0,3.1c-0.5,0.8-1,0.6-1.5,0.8c-3.1,0.8-6.3,1.1-9.6,1.1
			c-1.1,0-2.2,1.4-3.6,0.9c-1,1.5,0,3.2-0.8,5.1c-2.9-0.4-5.8,0.2-8.6,1.4c0,0.7,0,1.3,0,2c-1.3,1.3-2.9,0.4-4.6-2.7
			c-3.1,1.6-6.6,1.2-9.9,1.2c-1.1-1.1,0-2.6-0.7-3.7c-0.6-1.1-1.9-1-2.8-1.8c0.3-4.7-1.8-9.3-1-14.1c-1.6-2.9-0.1-6.3-1.3-9
			c-1.3-3.2-0.3-6.2-0.7-9.2c-0.1-0.7-0.5-1.2-0.9-1.6c0.5-1.6,2.4-1.3,3.4-2.6c1.9,0,3.9-0.2,5.8,0.1c2.4,0.4,4.3-1.1,6.6-1.2
			c2.2,0,4.6,1.1,6.6-0.9c0.3-0.3,1-0.1,1.5,0c4.8,0.7,9.3-1.8,14.1-1c1.3,0.2,2-1,3.2-1c2.4,2.4,1.5,5.6,1.8,8.9
			c3.1-0.2,6.3,1,9.4-0.8c0.6-0.4,1.6-0.1,2.4-0.1c2.1-0.1,4.1,0.2,6.1-0.9c1.6-0.8,3.9,0.8,5.6-1.1c0.1-0.2,0.6-0.1,1,0
			c4.8,0.7,9.3-1.5,14.1-1c2.2,0.2,4.2-1.3,6.6-1.1c2.2,0.2,4.6,0.7,6.6-0.9c0.1-0.1,0.3,0,0.5,0c4.8,0.7,9.4-1.6,14.1-0.9
			c2.4,0.4,4.2-1.4,6.6-1.1c2.3,0.3,4.9,0.7,6.9-0.1c2.8-1.1,5.5-0.8,8.2-0.8c2.6,0,4.9-1.9,7.5-0.9c1.5,3,1.5,6.2,1.3,9.4
			c-0.2,3.1,2,5.9,0.7,9.4c-5.3-0.7-10.6,1.6-16.2,1c-0.5,0.5-1,1-1.4,1.4c-0.4,1,0.3,1.5,0.9,2c0,1.2-0.1,2.4,0,3.5
			c0.1,1.3-0.7,3,0.4,3.8c1.3,0.9-1.3,1.8,0.3,2.7c0.6,0.4,0.2,2.5,0.3,3.8c0,1.2-0.4,2.5,0.1,3.5c1.3,2.7,0.7,5.4,1,8.1
			c0.2,2.2,1.2,4.2,1,6.6c-0.2,2.2-0.6,4.6,0.9,6.6c0.1,0.1,0,0.3,0,0.5c-0.7,4.8,1.6,9.3,1,14.1c-0.2,2.1,1.4,3.9,1.1,6.1
			C609.8,789.6,610,791.6,610,794.3z"/>
		<path d="M549,760.8c0,1.7,0,2.7,0,3.8c3.9,1.7,7.6-1.5,11.5-0.5c2.1,4.6,1.4,9.6,1.5,14.6c-0.7,0.1-1.1,0.2-1.6,0.3
			c-0.1,0.1-0.3,0.2-0.3,0.3c0,2.5-0.5,4.9,0.3,7.3c0.2,0.5,0.8,1,0.7,1.7c-0.8,4.8,1.3,9.3,1,14.1c-0.1,2.1,1.5,3.8,1.1,6.1
			c-0.3,1.9-0.6,4.2,0,5.9c1.2,3.1-0.1,6.4,1.1,9c1.6,3.6,0.2,7.2,1.5,10.9c1.1,3.3,0.3,7.2,0.3,10.9c0,0.5-0.1,0.9-0.1,1.3
			c-0.2,0.2-0.4,0.3-0.5,0.3c-5.9-0.7-11.7,1.5-17.6,1c-3.1,1.4-6.5,0.3-9.5,1.2c-3.3,1-6.4,0.6-9.6,0.9c-0.4,0-0.8,0.6-1.1,0.9
			c-0.8-0.7-1.4-1.4-1.6-2.7c-0.7-4-1.2-8-0.9-12.1c0.1-0.8-0.6-1.1-1-1.6c0.8-1.1,1.8-1.8,3.3-1.5c4.3,0.7,8.3-1.5,12.6-1
			c2.3-1.7,5-0.7,7.9-1.1c-0.2-3.4,1.1-6.9-0.8-10.3c-0.1-0.3-0.1-0.6-0.1-1c0.8-4.4-1.4-8.7-1-13.1c0.2-2-0.6-3.7-1.5-5.6
			c-3.4,0.6-7.1-1-10.4,1c-0.4,0.2-1,0.1-1.5,0c-5.1-0.6-10,1.6-15.1,1c-2.9,1.5-6,1.1-9.1,0.9c-1.3-0.1-1.7,1.8-3.2,0.9
			c-1.1-1.5,0.3-3.6-1.1-5.5c-0.9-1.3-0.2-3.9-0.2-5.9c-0.7-1-1.9-0.1-2.6-0.6c-0.6-0.8-0.3-1.6-0.3-2.5c0.6-0.2,1.1-0.4,1.9-0.7
			c0-1.7,0-3.5,0-5.2c1.9-0.9,3.6-1.6,5.6-1.6c2,0,4,0.5,6.2-0.7c1.5-0.9,3.9-0.2,5.9-0.2c0.6-1.3,0.4-2.5,0.2-3.7
			c-1.9-0.8-3.5-0.2-5,1c-0.6-0.6-1.1-1-1.8-1.6c0.3-5.7-2.1-11.3-0.7-17.6c2.7,0.3,5.4-0.3,8.2-0.9c2.6-0.6,5.5,0.8,8-0.8
			c0.4,0.4,1.3,0.9,1.3,1.3c-0.2,4.6,1.4,9,1.2,13.6c-0.1,2.6-1.9,4.9-1,7.5c1.6,0.9,2.8,0.3,3.9-1.2c-0.4-2.2,0.7-4.7-0.9-6.9
			c1.3-1.5,0.8-3.9,2.5-5.5c0.4,0,1,0,1.8,0c0.6,0.6,1.4,1.3,2,1.9c1.3,0,2.7,0,4,0c0.5-0.5,1-1,1.5-1.5c-0.5-0.4-1-0.8-2.2-1.7
			c-0.8-0.4-1.5,2.6-2.8,1.3c-2.8-0.9-1.7-3.1-2.2-5.1c-0.9,0.8-1.7,1.4-2.4,2c-1.3,0.2-2.3-0.1-3.1-1.2c1-1.3,0.2-3.4,1.9-4.5
			c1.1-0.7,2.2,0,3.2-0.4c1.1,0.8,0.2,2,0.8,2.8C542.5,759.6,545.6,759.6,549,760.8z"/>
		<path d="M574.9,856c0.6-1.9-0.8-3-1-4.3c0.8-1.1,1.9-0.6,2.8-0.6c8.5,0,17,0.1,25.5-0.1c3.1-0.1,5.9,1.5,9.1,1.1
			c3.1-0.4,6.3-0.1,9.5-0.1c1,0,1.9,0,3.2,0c0.1-2.5-2.8-3.3-2.8-5.5c0-4.5,0.8-8.6,5.6-10.8c2.2-1,4.7-0.4,6.8-1.7
			c4.8,0.7,9.3-1.4,14.1-1c1.6-3,2.3-6.6,6.2-7.3c-0.3-1-1.1-0.6-2-1.1c0.6-4-1.1-8-1.1-12.2c0-4-1.3-8-0.7-12.4
			c5.2,0.7,10.1-1.7,15.4-0.9c1.4,2.9,1.7,6.1,1.4,9.3c-0.2,2.2,1.3,3.9,1.1,6.1c-0.2,2-1,4.3,0.8,6.1c0.2,0.2,0.2,1,0,1.5
			c-1.9,3.9-1.1,7.8,0,11.7c0.2,0.6,0,1.3,0,1.8c-5.5,2.1-11.1,1.4-16.5,1.5c-1.7,3,0.9,5.6,0.6,8.4c-0.3,2.7-0.4,5.5,1.3,7.7
			c-1.5,1.5-3,0.3-4.3,1.2c-0.1,1-0.1,2.1-0.2,3.2c-0.3,0.1-0.6,0.4-0.8,0.4c-14-1.8-28-0.7-42.1-1c-5.1-1.7-10.4-0.8-15.6-1
			C586.1,855.9,580.8,856,574.9,856z"/>
		<path d="M614.6,828.1c0.9,0.4-0.4,2.2,1.4,2.1c0,2.9-0.2,5.6,0.1,8.2c0.2,1.7,1.1,3.2,1,5.1c-0.1,1.3-0.9,1.7-1.6,2.6
			c-4.7-1-9.2,1.5-13.9,0.9c-3.4,1.6-7,0.9-10.6,1c-1.9,0-3.5,1.4-5.6,1.1c-1.6-0.2-3.3-0.3-5.2,0.7c-1.5,0.9-3.9,0.2-5.8,0.2
			c-1.2-2.7-1.8-5.5-1.5-8.4c0.4-2.8-1.8-5.2-0.9-8.1c3.7-1.2,7.6-1.8,11.7-1.5c2.1,0.2,3.9-1.4,6.1-1.1c2,0.3,4.2,0.5,6.1-0.9
			c0.3-0.2,1-0.1,1.5,0c5.2,0.6,10.3-1.7,15.5-1C613.8,829.1,613.9,828.2,614.6,828.1z"/>
		<path d="M620.5,770c5.7,0.8,11.3-2.1,17.4-0.7c2,7.8,1.6,16,2.9,24.4c-5.8,1.5-12,2.5-18.8,2.2c0.4-3.2-0.4-6-1.9-8.7
			C623,781.7,618.4,775.9,620.5,770z"/>
		<path d="M630,754.5c-0.7,0.8-2,0.4-2.4,1.4c-3.2,0-6.3,0-9.4,0c-0.8-6.5-1.6-12.8-2.4-18.9c1.8-2,3.8-2.2,5.9-2
			c2.1,0.2,4.1-0.2,6.4-1.5c-0.2,2.8,0.2,4.9,0.9,7.1c0.7,2.2-0.3,4.6,0.9,7.1C630.7,749.6,630,752.3,630,754.5z"/>
	</g>
</g>
</svg>
