<?xml version="1.0" encoding="utf-8"?>
<!-- Generator: Adobe Illustrator 17.1.0, SVG Export Plug-In . SVG Version: 6.00 Build 0)  -->
<!DOCTYPE svg PUBLIC "-//W3C//DTD SVG 1.1//EN" "http://www.w3.org/Graphics/SVG/1.1/DTD/svg11.dtd">
<svg version="1.1" id="Layer_1" xmlns="http://www.w3.org/2000/svg" xmlns:xlink="http://www.w3.org/1999/xlink" x="0px" y="0px"
	 viewBox="0 0 1440 937" enable-background="new 0 0 1440 937" xml:space="preserve">
<g>
	<g>
		<path d="M529.8,562.2c0.7-3.1-1-6.1,1.2-8.8c0.2-0.2,0.1-0.7,0-1c-0.8-5.6,1.4-11,1-16.6c-0.2-2.6,1.4-4.9,1.1-7.6
			c-0.2-2.3-0.7-4.8,0.8-7.1c0.5-0.7,0-2,0.1-3c0.1-2.1-0.4-4.2,0.9-6.1c0.5-0.7,0.1-1.9-0.9-2.5c1.9-1.6,0.6-3.7,1-5.6
			c0.3-1.9-0.2-3.7,0.9-5.7c0.8-1.6,0.2-3.9,0.2-5.8c0.5-0.5,0.8-0.8,1.3-1.3c3.4-1.2,6.7,2,10.6,0.5c-0.3-2.2,1-4.2,1.4-6.6
			c0.8-0.1,1.6-0.2,2.4-0.3c1.8-6.4,1.2-13.1,2.7-19.9c3.1,0.5,6.5-0.8,9.7,1c0.4,0.2,1,0.1,1.5,0c5.3-0.6,10.3,1.7,15.6,1
			c3.3,1.4,7,0.2,10,1.2c3.5,1.2,6.9-0.1,10.1,0.9c3.4,1.1,6.8,0.3,10.1,1.1c2.4,0.6,4.7,0.8,7.5,0.9c-0.3,4.3,1.1,8.7-0.9,12.9
			c-0.1,0.3-0.1,0.7,0,1c0.7,5.4-1.5,10.6-1.1,16.1c0.1,2.1-1.2,4.3-1,6.6c0.2,2.2,0.5,4.5-0.9,6.6c-0.1,0.1,0,0.3,0,0.5
			c0.7,5.6-1.8,11-1,16.6c0.3,2.1-1.4,3.5-1.1,5.6c0.3,2,0,4,0.1,6c0,1-0.9,1.3-1.3,1.9c-2.3,0.9-4.8-0.6-7.2,1
			c-1.8,1.1-4.5-0.5-6.5,1.3c-3.1-0.8-6,0.9-9.1,1.1c-3.7,0.2-7.3,1.6-11,2.3c-3.8,0.8-7.5,2.6-11.4,2.5c-1.2,0-1.6,0.9-2.6,1.1
			c-4.1,1-8.3,1.6-12.3,2.9c-3.7,1.2-7.7,1.2-11.3,2.9c-1.6,0.7-3.7,0.4-5.6,1C533.4,561.2,531.9,561.8,529.8,562.2z M556.9,506.3
			c0,1.7,0.7,3.9-0.2,5.2c-1.3,2-0.8,3.9-0.7,5.7c0.1,2.2-1.5,3.8-1.2,6.1c0.9,5.7-1.6,11.3-0.9,17c0.1,0.6-1.1,0.7-0.8,1.5
			c0.5,0.4,1,0.9,1.2,1.1c4.2-1,8.1-2.2,12-2.8c2.2-0.3,3.9-1.1,5.6-2.6c-0.9-6.3,1.6-12.5,0.9-18.9c0-0.2-0.1-0.4,0-0.5
			c2-3.5,0.5-7.3,1.1-10.9C568.2,506.8,562.8,505.2,556.9,506.3z M599.5,533.4c1.4-6.2,1.1-11.7,2.5-17c-0.4-0.4-0.9-0.9-1.4-1.4
			c-3.3-0.4-6.6,0.4-10-0.9c-1.5-0.6-4-1-5.6,1.5c0.9,6.6-2.2,13.4-0.6,20.8c2.1-1.8,4.7-0.7,6.6-1.6c2.2-1,4.4-0.7,6.8-0.9
			C597.6,532.3,599.4,533.5,599.5,533.4z M558.2,501.3c5.8-1.4,11.2,1.4,16.5,0.6c0.8-5.1,2-9.8,1-15c-5.5,1-10.9-0.8-16.3-0.9
			C557.9,491,557.7,495.8,558.2,501.3z M602.9,505c-0.1-4.9,2.1-9.7,0.8-15.1c-5.2,1.2-10.3-1.7-15.7-0.7c0.5,4.7-1.9,8.9-0.7,13.6
			c0.4,0.5,1.8,0,2.3,1.5C593.9,502.8,598.1,505.2,602.9,505z"/>
		<path d="M546.6,429.2c-0.7-1.1-1.6-1.4-2.4-1.3c-1.2-6.1,1.8-11.6,0.6-17.2c0.5-0.5,0.9-0.9,1.2-1.2c0.2-0.4,0.4-0.4,0.7-0.1
			c0.3,0.3,0.6,0.8,1.2,0.7c5.9-0.7,11.7,1.6,17.6,1c1.1-0.1,2.3-0.5,2.8,1c2.4-1.5,1.3-3.7,1.7-5.9c2.8,0.3,5.6-1.1,8.4,0.8
			c0.2,0.2,0.6,0.1,1,0.1c5.3-0.7,10.4,1.4,15.6,0.9c2.7-0.2,4.9,1.3,7.6,1.1c2.5-0.2,5,0,7.6,0.8c2.6,0.8,5.6,0.2,8.8,0.2
			c0-2.7,0.1-5.3,0-7.9c-0.1-2.5,0.1-4.8,2.5-7c1.2-0.2,3-0.7,4.2,0.3c1.6,1.3,3.3,0,5.1,1.1c1.1,2.3,2.2,5,0.2,8
			c-0.3,0.5-0.1,1.3-0.1,2c0.1,1.8,0.2,3.6-1.2,4.8c0.9,1.3,2.1,0.4,3.2,1.2c-0.7,3.5,1.2,7.5-1,11.2c-0.1,0.2-0.1,0.7,0,1
			c0.7,5.6-1.6,11-1,16.6c0.3,2.4-1.4,4.5-1.1,7.1c0.3,2.2-0.1,4.4-0.7,6.6c-0.8,3.1-0.2,6.5-0.2,9.9c-5.1,0.4-9.9,0.1-14.4-1.8
			c-0.3-0.1-0.6-0.1-1-0.1c-5.1,0.8-10-1.1-15.1-1.1c-3.7,0-7.3-1.1-11.1-0.9c-3.8,0.2-7.8,0.6-11.5-0.1c-3.6-0.7-7.1-0.9-10.6-0.8
			c-1.5,0-2.2-2.4-4.4-0.4c0-3.2-0.8-6.1,0.2-8c1.1-2.4,0.7-4.5,0.7-6.7c0-2.5,0.8-4.6,1.5-6.9c0.4-0.2,1,0.2,1.5-0.7
			c0-2.2,0-4.6,0-7.5C558.6,430.8,552.7,428,546.6,429.2z"/>
	</g>
</g>
</svg>
