<?xml version="1.0" encoding="utf-8"?>
<!-- Generator: Adobe Illustrator 17.1.0, SVG Export Plug-In . SVG Version: 6.00 Build 0)  -->
<!DOCTYPE svg PUBLIC "-//W3C//DTD SVG 1.1//EN" "http://www.w3.org/Graphics/SVG/1.1/DTD/svg11.dtd">
<svg version="1.1" id="Layer_1" xmlns="http://www.w3.org/2000/svg" xmlns:xlink="http://www.w3.org/1999/xlink" x="0px" y="0px"
	 viewBox="0 0 1440 937" enable-background="new 0 0 1440 937" xml:space="preserve">
<g>
	<g>
		<path d="M689.3,437c-1.3,0-2.1-0.1-2.9,0c-4.8,0.5-9.3-1.8-14.1-1c-3.4-1.8-7.1-0.6-10.6-1c-3.5-0.4-6.9-1.6-10.9-0.6
			c0.5-3.9-0.2-7.2,1-10.6c0.8-2.5,0.2-5.6,0.2-8.3c0.8-0.7,1.3-1.7,2.6-1.5c2.3,0.4,4.9-0.9,7.1,1c0.2,0.2,0.7,0.1,1,0
			c5.3-0.7,10.3,1.6,15.6,1c2.2-0.3,3.8,1.5,6.1,1.1c2.1-0.4,4.3,0,6.5-0.1c1.1-0.1,1.4,1.6,3,0.7c0.2-4.6,1.9-9.3,1.1-14.7
			c4.1,0.2,8-0.6,12,1.5c1.3,2-0.8,4.2-0.8,6.5c0,2.5,0,5,0,7.8c2.4,0.5,4.8,0.1,7.6,0.3c0.5,0.7,1.2,1.6,2.3,3c0,0.2,0,1.1,0,2.2
			c-2.6,2.2-2.2,5.9-3.8,8.8c-1.5,2.8-1.9,6.2-2.8,9.5c0.5,0.6,0.9,1.6,0.6,3.2c-0.8,0.7-2,1.7-2.7,2.3c-1.4,7.5-5.9,13.8-5.2,21.3
			c-0.3,0.5-0.8,0.5-1.6,0.5c-1,4.6-3.6,8.8-4.4,13.5c-0.4,2.2-1.8,3.9-2.3,6.1c-0.6,2.7-0.5,5.4-0.8,7.9c-0.4,0.7-0.9,0.5-1.6,0.5
			c-2.1,5.8-4.2,11.8-6.3,17.7c-0.3,1-0.4,2.4,1.3,2.8c-1.4,1.2-0.7,3.5-3,3.7c-0.5,0-1.3,1.8-1.2,2.3c0.2,4.2-2.4,7.4-3.5,11.1
			c-0.6,2-0.1,4.5-1.9,6.2c-5.6,0.8-11.5-0.9-17.1,1.1c-0.3-0.3-0.7-0.6-1.1-0.9c-0.2,0.2-0.4,0.6-0.7,0.6
			c-10.1,0.9-20.2,0-30.4,0.5c-0.7,1.1-1.8,1-3,0.8c-1.7-2.8,1-5.2,0.5-7.9c-0.5-2.7,1.6-5,1-7.6c-0.6-2.8,1.5-5.3,0.9-8.2
			c1.6-0.3,3-0.8,4.2,0.4c0.5,0.4,0.9,0.3,1.4,0.3c1.7,0,3.4,0.3,5-0.1c1.8-0.4,2.9,1.3,4.6,1.1c5.6-0.7,11,1.7,16.6,0.9
			c0.9-0.1,1.3,0.7,2,0.9c1.5-1.4,2-3.1,2.5-5c0.6-2.8,1.9-5.5,2.8-8.3c0.7-2.4,2.4-4.5,2.1-7.1c-0.1-1.2,0.8-1.7,1.1-2.6
			c3-9.6,6.1-19.1,9.2-28.6c0.9-2.6,1.7-5.3,2.7-7.9c0.9-2.5,2.3-4.8,2-7.7c2.8-4.9,3.2-10.6,5.6-15.7
			C689.3,439.6,688.6,438.5,689.3,437z"/>
		<path d="M672.9,453.4c-4.7-2.1-9.1-1.2-13.5-1.4c-0.4-1.1-1.8-0.7-2.5-1.5c0.3-3.1-0.8-6.4,1.6-9.5c2.3,0.4,4.7-0.2,7.4,0.8
			c2.3,0.9,5.2,0.2,7.8,0.2C674.9,446,672.5,449.4,672.9,453.4z"/>
	</g>
</g>
</svg>
