<?xml version="1.0" encoding="utf-8"?>
<!-- Generator: Adobe Illustrator 17.1.0, SVG Export Plug-In . SVG Version: 6.00 Build 0)  -->
<!DOCTYPE svg PUBLIC "-//W3C//DTD SVG 1.1//EN" "http://www.w3.org/Graphics/SVG/1.1/DTD/svg11.dtd">
<svg version="1.1" id="Layer_1" xmlns="http://www.w3.org/2000/svg" xmlns:xlink="http://www.w3.org/1999/xlink" x="0px" y="0px"
	 viewBox="0 0 1440 937" enable-background="new 0 0 1440 937" xml:space="preserve">
<g>
	<g>
		<path d="M751.5,510c0.5,0.5,1,1,1.5,1.5c-0.7,5.3,1.7,10.6,1,16c1.5,3.1,0.4,6.5,1.1,9.5c0.9,3.7,0.6,7.4,1,11.1
			c0.3,2.5,1.4,4.9,0.7,7.5c-0.1,0.1-0.3,0.3-0.4,0.3c-5.3-0.6-10.3,1.7-15.6,1c-4.1,1.7-8.3,0.7-12.3,1.1c-2.2,1.3-2,3.6-1.4,5
			c0.7,1.8,0.8,3.4,0.8,5.1c0,1.8,0,3.6,0,5.4c-1.2,0.8-2.3,0.3-3.6,0.5c-0.9,1.3-0.3,2.8-0.4,4.2c-0.1,1.5,0,3,0,4.3
			c-5.8,2.1-11.9,0.8-17.5,2.7c-1.3-4.4-1.1-8.7-1.7-12.8c-0.4-3-0.8-6.1-0.8-9.1c0-2.1-1.4-3.9-1.1-6.1c0.2-2,0.7-4.2-0.9-6.1
			c-0.2-0.2-0.1-0.7,0-1c0.7-5.4-1-10.7-1.2-16.1c-0.2-3.7-0.7-7.4-0.8-11.1c0-0.7-0.7-1.4-1-2c0.2-1.4,1.9-1.7,1.9-2.8
			c0-1.2,1-2.2,1-3.1c-0.1-3,1.5-5.4,2.2-8.2c1-4.4,2.7-8.6,3.9-12.9c0.3-0.9,0.9-1.3,1.3-2c4.9,1.7,9.8,3.3,14.9,5.1
			c-0.7,5.1-2.6,9.7-3.8,14.5c3.4-0.2,2,3.8,4,5c3,1.2,5.5-1.5,8.5-0.8c0.1-1.4,0.1-2.5,0.2-3.6c0.7-0.6,2.1-1.3,2.4-1.3
			C740.9,511.8,746.2,509.6,751.5,510z"/>
		<path d="M738.9,490.1c-9.3-2.6-17.6-5.5-25.9-8.4c0.2-0.9,0-1.7,0.3-2.5c5.9-18,11.6-36.1,17.6-54.3c3.9,0.8,7.5-1,10.9,1.1
			c0.4,0.2,1,0.1,1.5,0c5.6-0.7,11,1.4,16.6,1.1c2.2-0.1,4.2,1.2,6.6,1c2.2-0.2,4.6-0.6,6.6,0.9c0.1,0.1,0.3,0,0.5,0
			c5.6-0.6,11,1.7,16.6,1c2.2-0.3,3.9,1.4,6.1,1.1c2.1-0.3,4.5-0.6,6.4,0.1c2,0.7,4,0.8,6.5,0.9c-0.7,9-2.3,17.8-2,26.5
			c-0.6,0.6-0.9,0.9-1.3,1.3c-0.9-0.4-1.8-1-3-0.8c-6.1,0.6-12-1.6-18.1-1c-3.4-1.5-7.1-0.4-10.5-1.1c-3.9-0.8-7.8-0.5-11.6-1
			c-2-0.3-4-0.9-6.1-0.9c-2,0.1-4,0-6,0C746.6,466.7,742.7,478.4,738.9,490.1z"/>
		<path d="M836,528.1c0,4.1-0.4,7.1,2.1,9.5c-1.1,4.3,0.9,8.5,0.8,12.9c0,4.3,0,8.6,0,12.9c-0.5,0.5-1,1-1.5,1.5
			c-6-0.7-11.9,1.7-18,1c-2.9,1.5-6.2,0.4-9,1.2c-2.9,0.8-5.8,0.3-8.6,1c-3.4,0.8-6.8,0.3-10.1,1c-3.6,0.8-7.1,0.8-10.6,0.8
			c-0.8,0-1.1,0.5-1.6,0.9c-2.8-1.6-1-4.5-1.8-6.8c-2.4,0-4.8,0-7.7,0c0.5-3.7-1.2-7.1-1-10.5c0.3-3.5-1.5-6.6-1-10.5
			c2.3,0.2,4.4-1.1,6.9-1.4c0-2.1,0-4.2,0-6.7c1.6,0,3,0,4.5,0c4.5,0,9-1.7,13.6-1c2.7-1.8,5.7-0.7,8.6-1.1c1-1.8-0.1-3.8,0.7-6
			c1.8,0.3,3.6-0.2,5.3-1.2c1,2.2-0.7,4.8,2.1,6.2c2.5,0.8,5-1,7.8-1.1c2.7,0,5.5,1,8.1-0.8c0.9-0.6,2.6-0.1,3.9-0.1
			C831.6,530,833.7,530.3,836,528.1z"/>
		<path d="M836.9,510.6c-0.5,0.5-0.9,0.9-1.2,1.2c-5.6,1.1-11-1.6-16.6-0.8c-3-1.9-6.4-0.6-9.4-1c-2-0.9-2.2-3-1.5-4.2
			c1-1.8,0.9-3.5,0.8-5.2c-0.2-2.8,0.8-5.4,1-8.1c0.2-2.6-0.5-5.5,0.2-7.9c0.9-3.1,0.9-6.1,0.8-9.1c-0.1-2.1,1.5-3.8,1.1-6.1
			c-0.3-1.9-0.6-4.2,0-5.9c1.3-3.4,0.8-6.7,0.8-10.1c0.1-2.1,1.4-3.8,1.1-6.1c-0.3-2,0-4,0.7-6.1c0.8-2.4,0.2-5.2,0.2-8.2
			c4.5,0.6,8.9-0.7,13.2,1c1.9,0.7,4.2,0.1,6.7,0.1c0,3,0,5.9,0,9c1.7,0,3,0.2,4.3,0c1.5-0.2,2.2,1.3,3.7,1.2
			c-0.1,1.4,0.7,2.9-0.7,4.1c-0.2,0.2-0.3,0.6-0.2,0.9c0.7,4.8-1,9.3-1.1,14.1c-0.1,4.9-1.5,9.6-1,14.6c-1.6,2.7-0.5,5.8-1.1,8.6
			c-0.9,4.2-0.1,8.6-1.2,12.5C836.7,502.8,837.6,506.6,836.9,510.6z"/>
		<path d="M761.2,510.2c2.5-0.2,4.7-1.9,7.4-1c1.9,2.1,1.5,4.8,1.3,8c-2.9-1.5-5.6,2.8-8.7-0.5C761.2,514.7,761.2,512.6,761.2,510.2
			z"/>
	</g>
</g>
</svg>
