<?xml version="1.0" encoding="utf-8"?>
<!-- Generator: Adobe Illustrator 17.1.0, SVG Export Plug-In . SVG Version: 6.00 Build 0)  -->
<!DOCTYPE svg PUBLIC "-//W3C//DTD SVG 1.1//EN" "http://www.w3.org/Graphics/SVG/1.1/DTD/svg11.dtd">
<svg version="1.1" id="Layer_1" xmlns="http://www.w3.org/2000/svg" xmlns:xlink="http://www.w3.org/1999/xlink" x="0px" y="0px"
	 viewBox="0 0 1440 937" enable-background="new 0 0 1440 937" xml:space="preserve">
<g>
	<g>
		<path d="M506.3,629c2,3.6,0.8,7.3,1.9,10.3c1.4,3.9-0.4,8.1,1.7,11.8c0.4,0.6,0.1,1.6,0,2.5c-0.6,4.8,1.6,9.3,1,14.1
			c1.6,2.9,0.8,6,1,9.1c0.1,2.2,1.3,4.2,1.1,6.6c-0.2,2.2,0.1,4.4,0.7,6.6c0.8,2.9,0.2,6.3,0.2,9.4c-2.9,1.8-6.1,1.7-9.3,1.6
			c-2.4-0.1-4.5,1.4-7.1,1.1c-2.2-0.3-4.6-0.7-6.6,0.9c-0.1,0.1-0.3,0-0.5,0c-5.3-0.6-10.3,1.6-15.6,1c-2.9-0.3-5.6,1.9-8.7,0.7
			c-2-1.8-2.9-4.6-3.9-7.1c-2.2-5.4-4.4-10.9-7.1-16c-1.5-2.8-2-6.2-3.9-8.9c-0.2-0.2-0.3-0.6-0.2-0.9c0.6-3.5-1.9-6.7-0.9-10.1
			c0.5-1.6-1.9-2.8-0.1-4.2c-1.6-1.2-0.8-3-1-4.6c-0.2-1.6,0.5-3.3-1-4.6c0.5-4.4-0.8-8.7-1.1-13.5c4.7,0.9,8.9-0.7,13.2-1.1
			c3.7-0.3,7.4-0.6,11.1-0.8c1.9-0.1,3.6-1.3,5.6-1c1.7,0.2,3.6,0.4,5.1-0.9c0.2-0.2,0.7-0.1,1,0c5.1,0.7,10-1.6,15.1-1
			c1.6,0.2,2.5-1.3,4.1-1.1C503.5,629.2,505,629,506.3,629z"/>
		<path d="M416.2,593.4c2.6-1.2,5.6-1.9,8.7-1.4c2.3,0.4,4.2-1.4,6.6-1.1c2,0.2,4.3,1.1,6.1-0.9c0.2-0.2,0.6-0.1,1,0
			c5.3,0.8,10.3-1.6,15.6-1c2.5,0.3,4.5-1.4,7.1-1.1c2.1,0.2,4.6,0.9,6.6-0.9c0.1-0.1,0.3,0,0.5,0c4.6,0.8,9-1.6,13.6-0.9
			c2.6,0.4,4.6-1.2,7.1-1.1c2.4,0,4.7,0.3,7.1-0.8c1.8-0.8,4.3-0.2,6.8-0.2c-0.3,4,1.8,7.8,1.2,11.8c-0.4,2.5,1.3,4.6,1.1,7.1
			c-0.2,2.3-0.8,4.9,0.9,7.1c0.1,0.1,0,0.3,0,0.5c0,1.8,0.2,3.7-0.1,5.5c-0.2,1.7,1.8,2.8,0.9,4.8c-3.9,0.2-7.7,1.8-11.8,1.3
			c-2.1-0.2-3.8,1.4-6.1,1c-2-0.3-4.2-0.4-6.1,0.9c-0.1,0.1-0.3,0-0.5,0c-5.3-0.8-10.3,1.3-15.6,1c-2.3-0.1-4.2,1.4-6.6,1.1
			c-2-0.2-4.2-0.6-6.1,0.9c-0.3,0.2-1,0.1-1.5,0c-5.1-0.6-10,1.4-15.1,1.2c-1.9-0.1-3.9,1.2-5.8,0.8
			C426,617.3,420.9,605.5,416.2,593.4z"/>
	</g>
</g>
</svg>
