<?xml version="1.0" encoding="utf-8"?>
<!-- Generator: Adobe Illustrator 17.1.0, SVG Export Plug-In . SVG Version: 6.00 Build 0)  -->
<!DOCTYPE svg PUBLIC "-//W3C//DTD SVG 1.1//EN" "http://www.w3.org/Graphics/SVG/1.1/DTD/svg11.dtd">
<svg version="1.1" id="Layer_1" xmlns="http://www.w3.org/2000/svg" xmlns:xlink="http://www.w3.org/1999/xlink" x="0px" y="0px"
	 viewBox="0 0 1440 937" enable-background="new 0 0 1440 937" xml:space="preserve">
<g>
	<g>
		<path d="M841.5,771.1c2.8-2.1,0.9-3.9,0.3-5.8c-0.7-0.7-1.6-0.1-2.4-0.4c-0.8-1.1-0.1-2.8-1.6-3.8c-1.5-1-1-2.5,0-3.5
			c-0.5-1.8-1.6-3.2-2.7-4.1c0-3.1,3.2-1.7,4-3.5c0.8-1.7,2.6-2.1,4.7-2c0.1-2.8,2.6-3,4.4-4.1c1.9-1.1,3.2-3.1,5.5-3.8
			c0.1,0.1,0.3,0.3,0.7,0.7c1.1-1.1,2.8-1.3,3.8-0.7c2.2,1.3,4.4,0.7,6.6,0.9c7.5,0.7,15,1.1,22.6,1.2c2.4,0,5,0.8,7.6,0.9
			c1.7,0.1,2.8-1.3,4.6-1.2c3.7,0.1,7.3,1.5,11.1,1.2c3.6-0.3,7.5-0.8,10.9,0.1c4.4,1.1,8.8,0.8,13.1,0.7c6.2-0.1,12.3,2.1,18.7,0.8
			c0.8,1,1.4,1.9,2.6,3.5c-0.1-0.6,0-0.3,0,0c0,3,0.6,6.1-0.1,9c-1.8,7.9-0.4,15.8-0.9,23.6c0,0.3,0.1,0.6,0.2,0.9
			c2,1.3,2,1.3,6.7,1.2c2.2-3.2,0.4-7,1.4-10.9c6,0,12.3,0,18.6,0c3,1.8,6.4,1,9.6,0.9c8.7-0.1,17.3,2,26.4,0.8
			c-0.1-4.4,1.6-8.8,1.2-13.6c-0.3-3.3-0.8-6.7,0.3-9.8c1.1-3.1,0.4-6.2,0.6-9.2c0.2-3.3,0.2-6.7,0-10c-0.1-1.6,1.4-2.5,1.1-4.1
			c-0.2-1.5,0-3,0-4.9c3.4,0.2,6.6-0.6,10,0.8c1.7,0.7,3.9,0.1,5.9,0.1c1.5,0,3,0,4.5,0c1.7,0,3.3-0.1,5,0c1.4,0.1,3-0.6,4.1,1
			c1.2-1.7,2.4,0.4,3.7,0.1c1.4-0.3,3-0.1,4.5-0.1c1.7,0,3.3,0,5,0c1.5,0,3,0,4.5,0c1.2,0.9,3,1.1,3.8,2.7c0.1,1.3-1.6,2-1.1,3.5
			c0.8,2.4-1.3,4.6-1,7.1c0.3,2.4-1.7,4.6-1,7.1c-1.8,2-1.1,4.4-0.9,6.6c0.3,3-1,5.7-1.2,8.6c-0.2,2.6-0.7,5.2-1.6,7.8
			c-0.8,2.2,0.4,4.9-1.2,7c0.4,3.8-2.1,6.9-2.5,10.5c-0.1,0.8-0.4,1.8-0.5,2.7c-0.2,3-1.3,5.8-1.7,8.8c-0.4,3.1-1.1,6.2-1.5,9.4
			c-0.1,0.1-0.3,0.3-0.4,0.3c-6.7-0.7-13.3,1.6-20.1,1c-4.1,1.4-8.4,1-12.6,1c-0.9,0-1.4,0.6-2.1,0.9c-3.1,1.1-6.2,2.3-9.6,2.2
			c-2.2-0.1-4.3-0.1-6.5,0c-2,0.2-3.6-1-5.6-1.1c-5.6-0.3-10.9,1.9-16.3,1.1c-0.8,0.8-1.4,1.4-2.1,2.1c-3.3-1-6.5,1-9.9,0.9
			c-3.3-0.1-6.7,0-10.2,0c-1.3-3.1-2.2-6.1-0.5-9.5c0.6-1.2,0.1-2.9,0.1-4.3c-2.7-0.6-5.4,0.6-7.4-1.5c-2,7.9-1.6,15.4-1.5,22.9
			c0.1,3.4-1.5,6.6-1.1,10.1c0.4,3.5,0,7,0.1,10.5c0.1,1.4-1.3,2.2-1.3,3.5c-7.8,1.1-15.6-0.5-23.6-0.9c0,2.7,0,5.2,0,7.7
			c-2.4,0.9-4.5,0.5-6.4-0.7c-0.5,0.5-0.9,0.8-1.2,1.1c-0.5-0.6-1.1-1.1-2.1-1c-2,0.1-4,0-6,0c-4.7,0-9.4,0.4-14.4-1.5
			c-1.7-2.2-3-5.2-4.4-8.5c-1.5,0-3.1,0.1-4.7,0c-6.4-0.5-12.7-1.4-19.1-1c-1.6,0.1-2.8-1.6-4.6-1c-1.7,0.5-3.1-0.5-4.6-1
			c-0.8-0.2-0.7-1-0.8-2c-3.5,0.7-6-1.9-8.9-3.2c-2.2-1-4.5-2-6.8-3.1c0.7-1.3,1.4-2.7,1.7-3.4c0.3-2.1-2-3.4-0.8-4.6
			c1.2-1.4,0.7-2.8,1-4.1c0.7-0.9,2.5-0.1,2.9-1.8c0-1.1,0-2.2,0-3.2c-0.4-0.7-1-0.4-1.7-0.6c1.3-2.1,0.5-4.4,0.9-6.6
			c0.6-0.1,1-0.3,1.7-0.4c0-1.4,0-2.8,0-4.8c-0.4-0.3-1.2-0.9-1.7-1.3c-0.5-1.4,0.6-1.7,1-2.8c0.2-0.7-1.1-0.9-1.1-1.8
			c0-1.3,1.4-1.7,2-2.6c0-1,0-2,0-3c-0.7-0.9-1.6-1.6-3.1-1.8c0.3-2.7-0.7-5.5,1.1-7.7c0-2.4-1.2-3.6-3-4.5
			C842.4,774.7,843.6,772.4,841.5,771.1z M871.2,777.8c1.4,0.5,3,0.2,4.6,0.2c2.3,0.1,4.9-0.6,6.9,0.1c4,1.5,8,0.5,12.1,0.9
			c0-5.8,0-11.4,0-17c-4-0.2-7.8-0.1-11.7-0.9c-3.8-0.8-7.9-0.2-12-0.2C871.2,766.6,871.2,772.1,871.2,777.8z M892.8,812.1
			c0.6-4-0.4-7.5,0.9-11c-0.6,0-1.5-0.2-2.1-1.1c-3.8,0-7.6,0.1-11.4,0c-2.4-0.1-4.8,0.5-7.1-0.9c-1.1-0.6-3-0.4-4,1.6
			c0,1.4-0.1,3.2,0,5c0.1,1.7-0.4,3.5,0.4,5.6c1-2.4,1.9-0.2,2.8-0.3c4-0.1,8-0.1,12-0.1c1.1,0,2.7-0.4,3.4,0.2
			C889.2,812.6,891,811.6,892.8,812.1z M953.8,789.7c2.9,0.1,5.3,2.4,8.2,0.8c0-0.3,0-0.6,0-1c-1.9-1.6-4.2-1.8-6.6-1.4
			C954.9,788.6,954.5,789,953.8,789.7z"/>
		<path d="M970.8,739c-3.7,0-7.3,0.6-10.6-0.1c-6-1.3-12.2,0-18.1-1c-6.7-1.2-13.4-0.6-20.1-0.8c-1.1,0-2-1.2-2.9-0.7
			c-1.4,0.8-2.1-0.9-3.4-0.5c-1.1,0.3-2.3,0.1-3.4,0.1c-0.7-1.9-2.5-3.4-0.5-5.7c0.7-0.8,0.1-2.6,0.1-3.8c0.7-0.8,2-0.4,2.5-1.5
			c0.3,0,0.7,0,1,0c9.6,0.8,19-1.5,28.6-1c5.4-1.8,11.1-0.2,16.5-1.1c5.2-0.9,10.5-0.1,15.6-1c4.4-0.8,8.7-0.7,13.1-0.8
			c1.9,0,3.7-0.3,5.6,0.9c1.5,0.9,3.8-0.6,5.6,0.9c0.7,0.6,2.2,0.2,3.4,0.2c4.3,0,8.6,0,13,0c0.5,5.8,0.2,11.2-1.3,17
			c-1-0.3-2.4,0.6-3.7-0.7c-0.8-0.8-1.9-0.3-2.9-0.3c-3.3-0.1-6.7-0.2-10,0c-4.3,0.3-8.3-1.4-12.6-1.1c-4.3,0.3-8.7,0-13,0.1
			c-0.9,0-1.4-0.4-1.8-1C970.8,737.5,971.1,738,970.8,739z"/>
		<path d="M995.3,851.9c-6.4,0-12.2,0-18.3,0c-0.3-3.7,3-6.2,3-10c4.4,0.8,8.3-1.8,12.6-0.8C994,844.4,994,848,995.3,851.9z"/>
		<path d="M1023.4,849.9c0.7-3.3,1.3-6.5,2-9.9c5,0.3,9.8,1.5,14.4,2.8c0.7,2.4-0.5,4.8,1.7,6.3c-0.7,0.8-1.1,1.2-1.8,2.1
			c-4.9-0.3-10.1,0.3-15.3-0.4C1023.8,850.6,1023.5,850,1023.4,849.9z"/>
	</g>
</g>
</svg>
