<?xml version="1.0" encoding="utf-8"?>
<!-- Generator: Adobe Illustrator 17.1.0, SVG Export Plug-In . SVG Version: 6.00 Build 0)  -->
<!DOCTYPE svg PUBLIC "-//W3C//DTD SVG 1.1//EN" "http://www.w3.org/Graphics/SVG/1.1/DTD/svg11.dtd">
<svg version="1.1" id="Layer_1" xmlns="http://www.w3.org/2000/svg" xmlns:xlink="http://www.w3.org/1999/xlink" x="0px" y="0px"
	 viewBox="0 0 1440 937" enable-background="new 0 0 1440 937" xml:space="preserve">
<g>
	<g>
		<path d="M910.1,615c3.7,0,7.3-0.6,10.6,0.2c2.9,0.7,5.7,0.6,8.8,0.9c2.7-4,1-8.5,1.6-13.1c-6.8,0.8-13.1-1.8-19.8-0.8
			c-1.5-6.5,1.5-12.6,0.6-19.2c1.2,0,2.1-0.3,2.7,0c2.6,1.4,5.4,1.1,8.1,0.9c2.5-0.2,4.6,1.4,7.1,1.2c2.3-0.2,4.8-0.5,7.1,0.8
			c1.1,0.6,2.9,0.1,4.4,0.1c1.3,2.6,3.5,3.3,6.2,2.9c0.6-0.6,1.2-1.2,1.7-1.7c0.3-0.1,0.6-0.2,0.9-0.2c6-0.6,11.8,1.6,17.7,1
			c3.4,2,7.1,0.5,10.6,1.1c0.6,0.7,1.2,1.3,2.4,0.9c0,2.9,0.4,5.5-0.1,7.9c-1.2,5.8-0.2,11.8-1.1,17.5c-0.8,4.8-0.6,9.4-0.7,14.1
			c0,2-1.4,3.5-1.1,5.6c0.3,1.8,0.1,3.6,0.1,5.9c-2.2-0.4-4.3,0.9-6.5-0.8c-0.9-0.6-2.6-0.2-3.9-0.1c-8.7,0.5-17.3-1.8-26-1
			c-4.7-1.9-9.7-0.7-14.6-1c-2.7-0.1-5.2-1.5-8.1-1.1c-2.8,0.4-5.6,0.1-8.4,0.1c-0.5-0.5-1-1-1.5-1.5c0-2.9-0.7-6.1,0.2-8.9
			C910.3,622.9,909.7,619.2,910.1,615z"/>
		<path d="M958.5,709c-0.7-0.7-1.1-1.1-1.3-1.3c-1.2-3.4,1.1-6.4,0.8-9.7c-0.2-3.3-0.7-6.9,0.1-9.9c0.9-3.1,0.7-6.1,0.8-9.1
			c0.1-7.4,1.6-14.7,1.1-22.1c-0.2-2.2,1.5-4.2,0.8-6.7c5,0,9.8,0,14.4,0c1.4-1.2,0.3-2.7,1.1-4.2c1.4,0,3.4-0.6,4.6,0.2
			c1.3,0.9,2.3-0.1,3.5,0.5c1.3,0.7,3.2,0.4,4.8,0.3c8.1-0.4,16.1,1.6,24.2,1.1c1.7-0.1,3.2,1.5,5.5,0.6c0,5.6,0.7,11-0.2,16.1
			c-0.7,3.8-0.4,7.4-0.8,11.1c-0.2,1.6,0.6,3.2-0.9,4.7c-0.5,0.5-0.5,2.3,0.3,3.2c0.5,0.6,0.8,1.1,0.6,1.7c-2,5.2-0.4,10.7-1.1,16
			c-3.1,1.6-6.5,1.5-9.9,1.4c-1.8-0.1-3.2,1.4-5.1,1.1c-1.5-0.2-3.3-0.5-4.6,0.9c-0.2,0.2-0.6,0.1-1,0c-4.3-0.7-8.3,1.1-12.6,1.2
			c-2.6,0.1-5.4,0.3-8.1,0.9c-2.5,0.5-5.1,0.7-7.6,1c-1.5,0.2-2.9,1-4.6,0.9C961.8,708.9,960.2,709,958.5,709z M978.7,688.2
			c1.3-1.4,3.1-1.5,4.8-1.2c2.1,0.5,3.6-1.2,5.6-1.1c3.1,0.3,6-0.3,9.1-1.6c-1.5-3.1,1-5.9,0.7-9c-0.2-3.1,0-6.2,0-9.3
			c-6.9-0.1-13.3-2.1-19.8-0.8c-0.2,3.1-1.5,6-1.3,9.1c0.2,3,0.6,6.2-0.6,9.6c0,0,0.9,0.2,0.7,1.1c0.2,0.8-0.8,0.9-0.9,1.5
			C977.6,687.1,978,687.5,978.7,688.2z"/>
		<path d="M905,697.1c2.6,0,4.6-1.7,6.9-1.1c2.2,0.6,4-0.9,6.1-1.1c2.2-0.2,4.4,0.4,6.7-0.8c1.7-0.9,4.2-0.2,6.4-0.2
			c1.1-0.9,2.8-0.8,3.8-2.9c-0.1,0.4,0.1,0.1,0.1-0.2c0-3.7,0.1-7.3,0-11c0-2.9,2-5.5,0.7-9c-1.2,0-2.6-0.1-4.1,0
			c-6.4,0.6-12.6-2-18.9-0.9c-1.6-1.2-2.4-3.1-4.4-3.3c-1.7-3.6-2-7.3-0.6-11.1c0.3-0.9,0.2-1.9,0.2-2.9c0-3.5,0-7,0-10.2
			c1.5-2.4,4-2.1,5.4-1.4c1.7,0.9,3.1,0.7,4.7,0.7c2.8,0.1,5.7,0.1,8.5,0c3.2,0,6,0.7,8.1,3.3c0.6,0.8,1.5,0.5,2.3,1.1
			c0,1.4,0,2.8,0,4.4c6.3,0.6,12.8-0.9,19.1,2.3c-0.5,1.8,0.7,3.7-1,5.5c-0.5,0.5-0.1,1.9-0.1,2.9c0.6,9.7-1.9,19.3-0.9,28.7
			c-1.3,1.4-1.5,3.3-3.1,4.1c0,2.7-0.2,5.4,0,8c0.2,3-1.9,5.5-0.8,8.8c-5.3-0.8-9.8,1.6-14.5,0.9c-2.6,1.3-5.7,0.2-8,1.2
			c-2.7,1.1-5.3-0.1-7.6,0.9c-2.6,1.1-5.3,0.2-7.6,1c-2.4,0.8-4.7,0.8-7,0.9c-0.5-0.5-0.8-0.8-1.2-1.2
			C902.9,709,905.3,703.3,905,697.1z"/>
		<path d="M897,712.5c-0.7,0.7-1.1,1.1-1.4,1.4c-3.1-2.2-7.4-1.3-9.7-3.4c-1.3-1.3-0.9-2.2-0.9-3c0.2-5.4-1.8-10.7-1-16.1
			c-1.6-3.1-0.4-6.5-1.1-9.5c-0.9-3.7-0.3-7.5-1-11.1c-0.7-3.4-0.3-6.9-1-10.1c-0.8-3.4-0.2-6.9-1-10.1c-0.8-3.2-0.3-6.5-1-9.6
			c-0.9-3.9-0.1-7.9-1.1-11.6c-1.1-4.3-0.4-8.4-0.9-12.6c-0.3-2.5,1.3-4.6,1.1-7.1c-0.2-2.5-0.6-5.2,0.1-7.4c0.9-2.7,0.3-5.5,1-8.1
			c1-4,0.9-8.1,0.9-12.1c0-1,1-1.3,1.4-2.3c3.5,1.9,7.6,0.1,10.9,1.3c3.8,1.4,7.5,0,11.6,1.1c1,0.6,1.7,2.1,1,3.5
			c-1.5,3.2-0.7,6.4-0.9,9.6c-0.1,0.8,0,1.6,0,2.6c-3,0-5.8,0-9.1,0c0.8,3-0.8,5.4-1,8.1c-0.1,2.7,0.5,5.5-0.6,8.2
			c-1,2.6-0.2,5.5-0.4,8.7c3.1-0.2,6.1,0.2,9,1.4c0.2,4.8,0.3,9.7-1.3,14.5c-1.7,0-3.5,0-5.2,0c-1.7,6,1.3,11.7,0.5,17.5
			c0.8,1.1,2,0.1,2.8,0.8c0.4,0.3,0.7,0.7,1.1,1.1c1.4,4.9-1.6,9.5-0.6,14.6c-1.5,0-2.6,0-4.1,0c0.2,2-0.9,3.9,0.8,5.6
			c0.3,0.3,0.1,1,0.1,1.4c-0.7,5.4,1.4,10.6,1.1,16.1C896.7,701.5,897,707,897,712.5z"/>
		<path d="M1015.8,723c-3.8,0-7.6-0.2-11.4,0.1c-3.6,0.3-6.9-1.4-10.4-1.5C1001.3,720.8,1008.6,720.7,1015.8,723z"/>
	</g>
</g>
</svg>
