<?xml version="1.0" encoding="utf-8"?>
<!-- Generator: Adobe Illustrator 17.1.0, SVG Export Plug-In . SVG Version: 6.00 Build 0)  -->
<!DOCTYPE svg PUBLIC "-//W3C//DTD SVG 1.1//EN" "http://www.w3.org/Graphics/SVG/1.1/DTD/svg11.dtd">
<svg version="1.1" id="Layer_1" xmlns="http://www.w3.org/2000/svg" xmlns:xlink="http://www.w3.org/1999/xlink" x="0px" y="0px"
	 viewBox="0 0 1440 937" enable-background="new 0 0 1440 937" xml:space="preserve">
<g>
	<g>
		<path d="M723.2,237.1c-0.6,1.8,0.6,4-1.9,4.9c-3.9-1.8-8.2-0.8-12.4-0.9c-4.2,0-8.2-1.9-12.7-0.9c0-3.7,0-7.2,0-10.5
			c-3.4-2-7-1.9-10.5-1.6c-6.2,0.5-12.2-2-18.6-0.8c-0.2-2.9,0.9-5.2,1.2-7.5c0.3-2.5,0.1-5.3,1-7.5c0.9-2.4,0.1-4.9,1.2-7
			c1.3-2.6,0.7-5.2,0.5-7.7c-0.1-2.5,1.3-4.6,1.1-7.3c6-1,11.8,1.9,17.8,0.6c0.1,1.2,0.2,2,0.3,2.8c0.3,0.1,0.6,0.3,0.9,0.4
			c7.2,0.2,14.3,1.6,21.6,1c4.4,1.9,9,0.8,13.6,0.9c3.6,0.1,6.9,2,10.9,0.8c3.2,11,6.1,21.9,9.3,33c-4.9,0-9.3,0-13.7,0
			c-1.2,1.6-0.2,3.4-0.8,4.9c-1,0.9-2.9-0.7-3.8,1.4c0,1.6,0,3.2,0,4.8c-1,0.1-1.6,0.1-2.6,0.1C724.4,240,725.5,237.7,723.2,237.1z
			 M719.7,219.9c-1.6-0.9,0.2-3.3-1.3-3.9c-0.4,0.1-0.7,0.1-1.4,0.3c0.3,1.1-0.3,2.4,0.4,3.7C718.1,219.9,718.9,219.9,719.7,219.9z"
			/>
	</g>
</g>
</svg>
