<?xml version="1.0" encoding="utf-8"?>
<!-- Generator: Adobe Illustrator 17.1.0, SVG Export Plug-In . SVG Version: 6.00 Build 0)  -->
<!DOCTYPE svg PUBLIC "-//W3C//DTD SVG 1.1//EN" "http://www.w3.org/Graphics/SVG/1.1/DTD/svg11.dtd">
<svg version="1.1" id="Layer_1" xmlns="http://www.w3.org/2000/svg" xmlns:xlink="http://www.w3.org/1999/xlink" x="0px" y="0px"
	 viewBox="0 0 1440 937" enable-background="new 0 0 1440 937" xml:space="preserve">
<g>
	<g>
		<path d="M368,510c-3,0-5.6-0.2-8,0.1c-2.8,0.3-5.3-1.4-8.1-1.1c-2.8,0.3-5.9,0.7-8.4-0.1c-3.9-1.2-7.8-0.6-11.6-0.8
			c-3.8-0.3-7.6-1.6-11.9-0.9c0.6-4.9-1.7-9.2-0.9-13.8c0.2-0.9,0-1.8-0.7-2.7c-0.6-0.8-0.5-2.2,0-3.3c1.5-3.5,2.1-7.2,2.7-10.9
			c0.3-2,2.4-2.7,2.5-5.1c0-2.3,1.3-4.7,1.6-7.2c0.4-3.3,2.1-6.3,2-9.7c1.8-1.5,1.1-3.9,1.7-5.8c0.6-1.8,1.9-3.8,1.3-6
			c-0.1-0.4,0.7-1,1.4-1.7c4.6,0.9,9.1-0.9,13.8-1.2c2.8-0.2,5.9-0.1,8.5-1c2.8-0.9,5.6-0.1,8.1-1c2.6-1,5.1-1,7.6-0.7
			c1.9,0.2,3.1-1.5,5.1-1.2c1.6,0.2,3.6,0.9,4.8-0.8c0.6,0.5,1.1,1,1.7,1.5c-0.9,4.6-2.5,9-2.1,13.7c0.2,2.2-0.2,4.4,0.8,6.7
			c0.6,1.4,0.5,3.6-0.6,5.6c-1.5,2.7-1.7,6-2.1,9.1c-0.5,3.8-1.8,7.3-2.5,11.1c-0.5,2.7-0.8,5.6-2.1,8.3c-1,0-2.1,0-3.1,0
			c-1.1,1.6,0.4,3.6-0.9,4.8c-1.3,1.3,0.4,3.4-1.4,4.5c1.1,1.4,0.7,3,0.8,4.5C368,506.4,368,508,368,510z M340.5,481
			c0.5,0.6,1,1.1,2,1.1c3.3-0.1,6.7,0.1,10-0.1c1.2-0.1,2.3,0.3,3.6,1.1c1.9-5.1,3.1-10,4-15.6c-3.3,2.1-6.6,0.6-9.1,1.7
			c-3,1.3-6.1,0.1-9.1,1.2C342.4,474,340.7,477.2,340.5,481z"/>
	</g>
</g>
</svg>
