<?xml version="1.0" encoding="utf-8"?>
<!-- Generator: Adobe Illustrator 17.1.0, SVG Export Plug-In . SVG Version: 6.00 Build 0)  -->
<!DOCTYPE svg PUBLIC "-//W3C//DTD SVG 1.1//EN" "http://www.w3.org/Graphics/SVG/1.1/DTD/svg11.dtd">
<svg version="1.1" id="Layer_1" xmlns="http://www.w3.org/2000/svg" xmlns:xlink="http://www.w3.org/1999/xlink" x="0px" y="0px"
	 viewBox="0 0 1440 937" enable-background="new 0 0 1440 937" xml:space="preserve">
<g>
	<g>
		<path d="M1067.1,417c3.3,0,6.3,0.1,9.3,0c2.9-0.2,5.6,1.5,8.6,1.1c2.8-0.4,5.8-0.6,8.4,0.1c2.7,0.7,5.4,0.9,8.3,0.8
			c0-1.4,0-2.9,0-4.1c0.9-0.8,1.4-2.2,2.5-1.7c3.7,1.5,7.7,0.8,11.9,1c-0.6,4.2,0.6,8.2-1,12.2c-0.7,1.7-0.1,4-0.1,6
			c0,4.3-0.1,8.7,0,13c0.1,4.1-1.5,7.9-1.1,12.1c0.3,4,0.5,8.1-0.1,12c-0.4,2.5-0.8,5-0.8,7.7c-4,0-7.8,0-11.8,0c0,1.9,0,3.7,0,5.3
			c-2,1.8-4.2,1.8-6.5,1.8c-1.4,0-2.8-0.3-4.2,0.8c-0.9,0.7-2.8,0.1-4.4,0.1c0-1.7,0-3.1,0-5.1c-3,0.7-5.9-1-8.6,1.1
			c-0.1,0.1-0.3,0-0.5,0c-4.3-0.8-8.3,1.5-12.7,0.9c-0.1-1.9-0.9-3.7,0.7-5.5c0.5-0.6,0.1-1.9,0.1-2.9c0-5.2,0.3-10.3-0.1-15.5
			c-0.5-8.7,1.4-17.4,1.1-26.1C1067.8,427.2,1066.6,422.2,1067.1,417z M1079.3,455c3.5-0.2,6.8-0.1,10.2-0.8c3.4-0.7,7-0.5,10.3-1.6
			c0-2.5,0-4.9,0-7.6c-1.9,0-3.7,0-5.5,0c-1.8,0-4,0.6-5.4-0.1c-2.9-1.5-5.7-0.5-9.2-1C1080.9,447.8,1077.9,450.9,1079.3,455z"/>
	</g>
</g>
</svg>
