<?xml version="1.0" encoding="utf-8"?>
<!-- Generator: Adobe Illustrator 17.1.0, SVG Export Plug-In . SVG Version: 6.00 Build 0)  -->
<!DOCTYPE svg PUBLIC "-//W3C//DTD SVG 1.1//EN" "http://www.w3.org/Graphics/SVG/1.1/DTD/svg11.dtd">
<svg version="1.1" id="Layer_1" xmlns="http://www.w3.org/2000/svg" xmlns:xlink="http://www.w3.org/1999/xlink" x="0px" y="0px"
	 viewBox="0 0 1440 937" enable-background="new 0 0 1440 937" xml:space="preserve">
<g>
	<g>
		<path d="M782,720.8c0,5.4-0.2,10,0.1,14.7c0.2,2.4-1.3,4.3-1.2,6.6c0.1,2.2,0.9,4.6-0.9,6.6c-0.2,0.2-0.1,0.7,0,1
			c0.7,4.8-1,9.3-1.2,14.1c-0.1,2.9-0.8,6-0.8,9.4c-2.4-0.4-4.7,0.7-6.7-1.1c-0.2-0.2-0.7-0.1-1,0c-6.9,0.8-13.7-1.6-20.6-1
			c-3.9,0.3-7.5-2-11.7-0.7c0-2.3,0-4.1,0-5.7c-0.6-0.6-1.1-1.1-1.6-1.6c-8.2,0.7-16.4-1.5-24.6-1c-0.8,0.1-1.5-0.4-2.2-0.7
			c-1.8-0.7-3.8-0.8-5.4,0.7c-1.3,0.3-1.5-2-2.9-0.9c-1.4-3-1.9-5.9-2.4-8.9c-0.6-3.4-1.1-6.9-2.4-10c-0.9-2.1-0.1-4.3-1.4-6.5
			c-1.1-2-1.4-4.7-1.9-7.2c-0.6-2.7-0.2-5.6-0.3-8.4c0-2.6,0-5.3,0-8.2c4.3,0,8.6-0.7,12.5,0.2c3.4,0.8,6.7,0.5,10,0.9
			c0.8,0.7,0.2,1.6,0.4,2.4c0.3,0.2,0.5,0.5,0.8,0.5c6.2,0.2,12.3,1.7,18.6,1c4.2,1.8,8.8,0.3,13.1,1.1c4.7,0.9,9.5,0.2,14.1,1.1
			c4.3,0.9,8.4,0.7,12.6,0.7C777.4,719.9,779.3,721.8,782,720.8z M722.1,742c3.4,0.1,6.4,0,9.4,0.9c2.5,0.7,5.3,0.4,7.9,0.1
			c2.7-0.3,5,1.2,7.6,1.1c3-0.1,6,0,9-0.1c0.6,0,1.5,0.5,1.9-1.2c-2.8,0.6-5.3-0.8-7.7-0.7c-6.6,0.3-13-1.5-19.6-1.2
			c-2.4,0.1-4.8,0.4-7.1-0.9c-0.5-0.3-1.3-0.2-1.6,0.6C722,741,722.1,741.3,722.1,742z"/>
	</g>
</g>
</svg>
