<?xml version="1.0" encoding="utf-8"?>
<!-- Generator: Adobe Illustrator 17.1.0, SVG Export Plug-In . SVG Version: 6.00 Build 0)  -->
<!DOCTYPE svg PUBLIC "-//W3C//DTD SVG 1.1//EN" "http://www.w3.org/Graphics/SVG/1.1/DTD/svg11.dtd">
<svg version="1.1" id="Layer_1" xmlns="http://www.w3.org/2000/svg" xmlns:xlink="http://www.w3.org/1999/xlink" x="0px" y="0px"
	 viewBox="0 0 1440 937" enable-background="new 0 0 1440 937" xml:space="preserve">
<g>
	<g>
		<path d="M758.1,772.2c5.7,1.6,11.2,3.2,16.9,4.9c0,7.7,0,15.3,0,23c0,2.1-1.4,3.8-1.1,6.1c0.3,2-0.1,4-0.8,6.1
			c-0.7,1.9,0.4,4.5-0.3,6.4c-0.9,2.6-1,5.1-0.8,7.6c0.1,2.6-2.2,4.8-0.9,7.2c-2.2,1.6-3.3-0.6-4.9-0.5c-1.6,0.1-3.5,0.4-4.9-0.3
			c-1.1-0.6-2.1-0.6-3.2-0.7c-1.9,0-3.8-0.1-5.6-0.9c-1.5-0.7-3.6,0.7-5.1-1c-0.3-0.3-1.3,0-1.9-0.1c-2-0.3-4.1,0.5-6.2-0.8
			c-1.6-1-4.2,0.7-6-1.1c-6,0.2-11.6-3.3-17.7-2c-2,0.4-3.2-1.4-5.1-1.1c-1.7,0.2-3.6,0.8-5.1-0.8c-0.4-0.4-1.6-0.1-2.4-0.1
			c-2,0.2-3.7-0.4-5.6-0.9c-1.5-0.4-3.1-2.4-4.7-0.2c-2.3-1.9-5.2-0.7-7.8-1.2c-4-0.9-8-1.8-12-2.5c-2.1-0.4-4.3-0.8-6.7-0.3
			c-2.1,0.4-4.3-0.8-6.5-1c-2.3-0.3-4.8-0.4-7.1-1c-2.4-0.6-4.9-0.3-7.1-1c-3.6-1.2-7.6-0.4-10.9-2.7c-1.1,1.2-2.9,1.4-3.9,0.7
			c-1.6-1-3.1-1-4.7-0.8c-2,0.3-3.6-1.2-5.6-1.1c-1.7,0.1-3.4,0.4-5.2-0.8c-0.9-0.6-2.6-0.1-4.3-0.1c0-1.5-0.2-3,0-4.4
			c0.7-4.9-1.4-9.7-1-14.6c0.2-2.7,1.2-5.2,1.8-7.7c0.6-2.6,1-5.2,2.7-7.4c0.9-1.2,1.5-2.9,1.4-4.4c-0.1-1.7,1.1-2.6,1.2-4.1
			c0.7-0.7,2-0.3,2.4-1.4c1.8,0,3.7-0.1,5.5,0c5.9,0.2,11.7-1.7,17.6-1c1.9-1.3,4-0.9,6.1-1c1-0.1,1.4,0.7,2,1.1
			c2.7-0.9,5.4-1.9,8.2-2c2.8-0.1,5.7,0.3,8.5-0.1c2.8-0.4,5.5-1.9,8.3,0.1c2.9-0.9,5.9-2.3,9.1-1.9c5.3,0.6,10.4-1.3,15.6-1.1
			c1.4,0,2.5,0.3,3.6,1.1c2.1-1.8,4.9-1.6,7-0.9c2.9,1,5.8,0.9,8.6,0.7c3.2-0.2,6,1.2,9.1,1.1c3-0.1,6,0,9.3,0c0,3.4,0,6.7,0,10
			c0,3.3-0.2,6.7,0.1,10c0.3,3.3-2.1,6.2-0.8,9.8c1,0.9,3.2-0.7,4.3,1.4c0.8-1.5,0.4-3,0.5-4.4c0.1-1.3,0-2.7,0-3.8
			c2.2-4.5,4.4-8.8,6.5-13c3.2-0.1,5.8,2.7,9.1,1.9C758.4,774.2,757.8,773.3,758.1,772.2z"/>
	</g>
</g>
</svg>
