<?xml version="1.0" encoding="utf-8"?>
<!-- Generator: Adobe Illustrator 17.1.0, SVG Export Plug-In . SVG Version: 6.00 Build 0)  -->
<!DOCTYPE svg PUBLIC "-//W3C//DTD SVG 1.1//EN" "http://www.w3.org/Graphics/SVG/1.1/DTD/svg11.dtd">
<svg version="1.1" id="Layer_1" xmlns="http://www.w3.org/2000/svg" xmlns:xlink="http://www.w3.org/1999/xlink" x="0px" y="0px"
	 viewBox="0 0 1440 937" enable-background="new 0 0 1440 937" xml:space="preserve">
<g>
	<g>
		<path d="M1130.1,478c-1.6,0-2.7,0-3.8,0c-0.2-0.5-0.3-0.8-0.3-1.1c0-4.2,0.2-8.3-0.1-12.5c-0.4-5.1,1.7-10,1.1-15.1
			c1.5-2.5,0.8-5.3,1.1-8.2c3.2,0,6.3,0,9.4,0c2.5-9.3,4.5-18.5,8.9-27.2c4,0.4,8-0.7,12,1c1,0.4,2.3,0,3.5,0.1
			c1.6,0.2,3.3-0.7,4.6,0.9c0.2,0.3,1,0,1.4,0.1c2.1,0.1,3.8-1.8,6.3-0.2c1.5,1,4.2,0.2,6.4,0.2c2.3,0,4.6,0,6.9,0
			c0.6,0.6,1,1,1.2,1.2c1.1,2.5-0.8,4.2-0.8,6.4c0,2,0.9,4.3-0.9,6.1c-0.2,0.2-0.1,0.7,0,1c0.7,4.3-1,8.3-1.2,12.6
			c-0.2,4.9-1.4,9.7-2,14.6c-0.3,2.2-0.3,4.5-0.9,6.6c-0.7,2.2-0.9,4.4-0.9,6.6c0.1,1.8-1.6,3.1-1.1,5.1c0.3,1.5-0.3,3.1-0.7,4.6
			c-0.7,2.5-0.7,5.4-1,8.1c-0.3,3.5-1.9,6.9-1.2,10.6c-2.2,3.3,0.2,7.4-2,10.7c0.8,3.6-0.7,7.1-1.2,10.6c-0.6,4-0.2,8.3-2.3,12.2
			c-3.2,1.2-6.4-1.1-9.7-0.7c-3.3,0.4-6.2-1.9-9.7-0.8c0,1.4,0,2.8,0,4.2c-4.7,1.7-9.1-0.7-13.9-0.5c0.2-2.3-0.9-4.4-1.4-6.7
			c-0.6-2.3-1.1-4.6-1.8-6.7c-0.8-2.4-0.8-4.7-0.9-6.2C1129.8,502.9,1129.6,490.8,1130.1,478z M1153.8,494.4c1.8-0.8,3,0,4-0.8
			c0.2-5.5,1.1-11,2-16.5c-1.4-0.1-2.7-0.5-3.6,0.2C1155.4,482.9,1154.7,488.3,1153.8,494.4z M1165.9,452.8c0.5-1.3-0.5-3.3,1-4.5
			c-3.4-2.1-7.1-1-10.3-1.3c-2,1.5-1.8,3.2-1.2,5c1.7,0,3.5,0.3,5-0.1C1162.4,451.5,1163.6,453.7,1165.9,452.8z M1156.5,506.2
			c3.2-2.8,3.3-4.6,0.8-7.1c-0.6,1.1,0.2,2.5-0.4,3.2C1156,503.6,1155.7,504.5,1156.5,506.2z"/>
	</g>
</g>
</svg>
