<?xml version="1.0" encoding="utf-8"?>
<!-- Generator: Adobe Illustrator 17.1.0, SVG Export Plug-In . SVG Version: 6.00 Build 0)  -->
<!DOCTYPE svg PUBLIC "-//W3C//DTD SVG 1.1//EN" "http://www.w3.org/Graphics/SVG/1.1/DTD/svg11.dtd">
<svg version="1.1" id="Layer_1" xmlns="http://www.w3.org/2000/svg" xmlns:xlink="http://www.w3.org/1999/xlink" x="0px" y="0px"
	 viewBox="0 0 1440 937" enable-background="new 0 0 1440 937" xml:space="preserve">
<g>
	<g>
		<path d="M794.9,161c0.7,5.9-1.4,11.3-1,16.9c0.4,5.6,0,11.3,0.1,17c0.1,2.2-1.3,3.9-1.3,6.1c-1.4,0-2.7,0.1-4,0
			c-7.1-0.5-14,1.5-21.1,1.2c-2.1-0.1-4.3,1-6.6,0.9c-0.8,0-1.1-0.7-1.6-1c-0.1,0.1-0.2,0.2-0.3,0.3c-0.2,0.2-0.5,0.6-0.7,0.6
			c-6.4,0-12.6,2-19.2,0.8c-0.8-2.1-1.7-4.4-2.6-6.8c-1.7,0-3.4-0.2-5,0c-3.3,0.5-6.3-1.5-9.6-1.1c-3.1,0.3-6.4,0.4-9.5-0.1
			c-2-0.3-4-1-6.6-0.8c0.2-5.3-0.6-10.4,1.4-15.4c-1.4-0.7-2.5-1.2-3.5-1.8c-0.3,0.3-0.8,0.5-0.8,0.7c0,3,0,6,0,8.9
			c-2.7,2-2.7,5.9-6,7.6c-1.9-1.9-4.5-0.7-6.8-1.3c-0.1-0.9-0.2-1.6-0.3-2.4c-0.3-0.1-0.6-0.4-0.8-0.4c-1.2,0-2.3,0-3.5,0
			c-3.4,0-6.8,0.5-10.5-1.9c0-2.2,0-5.4,0-8.5c0-3.2,0.3-6.4-0.1-9.5c-0.4-3.2,0.9-6.1,1.3-9.1c0.4-3,0.3-6.1,1.3-8.9
			c1-2.9-0.2-6.1,2.5-9c1.3,0.3,3.6-1.2,5.6,0.8c0.1,0.1,0.3,0,0.5,0c4.1-0.7,8,0.8,12.1,1.1c4.2,0.3,8.5,1,12.7,1.6
			c3.4,0.5,6.9,2,10.5,1.2c2.5-0.5,4.7,0.8,7.1,1.1c2.4,0.2,4.7-0.2,7.2,0.7c2.2,0.8,5.1,1.1,7.5,1.1c4.8-0.1,9.4,0.7,14.1,1.4
			c2.5,0.4,5.4,0.1,7.7,1.8c0.8,0.1,1.1-0.5,1.8-1.1c2.7,2.2,6.3,0.1,9.2,1.6c3.1,1.5,6.3-0.2,9.5,1.2c2.8,1.2,6.3,1.4,9.4,1.3
			c3.3-0.1,6.4,1.3,9.6,1c3.3-0.3,6.2,1.8,9.5,1.2c-0.7,0.4,0.4,0,0,0.5c-0.1,0.1-0.2,0.3-0.3,0.3C807.5,161,801.5,161,794.9,161z"
			/>
	</g>
</g>
</svg>
