<?xml version="1.0" encoding="utf-8"?>
<!-- Generator: Adobe Illustrator 17.1.0, SVG Export Plug-In . SVG Version: 6.00 Build 0)  -->
<!DOCTYPE svg PUBLIC "-//W3C//DTD SVG 1.1//EN" "http://www.w3.org/Graphics/SVG/1.1/DTD/svg11.dtd">
<svg version="1.1" id="Layer_1" xmlns="http://www.w3.org/2000/svg" xmlns:xlink="http://www.w3.org/1999/xlink" x="0px" y="0px"
	 viewBox="0 0 1440 937" enable-background="new 0 0 1440 937" xml:space="preserve">
<g>
	<g>
		<path d="M1158,636.5c-6.4-1-12.6-1.2-18.8-2.7c-0.1-1.3-0.8-2.7,0.5-4c0.4-0.4,0.3-0.9,0.3-1.4c0.1-3.1,0.5-6.1,0.8-9.1
			c0.3-3.9,1.7-7.6,1.3-11.6c-0.2-1.7,1.5-3.1,1.1-5.1c-0.3-1.5,0.3-3,0.8-4.6c0.7-2.4,0.7-5.1,0.9-7.5c0.3-3.5,1.7-6.9,1.2-10.6
			c-0.2-1.8,1.3-3.2,1-5.1c-0.2-1.5-0.2-3.1,0.8-4.6c0.6-0.9,0.1-2.6,0.1-3.9c0-1.1-0.4-2.3,1.8-3c-7.8-1.1-14.6-2-21.9-3
			c-2.1,3.8-0.1,8.2-1.1,12.4c-0.4,0.4-0.8,0.8-1.5,1.5c-6-2-12.5-1-19.2-1.3c0.4,2.5-1,4.5-1.4,6.9c-2.4,0-4.9,0-7.7,0
			c0-1.8,0-3.6,0-5.4c0-9.5-0.1-19,0.1-28.5c0.1-3.5-1.4-6.6-1.1-10.1c0.3-3.3,0.3-6.7,0-10c-0.2-2.5,1.3-4.6,1.2-7.1
			c-0.1-2.2-0.9-4.6,0.9-6.6c0.2-0.2,0.1-0.7,0-1c-0.7-5.4,1.4-10.6,1.1-16.1c-0.1-2.2,1.2-4.2,1-6.6c-0.2-2.2-0.4-4.4,0.8-6.6
			c0.7-1.3,0.1-3.2,0.1-5c6.4,0,12.6-0.5,18.7,0.2c3.3,0.3,6.7,0.7,10.3,0.8c0,8.1,0.4,16.1-0.2,24c-0.2,3.2,0,6.7-1,9.5
			c-1.4,3.9-0.2,7.9-1.6,11.8c-1,2.8-0.2,6.2-0.2,9.3c2.9,1.1,5.8,1.1,8.6,1.5c2.9,0.4,6,0.2,8.5,1.1c3,1,5.7,0.4,8.7,0.9
			c0-1.8,0-3.2,0-4.6c3.6-1.9,6.7,0.9,10.1,0.5c3.4-0.4,6.4,1.4,9.1,1.4c1.3,1.6-0.3,1.7-0.1,2.6c0.8,4.4-1.4,8.6-1,13.1
			c0.2,1.9-1.3,3.5-1,5.6c0.2,1.7-0.1,3.4-0.7,5.1c-0.8,2.3-0.8,5.1-0.9,7.5c-0.3,3.5-1.7,6.9-1.2,10.6c0.3,1.9-1.4,3.5-1.1,5.6
			c0.2,1.6,0.9,3.6-0.9,5.1c-0.2,0.1,0,0.6,0,1c0.1,2.4-0.3,4.7-0.9,7.1c-0.5,2.1,0.3,4.5-1.1,6.6c0.6,3.8-1.6,7.3-0.9,11.1
			c0.4,1.9-1.3,3.2-1.1,5.1c0.1,1.7,0.7,3.5-0.8,5.2c-0.5,0.5-0.1,1.9-0.1,2.9c0.1,2.9-1.2,5.6-1.4,8.4
			C1158.6,636.1,1158.2,636.3,1158,636.5z"/>
	</g>
</g>
</svg>
