<?xml version="1.0" encoding="utf-8"?>
<!-- Generator: Adobe Illustrator 17.1.0, SVG Export Plug-In . SVG Version: 6.00 Build 0)  -->
<!DOCTYPE svg PUBLIC "-//W3C//DTD SVG 1.1//EN" "http://www.w3.org/Graphics/SVG/1.1/DTD/svg11.dtd">
<svg version="1.1" id="Layer_1" xmlns="http://www.w3.org/2000/svg" xmlns:xlink="http://www.w3.org/1999/xlink" x="0px" y="0px"
	 viewBox="0 0 1440 937" enable-background="new 0 0 1440 937" xml:space="preserve">
<g>
	<g>
		<path d="M356,416c-3.3,0-6.3,0.7-8.9-0.2c-2.8-0.9-5.4-0.7-8.1-0.8c-2.8-0.1-5.7,0-8.5,0c-0.5-0.5-1-1-1.5-1.5
			c0.7-5.6-1.9-11.2-0.8-16.9c-0.6-0.5-1.1-1-1.8-1.6c-3.3,0.6-6.7-0.6-10.2-1.3c-0.4-0.1-0.7-0.7-1.2-1.2c0-1.9,0-4.1,0-6
			c-4.1-2.2-8.4-1.3-12.4-1.5c-1.4-0.9-1.8-2.1-1.5-3.9c-2,0.5-3.4-1.3-5.5-1.1c-2.2,0.2-4.5,0.3-6.4-1.3c-0.1-0.1-0.1-0.3-0.2-0.4
			c-0.2-8.3,0.1-8.2,3.3-16.1c2-5,3.9-10.1,5.8-15.1c1.8-4.6,3.4-9.3,5.3-13.8c1.8-4.3,3.2-8.7,4.9-12.9c1.7-4.1,3.5-8.2,4.8-12.5
			c1-3.4,2.8-6.5,4.4-9.8c3,0.2,6,0,9.1,0.9c2.7,0.8,5.8-0.4,8.2,1.4c0.7,4.4,1.4,8.7,1.4,13.1c0,4.6,0.2,8.6-1.3,11.2
			c-2.9,5.1-3.8,11.1-6.8,16.2c-0.3,0.5,0,1.3,0,2.1c-3.1,0.7-4,3.3-4.9,5.7c-0.4,0.9-0.5,2.4,1.1,2.8c-2,5.6-4,10.9-6,16.2
			c1.8,1.4,4.1,1.5,6.7,1.3c-0.3-7,1.9-13.7,3.3-20.9c4.6,0,9.5-0.8,14.1,0.2c6.4,1.3,12.8,0.4,19.1,0.8c1.3,0.1,2.7-0.2,3.6,2.4
			c0,1.4-0.2,4,0.1,6.4c0.2,1.5,1.3,2.9,0.9,4.6c-0.4,2,0.6,4.1-0.8,6.2c-1.1,1.6,0.8,4.2-1.2,6c0.2,4.2-1.2,8.1-2.1,12.1
			c-1,4.6-0.8,9.4-2.8,13.8c0.6,2.8-1.2,5.3-1.1,8.1C358.1,411.2,356.8,413.6,356,416z"/>
	</g>
</g>
</svg>
