<?xml version="1.0" encoding="utf-8"?>
<!-- Generator: Adobe Illustrator 17.1.0, SVG Export Plug-In . SVG Version: 6.00 Build 0)  -->
<!DOCTYPE svg PUBLIC "-//W3C//DTD SVG 1.1//EN" "http://www.w3.org/Graphics/SVG/1.1/DTD/svg11.dtd">
<svg version="1.1" id="Layer_1" xmlns="http://www.w3.org/2000/svg" xmlns:xlink="http://www.w3.org/1999/xlink" x="0px" y="0px"
	 viewBox="0 0 1440 937" enable-background="new 0 0 1440 937" xml:space="preserve">
<g>
	<g>
		<path d="M605,733c0-1.5,0.1-2.6,0-3.8c-0.7-6.9,0.8-13.7,1.1-20.6c0.1-2.1,1.1-4.2,0.8-6.6c7.2,0,14-0.4,20.8,0.2
			c3,0.2,6,0.9,9.4,0.8c-1,7.6,1.2,14.8,0.9,22.2c-0.2,5.8-0.1,11.7,0,17.5c0.1,7.7,0.1,15.4-1.5,23.2c-3.5,1.7-7.6,1.4-11.6,1.1
			c-2.7-0.2-4.9,1.6-7.6,1.1c-0.6,1.3,0,3.1-2.3,4c-2.6,0-5.7,0-9,0c-0.1,3.8-1.5,7.2-2.4,10.6c-1.1,4.5-2.4,9-3.8,13.4
			c-1.1,3.6-1.4,7.3-2.9,10.8c-0.4,0.8-0.9,1.3-1.4,2c-0.5-0.3-1-0.9-1.5-0.8c-3.8,0.6-7.3-1.5-11.1-1c-1.8,0.2-3.2-1.3-5.1-1.1
			c-1.5,0.2-3.3,0.8-4.6-0.9c-0.1-0.2-0.6,0-1,0c-2.4,0.1-4.7-0.3-7.1-0.9c-2.1-0.5-4.5,0.3-6.6-1.1c-3.8,0.6-7.3-1.5-11.1-1
			c-2.1-1.9-4.8-0.4-7.1-1.1c-2.4-0.7-4.6-1.3-6.6-0.9c-2.9-1-1.7-3.2-2.3-4.9c-1.8,0-3.6,0-5.5,0c-0.8,0.9,1.1,1,0.7,1.8
			c0.1,1.1-1.1,1.2-1.3,2.1c-1.9-2.1-4.5-0.2-6.5-1.4c-2-1.3-4.4,0.1-6.2-0.8c-2.2-1.1-4.6-0.3-6.6-1c-2.1-0.7-4.1-1.1-6.1-0.8
			c-2.4,0.3-4.3-1.7-6.6-1c-2.2,0.6-4-1.4-6.1-1c-2.4,0.5-4.3-1.2-6.6-1.1c-2,0.1-4.4,1.1-5.9-1.3c0.2-4.7-0.7-9.3-1.2-14
			c-0.4-4.4,1.1-8.5,2.5-12.5c0.8-2.3,0.9-4.9,2.7-6.9c0.9-0.5,0.9,0.8,1.5,0.7c4-0.7,7.7,0.9,11.6,1.2c4.9,0.3,9.8,1.4,14.6,2.1
			c2.4,0.3,4.9,0.1,7,0.9c2.3,0.9,4.6,0.2,6.6,1c2.4,0.9,4.9,0.3,7.1,1c2.4,0.8,4.8,0.5,7.1,0.9c4.5,0.9,9.1,1.5,13.7,2
			c2,0.2,4,1.2,6.1,0.8c1-5.2,0.8-11-0.6-14c1.5-1.4,1.3-3.5,1-5.3c-0.4-2.1,1.1-3.7,1.1-5.6c0-1.9-0.7-4.1,0.4-5.8
			c1.2-1.9,0.1-3.9,0.8-6.1c2,0.4,4.2-1.1,6.3,0.8c0.4,0.3,1.3,0.1,1.9,0.1c11.9-0.7,23.7,1.6,35.6,1C602.2,732.9,603.3,733,605,733
			z M578.2,771.6c1.2,0.2,2.6,1.1,4.2-0.8C580.6,771.3,579.4,770.6,578.2,771.6z"/>
	</g>
</g>
</svg>
