<?xml version="1.0" encoding="utf-8"?>
<!-- Generator: Adobe Illustrator 17.1.0, SVG Export Plug-In . SVG Version: 6.00 Build 0)  -->
<!DOCTYPE svg PUBLIC "-//W3C//DTD SVG 1.1//EN" "http://www.w3.org/Graphics/SVG/1.1/DTD/svg11.dtd">
<svg version="1.1" id="Layer_1" xmlns="http://www.w3.org/2000/svg" xmlns:xlink="http://www.w3.org/1999/xlink" x="0px" y="0px"
	 viewBox="0 0 1440 937" enable-background="new 0 0 1440 937" xml:space="preserve">
<g>
	<g>
		<path d="M478.2,758.3c0.2,2.3-2,4-0.9,6.6c-3.2,0-6,0-9.3,0c0-1.9,0.1-4,0-6.1c-0.1-1.4,0.6-2.9-0.8-4.2c-0.4-0.4-0.4-1.5,0.1-2.3
			c0.3-0.4,0.8-0.6,0.7-1.2c-0.8-4.3,2-8.3,0.8-12.4c1.1-1.2,1.9-2.4,3.5-1.5c1.4-1.7,3.4-2.8,4-5.4c2.5,2.9,3.5,6.5,5.9,9
			c9.7,1.7,19.4,1.9,29,0c0.9,0.9,1.6,1.5,2.3,2.2c3.8,0,7.7-0.1,11.5,0c1.9,0.1,3.8-0.6,5.7,0.8c0.8,0.6,3,0.6,3.8-0.1
			c1.7-1.4,3.5-0.3,5.2-1c0.9-2.3,1.8-4.6,2.8-7.3c3.7,2.7,5.5,6.8,8.3,9.8c0.8,7.2-0.3,14.3-1.1,21.7c-2.8-0.5-5.6,0.3-8.5-0.9
			c-2.2-0.9-5-0.8-7.5-0.9c-3.5-0.3-6.9-1.8-10.6-1.2c-1.8,0.3-3.2-1.3-5.1-1.1c-1.5,0.2-3.3,0.8-4.6-0.9c-0.1-0.2-0.6,0-1,0
			c-2.4,0.1-4.7-0.3-7.1-0.9c-2.1-0.5-4.5,0.3-6.6-1.1c-3.6,0.7-7-1-10.6-1.1C485,758.7,481.9,757.6,478.2,758.3z"/>
	</g>
</g>
</svg>
