<?xml version="1.0" encoding="utf-8"?>
<!-- Generator: Adobe Illustrator 17.1.0, SVG Export Plug-In . SVG Version: 6.00 Build 0)  -->
<!DOCTYPE svg PUBLIC "-//W3C//DTD SVG 1.1//EN" "http://www.w3.org/Graphics/SVG/1.1/DTD/svg11.dtd">
<svg version="1.1" id="Layer_1" xmlns="http://www.w3.org/2000/svg" xmlns:xlink="http://www.w3.org/1999/xlink" x="0px" y="0px"
	 viewBox="0 0 1440 937" enable-background="new 0 0 1440 937" xml:space="preserve">
<g>
	<g>
		<path d="M881.5,224c-4,0-8,0-12,0c-0.5-0.5-0.9-0.9-1.3-1.3c-1.2-3.3,1-6.1,0.8-9.2c-0.1-3,0-6,0-9c2.9-2.8,4.1-7,7.6-9.5
			c0.5,1.2,1.1,2.4,1.7,3.6c1.4,0.4,2.6,1.4,4.3,1.4c6.3-0.2,12.6-0.1,19.6-0.1c0.7-0.8,1.6-2,2.9-3.6c1,1.9,2,3.5,3.4,4.5
			c7,0.6,13.9-0.8,20.9,1c1.7-0.8,2.4-2.5,3.5-4.6c1.5,1.7,3.2,2.4,3.4,4.4c1.1,0.7,3-0.6,3.8,1.4c0,2.5-0.3,5,0.1,7.4
			c0.3,2.5-1.1,4.7-1.2,7.3c-5.5,0.8-10.9-2-16.7-0.6c-0.8,0.8,0.3,2.3-0.6,3.8c-3.3-0.7-6.9,1.1-10.3-1c-0.7-0.4-2-0.1-3-0.1
			c-5.2,0-10.3,0-15.5,0c-2.2,0-4.6,0.6-5.9-1.1c-2.4,0.2-2.9,2.6-4.7,2.3C881.6,222.1,882.5,223.3,881.5,224z"/>
	</g>
</g>
</svg>
