<?xml version="1.0" encoding="utf-8"?>
<!-- Generator: Adobe Illustrator 17.1.0, SVG Export Plug-In . SVG Version: 6.00 Build 0)  -->
<!DOCTYPE svg PUBLIC "-//W3C//DTD SVG 1.1//EN" "http://www.w3.org/Graphics/SVG/1.1/DTD/svg11.dtd">
<svg version="1.1" id="Layer_1" xmlns="http://www.w3.org/2000/svg" xmlns:xlink="http://www.w3.org/1999/xlink" x="0px" y="0px"
	 viewBox="0 0 1440 937" enable-background="new 0 0 1440 937" xml:space="preserve">
<g>
	<g>
		<path d="M360.8,349c-6.1,0-11.9-0.1-17.8,0c-1.4,0-2.2-0.5-3.1-1.6c0.4-3.5-1.1-7.6,1.9-10.9c0.2-6.1,3.2-11.9,1.9-17.9
			c0.8-0.8,1.4-1.4,2-2c0.5-6.2,3.1-12.1,2-19.2c3.4,1.9,6.4,1.4,9.4,1.5c3,0,6,0,9.5,0c0.5,0.8,1.2,1.9,2.3,3.8
			c-0.2,5.2,0.7,11.6-1.4,18.2c-1.3,0-2.8,0-4.4,0c1.7,1.4,3.5,0.8,5.6,1.2c0.8,1.3-0.7,3.5,1.2,4.5c-1.7,5-1.4,10.1-3.4,15.2
			c-1.9,0-4.1,0-6.5,0C361.4,344.5,361.1,346.7,360.8,349z"/>
	</g>
</g>
</svg>
