<?xml version="1.0" encoding="utf-8"?>
<!-- Generator: Adobe Illustrator 17.1.0, SVG Export Plug-In . SVG Version: 6.00 Build 0)  -->
<!DOCTYPE svg PUBLIC "-//W3C//DTD SVG 1.1//EN" "http://www.w3.org/Graphics/SVG/1.1/DTD/svg11.dtd">
<svg version="1.1" id="Layer_1" xmlns="http://www.w3.org/2000/svg" xmlns:xlink="http://www.w3.org/1999/xlink" x="0px" y="0px"
	 viewBox="0 0 1440 937" enable-background="new 0 0 1440 937" xml:space="preserve">
<g>
	<g>
		<path d="M1105.9,624.7c-1.2-2.5-3.3-1.2-4.8-2c0-6.8,0-13.5,0-20.3c0.4-0.4,0.9-0.9,1.4-1.4c2,0,4,0,6,0c0.4-1.3,1.6-2.3,1.5-3.8
			c0-1.4-1.3-2-5.1-2.4c0.4-7.1-0.8-14.3,1.4-21.6c6.2,0,12.8,0,19.4,0c0.3,0.3,0.7,0.7,1.3,1.3c0,3.9-0.2,8,0,12.2
			c0.2,3.7-0.9,7.4,0.8,11c-1.8,3.4-0.6,7.1-0.8,10.6c-0.2,4.7,0,9.4,0.8,14.1c0.7,4.1,0.7,8.4-1.3,12.5c-6.9,0-14.1,0-21.2,0
			C1104.6,628.3,1104.7,627,1105.9,624.7z"/>
	</g>
</g>
</svg>
