<?xml version="1.0" encoding="utf-8"?>
<!-- Generator: Adobe Illustrator 17.1.0, SVG Export Plug-In . SVG Version: 6.00 Build 0)  -->
<!DOCTYPE svg PUBLIC "-//W3C//DTD SVG 1.1//EN" "http://www.w3.org/Graphics/SVG/1.1/DTD/svg11.dtd">
<svg version="1.1" id="Layer_1" xmlns="http://www.w3.org/2000/svg" xmlns:xlink="http://www.w3.org/1999/xlink" x="0px" y="0px"
	 viewBox="0 0 1440 937" enable-background="new 0 0 1440 937" xml:space="preserve">
<g>
	<g>
		<path d="M297.1,538.8c0.2,1.7-0.7,2.3-1.5,3.1c-2.3,0-4.7,0-7.1,0c-0.6,2.6-2,4.9-1.4,7.3c-2.7,4.1-3.9,8.7-6,12.8
			c-6.6,12.9-13,25.9-19.5,38.9c-0.6,1.1-1.4,2.2-1.5,3.4c-0.2,2.5-1.9,4-3.4,5.6c-3-1-5.9-2.3-9.3-1.8c-0.9,0.6-1.4,1.5-1.7,3
			c-1.9-0.4-3.9,0.7-5.6-0.6c-1-0.7-1.9-0.5-2.8-0.4c-3.8,0.4-7.3-1.7-11.1-1c-2.5-1.6-5.6-0.2-8-1.2c-2.6-1-5.1-0.6-7.7-0.9
			c-0.6-1.3-2.7-0.5-2.8-1.4c-0.4-1-0.7-1.3-0.6-1.5c0.7-4.1-1.2-8-1.1-12.1c0-2.5,0.7-4.7,1.5-6.9c2.6-6.6,5.1-13.2,7.6-19.8
			c1.8-4.8,3.6-9.5,5.4-14.2c1.7-4.3,3.3-8.6,5-12.9s3.3-8.6,4.9-12.9c2.1-5.5,3.7-11.2,4.6-17.1c0.1-1,1-1.2,1.4-1.9
			c3.9,0,7.6-1.5,11.6-1.2c3.9,0.3,7.6,2,11.6,0.9c0.3,0.8,0.5,1.4,0.8,2.3c7.3-1,14.5,1.6,21.8,0.9c2.8-0.3,5.2,1.5,8.1,1.1
			c2.6-0.4,5.5-0.6,7.9,0.1c3.6,1,7.1,0.8,10.6,0.8c1,0,1.3,0.9,2,1.3c0.4,2.7,0.1,5.4,1,8.1c1.1,3.7-0.4,7.7-1.3,11.4
			c-0.4,1.6-0.2,3.2-0.7,4.9c-0.7,1-2.5,1.5-2,3.1C304.3,538.3,300.8,539.4,297.1,538.8z M234.8,580c5-0.6,9.4,2.1,13.9,0.7
			c1.3-2.6,2.5-5.1,3.7-7.6c1.3-2.6,2.4-5.4,3.9-7.8c1.5-2.4,1.9-5.4,3.6-7.5c1.9-2.4,2.2-5.4,3.7-8c1.8-3,3.1-6.2,4.8-9.8
			c-3.4-0.2-6.2-0.2-9.1-0.9c-2.8-0.7-5.9-0.2-9.3-0.2C245,552.5,240,566,234.8,580z"/>
		<path d="M308.5,542c-0.5-0.3-0.5-0.7,0-1C309,541.3,309,541.7,308.5,542z"/>
	</g>
</g>
</svg>
