<?xml version="1.0" encoding="utf-8"?>
<!-- Generator: Adobe Illustrator 17.1.0, SVG Export Plug-In . SVG Version: 6.00 Build 0)  -->
<!DOCTYPE svg PUBLIC "-//W3C//DTD SVG 1.1//EN" "http://www.w3.org/Graphics/SVG/1.1/DTD/svg11.dtd">
<svg version="1.1" id="Layer_1" xmlns="http://www.w3.org/2000/svg" xmlns:xlink="http://www.w3.org/1999/xlink" x="0px" y="0px"
	 viewBox="0 0 1440 937" enable-background="new 0 0 1440 937" xml:space="preserve">
<g>
	<g>
		<path d="M1146.1,413.9c-0.5,0.6-1,1.5-1.5,2.2c-4.7-2.3-9.4-0.4-14.6-1.5c-0.8-0.4-1.1-1.8-1.1-3.5c-3.5,0-6.9,0-10.7,0
			c-0.6-9.1-0.1-18,1.1-27c0.3-0.3,0.6-0.6,1.3-1.3c5.3,0.9,11,1.6,17,1c1.8-3,2.1-6.8,3.3-10.3c1.8-5.5,3-11.1,4.6-16.6
			c1.2-4.5,2.5-9,3.7-13.5c1.2-4.4,2-9.1,4.3-13.5c2.1,0.3,4.2-0.5,6.4,0.9c0.9,0.6,3,0.8,4.1-2c0-1.2,0-3.3,0-5.3
			c0.5-0.5,0.9-0.9,1.6-1.6c11.5,1.3,23.4,2.7,35.5,4c-0.3,2.4,0.7,4.7-1,6.7c-0.2,0.3,0,1,0,1.5c0,2.4,0,4.7-0.9,7.1
			c-0.8,2,0.5,4.5-1.1,6.6c-0.2,0.2-0.1,0.7,0,1c0.5,4.3-1.6,8.3-1,12.6c-1.4,2.4-0.3,5.3-1.2,7.5c-1,2.6-0.1,5.3-0.9,7.6
			c-1.1,2.9-0.1,6-1.1,8.6c-1.1,2.8-0.6,5.5-0.8,8.2c-0.2,3-0.3,6,0,9c0.2,2.2-1,4-1.1,6.1c-0.1,2,0.8,4.1-0.8,6.2
			c-0.7,0.9-0.1,2.8-0.1,4.4c-0.8-0.1-1.4,0-1.7-0.2c-0.3-0.3-0.3-0.8-0.6-1.7c-2.2,0.4-4.2-1.3-6.7-1.1c-2.3,0.1-4.7-0.1-7,0.1
			c-6.3,0.6-12.3-1.7-18.6-1C1153.3,413.4,1149.8,414.2,1146.1,413.9z M1155.6,385.8c4.7,0,8.5,0,12.2,0c0.2-0.6,0.3-1.1,0.4-1.5
			c2.9-1.6,5.5,1.5,8.4,0.5c1.3-1.8,1.5-3.8,1.4-5.9c-0.1-1-0.4-2.2,0.1-3c1.4-2.1,0.3-4.6,1-6.6c0.9-2.4,0.8-4.7,0.9-7.1
			c0-0.5-0.2-1.1,0-1.5c1.9-2.7,0.5-5.7,1.1-8.9c-5.6,0.7-10.5-1.8-16.1-0.7C1161.8,362.5,1158.7,374,1155.6,385.8z"/>
	</g>
</g>
</svg>
