<?xml version="1.0" encoding="utf-8"?>
<!-- Generator: Adobe Illustrator 17.1.0, SVG Export Plug-In . SVG Version: 6.00 Build 0)  -->
<!DOCTYPE svg PUBLIC "-//W3C//DTD SVG 1.1//EN" "http://www.w3.org/Graphics/SVG/1.1/DTD/svg11.dtd">
<svg version="1.1" id="Layer_1" xmlns="http://www.w3.org/2000/svg" xmlns:xlink="http://www.w3.org/1999/xlink" x="0px" y="0px"
	 viewBox="0 0 1440 937" enable-background="new 0 0 1440 937" xml:space="preserve">
<g>
	<g>
		<path d="M545.2,177.7c-1.4-3-1.7-6.3-2.2-9.6c-0.4-3.2,0.4-6.4-1-9.6c-0.9-2.2,0.7-4.3,1.3-6.4c1.7-5.4,3.7-10.8,5.6-16.2
			c0.2-0.4,0-1,0-1.9c4.1,0.2,8.3-1.1,12.4,0.8c0.3,0.1,0.6,0.1,1,0.1c4.4-0.8,8.7,1.4,13.1,1c2.2-0.2,3.9,1.3,6.1,1.1
			c2-0.2,4.3-1,6.1,0.9c0.1,0.1,0.3,0,0.5,0c4.3-0.7,8.3,1.6,12.6,1c2.4-0.3,4.2,1.3,6.6,1.1c2.2-0.2,4.6-0.7,6.6,0.9
			c0.1,0.1,0.3,0,0.5,0c4.4-0.6,8.7,1.6,13.1,1c2.1-0.3,3.8,1.5,6.1,1.1c1.9-0.3,4-0.1,5.9-0.1c0.6-0.6,1.2-1.2,1.9-1.9
			c1,0,2.1,0,3.2,0c1.1,0.7,1.3,1.9,1.9,2.9c2.5,0.1,5.2-0.5,7.5,1.5c0,5.3-0.1,10.8,0.1,16.3c0,1.7-1.4,2.8-1.1,4.6
			c0.2,1.3,0.1,2.7-0.7,4.2c-0.9,1.8,0.3,4.5-1.2,6.5c0.8,3.1-0.7,6.1-1.2,9.1c-0.7,4.1-0.7,8.5-2.6,12.4c-0.5,0.9-0.2,2.2-0.3,3.7
			c-2.9-0.5-5.8,0.7-8.6-1c-0.7-0.5-2.1-0.4-2.9,0c-2.6,1-5.1-0.6-7.7-0.1c-0.4,0.1-1-0.8-1.6-1.4c0-3.3,0-6.8,0-10.4
			c-1.6,0-3.1,0-4.6,0c-0.5,0.5-1.1,1.1-1.9,1.9c-1.8-0.4-3.8,0.6-5.9-0.8c-1.7-1.1-4.3,0.8-6-1.1c-2.8,0.6-5.4-0.8-8-1.2
			c-4.6-0.6-9.4-1.1-13.9-2.6c-2.2-0.8-4.7-0.4-7-1c-2.6-0.6-5.2-1.9-8-1.2c-4.2-1.8-8.9-1.6-13.3-2.8c-2.3-0.7-5-1-7.5-1.1
			C548,179.1,546.8,178.1,545.2,177.7z M563.7,161.7c1.3,0.1,2.2,1.2,3.1,1.2c4,0.1,7.8,1.5,11.7,1.9c2.9,0.3,5.7,1,8.5,1.4
			c2.7,0.3,5.7,0.3,8.2,1.8c5-0.4,9.6,2.3,14.6,2c2.2,2.1,5.5-0.1,7.7,1.9c3.8-0.1,7.5,2.1,11.5,0.8c0-1.5,0.3-3.1-0.2-4.7
			c-1.4,0-2.5-0.1-3.7,0c-4.1,0.3-7.9-1.8-12.1-1c-3.6-2.3-8,0.2-11.6-2c-4.4,0.6-8.6-1.6-13.1-1c-0.5,0.1-1.1,0.2-1.5,0
			c-2.4-1.7-5.2-0.2-7.5-1.1c-2.6-0.9-5.1-0.8-7.6-0.9c-0.8,0-1.6,0-2.4,0c-2.2-0.7-0.6-3-1.7-4c-0.7,0-1.3,0-2.1,0
			C564.9,159.1,564.4,160.2,563.7,161.7z"/>
	</g>
</g>
</svg>
