<?xml version="1.0" encoding="utf-8"?>
<!-- Generator: Adobe Illustrator 17.1.0, SVG Export Plug-In . SVG Version: 6.00 Build 0)  -->
<!DOCTYPE svg PUBLIC "-//W3C//DTD SVG 1.1//EN" "http://www.w3.org/Graphics/SVG/1.1/DTD/svg11.dtd">
<svg version="1.1" id="Layer_1" xmlns="http://www.w3.org/2000/svg" xmlns:xlink="http://www.w3.org/1999/xlink" x="0px" y="0px"
	 viewBox="0 0 1440 937" enable-background="new 0 0 1440 937" xml:space="preserve">
<g>
	<g>
		<path d="M579,639.4c0,1.5,0,2.9,0,4.2c0.7,0.8,1.6,0.3,2.4,0.4c0.8,0.3,0.4,1.5,0.8,1.6c3.2,1,3.9,3.8,5.3,6.3
			c0.7,1.3,0.9,3.3,3.1,3.1c1.3,2.3,3.9,3.9,3.5,7.2c2.6,4,6.7,6.7,9.9,10.3c0,4.2,0,8.5,0,13c-2.8,4.2-8.5,3.4-11.6,6.6
			c-2-0.4-2.2-1.8-2.7-3c-2.6-0.2-4.7,0-6.2,2.8c-0.9,1.7-3,2.3-5.1,2.1c-2.1-0.2-4.1,0.1-5.5,0.9c-2.3,0.3-2.5-2.2-4.6-1.9
			c-0.9,1.7,0.1,3.7-0.4,5.6c-2.4,1.8-4.8,2.4-9.5,2.5c-0.9,1.1-3.3,1-3.3,2.5c0.1,2.2-2.6,0.7-2.4,2.4c-3.6,0.2-7.1-0.8-9.6,2.4
			c-3.8-4.2-5.9-9.1-9.9-12.6c-1.9-1.7-1.9-4.8-4.2-6.3c-0.1-0.1,0.1-0.4,0-0.5c-4.6-4.3-6.7-10.6-11.3-14.8
			c-2.3-2.1-2.7-5.3-4.7-7.8c0-2.6-0.4-5.5,1.3-8.5c-2.5,0.2-3.8,1.5-5.3,2.1c-4.4-2.4-6.4-7-9-10.9c-0.2-0.3-0.3-0.9-0.7-1.2
			c-3.4-2.4-5-6.3-7.2-9.6c-1-1.5-3.4-1.6-3.4-4c0-2-2-3.1-2.9-4.7c-0.9-1.6-1.8-3.4-3.4-4.6c-1.6-1.2-1.7-3.5-3.4-4.5
			c0-2.4,0-4.8,0-6.8c1.2-1.9,1.6-4.4,4.5-3.8c2.7-2.5,6.5-2.7,9.5-4.5c0-0.7,0-1.1-0.6-1.5c-6.2,2.6-12.4,5.2-19,7.9
			c-2.3-1.8-3.6-4.5-5.4-6.8c-3.4-4.4-6.6-8.9-9.8-13.4c-3.7-5.1-7.5-10.2-11.2-15.4c-3.1-4.4-6-8.9-9.4-13.1
			c-1.8-2.3-2.9-4.5-2.7-7.4c0.1-1.8,0-3.6,0-5.6c-5.9-0.3-11.6-1.8-17.5-1.2c-3.1,0.3-5.9-1.9-8.9-0.9c-0.6-0.6-1.1-1.1-1.4-1.4
			c-1.1-7.7,0.8-15,2.1-22.5c0.1-0.1,0.5-0.5,1.2-1.2c1.4,0,3.7-0.7,4.9,0.2c1.8,1.2,3.5,0.5,5.2,0.9c0.6-1.3,1.2-2.6,1.8-4
			c5.4,0,11-0.7,16.3,0.2c7.1,1.2,14.1,0.4,21.1,0.9c3.3,0.2,6.3-1.2,9.6-1.2c3.3,0,6.3,1.3,9.6,1.2c3.2-0.2,6.5-0.7,9.4,0.1
			c4.7,1.4,9.4,0.3,14.1,1c3.7,14,0,27.7-3.1,42.4c2.4-3.3,2.6-3.3,2.5-4.5c-0.3-3.1,1.4-5.2,3.5-7.1c3.2,1.7,6.7,1,10.1,0.9
			c3.5-0.1,6.7,0.8,10.2,1.4c0.1,0.3,0.3,0.9,0.6,1.7c1.4,0,2.8,0,4,0c2.3,1.3,0.9,4.5,3.4,5.2c0.9,7-0.4,13.7-2,20.1
			c1.2,1.5,2.7,0.3,4.1,1.2c1,2.4,3.8,4.1,4.5,6.3c1.2,1.8,2.4,1,3.4,1.5c1.9,3.8,6,6.4,6.3,11.3c0.1,1.1,2.1,1.9,2.3,3.5
			c3.2,0.7,3.6,3.6,4.9,5.9c0.8,1.2,1.1,2.6,3,3.4c1.6,0.6,3.1,3,3.4,4.8c0.4,2.7,3.4,3.4,3.7,5.9c2.9,0.7,3.3,3.4,4.6,5.5
			c0.8,1.3,0.9,3.3,3.4,3.7C577.2,635.5,577.1,638.3,579,639.4z M532.5,650.9c3.4,3.3,5.2,7.5,7.6,12.1c0,1.1,0,2.9,0,4.5
			c1.4,1.4,2.4,2.6,3.7,3.7c1.3,1,1.1,3.3,2.9,3.7c1.9,0.4,1.3,2.9,3.6,3.1c0.5-0.4,1.6-0.8,2.6-1.2c2.2-0.8,4.9-1.3,6-3.4
			c0.9-1.8,2.3-2.3,3.5-2.3c2.7-0.1,4.5-1.9,7.3-2.7c-1.1-1.3-1.9-2.1-2.8-3.2c0-1.8,0-4,0-6.2c-2,0-3.7,0-5.3,0
			c-0.5-0.5-1.1-0.8-1.2-1.2c-0.7-3.5-2.9-5.9-5.3-8.3c-1-0.9-2.2-1.7-2.8-2.9c-1.3-2.8-2.7-5.5-5.1-7.6c-2.5-2.2-3.2-5.5-5.4-7.9
			c-1.1-1.2-1.5-3.1-3.5-3.5c-0.6-0.1-0.9-1.2-1.3-1.9c-0.7-1.4-1.7-2.7-2.5-4c-1.5-2.2-3.8-3.9-4.7-6.5c-2.2-0.8-3.9,0.5-5.7,1.4
			c-1.8,0.9-3.6,2.1-5.5,2.3c-2.4,0.2-4.6,1.2-5.9,2.5c-1.6,1.6-4.1,1.1-5.4,3.2c1.1,1.4,2.9,2.4,3.3,4.4c2.4,0.4,3.2,2.6,4.7,3.7
			c0,1.3,0,2.2,0,3.1c2,1.2,3.3-1.2,5.1-0.7c1.5,0.9,2.1,2.7,3.3,3.9c3.4,3.5,4.9,7.4,4.4,12.2c0,0.3,0.3,0.5,0.5,1
			C529.3,650.4,530.8,651.2,532.5,650.9z M499.5,571c-0.5,0.3-0.5,0.7,0,1C500,571.7,500,571.3,499.5,571z"/>
	</g>
</g>
</svg>
