<?xml version="1.0" encoding="utf-8"?>
<!-- Generator: Adobe Illustrator 17.1.0, SVG Export Plug-In . SVG Version: 6.00 Build 0)  -->
<!DOCTYPE svg PUBLIC "-//W3C//DTD SVG 1.1//EN" "http://www.w3.org/Graphics/SVG/1.1/DTD/svg11.dtd">
<svg version="1.1" id="Layer_1" xmlns="http://www.w3.org/2000/svg" xmlns:xlink="http://www.w3.org/1999/xlink" x="0px" y="0px"
	 viewBox="0 0 1440 937" enable-background="new 0 0 1440 937" xml:space="preserve">
<g>
	<g>
		<path d="M397.4,406.4c-11-16.4-21.8-32.6-32.4-48.5c0-3,0-5.7,0-8.4c4.4-4.6,9.9-6.2,16.5-5.3c1.2,0.8,2.4,2,2.9,3.8
			c2,0.4,3.8-0.1,5-1.2c2.9,1,3.4,3.2,4.8,5.2c0,3.1,0,6.5,0,10.3c2.1-0.8,4-1.4,6.2-2.3c3,3.4,5.7,6.9,6.7,11.8
			c0.7,3.2,1.6,6.1-0.1,9.2c0.6,4.5-0.9,9.1,0.8,13.6c0.9,2.3,0.2,5.3,0.2,8.1C404.9,404.2,401.4,404.9,397.4,406.4z"/>
	</g>
</g>
</svg>
