<?xml version="1.0" encoding="utf-8"?>
<!-- Generator: Adobe Illustrator 17.1.0, SVG Export Plug-In . SVG Version: 6.00 Build 0)  -->
<!DOCTYPE svg PUBLIC "-//W3C//DTD SVG 1.1//EN" "http://www.w3.org/Graphics/SVG/1.1/DTD/svg11.dtd">
<svg version="1.1" id="Layer_1" xmlns="http://www.w3.org/2000/svg" xmlns:xlink="http://www.w3.org/1999/xlink" x="0px" y="0px"
	 viewBox="0 0 1440 937" enable-background="new 0 0 1440 937" xml:space="preserve">
<g>
	<g>
		<path d="M1050.6,526c1.9,0,3.8,0,6,0c3.2,3.9,6.3,8,9.7,11.8c4.7,5.5,9.1,11.2,13.7,16.8c3.3,4,6.7,8.1,9.8,12.3
			c2.3,3.1,4.7,6.2,7.6,8.9c2.5,2.4,3.7,5.1,1.9,8.5c-0.5,0.9-0.2,2.2-0.3,3.3c-5.7,2.2-11.3,4.3-17.2,6.6c-0.8-2.5-2.8-3.8-4.3-5.5
			c-1.6,0.9-3,1.6-4.3,2.2c-2.7-0.9-2.9-3.9-4.9-5.4c0-2.9,0-5.8,0-9.2c-0.9-0.6-2-1.3-3.5-2.2c-1.1,0.4-3,1.1-4.9,1.8
			c-3-3.9-5.9-8-9.7-11.4c0-3.2,0-6.6,0-10.1c-0.8-0.8-1.7-1.8-2.7-2.7c-1.6,1-3.3,1.2-5.3,1.8c-1-1.1-2.5-2.7-4.1-4.4
			c0-1.8-0.2-4,0-6.2c0.3-2.7,0.5-5.4,1.5-7.8c0.5-1.2-0.2-2.9,1.6-3.9c1.7-1,3.3-2.6,5.2-3.1C1047.9,527.7,1049.2,527.1,1050.6,526
			z"/>
	</g>
</g>
</svg>
