<?xml version="1.0" encoding="utf-8"?>
<!-- Generator: Adobe Illustrator 17.1.0, SVG Export Plug-In . SVG Version: 6.00 Build 0)  -->
<!DOCTYPE svg PUBLIC "-//W3C//DTD SVG 1.1//EN" "http://www.w3.org/Graphics/SVG/1.1/DTD/svg11.dtd">
<svg version="1.1" id="Layer_1" xmlns="http://www.w3.org/2000/svg" xmlns:xlink="http://www.w3.org/1999/xlink" x="0px" y="0px"
	 viewBox="0 0 1440 937" enable-background="new 0 0 1440 937" xml:space="preserve">
<g>
	<g>
		<path d="M582.7,702c0.3,2.2,2.4,3.1,2.9,5.3c3.2-2.2,6.9-2.7,10.3-4.2c0-2,0-3.6,0-5.1c3.6-4,3.6-4,8.8-3.8c1.4,0.9,1.3,3,2.6,3.7
			c1.9,0.9,3.2-0.8,4.7-1c1.5-0.3,2.9-1,4.7-0.7c2.3,3.8,5.4,7.2,7.2,12.2c0,2.5,0,5.8,0,9.3c-12.7,4.9-25.3,10.3-38,15.2
			c-12.8,4.9-25.5,10-38.7,14.9c-3.9-3.5-5.3-9.2-9.2-13.2c0-3,0-6.1,0-9.6c2.5,0.8,3.5-1.2,4.9-2.5c0.2-1.5-1.8-2.4-0.8-4.3
			c2.4-1.5,4.8-3.6,8.3-3.1c1.6,0.9,1.4,3,3.1,4c3.5-0.7,6.9-1.9,10.2-4.2c0-1.8,0-3.5,0-5.2C570.8,704.2,576.1,702,582.7,702z"/>
	</g>
</g>
</svg>
