<?xml version="1.0" encoding="utf-8"?>
<!-- Generator: Adobe Illustrator 17.1.0, SVG Export Plug-In . SVG Version: 6.00 Build 0)  -->
<!DOCTYPE svg PUBLIC "-//W3C//DTD SVG 1.1//EN" "http://www.w3.org/Graphics/SVG/1.1/DTD/svg11.dtd">
<svg version="1.1" id="Layer_1" xmlns="http://www.w3.org/2000/svg" xmlns:xlink="http://www.w3.org/1999/xlink" x="0px" y="0px"
	 viewBox="0 0 1440 937" enable-background="new 0 0 1440 937" xml:space="preserve">
<g>
	<g>
		<path d="M874.2,219.1c3.6,2.4,4.9,5.8,6.9,8.7c2.4,3.5-1.2,6.5,0,9.6c-0.8,1-2.3,0.8-3.2,2.6c0,0.6,0,1.8,0,3
			c-2.8,1.5-5.5,2.5-8.5,2c-0.1-0.1-0.3-0.2-0.3-0.3c-0.1-0.4-0.2-0.9-0.4-1.5c-3.5-1-6.1,2.2-9.6,1.8c0,1.6,0,3.1,0,5
			c-5.7,1.5-10.6,5.2-16.5,5c-1.4-0.8-1.5-2-2.2-3.1c-0.4,0.1-0.9,0.2-1.3,0.3c-1.6,0.6-3.1,1.3-4.8,1.7c-2.1,0.4-2.5,1.7-2.4,3.3
			c-1.4,3.2-5.2,2.4-6.9,5.4c-1.5-1.5-2.6-2.6-3.6-3.6c-2.4,0.8-4.6,1.6-6.6,2.3c-3-3.8-5.6-7.5-8.9-10.7c0-2.6,0-5.2,0-8
			c2.9-1.7,6.3-2.1,9.4-3.5c7.8-3.4,16.1-5.2,23.9-8.6c2.5-1.1,5.5-1.5,7.9-2.6c2.4-1.1,5-1.9,7.4-2.6c5.5-1.5,10.6-4.2,16.2-5.6
			C872,219.2,873.3,219.3,874.2,219.1z"/>
	</g>
</g>
</svg>
