<?xml version="1.0" encoding="utf-8"?>
<!-- Generator: Adobe Illustrator 17.1.0, SVG Export Plug-In . SVG Version: 6.00 Build 0)  -->
<!DOCTYPE svg PUBLIC "-//W3C//DTD SVG 1.1//EN" "http://www.w3.org/Graphics/SVG/1.1/DTD/svg11.dtd">
<svg version="1.1" id="Layer_1" xmlns="http://www.w3.org/2000/svg" xmlns:xlink="http://www.w3.org/1999/xlink" x="0px" y="0px"
	 viewBox="0 0 1440 937" enable-background="new 0 0 1440 937" xml:space="preserve">
<g>
	<g>
		<path d="M605.9,446.2c-3.1-1.9-5.8-0.9-8.3-1.2c-2.7-0.3-5.3,0.5-8.2-0.7c-2.3-1-5.2-0.2-8.2-0.2c-0.7-1.7-0.1-3.5-0.3-5.3
			c-0.2-1.4,0.6-2.9-0.8-4.2c-0.3-0.3-0.4-1.5-0.1-1.8c1.5-1.6,0.2-3.8,1.1-5c1.2-1.8,0.4-3.6,0.9-5.2c1.5-4.2,1.4-8.6,2.5-12.9
			c0.8-2.9,1.5-6.1,1.4-9.4c-2.7-0.7-5.5,0.4-7.9-0.7c-2.5-1.2-5.2,0-7.9-0.8c0-6,0-12.1,0-18.4c-3.5-1.1-7.3,0.7-10.5-1.4
			c-1.1,1.6-1.9,3.2-1.7,5.2c0.2,1.3-0.8,2.5-0.9,3.6c-0.2,4.5-1.3,8.8-2.3,13.1c-1,4.6-1.7,9.2-2.7,13.8c-0.8,3.5-2.2,7.2-0.9,11.3
			c6.9-0.8,13.8,1.6,20.8,1c0.5,0,1,0,1.4,0.1c0.4,0.4,0.8,0.8,1.4,1.4c0,3.6-0.1,7.6,0,11.5c0.1,3.9,0,7.8-1.4,11.8
			c-9.5,1.3-19.3-1.8-29-0.7c-0.6-0.6-1-1.1-1.7-1.8c0-2.5,0-5.3,0-8.2c-5-0.5-9.9,0.7-14.4-1.4c-4.1-5.5-8.9-10.5-12.6-16.5
			c0-1.5,0-3.1,0-4.8c-3.8-5-7.7-10.1-11.9-15.6c-1-0.5-2.1,1-3.5,1.2c-0.7-1-1.1-2.2-2.1-3.1c-3.4-2.9-4.6-6.8-4.5-11.1
			c0-3.2,0-6.3,0-9.5c8-3.5,16.1-6.3,24.1-9.5c7-2.8,14.2-5.2,21-8.4c5.4-2.5,11.2-4.4,16.8-6.4c0.7-0.2,1-0.7,1.6-1.1
			c3.3,0,6.6,0,10,0c0.5-0.5,0.9-0.9,1.6-1.6c-1-1.4-1.2-3-1.2-4.8c0.1-4.5,0.1-9,0-13.5c-0.1-3,0.3-6-0.8-9.1
			c-1.3-3.4,1.1-6.9,1-10.5c1.8-1.6,0.1-4,1-5.5c1.2-1.9,0.5-3.8,1-5.5c0.4-0.4,0.8-0.8,1.4-1.4c3.7,0.5,7.7-0.5,11.7,0.9
			c2.4,0.8,5.3,0.2,7.9,0.2c1.8,0,3.6,0,5.3,0c0.5,0.5,0.9,0.9,1.6,1.6c-1,7.9,1.4,15.9,0.9,24.1c-0.2,3,0,6,0,9
			c0,5-0.4,10.1,1.3,15c5.3,1.9,10.8,1.3,16.2,1.4c0.4,0.4,0.8,0.8,1.5,1.5c0,6.4,0.6,13.3-0.2,20c-0.6,4.7-0.8,9.7-2.8,14.3
			c0.7,3-1.4,5.7-0.9,8.6c0.3,2-1.1,3.3-1.2,5.1c-0.2,2.9-1.1,5.7-0.9,8.6c-2.2,2.2,0.3,5.5-2,7.7c0.4,2.6-0.6,5.1-1,7.6
			c-0.7,4.9-2,9.7-2,14.7C607,444.2,604.7,444.2,605.9,446.2z M522.4,395.9c0.3,3.8,3.3,5.1,4.9,7.5c1.5,2.3,2.9,5.1,5.3,6.5
			c1.6,0,2.9,0,4.1,0c0.3-0.3,0.7-0.5,0.8-0.8c1.6-5.2,1.7-10.8,3.5-16c0.5-1.5,0.1-3.2,0.1-5.2C534.6,391.1,528,392.6,522.4,395.9z
			"/>
	</g>
</g>
</svg>
