<?xml version="1.0" encoding="utf-8"?>
<!-- Generator: Adobe Illustrator 17.1.0, SVG Export Plug-In . SVG Version: 6.00 Build 0)  -->
<!DOCTYPE svg PUBLIC "-//W3C//DTD SVG 1.1//EN" "http://www.w3.org/Graphics/SVG/1.1/DTD/svg11.dtd">
<svg version="1.1" id="Layer_1" xmlns="http://www.w3.org/2000/svg" xmlns:xlink="http://www.w3.org/1999/xlink" x="0px" y="0px"
	 viewBox="0 0 1440 937" enable-background="new 0 0 1440 937" xml:space="preserve">
<g>
	<g>
		<path d="M744,389.1c0-2.7,0-5,0-7.3c0-2.3,0-4.7,0-7c0-2.5,0-5,0-7.5c0-2.3-0.6-4.9,0.2-6.9c0.8-2-1.6-4.3,0.8-5.8
			c-0.3-0.4-0.7-0.7-1.2-1.3c1.5-1.3,1-3.1,1.3-4.8c0.7-3.6,0.5-7.3,1.8-10.8c0.3-0.9,0.3-2,0.2-2.9c-0.3-2.8,0.6-5.3,1.6-8.1
			c7.1-2.2,13.5-6,20.8-7.7c3.7-2.7,8.2-3.4,12.4-5.2c7.4-3.1,14.9-6,22.3-9c4-1.6,8.4-2.4,11.9-4.9c1.6-1.1,3.9-0.4,5.1-2.5
			c0-1.7,0.2-3.6-0.1-5.4c-0.3-1.8,2-2.8,0.8-4.7c9.3-1.6,18.1,1.4,27.3,0.6c0,8,0.3,15.6-0.2,23.2c-0.1,2.3-0.8,4.7-0.8,7.1
			c0,2.3,0,4.7,0,6.8c3.9,5.6,8.9,10.1,13,14.9c0,6.5-0.1,12.5,0,18.5c0,2.1-1.4,3.9-1.2,6.1c0.2,2,1.1,4.3-0.9,6.1
			c-0.2,0.2-0.1,0.6,0,1c0.7,5.3-1.4,10.3-1,15.6c0.2,2.9-1.8,5.5-1.5,8.7c-0.6-1.8-1.2-3.7-1.8-5.7c-6.4,0.1-12.8-2-19.3-0.9
			c-0.5,1.8-2.2,3.2-0.8,5.7c-2.4-0.2-4.2,0.8-6.1-0.8c-0.5-0.5-1.9-0.1-2.9-0.1c-7.9,0.5-15.7-1.8-23.6-1
			c-4.9-1.8-10.1-0.3-15.1-1.1c-5.4-0.9-10.8-0.1-16.1-1.1c-4.8-0.9-9.5-0.2-14.1-0.9C752.5,389.3,748.4,388.8,744,389.1z
			 M760.1,355.3c3.7-1,6.7,0.5,9.9,0.7c4.8,0.3,9.8-0.9,14.5,1c8.2-0.7,16.3,1.5,24.5,1c1.2-0.1,2.7-0.5,3.4,0.1
			c1.9,1.6,3.6,0.6,5.7,0.9c-0.8-2,0.9-3,0.9-4.9c-2.1,0.3-3.9-1.2-5.9-1c-6.9,0.5-13.7-1-20.5-1.1c-6.7-0.1-13.3-1.6-20-1
			c-0.3,0-0.7,0.1-1,0c-3.7-2.1-7.6-0.4-11.5-1.1C760.1,351.7,760.1,353.2,760.1,355.3z M791.6,333.1c6.8-1,13.6,1.6,20.5,0.9
			c2.2-0.2,4.5-0.3,6.7,1.4c0.6-6,1-11.3-4.8-14.6c-7.7,4.2-16.5,5.8-24.2,10.4C790.4,331.9,790.8,332.3,791.6,333.1z"/>
	</g>
</g>
</svg>
