<?xml version="1.0" encoding="utf-8"?>
<!-- Generator: Adobe Illustrator 17.1.0, SVG Export Plug-In . SVG Version: 6.00 Build 0)  -->
<!DOCTYPE svg PUBLIC "-//W3C//DTD SVG 1.1//EN" "http://www.w3.org/Graphics/SVG/1.1/DTD/svg11.dtd">
<svg version="1.1" id="Layer_1" xmlns="http://www.w3.org/2000/svg" xmlns:xlink="http://www.w3.org/1999/xlink" x="0px" y="0px"
	 viewBox="0 0 1440 937" enable-background="new 0 0 1440 937" xml:space="preserve">
<g>
	<g>
		<path d="M645,686c0-1.5,0-3.5,0-5.6c-1.7-0.8-1.8-2.9-3.3-4.3c-0.9,0-1.6,1.2-3.5,0.5c-3.7-3.5-6.7-8.7-10.3-13.3
			c-3.5-4.5-7.1-9.1-10.9-13.9c0-2.5,0-5.3,0-8.1c-0.1-2.6,0.5-5.2-0.9-7.6c-0.4-0.6-0.1-1.6-0.1-2.3c1.3-1.5,3-2,4.6-2.7
			c8.5-3.5,17-7.2,25.5-10.8c0.7-0.3,1.6,0,2.4,0c3.7,4.8,7.3,9.4,11,14.2c3.7-1.5,7.2-3,10.6-4.4c5,6.4,9.8,12.6,15,19.3
			c0,1.7,0,4.2,0,6.8c1.7-0.8,3.1-1.5,4.7-2.3c0.4-1,0.3-1.9-0.5-2.9c-5.4-6.6-10.7-13.2-15.9-19.9c-0.7-1-1.2-2.2-2.3-3.2
			c0-6,0-12.1,0-18.3c8-2.8,15.4-7,23.5-9.6c2.4-0.8,4.6-2.5,7.2-3.1c3.4-0.7,3.4-3.8,4.1-6.2c0.4-1.6,0.1-3.3,0.1-5
			c1.1-0.5,0.8-1.7,1.4-2.4c7.7-0.5,15.3,1.7,23,1c4.4,1.9,9.1,0.9,13.6,0.9c2,0,3.5,1.9,6,0.8c0,5-0.3,9.6,0.1,14.2
			c0.4,4.6-1.9,9-1,13.5c-0.7,0.7-1.3,1.3-2.1,2c0,2.4-0.2,5.1,0.1,7.7c0.6,5-1.6,9.7-1.1,14.6c-1.5,2.5-0.8,5.3-1,7.9
			c-4.4,1.9-8.6,3.8-13.7,6c3.6,0.6,6.5,0.2,9.3,0.4c0.5,0.5,0.9,0.9,1.4,1.4c0,4.6-0.2,9.3,0.1,14c0.2,2.2-1.2,4-1.2,6.1
			c0,2,0.2,4-0.7,6.2c-1,2.2-0.2,5.2-0.2,6.8c-1.1,4-3.1,5.4-6.2,5.6c-1,0.1-1.9,1-2.9,1.4c-5.9,2.6-11.8,5.3-17,7.6
			c-2.1-0.2-2.5-1.6-3.5-2c-0.9,1-0.2,2.2-0.5,3.6c-13.2,5.8-26.5,11.7-40,17.7c-5.3-4.7-8.5-10.7-12.7-15.9
			C653,697.3,648.8,692.1,645,686z M705.9,633.2c6.9-4.4,15-5.7,21.6-10.2c3,0.7,3.2-2,4.3-3.4c0-2.8,0-5.6,0-8.3
			c-3.9-0.8-7.9,0.7-11.6-1c-2.4,1.7-0.7,4.3-1.2,5.8c-2.4,4-7,3.1-9.5,5.9c-3.7,0.2-6.2,3.1-9.9,4
			C702.4,627.9,703,631.3,705.9,633.2z M720,654.3c0,3.9,0,7.5,0,11.1c-1.3,1.7-3.1,2.9-5,3.6c-4.5,1.5-8.8,3.6-12.9,5.5
			c-0.1,0.8,0,1.3,0.4,1.4c8-3.5,15.8-6.9,23.8-10.4c-1.1-4.7,2-9,0.5-13.7C724.4,652.7,722.4,653.4,720,654.3z"/>
		<path d="M657,731.5c1.9,1.5,2.7,3.7,4,5.5c1.6,2.3,2.2,4.8,2.1,7.6c-0.2,2.8,0,5.7,0,8.5c0.8,1.7,2.4,3,1.9,5.2
			c3.3,3.3,5.8,6.9,5.1,11.6c1.8,1.8,3.4,3.4,4.9,4.9c0,2.9,0,5.3,0,7.8c-4.3,2.4-9.1,4-13.2,6.6c-4.1,2.6-8.6,4.2-12.8,7.1
			c-3.6-2.8-5.6-6.8-8.8-9.8c-1.8-1.7-1.1-4.6-1.1-6.9c2.6-3.2,6.7-3.9,10-6.1c-1.9-2.5-3.7-5.2-5.8-7.6c-1.5-1.8-2.3-3.7-2.3-6.1
			c-0.1-3-1.5-5.9-0.9-9c-2.3-3.2-4.6-6.2-7.1-9.6c0-1.6,0-3.6,0-5.6c0-1.8,0.2-3.7-0.1-5.5c-0.3-2.1,1.4-3.6,1-5.7
			c4.9-2.1,9.8-4.1,14.7-6.2c0.6,1,1.1,0.7,1.8-0.2c2.3,2,3.8,4.6,5.5,7.1C657.1,726.8,657,726.9,657,731.5z"/>
		<path d="M765,727.3c0,1.2,0,2.1,0,2.9c-2.6,2.8-2.6,2.8-7.9,5.1c0,1.7,0,3.5,0,5.6c-5.5,2.4-10.2,6.5-16.5,8.3
			c-2.2-3.8-5.6-6.6-8.6-9.8c0-2,0-4,0-6c1-1,1.9-1.9,3-3c0-0.9,0-2.1,0-3.2c2.5-0.3,4-2.9,6.8-2.1c-0.6-3.8-4.5-5-5.3-8.4
			c-6.9,3.8-14,6.5-20.7,9.7c-3.1-3.8-5.4-7.7-8.7-10.8c0-2.9,0-5.9,0-9.4c10.7-4.9,21.6-9.8,32.7-14.9c3.7,3.5,7,7.9,10.2,12.2
			c0.4,0.5,1.1,0.8,1,1.6c-0.3,3.1,1.8,5,3.6,7c1.2,1.3,2,2.9,3.2,4.1c1.3,1.3,1.1,2.6,1.1,4.3C761.5,722.1,762.2,725.5,765,727.3z"
			/>
		<path d="M713.7,763.2c-5.9-5.7-10.6-12.2-16-18.1c-2.2,1.1-4.3,2.6-7.1,3.1c-4.8-5.6-8.9-11.8-13.6-17.8c0.2-4.5-0.7-9.3,1.3-14.1
			c4.2-2.3,9.3-3.4,13.5-6.3c1.4,0.4,2.4,1.9,4,0.9c2.1,4.3,6.8,6.9,5,12.3c2.4,2.3,4.2,4.9,5.7,7.8c3,0.7,4.9-3.2,8.3-1.7
			c2.2,2.4,5.7,4.5,5.2,9.3c1,0.8,2.2,1.7,3,2.4c0,1.1,0,1.6,0,2.2c1.1,2.5,4.2,3.5,5.1,6.3c0.6,2,1.1,4,0.9,6.1
			C724,758,719,760.5,713.7,763.2z"/>
		<path d="M704.9,763.6c0,1.7,0,4.4,0,6.8c-4.7,2.6-9.3,5.1-14.1,7.8c-0.8-1.3-1.7-2.5-2.5-3.7c-2.1,0-4.2,1.5-5.3-1.9
			c-0.5-2.5-1.6-6.2-0.8-10.6c4.6-2.3,9.6-4.8,14-7.1C699.1,757.8,701.7,760.4,704.9,763.6z"/>
	</g>
</g>
</svg>
