<?xml version="1.0" encoding="utf-8"?>
<!-- Generator: Adobe Illustrator 17.1.0, SVG Export Plug-In . SVG Version: 6.00 Build 0)  -->
<!DOCTYPE svg PUBLIC "-//W3C//DTD SVG 1.1//EN" "http://www.w3.org/Graphics/SVG/1.1/DTD/svg11.dtd">
<svg version="1.1" id="Layer_1" xmlns="http://www.w3.org/2000/svg" xmlns:xlink="http://www.w3.org/1999/xlink" x="0px" y="0px"
	 viewBox="0 0 1440 937" enable-background="new 0 0 1440 937" xml:space="preserve">
<g>
	<g>
		<path d="M891.6,224.1c-2.2-2.2-4.3-4.3-6.6-6.6c0-2.6,0-5.4,0-8c-1.7-2-2.2,1.1-3.6,0.4c-1.2-0.5-2.1,1.5-4.3,0.7
			c-0.3-0.5-1-1.7-1.6-2.8c-0.2,0.2-0.4,0.4-0.6,0.6c0-0.7,0-1.3,0-2c-2.4-2.2-4.2-5-7.8-5.7c0-0.7,0-1.5,0-2.1
			c-1.7-2.2-5.7-2.2-5.1-6.1c-1.6-1.5-3.1-3-4.7-4.6c-0.5,0-1.2,0-1.9,0c-0.4-1.5-1.9-2.6-1.2-4.7c-2.3-0.3-4.9-0.5-4.1-3.7
			c-1.2-1.2-2.2-2.2-3.4-3.4c-1.3-0.2-2.9-0.2-3.7-1.8c0-0.6,0-1.3,0-1.9c-2-2-4-4-6-6c0-4,0-8,0-12.1c5.5-4.8,12.7-6.3,18.7-9.7
			c2.6,1.3,3.5,4.1,6,4.5c1,2.9,1.7,5.9,1.2,9.1c2.9,2.9,5.7,5.9,8.8,8.7c5.7,5.3,10,11.8,15.8,16.7c2.6-1.9,6-2.3,9.3-3.6
			c2.2,2.6,4.7,5.5,7.4,8.6c0,3.2,0,6.6,0,10.1c8.6-3.3,16.9-6.5,25.7-9.8c11.1,12.2,23.5,23.8,34,36.6c0,3.6,0,6.8,0,9.6
			c-1.2,2.2-5,0.7-4.9,4c-2.7,1.2-5.5,1.8-8.4,1.4c-1.6,1.4-2.8,3.3-5,3.9c-3.6-0.2-6.9,0.5-9.5,3.5c-1.3,1.5-3.5,1.7-7.7,1.5
			c-1.1-3-4-4.5-6.2-7.4c0,3.8,0,6.9,0,10.3c-4.7,1.8-9.2,3.7-13.8,5.4c-4.6,1.7-8.8,4.5-14,5c-1.7-3.6-4.8-5.9-7.3-8.6
			c0-2.3,0.1-4.7,0-7c-0.2-2.2,1.9-3.8,0.9-6c4.2-1.7,8.2-3.2,12.1-4.8c0.3-1.6-1.4-2.3-1.1-3.8c0.2-0.8-0.8-1.7-1.9-1.8
			C893.1,230.5,892.7,227.4,891.6,224.1z M923.1,228.6c3.7-1.5,6.9-2.7,10.5-4.2c-2.1-2.5-3.7-4.7-6.7-4.6c-1-1.8-1.9-3.4-2.8-5.2
			c-2.1,1.7-3.4,3.9-5.9,4.2c-0.6-0.6-1.2-1.3-2.2-0.2c0.2,1.6,1.4,2.9,2,4.4c-2,3.1-0.4,6.7-1.2,9.8c-0.6,0.6-1.9-0.1-1.9,0.7
			c2.2,2.2,4.1,4.1,5.9,5.9c0-2.2,0-5,0-7.4C921.6,230.5,923.2,230.1,923.1,228.6z"/>
		<path d="M858.9,210c-1.5-0.1-2.7-0.2-3.4,1c-0.9,1.5-2.6,1.9-3.9,2.7c-0.8,0.5-2.3,0.7-2.8-0.6c-3.2,0.5-4.2,4-7.1,4.8
			c-1.6,0-3.3,0-5.1,0c-0.8,0.9-1.7,1.9-2.2,2.6c-3.1,0.9-5.6,1.9-8.5,1.3c-1.8,1.3-2.8,3.6-5.5,3.8c-2.4,0.3-5,0-7.4,1.6
			c-2.9-2.8-4.6-6.6-7.9-8.7c0.5-5-0.9-9.9,1.4-14.9c-1.5-1-2.1-2.5-4.3-2.9c-2.6-0.4-3.2-3.2-4.4-5.7c-0.6-0.6-1.8,0.1-3.1-0.1
			c-0.9-1.1-2.5-1.8-2.7-3.7c-0.1-1.3-0.7-2.7-1.9-3.7c0-2.1,0-4.3,0-6.5c0-4,1.3-6.1,5-6.9c2.6-0.6,4.4-2.2,6.7-3.1
			c1.7-0.2,1.9,2,3.6,2.2c0.7,0.1,1,2.2,2.4,3c8.3-2.4,15.7-7.5,24.8-9.5c3,6.2,9.3,9.5,12.9,15.3c1,1.7,2.6,3.4,4.7,4.1
			c1.8,0.6,1.5,2.7,2.9,3.7c5.4,3.7,6.6,9,5.9,15.1C858.8,206.5,858.9,208.3,858.9,210z"/>
	</g>
</g>
</svg>
