<?xml version="1.0" encoding="utf-8"?>
<!-- Generator: Adobe Illustrator 17.1.0, SVG Export Plug-In . SVG Version: 6.00 Build 0)  -->
<!DOCTYPE svg PUBLIC "-//W3C//DTD SVG 1.1//EN" "http://www.w3.org/Graphics/SVG/1.1/DTD/svg11.dtd">
<svg version="1.1" id="Layer_1" xmlns="http://www.w3.org/2000/svg" xmlns:xlink="http://www.w3.org/1999/xlink" x="0px" y="0px"
	 viewBox="0 0 1440 937" enable-background="new 0 0 1440 937" xml:space="preserve">
<g>
	<g>
		<path d="M526.3,561.7c-3.5,2.2-7.3,1.6-9.1,4.9c0.9,1.6,2.1,3.2,2.7,5c0.3,0.8,0.6,1.5,1.2,2c4,3,4.6,7.8,5.8,12.1
			c1.2,4.4,2.7,8.9,2.1,13.6c0,0.3,0.5,0.8,1,1.3c-0.6,0.4-1.2,0.9-1.8,1.3c0,1.7,0,3.1,0,4.7c-3.4,0.6-6.5,1.7-10.6,1.7
			c-7.4-12.3-15.4-25.5-23.5-39c-0.4-3.2,0.7-6.8-1.4-10.3c1.2-1.4,2.2-2.6,4.1-3.3c2.7-1,5.5-2.2,7.8-3.9c1.7-1.3,2.8-0.5,4.3,0.1
			c0-1.9,0-3.7,0-5.8c-2.4,0.6-4.4-1.2-6.8-1c-2.5,0.1-5-0.2-7.5,0.1c-1.7,0.2-2.6-1.2-4.1-1.1c0.1-1.4-1-2.7-1.6-3.3
			c-2.9-2.8-3-6.2-2.9-9.9c0-1.9,0.4-3.8-0.9-5.7c-0.6-0.9-0.1-2.5-0.1-3.6c1.5-2,3.9-1.9,5.5-3.5c4.2,0,8.5,0,13.2,0
			c0.4,0.5,1,1.3,1.5,2c1-0.5,0.7-1.3,0.9-1.7c3.8,1.1,7.9-0.3,11.5,0.8c3.7,1.1,7.4,0.4,11.1,1c0.6,0.7,1.4,1.2,1.4,2.4
			c-0.1,5.2-0.1,10.3,0,15.5c0,1.7-1.5,2.8-1.1,4.6c0.3,1.4,0.4,3-0.9,4.1c0.7,3-1.3,5.7-1,8.6C527.3,557.6,524.8,559.3,526.3,561.7
			z"/>
		<path d="M571.2,642.5c1.3,2.2,3,1.3,4.5,1.6c0.7,1.3,0.2,2.8,0.3,4.2c0.3,2.5-0.3,5,0.8,7.6c0.7,1.6,0.8,4-0.2,5.8
			c-0.6,1-0.6,1.8-0.6,2.8c0.1,2-0.1,3.8-1.7,5.4c-7.3-1.7-15-0.4-22.8-0.9c-3.2-2.2-4.4-6-6.5-9.1c-3.5-5.2-7-10.4-10.3-15.7
			c-0.9-1.4-1.8-2.9-1.7-4.8c0.2-4,0.1-8,0.1-11.8c6.8-1.7,13.4-3.4,20.1-5.1c6.5-1.6,13-3.1,19.5-4.7
			C573.5,627.7,572.9,638.4,571.2,642.5z"/>
	</g>
</g>
</svg>
