<?xml version="1.0" encoding="utf-8"?>
<!-- Generator: Adobe Illustrator 17.1.0, SVG Export Plug-In . SVG Version: 6.00 Build 0)  -->
<!DOCTYPE svg PUBLIC "-//W3C//DTD SVG 1.1//EN" "http://www.w3.org/Graphics/SVG/1.1/DTD/svg11.dtd">
<svg version="1.1" id="Layer_1" xmlns="http://www.w3.org/2000/svg" xmlns:xlink="http://www.w3.org/1999/xlink" x="0px" y="0px"
	 viewBox="0 0 1440 937" enable-background="new 0 0 1440 937" xml:space="preserve">
<g>
	<g>
		<path d="M911.4,363.9c-5.8-6.1-8.3-14.1-12.3-21.7c-0.3-8.9-0.2-9.5,2.3-13.2c1.9-0.2,4,0.1,6-0.9c2-1,4,0.9,6.3,1.1
			c1.3,1.3,2.8,2.8,4.3,4.4c0,0.6,0,1.3,0,1.9c1,1,1.9,1.9,2.9,2.9c0,0.9,0,1.9,0,3.2c3,0.7,2.3,5.9,6.5,5.4c0.2,1.6,2,1.7,2.5,2.8
			c1.4,2.9,4.6,5,4.1,8.8c1.4,0.9,1.7,2.7,2.9,4c-0.3,3.8,0.9,8-1.9,12.4c-2.7,1.6-6.8,2.9-10.3,5.4c1.4,1.1,2.5,0.9,3.5-0.3
			c0.7,0.2,1.1,1.3,2.1,0.9c0.3-0.3,0.7-0.6,1.1-1c1.6,1.9,3.7,0.8,5.6,0.9c1.9,0.1,3.4,2.3,5.2,0.9c2.5,2.6,5.2,4.6,6.3,7.9
			c1.1,2.5-0.8,4.8-0.7,7.4c0.1,2.5,0,5,0,7.5c-1.9,1.2-4.2,1.6-5.4,3.4c-4.7,0.4-9.1,0.1-13.6-2c-3.6,3-6.8,0.3-9.8-1.4
			c-1.3-0.7-2.8-1.5-4-2.6c-2.7,1.4-5.5,2.7-8.2,4.1c-1-0.1-1.3-1.1-1.8-1.4c-0.9-3.7,1.2-7,0.9-10.7c-0.3-3.5-0.7-7.2,0.1-10.4
			c1-3.9,0.8-7.8,0.7-11.6c0-2.3,1.8-4.2,1-6.3C908.9,364.4,910.1,365.6,911.4,363.9z"/>
		<path d="M852.8,272c6.9,0,13.2,0.1,19.5-0.1c1.6,0,2.7,1,4.1,1.2c1.4,3.7,6.7,5.4,5.5,10.4c4.4,4,7.1,9,10.9,12.9
			c0,4,0,7.7,0,11.7c-2.4-0.8-4.6-1.5-6.9-2.3c-2.5,2.9-6.8,3-8.8,7.4c0,0.4,0.1,1.8-1.2,2.5c-4.4,1-8.8,1.3-13,0.1
			c-1.7,1.5-3.3,2.9-5.8,3.4c0.5-5.2-0.9-10.1,0.8-15.2c0.8-2.4,0.1-5.2,0.1-8c-2.1,0-3.9,0-6,0c0-4.1,0.3-8.1-0.1-12
			C851.5,280,853.7,276.4,852.8,272z"/>
	</g>
</g>
</svg>
