<?xml version="1.0" encoding="utf-8"?>
<!-- Generator: Adobe Illustrator 17.1.0, SVG Export Plug-In . SVG Version: 6.00 Build 0)  -->
<!DOCTYPE svg PUBLIC "-//W3C//DTD SVG 1.1//EN" "http://www.w3.org/Graphics/SVG/1.1/DTD/svg11.dtd">
<svg version="1.1" id="Layer_1" xmlns="http://www.w3.org/2000/svg" xmlns:xlink="http://www.w3.org/1999/xlink" x="0px" y="0px"
	 viewBox="0 0 1440 937" enable-background="new 0 0 1440 937" xml:space="preserve">
<g>
	<g>
		<path d="M880,370.3c-1.5-1-0.6-2.2-1.4-3.4c-3.3,0.6-6.6-1.7-10.2-1c-7.9-2.1-16-0.4-24.4-1.2c0.3-4.6,0.2-9.2,0.8-13.9
			c0.5-4.4,1.5-9,1.3-13.8c5.5-1.1,11-2.3,16.5-3.4c2.4,4.2,5.3,7.6,7.7,11.6c2.2,3.7,4.9,7.4,7.6,10.9c1.6,2,2.4,4,2.3,6.6
			C879.9,365.2,880,367.6,880,370.3z"/>
		<path d="M878.5,377c-0.6-1.7-0.6-3.3,0-5C879.1,373.7,879.1,375.3,878.5,377z"/>
	</g>
</g>
</svg>
