<?xml version="1.0" encoding="utf-8"?>
<!-- Generator: Adobe Illustrator 17.1.0, SVG Export Plug-In . SVG Version: 6.00 Build 0)  -->
<!DOCTYPE svg PUBLIC "-//W3C//DTD SVG 1.1//EN" "http://www.w3.org/Graphics/SVG/1.1/DTD/svg11.dtd">
<svg version="1.1" id="Layer_1" xmlns="http://www.w3.org/2000/svg" xmlns:xlink="http://www.w3.org/1999/xlink" x="0px" y="0px"
	 viewBox="0 0 1440 937" enable-background="new 0 0 1440 937" xml:space="preserve">
<g>
	<g>
		<path d="M861.1,544.9c2.6,0.5,5.1-0.6,7.7,1c1.2,0.7,3.3,0.2,4.9,0.1c6.6-0.6,13,1.7,19.5,1c1.6-0.2,2.5,1.3,3.8,1.5
			c2.7,3.6,3.5,8,5.7,11.7c0.5,0.8,0.5,1.7,0.2,2.4c-1.8,4.3-0.4,8.7-1.1,13.1c-4.8,1.5-9.7,3-14.6,4.5c-4,1.2-8,2.5-11.9,3.8
			c-3.9,1.4-7.9,2.6-11.9,3.8c-1.6,0.5-3.5,0.1-5.6,0.1c0-4.1-0.6-8.2,0.2-12c0.7-3.7,0.2-7.5,1-11.1c0.7-3.4,0.2-6.9,1-10.1
			C861,551.6,860.8,548.4,861.1,544.9z"/>
	</g>
</g>
</svg>
