<?xml version="1.0" encoding="utf-8"?>
<!-- Generator: Adobe Illustrator 17.1.0, SVG Export Plug-In . SVG Version: 6.00 Build 0)  -->
<!DOCTYPE svg PUBLIC "-//W3C//DTD SVG 1.1//EN" "http://www.w3.org/Graphics/SVG/1.1/DTD/svg11.dtd">
<svg version="1.1" id="Layer_1" xmlns="http://www.w3.org/2000/svg" xmlns:xlink="http://www.w3.org/1999/xlink" x="0px" y="0px"
	 viewBox="0 0 1440 937" enable-background="new 0 0 1440 937" xml:space="preserve">
<g>
	<g>
		<path d="M836.8,420c2.1,0,3.5,0.1,4.8,0c7.4-0.6,14.6,1.8,21.9,0.9c0.6,0.6,1.1,1.1,1.6,1.6c0,3.1-0.1,6.3,0,9.4
			c0.1,2.6-1.5,4.9-1.1,7.6c0.3,2.6,0.6,5.5-0.1,7.9c-0.9,3.2-0.7,6.4-0.9,9.6c-0.1,2.2-1.6,4.2-0.8,6.9c-3.5,0-6.8,0-10.2,0
			c0,1.5,0,2.6,0,4.1c-4.3-0.4-8.5,0.5-12.9-0.6c-0.2,1.5,0.1,3.7-1.5,5.5c-1.4,0-2.8,0-4.4,0C831.9,455.1,834.9,437.8,836.8,420z"
			/>
	</g>
</g>
</svg>
