<?xml version="1.0" encoding="utf-8"?>
<!-- Generator: Adobe Illustrator 17.1.0, SVG Export Plug-In . SVG Version: 6.00 Build 0)  -->
<!DOCTYPE svg PUBLIC "-//W3C//DTD SVG 1.1//EN" "http://www.w3.org/Graphics/SVG/1.1/DTD/svg11.dtd">
<svg version="1.1" id="Layer_1" xmlns="http://www.w3.org/2000/svg" xmlns:xlink="http://www.w3.org/1999/xlink" x="0px" y="0px"
	 viewBox="0 0 1440 937" enable-background="new 0 0 1440 937" xml:space="preserve">
<g>
	<g>
		<path d="M605,496.5c-1.2,0.4-0.7,1.8-1.5,2.4c-0.1-0.1-0.3-0.2-0.3-0.3c0-5.1,0-10.2,0-15c-0.7-0.7-1-1-1.7-1.7
			c-3.6,0.8-7.3-0.8-11.1-1.2c-5-0.5-10-1.6-15.3-2c-0.2-4,1.4-7.7,1.9-11.5c0.5-3.9,1.4-7.8,1.9-11.7c0.5-3.9,1.3-7.7,2.3-11.6
			c2.9,0,5.6-0.5,8.2,0.1c5,1.1,10,0.9,15.1,0.9c1.5,0,2.4,1.8,4.1,1c1,1,0.4,2.2,0.5,3.3c0.1,4.5-0.4,9,1.2,13.5
			c-1.2,0.1-2,0.2-2.8,0.3c-0.1,0.3-0.4,0.6-0.4,0.8c0.7,4.3-1.3,8.3-1.1,12.6c0.2,4.1-0.1,8.3,0.1,12.5c0.1,1.4-1.3,2.2-1.1,3.6
			C605.1,493.9,605,495.2,605,496.5z"/>
	</g>
</g>
</svg>
