<?xml version="1.0" encoding="utf-8"?>
<!-- Generator: Adobe Illustrator 17.1.0, SVG Export Plug-In . SVG Version: 6.00 Build 0)  -->
<!DOCTYPE svg PUBLIC "-//W3C//DTD SVG 1.1//EN" "http://www.w3.org/Graphics/SVG/1.1/DTD/svg11.dtd">
<svg version="1.1" id="Layer_1" xmlns="http://www.w3.org/2000/svg" xmlns:xlink="http://www.w3.org/1999/xlink" x="0px" y="0px"
	 viewBox="0 0 1440 937" enable-background="new 0 0 1440 937" xml:space="preserve">
<g>
	<g>
		<path d="M725.6,392c-2.5,0-4.8,0-7.2,0c-0.9-1.7-0.6-3.4,0.8-5.2c-2-1.7-3.3-4-4.7-5.9c-1.6,0-1.8,1-2.6,1.5
			c0.3,0.4,0.6,0.7,0.9,1c-2.6,1.4-2.6,1.4-3.4,4.5c-0.3,0-0.7,0-1.3,0.1c-0.5-2.2-0.2-4.5-0.2-6.7c-0.1-2.1,0-4.2,0-6.8
			c-1.6,1.6-0.5,3.1-1.3,4.4c-3.8,0.3-7.5,0.4-11.2-1.7c-2.4,2.8-1.2,6.3-1.6,9.5c-4.9,1.6-9.6-1.2-14.6-0.6
			c-1.3-12.1,0.9-23.8,2.9-36c3,0.3,6.1-0.9,9.3,0.8c1,0.6,2.6,0.2,3.9,0.1c8.4-0.5,16.7,1.7,25.1,1c2.2,1.3,4.7,1,7,1
			c0.6,0.6,1,1,1.3,1.3C729.8,367.2,728.1,379.6,725.6,392z"/>
	</g>
</g>
</svg>
