<?xml version="1.0" encoding="utf-8"?>
<!-- Generator: Adobe Illustrator 17.1.0, SVG Export Plug-In . SVG Version: 6.00 Build 0)  -->
<!DOCTYPE svg PUBLIC "-//W3C//DTD SVG 1.1//EN" "http://www.w3.org/Graphics/SVG/1.1/DTD/svg11.dtd">
<svg version="1.1" id="Layer_1" xmlns="http://www.w3.org/2000/svg" xmlns:xlink="http://www.w3.org/1999/xlink" x="0px" y="0px"
	 viewBox="0 0 1440 937" enable-background="new 0 0 1440 937" xml:space="preserve">
<g>
	<g>
		<path d="M762.9,532.8c2.5,1.2,2.6,3.5,1.9,4.5c-1.1,1.6-0.9,3.2-0.8,4.7c0.2,2.1-1.4,3.6-1.2,5.6c0.2,1.7,0.5,3.5-0.9,5.1
			c-0.5,0.6-0.1,1.9-0.1,2.9c0,4.5-0.2,9,0.1,13.5c0.1,1.1-2,2.1-0.1,3.3c-0.4,0.5-0.9,0.9-1.5,1.5c-3,0-6.3,0.6-9.3-0.1
			c-5.4-1.2-10.8-0.2-16.1-1c-4.2-0.7-8.5-0.2-12.6-1c-3.1-0.6-6.1-0.7-9.6-0.9c0-6.9-0.6-13.9,0.2-20.7c0.7-6.6,1.5-13.2,3.1-20.1
			c3.5,0.3,7.4-1.2,11.1,0.8c0.4,0.2,1,0.1,1.5,0.1c7.9-0.6,15.7,1.6,23.6,1C756.2,531.8,759.7,534.1,762.9,532.8z"/>
	</g>
</g>
</svg>
