<?xml version="1.0" encoding="utf-8"?>
<!-- Generator: Adobe Illustrator 17.1.0, SVG Export Plug-In . SVG Version: 6.00 Build 0)  -->
<!DOCTYPE svg PUBLIC "-//W3C//DTD SVG 1.1//EN" "http://www.w3.org/Graphics/SVG/1.1/DTD/svg11.dtd">
<svg version="1.1" id="Layer_1" xmlns="http://www.w3.org/2000/svg" xmlns:xlink="http://www.w3.org/1999/xlink" x="0px" y="0px"
	 viewBox="0 0 1440 937" enable-background="new 0 0 1440 937" xml:space="preserve">
<g>
	<g>
		<path d="M938.3,573.9c2.8,0,4.8,1.6,5.7,2.6c3.3,8.1,3.1,15.5,2.9,23.1c-0.7,0.7-1.6,1.5-2.5,2.4c-2.4,0-4.9,0.1-6,3
			c-2,0.3-3.5-1.4-5.6-1c-1.8,0.3-3.5,1.9-5.3,1c-4.5-7.3-6-15.7-11.3-22.7c-3.1-1.2-3.7-4.4-4.2-7.4c-0.3-1.8,0-3.7,0.7-5.6
			c0.8-2.4,0.2-5.2,0.2-7.8c2.6-0.5,4.8-2.3,7.8-1c0.7,1,0.9,2.9,2.2,4.1c3.8-0.3,7.5-1.9,11.7-1.5C937.1,566,936.8,570,938.3,573.9
			z"/>
	</g>
</g>
</svg>
