<?xml version="1.0" encoding="utf-8"?>
<!-- Generator: Adobe Illustrator 17.1.0, SVG Export Plug-In . SVG Version: 6.00 Build 0)  -->
<!DOCTYPE svg PUBLIC "-//W3C//DTD SVG 1.1//EN" "http://www.w3.org/Graphics/SVG/1.1/DTD/svg11.dtd">
<svg version="1.1" id="Layer_1" xmlns="http://www.w3.org/2000/svg" xmlns:xlink="http://www.w3.org/1999/xlink" x="0px" y="0px"
	 viewBox="0 0 1440 937" enable-background="new 0 0 1440 937" xml:space="preserve">
<g>
	<g>
		<path d="M867.3,341c-1.7-2.6-3.1-4.8-4.6-7.1c-2.9,0.5-5.6,2-8.5,0.8c0.4-2.3,2.7-1.2,3.9-2.1c-1.6-1.8-1.9-3.9-2.1-6.2
			c-0.2-2.2,0.8-4.1,1.4-6c0.7-2.2,3.7-2.4,5.2-4.4c1.2,0,3.2-0.5,3.8,0.1c1.5,1.7,4.1-0.1,5.2,1.7c2-1,4.5-1.1,5.6-3.7
			c0-0.7,0-1.7,0-2.7c3.2-1.6,5.8-4.2,9.5-5.6c2.6,2,7.4,0.1,8.7,4.9c1.4,0.3,2.2,0.6,3.4,1.4c0.1,0.1,0.3,0.2,0.3,0.4
			c0.1,6.7,1.9,13.3,0.8,20.3c-1.2,1.6-3.4,1.4-5.3,2.1c-1.3,0.5-3-0.5-4.1,1.1c-5.5,0.3-10.9,1.6-16.3,3c-0.8,0.2-1.7,0-2.5,0
			C869.7,340.7,869.7,340.7,867.3,341z"/>
	</g>
</g>
</svg>
