<?xml version="1.0" encoding="utf-8"?>
<!-- Generator: Adobe Illustrator 17.1.0, SVG Export Plug-In . SVG Version: 6.00 Build 0)  -->
<!DOCTYPE svg PUBLIC "-//W3C//DTD SVG 1.1//EN" "http://www.w3.org/Graphics/SVG/1.1/DTD/svg11.dtd">
<svg version="1.1" id="Layer_1" xmlns="http://www.w3.org/2000/svg" xmlns:xlink="http://www.w3.org/1999/xlink" x="0px" y="0px"
	 viewBox="0 0 1440 937" enable-background="new 0 0 1440 937" xml:space="preserve">
<g>
	<g>
		<path d="M625.3,386.2c-2.7-4.5-5.1-8.4-4.3-13.4c0.3-1.8-0.2-3.7,0.1-5.5c0.3-2.1-0.9-3.5-1.4-5.4c-1.2,0.9-0.3,2.1-0.8,2.9
			c-0.9,0.2-1-0.7-1.7-1c0-1.4,0-2.8,0-4.3c-0.2,0.2-0.5,0.3-0.7,0.5c-0.7-1.1-1.5-2.1-2.1-3c-1.3,0-1.6,1-2.4,1.5
			c0,1.3,0,2.8,0,4.2c-0.8,0.3-0.9-0.4-1.5-0.6c-2.3,5.3-2.6,10.9-2.3,16.8c-4.3,0-8.4,0-12.7,0c-0.3-0.3-0.8-0.8-1.1-1.1
			c-1.1-11.5,1.1-22.4,4-33.7c3.3,0,6.7-0.7,9.8,0.2c3.1,0.9,6.1,1,9.1,0.7c3.3-0.3,6.3,1.4,9.5,1.1c0.8-0.9,2.1-1.4,1.3-3.2
			c3.2,0.6,6.1-0.7,8.7,1c0.8-0.6,0.6-2,1.9-2.7c2.2,0,4.6,0,7.2,0c5.8,3.9,5.8,3.9,10.9,3.9c0.5,0.6,1.1,1.4,1.6,2
			c4,0,7.8-0.7,11.3,0.2c3.8,0.9,7.4,0.5,11.1,0.9c0.5,0.5,0.9,0.9,1.5,1.5c-0.5,2.1,0.6,4.4-0.7,6.6c-1.2,1.9,0.7,4.6-1.3,6.4
			c-0.4,6.9-1.5,13.7-1,20.6c0,0.4,0.5,0.8,1,1.5c-0.4,0.2-1,0.5-2.4,1.2c-2-0.4-5.2,1-8.4-0.8c-1.3-0.7-3.3-0.3-4.9-0.1
			c-5.9,0.7-11.7-1.7-17.7-1c-0.9,1.5-1.5,3-4.1,3C636.8,387.2,631.2,385.1,625.3,386.2z"/>
	</g>
</g>
</svg>
