<?xml version="1.0" encoding="utf-8"?>
<!-- Generator: Adobe Illustrator 17.1.0, SVG Export Plug-In . SVG Version: 6.00 Build 0)  -->
<!DOCTYPE svg PUBLIC "-//W3C//DTD SVG 1.1//EN" "http://www.w3.org/Graphics/SVG/1.1/DTD/svg11.dtd">
<svg version="1.1" id="Layer_1" xmlns="http://www.w3.org/2000/svg" xmlns:xlink="http://www.w3.org/1999/xlink" x="0px" y="0px"
	 viewBox="0 0 1440 937" enable-background="new 0 0 1440 937" xml:space="preserve">
<g>
	<g>
		<path d="M869.1,441.9c-1.9,0-3.4,0-5.2,0c0.5-4.1-0.5-8,1-12.1c0.8-2.2,0.1-4.9,0.1-7.3c-0.5-0.5-0.8-0.8-1.5-1.5
			c-0.4-0.3-1.3-0.1-2,0c-7.7,0.6-15.3-2-21.6-1.1c-1.7-0.9-2.4-1.3-2.8-1.5c-0.2-1.2,0.6-1.4,0.9-2c-1-0.6-1.4-1.8-0.9-2.5
			c1.3-2,1-4.1,0.9-6.1c-0.3-5.9,1.8-11.7,1-17.6c1.5-2.4,0.9-5,1-7.9c0.6-0.5,1.4-1,2-1.5c-0.5-5.2,2.2-9.7,0.7-14.2
			c0.8-0.8,1.3-1.3,1.8-1.8c5.8,0,11.6,0,17.4,0c5.6,0,11.1,1.5,17.1,2.2c-0.3,2.9,0.2,5.8-0.9,8.9c-0.8,2.4-0.2,5.3-0.2,7.9
			c0.1,4.7-1.7,9.3-1,14.1c-1.5,1.6-0.8,3.7-1,5.5c-0.8,1-2,0-3,1c0,0.6,0,1.4,0,2.2c0.1,4-0.2,7.9-1.8,11.7c-0.9,2.1,0.3,4.8-1.2,7
			C870.8,430.9,868.3,436.1,869.1,441.9z"/>
	</g>
</g>
</svg>
