<?xml version="1.0" encoding="utf-8"?>
<!-- Generator: Adobe Illustrator 17.1.0, SVG Export Plug-In . SVG Version: 6.00 Build 0)  -->
<!DOCTYPE svg PUBLIC "-//W3C//DTD SVG 1.1//EN" "http://www.w3.org/Graphics/SVG/1.1/DTD/svg11.dtd">
<svg version="1.1" id="Layer_1" xmlns="http://www.w3.org/2000/svg" xmlns:xlink="http://www.w3.org/1999/xlink" x="0px" y="0px"
	 viewBox="0 0 1440 937" enable-background="new 0 0 1440 937" xml:space="preserve">
<g>
	<g>
		<path d="M763.5,617c-2.1-1.2-2-3.5-1.4-4.9c1.3-2.9,0.7-5.8,0.9-8.6c0.1-2,0-4,0-5.9c0.5-0.5,1-1,1.5-1.5
			c3.6,0.2,7.4-0.4,11.5,0.6c0.6-0.6-0.6-2.7,1.5-3.3c7.5-0.8,8-0.8,12.5,1.1c0.1,1.1,0.1,2.2,0.2,3.3c0.3,0.1,0.6,0.4,0.9,0.4
			c2.8,0,5.7,0.1,8.5,0c1.2-0.1,1.7,0.8,2.6,1.6c0,3,0,6.1,0,9.6c3.8-0.9,7,1.2,11,0.9c-0.3,3.4,0.8,6.8-1.6,10c-3-0.6-6.3,1-9.3-1
			c-0.1-0.1-0.3-0.1-0.5,0c-2.1,0.9-4,0.8-6.2,0.1c-2.1-0.6-4.6-0.3-6.9-0.1c-5.8,0.6-11.3-1.5-17.1-1
			C768.9,616.5,766.1,617.2,763.5,617z"/>
	</g>
</g>
</svg>
