<?xml version="1.0" encoding="utf-8"?>
<!-- Generator: Adobe Illustrator 17.1.0, SVG Export Plug-In . SVG Version: 6.00 Build 0)  -->
<!DOCTYPE svg PUBLIC "-//W3C//DTD SVG 1.1//EN" "http://www.w3.org/Graphics/SVG/1.1/DTD/svg11.dtd">
<svg version="1.1" id="Layer_1" xmlns="http://www.w3.org/2000/svg" xmlns:xlink="http://www.w3.org/1999/xlink" x="0px" y="0px"
	 viewBox="0 0 1440 937" enable-background="new 0 0 1440 937" xml:space="preserve">
<g>
	<g>
		<path d="M515.8,495.8c1.4-1.3,2.7-3.4,2.2-6.3c2.6-2.1,5.4-3.8,8.7-5.2c2.6,2.3,6.3,3.8,8.4,7.3c0,2.3,0.4,4.7-0.1,6.9
			c-1.2,6.6-1.2,13.5-3.7,19.9c-0.5,1.3-0.3,2.9-0.4,4.3c-1.4-0.3-2.3-0.9-1.8-2.6c-5.5-0.2-10.7,0.5-16.1-1.5
			c0.4-1.5-0.4-3.2,0.8-5.2c0.8-1.4,0.5-3.6,1-5.5c0.5-1.7-1.9-3.7-0.6-5.4C515.7,500.5,514.3,498.5,515.8,495.8z"/>
	</g>
</g>
</svg>
