<?xml version="1.0" encoding="utf-8"?>
<!-- Generator: Adobe Illustrator 17.1.0, SVG Export Plug-In . SVG Version: 6.00 Build 0)  -->
<!DOCTYPE svg PUBLIC "-//W3C//DTD SVG 1.1//EN" "http://www.w3.org/Graphics/SVG/1.1/DTD/svg11.dtd">
<svg version="1.1" id="Layer_1" xmlns="http://www.w3.org/2000/svg" xmlns:xlink="http://www.w3.org/1999/xlink" x="0px" y="0px"
	 viewBox="0 0 1440 937" enable-background="new 0 0 1440 937" xml:space="preserve">
<g>
	<g>
		<path d="M680.8,343c-4.8,0-9.3-0.2-13.7,0.1c-2.4,0.2-4.3-1.2-6.6-1.1c-2.2,0.1-4.6,0.7-6.4-0.1c-2.6-1.2-5.1-0.5-7.6-0.9
			c-1-0.7,0-1.9-0.7-2.7c-0.3-0.4-0.7-0.7-1.2-1.2c-2.6,0-5.4,0-7.8,0c-0.8-0.7-1.3-1.1-1.6-1.4c-0.7-1.7,0.7-2.6,0.9-3.8
			c0.2-1.1,0-2.3,0-3.2c1.1-2,3.4-2.2,4.4-1.5c1.8,1.3,3.5,0.5,5.4,0.9c0-1.9,0-3.7,0-5.3c0.7-0.8,1.3-1.3,1.9-1.9
			c3.1,2.1,6.4,0.7,10,1.2c0.2-1.8,1.6-2.9,3-4.2c2.2,0.5,4.8-0.9,6.9,1.1c3-0.4,3.6,1.5,3.5,4.1c4.1-0.5,7.9,0.3,11.8,1.3
			C683.7,330.7,682.1,336.8,680.8,343z"/>
	</g>
</g>
</svg>
