<?xml version="1.0" encoding="utf-8"?>
<!-- Generator: Adobe Illustrator 17.1.0, SVG Export Plug-In . SVG Version: 6.00 Build 0)  -->
<!DOCTYPE svg PUBLIC "-//W3C//DTD SVG 1.1//EN" "http://www.w3.org/Graphics/SVG/1.1/DTD/svg11.dtd">
<svg version="1.1" id="Layer_1" xmlns="http://www.w3.org/2000/svg" xmlns:xlink="http://www.w3.org/1999/xlink" x="0px" y="0px"
	 viewBox="0 0 1440 937" enable-background="new 0 0 1440 937" xml:space="preserve">
<g>
	<g>
		<path d="M919.9,440.8c-1.8,0-3.3,0-4.8,0c-0.6-2.7,2.2-5,0.2-8c0.1,0.1-0.3-0.3-0.8-0.8c-2.9,0-6.1,0-9.5,0c0-4.6,0.1-9.1,0-13.5
			c-0.1-4.2,2.6-7.9,2-12.2c3.2-1.5,5.4-4.8,9.8-4.2c0.7,0.9,1.6,2,2.3,2.9c1.6,0.1,2.9-0.4,3.9,1.1c0,2.5,0.5,5.1-0.1,7.3
			c-0.6,2.2-0.8,4.4-0.9,6.6c0,2.5-0.1,5,0,7.5c0.1,2.3-1.6,4.2-1.1,6.6C921.5,436.5,919.3,438.6,919.9,440.8z"/>
	</g>
</g>
</svg>
