<?xml version="1.0" encoding="utf-8"?>
<!-- Generator: Adobe Illustrator 17.1.0, SVG Export Plug-In . SVG Version: 6.00 Build 0)  -->
<!DOCTYPE svg PUBLIC "-//W3C//DTD SVG 1.1//EN" "http://www.w3.org/Graphics/SVG/1.1/DTD/svg11.dtd">
<svg version="1.1" id="Layer_1" xmlns="http://www.w3.org/2000/svg" xmlns:xlink="http://www.w3.org/1999/xlink" x="0px" y="0px"
	 viewBox="0 0 1440 937" enable-background="new 0 0 1440 937" xml:space="preserve">
<g>
	<g>
		<path d="M826.3,576c0.8,0,1.4,0,2.2,0c0.6,0.6,1.3,1.3,2,1.9c1.1-1.6,2.7-0.7,3.9-1c1.6,1.2,1.7,3.3,3.5,4.3c0,3.8,0,7.5,0,11.4
			c-2.7,1-5.2-0.2-7.9-0.6c-2.8-0.4-5.6-0.1-8.8-0.1c0-1.7-0.1-3.5-0.1-5.3c0-1.8,0-3.6,0-5.6C823.6,580.3,825,578.2,826.3,576z"/>
	</g>
</g>
</svg>
