<?xml version="1.0" encoding="utf-8"?>
<!-- Generator: Adobe Illustrator 17.1.0, SVG Export Plug-In . SVG Version: 6.00 Build 0)  -->
<!DOCTYPE svg PUBLIC "-//W3C//DTD SVG 1.1//EN" "http://www.w3.org/Graphics/SVG/1.1/DTD/svg11.dtd">
<svg version="1.1" id="Layer_1" xmlns="http://www.w3.org/2000/svg" xmlns:xlink="http://www.w3.org/1999/xlink" x="0px" y="0px"
	 viewBox="0 0 1440 937" enable-background="new 0 0 1440 937" xml:space="preserve">
<g>
	<g>
		<path d="M892.5,402c-1.3,0-2.7,0-4,0c-0.7-0.4-0.4-1.2-0.8-1.9c-1,0-2.1,0-3.3,0c-0.2-1.6-2.1-2.6-1.4-4c1.8-3.9,0.6-8,0.9-12.1
			c0.1-1.2,0-2.3,0-3.4c0.9-1.5,2.2-1.8,3.8-1.6c1.7,0.2,1.8-2.4,4.3-1.8c1.7,1.4,4.4,2.1,6.8,3.2c0.8,6.6-2,12.8-0.8,19
			c-1.5,1.8-2.9,2.7-4.6,0.8C892.6,400.4,893.4,401.6,892.5,402z"/>
	</g>
</g>
</svg>
