<?xml version="1.0" encoding="utf-8"?>
<!-- Generator: Adobe Illustrator 17.1.0, SVG Export Plug-In . SVG Version: 6.00 Build 0)  -->
<!DOCTYPE svg PUBLIC "-//W3C//DTD SVG 1.1//EN" "http://www.w3.org/Graphics/SVG/1.1/DTD/svg11.dtd">
<svg version="1.1" id="Layer_1" xmlns="http://www.w3.org/2000/svg" xmlns:xlink="http://www.w3.org/1999/xlink" x="0px" y="0px"
	 viewBox="0 0 1440 937" enable-background="new 0 0 1440 937" xml:space="preserve">
<g>
	<g>
		<path d="M305,551.9c-2.2-0.2-3.5,1-5.3,1.9c3.5,5.4,5,11.7,8.3,17.1c2.6,4.2,4.2,8.9,6.6,13.3c1.7,3.1,3.2,6.3,2.3,10
			c1.2,1.1,0.9,2.9,2.6,3.6c3.4-1.1,7-2.4,10.9-2.8c0.7,1.4,1.3,2.8,2.1,4.1c2.8,4.5,4.3,9.2,3.3,14.7c-2.2,0.2-4.4,0.7-3.8,4
			c-3.8,1.2-7.3,3.1-11.3,3.4c-0.9-0.8-1.7-1.5-2.8-2.5c-1.1,1.8-2.8,1.3-4.7,1.4c-3.2-5.8-6.5-11.6-6.2-18.7c2.5-0.3,4.6-1.8,7-1.4
			c-0.1-0.9,0.2-1.4-0.3-1.7c-5.2,0.6-9.9,3.5-15.1,3.9c-1.7-3.5-3.4-6.8-5-10.1c-2.8-0.1-5,1.9-7.7,2c-2.2-1-2.1-3.4-3.4-5
			c-1.4-0.4-1.4,0.7-1.6,1.5c-5.6,1.6-11.1,3.2-16.8,4.8c0,1.7,0,3.5,0,5.7c-6.8,2.2-13.7,4-21.1,5.5c-2.2-2-2.5-5.6-3.9-8.7
			c-1.9-4-3.5-8.2-5-12.4c-2-5.5-4.4-10.9-6.2-16.4c-1.9-5.5-4.7-10.7-5.9-16.6c-3-3-3.4-7.2-4.9-10.9c-1.4-3.6-2.9-7.1-4.2-10.8
			c-0.7-2-1.6-4-2.5-5.9c-1.7-3.6-2.9-7.4-2.2-11.5c0.5-0.7,1.4,0,1.8-0.4c4-3,8.9-3.5,13.4-5c9.2-3.1,18.7-5.3,27.9-8.7
			c2.3-0.9,4.8-1,7.1-2.1c2.2-1.1,4.8-1,7.1-2.1c1.4-0.6,3.3-0.1,5-0.1c2.2,2.1,3,5.1,4.4,7.7c2.9,5.4,5.3,11.1,8.1,16.6
			c1.5,3,3.4,5.7,3,9.3c0,0.3,0.6,0.7,0.9,1c-1.3,1.6-3.3,1.9-4.9,2.9c1,1.6,1.8,3.4,3.4,4.5c1-2,3.3-0.2,4.8-1.5
			c1-0.9,2.9-0.9,4.4-1.4c1.6-0.5,3.2-1.7,4.8-0.9c1.8,3.6,3.6,7,5.5,10.8C305,546.2,305,548.8,305,551.9z M282.9,570.6
			c-2.2-4.3-2.7-8.7-0.9-13.2c0-0.2,0.1-0.4,0-0.5c-2.4-4.9-5.9-9.4-5.1-15.4c0.1-0.4-1.3-0.6-0.5-1.4c0.5-0.5,0.9-0.9,1.4-1.4
			c-1.5-1.2-0.2-4-3-4.7c-2.7,0.9-5.7,1.9-8.7,2.9c-1.7-2.1-2.4-4.5-3.8-7c-7.7,1.2-14.9,4.6-22.7,6.5c0.8,1.7,1.1,3.1,2.3,4.3
			c0,1.3,0,2.7,0,4.2c0.6,0.1,1.1,0.2,1.4,0.3c5.7,14.3,11.4,28.6,17.2,43.2c5.6-2.2,11.4-4.5,17.3-6.9c0-2.9,0-6,0-9.3
			C279.9,572.2,281.4,571.4,282.9,570.6z"/>
		<path d="M314,636c0-1.2,0-2.3,0-3.5c1.8-1.3,2.8-3.7,6.1-3.9c0.3,0.1,1.3,0.9,2.6,0.3c0.6-1,0.2-2.2,0.3-3.2
			c2.7-3.8,6.5-4,10.7-3.5c2.4,2.8,3.3,6.5,5.3,9.7c1.3,2.2,2.1,4.8,3.5,7c1.4,2.2,1.9,4.3,1.4,7.2c-6.4,2.9-13.7,3.9-20.4,6.8
			c-2.5-2.4-2.7-6.4-5.3-8.9c-0.2-0.8,0.5-1.9-1-2c-0.2-0.8,0.5-1.9-1-2c-0.2-0.8,0.5-1.9-1-2C314.8,637.2,315.5,636.1,314,636z"/>
		<path d="M280.1,655.6c-8.5,2.3-16.5,4.7-24.9,6.8c-2.7-6.3-6.2-11.9-5-19.1c1.6-2.2,4.4-1.6,6.8-2.2c5.8-1.7,11.7-3.1,17.5-5.1
			c2.3,3.7,3.6,8,5.2,12.1C280.5,650.5,279.7,653.1,280.1,655.6z"/>
		<!--path d="M192.2,478c-3.8-0.7-7.4,2.2-11.6,2c-1.2-2-1.3-4.4-2.4-6.5c-1.5-3.1-2.9-6.4-2-10.2c1.3-1.3,2.7-2.7,4.1-4.1
			c1.8-0.6,4.1-0.1,4.9-2.7c0.2-0.7,1.8-1.4,2.8-1.4c2.9-0.1,5.6-2,8.8-0.8c1.6,4.5,4.1,9,3.1,14.3c-1.5,0.5-3.1,1.1-4.6,1.6
			c-0.8,2,0.1,3.5,0.9,4.9C195.3,476.8,193.8,477,192.2,478z"/>
		<path d="M208.1,458.1c3.8-0.2,6.8-2.5,10.4-2.1c0.9-0.7,0.3-1.6,0.7-2.5c1.8-2.2,5.1-0.7,7-2.8c2.8,2.3,3.3,5.6,4.8,8.2
			c1.5,2.6,0.7,5.9,1.6,8.7c-3.9,1.2-8.1,2.8-12.6,3.5c0,0.9,0,1.6,0,2.2c-1.9,1.5-4.3,1.6-6.8,3
			C211.2,470.3,207.1,465.2,208.1,458.1z"/-->
		<path d="M299,520.7c-0.8-2.5-3.1-4.7-1.2-8.1c1.1-2-0.8-4.2-1.2-6.3c-0.6-3.3-0.9-3.3,0.7-6.1c1.7,0.1,3.4-0.7,5.3,0.8
			c1.5,1.1,3.3-0.7,4.9-1.2c1.4-0.4,2.7-0.6,4.1-0.6c1.9,1.5,2.1,3.9,3.4,5.7c0.9,1.3,1.3,2.8,2.9,3.8c1.9,1.2,2.5,3.6,2.1,6.1
			c-1.8,1.8-4.2,2.6-6.5,3.4c-2.2,0.7-4.5,1.9-6.7,1.9C304.1,519.8,301.9,521.8,299,520.7z"/>
		<!--path d="M190.4,491.2c5.8-2.3,12.4-2.7,17.5-5c1.7-0.3,2.3,0.2,2.5,0.8c1.5,4.7,4.1,9.2,3.7,13.4c-0.9,3.9-3.5,2.5-5.2,3.1
			c-4.7,1.6-9.6,2.5-14.3,3.7C192.4,502.1,190.7,497.1,190.4,491.2z"/-->
		<path d="M318,644c0,2.2,0,4.3,0,6.7c-3.1,1.1-6.3,2.2-9.3,3.3c-1.3-0.7-1.9-2-2.2-3.1c-1-3.6-2.9-6.8-4.5-10.1
			c-0.6-1.2-1-2.2-1-3.6c0.1-1.6,0.5-3.3-1.6-4.3c1-0.9,1.6-1.5,2-1.8c2-0.7,3.3,1.6,4.8,0.8c1.5-0.8,2.9-1.2,4.4-0.8
			c1.9,1.2,1.5,3.8,3.4,4.8c0.2,0.8-0.5,1.9,1,2c0.2,0.8-0.5,1.9,1,2c0.2,0.8-0.5,1.9,1,2C317.2,642.8,316.5,643.9,318,644z"/>
	</g>
</g>
</svg>
