<?xml version="1.0" encoding="utf-8"?>
<!-- Generator: Adobe Illustrator 17.1.0, SVG Export Plug-In . SVG Version: 6.00 Build 0)  -->
<!DOCTYPE svg PUBLIC "-//W3C//DTD SVG 1.1//EN" "http://www.w3.org/Graphics/SVG/1.1/DTD/svg11.dtd">
<svg version="1.1" id="Layer_1" xmlns="http://www.w3.org/2000/svg" xmlns:xlink="http://www.w3.org/1999/xlink" x="0px" y="0px"
	 viewBox="0 0 1440 937" enable-background="new 0 0 1440 937" xml:space="preserve">
<g>
	<g>
		<path d="M630.2,198.9c-5.4,0.1-9.6,3.6-14.7,3c-0.1-2.1-2.7-2.7-2.8-4.8c-4.7,0.7-9.1,2.9-13.6,4.3c-4.4,1.4-9,2.3-13.5,3.6
			c-3.7,1.1-7.5,2.1-11.2,3.2c-6,1.7-11.8,4-18,4.8c-1.5,0.2-2.3,2.2-4.2,0.6c0,2.7,0,4.9,0,7.2c-4.5,1.3-9,2.6-13.1,3.8
			c-1-1-2-2-2.4-2.4c-2.2-0.1-3.3-0.2-4.4-0.2c-1.5-2.4-2.9-4.6-4.3-6.7c0.2-1.3,1.3-1.8,1.8-2.5c1.4-2.9-1.7-5.5-0.5-8.6
			c4.6-1.3,9.4-2.7,14.1-4.1c1.9,2.9,3.7,5.8,5.9,9c1.5-1.9,4.7,0.2,5.9-3.3c-4-3.2-3.2-7.8-3-12.5c3.2-1,6.4-2,9.7-3
			c0-1.8,0-3.2,0-4.6c0.8-0.7,1.4-1.3,2.2-2.1c-0.9-1.2-2.5-1.9-2.2-3.5c-2.8-0.2-4.9,2.2-7.6,0.5c-1.6-3.6-3.6-7.4-6.2-11.1
			c0-1.5,0-3.2,0-4.7c0.9-2.3,3.6-1.2,4.9-3c1.2-1.6,3.5-0.9,5.3-1.6c4-1.5,8.4-2.2,12.7-3.2c5.9-1.3,11.8-2.9,17.7-4.3
			c3.8-0.9,7.7-1.4,11.3-2.7c4.6-1.7,9.5-1.8,14.3-2.9c2.3-0.5,4.5-1.3,6.7-2c3.7-1.3,7.5-2,11.3-2.9c1.7-0.4,3.2-1.2,5-1.3
			c1.8,0,4-0.4,5.4-1.3c1.6-1,3.8,0.5,4.9-1.6c3.1,0.4,5.9-2.2,9.9-0.3c3.5,5.1,7.6,11.1,11.6,17.1c3.9,5.9,7.8,11.8,12,18.1
			c0,1.4,0,3.4,0,5.7c-7.7,2-15.3,4.6-23.1,6.4c-3.3,0.7-6.4,2.1-9.6,3.3c-1,0.4-1.9,0.7-2.7,0.5c-1.3-0.4-1.5,1.3-2.6,1.1
			c-2.1-0.3-1.5-2.7-3.3-3.8c-2.9,1.2-6.1,2.4-9.4,3.7C630.2,192.9,630.2,195.7,630.2,198.9z M633.7,173.5c2.3-1.5,4.4-2.9,6.5-4.3
			c-1.6-2.5-3.2-4.8-4.9-7.3c-3.8,1-7.9,2-11.9,3c-0.6-0.6-1.2-1.2-2-2c-0.4,2.1-2.2,0.5-3.2,1.4c-0.1,1.2-0.8,2.1-0.9,2.1
			c-15.9,3.4-30.6,7.8-45.7,10.7c-0.7,0.1-2.2,0.4-2.8,2.1c1,0.9,1.7,2.4,3.5,2.9c2-0.7,4-1.5,6-2.2c1.4,1.1,2.6,2.4,3.1,4
			c5,0.3,9.3-2.2,14.1-3.1c1.6,4.4,5.8,7.4,6.8,12.3c1.1-0.5,2.5,0.4,3.3-0.5c0.9-1.1,2.3-0.1,3.1-1c-1.9-3.4-1.9-3.4-1.9-9.8
			c4.7-1.2,9.5-2.8,15-4c-0.7,2.6,2.5,2.9,2.3,5.1c4.2,0.9,7.5-2.4,11.8-2C635.3,178.4,634.6,176.2,633.7,173.5z"/>
		<!--path d="M714,145.6c0-0.2,0.1-0.4,0-0.6c-0.5-1.1-1.1-2.2-1.7-3.3c-0.5-0.8,1-0.7,0.7-1.2c0.1-0.7-0.1-1.2-0.5-1.5
			c-0.5-0.3-0.5-0.8-0.5-1.5c2.5-3,6.5-2.4,9.8-3.9c0.2-0.9-1.9-1-0.6-2.2c-3.6-1.4-6.6,1.5-9.9,0.4c-1.2-4.1-5.2-7.4-4.2-12.4
			c5.1-2.8,11-2.4,15.7-4.6c2.4,0.8,1.9,3.4,3.8,4c0.2-0.2,0.6-0.5,0.9-0.9c1.5-0.1,1.9,0.9,2.5,1.9c2,3.7,3.9,7.3,2.7,11.9
			c-1.6-0.1-3.1,0.8-5,1.7c1.9,1.9,1.7,5.3,5.6,5.6c1.8,0.1,2.6,2.6,3.6,4.7c0,1.6,0,3.6,0,5.9c-4.7,1.2-9.5,2.4-14.4,3.7
			c-0.9-2.9-2.7-4.8-4.2-7.3C717.2,145.6,715.4,146.6,714,145.6z"/-->
		<path d="M524,223.8c-8.9,2.9-17.5,5.4-26.1,7.5c-2.7-4.5-5.3-8.8-7.8-13.1c0-1.3,1.4-1.7,2.1-2.9c-1.9-2.7-2.1-6.2-3.3-9.3
			c2.8-2.8,6.8-2.1,9.8-3.9c2.8,0.6,4.8-1.3,7-2.4c1-0.4,1.8-0.5,3-0.7c0.4,2.2,0.3,4.7,2.2,6.5c0,1.3,0,2.6,0,4
			c1.7,0.5,3,1.7,4.1,3.1c-0.4,1.5,0.4,2.5,1.5,3.4c1.4,0.2,2.4-1.8,4.1-0.9C523.1,218.4,523.9,220.4,524,223.8z"/>
		<path d="M503,183.8c0,2,0,4.3,0,6.9c-4.7,1.3-9.3,3.2-14.5,3.4c-1.5-2.9-2.9-5.7-4.4-8.6c-3.1-5.7-3.1-5.7-2.9-12.4
			c4.7-1.3,9.4-3.2,14.2-3.2C498.5,174.3,500.4,179.1,503,183.8z"/>
		<path d="M654.1,193.5c2.1-2.3,4.4-2.7,6.7-2.5c0.2-0.8,0.3-1.3,0.5-2c3.2,0.5,5.8-1.7,8.9-2.1c1.7,2.8,1.7,2.8,1.8,5.4
			c1.1,1.7,3.5,2.7,4,5.1c0,1.3,0,2.7,0,4c-2.1,0.7-3.4,2.8-6.4,3.5c-0.1,0-1.1,0-2.1,0c-0.7,0.9-2.1,1.2-1.4,2.8
			c-1.8,0-3.1,0.6-4.8,1.5c-1-1.2-2.3-2.3-3.1-3.7C656,201.9,653.4,198.2,654.1,193.5z"/>
		<!--path d="M673.3,127.3c3-1.7,6.8-1.8,10.6-2.9c2.7,3.1,4.6,7.2,6.9,11.3c0,1.9,0,4,0,6c-0.5,0.5-0.8,0.8-1.4,1.4
			c-3.4-0.6-6.5,1.4-9.9,2.3C675.9,139.7,671.5,134.7,673.3,127.3z"/-->
	</g>
</g>
</svg>
