<?xml version="1.0" encoding="utf-8"?>
<!-- Generator: Adobe Illustrator 17.1.0, SVG Export Plug-In . SVG Version: 6.00 Build 0)  -->
<!DOCTYPE svg PUBLIC "-//W3C//DTD SVG 1.1//EN" "http://www.w3.org/Graphics/SVG/1.1/DTD/svg11.dtd">
<svg version="1.1" id="Layer_1" xmlns="http://www.w3.org/2000/svg" xmlns:xlink="http://www.w3.org/1999/xlink" x="0px" y="0px"
	 viewBox="0 0 1440 937" enable-background="new 0 0 1440 937" xml:space="preserve">
<g>
	<g>
		<path d="M1109.9,726.7c-4.5,2-9,3-13.4,4.4c-6.9,2.2-13.9,4.1-20.8,6.6c-2.6,0.9-5.3,1.6-8,2.3c-2,0.5-3.4,1.2-4.2,3
			c-0.7,1.8-2.3,0.9-3.5,1.3c-5.7,2-11.4,3.9-17.1,5.7c-0.8,0.2-1.7,0-2.3,0c-2.5-1.4-2.9-4.4-5.1-5.8c-3.4-0.7-6.7,0.3-9.9,1.2
			c-0.7-0.8-1.1-1.5-1.6-1.7c-1.7-0.8-4.1-1-4.7-2.9c-0.5-1.8-1.9-3-2.8-4.3c-2.8-4.2-5.4-8.5-8.4-12.5c-1.6-2.2-2.5-4.4-2.3-7.1
			c0.1-2.1,0-4.3,0-6.3c1.1-1.5,3-1.8,3.7-3.6c0.4-0.9,1.9-1.5,3.1-1.9c11.3-3.7,22.6-7.4,33.9-11c3.4-1.1,6.8-2.2,10.1-3.4
			c0.6-0.2,1-0.6,1.7-0.6c1.4,0,2.7,2,4,0.9c1.4-1.2,2.8-0.9,4.2-0.8c2.5,0.2,4.6-1.5,7.1-1.1c2.3,0.3,4.8,0.6,6.9-0.1
			c1.9-0.6,3.7-0.8,5.6-0.8c1.8,0,3.6,0,5.4,0c0.1,0.7,0.2,1.1,0.4,1.8c3.7,0,7.5,0,11.2,0c1.8,2.5,1.8,5.4,2.6,8.1
			c2,6.4,2.7,13.1,4.7,19.5c0.7,2.1,1.1,4.8-0.6,7C1109.8,724.9,1110,725.7,1109.9,726.7z"/>
	</g>
</g>
</svg>
