<?xml version="1.0" encoding="utf-8"?>
<!-- Generator: Adobe Illustrator 17.1.0, SVG Export Plug-In . SVG Version: 6.00 Build 0)  -->
<!DOCTYPE svg PUBLIC "-//W3C//DTD SVG 1.1//EN" "http://www.w3.org/Graphics/SVG/1.1/DTD/svg11.dtd">
<svg version="1.1" id="Layer_1" xmlns="http://www.w3.org/2000/svg" xmlns:xlink="http://www.w3.org/1999/xlink" x="0px" y="0px"
	 viewBox="0 0 1440 937" enable-background="new 0 0 1440 937" xml:space="preserve">
<g>
	<g>
		<path d="M1040.6,221.8c1.6,4,4.3,6.5,6.3,9.5c3.6,5.5,7.5,10.9,11.2,16.3c0.7,1,1.4,2.1,1.8,3.2c0.2,0.7,0.5,1.4,1,1.5
			c3.8,1.4,4.7,5.4,6.8,8.2c1.5,2,4.2,3.6,4.2,6.6c0.3,1.5-1.2,2.2-1.2,3.6c-1.6,0-3,0.7-4.6,1.5c-0.2,1.1,0,2.5-0.6,3.5
			c-0.8,1.1-0.4,2.2-0.6,3.4c-1.4,3.3-5.1,3.1-7.7,4.8c-4.2-0.2-7.8,2.1-11.7,3.2c-2.9,0.9-6.3,0.6-8.8,3.3c-2-2.7-3.7-5.1-5.6-7.5
			c-1.3-0.5-2.2,0.7-3.7,1.1c-3.9-4-6.7-9.1-10.5-13.5c-0.4-2-0.3-4,0.9-5.6c-2.6-3.4-5.1-6.5-7.3-9.8c-0.9-1.4-1.4-3.1-1.7-4.8
			c-1.1-5.7-2.4-11.3-3.9-16.8c-0.3-1-1.2-1.5-1.1-2.5c1.7-2,0.7-4.4,1.1-6.5c5.9-1.8,12.1-0.6,17.8-1.7
			C1028.8,221.5,1034.7,222.8,1040.6,221.8z"/>
	</g>
</g>
</svg>
