<?xml version="1.0" encoding="utf-8"?>
<!-- Generator: Adobe Illustrator 17.1.0, SVG Export Plug-In . SVG Version: 6.00 Build 0)  -->
<!DOCTYPE svg PUBLIC "-//W3C//DTD SVG 1.1//EN" "http://www.w3.org/Graphics/SVG/1.1/DTD/svg11.dtd">
<svg version="1.1" id="Layer_1" xmlns="http://www.w3.org/2000/svg" xmlns:xlink="http://www.w3.org/1999/xlink" x="0px" y="0px"
	 viewBox="0 0 1440 937" enable-background="new 0 0 1440 937" xml:space="preserve">
<g>
	<g>
		<path d="M457.6,220c4.4,5.3,7.1,11.9,11,17.3c1.1,3.8,1.8,7.4,1.1,11.3c-0.5,0.3-0.8,1.4-1.7,1.3c-1.5,0-2.8,0.8-4.1,0.9
			c-2.9,0.2-2.8,2.1-3.3,4c-6.7,1.9-13.4,3.8-19.8,5.7c-0.9-0.9-1.9-1.9-2.6-2.6c-3.6,1.5-6.6,2.2-9.5,3c-4.6,1.2-9.2,2.7-13.9,3.8
			c-0.4,0.1-0.9,0.3-1.4,0.3c-3,0-6,0.1-9,0c-2.9-0.2-5.6,1.6-8.6,1.1c-5.2-0.9-10.3,1.7-15.7,0.8c-0.5-1.3-0.4-2.8-0.2-4.2
			c0.5-3.6-1.4-7-1.1-10.6c0.3-3.5,0-7,0.1-10.5c0.1-1.5-2-2.4-0.9-4.1c1.4-1.4,3.1-2.3,5.3-2.5c1.7-0.2,3.4-0.7,5-1.1
			c1.3-0.4,2.5-1.6,4.1-2c4.6-1.3,9.2-2.8,13.9-3.8c3.9-0.8,7.9-1.8,11.7-3c3.2-1,6.4-1.8,9.7-1.9c2.3-0.1,5,0.7,6.9-0.2
			c1.9-1,4.2,0.1,5.8-1.7c0.4-0.4,1.7-0.3,2.4,0c4.7,2.3,8.9,0.2,13.3-1C456.4,220,456.6,220,457.6,220z"/>
	</g>
</g>
</svg>
