<?xml version="1.0" encoding="utf-8"?>
<!-- Generator: Adobe Illustrator 17.1.0, SVG Export Plug-In . SVG Version: 6.00 Build 0)  -->
<!DOCTYPE svg PUBLIC "-//W3C//DTD SVG 1.1//EN" "http://www.w3.org/Graphics/SVG/1.1/DTD/svg11.dtd">
<svg version="1.1" id="Layer_1" xmlns="http://www.w3.org/2000/svg" xmlns:xlink="http://www.w3.org/1999/xlink" x="0px" y="0px"
	 viewBox="0 0 1440 937" enable-background="new 0 0 1440 937" xml:space="preserve">
<g>
	<g>
		<path d="M396,742.8c-6.2,0.2-12,1.8-17.9,1.2c-4.4,1.6-9.1,0.3-13.5,1.2c-3.1,0.6-6.1,0.6-9.2,0.9c-5.3-12.2-10.6-24.4-16.2-37.3
			c-0.3-0.3-1.6,0.6-3-0.1c-2.9-6.3-6.4-12.9-8-20.5c2-2.6,6.1-1.2,8.7-3.6c0-3.4,0-6.9,0-10c0.8-1.3,2-1.5,3-2.1c0-1.3,0-2.6,0-3.8
			c2.1-3.6,6-3.3,9.1-4.6c3.4-1.5,7.1-2.1,10.6-3.4c2.8-1,5.8-1.2,8.4-2.7c0.9-0.5,2.3-0.1,3.5-0.1c2.2,4.6,4.4,9.2,6.6,13.8
			c0.9,0.2,1.1-1.2,2.4-0.6c2.8,6.2,6.5,12.2,9,18.8c0.7,1.7-0.1,2.7-0.6,4c1.2,2.3,2.6,4.6,3.4,7c0.8,2.5,1.5,5.2,1.5,7.8
			c0.1,8,1.9,16,1,24.1c-0.2,1.7,1.5,2.8,1.1,4.6C395.7,739.1,396,740.8,396,742.8z"/>
	</g>
</g>
</svg>
