<?xml version="1.0" encoding="utf-8"?>
<!-- Generator: Adobe Illustrator 17.1.0, SVG Export Plug-In . SVG Version: 6.00 Build 0)  -->
<!DOCTYPE svg PUBLIC "-//W3C//DTD SVG 1.1//EN" "http://www.w3.org/Graphics/SVG/1.1/DTD/svg11.dtd">
<svg version="1.1" id="Layer_1" xmlns="http://www.w3.org/2000/svg" xmlns:xlink="http://www.w3.org/1999/xlink" x="0px" y="0px"
	 viewBox="0 0 1440 937" enable-background="new 0 0 1440 937" xml:space="preserve">
<g>
	<g>
		<path d="M360.6,296.1c-0.6-0.7-1.2-1.3-1.9-2c-2.7-0.4-5.8,0.6-8.9-1.9c-0.5-0.6,1.3-2.8-1.2-3.8c-2.7,1.1-5.9,0.3-9.4,0.6
			c0.2-2.1-1.4-3.7-1.2-5.8c0.1-2,0-3.9,0-6c3.7-0.8,7.6,0.9,10.9-1.6c0.1-0.8,0.2-1.6,0.3-2.7c7.7,1,15.2-1.4,22.9-0.9
			c0.5,0,1,0,1.3,0c1.1,0.6-0.2,2.4,1.6,2.2c0,3.2,0.3,6.3-0.1,9.2c-0.4,2.9,2.3,5.2,0.6,8.3c-1.7-0.1-3.5,2-5.8,1.2
			C367.9,297.9,363.7,295.3,360.6,296.1z"/>
		<path d="M343.9,209.7c0.2-0.2,0.8-0.8,1.6-1.7c3.9,0.2,8.1-0.6,12.3,1.5c0.7,2.3,0.1,5-0.9,7.5c-0.9,2.3-2,4.5-2.1,7
			c-1.3,0-2.3,0-3.3,0c-0.7,1.3-1.4,2.7-2,4.1c-4.2-2.4-9.1,0.4-13.8-3.1c-0.1-0.1,0.6-1.3,0.1-2.6c-0.9-0.9-2.4,0.2-3.9-0.7
			c0.5-3.9-0.9-8.2,1.3-12.5C336.6,208.5,339.9,211.2,343.9,209.7z"/>
		<path d="M419.9,206c-7,1.8-14.1,3.6-21.1,5.4c-1-1.9-2.1-3.5-2.7-5.2c-0.7-1.7-2.3-3.1-2-5.1c0.3-2-1.5-3.6-0.9-5.7
			c2.2-0.8,4.5-1.6,6.5-2.4c1.7,0.3,2.1,1.6,2.7,1.9c2.1,0.7,3-1,4.5-1c0.6-0.7,0-1.6,0.3-2.3c2.4-0.8,4.7-2,7.8-1.3
			C417.5,194.8,420.7,199.5,419.9,206z"/>
	</g>
</g>
</svg>
