<?xml version="1.0" encoding="utf-8"?>
<!-- Generator: Adobe Illustrator 17.1.0, SVG Export Plug-In . SVG Version: 6.00 Build 0)  -->
<!DOCTYPE svg PUBLIC "-//W3C//DTD SVG 1.1//EN" "http://www.w3.org/Graphics/SVG/1.1/DTD/svg11.dtd">
<svg version="1.1" id="Layer_1" xmlns="http://www.w3.org/2000/svg" xmlns:xlink="http://www.w3.org/1999/xlink" x="0px" y="0px"
	 viewBox="0 0 1440 937" enable-background="new 0 0 1440 937" xml:space="preserve">
<g>
	<g>
		<path d="M438.1,736.2c-0.6,4.1,0.4,7.9,1.2,11.8c1.1,0,2.2,0,3.8,0c-1.1,3.4,1.6,6.3,0.7,9.7c-1.1,0.7-3-0.1-3.8,2
			c0,1.3,0,2.9,0,4.9c-0.8,0.5-1.8,1.1-2.8,1.8c0.1,0.2,0.3,0.4,0.4,0.6c-2.1,0-4.2,0-6,0c-0.8,0.7-1.3,1.1-1.7,1.5
			c-0.3,2.5,2.3,4.6,0.9,7.2c-0.4,0.4-0.7,0.7-1.4,1.4c-1.9,0-4.2,0.2-6.5-0.1c-2.3-0.3-4.2,1.9-6.7,0.8c-0.3-0.3-0.8-0.8-1.3-1.3
			c0-3.3,0-6.6,0-10c1-1.3,2.5-0.1,4-0.9c-0.3-4.4,0.1-9-0.9-13.7c-0.9-4.4,0.4-9.1-1.3-13.4c3.6-1.2,7.1-1.9,10.6-1.4
			C431,737.5,434.1,735.5,438.1,736.2z"/>
		<path d="M318.6,765.1c0.3,1.7,1.7,2.6,2.8,3.8c1.5,0.3,3.4-0.5,4.6,2c-0.6,4.6-2,9.5-4.3,14.6c-2-1.6-4.1-1.6-6.2-1.4
			c-0.8,1.5-1.7,2.9-1.7,5c-3.8-0.1-7.5-1.8-11.2-1c-0.5-0.5-0.9-0.9-1.6-1.6c0.4-2.2-0.8-4.7,0.9-7.1c-1-0.8-2.2-0.2-3.3-0.4
			c-1.5-0.9-1.8-2.6-2.6-3.9c1.2-4,2.9-7.8,3.5-11.3c2.8-1.8,4.6,0.2,6.6,0.3c2.1,0.1,4.1-0.4,6.2,0.6
			C314.1,765.4,316.5,765,318.6,765.1z"/>
		<path d="M275.7,711.7c5.6-1.5,11.7-3.2,18.2-5c-0.2,2.6,1.8,4.3,2,6.3c0.2,2.2,0.8,4,2.2,5.6c1.5,1.7,1,4.3,2.7,5.7
			c0,2.5,0,5,0,7.4c-6,0.9-11.5,3.4-17.5,4.6C280.6,728.2,275.7,721.2,275.7,711.7z"/>
	</g>
</g>
</svg>
