<?xml version="1.0" encoding="utf-8"?>
<!-- Generator: Adobe Illustrator 17.1.0, SVG Export Plug-In . SVG Version: 6.00 Build 0)  -->
<!DOCTYPE svg PUBLIC "-//W3C//DTD SVG 1.1//EN" "http://www.w3.org/Graphics/SVG/1.1/DTD/svg11.dtd">
<svg version="1.1" id="Layer_1" xmlns="http://www.w3.org/2000/svg" xmlns:xlink="http://www.w3.org/1999/xlink" x="0px" y="0px"
	 viewBox="0 0 1440 937" enable-background="new 0 0 1440 937" xml:space="preserve">
<g>
	<g>
		<path d="M679.7,640c1.3,3-0.8,5.3-0.7,7.9c0.1,2.5,1,4.5,1.8,6.5c-0.4,2.4-2.8,3.4-3,5.7c-1,0-1.6,0-2.6,0c0,2.3,0,4.5,0,7.3
			c-2.8-1.3-5.3-2.1-7.5-3.4c-1.9-1.2-3.3-1.1-5.3,0c-2,1.1-4.2,1.9-6.4,3.5c0.5,2.8-0.3,5.6-1.3,8.4c-4.4,1.3-8.8-0.8-13.2-0.8
			c-0.5-0.3-0.4-0.8-0.5-1.3c0-0.5,0.2-1-0.3-1.4c-5.4-0.6-10.9-1.4-16.4-1.3c-2.9,0-5.9-1.3-9.1-0.7c-0.1,0.9-0.2,1.6-0.3,2.8
			c-3.5-0.5-6.9,2.1-10.3,0.9c-3.4-1.1-6.7-0.7-10.1-0.9c-0.5-0.5-1-1-1.3-1.3c-0.9-3,1-5.5,0.7-8.2c-0.2-2.8,2.4-5.2,0.8-8.1
			c-0.2-0.5-0.7-0.4-1.5-0.4c-0.5-2.3-0.4-4.8-0.1-7.2c0.2-2.2,1.3-4.2,0.9-6.4c1.3-0.8,3.1,0.2,4-2.5c1-5.9,2.2-12.7,3.3-19.6
			c0.6-0.3,0.8-1.3,1.8-1.3c1.6,0,3.1,0.2,4.7-0.9c0.6-0.4,2.1-0.3,3.3,0.3c3.3,1.7,7.1,2.1,10.5,3.5c1.1,0.5,2.6,0.1,4.1,0.1
			c1.3,5-0.5,9.8-0.9,15.3c3.3-1.1,5.7,0.9,8.5,0.7c2.8-0.1,5.8-0.6,8.5,0.1c5,1.2,10.2,0.1,15.1,1c4.9,0.9,9.8,0.2,14.6,1
			C674.1,639.6,676.8,639.9,679.7,640z"/>
	</g>
</g>
</svg>
