<?xml version="1.0" encoding="utf-8"?>
<!-- Generator: Adobe Illustrator 17.1.0, SVG Export Plug-In . SVG Version: 6.00 Build 0)  -->
<!DOCTYPE svg PUBLIC "-//W3C//DTD SVG 1.1//EN" "http://www.w3.org/Graphics/SVG/1.1/DTD/svg11.dtd">
<svg version="1.1" id="Layer_1" xmlns="http://www.w3.org/2000/svg" xmlns:xlink="http://www.w3.org/1999/xlink" x="0px" y="0px"
	 viewBox="0 0 1440 937" enable-background="new 0 0 1440 937" xml:space="preserve">
<g>
	<g>
		<path d="M958.2,494c3.4,0,6.5,0.1,9.7,0c1.5-0.1,3.2,0.6,4.7-0.8c0.6-0.5,2.4-0.6,3.6,0.5c1.6,1.6,3.8,1.4,5.9,1.3
			c2.3,0,4.7,0.2,7,0c4.3-0.4,8.3,0.9,12.9,1.2c-0.4,9.1,0.8,18.3-1.6,27.7c-1,0.5-2.7-0.2-4.3,0.2c0,4.9,0,9.7,0,14.5
			c1,0.8,2.2,0.2,3.3,0.4c2.6,3.4,1.2,7.5,1.5,11.3c-1.9,1.9-0.4,4.4-1.2,6.6c-0.5,0-0.9,0.1-1.3,0.1c-1-1.2,0.1-2.7-0.9-3.9
			c-3.4,0.5-6.7-2-10.3-0.8c-0.6,1,0.4,2.8-2.5,3.7c-1.8,0-4.7,0-7.5,0c-0.2,0.8-0.3,1.3-0.5,1.8c-4.5,1.3-8.9-1.6-13.2-0.7
			c-0.7-0.4-0.6-1-0.6-1.4c-2.7-1.6-5.7-1.8-8.8-1.6c-6.4,0.4-12.7-1.7-19.1-1c-1,0.1-1.3-0.8-2.2-1.5c0.7-6.3,1.4-12.8,2.2-19.6
			c2.9,0.5,5.7,0.1,8.6,0.9c3.7,1,7.9,0.2,12.2,0.2c0-2.1,0.3-4.1-0.1-6c-0.5-3,1.3-5.6,1.1-8.6c-0.2-3-0.7-6.2,0.1-8.9
			C958.7,504.4,957.3,499.4,958.2,494z"/>
	</g>
</g>
</svg>
