<?xml version="1.0" encoding="utf-8"?>
<!-- Generator: Adobe Illustrator 17.1.0, SVG Export Plug-In . SVG Version: 6.00 Build 0)  -->
<!DOCTYPE svg PUBLIC "-//W3C//DTD SVG 1.1//EN" "http://www.w3.org/Graphics/SVG/1.1/DTD/svg11.dtd">
<svg version="1.1" id="Layer_1" xmlns="http://www.w3.org/2000/svg" xmlns:xlink="http://www.w3.org/1999/xlink" x="0px" y="0px"
	 viewBox="0 0 1440 937" enable-background="new 0 0 1440 937" xml:space="preserve">
<g>
	<g>
		<path d="M831.7,328c-2.5,0-4.9,0-7.6,0c0-1.9-0.1-3.8-0.1-5.8c0-2,0-3.9,0-5.8c-4.5-2.1-9.1-1.3-13.5-1.5
			c-0.6-0.6-1.2-1.2-1.9-1.9c-5.4-0.2-10.9,0.5-16.4-1.4c0-4,0-8.1,0-12.7c-1.6,0-3.1-0.1-4.5,0c-6.1,0.8-12-1.8-18.3-0.9
			c-0.3,0.3-0.7,0.8-1.4,1.5c0.6,3.4-0.6,6.7-1.3,10.2c-0.1,0.4-0.7,0.7-1.3,1.3c-1.8-1-3.9-1.5-6.5-0.9c0.5-4.9-0.3-9.2-1.1-13.7
			c2.3-1,1.9-4.5,5.1-4.8c0-4.4,0-8.9,0-13.2c1-1,1.8-1.8,2.6-2.6c7.3-1.1,7.7-1.1,13.1,2c1.1,0,2.4,0,3.7,0c1.1,0,2.3,0,3.6,0
			c0.1,1,0.1,1.8,0.2,2.8c2.1,0,4.2,0,5.6,0c2,0.6,0.5,2.9,2.7,2.9c3.4,0.4,7.1,0.5,10.7,1.2c3.7,0.7,7.6,0.1,11.3,0.1
			c0.6-0.4,0.5-0.9,0.5-1.4c1-1.2,2.5-0.2,3.7-0.7c0.7-0.6,0-1.6,0.5-2.5c4.8-1.3,9.8-1.6,14.7,1c0.6,5.1-0.1,10.2-1.2,15.4
			c1.3,0.1,2.1,0.2,3.1,0.3c1.1,3.9-2,7.5-0.7,11.2c-0.7,1.1-1.6,0.5-2.5,0.8c-2.6,2.7-0.6,6.5-1.9,9.4
			C831.4,321.7,832.8,325,831.7,328z"/>
	</g>
</g>
</svg>
