<?xml version="1.0" encoding="utf-8"?>
<!-- Generator: Adobe Illustrator 17.1.0, SVG Export Plug-In . SVG Version: 6.00 Build 0)  -->
<!DOCTYPE svg PUBLIC "-//W3C//DTD SVG 1.1//EN" "http://www.w3.org/Graphics/SVG/1.1/DTD/svg11.dtd">
<svg version="1.1" id="Layer_1" xmlns="http://www.w3.org/2000/svg" xmlns:xlink="http://www.w3.org/1999/xlink" x="0px" y="0px"
	 viewBox="0 0 1440 937" enable-background="new 0 0 1440 937" xml:space="preserve">
<g>
	<g>
		<path d="M762.9,286c-1.3-0.1-2.5,0.3-3.1-0.8c-1.1-2.1-2.1-4.3-1.8-6.7c1.9-1.5,1.9-1.5,4.9-1.8c0-5.8,0-11.5,0-17.2
			c2.9-2.5,6.5-3.3,9.6-5.4c2.9,0,6,0,9.3,0c0,2.5,0,5,0,7.5c0.7,0.2,1.3,0.4,2,0.7c0,2.4,0,4.8,0,7.4c-1,0.9-2.5,0-3.8,0.5
			c0,2.5,0,5,0,7.8c-4.2-0.4-7.4-4-11.7-2.9c-1.1,1.2-2.8,1.4-4.3,2.2C764.2,280.3,762.4,282.9,762.9,286z"/>
	</g>
</g>
</svg>
