<?xml version="1.0" encoding="utf-8"?>
<!-- Generator: Adobe Illustrator 17.1.0, SVG Export Plug-In . SVG Version: 6.00 Build 0)  -->
<!DOCTYPE svg PUBLIC "-//W3C//DTD SVG 1.1//EN" "http://www.w3.org/Graphics/SVG/1.1/DTD/svg11.dtd">
<svg version="1.1" id="Layer_1" xmlns="http://www.w3.org/2000/svg" xmlns:xlink="http://www.w3.org/1999/xlink" x="0px" y="0px"
	 viewBox="0 0 1440 937" enable-background="new 0 0 1440 937" xml:space="preserve">
<g>
	<g>
		<path d="M443.7,439c-3.5,0-6.8,0.6-9.8-0.1c-4.9-1.3-9.7-0.5-14.7-1c0-1.8,0-3.6,0-5.7c-3.4,0-6.6,0-9.4,0c-3-4-0.2-7.7-0.8-11.2
			c1.4-1.4,2.6-2.6,4-4c1.4,0.9,2.9,2.3,4.6,2.9c1.7,0.6,3.5,0,5.5-1.8c0.1-0.1,0.2-1.3,1.6-2.1c3.7,0.4,7.7-0.3,11.7,0.9
			c2.8,0.8,5.9,0.2,9,0.2c2,1.3,1.7,2.9,1.2,5c-0.8,3.5-2.2,7-1.4,10.7c1.5,0.6,3.5-0.5,4.7,1.8c0,1.4,0,3.2,0,5.1
			c-0.7,0.7-1.5,1.5-2.3,2.3C445.3,442.4,444.2,441.2,443.7,439z"/>
	</g>
</g>
</svg>
