<?xml version="1.0" encoding="utf-8"?>
<!-- Generator: Adobe Illustrator 17.1.0, SVG Export Plug-In . SVG Version: 6.00 Build 0)  -->
<!DOCTYPE svg PUBLIC "-//W3C//DTD SVG 1.1//EN" "http://www.w3.org/Graphics/SVG/1.1/DTD/svg11.dtd">
<svg version="1.1" id="Layer_1" xmlns="http://www.w3.org/2000/svg" xmlns:xlink="http://www.w3.org/1999/xlink" x="0px" y="0px"
	 viewBox="0 0 1440 937" enable-background="new 0 0 1440 937" xml:space="preserve">
<g>
	<g>
		<path d="M1028,501.5c0.7,0.7,1.1,1.1,1.5,1.5c1.3,0,2.6,0,4,0c0.9-0.4,1.3-1.8,3-2c1.7-0.3,2.3,1.7,3.4,2.5c0,4.2,0,8.3,0,12.8
			c-5.7-0.8-11.1,0.6-16.3,1c-0.9-1-0.3-1.9-0.7-3c-6.8,0-13.6,0-20.7,0c0-6.1,0-11.9,0-17.7c-1.6-0.9-3.3-0.2-4.8-0.5
			c-0.6-0.9-0.3-1.7-0.3-2.8c1.6,0,3.2,0,4.6,0c0.2-0.8,0.3-1.2,0.4-1.8c7.5-1.5,14.8,1.7,22.3,0.6c0.6,2.1,2.3,3.2,3.6,4.6
			C1028,498.2,1028,499.8,1028,501.5z"/>
	</g>
</g>
</svg>
