<?xml version="1.0" encoding="utf-8"?>
<!-- Generator: Adobe Illustrator 17.1.0, SVG Export Plug-In . SVG Version: 6.00 Build 0)  -->
<!DOCTYPE svg PUBLIC "-//W3C//DTD SVG 1.1//EN" "http://www.w3.org/Graphics/SVG/1.1/DTD/svg11.dtd">
<svg version="1.1" id="Layer_1" xmlns="http://www.w3.org/2000/svg" xmlns:xlink="http://www.w3.org/1999/xlink" x="0px" y="0px"
	 viewBox="0 0 1440 937" enable-background="new 0 0 1440 937" xml:space="preserve">
<g>
	<g>
		<path d="M652.2,698.7c-0.8-0.8-1.4-1.3-2.1-2.1c0-1.8,0-3.8,0-6.1c0.9-0.9,1.6-2.4,3.4-2.6c1.9-4.8,1.6-9.9,1.4-14.9
			c-0.1-2.4,1.9-4.2,0.9-6.7c2.3-0.3,3.8-1.8,5.7-2.5c2-0.7,4-1,6.2-0.8c1.8,2.7,5.7,2.7,8.3,5.8c0.7,0,2.2,0,3.5,0
			c1.8,3.3-1.2,6-0.3,9.1c-1.5,0-2.7,0-3.7,0c-1.1,1.6,0.3,3.5-0.9,4.9c-1.1,1.4-0.5,2.8-0.6,4.3c-0.1,1.7,0,3.3,0,5
			c0,1.5,0,3,0,4.4c-0.5,0.5-1,1-1.5,1.5c-2.6,0-5.3,0-8.3,0c0,2.6,0,5.1,0,7.6c-4.1,3-8,0.3-12,0.2
			C652.2,703.4,652.2,701,652.2,698.7z"/>
	</g>
</g>
</svg>
