<?xml version="1.0" encoding="utf-8"?>
<!-- Generator: Adobe Illustrator 17.1.0, SVG Export Plug-In . SVG Version: 6.00 Build 0)  -->
<!DOCTYPE svg PUBLIC "-//W3C//DTD SVG 1.1//EN" "http://www.w3.org/Graphics/SVG/1.1/DTD/svg11.dtd">
<svg version="1.1" id="Layer_1" xmlns="http://www.w3.org/2000/svg" xmlns:xlink="http://www.w3.org/1999/xlink" x="0px" y="0px"
	 viewBox="0 0 1440 937" enable-background="new 0 0 1440 937" xml:space="preserve">
<g>
	<g>
		<path d="M453.5,317c-1,0-2,0-3.1,0c-1.2-3.9-1-8.1-2.4-12.2c-1.7,1.7-3.2,1.1-4.9,1.3c0.2-2.5-1.9-4.3-1.1-6.5
			c-0.9-0.9-1.8-0.4-2.8-0.6c-0.5-1.5-0.2-3.1-0.2-4.6c1.3-0.3,2.3-0.8,2.9-1.8c-1.9-2.2-0.5-4.7-1.1-7.1c2-0.6,4-1.2,6.1-1.8
			c0-2.4,0-4.8,0-7.1c5.4-2,10.8-1.6,16.1-1.5c2.5,0,4.5-1.5,7.1-1.1c2.4,0.4,5.2,0.7,7.4-0.1c3.1-1,6-0.6,9.2-0.9
			c0.1,5,1.1,9.8,1.4,14.6c0.2,3.7,0,7.6,0.9,11c1.5,5.4,0.2,10.7,0.9,16.2c-3.4,0-6.5,0-10,0c0-1.8,0-3.7,0-5.6
			c-2.6-1.3-4.6-3.2-7.7-3.3c-0.8-0.9-1.7-1.9-2.6-2.8c-0.3-0.1-0.5,0-0.8,0.3c-1.8,1.8-3.6,3.6-6.1,4.6c-1.8,0.7-3.5,2-2.8,4.5
			c-2,0.6-4,1.2-5.9,1.7C453.6,315.1,454.5,316.3,453.5,317z"/>
	</g>
</g>
</svg>
