<?xml version="1.0" encoding="utf-8"?>
<!-- Generator: Adobe Illustrator 17.1.0, SVG Export Plug-In . SVG Version: 6.00 Build 0)  -->
<!DOCTYPE svg PUBLIC "-//W3C//DTD SVG 1.1//EN" "http://www.w3.org/Graphics/SVG/1.1/DTD/svg11.dtd">
<svg version="1.1" id="Layer_1" xmlns="http://www.w3.org/2000/svg" xmlns:xlink="http://www.w3.org/1999/xlink" x="0px" y="0px"
	 viewBox="0 0 1440 937" enable-background="new 0 0 1440 937" xml:space="preserve">
<g>
	<g>
		<path d="M481,638.6c0.3,4.2-0.7,8.5,1.1,12.2c-0.1,1.4-0.9,1.1-1.5,1.3c-0.6,0.2-1,0.9-1.5,1.3c0.9,0.6,1.7,1.1,2.5,1.6
			c0.9,4.4,1.9,8.7,1.4,13.1c-0.5,4.3,2,8.3,0.7,12.9c-1.2,0-2.7,0.2-4.1,0c-4.8-0.6-9.3,2-14.1,0.8c-1,1.6-0.2,3.3-0.6,4.8
			c-3.4,2.3-7.1,1-10.6,1.5c-0.2,0.5-0.3,1.2-0.6,1.7c-0.2,0.4-0.7,0.7-1.1,1.1c-1.1,0-2.2,0-3.4,0c-0.1-0.5-0.2-1-0.4-1.9
			c-3.9,0.4-7.9-0.9-11.8,1c-2.8-0.6-1.7-3-2.1-4.8c-0.6-0.1-1-0.2-1.9-0.4c0.6-2.3-1.2-4.3-1-6.8c0.1-2.3,0-4.7,0-7
			c0.1-2.7-1.5-5.2-1.1-8.1c0.4-2.8,0.7-5.9-0.1-8.4c-1.4-4.4-0.5-8.7-0.9-13.5c1.6,0,3.1-0.2,4.5,0c2.7,0.5,5-1.2,7.6-1.1
			c2.7,0.1,5.6,0.7,7.9-0.1c3.1-1.1,6.1-0.9,9.1-0.7c2.9,0.2,5.3-1.2,8.1-1.1c2.8,0.1,5.7,0,8.5,0c0.8,0,1.1-0.5,1.7-0.8
			C478.7,636.5,479.8,637,481,638.6z"/>
	</g>
</g>
</svg>
