<?xml version="1.0" encoding="utf-8"?>
<!-- Generator: Adobe Illustrator 17.1.0, SVG Export Plug-In . SVG Version: 6.00 Build 0)  -->
<!DOCTYPE svg PUBLIC "-//W3C//DTD SVG 1.1//EN" "http://www.w3.org/Graphics/SVG/1.1/DTD/svg11.dtd">
<svg version="1.1" id="Layer_1" xmlns="http://www.w3.org/2000/svg" xmlns:xlink="http://www.w3.org/1999/xlink" x="0px" y="0px"
	 viewBox="0 0 1440 937" enable-background="new 0 0 1440 937" xml:space="preserve">
<g>
	<g>
		<path d="M940.5,306.9c-1.8-2.2-1.2-4.8-2.4-6.9c-0.4-0.6-0.3-1.9,0.2-2.8c1.2-2.1,0.8-4.1,0.1-6.4c-0.7-2.3-0.4-4.9-0.5-7.3
			c0.7-0.3,1.3-0.5,1.9-0.7c0.2-0.2,0-0.8-0.3-0.7c-2.7,1-3.1-2.8-5.5-2.1c0-3.4,0-6.4,0-9.5c0.4-0.4,0.9-0.8,1.7-1.5
			c7.4,0.8,14.9-1.7,22.7-0.9c4.9-1.5,10.1-0.7,15.1-1.1c2-0.2,4-1,6.5-0.8c2.4,10,5.9,20,6.3,31c-7.1-0.6-13.6,1.7-20.3,0.9
			c-5.1,1.5-10.3,0.8-15.8,1.1c0,2.3,0.3,4.6-1.6,6.8C946,305.5,943.5,307.8,940.5,306.9z"/>
	</g>
</g>
</svg>
