<?xml version="1.0" encoding="utf-8"?>
<!-- Generator: Adobe Illustrator 17.1.0, SVG Export Plug-In . SVG Version: 6.00 Build 0)  -->
<!DOCTYPE svg PUBLIC "-//W3C//DTD SVG 1.1//EN" "http://www.w3.org/Graphics/SVG/1.1/DTD/svg11.dtd">
<svg version="1.1" id="Layer_1" xmlns="http://www.w3.org/2000/svg" xmlns:xlink="http://www.w3.org/1999/xlink" x="0px" y="0px"
	 viewBox="0 0 1440 937" enable-background="new 0 0 1440 937" xml:space="preserve">
<g>
	<g>
		<path d="M1025.7,670.8c-1,1-1.5,1.5-1.9,1.9c-0.3,0.1-0.6,0.2-0.9,0.2c-6.7-0.5-13.3,1.8-20.1,1c-3.9,1.6-8.2,0.3-12,1.2
			c-3.6,0.8-7,0.7-10.5,0.9c-2.7-12.8-5.3-25.3-8-38.3c1.8-2.6,0.2-6.1,0.9-9.6c7.6,0.1,15-2.5,22.6-0.4c0.5-0.5,1.1-1.1,1.7-1.7
			c2.6,0,5.4,0.6,7.9-0.1c3.7-1.2,7.4-0.6,11.3-0.9c2.4,6.7,2.8,14,5,20.5c1.9,1.1,3.6,0,5.3,1c-0.6,2.5,0.7,4.8,1.2,7.3
			c1.1,0.6,2.8-0.4,3.6,2c0,0.8,0,2.3,0,4.1c-0.2,0.4-1,0-1.7,0.5c-0.7,3.1,2,6,0.7,9.4c-0.2,0.2-0.6,0.6-1.1,1.1
			C1028.4,670.8,1027,670.8,1025.7,670.8z"/>
	</g>
</g>
</svg>
