<?xml version="1.0" encoding="utf-8"?>
<!-- Generator: Adobe Illustrator 17.1.0, SVG Export Plug-In . SVG Version: 6.00 Build 0)  -->
<!DOCTYPE svg PUBLIC "-//W3C//DTD SVG 1.1//EN" "http://www.w3.org/Graphics/SVG/1.1/DTD/svg11.dtd">
<svg version="1.1" id="Layer_1" xmlns="http://www.w3.org/2000/svg" xmlns:xlink="http://www.w3.org/1999/xlink" x="0px" y="0px"
	 viewBox="0 0 1440 937" enable-background="new 0 0 1440 937" xml:space="preserve">
<g>
	<g>
		<path d="M577.9,641.6c0.1,0.6,0.1,1.4,0.2,2.5c4.1-0.5,8,0.3,12.1-0.9c2.9-0.9,6.2-0.2,9.3-0.2c1.9,6.5,1,13.2,3,20.1
			c-6.8-0.6-12.6,1.6-18.7,0.9c-1.2-0.1-2.6-0.3-3.8,1.2c0.4-3.8-2.3-5.4-4.7-6c-1.9-0.4-3.9-1.6-6-1.2c-0.3,0-0.7,0.1-1,0
			c-4-2.4-7.1,0.3-10.5,1.6c-3.1,1.1-5.7,2.6-7.9,5c0.4,0.4,0.7,0.8,0.9,1c0.3,1.1-0.6,1.5-1.3,2.3c-3.3,0-6.7,0-10,0
			c-0.6,0.6-1.1,1.1-1.6,1.6c0.3,0.5,0.7,1,0.9,1.3c0,1.3-1,1.5-1.4,2.2c-5.9,0.1-11.6,1.8-17.5,1.1c-3.8,1.4-7.9,0.3-11.5,1.2
			c-3.8,0.9-7.4,0.5-11.1,0.9c-0.8-3.4-1.9-6.6-1.5-10c0.5-3.4-0.6-6.7-1.4-9.9c-0.3,0-0.6-0.1-1-0.1c-0.1,0.1-0.3,0.1-0.4,0.2
			c-0.1,0.1-0.3,0.3-0.3,0.4c0,6.7,0,13.3,0,20.2c-2.9,0-5.6,0-8.6,0c-1.6-1.6-1.6-3.9-1.3-6.1c0.7-5.1-1.9-10-1-14.6
			c-0.4-2.1-2.7-1.5-3.1-3c0.4-2,2.1-0.6,3-1.6c0.1-0.6,0.1-1.4,0.2-2.2c0.3-0.1,0.6-0.4,0.8-0.4c6.2,0.6,12.4-0.8,18.6-1.3
			c6.5-0.5,13.1-1.4,19.7-2c4.2-0.4,8.5-0.1,12.6-0.9c4.1-0.8,8.2-0.1,12.1-1.1c3.3-0.8,6.4-0.7,9.6-0.7c5.7,0,11.3-1.7,17.1-1.1
			C574.2,642.1,575.6,640.1,577.9,641.6z"/>
	</g>
</g>
</svg>
