<?xml version="1.0" encoding="utf-8"?>
<!-- Generator: Adobe Illustrator 17.1.0, SVG Export Plug-In . SVG Version: 6.00 Build 0)  -->
<!DOCTYPE svg PUBLIC "-//W3C//DTD SVG 1.1//EN" "http://www.w3.org/Graphics/SVG/1.1/DTD/svg11.dtd">
<svg version="1.1" id="Layer_1" xmlns="http://www.w3.org/2000/svg" xmlns:xlink="http://www.w3.org/1999/xlink" x="0px" y="0px"
	 viewBox="0 0 1440 937" enable-background="new 0 0 1440 937" xml:space="preserve">
<g>
	<g>
		<path d="M998.3,593c1.5,0,2.8,0,4.3,0c0.4,0.4,1.2,0.9,1.2,1.4c0.2,4.1,1.6,8.1,2.4,12.1c0.7,3.6,1.3,7.3,2.6,10.9
			c0.8,2.1-0.8,4.6,1.1,5.6c0.3,1.9-0.7,2.2-1.2,2.9c-3.2,0-6.5,0-9.6,0c-1.4,0.8-2.6,1.4-3.9,2.1c-3.2-1.4-9.8-1.4-12.8,0.1
			c-1.5-2.4-2.6-5-3.2-7.7c-0.8-3.7-1.5-7.4-2.3-11.1c-0.8-3.6-1-7.4-2.6-10.9c-0.8-1.7-0.7-4-1.1-6c-0.7-4.3-1.7-8.6-2.8-12.8
			c-0.6-2.1-1-4.3-1.2-6.5c-0.2-2.7-1.8-5.3-1.1-8.1c-1.8-3.9-1.2-8.3-3-12.3c-0.3-0.7,0-1.6,0-2.4c6.8-4.5,14.4-3.1,21.6-3.3
			c1.6,3.5,2.5,7,2.5,10.4c1.1,1.6,1.4,3.3,3,4.1c-0.6,2.7,0.8,5.6-0.9,8.1c2.4,4.4,4.5,8.8,4.9,14c0.2,1.7,0.3,3.8,1.3,5.4
			C998.3,590.2,997.6,591.4,998.3,593z"/>
	</g>
</g>
</svg>
