<?xml version="1.0" encoding="utf-8"?>
<!-- Generator: Adobe Illustrator 17.1.0, SVG Export Plug-In . SVG Version: 6.00 Build 0)  -->
<!DOCTYPE svg PUBLIC "-//W3C//DTD SVG 1.1//EN" "http://www.w3.org/Graphics/SVG/1.1/DTD/svg11.dtd">
<svg version="1.1" id="Layer_1" xmlns="http://www.w3.org/2000/svg" xmlns:xlink="http://www.w3.org/1999/xlink" x="0px" y="0px"
	 viewBox="0 0 1440 937" enable-background="new 0 0 1440 937" xml:space="preserve">
<g>
	<g>
		<path d="M847.2,307.1c-0.2-1.7,0-3.1-1.6-3.9c-4.4-1-8.8,0.5-13.3,1c-0.9,0.7,0.3,2-0.7,2.7c-0.2-0.2-0.6-0.4-0.6-0.5
			c0-3.4-1-6.5-1.8-9.8c-0.5-2-0.1-4.2-0.1-6.3c6.5-0.5,13-0.9,19.5-1.4c0.7-0.7,0.2-1.6,0.4-2.4c3.8-1.2,7.8-1.8,11.8-1.5
			c6.2,0.5,12.3-1.7,18.6-1c3.9-1.8,8.1-0.3,12.1-1.1c5.2-1.1,10.5-0.1,15.6-1.1c4.7-0.9,9.5,0,14.1-1c4.8-1,9.4-0.5,13.8-0.9
			c1.8,0.9,3.3,1.7,5.3,2.7c-1,0.4-2,0.7-2.1,0.7c-0.8,5.8,2.1,10.3,0.2,15.7c0.1-0.1-0.4,0.3-1,0.9c-5.1-0.4-10.4,2-16,0.8
			c-0.5-0.6-2-0.9-1.2-2.8c-3.5,0-6.7,0.1-9.8,0c-3.1-0.1-5.9,1.9-8.9,0.9c-1,1.2-0.2,2.4-0.8,3.9c-3-0.3-6.1,1.5-9.5,1.3
			c-3.2-0.2-6.5-0.3-9.6,0.5c-2.3-0.5-0.8-3.8-3.3-4.5c-3.8,1.9-8,0.4-12.1,1.2c0,1.1,0,2.2,0,3.1c-0.6,0.6-1.1,1.1-1.6,1.6
			c-2.8,0-5.8-0.7-8.4,0.2C853.2,307.2,850.4,306.7,847.2,307.1z"/>
	</g>
</g>
</svg>
