<?xml version="1.0" encoding="utf-8"?>
<!-- Generator: Adobe Illustrator 17.1.0, SVG Export Plug-In . SVG Version: 6.00 Build 0)  -->
<!DOCTYPE svg PUBLIC "-//W3C//DTD SVG 1.1//EN" "http://www.w3.org/Graphics/SVG/1.1/DTD/svg11.dtd">
<svg version="1.1" id="Layer_1" xmlns="http://www.w3.org/2000/svg" xmlns:xlink="http://www.w3.org/1999/xlink" x="0px" y="0px"
	 viewBox="0 0 1440 937" enable-background="new 0 0 1440 937" xml:space="preserve">
<g>
	<g>
		<path d="M465.9,390.7c0.9-5-1.5-9.7-0.9-14.6c-1.9-3.4-1.2-7.1-0.8-10.5c0.3-2.3,0.8-4.7,0.8-7.2c-2.5-1.6-1.2-5.1-3.2-7.3
			c-1.4,0-2.8,0-4.5,0c-1.9-12.3-2.2-24.5-3.6-36.7c2.2-0.6,4.2-1.2,6.2-1.8c0.1-1.1,0.1-2.2,0.2-3.3c3.6-1.5,7-3.2,9.6-6.7
			c1.1,1.2,2.1,2.2,3.1,3.3c2.7-0.4,4.3,2.8,7.3,1.8c-0.3,5.1,0.2,9.6,1.9,14c0.1,0.1,0,0.3,0,0.5c-0.7,4.9,1.4,9.6,1.1,14.6
			c-0.3,5,1.6,10,0.9,15.1c1.7,2.7,0.9,5.7,1,8.6c0,3.1,1.5,5.9,1.1,9.1c-0.3,3-0.7,6.2,0.1,8.9c1.1,3.7,0.5,7.4,0.9,11.5
			c-1.6,0-3.1,0.1-4.5,0C477.2,389.4,471.9,391.9,465.9,390.7z"/>
	</g>
</g>
</svg>
