<?xml version="1.0" encoding="utf-8"?>
<!-- Generator: Adobe Illustrator 17.1.0, SVG Export Plug-In . SVG Version: 6.00 Build 0)  -->
<!DOCTYPE svg PUBLIC "-//W3C//DTD SVG 1.1//EN" "http://www.w3.org/Graphics/SVG/1.1/DTD/svg11.dtd">
<svg version="1.1" id="Layer_1" xmlns="http://www.w3.org/2000/svg" xmlns:xlink="http://www.w3.org/1999/xlink" x="0px" y="0px"
	 viewBox="0 0 1440 937" enable-background="new 0 0 1440 937" xml:space="preserve">
<g>
	<g>
		<path d="M1053.4,558.2c2.7,1.1,2.7,3.7,3.4,5.7c0.6,1.5-0.3,3.6,1.1,5c-0.4,4.2,2,8.3,0.7,12.8c-0.2,0.2-0.7,0.7-1.2,1.2
			c-2.3,0-4.7-0.4-6.9,0.1c-4.7,1.1-9.5,0.3-14.1,1.1c-3.4,0.6-6.8,0.2-10.1,0.9c-4.7,1-9.6,0.1-14.1,1.1
			c-5.1,1.2-10.1,0.1-14.8,0.9c-2.1-2.2-1.2-4.9-2.1-7.1c-1.2-2.9-2.1-5.8-3.7-8.5c-0.9-1.6-1.4-3.1-0.4-4.4
			c0.9-1.3,0.2-2.6,0.6-3.7c5.2-1,10.5-1.8,15.9-1.4c2.5,0.2,4.5-1.5,7.1-1.1c2.4,0.4,5.2,0.7,7.4-0.1c3.7-1.2,7.5-0.2,11.1-1
			c4.5-1,9.1-0.7,13.6-1C1049.3,558.8,1051.2,557.4,1053.4,558.2z"/>
	</g>
</g>
</svg>
