<?xml version="1.0" encoding="utf-8"?>
<!-- Generator: Adobe Illustrator 17.1.0, SVG Export Plug-In . SVG Version: 6.00 Build 0)  -->
<!DOCTYPE svg PUBLIC "-//W3C//DTD SVG 1.1//EN" "http://www.w3.org/Graphics/SVG/1.1/DTD/svg11.dtd">
<svg version="1.1" id="Layer_1" xmlns="http://www.w3.org/2000/svg" xmlns:xlink="http://www.w3.org/1999/xlink" x="0px" y="0px"
	 viewBox="0 0 1440 937" enable-background="new 0 0 1440 937" xml:space="preserve">
<g>
	<g>
		<path d="M403.8,381.1c1-4.1-1.1-7.3-0.9-11c0.3-3.5,0.5-7.1-1.3-10.8c3.7-0.5,7.2-1.4,10.6-1.2c7.4,0.3,14.6-1.8,22-1.1
			c4.4-1.8,9.1-0.2,13.5-1.1c4.9-1.1,9.7-0.6,14.5-0.9c1.7,0.6,1.5,2.5,2.6,3.4c0.4,3.1-0.1,6-0.9,9c-0.8,3.1,1.2,6,1,9.1
			c-0.9,1-2.2,0.5-3.3,0.4c-6,0-12,1.7-18,1c-4.2,1.7-8.8,0.3-13,1.1c-4.7,0.9-9.5,0.2-14,1.1C412.5,381,408.5,380.7,403.8,381.1z"
			/>
	</g>
</g>
</svg>
