<?xml version="1.0" encoding="utf-8"?>
<!-- Generator: Adobe Illustrator 17.1.0, SVG Export Plug-In . SVG Version: 6.00 Build 0)  -->
<!DOCTYPE svg PUBLIC "-//W3C//DTD SVG 1.1//EN" "http://www.w3.org/Graphics/SVG/1.1/DTD/svg11.dtd">
<svg version="1.1" id="Layer_1" xmlns="http://www.w3.org/2000/svg" xmlns:xlink="http://www.w3.org/1999/xlink" x="0px" y="0px"
	 viewBox="0 0 1440 937" enable-background="new 0 0 1440 937" xml:space="preserve">
<g>
	<g>
		<path d="M550.2,664.6c8.6-7.4,15.3-10.3,29.9-3.3c-0.8,5.1,1.6,10.1,1,15.3c-0.2,2.1,1.4,3.8,1.1,6.1c-0.3,2-0.6,4.2,0.9,6.1
			c-0.7,6,2.1,11.9,0.7,18.2c-6.9-0.7-13.6,1.6-20.5,1c-2.2-0.2-4.2,1.3-6.6,1c-1.2-0.1-1.7-0.8-2.6-1.6c0-1.5-0.1-3.1,0-4.8
			c0.3-4.6-1.8-9-1-13.6c-1.7-2.7-1-5.7-0.9-8.6c0-2-1.4-3.5-1.1-5.6c0.3-2,0.3-4,0-6C550.7,667.7,549.3,666.5,550.2,664.6z"/>
	</g>
</g>
</svg>
