<?xml version="1.0" encoding="utf-8"?>
<!-- Generator: Adobe Illustrator 17.1.0, SVG Export Plug-In . SVG Version: 6.00 Build 0)  -->
<!DOCTYPE svg PUBLIC "-//W3C//DTD SVG 1.1//EN" "http://www.w3.org/Graphics/SVG/1.1/DTD/svg11.dtd">
<svg version="1.1" id="Layer_1" xmlns="http://www.w3.org/2000/svg" xmlns:xlink="http://www.w3.org/1999/xlink" x="0px" y="0px"
	 viewBox="0 0 1440 937" enable-background="new 0 0 1440 937" xml:space="preserve">
<g>
	<g>
		<path d="M848.2,288.1c-2.7-12.8-5.4-25.5-7.4-37.4c0.4-2.1,1.6-1.5,2.1-2.1c2.7-2.9,6.4-3.2,10-3.5c3.5-0.3,7-0.1,10.6-0.1
			c0.8,1.7,2.9,1.8,4,3c2.4,11.9,4.7,23.8,7.1,35.8c-2.5-0.4-5.1,1.1-8,1.2c-2.9,0.1-5.7-0.3-8.6,0.7c-2.6,0.9-5.8,0.2-8.6,0.2
			C848.8,286.8,849.2,287.6,848.2,288.1z"/>
	</g>
</g>
</svg>
