<?xml version="1.0" encoding="utf-8"?>
<!-- Generator: Adobe Illustrator 17.1.0, SVG Export Plug-In . SVG Version: 6.00 Build 0)  -->
<!DOCTYPE svg PUBLIC "-//W3C//DTD SVG 1.1//EN" "http://www.w3.org/Graphics/SVG/1.1/DTD/svg11.dtd">
<svg version="1.1" id="Layer_1" xmlns="http://www.w3.org/2000/svg" xmlns:xlink="http://www.w3.org/1999/xlink" x="0px" y="0px"
	 viewBox="0 0 1440 937" enable-background="new 0 0 1440 937" xml:space="preserve">
<g>
	<g>
		<path d="M387.6,382c-2.1-4-1.3-8-1.7-11.8c-0.6-6.8-1.2-13.6-1-20.5c0-1.7-1.3-3.2-1-5.1c0.1-1.2,0.8-1.7,1.6-2.7
			c4.9,0.6,10-0.4,14.9-1c1.9,3.6,1.8,7.2,1.5,10.7c-0.3,3.6,1.2,7,1.1,10.6c-0.1,3.5-0.6,7.1,0.2,10.4c0.6,2.7,0.6,5.4,0.9,8
			C398.6,382.6,393,381.9,387.6,382z"/>
	</g>
</g>
</svg>
