<?xml version="1.0" encoding="utf-8"?>
<!-- Generator: Adobe Illustrator 17.1.0, SVG Export Plug-In . SVG Version: 6.00 Build 0)  -->
<!DOCTYPE svg PUBLIC "-//W3C//DTD SVG 1.1//EN" "http://www.w3.org/Graphics/SVG/1.1/DTD/svg11.dtd">
<svg version="1.1" id="Layer_1" xmlns="http://www.w3.org/2000/svg" xmlns:xlink="http://www.w3.org/1999/xlink" x="0px" y="0px"
	 viewBox="0 0 1440 937" enable-background="new 0 0 1440 937" xml:space="preserve">
<g>
	<g>
		<path d="M868.2,250.8c-0.5-1.3-1-2.4-1.5-3.6c-1.3-0.8-3-0.9-4.2-2.2c-2.7,0-5.6,0.2-8.3-0.1c-2.7-0.3-4.9,2.3-7.2,0.9
			c-2.3,1.6-4.2,3-6.6,4.7c-0.3-5.4-2.1-10.1-1.2-15.2c3.8-1.9,7.9-1.5,11.9-1.3c2.9,0.1,5.7-0.6,8.6-1c2.9-0.4,6.2,0.6,8.9-0.2
			c5.4-1.5,10.7-0.3,15.9-0.9c0.5,0.5,0.9,0.9,1.6,1.6c-0.9,2.5,1.1,4.9,1,7.6c-0.1,2.8,0,5.6,0,8.6
			C880.8,250.2,874.7,251.7,868.2,250.8z"/>
	</g>
</g>
</svg>
