<?xml version="1.0" encoding="utf-8"?>
<!-- Generator: Adobe Illustrator 17.1.0, SVG Export Plug-In . SVG Version: 6.00 Build 0)  -->
<!DOCTYPE svg PUBLIC "-//W3C//DTD SVG 1.1//EN" "http://www.w3.org/Graphics/SVG/1.1/DTD/svg11.dtd">
<svg version="1.1" id="Layer_1" xmlns="http://www.w3.org/2000/svg" xmlns:xlink="http://www.w3.org/1999/xlink" x="0px" y="0px"
	 viewBox="0 0 1440 937" enable-background="new 0 0 1440 937" xml:space="preserve">
<g>
	<g>
		<path d="M1080.7,588.8c-0.9,2-2.9,0.9-4.4,1.4c-0.5,1.5-1.8,2.7-1.3,4.7c-4.2,0.4-8.5-0.2-12.5,0.7c-2.2-0.3-0.9-2.9-2.5-3.9
			c0.5-3.1-1.7-5.9-1.1-9c0.8-4.3-0.6-8.4-1.2-12.5c-0.5-3.2-0.8-6.5-2.6-10.3c0.1,0.1-0.5-0.5-1.1-1.1c-0.1-1.6-0.5-3.3,1.2-4.4
			c3.8-0.6,7.7,0.3,11.5-1.1c1.4-0.5,3.2-0.1,5.3-0.1c1.7,5.9,2.5,12,4.2,17.8C1078.1,576.6,1078.9,582.6,1080.7,588.8z"/>
	</g>
</g>
</svg>
