<?xml version="1.0" encoding="utf-8"?>
<!-- Generator: Adobe Illustrator 17.1.0, SVG Export Plug-In . SVG Version: 6.00 Build 0)  -->
<!DOCTYPE svg PUBLIC "-//W3C//DTD SVG 1.1//EN" "http://www.w3.org/Graphics/SVG/1.1/DTD/svg11.dtd">
<svg version="1.1" id="Layer_1" xmlns="http://www.w3.org/2000/svg" xmlns:xlink="http://www.w3.org/1999/xlink" x="0px" y="0px"
	 viewBox="0 0 1440 937" enable-background="new 0 0 1440 937" xml:space="preserve">
<g>
	<g>
		<path d="M534.4,732.2c-1.2-7-1.2-13.8-2-20.9c1.9-0.4,4.1-1.5,6.7-1.4c6.4,0.2,12.6-1.7,19.1-0.9c4.1-1.6,8.5-0.1,12.5-1.2
			c4.8-1.2,9.4-0.4,14.5-0.9c-1,3.9,1,7.1,0.9,10.7c-0.1,3.3-0.8,6.8,1.1,9.9c-4.8,0.9-9.3,1.1-13.7,1.6c-4.5,0.5-9.2,0.2-13.6,1
			c-4.2,0.8-8.6-0.1-12.5,1C542.9,732.4,538.6,731.4,534.4,732.2z"/>
	</g>
</g>
</svg>
