<?xml version="1.0" encoding="utf-8"?>
<!-- Generator: Adobe Illustrator 17.1.0, SVG Export Plug-In . SVG Version: 6.00 Build 0)  -->
<!DOCTYPE svg PUBLIC "-//W3C//DTD SVG 1.1//EN" "http://www.w3.org/Graphics/SVG/1.1/DTD/svg11.dtd">
<svg version="1.1" id="Layer_1" xmlns="http://www.w3.org/2000/svg" xmlns:xlink="http://www.w3.org/1999/xlink" x="0px" y="0px"
	 viewBox="0 0 1440 937" enable-background="new 0 0 1440 937" xml:space="preserve">
<g>
	<g>
		<path d="M1024.2,539c2.6,2.6,1,5.6,2.1,7.7c1.5,2.8,0.2,4.9-0.7,7.3c-2.5,0-5.1-0.3-7.5,0.1c-2.5,0.4-5,1-7.6,1
			c-2.4,0-4.9-0.9-7.1,0.9c-1.3-1.2-2.5-2.7-2.3-4.4c0.2-1.8-1.4-2.9-1.2-4.6c0.2-1.8,0.1-3.6,0.1-5.4c0.5-0.5,1-1,1.6-1.6
			C1009.2,540.8,1016.8,538.2,1024.2,539z"/>
	</g>
</g>
</svg>
