<?xml version="1.0" encoding="utf-8"?>
<!-- Generator: Adobe Illustrator 17.1.0, SVG Export Plug-In . SVG Version: 6.00 Build 0)  -->
<!DOCTYPE svg PUBLIC "-//W3C//DTD SVG 1.1//EN" "http://www.w3.org/Graphics/SVG/1.1/DTD/svg11.dtd">
<svg version="1.1" id="Layer_1" xmlns="http://www.w3.org/2000/svg" xmlns:xlink="http://www.w3.org/1999/xlink" x="0px" y="0px"
	 viewBox="0 0 1440 937" enable-background="new 0 0 1440 937" xml:space="preserve">
<g>
	<g>
		<path d="M384.4,406.9c-1.4-6-1.7-11.8-1.2-17.8c1.8,0,3.6,0,5.2,0c1.2-1.1,0.2-2.4,1.1-3.8c0.6-0.3,1.7-0.9,2.7-1.4
			c1.8,0.7,2.1,2,1.9,3.7c6,1.4,11.8-0.6,17.9-0.7c-0.2,6.1,2.1,11.8,0.7,18.1c-1.2,0-2.6,0-4.1,0c-6-0.1-11.9,1.4-18,1.2
			C388.7,406.1,386.6,407.2,384.4,406.9z"/>
	</g>
</g>
</svg>
