<?xml version="1.0" encoding="utf-8"?>
<!-- Generator: Adobe Illustrator 17.1.0, SVG Export Plug-In . SVG Version: 6.00 Build 0)  -->
<!DOCTYPE svg PUBLIC "-//W3C//DTD SVG 1.1//EN" "http://www.w3.org/Graphics/SVG/1.1/DTD/svg11.dtd">
<svg version="1.1" id="Layer_1" xmlns="http://www.w3.org/2000/svg" xmlns:xlink="http://www.w3.org/1999/xlink" x="0px" y="0px"
	 viewBox="0 0 1440 937" enable-background="new 0 0 1440 937" xml:space="preserve">
<g>
	<g>
		<path d="M600.1,714.1c-2.1-3.2-0.6-6.5-1.2-9.6c1.2-0.9,2.4-0.3,3.5-0.5c0.7-0.8,2.1-1.2,1.6-2.5c6.2-3,11.9-0.9,18,0.9
			c-0.8,4.2,1.5,8.3,1,12.7c2,4,0.1,8.5,1.7,12.7c-0.1,0.1-0.3,0.3-0.5,0.5c-0.2,0.2-0.5,0.6-0.7,0.6c-7.3,0-14.6,2.1-22.3,0.7
			c-0.2-2.3,0.4-5.2-2.2-7.2C599.5,719.8,598,716.9,600.1,714.1z"/>
	</g>
</g>
</svg>
