<?xml version="1.0" encoding="utf-8"?>
<!-- Generator: Adobe Illustrator 17.1.0, SVG Export Plug-In . SVG Version: 6.00 Build 0)  -->
<!DOCTYPE svg PUBLIC "-//W3C//DTD SVG 1.1//EN" "http://www.w3.org/Graphics/SVG/1.1/DTD/svg11.dtd">
<svg version="1.1" id="Layer_1" xmlns="http://www.w3.org/2000/svg" xmlns:xlink="http://www.w3.org/1999/xlink" x="0px" y="0px"
	 viewBox="0 0 1440 937" enable-background="new 0 0 1440 937" xml:space="preserve">
<g>
	<g>
		<path d="M1069.2,531c3.2,2.1,2,5.5,3.8,7.5c-0.7,3.8,1.5,7.3,0.9,11.1c-1.4,0.7-3.2,0.1-4.1,1.6c-0.6-0.6-1-0.9-1-1
			c-2.7,0.2-4.6,3-7.6,0.8c-1.1-0.8-3.4-0.6-4.9,0c-4.3,1.8-8.7,0.4-13.1,1c-0.7-6.4-3.6-12.3-3.2-19.1c1.5,0,3,0,4.4,0
			c6,0.1,11.9-1.7,18-1C1064.7,530.7,1067.1,531,1069.2,531z"/>
	</g>
</g>
</svg>
