<?xml version="1.0" encoding="utf-8"?>
<!-- Generator: Adobe Illustrator 17.1.0, SVG Export Plug-In . SVG Version: 6.00 Build 0)  -->
<!DOCTYPE svg PUBLIC "-//W3C//DTD SVG 1.1//EN" "http://www.w3.org/Graphics/SVG/1.1/DTD/svg11.dtd">
<svg version="1.1" id="Layer_1" xmlns="http://www.w3.org/2000/svg" xmlns:xlink="http://www.w3.org/1999/xlink" x="0px" y="0px"
	 viewBox="0 0 1440 937" enable-background="new 0 0 1440 937" xml:space="preserve">
<g>
	<g>
		<path d="M1117.4,506.9c0.9,0.9,1.8,1.8,2.5,2.5c0,4.2,0,8.3,0,12.6c-0.7-0.4-1.2-0.7-1.7-1c-1-0.2-1.3,0.8-2.1,1.4
			c0,1.3,0,2.8,0,3.9c-0.7,0.8-1.1,1.3-1.5,1.7c-2.5,0.3-4.1-1.7-6.2-2.1c-0.5-1-0.5-2.3-2-2.6c-1.6,1.2-3.5,2-5.9,1.8
			c-6.7-0.5-13.3,1.7-20.1,0.9c-1.2-0.1-1.5,1.3-3,0.9c-3-7.1-3.9-14.7-3.2-22.7c3,0,5.8-1.5,9-1.3c3,0.2,6,0.2,9.1-0.7
			c2.9-0.9,6.2-0.2,8.4-0.2c3.8,1.1,1.1,4.5,3.5,5.6C1108.5,506.3,1113,507.5,1117.4,506.9z"/>
	</g>
</g>
</svg>
