<?xml version="1.0" encoding="utf-8"?>
<!-- Generator: Adobe Illustrator 17.1.0, SVG Export Plug-In . SVG Version: 6.00 Build 0)  -->
<!DOCTYPE svg PUBLIC "-//W3C//DTD SVG 1.1//EN" "http://www.w3.org/Graphics/SVG/1.1/DTD/svg11.dtd">
<svg version="1.1" id="Layer_1" xmlns="http://www.w3.org/2000/svg" xmlns:xlink="http://www.w3.org/1999/xlink" x="0px" y="0px"
	 viewBox="0 0 1440 937" enable-background="new 0 0 1440 937" xml:space="preserve">
<g>
	<g>
		<path d="M358.1,428.6c0,0-0.3-0.3-0.7-0.7c-2.9,1-5.7,1.8-8.8,0.3c-0.9-0.5-2.4-0.6-3.4-0.2c-3.5,1.7-7.1,0.5-10.5,1
			c-1.8-1.6-1.8-3.7-1.8-5.8c0-1.7,0.2-3.4-0.9-5.1c-0.9-1.5,0.2-3.4,1.8-5.1c0.4,0,1.6-0.1,2.7-0.1c1.1-0.6,1.3-1.7,1.7-2.7
			c3.9-1.6,5.8,3.1,9.3,2.8c1-1.9,0-3.9,0.6-5.8c5.8-0.9,11.6-1.4,17.4-1.4c3,0,5.9-1.4,9.4-0.6c-0.9,3.5,1,6.8,0.9,10.3
			c0,3.7,0,7.3,0,11.4c-3.1-0.6-5.9,0.9-8.9,1C364.2,428.1,361.2,427.5,358.1,428.6z"/>
	</g>
</g>
</svg>
