<?xml version="1.0" encoding="utf-8"?>
<!-- Generator: Adobe Illustrator 17.1.0, SVG Export Plug-In . SVG Version: 6.00 Build 0)  -->
<!DOCTYPE svg PUBLIC "-//W3C//DTD SVG 1.1//EN" "http://www.w3.org/Graphics/SVG/1.1/DTD/svg11.dtd">
<svg version="1.1" id="Layer_1" xmlns="http://www.w3.org/2000/svg" xmlns:xlink="http://www.w3.org/1999/xlink" x="0px" y="0px"
	 viewBox="0 0 1440 937" enable-background="new 0 0 1440 937" xml:space="preserve">
<g>
	<g>
		<path d="M778.3,238c-3.4-9.8-2.8-19.8-4.4-29.5c3.9-1,5.9-6.2,10.9-4.2c0.3,0.3,0.8,0.7,1.2,1.2c0.2,0.4-0.2,1,0.8,1.5
			c1.8-0.7,3.5,1.2,5.7,1c0.8,1.7,1.4,3.7,4.3,2.8c0.4,2.7,0.5,5.1-2.8,6.6c0.5,6.3,2.9,12.6,1.7,19.6c-2.8-0.7-5.3,1.2-8.2,1.1
			C784.5,237.9,781.5,238,778.3,238z"/>
	</g>
</g>
</svg>
