<?xml version="1.0" encoding="utf-8"?>
<!-- Generator: Adobe Illustrator 17.1.0, SVG Export Plug-In . SVG Version: 6.00 Build 0)  -->
<!DOCTYPE svg PUBLIC "-//W3C//DTD SVG 1.1//EN" "http://www.w3.org/Graphics/SVG/1.1/DTD/svg11.dtd">
<svg version="1.1" id="Layer_1" xmlns="http://www.w3.org/2000/svg" xmlns:xlink="http://www.w3.org/1999/xlink" x="0px" y="0px"
	 viewBox="0 0 1440 937" enable-background="new 0 0 1440 937" xml:space="preserve">
<g>
	<g>
		<path d="M591.2,778c-0.3,0-0.9,0-1.6,0c-6.4-0.5-12.6,1.8-19.1,1c-4.2,1.8-8.9,0.1-13,1.1c-6.1,1.5-12.1,0.2-17.9,1
			c-1-0.7-0.5-2.1-1.6-2.6c0.6-6.4-1.5-12.6-1.1-19.1c0.4-0.4,0.9-0.8,1.7-1.5c7.3,0.9,14.7-1.6,22.2-0.9c4.4-1.6,9.1-0.3,13.5-1.2
			c3.6-0.8,7.1-0.7,10.6-0.8c1.9,0,3.5-2,5.7-0.6c1.4,2.8,0.8,6.2,1.4,9.5c0.7,3.7,0.7,7.4,0.9,11.1
			C593.1,776.3,592.6,777.2,591.2,778z"/>
	</g>
</g>
</svg>
