<?xml version="1.0" encoding="utf-8"?>
<!-- Generator: Adobe Illustrator 17.1.0, SVG Export Plug-In . SVG Version: 6.00 Build 0)  -->
<!DOCTYPE svg PUBLIC "-//W3C//DTD SVG 1.1//EN" "http://www.w3.org/Graphics/SVG/1.1/DTD/svg11.dtd">
<svg version="1.1" id="Layer_1" xmlns="http://www.w3.org/2000/svg" xmlns:xlink="http://www.w3.org/1999/xlink" x="0px" y="0px"
	 viewBox="0 0 1440 937" enable-background="new 0 0 1440 937" xml:space="preserve">
<g>
	<g>
		<path d="M1141.7,592c-1.8,0.1-2.2-1.3-3.3-2c-3,0-6.2-0.5-9.2,0.2c-2.2,0.5-4.4,0.7-6.7,0.8c-1.7-2.3-1.8-5.2-2.5-7.9
			c-1.7-6.1-3-12.3-4.8-18.5c-0.8-2.8-1-5.8-2.2-8.6c-0.2-0.4-0.2-1.2,0-1.4c1.5-1.5,0.8-3.4,1-5c3.2-2,6.8-1.6,10.3-1.7
			c2.6,0,5.2,0.4,7.2-1c3.4,0.4,2,3.6,3.6,4.8c0.4,4.2,2.1,8.1,2.9,12.2c1.1,6.2,3.5,12,4.1,18.3
			C1144.6,585.7,1142,588.8,1141.7,592z"/>
	</g>
</g>
</svg>
