<?xml version="1.0" encoding="utf-8"?>
<!-- Generator: Adobe Illustrator 17.1.0, SVG Export Plug-In . SVG Version: 6.00 Build 0)  -->
<!DOCTYPE svg PUBLIC "-//W3C//DTD SVG 1.1//EN" "http://www.w3.org/Graphics/SVG/1.1/DTD/svg11.dtd">
<svg version="1.1" id="Layer_1" xmlns="http://www.w3.org/2000/svg" xmlns:xlink="http://www.w3.org/1999/xlink" x="0px" y="0px"
	 viewBox="0 0 1440 937" enable-background="new 0 0 1440 937" xml:space="preserve">
<g>
	<g>
		<path d="M327.1,387.4c0-8.9-1.7-16.8-1.1-24.9c0.2-2.2,0.7-4.6-0.1-6.4c-1.2-2.9-0.5-5.8-0.9-8.5c0.7-0.9,2.1-0.4,2.5-1.6
			c2.5,0,5,0.1,7.5,0c2.4-0.1,4.9,0.7,7.1-1c1,0,1.2,1,2.1,1.5c-1,4,1.3,7.8,1,11.9c-0.3,4.1-0.7,8.5,0.1,12.5
			c1,4.9,0.6,9.7,0.9,14.6c-0.5,0.5-1,1-1.5,1.5c-2.4,0-4.9-0.1-7.4,0c-1.6,0.1-3.1-0.4-4.7,0.9C330.9,389.2,329.4,386,327.1,387.4z
			"/>
	</g>
</g>
</svg>
