<?xml version="1.0" encoding="utf-8"?>
<!-- Generator: Adobe Illustrator 17.1.0, SVG Export Plug-In . SVG Version: 6.00 Build 0)  -->
<!DOCTYPE svg PUBLIC "-//W3C//DTD SVG 1.1//EN" "http://www.w3.org/Graphics/SVG/1.1/DTD/svg11.dtd">
<svg version="1.1" id="Layer_1" xmlns="http://www.w3.org/2000/svg" xmlns:xlink="http://www.w3.org/1999/xlink" x="0px" y="0px"
	 viewBox="0 0 1440 937" enable-background="new 0 0 1440 937" xml:space="preserve">
<g>
	<g>
		<path d="M877.9,195.5c0.1,5.7,3,11.2,1.9,17.1c-0.4,0.4-0.8,0.8-1.5,1.5c-8.1-0.9-16.1,1.6-24.4,0.9c-4.9,1.7-10,0.8-15.1,1
			c-1.9,0.1-3.5,1.9-5.6,0.8c-2.1-5.8-2.8-12-2.3-18.4c0.4-0.4,0.8-0.8,1.3-1.3c8.5,0.6,17-1.6,25.5-1.1c4.6-1.6,9.4-0.8,14.1-1
			c0.8,0,1.5-0.1,2.3-0.6C875.4,193.5,876.7,193.9,877.9,195.5z"/>
	</g>
</g>
</svg>
