<?xml version="1.0" encoding="utf-8"?>
<!-- Generator: Adobe Illustrator 17.1.0, SVG Export Plug-In . SVG Version: 6.00 Build 0)  -->
<!DOCTYPE svg PUBLIC "-//W3C//DTD SVG 1.1//EN" "http://www.w3.org/Graphics/SVG/1.1/DTD/svg11.dtd">
<svg version="1.1" id="Layer_1" xmlns="http://www.w3.org/2000/svg" xmlns:xlink="http://www.w3.org/1999/xlink" x="0px" y="0px"
	 viewBox="0 0 1440 937" enable-background="new 0 0 1440 937" xml:space="preserve">
<g>
	<g>
		<path d="M1140,590.1c0.1,2.2,0.3,4,0.9,6c1.4,4.1,2.1,8.5,3.1,12.7c1.2,4.8,2.2,9.7,3.7,14.5c0.6,2.1,0.9,4.6,0,6.2
			c-1,1.8-0.2,3.5-1,5.5c-1.5,0-3.1,0.1-4.7,0c-4.9-0.4-9.6,1.9-14.6,0.8c-1.4-5.3-2.8-10.7-4-16.1c-0.7-3-3-6.3-0.4-9.5
			c-0.7-5.2,2.8-8.4,5.4-12.3c2.3-3.5,5.3-5.8,8.8-7.6C1138.1,589.8,1138.8,590,1140,590.1z"/>
	</g>
</g>
</svg>
