<?xml version="1.0" encoding="utf-8"?>
<!-- Generator: Adobe Illustrator 17.1.0, SVG Export Plug-In . SVG Version: 6.00 Build 0)  -->
<!DOCTYPE svg PUBLIC "-//W3C//DTD SVG 1.1//EN" "http://www.w3.org/Graphics/SVG/1.1/DTD/svg11.dtd">
<svg version="1.1" id="Layer_1" xmlns="http://www.w3.org/2000/svg" xmlns:xlink="http://www.w3.org/1999/xlink" x="0px" y="0px"
	 viewBox="0 0 1440 937" enable-background="new 0 0 1440 937" xml:space="preserve">
<g>
	<g>
		<path d="M928.8,192.3c0.5,1.6,1.6,2.9,1.2,4.6c-0.4,1.6,1.4,2.5,1,4.1c-0.4,1.9,2.4,3.8,0,5.6c0,2,0,4,0,5.9
			c-3.7,1.9-7.6,1.7-11.4,1.4c-4.1-0.3-7.9,2-12.4,0.9c0.3-2.7-1.9-5.1-1-8.2c-3.9-3.5-6.9-7.8-11.8-10.7c-1.5,0-3.3,0-5.2,0
			c0.3-1.4,1.3-1,1.8-0.9c3,0.7,5.6-1.2,8.6-1.1c3,0.2,6.2,0.7,8.9-0.1c4.6-1.3,9.1-0.7,13.6-0.8
			C924.3,193.1,926.2,191.2,928.8,192.3z"/>
	</g>
</g>
</svg>
