<?xml version="1.0" encoding="utf-8"?>
<!-- Generator: Adobe Illustrator 17.1.0, SVG Export Plug-In . SVG Version: 6.00 Build 0)  -->
<!DOCTYPE svg PUBLIC "-//W3C//DTD SVG 1.1//EN" "http://www.w3.org/Graphics/SVG/1.1/DTD/svg11.dtd">
<svg version="1.1" id="Layer_1" xmlns="http://www.w3.org/2000/svg" xmlns:xlink="http://www.w3.org/1999/xlink" x="0px" y="0px"
	 viewBox="0 0 1440 937" enable-background="new 0 0 1440 937" xml:space="preserve">
<g>
	<g>
		<path d="M528.9,768.4c0,3.4,0,6.4,0,9.3c-4.9,1-9.7,1-14.5,1.5c-4.2,0.4-8.5,0.1-12.5,1c-4.2,0.9-8.4,0.4-12.6,0.9
			c-2.9,0.4-5.6,1.1-8.6,1c-1.2,0-1.7-0.7-2.5-1.4c0.3-7.2-1.4-14.3-1.2-21.4c0-0.6,0-1.3,0-2.3c2.9,0.3,5.5-0.4,8.1-0.9
			c2.7-0.5,5.6-0.2,8.5-0.1c2.1,0.1,3.8-1.5,6.1-1.1c1.9,0.3,4,0.2,6,0c4.1-0.3,7.6,2,11.4,2.6c2.9,0.4,3.6,3.6,5.8,5
			C525.2,764,526.9,766.4,528.9,768.4z"/>
		<path d="M528.7,767.9c-1.1-0.4-5.3-3.4-5.6-4.4c-0.7-2.3-3.1-2.4-4.3-4.1c-1.2-1.7-3.4-2-5.4-2.7c-2-0.7-4-1.6-6.5-2
			c0.6-5.8-1.8-11.5-0.9-17.3c0.3-1.9-1.5-3.1-1.1-5.1c0.3-1.8,0.1-3.6,0.1-5.9c0.8-0.6,1.8-1.4,3.2-2.4c2.2,0,4.2-2.1,6.5-3
			c3.3,1.1,6.5,2.2,10.2,3.4c0.5,0.7-0.1,2.1,0.1,3.4c0.7,4.7,1.4,9.3,1,14c1.7,2.7,1.1,5.7,0.9,8.6c-0.2,2.5,1.5,4.5,1.2,7.1
			c-0.3,2.4,0,5-0.1,7.5C527.9,766,529.7,766.3,528.7,767.9z"/>
	</g>
</g>
</svg>
