<?xml version="1.0" encoding="utf-8"?>
<!-- Generator: Adobe Illustrator 17.1.0, SVG Export Plug-In . SVG Version: 6.00 Build 0)  -->
<!DOCTYPE svg PUBLIC "-//W3C//DTD SVG 1.1//EN" "http://www.w3.org/Graphics/SVG/1.1/DTD/svg11.dtd">
<svg version="1.1" id="Layer_1" xmlns="http://www.w3.org/2000/svg" xmlns:xlink="http://www.w3.org/1999/xlink" x="0px" y="0px"
	 viewBox="0 0 1440 937" enable-background="new 0 0 1440 937" xml:space="preserve">
<g>
	<g>
		<path d="M601,781.6c-2.9-2.3-3.1-6.1-3-10c0.7-0.7,1.6-1.4,1.9-2.2c1.7-3.9,5.1-5,8.8-5.2c2.4-0.1,4.5-1.5,7.1-1.2
			c2.3,0.3,4.9,0.7,6.9-0.1c2.9-1,5.7-0.6,8.9-0.9c0.4-0.6,1-1.3,1.6-2.1c1.3,0.9,1.8,2.3,3.4,2.2c2,7.7,1.7,15.7,3.4,23.5
			c-1.5,0.8-3,0.2-4.4,0.4c-1.4-0.4,0.1-2.7-1.8-3c-5.8,0-11.5-0.2-17.3,0.1C611.5,783.2,606.5,782.5,601,781.6z"/>
	</g>
</g>
</svg>
