<?xml version="1.0" encoding="utf-8"?>
<!-- Generator: Adobe Illustrator 17.1.0, SVG Export Plug-In . SVG Version: 6.00 Build 0)  -->
<!DOCTYPE svg PUBLIC "-//W3C//DTD SVG 1.1//EN" "http://www.w3.org/Graphics/SVG/1.1/DTD/svg11.dtd">
<svg version="1.1" id="Layer_1" xmlns="http://www.w3.org/2000/svg" xmlns:xlink="http://www.w3.org/1999/xlink" x="0px" y="0px"
	 viewBox="0 0 1440 937" enable-background="new 0 0 1440 937" xml:space="preserve">
<g>
	<g>
		<path d="M1141.1,546.4c-1.2,1.2-2.2,2.2-3.4,3.4c-1,0.6-2.6-0.4-3.3,1.3c-0.7-1.4-0.1-3.2-1.7-3.8c-3.3,1.7-6.8,0.3-9.9,0.8
			c-2.7-1.2-3.2-3.8-3.7-5.9c-0.4-2-0.7-4.2-1.6-5.8c-1.2-1.9,0.5-4.2-1.4-6c-0.7-0.6-0.3-2.6-0.1-3.9c0.3-1.5-0.6-2.4-1.3-4
			c0.6-0.3,1.3-0.7,2.1-1c0.7-0.5,1.9-0.6,2.6,0.5c2-1.7,4.4-0.6,6.6-0.9c2.3-0.3,4.6,0.6,6.8-0.5c2.2-1.1,4.5-0.2,6.5-0.6
			c1.1,0.7-0.1,2.4,1.6,2.3c0,2.1-0.1,3.9,0,5.7c0.2,2.7-0.4,5.4,0.9,8.1c0.7,1.5,0.3,3.6,0.1,5.4
			C1141.8,543.2,1140.4,544.7,1141.1,546.4z"/>
	</g>
</g>
</svg>
