<?xml version="1.0" encoding="utf-8"?>
<!-- Generator: Adobe Illustrator 17.1.0, SVG Export Plug-In . SVG Version: 6.00 Build 0)  -->
<!DOCTYPE svg PUBLIC "-//W3C//DTD SVG 1.1//EN" "http://www.w3.org/Graphics/SVG/1.1/DTD/svg11.dtd">
<svg version="1.1" id="Layer_1" xmlns="http://www.w3.org/2000/svg" xmlns:xlink="http://www.w3.org/1999/xlink" x="0px" y="0px"
	 viewBox="0 0 1440 937" enable-background="new 0 0 1440 937" xml:space="preserve">
<g>
	<g>
		<path d="M1060.2,645.1c-4-0.8-7.1,1.5-10.6,0.9c-3.4-0.6-6.7,0.5-10.2,1.2c-2.4-5.6-2.6-11.7-4.3-17.3c-0.1-0.4,0.5-1,0.8-1.5
			c-0.6-0.6-1.2-1.2-1.9-1.9c0-2.5,0.2-5.2-0.1-7.8c-0.2-2.1,1.3-3.5,1.2-5.6c-0.1-1.8-1-4,0.9-5.6c0.1-0.1,0-0.3,0-0.5
			c-0.7-4.1,1.4-8,1-12.1c-0.4-3.3,2.2-6.2,0.8-9.3c1-0.9,1.5-1.9,3.1-1.5c0,5.5,0,11,0,16.7c2.6,0.5,4.5-1.7,7.2-0.5
			c-0.9-5.7,1.6-10.7,0.8-15.8c0.8-0.7,1.3-1.8,3-1.4c0.1,2.6,0,5.4,0.1,8.2c0,2.8,0,5.6,0,8.3c2.4,1,4.2-0.1,6-1.1c0-0.7,0-1.3,0-2
			c5-2.6,10.5-1.1,15.1-1.6c2.5-0.8,1.4-2.9,2-3.6c2.7-2.7,5.6-2.5,9-2.2c-1.2,4.3,1.8,7.8,2.4,11.8c0.6,3.7,0.9,7.3-0.3,11.1
			c0.6,2.2,1.5,4.5,1.7,7c0.4,3.8,1.7,7.3,2.7,10.9c0.6,2-0.1,4,1.2,6c0.8,1.3,1,3.6,1.4,5.4c0.6,2.9,1,5.4-0.1,8.2
			c-0.4,1.2-0.1,2.6-0.1,4.4c-4.6-0.6-8.9,1.4-13.4,1c-0.8,0.4-0.5,1.1-0.7,1.7c-0.7,0.8-1.6,0.1-2.5,0.5c-0.2-0.7-0.4-1.3-0.6-1.9
			c-2.2-1.3-3.9,0.9-5.9,0.7c-3.2-0.7-1.3-3.7-2.6-5.4c-1-1.4-1.2-3.6-1.3-5.4c-0.1-2.1-1.8-3.8-0.9-6c-2-0.3-3.6-0.7-5,1.1
			C1060.2,641.6,1060.2,643,1060.2,645.1z M1040.5,609c0.5-0.3,0.5-0.7,0-1C1040,608.3,1040,608.7,1040.5,609z"/>
		<path d="M1083.7,594.5c5.3-2,10.2-1,15-1.7c3.9-0.6,7.8-0.3,11.6-1c4.9-0.9,9.9,0,14.5-1.1c4.5-1,8.7-0.3,13.2-0.2
			c-1.3,0.6-2.5,1.2-3.8,1.8c-2.2,1-3.9,2.6-5.2,4.8c-1.7,2.8-3.7,5.5-5.9,8.8c0.3,2.6-0.1,5.7-1.5,9.1c-1.4,0-3.2,0-5,0
			c-5.7-0.1-11.3,1.7-17.1,1c-3.9,1.8-8,0.7-11.9,1c-1.1-0.8,0-2.1-0.9-2.8c-1.3-1.1-1.1-2.9-0.6-3.6c1-1.2,0.7-2.4,0.9-3.7
			C1087.5,602.5,1086,598.5,1083.7,594.5z"/>
	</g>
</g>
</svg>
