<?xml version="1.0" encoding="utf-8"?>
<!-- Generator: Adobe Illustrator 17.1.0, SVG Export Plug-In . SVG Version: 6.00 Build 0)  -->
<!DOCTYPE svg PUBLIC "-//W3C//DTD SVG 1.1//EN" "http://www.w3.org/Graphics/SVG/1.1/DTD/svg11.dtd">
<svg version="1.1" id="Layer_1" xmlns="http://www.w3.org/2000/svg" xmlns:xlink="http://www.w3.org/1999/xlink" x="0px" y="0px"
	 viewBox="0 0 1440 937" enable-background="new 0 0 1440 937" xml:space="preserve">
<g>
	<g>
		<path d="M908.8,222.9c3,1.1,1.9,3.3,2.4,5c2.5,0,5,0,7.4,0c0.4-0.4,0.7-0.7,1.2-1.2c0-1.9,0-4.1,0-6c0.9-0.7,1.3-1.8,2.9-1.5
			c0,2.1,0,4.4,0,6.2c0.7,0.7,1.1,1.1,1.7,1.7c3,0,6.4,0.5,9.5-0.1c3.4-0.7,6.8-1.1,10.1-0.8c3.3,0.4,6.3-1.3,9.7-1.1
			c1.6,2.7,1.9,5.6,2.3,8.6c0.7,0.7,1.6,0.2,2.3,0.4c0.1,0.1,0.3,0.2,0.3,0.3c0,3,0,5.9,0,9.4c-0.4,0.3-1.2,0.9-1.8,1.3
			c0,1.4,0,2.4,0,3.4c-3.1,1.6-6.4,1.8-9.9,1.5c1.4,5.8,1.4,11.3-0.4,17.1c-1.5,0-3.2,0.2-4.8,0c-4.6-0.7-9,1.8-13.5,0.9
			c-1.5-2.5-0.9-5.5-2.1-8.1c-0.2-0.5-0.6-7-0.5-7.5c-0.4-0.5-0.9-0.3-1.7-0.3c0,5.3,0,10.5,0,15.9c-1.8,0-3.2,0-4.8,0
			c-0.4-0.3-0.3-0.8-0.3-1.5c-3.3-1.3-6.4,2.1-9.7,0.4c-1.4-0.7-1.4-2-1.4-3.7c-2.1,0-4.2,0.2-6.3-0.1c-2.2-0.3-3.8,2-6.8,0.4
			c-2.3-2.8-0.7-7.6-3-11c1.4-1.2,2.6-2.2,3.4-2.9c-1.8-4.5-2-8.6-3.1-12.5c1.6-4.1,0.8-8.4,1.1-12.7
			C898.3,223.3,903.8,225.2,908.8,222.9z"/>
			<path d="M892.8,235.3c-0.8-0.8-1.3-1.3-1.7-1.7c-0.6-1.7,0.4-3.4-1-5.2c-1-1.2,0.7-3.6-1.1-5c0.1-3.8-1.4-7.4-1.9-11.2
			c-0.2-1.8-1.3-3.4-1-5c0.3-1.4-1.5-2.2-0.3-3.8c0.7-0.8,0.2-2.6,0.2-3.9c0-1.5,0-2.9,0-5c3.2,1.9,6.2,1.3,9,1.4
			c3.6,3.6,7.1,7.1,10.9,10.9c1,4.9,2.1,10.3,3.2,15.6c-0.8,0.8-2.1,0.4-2.6,1.7c-4.4,0-8.8,0-13.6,0
			C892.8,227.9,892.8,231.4,892.8,235.3z"/>
	</g>
</g>
</svg>
