<?xml version="1.0" encoding="utf-8"?>
<!-- Generator: Adobe Illustrator 17.1.0, SVG Export Plug-In . SVG Version: 6.00 Build 0)  -->
<!DOCTYPE svg PUBLIC "-//W3C//DTD SVG 1.1//EN" "http://www.w3.org/Graphics/SVG/1.1/DTD/svg11.dtd">
<svg version="1.1" id="Layer_1" xmlns="http://www.w3.org/2000/svg" xmlns:xlink="http://www.w3.org/1999/xlink" x="0px" y="0px"
	 viewBox="0 0 1440 937" enable-background="new 0 0 1440 937" xml:space="preserve">
<g>
	<g>
		<path d="M407.1,344.6c-0.1-0.4-0.2-0.9-0.4-1.5c-1.7,0-3.5,0-5.3,0c-0.3-0.7-0.5-1.3-0.8-2.2c-4.7,1.6-9.5,1.1-14.4,1
			c-1.1,0-1.4,1.5-2.7,1c-1.2-0.5-0.5-1.7-0.5-2.5c0.5-6.6-2.1-13.1-0.9-19.6c0.8-4.7,1.5-9.5,0.7-14.1c-0.8-4.4-0.5-8.7-0.8-13.1
			c0-0.5,0.1-0.9,0.2-1.7c4.3,0.2,8.4,0.1,13.1-1.7c0,0,0.6-0.6,1.2-1.2c0.8,0.2,0.5,1,0.8,1.7c2,0,4.1,0,6.4,0
			c0.7,2.7,1.9,5.2,1.3,8.1c1.8,0,3.2,0,4.7,0c0.5-0.9,0.7-2.1,2-2.9c1.2,0,2.6,0,4.5,0c-0.6-3.2,0.9-6.3-1.3-8.9
			c0.7-1.2,1.2-2.2,3.1-1.9c0,1.8,0.1,3.8,0,5.7c-0.2,1.9,1.6,3.1,1.1,5.1c2.4,0,4.5,0,7,0c0-3.6,0-7.2,0-10.7
			c0.7-0.1,1-0.2,1.8-0.3c3,13.8,3.1,27.9,4.5,41.9c-1.3,0.2-2.1,0.2-3,0.4c0,2.1,0,4.2,0,6.7c-2.2-0.1-3.8,1.4-6.1,1.4
			c0,2.8,0,5.6,0,8.6C417.8,343.8,412.8,346.1,407.1,344.6z M419.5,328.2c1.2-0.3,2.1,0.3,2.5-0.8c-0.7-0.7-1.3-0.6-1.9,0.6
			c-0.5-0.1-0.8,0.1-0.9,0.6c0,0.1,0.2,0.3,0.3,0.3C419.9,328.8,420.1,328.5,419.5,328.2z M421.4,324.2c0.8-0.9,1.4-1.6,2-2.4
			c1.1-0.4,2.5,0.8,3.6-0.7c-1.8,0-3.3,0-4.8,0C421.7,322,420.6,322.4,421.4,324.2z"/>
			<path d="M331.1,346.8c-0.2-2.5-1.9-4.6-0.9-7.6c2.9-2.6,5.3-6.2,7.7-9.8c3.4-1,6.9-2,10.2-3.1c1.2-0.4,2.3-0.3,3.4-0.3
			c7,0.2,14-1.7,21-1c2.9-1.5,6-0.8,9.4-1c-0.5,5.1,1.7,9.9,1.1,15c-0.2,1.2-0.1,2.4,0.9,3.7c0.8,1.1-0.1,2.5-1.5,3.4
			c-7.7-0.6-15.5,1.8-23.3,1c-4.4,1.6-9.2,1.7-13.5,0.8C340.8,346.7,336.2,347.6,331.1,346.8z"/>
	</g>
</g>
</svg>
