<?xml version="1.0" encoding="utf-8"?>
<!-- Generator: Adobe Illustrator 17.1.0, SVG Export Plug-In . SVG Version: 6.00 Build 0)  -->
<!DOCTYPE svg PUBLIC "-//W3C//DTD SVG 1.1//EN" "http://www.w3.org/Graphics/SVG/1.1/DTD/svg11.dtd">
<svg version="1.1" id="Layer_1" xmlns="http://www.w3.org/2000/svg" xmlns:xlink="http://www.w3.org/1999/xlink" x="0px" y="0px"
	 viewBox="0 0 1440 937" enable-background="new 0 0 1440 937" xml:space="preserve">
<g>
	<g>
		<path d="M652.9,307c2.9,0.5,6.6-1.1,10,0.9c0.4,0.2,1,0.1,1.5,0c8.4-0.7,16.7,1.5,25.1,1c5.8,1.7,11.7,0.8,17.6,1
			c0.5,0,1,0.6,1.6,0.9c0.5-0.5,0.9-0.9,1.4-1.4c0-1.3,0-2.7,0-4c0.3-0.5,0.8-0.5,1.3-0.5c6.9,0,13.6,1.9,20.6,0.8
			c0,5.2,0,10,0,15.1c2.4,0,4.6,0,6.9,0c0.1,1.1,0.2,1.9,0.3,2.8c7.1,0.5,14.2,1.9,21.3,1.1c0.6,0.6,1.1,1.1,1.6,1.6
			c0,3.6-0.2,7.3,0.1,10.9c0.2,2.2-1.2,4-1.2,6.1c0,2,1,4.3-0.9,6.1c-0.2,0.2,0,1,0,1.5c-0.4,4.3-0.6,8.6-2,12.7c-0.2,0.4,0,1,0,1.5
			c-0.1,2.4,0,4.7-0.9,7.1c-0.7,2,0.1,4.4-1,6.6c-0.7,1.5-0.1,3.6-0.1,5.4c0,1.8-1.8,3.1-0.5,5.5c-2.7-0.4-4.8,0.9-7-0.8
			c-0.7-0.6-2.2-0.2-3.4-0.1c-8.2,0.5-16.3-1.7-24.6-1c-4.4-1.9-9-0.8-13.6-0.9c-2.6-0.1-4.9-1.8-7.7-0.9c-0.2-1.8,0-3.6-0.7-4.9
			c-0.8-1.6-0.8-2.6,0.3-3.8c-0.4-0.4-0.7-1-1.1-1c-2.3-0.3-4.5-1.6-6.9-1.4c-5.4,0.4-10.7-1.7-16.1-1c-0.5,0.1-1-0.5-1.5-0.8
			c-2,1.7-1.8,3.5-0.5,5.5c-1.2,1.7,1.1,3.4-0.2,5.2c-0.4,0-0.8,0.1-1.3,0.1c-1.4-5.8-2.8-11.6-4-17.4c-1.2-5.8-3.3-11.3-5.1-16.9
			c-1.8-5.6-3.1-11.4-5.4-16.8c-1.4-3.3-1.8-6.9-3.5-10.1c-0.2-0.5-0.4-0.9-0.4-1.4c0-2.5-0.1-5,0-7.5
			C653.1,311.8,650.6,310,652.9,307z"/>
		<path d="M768.1,298c3.7,0,7.2-0.7,10.3,0.2c4.4,1.3,8.8,0.4,13.5,1c0,10.1,0,20.4,0,30.5c3.1,1,5.8,1.9,8.9,1.2
			c0.8-5.4,1.5-10.9,2.3-16.6c3.1-0.9,5.8,1.4,8.9,0.9c3.1-0.5,6.3-0.1,9.5-0.1c0.5,1.1,1.7,0.7,2.6,1.6c0,5.9,0,12.1,0,18.4
			c1.6,0,3.1,0,4.9,0c0,3.6,0.7,7.2-0.2,10.5c-1.1,4.1-0.7,8.1-0.8,12.1c0,2-1.3,3.5-1.1,5.6c0.2,1.9,0.7,3.9-0.9,5.6
			c-0.2,0.2-0.1,0.6,0,1c0.4,3.8-0.5,7.4-1.4,11.3c-2.2-5.7-8.6-4.7-12.1-8c-3.4,1.1-6.6,2.2-10.5,3.5c-0.4,0.4-1.3,1.4-2.1,2.2
			c-0.4,0.1-0.7,0.2-1,0.2c-7,0.1-14-1.4-21.1-1.1c-2.4,0.1-4.9-1.2-7.6-0.7c0-2.2,0-4,0-5.5c-1.5-2.5-3.7-1.4-6-1.8
			c0.1-1.8-0.9-3.7,0.8-5.4c0.1-0.1,0.1-0.3,0.1-0.5c-0.8-3.8,1.2-7.3,1.1-11.1c-0.2-10.2,0.2-20.3-0.2-30.5
			c-0.2-5.4,1.4-10.7,1.1-16.1C768.5,303.9,767.8,301.1,768.1,298z"/>
	</g>
</g>
</svg>
