<?xml version="1.0" encoding="utf-8"?>
<!-- Generator: Adobe Illustrator 17.1.0, SVG Export Plug-In . SVG Version: 6.00 Build 0)  -->
<!DOCTYPE svg PUBLIC "-//W3C//DTD SVG 1.1//EN" "http://www.w3.org/Graphics/SVG/1.1/DTD/svg11.dtd">
<svg version="1.1" id="Layer_1" xmlns="http://www.w3.org/2000/svg" xmlns:xlink="http://www.w3.org/1999/xlink" x="0px" y="0px"
	 viewBox="0 0 1440 937" enable-background="new 0 0 1440 937" xml:space="preserve">
<g>
	<g>
		<path d="M827.5,478c2.8-0.3,5.5,0.1,8.4,1.3c-0.4,3.2,1.1,6.7-0.8,10.1c-0.2,0.4-0.1,1-0.1,1.5c0.7,5.4-1.7,10.6-1,16
			c0.2,1.6-1.8,2.7-1,4c1.3,2.2,0.8,4.4,0.9,6.6c-0.9,0.8-1-0.4-1.5-0.5c-0.8,0.8-1.6,1.6-2.6,2.6c0,1.2,0,2.7,0,5.4
			c-1-1.7-1.4-2.6-2.1-3.8c-1.4,4.4-1.9,8.1-1.8,12c0.1,3.2,0.4,6.5-1.7,9.8c-0.2,0.2-1-0.1-1.8-0.2c-0.1-0.3-0.4-0.5-0.4-0.8
			c0-4.7,0.1-9.3-0.1-14c-0.1-2.6,1.4-4.9,1.1-7.6c-0.2-2.5-0.8-5.2,0.9-7.6c-0.5-3.8,1.8-7.3,1-11.1c1.7-6.6,0.8-13.4,1-20
			C826,480.3,827.2,479.4,827.5,478z"/>
	</g>
</g>
</svg>
