<?xml version="1.0" encoding="utf-8"?>
<!-- Generator: Adobe Illustrator 17.1.0, SVG Export Plug-In . SVG Version: 6.00 Build 0)  -->
<!DOCTYPE svg PUBLIC "-//W3C//DTD SVG 1.1//EN" "http://www.w3.org/Graphics/SVG/1.1/DTD/svg11.dtd">
<svg version="1.1" id="Layer_1" xmlns="http://www.w3.org/2000/svg" xmlns:xlink="http://www.w3.org/1999/xlink" x="0px" y="0px"
	 viewBox="0 0 1440 937" enable-background="new 0 0 1440 937" xml:space="preserve">
<g>
	<g>
		<path d="M822.9,400.8c-2.4,0.8-4.1-0.4-5.8-1.2c-2-0.9-3.9-1.9-5.9-2.6c-2.6-0.9-4.9,1.4-7.6,1c-1.3,1.6-3,0.9-4.6,1
			c-3,0.1-6,0-9,0c-3.7,0.1-7.3-1.4-11.1-1.1c-3.8,0.4-7.7,0.2-11.5,0c-1.7-0.1-3.2-1.5-5.5-0.7c0-4.9-0.1-9.5,0-14.1
			c0.2-4.3-1-8.8,1.3-13c1.7,0,3.5,0,5.2,0c2.7,1.7,0.7,4.4,1.8,6.8c0.8,0.6,2.2,0.3,3.4,0.1c3-0.5,5.7,1.2,8.6,1.1
			c3-0.1,6.1-0.6,8.9,0.1c2.7,0.7,5.4,0.8,8.6,0.9c0.7-0.9,1.7-2,2.1-2.5c3.8-1.3,6.9-2.4,10-3.4c4,1.2,7.8,3.4,11.7,5.3
			C825,385.9,822.5,393.4,822.9,400.8z"/>
	</g>
</g>
</svg>
