<?xml version="1.0" encoding="utf-8"?>
<!-- Generator: Adobe Illustrator 17.1.0, SVG Export Plug-In . SVG Version: 6.00 Build 0)  -->
<!DOCTYPE svg PUBLIC "-//W3C//DTD SVG 1.1//EN" "http://www.w3.org/Graphics/SVG/1.1/DTD/svg11.dtd">
<svg version="1.1" id="Layer_1" xmlns="http://www.w3.org/2000/svg" xmlns:xlink="http://www.w3.org/1999/xlink" x="0px" y="0px"
	 viewBox="0 0 1440 937" enable-background="new 0 0 1440 937" xml:space="preserve">
<g>
	<g>
		<path d="M614.1,530.5c-0.5-1.9,0.2-3.5,1.3-5.3c4.3-0.6,8.3-3.8,13.1-3.2c3.3,2.8,8.7,2.1,11,6.8c6.5,0.4,13.3,1.8,20.1,1.2
			c1.9-0.2,3.2,1.5,5.1,1.1c1.6-0.3,3.3-0.1,5.2-0.1c-0.3-3.1,0.9-5.6,2-7.8c2.4-1.1,3.6,1.8,5.5,0.6c1.2,10.7,2.8,9.5-0.1,27.1
			c-0.5-2.5-0.3-5-0.3-7.6c0-2.6,0-5.3,0-7.9c-0.4-0.4-0.8-0.8-1.1-1.1c-0.5-0.7-1.3-0.4-1.9-0.4c-8.4,0.6-16.6-1.7-25-1.1
			c-2.1,0.2-3.8-1.6-6.1-1c-1.8,0.4-3.8-0.5-5.6,0.9c-0.7,0.6-2.5,0.5-3.4,0c-2.6-1.6-5.4-0.8-8.1-0.9
			C621.9,531.8,618,532.5,614.1,530.5z"/>
	</g>
</g>
</svg>
