<?xml version="1.0" encoding="utf-8"?>
<!-- Generator: Adobe Illustrator 17.1.0, SVG Export Plug-In . SVG Version: 6.00 Build 0)  -->
<!DOCTYPE svg PUBLIC "-//W3C//DTD SVG 1.1//EN" "http://www.w3.org/Graphics/SVG/1.1/DTD/svg11.dtd">
<svg version="1.1" id="Layer_1" xmlns="http://www.w3.org/2000/svg" xmlns:xlink="http://www.w3.org/1999/xlink" x="0px" y="0px"
	 viewBox="0 0 1440 937" enable-background="new 0 0 1440 937" xml:space="preserve">
<g>
	<g>
		<path d="M837.6,399.7c-2.3-1.4-0.9-4-3.6-4.6c-1.1,0-2.9,0-4.7,0c-1.7,0.7-1.3,2.4-1.7,3.7c-2.7-0.8-1.2-3.3-1.9-4.8
			c-0.6,0-0.9,0-1.2-0.1c-1.3,0.7,0.1,2.3-1.2,3.1c-1.4-5.4,0.7-10.5,0.8-16c0.8-0.1,1.6-0.1,2.4-0.2c0.8-0.8,0.5-1.9,0.4-2.8
			c-0.4-4.4,0.7-8.6,1.3-12.9c1.9-1,1.5,1,2.1,1.7c0.2-0.1,0.6-0.3,0.6-0.4c0-1.3,0-2.6,0-3.9c1-1.1,2.5-1.8,2.3-3.7
			c0.4,1.7,1.7,2.6,2.8,3.8c0,1.6,0,3.4,0,5.2c1.3-0.2,0.5-2.4,2.4-1.8c0.7,0.2,0.5,0.9,0.5,1.5c0,1.8-0.1,3.7,0,5.5
			c0.1,3.5,0.1,7,0.8,10.6C840.8,388.8,838.7,393.9,837.6,399.7z"/>
	</g>
</g>
</svg>
