<?xml version="1.0" encoding="utf-8"?>
<!-- Generator: Adobe Illustrator 17.1.0, SVG Export Plug-In . SVG Version: 6.00 Build 0)  -->
<!DOCTYPE svg PUBLIC "-//W3C//DTD SVG 1.1//EN" "http://www.w3.org/Graphics/SVG/1.1/DTD/svg11.dtd">
<svg version="1.1" id="Layer_1" xmlns="http://www.w3.org/2000/svg" xmlns:xlink="http://www.w3.org/1999/xlink" x="0px" y="0px"
	 viewBox="0 0 1440 937" enable-background="new 0 0 1440 937" xml:space="preserve">
<g>
	<g>
		<path d="M623.1,382c-3.2,0-5.9,0-8.6,0c-0.6-0.6-1.2-1.2-1.8-1.8c-1.3-0.6-3.3,0.6-4.4-1.5c-1.3-5.4,0.6-10.8,0.8-16.3
			c0.4-0.4,0.9-0.9,1.3-1.3c0.3,0.3,0.7,0.6,1.1,1c0.9-1,0.2-2.3,0.5-3.6c0.7-0.6,1.6-1.4,2.6-2.2c2.4,1.8,2.5,4.7,2.4,7.4
			c2,1.2,1.9-0.4,2.3-1.3c0.2-0.2,0.4-0.1,0.7,0.2c0.6,0.6,1.1,1.1,1,2.1c-0.1,1.2,0,2.3,0,3.5C621.1,372.7,620.3,377.5,623.1,382z"
			/>
	</g>
</g>
</svg>
