<?xml version="1.0" encoding="utf-8"?>
<!-- Generator: Adobe Illustrator 17.1.0, SVG Export Plug-In . SVG Version: 6.00 Build 0)  -->
<!DOCTYPE svg PUBLIC "-//W3C//DTD SVG 1.1//EN" "http://www.w3.org/Graphics/SVG/1.1/DTD/svg11.dtd">
<svg version="1.1" id="Layer_1" xmlns="http://www.w3.org/2000/svg" xmlns:xlink="http://www.w3.org/1999/xlink" x="0px" y="0px"
	 viewBox="0 0 1440 937" enable-background="new 0 0 1440 937" xml:space="preserve">
<g>
	<g>
		<path d="M839.8,542.7c-1.4,2.2-3.8,1.8-5.4,1.2c-3-1.1-6.1-0.6-9.4-1c0.2-1.5,0-2.8,0.8-4.5c0.8-1.8,0.2-4.2,0.2-6.4
			c0-3.4-0.2-6.8,1.4-9.9c2-0.8,1.2,1.4,2.1,1.9c1-1.3,0.1-2.9,0.5-4.3c0.4-1.4,2.6-1.6,2.1-3.8c0.8,1.4,1.5,2.5,2.7,3.5
			c0,1.7,0,3.4,0,5.8c1.1-0.9,1.9-1.5,2.6-2.1c2.4,3.9,1,8.3,1.4,12.4c-2.5,2.6,0.4,4.6,0.8,6.8
			C839.8,542.4,839.8,542.5,839.8,542.7z"/>
	</g>
</g>
</svg>
