<?xml version="1.0" encoding="utf-8"?>
<!-- Generator: Adobe Illustrator 17.1.0, SVG Export Plug-In . SVG Version: 6.00 Build 0)  -->
<!DOCTYPE svg PUBLIC "-//W3C//DTD SVG 1.1//EN" "http://www.w3.org/Graphics/SVG/1.1/DTD/svg11.dtd">
<svg version="1.1" id="Layer_1" xmlns="http://www.w3.org/2000/svg" xmlns:xlink="http://www.w3.org/1999/xlink" x="0px" y="0px"
	 viewBox="0 0 1440 937" enable-background="new 0 0 1440 937" xml:space="preserve">
<g>
	<g>
		<path d="M609.5,553.5c-2.4-1.2-1-3-1.7-4.2c-1.9-1.2-4.6,0.9-6.3-1.2c-1.6,0.8-1.4,2.4-1.7,3.8c-0.5,0-0.9,0-1.4,0
			c-0.7-1.1-0.2-2.3-0.3-3.4c-0.8-1.6-2.9-1.4-3.8-2.9c1.8-3.2,0.2-6.7,1.1-10.5c0.3-0.2,1.1-0.8,1.8-1.3c-0.7-5.5,1.6-10.3,2-15.5
			c0.2-0.4,0.7-0.4,1.6-0.3c-0.2-2.5,2-3.9,2.7-5.8c2.4,2.3,2.5,5.8,3.9,8.8c0.6-1.2,1-2.4,2.1-3c2.5,5.3,1,10.9,1.6,16.7
			c0.1,0.4,0.9,0.2,1.9,0.4C611.8,541.1,611.4,547.1,609.5,553.5z"/>
	</g>
</g>
</svg>
