<?xml version="1.0" encoding="utf-8"?>
<!-- Generator: Adobe Illustrator 17.1.0, SVG Export Plug-In . SVG Version: 6.00 Build 0)  -->
<!DOCTYPE svg PUBLIC "-//W3C//DTD SVG 1.1//EN" "http://www.w3.org/Graphics/SVG/1.1/DTD/svg11.dtd">
<svg version="1.1" id="Layer_1" xmlns="http://www.w3.org/2000/svg" xmlns:xlink="http://www.w3.org/1999/xlink" x="0px" y="0px"
	 viewBox="0 0 1440 937" enable-background="new 0 0 1440 937" xml:space="preserve">
<g>
	<g>
		<path d="M745.6,535.1c-0.6-0.6-1.1-1.1-1.4-1.4c-1.2-5.6,0.4-11,1-16.2c0.6-4.7,0.5-9.8,2.8-14.3c-0.7-3.3,1-6.3,1.1-9.6
			c0.1-3,1.1-6,0.9-9.1c0-0.3,0.6-0.7,1.1-1.2c5.8,1.3,11.6,2.6,17.6,3.9c1.4,1.8,1.3,4,1.3,6.3c0,2.3-0.4,4.7,0.1,7
			c1.3,6.8,0.2,13.8,1.2,20.6c0.7,4.9,0.4,9.7,0.9,14.6C763,537.1,754.3,534.1,745.6,535.1z"/>
	</g>
</g>
</svg>
