<?xml version="1.0" encoding="utf-8"?>
<!-- Generator: Adobe Illustrator 17.1.0, SVG Export Plug-In . SVG Version: 6.00 Build 0)  -->
<!DOCTYPE svg PUBLIC "-//W3C//DTD SVG 1.1//EN" "http://www.w3.org/Graphics/SVG/1.1/DTD/svg11.dtd">
<svg version="1.1" id="Layer_1" xmlns="http://www.w3.org/2000/svg" xmlns:xlink="http://www.w3.org/1999/xlink" x="0px" y="0px"
	 viewBox="0 0 1440 937" enable-background="new 0 0 1440 937" xml:space="preserve">
<g>
	<g>
		<path d="M825.5,453c-3.9,0-8.1,0.7-11.8-0.2c-5.1-1.2-10.1-0.3-15.1-0.9c-2-0.9-1.6-2.9-1.5-4.9c-1.7,0-3.2,0.1-4.7,0
			c-1.4-0.1-3,0.7-3.8-0.9c-1.9,0.8-1.3,2.6-1.9,3.9c-0.3-0.2-0.6-0.4-0.6-0.6c0-6.3,0-12.6,0-18.8c-0.6-1.1-2.4,0.2-2.2-1.6
			c-3.4,0-6.6-0.2-9.7,0.1c-3,0.3-5.6-1.9-8.8-0.8c0.6-3,2.9-5,2.8-8.3c4.4,0,8.9,0,13.3,0c1.1,0,2.4,0.3,3.1-1
			c0.4,0.3,0.7,0.7,1.1,1c3.5-1.9,7.4-0.5,11.1-1.1c1-1-0.2-2.5,0.8-3.9c5.1,0,10.4,0,15.7,0c1.8,0,3.6-0.1,5.4-0.1
			c0.8-2.5,2.9,1.1,3.8-0.8c2.5,0.3,5.3-1.2,7.6,1.4c0,3.2-0.2,6.5,0.1,9.8c0.3,3.3-1.7,6.3-1,9.6c0.7,3.2-0.8,6.1-1.2,9
			C827.4,446.9,827.6,450.2,825.5,453z"/>
	</g>
</g>
</svg>
