<?xml version="1.0" encoding="utf-8"?>
<!-- Generator: Adobe Illustrator 17.1.0, SVG Export Plug-In . SVG Version: 6.00 Build 0)  -->
<!DOCTYPE svg PUBLIC "-//W3C//DTD SVG 1.1//EN" "http://www.w3.org/Graphics/SVG/1.1/DTD/svg11.dtd">
<svg version="1.1" id="Layer_1" xmlns="http://www.w3.org/2000/svg" xmlns:xlink="http://www.w3.org/1999/xlink" x="0px" y="0px"
	 viewBox="0 0 1440 937" enable-background="new 0 0 1440 937" xml:space="preserve">
<g>
	<g>
		<path d="M674.2,435.9c-2.3-13.7-0.8-27.2-1.1-40.7c-0.1-3.4-1.5-6.6-1.1-10.1c0.4-3.5,0.1-7,0.1-10.5c0.5-0.5,1.1-1.1,1.3-1.3
			c8.7,1.3,17.3,1.2,25.7,3c-0.3,8.9,0.8,17.7-1.4,26.6c-0.9,0.6-2.7-0.5-3.2,1.1c-2.6,10.5-2.8,21-2.4,32c-2.7,0-5.3-0.1-7.9,0
			c-1.6,0.1-3.2-0.6-4.7,0.8c-0.5,0.5-1.9,0.5-2.6-0.5C676.2,435.6,675.3,436.2,674.2,435.9z"/>
	</g>
</g>
</svg>
