<?xml version="1.0" encoding="utf-8"?>
<!-- Generator: Adobe Illustrator 17.1.0, SVG Export Plug-In . SVG Version: 6.00 Build 0)  -->
<!DOCTYPE svg PUBLIC "-//W3C//DTD SVG 1.1//EN" "http://www.w3.org/Graphics/SVG/1.1/DTD/svg11.dtd">
<svg version="1.1" id="Layer_1" xmlns="http://www.w3.org/2000/svg" xmlns:xlink="http://www.w3.org/1999/xlink" x="0px" y="0px"
	 viewBox="0 0 1440 937" enable-background="new 0 0 1440 937" xml:space="preserve">
<g>
	<g>
		<path d="M615.3,464.9c1.7,0.5,3.4-0.6,5.1,0.9c0.5,0.4,1.6,0.3,2.4,0.2c6.7-0.8,13.3,1.5,20,1c0.6,1.8-0.6,4.1,2.2,5
			c1.5,0,3.6,0.2,5.5-0.1c3.2-0.5,6,1.2,9.1,1.1c3-0.1,6.2-0.6,8.9,0.1c3.1,0.8,6.1,0.7,9.1,0.9c0.5,0.5,1,1,1.5,1.5
			c0,4-0.1,8,0.1,12c0.1,2-0.4,3.9-1.5,5.4c-1.3,1.8-1.6,4-2.4,6c-0.9,2-2,3.6-3.5,5.1c-6.4,0-12.8,0-19.5,0c0-1.2,0-2.3,0-3.7
			c-2.7,0-5.3,0-8,0c-0.1,1.1-0.1,2.3-0.2,3.4c-7.5,1.6-14.9-1.1-22.5-0.6c-0.5,0.6-1.1,1.1-1.8,1.8c-2.7,0-5.5,0-8.3,0
			c-0.3-0.3-0.7-0.7-1.4-1.4c0-6.8,0-13.9,0-21C612.7,477,612,470.5,615.3,464.9z"/>
	</g>
</g>
</svg>
