<?xml version="1.0" encoding="utf-8"?>
<!-- Generator: Adobe Illustrator 17.1.0, SVG Export Plug-In . SVG Version: 6.00 Build 0)  -->
<!DOCTYPE svg PUBLIC "-//W3C//DTD SVG 1.1//EN" "http://www.w3.org/Graphics/SVG/1.1/DTD/svg11.dtd">
<svg version="1.1" id="Layer_1" xmlns="http://www.w3.org/2000/svg" xmlns:xlink="http://www.w3.org/1999/xlink" x="0px" y="0px"
	 viewBox="0 0 1440 937" enable-background="new 0 0 1440 937" xml:space="preserve">
<g>
	<g>
		<path d="M760.6,508.1c-4-0.4-8.1,0.9-12-1.3c-2.2-2.3-5.2-3.8-7.5-5.2c-3.6,0.1-6.4,1.6-9.6,1.5c-0.9,0.4-0.1,1.6-1.6,2
			c0.5-3.6-1-7.2,1.5-10.8c2.1,0,2.8-2.3,3.4-4c0.5-1.7,1.2-3.1,1.9-4.7c1.4-2.8,3.3-5.6,1.9-8.9c1.3-1,1.4-2.4,3-3.1
			c2-0.9,2.6-3.6,3.1-5.5c0.8-3.2,3.1-5.4,3.9-8.4c0.5-3.3-0.6-7.2,4-8.8c1.7-3.7,3.6-7.4,5-11.3c0.5-2.3-0.5-4.8,2-7.1
			c2.1,0.2,2-2.7,3.9-4.3c2.9,0.5,6.1-0.1,9.6,0.8c3.6,1,7.6,0.2,11.4,0.2c0.6,1,1.6,1.1,2.4,1.2c0.5,7-1.6,13.6-1,20.4
			c0.1,1.4-0.6,3.1-1.4,4.4c-2.2,3.9-3.6,8.2-5.5,12.2c-3.1,6.7-5.9,13.5-9.1,20.2c-0.5,1-0.5,3-2.7,2.8c0,1.4,0,2.9,0,3.2
			C764.7,498.9,762.7,503.4,760.6,508.1z"/>
	</g>
</g>
</svg>
