<?xml version="1.0" encoding="utf-8"?>
<!-- Generator: Adobe Illustrator 17.1.0, SVG Export Plug-In . SVG Version: 6.00 Build 0)  -->
<!DOCTYPE svg PUBLIC "-//W3C//DTD SVG 1.1//EN" "http://www.w3.org/Graphics/SVG/1.1/DTD/svg11.dtd">
<svg version="1.1" id="Layer_1" xmlns="http://www.w3.org/2000/svg" xmlns:xlink="http://www.w3.org/1999/xlink" x="0px" y="0px"
	 viewBox="0 0 1440 937" enable-background="new 0 0 1440 937" xml:space="preserve">
<g>
	<g>
		<path d="M646,492.2c0-4,0.1-7.1,0-10.3c-0.1-1.9,0.2-3.7-0.8-5.7c-0.9-1.8-0.2-4.3,0.7-6.5c2.1-5.2,4.6-10.1,7.3-14.8
			c3.1-0.1,4.9,1.9,7.9,2.9c3.6-0.1,7.6,1.6,11.7,2.6c1.8,0.4,3.8,0,5.4,1.4c0.5,0.5,2.3,0.6,3.1-0.7c1.5,1.3,4.3,0.4,4.9,2.8
			c1.4,0,2.7-0.3,3.7,0.1c7.2,2.5,14.9,3.4,22.2,5.6c0.1,0,0.2,0.2,0.3,0.3c1.8-0.9,1.8-1,4.2-0.9c0.9,2.3,3.4,2.4,5.2,2.8
			c4.7,1.1,9.4,2.3,14.2,3.1c0.8,0.1,1.5,0.3,2.2,0.7c1.1,0.7,2.5,0.7,3.3-1.1c3,2.2,6.4,3,9.4,4.5c-0.1,2.6,0.2,4.7-0.9,6.9
			c-0.9,1.9,0.7,4.5-1,6.6c-0.4,0.5-0.1,1.6-0.1,2.4c0,3.2-1.4,6.2-1.7,9.3c-0.4,3.8-1.9,7.5-1.2,11.7c-18.5-4.3-36.7-8.6-54.4-12.7
			c-1.3-1.5-0.2-3-1.1-4.2c-0.5,0-1.2-0.1-1.9-0.1c-0.9,0.8-0.8,2.4-2.5,3.1C673.1,498.7,659.5,496.2,646,492.2z"/>
	</g>
</g>
</svg>
