<?xml version="1.0" encoding="utf-8"?>
<!-- Generator: Adobe Illustrator 17.1.0, SVG Export Plug-In . SVG Version: 6.00 Build 0)  -->
<!DOCTYPE svg PUBLIC "-//W3C//DTD SVG 1.1//EN" "http://www.w3.org/Graphics/SVG/1.1/DTD/svg11.dtd">
<svg version="1.1" id="Layer_1" xmlns="http://www.w3.org/2000/svg" xmlns:xlink="http://www.w3.org/1999/xlink" x="0px" y="0px"
	 viewBox="0 0 1440 937" enable-background="new 0 0 1440 937" xml:space="preserve">
<g>
	<g>
		<path d="M731.2,432.8c-3.2,0.9-5.2-1.7-7.9-0.7c-0.2-0.8-0.3-1.3-0.5-1.9c-2.9,0-5.8-3.3-8.5-0.2c-1.4,0.1-1.5-1.3-2.6-1
			c-0.2,0.1-0.6,0.3-0.8,0.5c-0.7,1.7-1.2,3.5-2.2,5.1c-0.7,1-0.8,2.7-2.7,2.9c-0.9,0.1-1.2,1.4-1.4,2.4c-1.4,0-2.9,0-4.2,0
			c-2.1-1-1.4-2.9-1.6-4.4c-2.3-1.8-4.2,1-6.8,0.5c-0.7-10.9-0.3-21.8,2.3-33c5.5,1,11,2.7,16.7,3.6c5.6,0.9,11,2.7,16.5,3.7
			c5.6,1,11.3,2.5,16.9,3.8c5.6,1.4,11.2,2.6,16.8,4c5.4,1.3,10.9,2.8,16.4,3.7c5.7,1,11.2,3.5,16.9,3.4c0.5,0.5,0.9,0.9,1.4,1.4
			c0,1.5-0.1,3.2,0,4.8c0.1,1.4-0.8,2.6-1.4,3.4c-0.6,0.7-2.4,1-2.5,1.9c-0.2,2.6-1.5,4.8-2.2,7.1c-1.3,4.6-0.8,9.3-1,13.9
			c-1.8,1.3-2.9-0.6-4.1-0.5c-1.8,0.2-3.1-1.7-4.5-1c-1.6,0.7-2.9,0.2-4.2-0.1c-5.2-1.2-10.3-2.3-15.5-3.6c-3.6-0.9-7.3-1.8-11-2.4
			c-2.2-0.4-4.2-1.6-6.4-0.7c-0.1,0.5-0.3,1-0.4,1.6c-4,0.8-7.7-0.8-11.6-2C731.2,443.7,731.2,438.6,731.2,432.8z"/>
	</g>
</g>
</svg>
