<?xml version="1.0" encoding="utf-8"?>
<!-- Generator: Adobe Illustrator 17.1.0, SVG Export Plug-In . SVG Version: 6.00 Build 0)  -->
<!DOCTYPE svg PUBLIC "-//W3C//DTD SVG 1.1//EN" "http://www.w3.org/Graphics/SVG/1.1/DTD/svg11.dtd">
<svg version="1.1" id="Layer_1" xmlns="http://www.w3.org/2000/svg" xmlns:xlink="http://www.w3.org/1999/xlink" x="0px" y="0px"
	 viewBox="0 0 1440 937" enable-background="new 0 0 1440 937" xml:space="preserve">
<g>
	<g>
		<path d="M683.6,484.2c0.1,2.3-3.7,2.1-4.4,4.6c0-4.5,0-8.9,0-13.2c-0.6-0.6-1.1-1.1-1.7-1.7c-2.6,0-5.4,0.6-7.8-0.1
			c-4.7-1.4-9.4-0.4-14.5-1c-0.2-3.2-0.4-6.2,1.6-9.4c2.3-3.8,4.5-7.8,6-12c3.3-9,8.5-17.1,12.2-25.9c3.5-8.2,7.5-16.2,11.9-24
			c1-1.8,0.6-4.1,2.6-5.6c2.6,1.5,5.7,1.1,8.5,2c3.3,1,6.6,2.2,10.1,2.2c1.1,0,2.7,0.9,3.7,2.4c0,0.5,0.1,1.3,0,2.1
			c-0.5,4.6,0.6,9.1,1,13.6c0.2,2.8-0.7,5-2.7,6.9c-1.8,1.7-3.3,3.4-3.4,6.1c0,0.8-0.7,1.8-1.2,2.4c-1.7,2-2,4.3-1.7,5.9
			c-1,3.4-3.2,4.9-5,6.8c0,0.6,0,1.3,0,2c-0.9,0.9-1.9,1.9-3,2.9c0.4,3.1-1.7,5.5-3,8.5c0,0.9-0.1,2.2,0,3.6
			c0.1,1.4-0.9,2.9-1.5,3.3c-4.4,2.5-4.3,7.6-6.9,11.1C683.3,479.6,684.4,481.4,683.6,484.2z"/>
	</g>
</g>
</svg>
