<?xml version="1.0" encoding="utf-8"?>
<!-- Generator: Adobe Illustrator 17.1.0, SVG Export Plug-In . SVG Version: 6.00 Build 0)  -->
<!DOCTYPE svg PUBLIC "-//W3C//DTD SVG 1.1//EN" "http://www.w3.org/Graphics/SVG/1.1/DTD/svg11.dtd">
<svg version="1.1" id="Layer_1" xmlns="http://www.w3.org/2000/svg" xmlns:xlink="http://www.w3.org/1999/xlink" x="0px" y="0px"
	 viewBox="0 0 1440 937" enable-background="new 0 0 1440 937" xml:space="preserve">
<g>
	<g>
		<path d="M790.4,458.9c-0.3-0.3-0.7-0.7-1.4-1.4c0-3.4-0.8-7.4,0.2-10.9c1.2-4.2,1.2-9.1,5-12.4c1.2-1.1,2.1-2.8,1.8-4.7
			c-0.1-0.7,0.1-1.3,0-2c-0.7-5.4,1.6-10.6,1-16.1c-0.1-1.4,1.3-2.5,1-4.1c-0.3-1.4-0.1-3-0.1-4.5c1-3.3,3.6-4.4,6.7-4.8
			c0.8-0.1,1.5,0,2.3-0.4c2.4-1.2,5-0.8,7.3,0.4c1.7,0.9,3.1,2.3,5.2,2c0.8,0.8,1.6,1.6,2.5,2.5c0.3,1.4-1.2,2.1-1,3.6
			c0.2,2.6-0.1,5.3,0.1,8c0.6,5.6-1.2,11-1.2,16.6c0,2.9-1.3,5.7-2.1,8.6c-0.5,1.9-0.9,3.8-0.7,5.6c0.5,7-0.8,14-1.3,20.9
			c-0.4,0.4-0.7,0.7-1.2,1.2c-1.3,0-2.8,0-4.5,0c-0.1-2.2-0.4-4.1-3.5-4c-2.5,0.1-4.5-2-7.2-1.9c-1-1.9-3.1-0.3-4.4-1.4
			C793.7,458.3,791.9,459.4,790.4,458.9z"/>
	</g>
</g>
</svg>
