<?xml version="1.0" encoding="utf-8"?>
<!-- Generator: Adobe Illustrator 17.1.0, SVG Export Plug-In . SVG Version: 6.00 Build 0)  -->
<!DOCTYPE svg PUBLIC "-//W3C//DTD SVG 1.1//EN" "http://www.w3.org/Graphics/SVG/1.1/DTD/svg11.dtd">
<svg version="1.1" id="Layer_1" xmlns="http://www.w3.org/2000/svg" xmlns:xlink="http://www.w3.org/1999/xlink" x="0px" y="0px"
	 viewBox="0 0 1440 937" enable-background="new 0 0 1440 937" xml:space="preserve">
<g>
	<g>
		<path d="M643.9,415.1c0.6-10.5-1.4-20.9,2.3-31.1c3.1,0,6.4-0.5,9.4,0.1c4.9,1.1,9.9,0.1,14.6,1.1c4.8,1,9.5,0.1,14.1,0.9
			c5.4,1,10.8,0.4,16.1,1c2.7,0.3,5.4,0.9,8.2,0.8c2.1-2,2.8-5.2,5-7c1.9,0.3,2.1,1.6,2.7,2.7c0.6,1.1,1.8,1.9,2.9,3
			c-2.3,6.8-0.5,14-1.2,20.8c-2.1,3-2.9,6.7-5.5,9.8c-0.8-5.2,0-10.1-0.5-15.4c-7.2-2.5-14.8-4.1-22.7-5.1
			c-3.4,6.8-6.9,13.2-9.9,20.3c-3.6-0.5-7.7,0.9-11.6-1c-0.5-0.3-1.3-0.1-2,0C658.5,416.7,651.4,414.3,643.9,415.1z"/>
	</g>
</g>
</svg>
