<?xml version="1.0" encoding="utf-8"?>
<!-- Generator: Adobe Illustrator 17.1.0, SVG Export Plug-In . SVG Version: 6.00 Build 0)  -->
<!DOCTYPE svg PUBLIC "-//W3C//DTD SVG 1.1//EN" "http://www.w3.org/Graphics/SVG/1.1/DTD/svg11.dtd">
<svg version="1.1" id="Layer_1" xmlns="http://www.w3.org/2000/svg" xmlns:xlink="http://www.w3.org/1999/xlink" x="0px" y="0px"
	 viewBox="0 0 1440 937" enable-background="new 0 0 1440 937" xml:space="preserve">
<g>
	<g>
		<path d="M640.3,526.2c-2-1.8-4.5-1-6.4-1.2c-2.1-1.1-3.7-1.9-5.9-3.1c-3-0.9-6,2-10,2.1c0-1.8,0-3.6,0-5.4c0-3.7-0.1-7.3,0-11
			c0.1-2-0.7-4.1,0.8-6.2c1.1-1.6-0.3-3.9,1-6.1c1-1.7-0.3-4.5,1.2-6.5c-0.8-3,1.2-5.6,1.1-8.6c-0.1-2.5,1.6-4.9,0.9-7.6
			c2.3-2-0.2-5.1,1.8-7.3c0.5-0.5,0.2-1.9,0.2-2.9c0-3,0-6,0-9.2c2-0.7,1.7-3.6,4.2-4.5c1.9,0.9,2.1,3.7,4.2,4
			c1.2,1.4,0.1,2.9,1.2,4.3c4.6,2.3,10.4,1.6,15.6,4.4c-1.6,3.3-3.2,6.6-5.1,10.4c0.2,1.6-0.1,3.7,0.8,6c0.8,2.2,0.2,4.9,0.2,7.4
			c0,2.3,0,4.7,0,7c0,2.4,0,4.7-0.9,7.1c-0.7,2-0.1,4.3-1,6.6c-0.8,1.9-0.7,4.4-0.9,6.5c-0.3,2.4-1.4,4.6-1.2,7.1
			C642.2,522,641.9,524.1,640.3,526.2z"/>
	</g>
</g>
</svg>
