<?xml version="1.0" encoding="utf-8"?>
<!-- Generator: Adobe Illustrator 17.1.0, SVG Export Plug-In . SVG Version: 6.00 Build 0)  -->
<!DOCTYPE svg PUBLIC "-//W3C//DTD SVG 1.1//EN" "http://www.w3.org/Graphics/SVG/1.1/DTD/svg11.dtd">
<svg version="1.1" id="Layer_1" xmlns="http://www.w3.org/2000/svg" xmlns:xlink="http://www.w3.org/1999/xlink" x="0px" y="0px"
	 viewBox="0 0 1440 937" enable-background="new 0 0 1440 937" xml:space="preserve">
<g>
	<g>
		<path d="M765.2,537c-0.5-1.5,0.3-3.2-1.5-4c-2.5,0-5-0.2-7.4,0.1c-2.5,0.3-4.5-1.7-7.2-1c0-1.7,0-3.1,0-4.4
			c-0.3-0.3-0.5-0.5-0.5-0.5c-2.8,1.1-4.1-2.3-7-2.1c-1.3,0.4-1.9,3.2-4.5,1.6c-0.7-0.8,0.4-2.3-0.8-3.9c-0.2,2.9-1.6,5.2-1.4,8.2
			c-3.6-0.4-7.4,1-10.8-1c-0.5-5.3,0.8-10.4-1.3-15.1c0.8-1.3,1.7-2.2,3.1-2c0-1,0-1.7,0-2.3c3.7-1,3.7-4.7,5.3-7.3
			c3.1-0.7,6.3-1.5,9.8-2.3c3.8,2.6,7.3,6.2,12.3,7.1c0.3-0.3,0.7-0.6,1-0.9c0.3,0.3,0.7,0.8,1.1,0.9c0.4,0.2,1,0.1,1.5,0
			c8.2-0.7,16.3,1.6,24.6,1c5.1,1.6,10.4,0.9,15.6,0.9c1.5,0,2.1,1.4,3.9,1.2c-0.5,3.7,0.1,7.3-0.9,11.1c-1,3.6-0.2,7.6-0.2,11.3
			c-0.5,0.5-0.8,0.8-1.3,1.3c-2.3,0-4.7,0-6.9,0c-1.3,0.9-0.3,2.1-1.1,3c-4,0-8.1,0-12.3,0c-0.4-1.6-2.5-1.9-2.7-3.5
			c-0.9,0.9-1.9,1.9-2.5,2.6C770.2,537,767.8,537,765.2,537z"/>
	</g>
</g>
</svg>
