<?xml version="1.0" encoding="utf-8"?>
<!-- Generator: Adobe Illustrator 17.1.0, SVG Export Plug-In . SVG Version: 6.00 Build 0)  -->
<!DOCTYPE svg PUBLIC "-//W3C//DTD SVG 1.1//EN" "http://www.w3.org/Graphics/SVG/1.1/DTD/svg11.dtd">
<svg version="1.1" id="Layer_1" xmlns="http://www.w3.org/2000/svg" xmlns:xlink="http://www.w3.org/1999/xlink" x="0px" y="0px"
	 viewBox="0 0 1440 937" enable-background="new 0 0 1440 937" xml:space="preserve">
<g>
	<g>
		<path d="M830.4,456c-1,0-2,0-2.8,0c-1.8,0.8-1.4,2.8-1.9,4.1c-0.7-0.1-1-0.2-1.4-0.3c-0.6-1.1-0.1-2.2-0.4-3.6
			c-1.5-0.5-3.1-0.2-4.8-0.2c-0.1,0.9-0.2,1.7-0.2,2.5c-0.7,0.8-1.6,0.2-2.3,0.4c-0.2-0.2-0.6-0.5-0.6-0.7c0-6,1.6-12,1-18.1
			c-0.1-1.4,2-2.3,0.5-4.3c2.7,0.6,4.2-1.2,6.2-1c0.2-0.6,0.4-1.2,0.7-1.7c4.4-0.9,6.5,3.8,10.7,4c-0.4,1.9,0.8,3.9-1,5.5
			c-0.2,0.1-0.1,0.6,0,1c0.6,5.1-1.6,10-1,15.1c0.1,0.5,0.1,1-0.5,1.3C831.3,459.1,833,456.7,830.4,456z"/>
	</g>
</g>
</svg>
