<?xml version="1.0" encoding="utf-8"?>
<!-- Generator: Adobe Illustrator 17.1.0, SVG Export Plug-In . SVG Version: 6.00 Build 0)  -->
<!DOCTYPE svg PUBLIC "-//W3C//DTD SVG 1.1//EN" "http://www.w3.org/Graphics/SVG/1.1/DTD/svg11.dtd">
<svg version="1.1" id="Layer_1" xmlns="http://www.w3.org/2000/svg" xmlns:xlink="http://www.w3.org/1999/xlink" x="0px" y="0px"
	 viewBox="0 0 1440 937" enable-background="new 0 0 1440 937" xml:space="preserve">
<g>
	<g>
		<path d="M620.5,485.8c-0.8-0.6-1.8-1-2.8-0.8c-2.2,0.5-1.2,3.1-2.5,4.3c-2.2-3.8-2.2-3.8-4.5-5.1c-0.8,0.3-1.6,0.7-2.5,1.1
			c-0.6,0.6,0,1.5-0.3,2.3c-0.3,0.5-0.8,0.4-1.7,0.4c-0.4-4.3,0-8.7-0.2-13.1c-0.2-4.2,2-8.2,0.8-12.9c3.2,1.6,6.3,0.9,9.2,0.9
			c3,0.1,5.8,2.1,9.2,0.6c-1.2,7.5-3,14-3.3,21.1C621.6,484.9,621.1,485.3,620.5,485.8z"/>
	</g>
</g>
</svg>
