<?xml version="1.0" encoding="utf-8"?>
<!-- Generator: Adobe Illustrator 17.1.0, SVG Export Plug-In . SVG Version: 6.00 Build 0)  -->
<!DOCTYPE svg PUBLIC "-//W3C//DTD SVG 1.1//EN" "http://www.w3.org/Graphics/SVG/1.1/DTD/svg11.dtd">
<svg version="1.1" id="Layer_1" xmlns="http://www.w3.org/2000/svg" xmlns:xlink="http://www.w3.org/1999/xlink" x="0px" y="0px"
	 viewBox="0 0 1440 937" enable-background="new 0 0 1440 937" xml:space="preserve">
<g>
	<g>
		<path d="M705.7,533c-3.2,0-6.2-0.3-9.2,0.1c-3.2,0.4-5.9-1.5-9.1-1.1c-3,0.3-6.2,0.7-8.9-0.1c-3.7-1.1-7.4-0.8-11.1-0.8
			c-2.9,0-5.7-0.4-8.3-1.6c-0.6-0.3-1.2-0.5-1.8-0.4c-6.9,0.6-13.7-1.7-20.6-1c-2.8,0.3-5.2-1.4-8.1-1.1c-2.8,0.3-5.7,0.1-8.5,0.1
			c-1,0-1.3-1-2.1-1.4c0-2.6,0-5.2,0-7.9c0-5.3,0.3-10.7-0.1-16c-0.4-5-1.4-10-0.7-15.5c0.4-0.8,1.6-1.2,2.8-1.7c0-0.7,0-1.3,0-2
			c0.3-0.2,0.5-0.5,0.8-0.5c2.7,0,5.5-0.6,8,0.1c5,1.3,10.2,0.1,15.1,1c5.1,1,10.2,0,15.1,1c5.1,1,10.1,0.2,15.1,1
			c3.5,0.6,7,1,11,0.8c3.6-7.8,7.3-15.8,11.1-24.1c10.1,1.7,19.6,4.7,29.6,6.4c0.4,0.4,0.8,0.8,1.3,1.3c0,3,0,6,0,9
			c0,8.2-0.1,8.2-4,16.3c-4.3,9-8.2,18.3-12.5,27.3C708.9,525.6,707.2,529.1,705.7,533z"/>
	</g>
</g>
</svg>
