<?xml version="1.0" encoding="utf-8"?>
<!-- Generator: Adobe Illustrator 17.1.0, SVG Export Plug-In . SVG Version: 6.00 Build 0)  -->
<!DOCTYPE svg PUBLIC "-//W3C//DTD SVG 1.1//EN" "http://www.w3.org/Graphics/SVG/1.1/DTD/svg11.dtd">
<svg version="1.1" id="Layer_1" xmlns="http://www.w3.org/2000/svg" xmlns:xlink="http://www.w3.org/1999/xlink" x="0px" y="0px"
	 viewBox="0 0 1440 937" enable-background="new 0 0 1440 937" xml:space="preserve">
<g>
	<g>
		<path d="M729,456.9c0-6.3,0-12.3,0-18.6c-4.2-0.9-8-2.8-12.1-5.1c-0.5-1.3,0.7-2.6,1.4-3.9c3.5-6.4,6.3-13.1,9.2-19.7
			c2.5-5.6,5.9-10.9,7.4-16.9c0.1-0.6,0.8-1,1.2-1.5c2.2-0.7,4.6,0.6,6.6-1.2c0.3-0.2,1.2-0.2,1.4,0c2,1.8,4.4,1,6.6,0.9
			c7.9-0.3,15.7,1.8,23.6,1.1c4.6,1.8,9.5,0.2,14,1.1c5.5,1.1,11.2,0,16.6,1.1c5.1,1,10.1,0.4,15.7,1c0.2,0.4,0.7,1.2,1,1.7
			c1.7,0.1,2.8,0.1,4.2,0.2c0,4.4,0.6,8.8-0.2,13c-0.6,3.7-0.2,7.5-1,11.1c-0.8,3.5-0.6,7-0.9,10.5c-0.8,0.5-1,1.5-2.1,1.4
			c-3.2-0.5-6.4,0.8-9.6-0.9c-1.3-0.7-3.3-0.2-4.9-0.1c-7.9,0.4-15.7-1.7-23.6-1.1c-1.9,0.1-3.6-0.9-4.7-2.5c-0.2-0.9,0.3-1.3,1.1-2
			c-0.6-0.5-1.2-1-1.7-1.4c-1.5,0-2.4,0.9-2.4,2.1c0.1,1.4-0.7,2.1-1.3,2.7c-5,1.3-9.5-1.6-14.8-0.5c-5.4,9.9-9.2,21.1-15,31.4
			C739.6,459.4,734.3,458.1,729,456.9z"/>
	</g>
</g>
</svg>
