<?xml version="1.0" encoding="utf-8"?>
<!-- Generator: Adobe Illustrator 17.1.0, SVG Export Plug-In . SVG Version: 6.00 Build 0)  -->
<!DOCTYPE svg PUBLIC "-//W3C//DTD SVG 1.1//EN" "http://www.w3.org/Graphics/SVG/1.1/DTD/svg11.dtd">
<svg version="1.1" id="Layer_1" xmlns="http://www.w3.org/2000/svg" xmlns:xlink="http://www.w3.org/1999/xlink" x="0px" y="0px"
	 viewBox="0 0 1440 937" enable-background="new 0 0 1440 937" xml:space="preserve">
<g>
	<g>
		<path d="M800.1,525.9c-4,0-8.4,0-13,0c0-6.9,0-13.7,0-20.9c-4.7,0.5-8.9-2-13.5-0.8c-2-2.8,1.7-5.3,0.1-7.9
			c-5.4-1.6-11.1-1.9-16.2-4.2c-5.6,0.2-10.7-2.6-16.2-3.2c-2.7-0.3-6-0.5-8.1-3.2c0.5-0.9,0.9-1.8,0.9-3c-0.1-3.8,0.1-7.7-0.1-11.5
			c-0.1-1.7,0.4-3.3,1.1-4.5c3.2-5.7,5-12,8.7-17.9c9,1.9,18.2,4.4,27.6,6.1c9.4,1.7,18.8,3.7,28.6,5.7c2.7,1.5,5.9,2.8,9.6,2.5
			c0.4,0.5,0.8,1,1.4,1.5c0,0.2,0.2,0.6,0.1,0.8c-0.6,0.8-1.1,1.5-1,2.6c0.1,2.3-0.2,4.7,0.1,7c0.7,6.3-1.3,12.3-1,18.6
			c-1.6,3.2-0.3,6.9-1.1,10c-1.4,5-0.4,10.5-2.8,15.3c-0.2,0.4-0.1,1,0,1.5c0.6,5.2-2.2,10.2-0.6,15.9c-2.1-1.2-1.2-2.5-1.4-3.6
			c-0.2-1.1,0.4-2.4-0.3-3.3C801.9,528.2,802,526.7,800.1,525.9z"/>
	</g>
</g>
</svg>
