<?xml version="1.0" encoding="utf-8"?>
<!-- Generator: Adobe Illustrator 17.1.0, SVG Export Plug-In . SVG Version: 6.00 Build 0)  -->
<!DOCTYPE svg PUBLIC "-//W3C//DTD SVG 1.1//EN" "http://www.w3.org/Graphics/SVG/1.1/DTD/svg11.dtd">
<svg version="1.1" id="Layer_1" xmlns="http://www.w3.org/2000/svg" xmlns:xlink="http://www.w3.org/1999/xlink" x="0px" y="0px"
	 viewBox="0 0 1440 937" enable-background="new 0 0 1440 937" xml:space="preserve">
<g>
	<g>
		<path d="M584,519.4c0,1.7,0,3.5,0,5.3c-1.1,0.1-1.3-0.8-2-1.2c0-1.7,0-3.3,0-5c-1-1.1-3.1,0.2-4.1-1.7c0-1.9,0-3.8,0-5.7
			c-0.7,0-1-0.1-1.3-0.1c-1.6,1.6-1.4,4-2.6,6c0-2.1-0.1-4.2,0-6.3c0.2-2.2-1.4-3.8-1.1-6.1c0.5-3.7,0-7.4,0.9-11.1
			c0.8-3.3,1.5-6.8,2-10.2c0.4-2.5,1-5,1.1-7.6c0.1-1.8,0.6-3.4,1-5.1c0.4-1.7-0.1-3.3,0.8-5.2c1-1.8-0.3-4.5,1.2-6.5
			c-0.8-3.1,0.9-6,1.2-9.1c0.3-2.8,0.6-5.9,2.2-8.9c1.7,0.8,3.3-0.7,5.4-0.1c2.1,0.7,4.6,0.1,7,0.1c2.2,0,4.7-0.7,6.4,0.2
			c2.3,1.1,4.5,0.7,6.7,0.8c2.1,0.1,3.8,1.8,6.2,0.8c0,3.8-0.1,7.1,0,10.4c0.1,2.2-0.7,4.6,0.9,6.6c0.3,0.4,0.3,1.5,0,1.9
			c-1.3,2.1-0.2,4.7-1.1,6.5c-1.1,2.3,0,4.7-0.9,6.6c-1.1,2.2-0.7,4.4-0.9,6.6c-0.5,0.5-0.9,0.9-1.6,1.6c-7.2-0.2-14.5-2.1-22.2-0.8
			c-0.1,0.1-0.6,0.6-1.1,1.1c-0.3,1.8,0.1,3.7-1,5.6c-0.9,1.5,0.8,3.9-1.1,5.5c0.2,4.7-2.2,9.4-0.9,14c1,3.4,0.5,6.7,0.9,10
			C585.3,518.9,584.7,519.1,584,519.4z"/>
	</g>
</g>
</svg>
