<?xml version="1.0" encoding="utf-8"?>
<!-- Generator: Adobe Illustrator 17.1.0, SVG Export Plug-In . SVG Version: 6.00 Build 0)  -->
<!DOCTYPE svg PUBLIC "-//W3C//DTD SVG 1.1//EN" "http://www.w3.org/Graphics/SVG/1.1/DTD/svg11.dtd">
<svg version="1.1" id="Layer_1" xmlns="http://www.w3.org/2000/svg" xmlns:xlink="http://www.w3.org/1999/xlink" x="0px" y="0px"
	 viewBox="0 0 1440 937" enable-background="new 0 0 1440 937" xml:space="preserve">
<g>
	<g>
		<path d="M748,528.5c0,13.3,0,26.6,0,40.3c-2.5,0-4.9,0.8-7.4-0.6c-0.9-0.5-2.3-0.1-3.4-0.2c-3.9-0.5-7.9,1.2-11.6-0.9
			c-1.9,2.2-3.6-0.7-5.7-0.2c-1.9,0.5-4,0-6,0.1c-1.5,0.1-2.8-0.3-4-1.1c-0.6,0.3-1.1,0.6-1.9,1.1c0-7.2-0.6-14.2,0.2-21.1
			c0.7-6.6,0.8-13.3,3.1-20.1c3.9,0.5,8-0.8,11.9,1.1c0.4,0.2,1,0.1,1.5,0c7.6-0.7,15,1.5,22.6,1C747.5,528,747.7,528.3,748,528.5z"
			/>
		<path d="M786.6,524.7c5.1,2.1,9.5,0.9,14,1.4c1.2,0.7,1.4,2.3,2.3,3.6c0,4.1-0.2,8.4,0.1,12.7c0.2,2.5-1.5,4.6-1.2,7.1
			c0.3,2.3,0.7,4.9-0.1,6.9c-1.3,3.7-0.6,7.4-0.9,11.1c-0.3,0.5-0.8,0.4-1.6,0.4c-0.9-1.8,0-3.8-0.5-5.8c-2.4,0-4.8,0-7.5,0
			c-0.3,4.1-2.1,8.1-1.1,12.4c-1.2,0.5-2.1,0.7-2.2-0.5c-0.1-2.3-1.8-4-2-6.2c-0.3-3-0.1-6-0.1-9c0-2,0.1-4,0-6
			C785.4,543.7,788.1,534.6,786.6,524.7z"/>
	</g>
</g>
</svg>
