<?xml version="1.0" encoding="utf-8"?>
<!-- Generator: Adobe Illustrator 17.1.0, SVG Export Plug-In . SVG Version: 6.00 Build 0)  -->
<!DOCTYPE svg PUBLIC "-//W3C//DTD SVG 1.1//EN" "http://www.w3.org/Graphics/SVG/1.1/DTD/svg11.dtd">
<svg version="1.1" id="Layer_1" xmlns="http://www.w3.org/2000/svg" xmlns:xlink="http://www.w3.org/1999/xlink" x="0px" y="0px"
	 viewBox="0 0 1440 937" enable-background="new 0 0 1440 937" xml:space="preserve">
<g>
	<g>
		<path d="M827.8,474.7c0.9-2.8-1-5.1-0.9-7.7c0.1-2.5,0.3-5,0-7.5c-0.3-2.5,1.3-4.6,1.2-7.1c-0.1-2.3-1-4.9,0.9-7.1
			c0.2-0.2,0.1-0.7,0-1c-0.8-4.9,1.4-9.7,1-14.6c-0.2-2.4,1.4-4.5,1.1-7.1c-0.3-2.2-0.7-4.6,0.9-6.6c0.1-0.1,0-0.3,0-0.5
			c-0.8-5.4,1.5-10.7,1-16.1c-0.1-1-0.4-2.3,0.1-2.9c1.8-2.3,0.2-5.5,2.5-7.6c3.1,0,6.4,0.1,9.8,0c3.1-0.2,5.9,1.9,9,0.9
			c2.9,4,0.9,8.6,1.8,13c2.8,0,5.6,0,8.8,0c0,5.9,0.5,11.8-0.2,17.5c-0.4,3.4-0.1,6.9-0.9,10.1c-0.9,3.4-0.8,6.7-0.8,10.1
			c0,2.1-1.4,3.9-1.1,6.1c0.2,2,0.8,4.3-0.9,6.1c-0.2,0.2-0.1,0.7,0,1c0.8,6.1-1.5,12-1,18.1c0.2,2.5-1.4,4.7-1.3,7.7
			c-1.7-2.6,0.5-5.3-1.6-6.9c-1.1-1.1-1.3,0.5-2.1,0.4c-5.9-0.6-11.7,1.8-17.6,0.9C834.4,473.5,831.6,475.8,827.8,474.7z"/>
	</g>
</g>
</svg>
