<?xml version="1.0" encoding="utf-8"?>
<!-- Generator: Adobe Illustrator 17.1.0, SVG Export Plug-In . SVG Version: 6.00 Build 0)  -->
<!DOCTYPE svg PUBLIC "-//W3C//DTD SVG 1.1//EN" "http://www.w3.org/Graphics/SVG/1.1/DTD/svg11.dtd">
<svg version="1.1" id="Layer_1" xmlns="http://www.w3.org/2000/svg" xmlns:xlink="http://www.w3.org/1999/xlink" x="0px" y="0px"
	 viewBox="0 0 1440 937" enable-background="new 0 0 1440 937" xml:space="preserve">
<g>
	<g>
		<path d="M730.7,396c-3,0-5.9-0.2-8.7,0.1c-3,0.3-5.6-1.5-8.6-1.1c-3,0.3-6.2,0.7-8.9-0.1c-4.6-1.4-9.1-0.7-13.6-0.7
			c-2.8,0-5.2-1.5-8.1-1.2c-2.8,0.3-5.6,0.1-8.6,0.1c-0.5-5.4-1-10.8-2.9-15.5c-1.7-0.8-3.1-0.6-4.3-0.4c-5.9,0.6-11.7-1.5-17.5-1
			c-1.3,1.3-2.6,2.6-3.9,3.9c-0.8,0-1.6,0.3-2.5-0.3c-0.3-9.9-0.5-19.9,3.2-29.7c2.7,0.5,5.5-0.9,8,0.9c4.2-1.7,8.7-0.7,13-0.8
			c6.7-0.1,13.3,1.6,20.1,0.9c4.9,1.9,10,0.8,15.1,0.9c2.9,0.1,5.6,1.6,8.6,1.1c2.8-0.4,5.8-0.6,8.4,0.1c2.9,0.8,5.7,0.8,8.6,0.9
			c1.9,0.1,3.5,1.6,5.7,0.8C734.8,368.9,732.9,382.5,730.7,396z"/>
	</g>
</g>
</svg>
