<?xml version="1.0" encoding="utf-8"?>
<!-- Generator: Adobe Illustrator 17.1.0, SVG Export Plug-In . SVG Version: 6.00 Build 0)  -->
<!DOCTYPE svg PUBLIC "-//W3C//DTD SVG 1.1//EN" "http://www.w3.org/Graphics/SVG/1.1/DTD/svg11.dtd">
<svg version="1.1" id="Layer_1" xmlns="http://www.w3.org/2000/svg" xmlns:xlink="http://www.w3.org/1999/xlink" x="0px" y="0px"
	 viewBox="0 0 1440 937" enable-background="new 0 0 1440 937" xml:space="preserve">
<g>
	<g>
		<path d="M624.6,443c-0.6,0.6-1.1,1-1.5,1.4c-0.4,1.1,0.6,1.5,0.8,2c-1.3,3-4.8,0.3-6.5,2.5c-0.7-1.9-0.8-4.1-2.4-5.5
			c-3.4-1-6.8-1.9-10.4-1.5c-3.4,0.4-6.6-1.4-10.1-1.1c-3.6,0.3-7.3,0.1-11,0.1c-2.9-16.4-2.9-23.3-2.2-36.8
			c0.1-0.1,0.3-0.2,0.4-0.2c2.2,0,4.3,0,6.9,0c0.4-0.7,1.1-1.7,1.7-2.7c0.7-3.1-1.2-6.4-0.1-10.1c0.4-0.4,0.9-0.8,1.3-1.2
			c1.2-0.3,1.6,0.6,2.3,1.3c0,3.6,0,7.4,0,11.4c3.6,0,7,0,10.9,0c0.5-0.6,1.3-1.7,2.4-3.2c0-0.1-0.9-0.5-1-1
			c-0.1-2.6-0.1-5.3-0.1-8.3c0.3-0.4,0.9-0.9,1.2-1.2c1.5-0.3,1.8,0.6,2.6,1.2c0,3.6,0,7.4,0,11.7c4.1-0.4,8.2,0.9,12.1-1.5
			c0-3.7,0-7.5,0-11.1c0.6-0.6,1.1-1.1,1.5-1.5c1.4-0.3,1.7,0.9,2.5,1.5c0,3.7,0,7.3,0,11.1c4,1.4,7.9-0.2,11.9-0.9
			c0-4.1,0-8.2,0-12.2c1.8-1.1,2.9-0.4,4.1,1.1c0,3.6,0,7.4,0,11.5c2.8-0.5,5.7,1,8.1-1.4c1.1,1.3,1.3,2.8,2.9,3.7
			c-1,2.8,1.5,5.3,0.9,8.3c2,0.7,3.6,0.3,5.6-1c0.3,0.7,0.6,1.5,1.2,3.3c-0.7,2.4,1.6,6.1,1.3,10c-0.3,3.8-0.1,7.6-0.1,11.6
			c-1.9,0.7-3.9,0-5.6,0.4c-0.5,0.5-0.9,0.9-1.4,1.4c0,1.3,0,2.7,0,4.2c-6.1,0.5-12.1,1.9-18.1,1.2c-2.2-0.2-3.9,1.4-6.1,1.1
			C628.7,442.8,626.5,443,624.6,443z"/>
	</g>
</g>
</svg>
