<?xml version="1.0" encoding="utf-8"?>
<!-- Generator: Adobe Illustrator 17.1.0, SVG Export Plug-In . SVG Version: 6.00 Build 0)  -->
<!DOCTYPE svg PUBLIC "-//W3C//DTD SVG 1.1//EN" "http://www.w3.org/Graphics/SVG/1.1/DTD/svg11.dtd">
<svg version="1.1" id="Layer_1" xmlns="http://www.w3.org/2000/svg" xmlns:xlink="http://www.w3.org/1999/xlink" x="0px" y="0px"
	 viewBox="0 0 1440 937" enable-background="new 0 0 1440 937" xml:space="preserve">
<g>
	<g>
		<path d="M794.2,426.9c-3.3,0-6.1,0-9.2,0c0.2-2-0.1-3.8-1.5-5.9c-3.4,0.2-7.1,1.5-10.9,0.9c-3.8-0.6-7.3,1.4-11.4,0.9
			c0.4-2.4-1.3-4.4-1.1-6.8c0.3-2.6-1.5-4.9-1.1-7.6c0.4-2.4-1.7-4.5-0.7-7.3c-2.4,0-4.5,0-6.3,0c-2.3-1.9-1.9-4.2-1.9-6.4
			c0-7.1,0-14.3,0-21.4c1.4-0.5,3.1-0.1,3.9-2c0-4.1,0-8.4,0-12.6c1.1-2.1,2.9-1.9,4.7-1.6c0.6,0.6,1.2,1.2,1.8,1.8
			c0.5-0.2,0.5-0.6,0.6-1.1c0.4-1.1,1.2-1.6,2.5-1.9c3.4-1,6.7-2.4,9.6-3.5c4.5,0.7,8.7,1.6,12.8,3c0.1,0.5,0.2,0.9,0.3,1.4
			c1.7-2.4,1.9-5,1.8-7.5c1.7-0.8,2,0.5,3,1c0,2.4,0,4.9,0,7c0.5,0.9,1.1,0.6,1.5,0.7c0.9,1.6,1.3,3.4,1.7,5.3
			c0.6,3.1,0.5,6.2,1.7,9.2c0.8,1.9-0.3,4.5,1.1,6.5c-0.8,3,1.2,5.6,1.1,8.6c-0.1,2.5,1.5,4.9,0.9,7.6c2.3,2-0.3,5.2,1.9,7.2
			c0.3,0.2,0.1,0.9,0.1,1.4c0,5.3,0,10.6,0,16c-2,0-3.8,0-5.4,0c-0.5,0.5-0.9,0.9-1.4,1.4C794.2,422.9,794.2,424.7,794.2,426.9z"/>
	</g>
</g>
</svg>
