<?xml version="1.0" encoding="utf-8"?>
<!-- Generator: Adobe Illustrator 17.1.0, SVG Export Plug-In . SVG Version: 6.00 Build 0)  -->
<!DOCTYPE svg PUBLIC "-//W3C//DTD SVG 1.1//EN" "http://www.w3.org/Graphics/SVG/1.1/DTD/svg11.dtd">
<svg version="1.1" id="Layer_1" xmlns="http://www.w3.org/2000/svg" xmlns:xlink="http://www.w3.org/1999/xlink" x="0px" y="0px"
	 viewBox="0 0 1440 937" enable-background="new 0 0 1440 937" xml:space="preserve">
<g>
	<g>
		<path d="M793.2,527.3c0.3-1.5-1.5-2.9-1.3-5.1c-2.9-0.5-5.7-0.3-8.4,1.3c-2.7-8.9-1-17.5-1.6-26c1.9-1.1,3.9,0,5.9-0.7
			c0-3.7,0-7.5,0-11.4c2.1-0.6,4-1.2,6.1-1.8c0-1.7,0-3.5,0-5.1c0.5-0.5,0.9-0.9,1.5-1.5c6.1,0.4,12.3-1.9,18.7-1
			c2.1,0.3,3.5-1.8,5.7-0.8c0-2.8,0-5.3,0-8c2.3,0,4.4,0,6.8,0c1.9,1.5,1.2,4.1,1.4,6c0.7,0.8,1.1,1.3,1.5,1.8
			c5-1.9,10.3-0.1,15.2-1.2c3.4-0.8,6.7-0.5,10.2-0.9c0,2.4,0,4.5,0,6.6c1.5,0.9,3,0.3,4.5,0.5c3.2,2.1,4.3,5.6,4.5,8.9
			c0.3,5.4,1.5,10.6,1.2,16.1c-0.3,5.5-0.1,11-0.1,16.5c-0.5,0.5-1,1-1.4,1.4c-7.9-0.6-15.7,1.6-23.6,1.1c-4.6,1.7-9.5,0.2-14,1.2
			c-4.6,1-9.2,0.1-13.6,1c-4.9,1-9.7,0.9-14.6,0.8C796.2,526.9,795.4,529.2,793.2,527.3z"/>
	</g>
</g>
</svg>
