<?xml version="1.0" encoding="utf-8"?>
<!-- Generator: Adobe Illustrator 17.1.0, SVG Export Plug-In . SVG Version: 6.00 Build 0)  -->
<!DOCTYPE svg PUBLIC "-//W3C//DTD SVG 1.1//EN" "http://www.w3.org/Graphics/SVG/1.1/DTD/svg11.dtd">
<svg version="1.1" id="Layer_1" xmlns="http://www.w3.org/2000/svg" xmlns:xlink="http://www.w3.org/1999/xlink" x="0px" y="0px"
	 viewBox="0 0 1440 937" enable-background="new 0 0 1440 937" xml:space="preserve">
<g>
	<g>
		<path d="M690.8,545.1c-1.7,0-3.1,0-4.9,0c0.5,3.8-0.3,7.4,1,11.2c0.9,2.5,0.2,5.6,0.2,8.2c-0.5,0.5-0.9,1.2-1.2,1.2
			c-5.5,0-10.9,1.7-16.4,1.3c-0.5-1.1-0.7-2.2-1.6-2.8c-3.8,1.8-8-0.3-11.5,1.2c-3.6,1.5-7.5-0.6-11,1.4c-0.3-0.3-1.2-0.8-1.1-1.2
			c0.4-3.6-1.5-7-1-10.6c0.3-2.4-1.1-4.3-1.1-6.6c-0.1-2,0.8-4.3-0.9-6.1c-0.2-0.3-0.1-1,0-1.5c0.7-4.4-1.5-8.6-1-13.1
			c-2.1-6.9-0.4-14.1-1.1-21.2c1.3-0.6,2.5-1.2,4-1.9c0-1.9,0-4,0-5.1c0.9-1.5,1.3-2.2,1.5-2.6c1.9,0,2.5,1.2,2.8,4.9
			c3.4-1.3,6.8-2.7,10.2-3.7c1.8-0.5,3.7-0.3,5.7,0.3c2.4,0.7,4.7,2,7.3,1.5c1.1,0.8,1.5,2.5,3,2c1.7,0.2,2-1.3,3-1.9
			c1.1,0,2.2,0,3.4,0c1.3,5.2,1.9,10.4,2.4,15.6c0.4,0.4,0.9,0.9,1.3,1.3c2.2,0.4,3.9-2.1,6.4-0.6c0,1.4,0.1,3,0,4.6
			C689.3,528.9,691.8,536.7,690.8,545.1z"/>
	</g>
</g>
</svg>
