<?xml version="1.0" encoding="utf-8"?>
<!-- Generator: Adobe Illustrator 17.1.0, SVG Export Plug-In . SVG Version: 6.00 Build 0)  -->
<!DOCTYPE svg PUBLIC "-//W3C//DTD SVG 1.1//EN" "http://www.w3.org/Graphics/SVG/1.1/DTD/svg11.dtd">
<svg version="1.1" id="Layer_1" xmlns="http://www.w3.org/2000/svg" xmlns:xlink="http://www.w3.org/1999/xlink" x="0px" y="0px"
	 viewBox="0 0 1440 937" enable-background="new 0 0 1440 937" xml:space="preserve">
<g>
	<g>
		<path d="M750.9,484c0-1.9,0-3.3,0-4.3c-1.2-2.4-3.1-1.3-4.6-1.8c-0.6-0.6-1.2-1.2-1.8-1.8c-8.2,0.5-15.7-3.4-25-4.3
			c-1.5-0.3-3.5-4.2-7.2-1.9c-0.3-0.3-0.8-0.8-1.3-1.3c0-4.8,0.3-9.6-0.1-14.4c-0.6-7.3,3.1-13,6.1-19c1.1,0.2,1.7,1.4,2.7,0.8
			c4.1-2.3,7.1,0.1,10.6,2.2c1.6-1.3-0.6-4.2,2-5.2c1.1,0,2.2,0,3.5,0c0-2.6,0-5.1,0-7.4c0.6-0.6,1.1-1.1,1.7-1.7
			c7.8,0.8,15.5-1.7,23.4-0.9c4.6-1.7,9.4-0.5,14.1-1.1c2.9-0.4,5.6-1.1,8.5-0.8c0.4,0.4,0.7,0.7,1.4,1.4c-0.8,3.3,0.6,6.6,1.1,10.1
			c0.5,3.4,0.3,7,2.2,10.3c4,0,8.1,0,12.1,0c1.2,1.9,1.9,3.8,1.4,6.6c0.9-0.8,1.3-1.3,1.6-1.3c4.4-0.1,8.9,0,13.2,0
			c2.4,7.1,3,14.2,2.3,21.5c-0.4,0.4-0.7,0.7-1.1,1.1c-0.1,0.1-0.3,0.3-0.4,0.3c-7.1-0.7-14,1.2-21.2,1.1c0,2.5,0,4.9,0,7.3
			c-0.6,0.6-1.1,1.1-1.8,1.7c-2.8-0.8-5.3,1.3-8.3,1c-2.8-0.3-5.8-0.7-8.4,0.1c-4.4,1.3-8.8,0.7-13.1,0.8c-2.3,0.1-4.2,1.5-6.6,1.1
			C755.8,483.7,753.6,484,750.9,484z"/>
	</g>
</g>
</svg>
