<?xml version="1.0" encoding="utf-8"?>
<!-- Generator: Adobe Illustrator 17.1.0, SVG Export Plug-In . SVG Version: 6.00 Build 0)  -->
<!DOCTYPE svg PUBLIC "-//W3C//DTD SVG 1.1//EN" "http://www.w3.org/Graphics/SVG/1.1/DTD/svg11.dtd">
<svg version="1.1" id="Layer_1" xmlns="http://www.w3.org/2000/svg" xmlns:xlink="http://www.w3.org/1999/xlink" x="0px" y="0px"
	 viewBox="0 0 1440 937" enable-background="new 0 0 1440 937" xml:space="preserve">
<g>
	<g>
		<path d="M670.7,461.9c-2.8,0.3-5.6-0.6-8.1,1.3c-2.1-2.3-3.9-4.5-1.7-7.7c0.5-0.7,0.1-1.9,0.1-2.9c-0.3-9.5,1.7-19,1-28.5
			c1.3-3.3,1-6.7,1-10.1c0-0.9,0.1-1.9-0.3-2.9c-1-2.6,0-5.1,2.3-7.1c1,0,1.2,1,2,1.5c0,0.4,0,0.9,0,1.4c-0.8,10.4,1.3,20.6,1.1,31
			c0,2.2,1.2,4.2,1,6.6c-0.2,2.2-0.2,4.4,0.8,6.6c0.7,1.5,0,3.6,0.2,5.4C670.2,458.2,671.6,459.7,670.7,461.9z"/>
	</g>
</g>
</svg>
