<?xml version="1.0" encoding="utf-8"?>
<!-- Generator: Adobe Illustrator 17.1.0, SVG Export Plug-In . SVG Version: 6.00 Build 0)  -->
<!DOCTYPE svg PUBLIC "-//W3C//DTD SVG 1.1//EN" "http://www.w3.org/Graphics/SVG/1.1/DTD/svg11.dtd">
<svg version="1.1" id="Layer_1" xmlns="http://www.w3.org/2000/svg" xmlns:xlink="http://www.w3.org/1999/xlink" x="0px" y="0px"
	 viewBox="0 0 1440 937" enable-background="new 0 0 1440 937" xml:space="preserve">
<g>
	<g>
		<path d="M732.8,434.3c-0.8-0.8-1.3-1.3-1.8-1.8c0-2.7-0.5-5.7,0.1-8.3c0.9-3.9,0.1-7.9,1-11.6c1.3-5.4,0.8-10.8,0.7-16.1
			c-0.1-4.1,1.2-8,1.2-12.1c0-1.2-0.2-2.2-1.3-3.3c1.4-1.2,1.3-3,1.2-4.7c1.3-0.7,2.5-0.3,3.6-0.3c0.1,0.3,0.4,0.5,0.4,0.8
			c0,5,0.3,10-0.1,15c-0.5,6.6,1.5,13,1.1,19.6c1.8,3.9,0.7,8,1,12c-0.8,1.1-2,0.2-2.9,0.8c0,2.8,0,5.5,0,8.3
			C735.7,433.2,734.1,432.9,732.8,434.3z"/>
	</g>
</g>
</svg>
