<?xml version="1.0" encoding="utf-8"?>
<!-- Generator: Adobe Illustrator 17.1.0, SVG Export Plug-In . SVG Version: 6.00 Build 0)  -->
<!DOCTYPE svg PUBLIC "-//W3C//DTD SVG 1.1//EN" "http://www.w3.org/Graphics/SVG/1.1/DTD/svg11.dtd">
<svg version="1.1" id="Layer_1" xmlns="http://www.w3.org/2000/svg" xmlns:xlink="http://www.w3.org/1999/xlink" x="0px" y="0px"
	 viewBox="0 0 1440 937" enable-background="new 0 0 1440 937" xml:space="preserve">
<g>
	<g>
		<path d="M702.6,460c2.5-1.6,0-5,3.1-6c1.2-0.3,1.5,1,2.3,1.3c0,0.8,0,1.4,0,2.1c-0.7,10.5,1.6,21,1,31.5c1.4,3.4,0.3,7.2,1.2,10.5
			c1.1,4.1,0.5,8.1,0.9,12c-0.5,0.5-1,1-1.5,1.5c-2.3,0-4.6,0-7,0c-1.5-2.5-2.2-5.1-0.9-8c0.5-1.2-1-1.7-0.6-2.9
			c0.3-0.9,1.2-1.4,1.1-2.6c-0.6-6.4,1.7-12.6,0.9-19c-0.7-5.8,1.4-11.3,1-17C704,462.2,703.9,461.2,702.6,460z"/>
	</g>
</g>
</svg>
