<?xml version="1.0" encoding="utf-8"?>
<!-- Generator: Adobe Illustrator 17.1.0, SVG Export Plug-In . SVG Version: 6.00 Build 0)  -->
<!DOCTYPE svg PUBLIC "-//W3C//DTD SVG 1.1//EN" "http://www.w3.org/Graphics/SVG/1.1/DTD/svg11.dtd">
<svg version="1.1" id="Layer_1" xmlns="http://www.w3.org/2000/svg" xmlns:xlink="http://www.w3.org/1999/xlink" x="0px" y="0px"
	 viewBox="0 0 1440 937" enable-background="new 0 0 1440 937" xml:space="preserve">
<g>
	<g>
		<path d="M780.4,469c-0.9-1.8,0.1-3.9-0.7-5.9c-2.1,0-4.2,0-6.2,0c-0.9-1.1,0.8-1.2,0.6-2.1c-0.2-0.8,0.1-1.7-0.1-2.5
			c-0.7-4.6,1.3-9,1.1-13.6c-0.3-4.6,0-9.3-0.1-14c0-2,2-3.5,0.8-5.5c2.5-0.3,2.5-0.3,4.2,1c0,8.5,0.2,17.1-0.1,25.8
			c-0.2,4.9,1.3,9.7,1.1,14.6C780.9,467.5,781.4,468.4,780.4,469z"/>
		<path d="M781.5,474c-0.8-0.7-0.5-1.3-0.3-2C782.4,472.5,782.1,473.1,781.5,474z"/>
	</g>
</g>
</svg>
