<?xml version="1.0" encoding="utf-8"?>
<!-- Generator: Adobe Illustrator 17.1.0, SVG Export Plug-In . SVG Version: 6.00 Build 0)  -->
<!DOCTYPE svg PUBLIC "-//W3C//DTD SVG 1.1//EN" "http://www.w3.org/Graphics/SVG/1.1/DTD/svg11.dtd">
<svg version="1.1" id="Layer_1" xmlns="http://www.w3.org/2000/svg" xmlns:xlink="http://www.w3.org/1999/xlink" x="0px" y="0px"
	 viewBox="0 0 1440 937" enable-background="new 0 0 1440 937" xml:space="preserve">
<g>
	<g>
		<path d="M499.5,308.2c-1.1-2.2-1.7-4-1.5-6c0.6-5.2-1.7-10.3-1-15.6c-1.7-3.6-0.2-7.5-1.2-11c-1.3-4.4-0.4-8.8-0.9-13.1
			c8.2-2.6,16.5-4.5,24.5-7.2c2.5-0.8,5-1.6,7.6-2.1c2.6-0.6,5.2-0.9,7.7-2c1-0.4,2.3-0.2,3.5-0.1c7.4,0.6,14.6-1.5,22.1-1.1
			c2,0.1,3.9-1.2,6.1-1c2.1,0.2,4.3,0.1,6.2,0.1c0.8,0.7,0.4,1.4,0.5,2.1c0.4,2.4-0.7,4.8,0.7,7.2c1.2,1.9-0.7,4.6,1.3,6.4
			c0.1,0.1,0,0.3,0,0.5c-0.7,4.4,1.4,8.7,0.9,13.1c-0.3,2.5,1.3,4.6,1.1,7.1c-0.2,2.2,0.2,4.4,0.7,6.6c0.8,3.4,0.2,7.2,0.2,10.8
			c-6.6,0.5-12.9,1.1-19.2,1.5c-5,0.3-10.2,0.1-15,1c-4.4,0.8-8.8,0.1-13.1,0.9c-5,0.9-10.2,0.1-15,1.1
			C510.2,308.4,504.9,307.4,499.5,308.2z"/>
	</g>
</g>
</svg>
