<?xml version="1.0" encoding="utf-8"?>
<!-- Generator: Adobe Illustrator 17.1.0, SVG Export Plug-In . SVG Version: 6.00 Build 0)  -->
<!DOCTYPE svg PUBLIC "-//W3C//DTD SVG 1.1//EN" "http://www.w3.org/Graphics/SVG/1.1/DTD/svg11.dtd">
<svg version="1.1" id="Layer_1" xmlns="http://www.w3.org/2000/svg" xmlns:xlink="http://www.w3.org/1999/xlink" x="0px" y="0px"
	 viewBox="0 0 1440 937" enable-background="new 0 0 1440 937" xml:space="preserve">
<g>
	<g>
		<path d="M395,573.8c0,1.3,0,2,0,2.6c-0.1,0.1-0.2,0.4-0.3,0.4c-5.8-0.4-11.5,2-17.3,1c-0.4-0.4-0.9-0.7-1.1-1.1
			c-3.5-8.4-8.2-16.3-12.2-24.4c-2.2-4.3-3.4-8.9-2.9-13.9c0.4-0.4,0.9-0.8,1.4-1.3c7.8,0.5,15.5-1.6,23.4-1.1
			c4.4-1.6,9.2-0.2,13.5-1.2c4.3-1,8.4-0.7,12.6-0.7c2.4,0,4.5-1.5,7.1-1.1c2.4,0.4,5.2,0.7,7.4-0.1c3.9-1.3,7.8-0.9,11.6-0.8
			c2.7,0.1,4.9-1.5,7.6-1.2c2.6,0.3,5.6,0.7,7.9-0.1c3.4-1.2,6.7-0.4,10.1-1c0,5.9,1,11.3,1.4,16.8c0.3,4.5,0.6,9.1,0.8,13.6
			c0.1,1.8,1.9,3.5,0.4,5.7c-6.8-0.8-13.6,1-20.7,1.2c-4.7,0.2-9.5,0.2-14.1,1c-3.2,0.6-6.4,0.5-9.5,0.9c-0.1,1-0.2,1.8-0.3,2.9
			c-5.7-0.4-11.2,1.5-16.9,1.1C401.8,572.9,398.7,574.7,395,573.8z"/>
	</g>
</g>
</svg>
