<?xml version="1.0" encoding="utf-8"?>
<!-- Generator: Adobe Illustrator 17.1.0, SVG Export Plug-In . SVG Version: 6.00 Build 0)  -->
<!DOCTYPE svg PUBLIC "-//W3C//DTD SVG 1.1//EN" "http://www.w3.org/Graphics/SVG/1.1/DTD/svg11.dtd">
<svg version="1.1" id="Layer_1" xmlns="http://www.w3.org/2000/svg" xmlns:xlink="http://www.w3.org/1999/xlink" x="0px" y="0px"
	 viewBox="0 0 1440 937" enable-background="new 0 0 1440 937" xml:space="preserve">
<g>
	<g>
		<path d="M968.2,401.7c-1.1-5.2-2.2-10.1-3.3-14.9c-0.9-3.6-1.7-7.3-2.6-10.9c-0.9-3.6-0.2-7.6-0.2-11.4c0.5-0.5,0.9-0.9,1.5-1.5
			c7.4,0.7,14.9-1.7,22.4-1c4.8-1.7,9.8-0.2,14.5-1.2c4.1-0.9,8.1-0.8,12.1-0.7c2.6,0,4.9-1.5,7.6-1.2c2.4,0.3,5.2,0.7,7.4-0.1
			c3.7-1.3,7.5-0.9,11.1-0.7c2.7,0.1,5-1.6,7.8-1.1c2.5,3.5,6.7,5.4,9.7,8.7c0.9,1,1.6,1.9,2.1,3.1c2.5,5.3,5,10.6,7.8,15.7
			c0.6,1.1,1.2,2.4,0.7,3.1c-1.3,2.3-0.6,4.7-1,7.1c-6.1,0.4-12.1,1.1-18.1,1.4c-5,0.3-10.2,0.1-15.1,1c-4.1,0.7-8.2,0.2-12.1,0.9
			c-4.7,0.9-9.5,0.1-14.1,1.1c-4.4,0.9-8.9,0-13.1,0.9c-5.2,1.1-10.5,0.3-15.6,1.1c-2.9,0.4-5.7,0.8-8.6,0.8
			C968.8,402,968.3,402,968.2,401.7z"/>
	</g>
</g>
</svg>
