<?xml version="1.0" encoding="utf-8"?>
<!-- Generator: Adobe Illustrator 17.1.0, SVG Export Plug-In . SVG Version: 6.00 Build 0)  -->
<!DOCTYPE svg PUBLIC "-//W3C//DTD SVG 1.1//EN" "http://www.w3.org/Graphics/SVG/1.1/DTD/svg11.dtd">
<svg version="1.1" id="Layer_1" xmlns="http://www.w3.org/2000/svg" xmlns:xlink="http://www.w3.org/1999/xlink" x="0px" y="0px"
	 viewBox="0 0 1440 937" enable-background="new 0 0 1440 937" xml:space="preserve">
<g>
	<g>
		<path d="M919.1,626.2c-7.8-0.9-14.8,1.6-22.1,0.8c-3.9,1.5-8.2,0.3-12,1.2c-4.4,0.9-8.8,0.1-13.1,1c-3.9,0.8-7.7,0.7-11.5,0.9
			c-1.1-1.2,0.6-3.5-2.5-3.7c-1.8,0.6-0.6,2.8-1.2,4.7c-2.5,0-5.2,0.3-7.8-0.1c-2.9-0.4-5.3,1.2-8.1,1.1c-2.8-0.1-5.9-0.7-8.4,0.1
			c-4.4,1.4-8.7,0.5-13.1,0.9c-2.8-7.8-5.8-15.4-8.3-23.2c-2.7-8.4-5.7-16.6-8.6-24.9c-1.8-5.1-3.2-10.3-5.2-15.3
			c-0.9-2.2,0.3-4.8-1.2-7c-0.4-7.1-3-13.9-1.8-21c-1.1-0.8-2.3-0.9-3-1.9c-0.1-0.3-0.2-0.6-0.2-0.9c0.7-6.4-1.7-12.7-1-19.1
			c-1.6-3.6-0.5-7.4-1.1-11.1c-0.5-2.5-1.6-5.3-0.7-7.5c1-2.6,0.6-5.1,0.9-7.8c2-0.6,4.3-0.9,5.8-2.7c-0.2-6.2,0.8-12.3,1.4-18.4
			c6.2-0.5,12.3-1.8,18.5-1.2c1.7,0.2,2.9-1.4,4.6-1.1c1.4,0.2,2.9,0,4.2,0c0.6,0.6,0.9,0.9,1.5,1.5c-0.6,2.7,0.5,5.4,1.2,8.2
			c2.2,1.3,3.6-1.8,5.7-0.7c0-1.2,0-1.9,0-2.8c4.3-1.1,8.3-3,11-7.1c-0.5-2.1,0.5-4.4-0.9-6.9c-1.1-2,0.8-4.9-1.1-7
			c0.7-3.3-1.6-6.3-1-9.6c0.4-1.9-1.3-3.2-1.1-5.1c0.1-1.7,0.7-3.5-0.8-5.2c-0.5-0.5-0.1-1.9-0.1-2.9c0-4.7,0-9.3,0-14
			c1.8-1.6,4-1.7,6.3-1.6c2.3,0.1,4.8,0.4,7-0.1c5-1.1,10.1-0.8,15.1-1c1.7-0.1,3.2-1.4,5-0.8c1.1-1.1,0.5-2.3,0.6-3.4
			c0.3-10.9,1.6-21.7,1-32.6c2-8.3,0-16.8,1.1-25.1c1.2-8.7,0-17.5,1-26.1c0.5-4.6,0.6-9.1,0.8-13.6c0.5-0.5,0.9-0.9,1.4-1.4
			c8.7,0.6,17.4-1,26.2-1.2c1.2,4.2,1.5,8.5,2.5,12.6c1.7,7.2,1.3,14.5,0.6,21.6c-0.7,6.7,0.2,13.5-0.9,20.1c-1.1,7.2,0,14.5-1,21.6
			c-1,6.9,0.1,13.8-1,20.6c-1.1,7.1-0.6,14.1-0.8,21.1c0,1.1-0.7,1.7-1,2.2c-0.2,1.2,0.9,1.5,0.9,2c-0.5,3.5,1.5,6.6,1.1,10.1
			c-0.1,0.9,0.4,1.8,0.6,2.7c1,4.5,1.7,9,2.3,13.5c0.3,1.9,0.1,3.7,1,5.6c0.7,1.5-0.3,3.3,0.9,5.1c1,1.6-0.1,3.9,1,6.1
			c1.4,3,1.6,16,1.2,19c-0.2,1.5-1.6,2.8-0.8,4.7c-2.9,3-6.4,5.3-9.7,7.8c-3.1,2.5-6.4,4.8-9.7,7.4c2.2,8.6,4,17.2,3,26.3
			c4.5,0.6,8.5-1.9,12.8-0.6c1.1,2.9,0.7,6.4,2.3,9.4c0.3,0.7,0.2,1.7,0,2.5c-0.7,3,1,5.7,1.1,8.6c0.1,2.6,0.8,5.2,1.7,7.7
			c0.7,1.9,0.7,4.1,1,6c0.3,2.2,1.4,4.2,1.3,6.6c0,2.2,1.3,4.3,1,6.6c2.2,1.6-0.2,4.6,1.9,6.2c-0.7,2.8,1.3,5.3,1.1,8.1
			c-0.1,2.2,1.4,4.3,0.9,6.6c2.2,4,0.6,8.4,0.9,12.6C920,623.1,918.6,624.2,919.1,626.2z M866.1,569.8c2.1,11.9,4.2,23.4,6.3,35
			c0.5,0.4,1,1.3,2.2,1.2c1.9-0.2,3.9,0.3,5.6-1c5.9,0.7,11.7-1.1,17.6-1c1.1,0,2.3,0.6,3.3-0.6c-0.6-3.9-1.4-7.8-2.3-11.6
			c-0.9-4-1.3-8-2.3-12c-0.9-3.8-2.1-7.7-1.4-11.9c-4.9,0.2-9.2-0.1-13.5,0.9c-2.5,0.6-5.3,0.2-8,0.1
			C871,568.9,868.8,570.9,866.1,569.8z M859.1,461.4c-0.5,3.8,1.7,7.3,0.9,11.1c2,1.7,0.1,4.4,1.2,6c1.4,2.1,0.6,4.1,0.8,6.2
			c0.2,1.6,0,3.3,0,4.8c0.6,0.6,1,1.1,1.4,1.5c3.2,0.4,6.2-0.5,9.2-0.8c3.3-0.4,6.6-0.1,10-0.1c1,0,2,0,2.7,0c3.1-2.3,6-4.5,9-6.6
			c-2.3-8.2-2.9-16.4-4.6-24.4c-0.5,0-0.8,0-1.1,0c-9.4-0.7-18.6,1.9-27.9,0.9C860.1,460.4,859.8,460.7,859.1,461.4z M827,578.6
			c2.4,1.4,2.2,3.4,2.7,4.9c1.5,4.2,2.7,8.4,2.3,13.1c-0.3,4.1-0.1,8.2-0.1,12.8c8.2-1.3,16.3-0.8,24.4-2.8
			c-0.8-1.4-1.7-2.5-1.4-3.8c0.6-2.8-1.7-5.2-1-8.1c-2-1.8-0.2-4.5-1.3-6.4c-1.3-2.2-0.4-4.5-0.7-6.7c-0.1-1-0.1-2,0-3
			c0.2-1.2-0.8-1.7-1.5-2.5c-3.7-0.5-7.2,1.6-10.9,1C835.7,576.4,832,577.5,827,578.6z M854.9,497.9c-6.4,1.1-12.5,2.2-18.2,3.2
			c-1.8-1.2-1.6-3.2-3.2-4.1c-1.4,2-3.7,0.3-5.3,1.2c-0.7,2.9-2,5.6-0.8,9c9.1-1.4,18.3-2.8,27.5-4.2
			C854.9,501.2,854.9,499.8,854.9,497.9z M826.2,541.1c0,2.2,0,4,0,5.8c1.4,0,2.7,0.5,3.7-0.2c0-2,0-3.7,0-5.6
			C828.5,541.1,827.4,541.1,826.2,541.1z M872.2,516.1c0,2.3,0,4.5,0,6.8c0.9,0,1.7,0,2.7,0c0-2.3,0-4.5,0-6.8
			C873.9,516.1,873.1,516.1,872.2,516.1z"/>
		<path d="M938.7,509c2.8,0,5.3,0,8.1,0c0.2,3.2,0.9,6.4,2,9.5c0.6,1.9,0.9,4.5-0.5,6.7c-0.8,1.2-0.2,2.6-0.3,3.9
			c-0.1,1.8,0,3.7,0,5.5c-4,2-8.2,1.4-12.4,1.5c-1.9,1.2-1.8,2.9-1.4,5c2.9,0,5.9-0.3,8.9,0.1c3,0.4,5.6-1.5,8.6-1
			c2,1.8,1.4,4.5,2.3,6.6c0.5,1.2-0.2,2.9,1,4.1c0.2,0.2,0.2,1,0,1.5c-1.6,3.7-0.7,7.7-1.1,11.8c-4.6-0.5-9,0.5-13.8,1.2
			c-0.3,0.2,0,0.8-0.2,1.6c2,0,4,0.1,5.9,0.1c2.2,0,4.6,0.6,6.4-0.2c2-0.8,3.7-0.8,5.2-0.7c3.2,7.3,2.5,14.8,2.5,22.2
			c0,0.5-0.8,1-1.4,1.7c-4.4-0.8-8.7,1.2-13.2,1.1c-0.6,1.2-0.3,2.4-0.3,3.6c6.2,1.4,12.2-1.8,18.5-0.5c1.6,4.7,1.7,10,3.4,14.9
			c0.2,0.4,0.2,1.1,0,1.5c-1.7,3.6-0.6,7.4-1,11.1c-5.4,1.1-11,1-16.4,1.6c-5.4,0.6-10.7,0.6-15.9,0.8c-2.4-2.3-1.8-5.5-2.4-8.1
			c-0.8-3.2-1.2-6.4-2.1-9.7c-0.6-2.2-0.6-4.7-1-7.1c-0.3-2.4-1.8-4.6-1.2-7.1c-2.1-1.8,0.2-4.9-2-6.7c0.3-4.4-1.3-8.5-2.2-12.6
			c-0.8-4.1-1.3-8.3-2.7-12.3c-0.9-2.7-0.2-5.9-0.2-9.3c-2.9,0-5.8,0-9.2,0c1.1-3.2-0.4-5.7-1-8.3c-0.6-2.6-1-5.2-1.6-7.8
			c-0.8-3.6-0.4-7.6-0.1-11.4c0.1-0.9,1.1-1.9,0.9-3.1c-0.6-3.7,1-6.7,2.7-9.9c1.5-2.7,2.5-5.7,3.2-8.6c0.3-1.2,1.3-2.2,1.1-3.6
			c1.9-1,6-4.6,7-6c-0.3-0.3-1-0.7-0.9-1c0.5-3.3-1.7-6.3-1.1-9.6c0.3-1.6-1.4-2.8-1-4.6c0.3-1.4,0-2.7-0.8-4.1
			c-0.8-1.4,0-3.4-0.5-5.2c-1-3.3-3.5-14.9-2.5-17.4c1.5-3.7,0.6-7.4,1.1-11.5c1.4,0,2.9-0.2,4.3,0c3.2,0.5,6-1.3,9.1-1
			c2.5,1.5,1.7,4.4,2.3,6.5c0.8,2.7,1.2,5.6,1.6,8.4c0.5,2.8,1.9,5.4,1.6,8.3c2,1.5,0.5,4,1.5,5.9c1,1.9,1.4,4.2,1.4,6.4
			c0.1,2.1,1.8,3.9,1.1,6.1c3.4,8.3,1.4,17.1,2.1,25.8C941,506.5,939.9,507.6,938.7,509c-0.2-0.1-0.5,0.1-0.6,0.6
			c0,0.1,0.2,0.3,0.3,0.3C938.9,509.8,939.1,509.5,938.7,509z"/>
	</g>
</g>
</svg>
