<?xml version="1.0" encoding="utf-8"?>
<!-- Generator: Adobe Illustrator 17.1.0, SVG Export Plug-In . SVG Version: 6.00 Build 0)  -->
<!DOCTYPE svg PUBLIC "-//W3C//DTD SVG 1.1//EN" "http://www.w3.org/Graphics/SVG/1.1/DTD/svg11.dtd">
<svg version="1.1" id="Layer_1" xmlns="http://www.w3.org/2000/svg" xmlns:xlink="http://www.w3.org/1999/xlink" x="0px" y="0px"
	 viewBox="0 0 1440 937" enable-background="new 0 0 1440 937" xml:space="preserve">
<g>
	<g>
		<path d="M789.8,541c2.7,0,4.9,0.4,6.9-0.1c5-1.3,10.2-0.1,15.1-1.1c5.4-1,10.8,0,16.1-1c5.1-1,10.1-0.7,15.1-0.8
			c1.4,0,2.2-1.3,3.6-1.1c1,2.5,2,5.1,1.5,7.9c-0.3,1.7,1.5,2.8,1.1,4.6c-0.3,1.3-0.2,2.7,0.8,4.2c0.7,1,0.1,2.9,0.2,4.4
			c0.2,2.6-0.8,5.5,0.5,7.8c1.3,2.3-0.7,5,1.5,6.9c-0.7,3,0.6,5.7,1.1,8.5c0.6,3.7,0.5,7.4,2.4,11c1,1.9,1.6,4.4,1.5,6.8
			c-0.1,3.5,0,7,0,10.5c-1.5,1-3.2,0-4.9,0.7c0,1.4,0,2.8,0,4.7c-1.6,0-3.1,0.2-4.5,0c-3.2-0.5-5.9,1.5-9.1,1.1
			c-3-0.3-6.2-0.7-8.9,0.1c-4.7,1.3-9.6-0.1-14.1,1c-5.4,1.3-10.7,0.3-16.4,1c0.2-3-1.4-5.6-1.2-8.6c0.1-2.7-0.7-5.4-1.1-8
			c-0.4-2.4-0.2-4.9-0.9-7.1c-0.8-2.4-0.3-4.9-1-7.1c-0.8-2.4-0.3-4.9-1-7.1c-0.8-2.4-0.3-4.9-1-7.1c-0.8-2.4-0.3-4.9-1-7.1
			c-0.7-2.2-0.3-4.5-0.9-6.6C789.1,553.6,790.6,547.5,789.8,541z"/>
		
	</g>
</g>
</svg>
