<?xml version="1.0" encoding="utf-8"?>
<!-- Generator: Adobe Illustrator 17.1.0, SVG Export Plug-In . SVG Version: 6.00 Build 0)  -->
<!DOCTYPE svg PUBLIC "-//W3C//DTD SVG 1.1//EN" "http://www.w3.org/Graphics/SVG/1.1/DTD/svg11.dtd">
<svg version="1.1" id="Layer_1" xmlns="http://www.w3.org/2000/svg" xmlns:xlink="http://www.w3.org/1999/xlink" x="0px" y="0px"
	 viewBox="0 0 1440 937" enable-background="new 0 0 1440 937" xml:space="preserve">
<g>
	<g>
		<path d="M552.1,546.8c-0.1,0.9-0.1,1.3-0.2,1.8c-2.5,0.8-4.9,1.6-7.7,1.4c-7.6-0.6-15,1.8-22.6,0.9c-1.4-0.2-1.8,1.5-3.3,1
			c-0.3-0.3-0.7-0.9-1.4-1.7c0-1-0.1-2.5,0-4c0.5-6.9-1.8-13.7-1-20.6c-2.1-5.6-0.3-11.4-1.2-17.1c0.6-0.5,1.1-0.9,2-1.7
			c9.3,1,18.9-1.5,28.6-0.9c5.3-1.5,10.8-0.2,16-1.2c4.1-0.8,8.1-0.4,12.1-0.8c0.7,1.1,0.9,2.5,2.4,3.1c1.2-0.8,2.7-1.2,4.4-1.1
			c3.5,0.2,7.2,0.8,10.4-0.1c3.6-1,7.1-0.5,10.6-0.9c2.1,1.7,1.8,4.1,1.7,6.3c-0.3,5.2,1.8,10.3,1,15.6c1.7,2.7,1.1,5.7,0.9,8.6
			c-0.1,1.9,1.6,3.2,1.2,5.1c-0.3,1.6-0.1,3.3-0.1,5c-1.1,0.9-2.5,0.5-3.8,0.4c-7.2-0.1-14.3,1.4-21.6,1.2c-2.7-0.1-5.6,1.1-8.4,0.6
			c-0.2-0.6-0.3-1-0.5-1.8c-3.2,0-6.5,0.2-9.8,0C558.7,545.7,555.8,547.9,552.1,546.8z"/>
		
	</g>
</g>
</svg>
