<?xml version="1.0" encoding="utf-8"?>
<!-- Generator: Adobe Illustrator 17.1.0, SVG Export Plug-In . SVG Version: 6.00 Build 0)  -->
<!DOCTYPE svg PUBLIC "-//W3C//DTD SVG 1.1//EN" "http://www.w3.org/Graphics/SVG/1.1/DTD/svg11.dtd">
<svg version="1.1" id="Layer_1" xmlns="http://www.w3.org/2000/svg" xmlns:xlink="http://www.w3.org/1999/xlink" x="0px" y="0px"
	 viewBox="0 0 1440 937" enable-background="new 0 0 1440 937" xml:space="preserve">
<g>
	<g>
		
		<path d="M830.3,374.2c0.3-0.3,0.9-0.8,0.7-1.8c1.2-0.6,2.9-0.2,3.9-1.4c0.1-0.1,0.3,0,0.5,0c2.5,0,5,0.1,7.5,0
			c2.4-0.1,4.7,0.1,7.1-0.8c2.2-0.8,4.9-0.2,7.5-0.2c1.3,1.7-0.7,4.4,1.8,5.8c0,0,0.2,0.1,0.3,0.1c4.6-2.1,9.4,0,14.7-1.2
			c-0.8,2.3,0.5,4-1,5.7c-0.4,0.5-0.3,1.5-0.3,2.3c0,1.7-0.1,3.3,0,5c0.4,9-0.6,18-1.2,27.1c-1.6,0.8-3.3,1.5-5.3,1.4
			c-7.9-0.6-15.7,1.8-23.5,0.9c-1.5-0.2-2.2,1.2-3.5,1.2c-0.9,1.1,0.2,2.6-0.8,3.8c-0.7,0-1.5,0-2.5,0c-0.1-5.5-1.4-10.8-2.4-16.1
			c-0.9-4.7-1.8-9.6-2.5-14.3C830.3,386,829,380.3,830.3,374.2z"/>
		<path d="M921,416.7c-6.2,0.6-11.9,2-18.1,0.9c0.5-4-0.4-7.9,0.9-12c0.9-2.9,0.1-6.3,0.2-9.4c0.1-9.7,1.8-19.3,0.8-29
			c2.6-0.6,5.1,0.2,7.3-1.2c1.2-0.7,2,0.6,2.9,1.5c-0.8,2.7,0.6,5.3,0.9,8c0.3,2.5,1,4.8,1.9,7.2c1,2.8,1.5,5.8,1.9,8.6
			c0.3,2.2,1.1,4.3,1.3,6.5c0.3,3.1,0.3,6.1,0,9.2C920.7,410.2,921,413.4,921,416.7z"/>
	</g>
</g>
</svg>
