<?xml version="1.0" encoding="utf-8"?>
<!-- Generator: Adobe Illustrator 17.1.0, SVG Export Plug-In . SVG Version: 6.00 Build 0)  -->
<!DOCTYPE svg PUBLIC "-//W3C//DTD SVG 1.1//EN" "http://www.w3.org/Graphics/SVG/1.1/DTD/svg11.dtd">
<svg version="1.1" id="Layer_1" xmlns="http://www.w3.org/2000/svg" xmlns:xlink="http://www.w3.org/1999/xlink" x="0px" y="0px"
	 viewBox="0 0 1440 937" enable-background="new 0 0 1440 937" xml:space="preserve">
<g>
	<g>
		
		<path d="M511,585.9c1.2,0.1,2,0.2,2.9,0.3c0,1.2,0,2.4,0,3.5c-0.6,0.2-1.1,0.4-1.7,0.6c-0.1,0.5-0.2,0.9-0.3,1.3
			c-3.4-1.3-7-0.3-10.2-0.7c-0.8,0.5-0.7,1-0.7,1.9c-1.1-0.2-2.3-0.7-3.2-0.9c-1.2-0.4-1.9,1.9-3.3,0.3c-0.6-0.7-2.5-0.1-3.9-0.1
			c-1.3,0-2.7,0-4.1,0c-0.5,0.6-1.1,1.2-1.7,1.8c-2.8-1.5-5.7-0.3-8.4-0.9c-0.3,0.8-0.6,1.4-0.8,2c-1-0.1-0.5-0.9-0.8-1.6
			c-2.5-1.5-4.8,1.7-7.3,0.5c-0.4,0.8-0.7,1.5-1.1,2.4c-0.3-0.8-0.5-1.4-0.7-2.1c-2.4,0-4.9,0-7.3,0c-1.7,0.7-1.2,2.5-1.8,4
			c-1.3-1,0.2-3.2-2.6-3.9c-4.2,0-9.3,0-14.4,0c-1.1-1.3-0.5-2.7-0.6-3.9c-0.7-6-1.4-12-1-18.1c-1.9-3.2-0.6-6.6-1.2-10.3
			c7.4,1.1,14.1-1.3,21-0.8c0.6,0,1.3,0,2.1,0c0.1,1,0.1,1.8,0.2,3c2.1-0.5,4.3,1,6.5-0.9c0.7-0.6,2.3-0.2,3.4-0.1
			c7.9,0.5,15.7-1.7,23.6-1c4.6-2,9.4-0.4,13.9-1.1c0.8,1,0.6,2.5,2.6,2.2c0.1,3.7,0.2,7.4,0.9,11C511.5,577.8,511,581.7,511,585.9z
			"/>
	</g>
</g>
</svg>
