<?xml version="1.0" encoding="utf-8"?>
<!-- Generator: Adobe Illustrator 17.1.0, SVG Export Plug-In . SVG Version: 6.00 Build 0)  -->
<!DOCTYPE svg PUBLIC "-//W3C//DTD SVG 1.1//EN" "http://www.w3.org/Graphics/SVG/1.1/DTD/svg11.dtd">
<svg version="1.1" id="Layer_1" xmlns="http://www.w3.org/2000/svg" xmlns:xlink="http://www.w3.org/1999/xlink" x="0px" y="0px"
	 viewBox="0 0 1440 937" enable-background="new 0 0 1440 937" xml:space="preserve">
<g>
	<g>
		
		<path d="M883.4,661.9c-0.8-1.7-2-3.4-1.4-5.4c0.6-1.8-1.3-2.9-1.1-4.6c0.2-1.5,0.5-3.3-0.9-4.6c0.7-3-0.7-5.7-1.1-8.5
			c-0.5-3.1-1-6.2-1.6-9.2c-0.5-2.9-1.3-5.9-1.3-9c0-4.7,0-9.3,0-14.1c1.5-1.4,3.5-2.4,4.3-4.5c4.2,0,8.2,0,12.3,0
			c0.3,1.4,1.3,2.4,2.6,3.5c0,1.3,0,2.7,0,4.2c1.3,0.8,2.5,1.6,3.6,2.3c0.9,6,1.3,12,3.3,17.7c-0.7,3,0.9,5.7,1.1,8.6
			c0.2,2.6,1.1,5.2,1.5,7.8c0.6,4.2,2.1,8.4,1.2,13c-0.9-1.4-1.1-2.9-2.8-3.2c-2,0.5-1.9,2.3-2.2,3.8c-1.3,0.1-2.6,0.6-3.7-0.3
			c-1.2-1-2.6-0.1-3.8-0.5c-1.2-0.4-2,1-3.4,0.5c-1.1-0.4-2.4,0.4-3.3,0.7C885.6,660.6,884.2,661,883.4,661.9z"/>
	</g>
</g>
</svg>
