<?xml version="1.0" encoding="utf-8"?>
<!-- Generator: Adobe Illustrator 17.1.0, SVG Export Plug-In . SVG Version: 6.00 Build 0)  -->
<!DOCTYPE svg PUBLIC "-//W3C//DTD SVG 1.1//EN" "http://www.w3.org/Graphics/SVG/1.1/DTD/svg11.dtd">
<svg version="1.1" id="Layer_1" xmlns="http://www.w3.org/2000/svg" xmlns:xlink="http://www.w3.org/1999/xlink" x="0px" y="0px"
	 viewBox="0 0 1440 937" enable-background="new 0 0 1440 937" xml:space="preserve">
<g>
	<g>
		
		<path d="M556,326.1c0.3-6-0.9-10.5-1.2-15.2c-0.3-3.7-0.4-7.4-0.8-11.1c-0.3-2.5-1.5-4.9-1.1-6.3c1.3-3.5,3.7-1.9,5.5-3.1
			c-1.6-1.6-1.3-3.5-1.3-5.4c0-3,0.2-6,0-9c-0.2-3.3,1.9-6.2,0.8-9.9c5.2,0.4,10-2.1,15.2-0.7c0,2.1-0.4,4.3,0.1,6.3
			c1.2,4.5,0.3,9.1,1.1,13.5c0.7,3.7,0.2,7.5,1,11.1c0.8,3.4,0.1,6.9,1,10.1c1.5,5.4,0.3,10.8,1,16.1c-4.6,2.4-9.6,1.4-14.4,1.6
			C560.7,324.1,558.5,323.5,556,326.1z"/>
	</g>
</g>
</svg>
