<?xml version="1.0" encoding="utf-8"?>
<!-- Generator: Adobe Illustrator 17.1.0, SVG Export Plug-In . SVG Version: 6.00 Build 0)  -->
<!DOCTYPE svg PUBLIC "-//W3C//DTD SVG 1.1//EN" "http://www.w3.org/Graphics/SVG/1.1/DTD/svg11.dtd">
<svg version="1.1" id="Layer_1" xmlns="http://www.w3.org/2000/svg" xmlns:xlink="http://www.w3.org/1999/xlink" x="0px" y="0px"
	 viewBox="0 0 1440 937" enable-background="new 0 0 1440 937" xml:space="preserve">
<g>
	<g>
		<path d="M920.5,367c-0.7-0.7-1.1-1.1-1.6-1.6c0.8-4-1.9-7.7-0.9-11.7c-0.8-1.8-2.9-1.6-3.9-3.2c0-0.6,0-1.4,0-2.2
			c1.1-0.9,2.6,0.2,3.9-0.8c0-2,0-4.1,0-6.3c2-0.2,2.9-1.3,3.3-3.3c0.6,0,1.2,0,1.9,0c7.4,0,14.6-1.7,22-1c4.6-1.7,9.4-0.9,14.1-0.9
			c2.1,0,3.5-1.7,5.6-1.1c0.1-1,0.2-1.8,0.2-2.8c6.7,0,13.5,0,20.7,0c2.6,0.7,0.5,3.9,2.1,5.7c0.9,1-0.2,3.4,1.1,5
			c0.2,0.3,0.2,1.2,0,1.4c-1.7,1.7-0.8,3.7-0.9,5.6c-0.2,4.2,0.5,8.5-1.4,12.9c-0.8,0.6-2.2,0.2-3.5,0.2c-7.5-0.2-15,1.8-22.5,1
			c-4.7,1.9-9.7,0.8-14.6,1c-2.7,0.1-5.2,1.5-8.1,1.1c-2.8-0.4-5.8-0.7-8.4,0.1C926.5,367,923.6,366.9,920.5,367z"/>
		
	</g>
</g>
</svg>
