<?xml version="1.0" encoding="utf-8"?>
<!-- Generator: Adobe Illustrator 17.1.0, SVG Export Plug-In . SVG Version: 6.00 Build 0)  -->
<!DOCTYPE svg PUBLIC "-//W3C//DTD SVG 1.1//EN" "http://www.w3.org/Graphics/SVG/1.1/DTD/svg11.dtd">
<svg version="1.1" id="Layer_1" xmlns="http://www.w3.org/2000/svg" xmlns:xlink="http://www.w3.org/1999/xlink" x="0px" y="0px"
	 viewBox="0 0 1440 937" enable-background="new 0 0 1440 937" xml:space="preserve">
<g>
	<g>
		<path d="M831.1,371.9c0,2.4,0,4.4,0,6.3c-0.5,0.7-1,1.3-1.4,1.9c0.2-4-2.2-7.5-1.6-11.2c-2.2-2-0.4-4.9-1.6-7.3
			c-1-2-0.3-4.9-0.4-7.3c0-2.6,0-5.3,0-7.8c0.5-0.5,0.9-0.9,1.6-1.6c8,1.1,16.2-1.5,24.6-0.8c3.5,0.3,6.6-1.3,10.1-1.1
			c3.3,0.2,6.7,0.1,10,0c0.4,0,0.8-0.5,1.5-1c0.2,0.4,0.5,1,1.3,2.6c0,1.8,0.6,5.1-0.1,8.1c-1.6,7-0.3,14-1,21
			c-0.7,0.4-0.9,1.4-2,1.3c-1,0-2,0-3,0c-3.1,0-6.1-0.2-8.7,1.1c-3.6-0.8-0.6-5.1-2.9-5.6c-4.1-1.5-7,0.9-10.3,0.6
			c-3.1-0.3-6.4-0.4-9.5,0.1C835.5,371.5,833.5,372.1,831.1,371.9z"/>
		<path d="M918.5,382c-1.1-1.1,0-2.6-0.8-3.8c-0.4-0.1-0.8-0.2-1.6-0.3c-0.2-3.9-0.9-7.9-2.4-11.7c-2.4,1.6-5,0.6-7.8,1
			c0.4-9.2-0.9-18.2,1.5-27c0.3,0,0.7-0.2,1,0c0.5,0.4,1,0.9,1.6,1.4c0.1,2.1-0.4,4.4,1.5,6.5c0.5,0,1.3,0.1,2.1,0.2
			c0.1,0.3,0.4,0.6,0.4,0.8c0,1.5,0.2,2.8,0.9,4.1c0.6,1.2,0,2.7,0.6,4.2c0.9,2.3,1.1,4.9,1.4,7.4c0.3,2.5,1.7,4.9,1,7.6
			c2,2.8,0.6,6,1,9.1C919,381.5,918.7,381.7,918.5,382z"/>
	</g>
</g>
</svg>
