<?xml version="1.0" encoding="utf-8"?>
<!-- Generator: Adobe Illustrator 17.1.0, SVG Export Plug-In . SVG Version: 6.00 Build 0)  -->
<!DOCTYPE svg PUBLIC "-//W3C//DTD SVG 1.1//EN" "http://www.w3.org/Graphics/SVG/1.1/DTD/svg11.dtd">
<svg version="1.1" id="Layer_1" xmlns="http://www.w3.org/2000/svg" xmlns:xlink="http://www.w3.org/1999/xlink" x="0px" y="0px"
	 viewBox="0 0 1440 937" enable-background="new 0 0 1440 937" xml:space="preserve">
<g>
	<g>
		<path d="M563.5,395c-0.7-0.7-1.1-1.1-1.6-1.6c0.8-5.6-1.6-11.2-0.9-16.9c-1.6-3.4-0.3-7.2-1.1-10.6c-0.9-3.7-0.3-7.5-1-11.1
			c-0.8-3.9,0-7.9-1-11.6c-1.7-6.4,0-12.7-1.1-19.3c4.1,0,7.7,0,11.3,0c3.6,0,7-1.3,10.6-1.1c3.5,0.2,7.1,0.7,10.6-0.8
			c1.2-0.5,2.9-0.1,4.2-0.1c0.5,0.5,0.9,0.9,1.5,1.5c0,0.5,0.1,1.3,0,2.1c-0.5,4.8,1.8,9.3,1,14.1c1.6,2.9,0.8,6,1,9.1
			c0.2,2.2,1.3,4.2,1.1,6.6c-0.2,2.2-0.7,4.6,0.9,6.6c0.1,0.1,0,0.3,0,0.5c-0.7,5.4,1.7,10.7,0.9,16.1c-0.3,2.4,1.4,4.2,1.1,6.6
			c-0.3,2.1-0.1,4.3-0.1,6.4c-2,1.3-4.7-0.8-6.5,1.4c-0.6-1.1-0.9-2.4-2.2-3c-1.5,0.4-2.5,1.2-2.3,3.1c-8.4-0.6-16.3,1.7-24.4,0.9
			C564.6,393.9,564,394.3,563.5,395z"/>
	</g>
</g>
</svg>
