<?xml version="1.0" encoding="utf-8"?>
<!-- Generator: Adobe Illustrator 17.1.0, SVG Export Plug-In . SVG Version: 6.00 Build 0)  -->
<!DOCTYPE svg PUBLIC "-//W3C//DTD SVG 1.1//EN" "http://www.w3.org/Graphics/SVG/1.1/DTD/svg11.dtd">
<svg version="1.1" id="Layer_1" xmlns="http://www.w3.org/2000/svg" xmlns:xlink="http://www.w3.org/1999/xlink" x="0px" y="0px"
	 viewBox="0 0 1440 937" enable-background="new 0 0 1440 937" xml:space="preserve">
<g>
	<g>
		<path d="M547,589.7c0.6-10.5-1.7-20.8-1-31.2c0-0.5-0.1-0.9-0.2-1.6c-2.1,0-4.1,0.4-6-0.1c-7.1-1.7-14.4-0.5-21.7-1.1
			c0-1.5,0-3,0-4.6c1.3-0.7,2.8-0.3,4.2-0.3c7.7,0.3,15.3-1.5,23.1-1.2c2,0.1,4.2-1,6.3-0.8c0.2-0.8,0.3-1.3,0.5-1.7
			c1.5-0.9,3.3,0.4,4.7-0.7c1.5-1.2,3.2-0.4,4.8-0.6c1.5-0.1,3,0,4.5,0c1.7,0,3.3,0,5.2,0c0.7,0.6,1.5,1.4,2.5,2.2
			c3-1.6,6.3-1.2,9.5-1.2c7.4,0,14.7-1.9,22.2-0.8c1.4,2.9,1.7,6.2,1.4,9.6c-0.3,2.5,1.3,4.6,1.1,7.1c-0.2,2.3,0,4.7,0.7,7.1
			c0.8,2.7,0.2,5.9,0.2,8.9c0,2.8,0,5.7,0,8.5c-1.1,0.9-2.5,0.4-3.8,0.4c-7.7,0-15.3,1.8-23.1,1c-1.6-0.2-3.1,0.3-4.7-0.8
			c-1-0.7-3.1-0.7-4.3-0.1c-3,1.5-6.1,0.6-9.1,0.9C558.5,589.4,553,590.7,547,589.7z"/>
		<path d="M513,556.1c1.1,0,1.9,0,2.7,0c1.6,4.4-1.5,8.4-0.9,12.7C512.3,564.8,513.2,560.5,513,556.1z"/>
	</g>
</g>
</svg>
