<?xml version="1.0" encoding="utf-8"?>
<!-- Generator: Adobe Illustrator 17.1.0, SVG Export Plug-In . SVG Version: 6.00 Build 0)  -->
<!DOCTYPE svg PUBLIC "-//W3C//DTD SVG 1.1//EN" "http://www.w3.org/Graphics/SVG/1.1/DTD/svg11.dtd">
<svg version="1.1" id="Layer_1" xmlns="http://www.w3.org/2000/svg" xmlns:xlink="http://www.w3.org/1999/xlink" x="0px" y="0px"
	 viewBox="0 0 1440 937" enable-background="new 0 0 1440 937" xml:space="preserve">
<g>
	<g>
		<path d="M353.7,208.9c3.8,1,7.5-1.2,11.4-1c4,0.3,8.1,0.7,12-0.1c3.9-0.8,7.7-0.7,11.3-0.9c1.9,1.5,1.9,3.1,1.2,4.9
			c-1,2.5-1,5,0.2,7.8c-0.4,0.9-2.2,1.4-1.8,3.2c0.3,1.1-2.2,2-0.3,3.3c-1,4,1.1,8,0.3,12c-0.5,2.5,1.3,4.6,1.1,7.1
			c-0.2,2.5-0.6,5.1,0.1,7.4c0.5,1.9,0.9,3.3-0.1,5.3c-0.8,1.6,0.2,3.6-0.9,5.6c-0.9,1.8-0.8,4.4-1,6.5c-0.3,3.1-1.8,6-1.2,9
			c0.3,1.5-1.4,2.1-1.1,3.6c0.2,1.2,0.6,2.7-0.8,3.6c0.1,2.9-0.3,5.7-1.5,8.6c-4.4,0-9,0.6-13.3-0.1c-9.7-1.7-19.4-0.3-29.1-0.9
			c-3.5-0.2-7-1.7-10.4-0.8c-2.1-3-2-6.3-1.7-9.4c0.2-2-0.7-3.7-1.1-5.6c-0.8-4.3,0.9-8.2,2.4-12c0.7-1.9,1.2-3.8,2.3-5.6
			c0.6-1,1.4-2.6,1.2-3.9c-0.4-4.1,1.9-7.2,3.1-10.7c1.2-3.5,2.9-6.8,3.9-10.4c0.4-1.5,1.5-2.1,2.2-3.2c-0.6-3.8,1.4-7,2.5-10.4
			c1-3.1,2.6-5.9,3.4-9.1c0.3-1,1-2,1.9-1.9C351.8,211.3,352.4,209.8,353.7,208.9z"/>
	</g>
</g>
</svg>
