<?xml version="1.0" encoding="utf-8"?>
<!-- Generator: Adobe Illustrator 17.1.0, SVG Export Plug-In . SVG Version: 6.00 Build 0)  -->
<!DOCTYPE svg PUBLIC "-//W3C//DTD SVG 1.1//EN" "http://www.w3.org/Graphics/SVG/1.1/DTD/svg11.dtd">
<svg version="1.1" id="Layer_1" xmlns="http://www.w3.org/2000/svg" xmlns:xlink="http://www.w3.org/1999/xlink" x="0px" y="0px"
	 viewBox="0 0 1440 937" enable-background="new 0 0 1440 937" xml:space="preserve">
<g>
	<g>
		<path d="M337.9,769.3c1-4.9-0.6-10-1.2-15.1c-0.7-5.7-0.6-11.4-0.7-17.1c-0.2-5.8,0-11.7,0-17.5c0-2.3,0-4.7,0-7
			c0.3-0.8,1.1-0.5,1.7-0.8c0.8-0.9-0.5-2.8,1.3-3.3c1-1,1.2,0.7,2,0.5c0.8-0.2,1.7,0,2.6,0c1.1-1.4,0.1-3.2,0.8-5
			c7.1,0,14.4,0.1,21.7-0.1c1.6,0,2.5,1.1,4.1,1.2c1.6,0,2.4-1.4,4.1-1.2c3,0.4,6,0.2,9.1,0.9c3.5,0.8,7.3,0.3,10.9,0.2
			c11.2-0.2,22.3,2,33.6,0.8c0,1.5,0,2.7,0,3.7c0.4,0.2,0.7,0.5,1,0.5c0.8,0.1,1.7,0,2.5,0c1.7,0,3.3,0.1,5,0c1.5-0.1,2.5,1.8,4.1,1
			c1.6,1.9,1.6,4.1,1.6,6.3c-0.1,8,1.7,16,1,24.1c-0.2,2.1-0.1,4.1-0.9,6.1c-0.8,1.8,0.9,4.3-1.1,6.1c-0.2,0.2-0.1,0.6,0,1
			c0.6,3.9-1.7,7.6-1,11.6c0.3,1.8-1.5,3.1-1,5.1c0.3,1.5,0.3,3.1-0.8,4.6c-0.5,0.6-0.1,1.9-0.1,2.9c0.2,2.1,0,4.2-1.3,6.1
			c-2,0.6-3.9-0.1-5.9-0.8c-1.9-0.6-4.2,0.8-6.2-0.9c-0.4-0.3-1.3-0.2-1.9-0.2c-3.6,0.4-6.9-1.8-10.6-1c-1.9-1.3-4-0.9-6.1-1
			c-0.8,0-1,0.7-1.2,0.8c-11.6-1.7-22.9-3.3-34.5-5c-0.5-0.5-1.2-1.1-1.7-1.7c-2.5-0.6-4.9,0.4-7.4-1c-2-1.1-4.9,0.7-7-1.1
			c-3.5,0.7-6.7-1.1-10.1-1C341.8,772.1,339.7,771.6,337.9,769.3z"/>
	</g>
</g>
</svg>
