<?xml version="1.0" encoding="utf-8"?>
<!-- Generator: Adobe Illustrator 17.1.0, SVG Export Plug-In . SVG Version: 6.00 Build 0)  -->
<!DOCTYPE svg PUBLIC "-//W3C//DTD SVG 1.1//EN" "http://www.w3.org/Graphics/SVG/1.1/DTD/svg11.dtd">
<svg version="1.1" id="Layer_1" xmlns="http://www.w3.org/2000/svg" xmlns:xlink="http://www.w3.org/1999/xlink" x="0px" y="0px"
	 viewBox="0 0 1440 937" enable-background="new 0 0 1440 937" xml:space="preserve">
<g>
	<g>
		<path d="M1144.9,636.1c0.1,1.4,0.1,2.5,0.2,3.8c1.9,0,3.7,0,5.4,0c1,1.2,0.2,2.4,0.8,3.8c1.1,0.8,2.9-0.2,4.8,0.6
			c-0.7,3,1,6.3-1.1,9.3c0.7,4.3-1.2,8.3-1.1,12.6c0,1.1,0.8,1.7,0.9,2.2c0.4,1.4-0.9,1.6-0.9,2.5c0,1.7-0.2,3.4,0.1,5
			c0.2,1.6-1.4,2.5-1.1,4.1c0.8,4.3-0.8,8.4-1.2,12.6c-0.2,2.5-0.1,5.3-0.9,7.5c-1,2.6-0.2,5.2-1,7.6c-0.6,1.9-0.9,3.7-0.9,5.9
			c-0.5,0.4-1.2,0.8-1.7,1.2c-1.1,7.9-2.2,15.4-3.3,23.2c-1.8,0-3.4,0.1-5,0c-8.1-0.3-16,1.8-24.1,1c-5.4,1.9-11,0.6-16.5,1
			c-0.7-1,0.7-1.1,0.6-1.6c-0.7-4.8,1.4-9.4,1-14.1c-0.2-2.7,1.5-4.9,1.1-7.6c-0.4-2.6-0.1-5.3-0.1-8c0-0.8,0-1.6,0-2.2
			c-0.8-0.8-1.4-1.4-2-2c-0.2-1.9,0.5-3.9-1.1-5.5c1.9-2.6,0.9-5.5,1-8.2c0.1-2.5,0.7-5.2-1.6-7.6c-0.8-0.2-2.4-0.9-3.4-1.7
			c0-7.6,0-15.2,0-22.9c0-2.4,1.4-4.5,1.1-7.1c-0.3-2.2,0.1-4.4,0.7-6.6c0.8-2.6,0.2-5.6,0.2-8.4c1.1-0.5,0.7-1.8,1.5-2.5
			c5-0.1,9.9,1.5,15,1.1c5.1-0.4,10.5-0.8,15.5,0.1C1133.5,636.2,1139,635.6,1144.9,636.1z"/>
	</g>
</g>
</svg>
