<?xml version="1.0" encoding="utf-8"?>
<!-- Generator: Adobe Illustrator 17.1.0, SVG Export Plug-In . SVG Version: 6.00 Build 0)  -->
<!DOCTYPE svg PUBLIC "-//W3C//DTD SVG 1.1//EN" "http://www.w3.org/Graphics/SVG/1.1/DTD/svg11.dtd">
<svg version="1.1" id="Layer_1" xmlns="http://www.w3.org/2000/svg" xmlns:xlink="http://www.w3.org/1999/xlink" x="0px" y="0px"
	 viewBox="0 0 1440 937" enable-background="new 0 0 1440 937" xml:space="preserve">
<g>
	<g>
		<path d="M1051.9,186.4c2.6,7.2,2.8,15,5.5,22.5c-4.7,0-8.9,0-13.3,0c0,2.7,0,5.3,0,8c-2.8,0-5.2,0-7.8,0c-0.4-0.4-0.9-0.9-1.4-1.4
			c0-2,0-4,0-6.4c-1.9,0-3.8-0.1-5.8-0.1c-2,0-3.9,0-6.2,0c0,2.1-0.3,4.1,0.1,6c0.5,2.9-1.2,5.3-1.1,8.1c0.1,2.8,0.1,5.7,0,8.5
			c0,1.4-1.5,2.5-1,4.4c-4.4,0-8.7,0-13,0c-4.3,0-8.7-0.1-13,0c-4.3,0.2-8.3-2-12.4-0.9c-1.1-1,0.1-1.1,0.4-2
			c-3.2-4,1.5-8.4-0.4-13.1c-0.1-0.1-0.6-0.6-1-1c-5.5,0-11,0-16.4,0c-0.7,2,0.3,4-0.7,5.9c-0.9-0.6-0.6-1.5-0.6-2.3
			c0-10.5-0.2-21,0.1-31.5c0.1-4,1.4-7.9,0.9-12c4.1-1.4,7.8,1.7,11.8,0.5c0.7-0.6,0.1-1.5,0.3-2.5c5.4-1.5,10.8,1.1,16.2,0.7
			c0.9,0.7,1.9,1.3,1.8,2.6c1.8,1.3,3.8,1.7,5.9,1.3c2.5-0.4,4.6,1.2,7.1,1.1c2.2-0.1,4.3-0.2,6.7,0.7c2.3,0.9,5.2,0.2,7.6,0.2
			c0.8-0.5,0.6-1,0.7-1.8c2-0.2,4-0.7,6,0.4c0.4,0.2,0.8,0.5,1.3,0.4c4.1-0.6,8,1.1,12.1,1.1
			C1045.5,184.1,1048.6,184.8,1051.9,186.4z"/>
	</g>
</g>
</svg>
