<?xml version="1.0" encoding="utf-8"?>
<!-- Generator: Adobe Illustrator 17.1.0, SVG Export Plug-In . SVG Version: 6.00 Build 0)  -->
<!DOCTYPE svg PUBLIC "-//W3C//DTD SVG 1.1//EN" "http://www.w3.org/Graphics/SVG/1.1/DTD/svg11.dtd">
<svg version="1.1" id="Layer_1" xmlns="http://www.w3.org/2000/svg" xmlns:xlink="http://www.w3.org/1999/xlink" x="0px" y="0px"
	 viewBox="0 0 1440 937" enable-background="new 0 0 1440 937" xml:space="preserve">
<g>
	<g>
		<path d="M372.6,207c-1.5-2.1-1.9-4-1.6-5.9c0.4-2-1.4-3.6-1-6c6.1-0.1,12.4,0,18.6-0.1c0.6,6.8,0.3,8.8-2.1,12
			c-2.4,0.1-4.7-0.1-7,0.9C377.1,209,375,206.2,372.6,207z"/>
		<path d="M438.8,194.2c0.6,1.6-0.4,3.5,1.3,4.6c-0.8,1.4-1,3-2.6,4.2c-2.2,0-4.7,0-6.9,0c-1.1,1.1-2,2-3,3c-1.6,0-3.3,0-5.2,0
			c-1.3-3.7-2.5-7.5-2.3-11.8C426.2,194.2,432.3,194.2,438.8,194.2z"/>
	</g>
</g>
</svg>
