<?xml version="1.0" encoding="utf-8"?>
<!-- Generator: Adobe Illustrator 17.1.0, SVG Export Plug-In . SVG Version: 6.00 Build 0)  -->
<!DOCTYPE svg PUBLIC "-//W3C//DTD SVG 1.1//EN" "http://www.w3.org/Graphics/SVG/1.1/DTD/svg11.dtd">
<svg version="1.1" id="Layer_1" xmlns="http://www.w3.org/2000/svg" xmlns:xlink="http://www.w3.org/1999/xlink" x="0px" y="0px"
	 viewBox="0 0 1440 937" enable-background="new 0 0 1440 937" xml:space="preserve">
<g>
	<g>
		<path d="M289.4,756c-1.9,0-3.9,0-5.9,0c-0.6,0.5-1,1.4-2.4,0.6c0.7-2.4-1.6-4.7-0.9-7.1c0.7-2.6,1.1-5.1,0.8-7.6
			c-0.3-2.7,1.6-4.9,1.1-7.5c2.4-1.6,4.3,1.1,6.4,0.5c2.2-0.6,3.9,1.5,6.3,0.9c0,3.4,0,6.6,0,9.8C292.3,748.8,293.1,753.6,289.4,756
			z"/>
		<path d="M284.9,690.1c3.8,1.5,7.6,1.5,10.8,3.2c1.9,5.8,1.1,11.6,1.3,17.2c-0.5,0.5-0.9,0.9-1.5,1.5c-3.3-0.9-6.5,1.5-10,0.9
			c-0.4-0.4-0.7-0.7-1.4-1.4c0-3.4,0.3-7.2-0.1-10.9C283.6,696.9,285.6,693.7,284.9,690.1z"/>
	</g>
</g>
</svg>
