<?xml version="1.0" encoding="utf-8"?>
<!-- Generator: Adobe Illustrator 17.1.0, SVG Export Plug-In . SVG Version: 6.00 Build 0)  -->
<!DOCTYPE svg PUBLIC "-//W3C//DTD SVG 1.1//EN" "http://www.w3.org/Graphics/SVG/1.1/DTD/svg11.dtd">
<svg version="1.1" id="Layer_1" xmlns="http://www.w3.org/2000/svg" xmlns:xlink="http://www.w3.org/1999/xlink" x="0px" y="0px"
	 viewBox="0 0 1440 937" enable-background="new 0 0 1440 937" xml:space="preserve">
<g>
	<g>
		<path d="M1054.1,768c5-0.1,9.7,0.5,14.1-1.3c2.6,3.4,3.1,7.4,4.7,10.9c-1.7,1.3-0.4,3.3-1,5c-0.4,0.4-0.9,0.9-1.2,1.2
			c-6.9,0-13.7,0-20.6,0C1049.4,777.9,1051.5,772.9,1054.1,768z"/>
		<path d="M1108.1,781.6c1.7-2,0.1-4.6,1-6.5c1-2.2,0.7-4.4,0.9-6.7c0.7-0.6,1.4-1.3,1-2.3c3.2-0.7,5.6,1.2,8.4,0.9
			c2.7-0.3,5.2,1.5,8.1,0.8c1.1,2.6,2.2,5.2,3.4,8.1c-1.6,1.4-0.8,3.6-1.1,5.6c-0.4,0.4-0.7,0.7-1.5,1.5c-6.2-0.3-12.7,0.4-19.3-0.4
			C1108.9,782.6,1108.7,782.2,1108.1,781.6z"/>
	</g>
</g>
</svg>
