<?xml version="1.0" encoding="utf-8"?>
<!-- Generator: Adobe Illustrator 17.1.0, SVG Export Plug-In . SVG Version: 6.00 Build 0)  -->
<!DOCTYPE svg PUBLIC "-//W3C//DTD SVG 1.1//EN" "http://www.w3.org/Graphics/SVG/1.1/DTD/svg11.dtd">
<svg version="1.1" id="Layer_1" xmlns="http://www.w3.org/2000/svg" xmlns:xlink="http://www.w3.org/1999/xlink" x="0px" y="0px"
	 viewBox="0 0 1440 937" enable-background="new 0 0 1440 937" xml:space="preserve">
<g>
	<g>
		<path d="M941.9,694c0-1.8,0-3.2,0-4.6c-9.8-2.2-19.7-1.1-29.4-1.4c-0.4-0.4-0.8-0.8-1.5-1.5c0-5.1-0.6-10.6,0.2-16
			c0.5-3.4,0.6-6.7,0.9-10.5c5.2,0,10.5,0.3,15.8-0.1c5.1-0.4,9.9,2.1,15.2,0.8c-0.8-3.9,1.1-7.5,1-11.3c5.3-2.3,10.8-1.7,16-1.2
			c3.9,0.4,7.7,0.7,11.6,0.8c3.8,0.1,7.7,0,11.9,0c0.4,0.6,1,1.4,1.3,2c5.5,0,10.4,0,15.4,0c1.4,0.9,2.2,2.1,1.4,3.9
			c4.5,0,8.6,0,12.7,0c1,1.3,0.4,2.7,0.5,4c2,14.6,0.6,29.4,1,44.1c0,1.3,0.4,2.2,1.6,3.1c3.2,0,6.7,0,10,0c1.2,2.6,2.5,5.1,0.4,7.7
			c-0.2,0.3-0.1,1,0,1.5c0.6,5.6-1,11-1.2,16.7c-3.5,0-6.9,0-10.8,0c0,3.6-0.2,7.1,0,10.5c0.6,7.4-1.4,14.7-1,22.1
			c-1.6,3.2-0.8,6.7-1,10.2c-1.1,0.9-2.5,0.4-3.8,0.4c-3,0.1-6-0.2-9,0.1c-5.9,0.6-11.7-1.1-17.6-1.1c-5.8,0-11.8,0.8-17.5-0.2
			c-8.4-1.4-16.7-0.1-25.2-1c0-2.9,0-5.6,0-8.8c-1.6,0-3.1-0.1-4.5,0c-9.1,0.5-18-2.1-27.1-0.8c-0.4-1.6-0.8-3,0.2-4.3
			c0.8-1,0.4-2.2,0.4-3.3c0-8.8,0-17.7,0-26.5c0-1.9-0.4-3.9,1.2-5.3c-0.6-0.6-0.9-1-1.2-1.3c2-4.8,0.7-9.7,1-14.6
			c0.2-4.8,0-9.6,0-14.5c5.1-1.5,10,1.2,15,0.8C931.1,693.7,936.3,694,941.9,694z"/>
	</g>
</g>
</svg>
