<?xml version="1.0" encoding="utf-8"?>
<!-- Generator: Adobe Illustrator 17.1.0, SVG Export Plug-In . SVG Version: 6.00 Build 0)  -->
<!DOCTYPE svg PUBLIC "-//W3C//DTD SVG 1.1//EN" "http://www.w3.org/Graphics/SVG/1.1/DTD/svg11.dtd">
<svg version="1.1" id="Layer_1" xmlns="http://www.w3.org/2000/svg" xmlns:xlink="http://www.w3.org/1999/xlink" x="0px" y="0px"
	 viewBox="0 0 1440 937" enable-background="new 0 0 1440 937" xml:space="preserve">
<g>
	<g>
		<path d="M1104.5,332c-0.5-0.7-1.1-1.1-2.1-1c-6.5,0.1-13,0.2-19.5,0c-6.4-0.3-12.7-1.3-19.1-1c-4,0.2-8-0.1-12,0.1
			c-3.9,0.2-7.6-1.5-11.6-1.1c-3.8,0.4-7.8,0.8-11.4-0.1c-5.7-1.3-11.4-0.6-17.1-0.8c-5.8-0.2-11.6,0-17.2,0
			c-1.1,0.9,0.1,2.2-0.9,2.9c-0.2-0.2-0.6-0.4-0.6-0.6c0-19,0-38,0-57c1.7-5.2,0.7-10.7,1.1-16c0.5-0.5,1.1-1.4,1.5-1.3
			c3.6,0.3,7.2-0.9,10.7,0.6c0.7,0.3,1.6,0.3,2.4,0.3c4.7,0,9.3,0,13.9,0c1.1-1.2-0.1-2.7,1-4.1c2.6,0.5,5.6-0.9,8.3,1
			c0.6,0.4,1.6,0.1,2.5,0.1c2.3,0,4.7,0.1,7,0c9.7-0.6,19.4,1,29.1,1c1.1,0,2.3,0,3.2,0c0.6-0.6,1-1,1.3-1.3
			c0.1-0.3,0.2-0.6,0.2-0.9c-0.6-6.1,1.7-12,1-18.1c1.6-3.6,0.3-7.5,1.2-11c0.9-3.8,0.6-7.4,0.9-11.2c0.4-0.4,0.9-0.8,1.6-1.4
			c3.9,0,8.1-0.6,12.2,0.1c6.7,1.1,13.3,0.6,20.2,1c0,9.6,0,19.1,0,28.6c0,2.2-1.4,4.2-1.1,6.6c0.2,2.2,0.7,4.6-0.9,6.6
			c-0.2,0.2-0.1,0.7,0,1c0.7,5.4-1.4,10.6-1.1,16.1c0.1,2.1-1.1,4.3-1,6.6c0.2,2.2,0,4.4-0.8,6.6c-0.7,2.1-0.1,4.6-0.2,6.9
			c-0.1,2.1-1.1,3.9-1.1,6.1c0.2,5.7-1.3,11.3-1,17.1c0.3,5.6,0.1,11.3,0.1,17C1105,331.5,1104.7,331.7,1104.5,332z"/>
	</g>
</g>
</svg>
