<?xml version="1.0" encoding="utf-8"?>
<!-- Generator: Adobe Illustrator 17.1.0, SVG Export Plug-In . SVG Version: 6.00 Build 0)  -->
<!DOCTYPE svg PUBLIC "-//W3C//DTD SVG 1.1//EN" "http://www.w3.org/Graphics/SVG/1.1/DTD/svg11.dtd">
<svg version="1.1" id="Layer_1" xmlns="http://www.w3.org/2000/svg" xmlns:xlink="http://www.w3.org/1999/xlink" x="0px" y="0px"
	 viewBox="0 0 1440 937" enable-background="new 0 0 1440 937" xml:space="preserve">
<g>
	<g>
		<path d="M531,189.2c9.1-1.1,17.6,1.5,26.4,0.8c0.1,0,0.3,0.2,0.7,0.4c-0.6,3,1,6.3-1,9.3c-0.2,0.2-0.1,0.7,0,1
			c0.7,4.1-1.1,8-1.2,12.1c0,2.8-0.5,5.8-1,8.5c-0.6,2.9-0.2,5.9-1,8.6c-0.9,2.6-0.1,5.3-0.9,7.6c-0.8,2.4-0.7,4.7-0.9,7
			c-0.5,0.6-1,1-1.5,1.5c-7.6-2-15.4-0.5-22.8-1.1c-0.7,0.5-0.7,1-0.7,1.5c0.2,0.5,0.6,0.6,1.2,0.6c1.2,0,2.3,0.1,3.5,0
			c6.4-0.4,12.7,0.6,19,1.2c1.5,3.9-1,7.5-0.7,11.4c0.2,4,0.1,8,0.1,12.4c-4.3,0-8.6,0.1-12.9,0c-4.2-0.2-8.5,0.9-12.6-1
			c-2,2.2-1.5,5.1-1.6,7.5c-0.6,0.6-0.9,0.9-1.5,1.5c-3.4-0.4-7.1,0.6-10.8-0.9c-1.5-0.6-3.6-0.1-5.5-0.1c0-4.3,0-8.4,0-12.3
			c-0.5-0.8-1-0.7-1.6-0.7c-1.1-1.4-0.1-3.1-0.7-5c-3.6,0-7.5-0.3-11.2,0.1c-5.1,0.5-10-1.5-15.1-1.1c-1.3,1.3,0.8,3.9-1.9,4.7
			c-5.4,1.3-10.8-1.1-16.7-0.7c0.9-4.7-1.6-9-0.8-13.6c-2-0.9-4,0-6-0.6c0-9.8,0-19.6,0-29.4c0.4-0.4,0.7-0.7,1.3-1.3
			c2.6,0,5.4,0,8.6,0c-0.3-2.9,1.4-5.2,1.1-8.1c-0.3-2.7,1.7-5.3,1-8.1c1.9-4.9,1-10.4,3-15.2c-0.8-3.5,1.5-6.7,1-10.1
			c-0.2-1.2,0.6-1.8,1.6-2.7c2.9,0.6,6.1-0.8,9.3,0.9c1.1,0.6,2.9,0.1,4.4,0.1c4.1,0,8.3,0,12.8,0c-0.4-2.4,0.6-4.6-1-6.7
			c-0.4-0.5-0.1-1.6-0.1-2.4c0.6-10.2-1.7-20.3-1-30.6c0.1-1.7-1.2-2.9-1.1-4.6c0.1-1.5,1.5-2.4,1.2-4.1c-0.3-1.3-0.7-3,0.9-4.1
			c0.1-0.1,0.1-0.3,0-0.5c-0.8-4,1.8-7.6,0.9-11.7c10.7-1.6,21.1,1.4,31.5,0.6c1.8,3.1,1.7,6.5,1.6,9.8c-0.4,11.4,1.8,22.7,1,34.1
			c2,6.8,0.7,13.7,0.9,20.6c0.1,2.1,1.5,3.8,1.1,6.1C530.7,184.5,531,186.5,531,189.2z"/>
	</g>
</g>
</svg>
