<?xml version="1.0" encoding="utf-8"?>
<!-- Generator: Adobe Illustrator 17.1.0, SVG Export Plug-In . SVG Version: 6.00 Build 0)  -->
<!DOCTYPE svg PUBLIC "-//W3C//DTD SVG 1.1//EN" "http://www.w3.org/Graphics/SVG/1.1/DTD/svg11.dtd">
<svg version="1.1" id="Layer_1" xmlns="http://www.w3.org/2000/svg" xmlns:xlink="http://www.w3.org/1999/xlink" x="0px" y="0px"
	 viewBox="0 0 1440 937" enable-background="new 0 0 1440 937" xml:space="preserve">
<g>
	<g>
		<path d="M1034.5,209.2c2.1,2.4,1.3,5.1,1.6,7.7c2.3,0,4.4,0,6.5,0c0.4-0.4,0.7-0.7,1.2-1.2c0-1.9,0-4.1,0-6.6c1.9,0,4,0.6,5.4-0.1
			c1.8-1,3.9-1.4,5.1-0.7c1.8,1.1,3.5,0.6,5.4,0.9c0.5,4.9,2.5,9.7,2.3,14.9c-0.1,2-1,3.6-1.2,5.6c-0.2,2.8,1.3,5.3,1.2,8.1
			c1.3,1.3,2.6,2.6,3.9,3.9c-0.5,4.5,2.1,8.6,2,13.1c-6.8,1.5-13.4-1-20-0.7c-6.8,0.2-13.7,0.1-20.5,0.1c-0.6-1-1.6-1.1-2.6-1
			c-2.1,0.5-1.7,2.4-2.2,3.9c-0.5,0-1,0-1.7,0c0-7.9,0-15.7,0-23.5c1.8-4.1,0.9-8.4,0.9-12.6c0-2,1.5-3.5,1.2-5.6
			c-0.3-1.9-0.1-3.9-0.1-6.1C1026.9,209.2,1030.7,209.2,1034.5,209.2z"/>
	</g>
</g>
</svg>
