<?xml version="1.0" encoding="utf-8"?>
<!-- Generator: Adobe Illustrator 17.1.0, SVG Export Plug-In . SVG Version: 6.00 Build 0)  -->
<!DOCTYPE svg PUBLIC "-//W3C//DTD SVG 1.1//EN" "http://www.w3.org/Graphics/SVG/1.1/DTD/svg11.dtd">
<svg version="1.1" id="Layer_1" xmlns="http://www.w3.org/2000/svg" xmlns:xlink="http://www.w3.org/1999/xlink" x="0px" y="0px"
	 viewBox="0 0 1440 937" enable-background="new 0 0 1440 937" xml:space="preserve">
<g>
	<g>
		<path d="M1028.7,680.5c5.1-1.5,9.1,0.8,13.4,0.6c4.1-0.2,8.3,0,12.4,0c1,1.2,0.1,2.6,0.7,4.1c7.6-0.9,15,1.5,22.5,0.9
			c0.6-0.1,1.3,0,1.9,0c0.7-1.2,0.2-2.4,0.5-3.7c6-1.3,11.8,1.6,17.4,0.7c0.6,0.6,1,1,1.5,1.5c0,6.3,0,12.7,0,19
			c0.8,0.8,1.3,1.3,2,2c0,4.6-0.1,9.2,0,13.9c0.1,2.3-1.4,4.2-1.1,6.6c0.3,2-0.2,4-0.7,6.1c-0.7,2.6-0.2,5.6-0.2,8.4
			c-0.5,0.5-0.9,0.9-1.5,1.5c-3.9,0-7.9-0.1-11.8,0c-1.4,0-2.9-0.6-4.2,0.9c-0.4,0.4-1.7,0.4-2.4,0.1c-4.3-1.9-8.8-1.2-13.1-0.7
			c-3.9,0.4-7.7,0.7-11.6,0.8c-1.4,0-2.8,0.8-4,1.2c-2.7,0.9-5.4,0.7-8.1,0.8c-3.5,0.2-7.1-0.6-10.6,0.9c-1.2,0.5-2.9,0.1-4.7,0.1
			c0-7.3-0.7-14.5,0.2-21.5c0.7-5.3,0.5-10.4,0.7-15.6c0.1-3-1.2-5.9-1.1-9.1c0.1-2.5,1.4-4.6,1.2-7.1c-0.2-2.5-0.2-5,0-7.5
			C1028.2,683.6,1029.9,682.2,1028.7,680.5z"/>
	</g>
</g>
</svg>
