<?xml version="1.0" encoding="utf-8"?>
<!-- Generator: Adobe Illustrator 17.1.0, SVG Export Plug-In . SVG Version: 6.00 Build 0)  -->
<!DOCTYPE svg PUBLIC "-//W3C//DTD SVG 1.1//EN" "http://www.w3.org/Graphics/SVG/1.1/DTD/svg11.dtd">
<svg version="1.1" id="Layer_1" xmlns="http://www.w3.org/2000/svg" xmlns:xlink="http://www.w3.org/1999/xlink" x="0px" y="0px"
	 viewBox="0 0 1440 937" enable-background="new 0 0 1440 937" xml:space="preserve">
<g>
	<g>
		<path d="M426.8,705.9c-1.3,0-2.5,0-4.4,0c1.8-2.2,2-4.4,1.6-6.4c-0.4-2,1.5-3.2,1.2-5.1c-0.2-1.6-0.8-3.6,0.9-5.1
			c0.1-0.1,0-0.3,0-0.5c-0.5-4.3,1.6-8.3,1-12.6c-0.2-1.2,0.5-2.6-0.8-3.7c-0.4-0.4-0.1-1.6-0.2-2.4c-0.3-1.8,1.4-3.2,1.1-5.1
			c-0.2-1.5-0.7-3.3,0.8-4.6c0.3-0.2,0.2-1,0.1-1.4c-0.7-3.2,1.4-6,1.1-9.1c-0.3-2.9,0.9-5.7,1.2-8.5c0.2-2.3,0.2-4.9,0.9-7.1
			c0.8-2.4,0.3-4.9,1-7.1c0.7-2.2,0.9-4.4,0.8-6.6c0-1.4,1.2-2.2,1.3-3.6c3.1,0,6.2,0,9.3,0c0.3,0.3,0.7,0.7,1.3,1.3
			c0.4,0.5,0.1,1.3,0.1,2.1c0,21.3,0,42.6,0.1,63.9c0,1.7-0.8,3.7,1,5.1c0.1,0.1,0,0.3,0,0.5c0.2,1.8-1.4,3.2-1.1,5.1
			c0.2,1.5,0.5,3.3-0.3,4.8c-0.2,0.4-0.5,0.8-0.6,1.3c-0.5,6.5-1.9,13.1-0.9,19.5c0.7,4,0.7,8,0.9,11.9c-1,0.5-1-0.1-1-0.5
			c0-0.3-0.1-0.7,0-1c0.7-2.5-1.2-4.6-1.1-7.1c0.2-2.5,0.2-5,0-7.5c-0.1-1.7-1.5-3.2-0.7-5.5c-4.5,0.7-8.5-1.5-12.7-0.9
			C427.4,709.1,428.8,706.9,426.8,705.9z"/>
	</g>
</g>
</svg>
