<?xml version="1.0" encoding="utf-8"?>
<!-- Generator: Adobe Illustrator 17.1.0, SVG Export Plug-In . SVG Version: 6.00 Build 0)  -->
<!DOCTYPE svg PUBLIC "-//W3C//DTD SVG 1.1//EN" "http://www.w3.org/Graphics/SVG/1.1/DTD/svg11.dtd">
<svg version="1.1" id="Layer_1" xmlns="http://www.w3.org/2000/svg" xmlns:xlink="http://www.w3.org/1999/xlink" x="0px" y="0px"
	 viewBox="0 0 1440 937" enable-background="new 0 0 1440 937" xml:space="preserve">
<g>
	<g>
		<path d="M1017.6,676c-1-0.9-1.8-1.7-2.7-2.5c0-5.7,0-11.4,0-17c-4-1.4-8.2-1.8-12.2-1.4c-1.7-0.9-1.9-2.3-1.9-3.9
			c-5.2,0-10.3,0-15.2,0c-0.8-0.8-1.3-1.3-2.1-2.1c-6.9,0-14.1,0-21.1,0c-0.5-0.8-1.5-1.1-1.5-1.2c0.2-1.8,1.1-2.1,1.7-3
			c9.7,1.2,19.5-1.5,29.4-0.8c4.8,0.4,9.3-1.3,14.1-1.1c4.7,0.2,9.5,0.7,13.9-0.1c6.9-1.3,13.8,0.1,20.6-1c6.2-1,12.4-0.7,18.6-0.8
			c6.3-0.1,12.7,0.2,19-0.1c3.6-0.2,7,1.4,10.9,1.1c0,3.1,0,6,0,9c0,3,0,6,0,9c0.1,2.9-1.7,5.6-1,8.6c0.6,3-1.3,5.5-1.1,8.3
			c-1.8,0.4-2.7-1.1-4.4-1c-15.5,0.9-31-1.4-46.5-1c-3.1,0.1-5.9,1.4-9.1,1.2C1023.8,675.8,1020.6,676,1017.6,676z"/>
	</g>
</g>
</svg>
