<?xml version="1.0" encoding="utf-8"?>
<!-- Generator: Adobe Illustrator 17.1.0, SVG Export Plug-In . SVG Version: 6.00 Build 0)  -->
<!DOCTYPE svg PUBLIC "-//W3C//DTD SVG 1.1//EN" "http://www.w3.org/Graphics/SVG/1.1/DTD/svg11.dtd">
<svg version="1.1" id="Layer_1" xmlns="http://www.w3.org/2000/svg" xmlns:xlink="http://www.w3.org/1999/xlink" x="0px" y="0px"
	 viewBox="0 0 1440 937" enable-background="new 0 0 1440 937" xml:space="preserve">
<g>
	<g>
		<path d="M982.9,316c-3.1,0-5.7,0-8.4,0c-0.5-0.8-1.9-1.2-1.5-2.4c1.8-4.8,0.7-9.7,0.9-14.6c0-1.3,0.9-2,1.1-3.1
			c0.2-0.9-1.1-1.1-1-2.1c0.2-5.3-1.5-10.4-2.1-15.6c-0.8-6.1-2.4-12.1-2.8-18.3c-1.5-1.8-0.4-4.2-1.1-6c-0.8-1.9-0.2-4.1-1-5.6
			c-1.7-3-0.4-6.2-1.6-9.3c-1.1-2.9-0.2-6.6-0.2-9.9c0-3.3,0-6.6,0-10c5.7,0,11.1,0,16.6,0c0.4,0.4,0.9,0.9,1.3,1.3
			c0,10.3,0,20.6,0,30.9c0.7,0.7,1.4,1.4,2,2.1c0,4.4-0.3,8.7,0.1,13c0.5,7.1-1.4,14-1.1,21.1c0.3,7,0.1,14,0,21
			C983.9,311.1,982.5,313.4,982.9,316z"/>
	</g>
</g>
</svg>
