<?xml version="1.0" encoding="utf-8"?>
<!-- Generator: Adobe Illustrator 17.1.0, SVG Export Plug-In . SVG Version: 6.00 Build 0)  -->
<!DOCTYPE svg PUBLIC "-//W3C//DTD SVG 1.1//EN" "http://www.w3.org/Graphics/SVG/1.1/DTD/svg11.dtd">
<svg version="1.1" id="Layer_1" xmlns="http://www.w3.org/2000/svg" xmlns:xlink="http://www.w3.org/1999/xlink" x="0px" y="0px"
	 viewBox="0 0 1440 937" enable-background="new 0 0 1440 937" xml:space="preserve">
<g>
	<g>
		<path d="M387.6,275c1.5-4.1,0.9-8.2,2.9-12c3.4,0,7-0.6,10.4,0.1c9,1.8,18.1,0.3,27.1,1c3.4,0.3,6.7,1.6,10.1,0.9
			c8.7-1.9,17.4-0.3,26.1-1c3.7-0.3,6.9,2.1,10.8,0.7c0.2,3.6,0.6,6.8-2.5,9.5c-13.9-1-28.1,1.6-42.3,0.9c-9.8,2-19.7,0.4-29.6,1.1
			C396.4,276.3,392.5,274.9,387.6,275z"/>
		<path d="M504,279.7c-0.1-4.5,0.5-9-1.3-12.7c0.8-1.2,1.3-0.9,2.3-1.1c0,4.7,0,9.4,0,14.1C504.7,279.9,504.3,279.8,504,279.7z"/>
	</g>
</g>
</svg>
