<?xml version="1.0" encoding="utf-8"?>
<!-- Generator: Adobe Illustrator 17.1.0, SVG Export Plug-In . SVG Version: 6.00 Build 0)  -->
<!DOCTYPE svg PUBLIC "-//W3C//DTD SVG 1.1//EN" "http://www.w3.org/Graphics/SVG/1.1/DTD/svg11.dtd">
<svg version="1.1" id="Layer_1" xmlns="http://www.w3.org/2000/svg" xmlns:xlink="http://www.w3.org/1999/xlink" x="0px" y="0px"
	 viewBox="0 0 1440 937" enable-background="new 0 0 1440 937" xml:space="preserve">
<g>
	<g>
		<path d="M1026.9,732.1c-3.7,0-7.2,0-10.9,0c0,3.5-0.2,6.8,0,10.1c0.6,7.4-1.4,14.7-1,22.1c-1.6,3.4-0.7,7-1.1,10.8
			c-7.4,0-14.7,0.7-21.9-0.2c-4.9-0.6-9.7-0.4-14.8-0.9c0-1.8-0.8-3.6,0.8-5.5c0.6-0.7,0.2-2.3,0.1-3.4c-0.5-7.2,1.7-14.3,1-21.6
			c1.7-3.7,0.4-7.8,1.1-11.6c1-5,0.2-10.2,1.1-15.1c0.8-4.2,0.1-8.5,0.9-12.6c1-4.7,0.1-9.5,1-14.1c1.2-5.7,0.7-11.4,0.8-17.1
			c0.2-5.7,0-11.3,0-17c0-1.6,0-3.3,0-5c5.7,0,11.2,0,16.6,0c1.2,0.9,1.9,1.9,1.1,3.8c4.5,0,8.8,0,12.9,0
			c2.2,14.8,1.1,29.3,1.4,43.8c0,2,0,4,0,6.2c3.7,2.3,7.8,0.4,11.7,1.3c0.3,0.3,0.8,0.8,1.1,1.1c1,2.9-0.7,5.5-0.8,8.2
			c-0.1,2.8,0.7,5.9-0.2,8.4C1026.9,726.5,1027.3,729,1026.9,732.1z"/>
		<path d="M941.9,694c0-1.8,0-3.3,0-4.6c-9.8-2.2-19.7-1.1-29.4-1.4c-0.5-0.5-1-1-1.5-1.5c0-0.7,0-1.3,0-2c-0.5-8,0.6-16,1.3-24.5
			c5,0,10.3,0.3,15.5-0.1c5.1-0.4,9.9,2.1,15.3,0.8c-1-3.9,1.4-7.5,0.9-11.2c0.9-0.9,1.8-0.2,3-0.8c0,2.9,0.1,5.5,0,8.1
			c-0.1,2.4,0.5,4.8-0.9,7.1c-0.5,0.8-0.1,2.3-0.1,3.4c0.4,8.4-1.8,16.7-1,25.1c-1.9,4.7-0.7,9.7-1,14.6c-0.1,2.9-1.5,5.6-1.1,8.6
			c0.3,2.8,0.6,5.8,0,8.5c-1.8,8-0.5,16.1-0.9,24.1c-0.2,4.8,0,9.6,0,14.4c-0.5,0.5-1,1-1.5,1.5c-4.5,0-9.1,0.7-13.4-0.2
			c-5.6-1.1-11.1-0.5-16.6-0.9c-1.1-0.8-2.2-2.1-1.3-3.3c1.4-1.7,0.9-3.4,0.9-5.2c0.1-8.7,0-17.3,0-26c0-1.6-0.4-3.3,1-4.3
			c0.2-1.1-0.7-1.3-1-1.9c2-4.7,0.7-9.7,0.9-14.6c0.2-4.8,0-9.6,0-14.5c5.1-1.4,10,1.2,15,0.8C931.2,693.7,936.3,694,941.9,694z"/>
	</g>
</g>
</svg>
