<?xml version="1.0" encoding="utf-8"?>
<!-- Generator: Adobe Illustrator 17.1.0, SVG Export Plug-In . SVG Version: 6.00 Build 0)  -->
<!DOCTYPE svg PUBLIC "-//W3C//DTD SVG 1.1//EN" "http://www.w3.org/Graphics/SVG/1.1/DTD/svg11.dtd">
<svg version="1.1" id="Layer_1" xmlns="http://www.w3.org/2000/svg" xmlns:xlink="http://www.w3.org/1999/xlink" x="0px" y="0px"
	 viewBox="0 0 1440 937" enable-background="new 0 0 1440 937" xml:space="preserve">
<g>
	<g>
		<path d="M527.7,197.7c0.7,3.1-0.2,5.8,0.9,9c0.8-3.6,0.3-6.4,1.2-9.3c0.8-2.5,0.2-5.4,1.5-8.2c8.7-1.5,17.5,1.8,26.9,0.5
			c-0.7,3.7,0.8,7-1.2,10.1c-0.2,0.2-0.1,0.7,0,1c0.7,4.1-1.1,8-1.2,12.1c-0.1,2.8-0.4,5.8-1,8.5c-0.7,2.9-0.1,6-1,8.6
			c-0.9,2.6-0.1,5.3-0.9,7.6c-0.9,2.4-0.7,4.7-0.9,6.8c-0.6,0.7-1,1.2-1.4,1.7c-7.7-2-15.5-0.5-22.8-1.1c-0.9,0.5-0.7,1.1-0.7,1.6
			c0.7,1,1.8,0.5,2.7,0.5c3.7,0.1,7.3-0.1,11,0.1c3.4,0.1,6.6,1.6,10.4,0.8c-0.6,2.9,0.7,5.4-1.1,7.9c-0.5,0.8-0.1,2.3-0.1,3.4
			c0,4.1,0,8.3,0,12.4c-8.7,0.9-22.1,0.6-25.5-0.6c-0.8,0.6-0.3,2-1.4,2.4c0,1.6,0,3.3,0,5.1c-0.5,0.4-1,0.8-1.8,1.5
			c-3.2-0.4-7,0.8-10.6-1c-0.4,0.3-0.7,0.6-1.1,1c-1-1.5-2.7-0.8-4.4-1c0-4.2,0-8.4,0-12.6c-0.8-0.2-1.2-0.3-2.1-0.5
			c0-1.5,0-3.1,0-4.8c-2,0-3.6,0.1-5.3,0c-5.5-0.3-11.1,0.8-16.6-0.9c-1.5-0.5-3.3-0.1-5-0.1c-0.6,1.7,0.6,4-1.7,4.8
			c-5.4,1.1-10.6-1.2-16.4-0.8c0.5-4.7-1.7-9.1-1-14c-2.2,0-4,0-6.1,0c0-1.8,0-3.4,0-5c0-2.6-0.6-5.4-0.4-7.9
			c0.2-2.8,0.2-5.5,0.3-8.3c0.1-2.8,0-5.6,0-8.3c0.5-0.5,0.8-0.8,1.3-1.3c2.6,0,5.4,0,8.5,0c2.2-14.4,4.4-28.6,6.6-43
			c0.2-0.2,0.6-0.6,1.2-1.2c2.9,0.6,6.1-0.9,9.3,1c0.9,0.5,2.3,0.1,3.5,0.1c4.5,0,8.9,0,13.7,0c0,1.8,0.2,3.5,0,5
			c-0.4,2.7,1.4,4.9,1.1,7.6c-0.3,2.6-0.1,5.3-0.1,8.4c3.9,0,7.6,0.2,11.4,0C514.2,196.6,520.7,199,527.7,197.7z"/>
	</g>
</g>
</svg>
