<?xml version="1.0" encoding="utf-8"?>
<!-- Generator: Adobe Illustrator 17.1.0, SVG Export Plug-In . SVG Version: 6.00 Build 0)  -->
<!DOCTYPE svg PUBLIC "-//W3C//DTD SVG 1.1//EN" "http://www.w3.org/Graphics/SVG/1.1/DTD/svg11.dtd">
<svg version="1.1" id="Layer_1" xmlns="http://www.w3.org/2000/svg" xmlns:xlink="http://www.w3.org/1999/xlink" x="0px" y="0px"
	 viewBox="0 0 1440 937" enable-background="new 0 0 1440 937" xml:space="preserve">
<g>
	<g>
		<path d="M407.3,581.2c-0.5,0.5-0.9,0.9-1.3,1.3c-0.2,2.8,0.7,5.8-1.6,8.5c-5.9,0-12,0-18.1,0c-0.5-1.7-1.6-3.1-1.4-5
			c0.2-1.8,0-3.6,0-5.9c-4.1,0.6-7.9-1.4-12-1.1c-4.1,0.3-8.3,0.1-12.8,0.1c-0.4,3.7-0.9,7.4-2.1,11c-4.1-1.9-8.1-0.4-12.2-1.3
			c0.9-3.5-1.3-6.8-1-10.5c-1.9,0-3.6,0-5.4,0c-1.3-1.5,0.3-3.7-1.5-5.1c2.7,0.7,5.3,1.9,7.8-0.2c2.3,1.8,5,0.9,7.7,1.2
			c0.9,0.2,0.1,1.5,0.9,1.9c0.3,0,0.6,0,1,0c0.7-0.3,0.4-1.1,0.7-1.7c5.8-1,11.6,0.4,17.1,0.9c0.9-0.5,0.7-1,0.8-1.8
			c1.5-0.7,3.1-0.2,4.7-0.3c1.4-0.2,3.1,0.8,3.9-1.3c2,1.5,4.1,1.5,6.2,1.1c0.1-0.5,0.2-1,0.3-1.4c2.3-1.3,5.3-0.7,7.5-2.4
			c3.2,1.6,5.4-0.9,7.8-2c3.4-1.6,4.6-1.9,9.9-2c1.3-0.7,2.4-1.3,3.5-1.9c5.5,0,5.5,0,9.7-2.2c0.3,2.2,2.3,3.2,3.4,4.7
			c0,7.4,1.6,14.5,1.1,21.8c-0.2,3.4-1.5,6.6-1.2,10.1c0.1,1-0.9,2.9-3.1,4c2.1-6.7,1-12.8,1.3-18.8c-0.5-0.5-0.8-0.8-1.3-1.3
			C421.1,581.2,414.3,581.2,407.3,581.2z"/>
	</g>
</g>
</svg>
