<?xml version="1.0" encoding="utf-8"?>
<!-- Generator: Adobe Illustrator 17.1.0, SVG Export Plug-In . SVG Version: 6.00 Build 0)  -->
<!DOCTYPE svg PUBLIC "-//W3C//DTD SVG 1.1//EN" "http://www.w3.org/Graphics/SVG/1.1/DTD/svg11.dtd">
<svg version="1.1" id="Layer_1" xmlns="http://www.w3.org/2000/svg" xmlns:xlink="http://www.w3.org/1999/xlink" x="0px" y="0px"
	 viewBox="0 0 1440 937" enable-background="new 0 0 1440 937" xml:space="preserve">
<g>
	<g>
		<path d="M883,723.7c-2.5-3.9-3.5-8-2.9-12.1c-0.9-0.9-0.9,0.1-1.6,0.2c-2.6-0.5-0.4-4.5-3.4-4.8c0-2,0-3.8,0-5.6
			c-1.5-0.7-3.6,0-4.1-2.2c-0.4-1.8-2.2-2.4-3-3.9c0-0.8,0-1.8,0-2.8c-0.6-0.6-1.2-1.2-1.9-1.9c0-2,0-4.1,0-6.2
			c1.5-0.4,2.7-2,4.4-1.3c0.9-1.9,2.1-3.5,1.3-5.5c1.8-0.6,3-2.2,5.1-1.4c0-1.8,0-3.3,0-4.5c1.7-2,3.4-3.3,5.9-3.8
			c0-1.7,0-3.5,0-5.4c4.6-3.7,9.6-4.1,15-3.2l4.5-0.2c1.3,0,3.1-0.7,3.8,0c1.8,1.4,3.8,0.4,5.8,1.2c0,4.4,0.6,9-0.1,13.3
			c-1.4,7.7-0.6,15.4-0.8,23.1c-0.2,7.8-0.1,15.6,0,23.5c0.1,6.6-1.5,13-1.1,19.6c0.4,6.6,0.5,13.4-0.1,19.9
			c-0.4,3.7-0.7,7.3-0.8,11.3c-2.3,0-4.5,0.5-6.4-0.1c-1.9-0.6-3.6-1.8-5.7-1.8c-2.3-0.1-3.8-1.5-5.3-3c-0.4,0.3-0.7,0.6-1.3,1.2
			c-1.5-1.6-4.4-0.6-5.5-3.2c-2.1,2.4-3.7-1-5.7,0.1c0-4.1,0-7.7,0-11.2c1.9-4.5,4.1-8.8,3.9-13.9C882.9,733.8,883,728.7,883,723.7z
			"/>
	</g>
</g>
</svg>
