<?xml version="1.0" encoding="utf-8"?>
<!-- Generator: Adobe Illustrator 17.1.0, SVG Export Plug-In . SVG Version: 6.00 Build 0)  -->
<!DOCTYPE svg PUBLIC "-//W3C//DTD SVG 1.1//EN" "http://www.w3.org/Graphics/SVG/1.1/DTD/svg11.dtd">
<svg version="1.1" id="Layer_1" xmlns="http://www.w3.org/2000/svg" xmlns:xlink="http://www.w3.org/1999/xlink" x="0px" y="0px"
	 viewBox="0 0 1440 937" enable-background="new 0 0 1440 937" xml:space="preserve">
<g>
	<g>
		<path d="M557.1,280.9c-2.9,0.3-5.1,0.1-7.1-1.4c0-7.6,0.1-15.2-0.1-22.9c-0.1-2,1.3-3.5,1.2-5.6c-0.1-1.8-1-4,0.9-5.6
			c0.2-0.1,0.1-0.6,0-1c-0.6-4.3,1.5-8.3,1-12.6c-0.2-1.9,1.3-3.5,1-5.6c-0.2-1.7-0.6-3.6,0.9-5.1c0.3-0.4,0.1-1.3,0-2
			c-0.4-4.1,1.8-8,1-12.1c1.6-2.5,0.3-5.6,1.2-8c0.9-2.6,0.6-5.1,0.8-7.1c0.6-1,1.1-1.7,1.3-2c1.3-0.3,1.7,0.4,2.2,0.8
			c0.3-0.3,0.7-0.6,1.1-1c1.4-0.2,2.4,1.8,4,1c1,1.9,0,3.9,0.7,6c1.9-0.4,3.4,1.4,5.5,1.2c0,1.5,0,2.9,0,4.4c2.2,0.8,4.5,0.9,6.2,3
			c0,0.9,0,2,0,3.3c1.6,0,3.1,0,4.4,0c0.3,0.4,0.6,0.7,0.6,1c0,5.4,1,11.1-3.8,15.5c-0.2,3.9-1.2,7.8-1.3,11.9
			c-0.1,4.8,1.7,9,3.2,13.2c1.6,4.2,1.9,4.1,2,7.2c0.1,0.1,0.2,0.3,0.4,0.3c0.7,0.1,1.3,0.1,2.1,0.1c3.4,3.3,4.2,7.8,4.7,12
			c-0.7,0.7-1.5,1.6-2.6,2.8c-2.3-0.3-3.7,3.8-7,3.1c-2.1,1.7-4.8,1.9-7.1,3.2c-1.7-3.5-1.8-7-1.6-10.6c0.1-1.4,0-2.7-1.6-3.6
			c-4.3-0.5-8.6,1.8-13.5,0.8C558.7,271.3,556,276,557.1,280.9z"/>
	</g>
</g>
</svg>
