<?xml version="1.0" encoding="utf-8"?>
<!-- Generator: Adobe Illustrator 17.1.0, SVG Export Plug-In . SVG Version: 6.00 Build 0)  -->
<!DOCTYPE svg PUBLIC "-//W3C//DTD SVG 1.1//EN" "http://www.w3.org/Graphics/SVG/1.1/DTD/svg11.dtd">
<svg version="1.1" id="Layer_1" xmlns="http://www.w3.org/2000/svg" xmlns:xlink="http://www.w3.org/1999/xlink" x="0px" y="0px"
	 viewBox="0 0 1440 937" enable-background="new 0 0 1440 937" xml:space="preserve">
<g>
	<g>
		<path d="M1008.4,374.9c-1.2-1.2-2.4-3.4-3.8-3.6c-2.4-0.3-1.9-3-4.1-3.5c-1.6-0.3-2-3-3.3-3.7c-1.7-0.9-2.5-2.5-4.2-3.5
			c0-7,0.1-14-0.1-20.9c-0.1-2,1.5-3.5,1.1-5.6c-0.3-1.9-0.1-3.9-0.1-6.1c9.2,0,18.2-0.8,27.1,0.2c7.6,0.9,15.1,0.6,22.6,0.7
			c5.9,0.1,11.6,1.6,17.6,1.2c5.8-0.4,11.8-0.9,17.4,0.1c8.7,1.5,17.4,0.1,26,1c1.5,7.2-1.4,14.2-0.7,21.1c-3.1,5-4.9,10.3-7.3,15.4
			c-2.3,1.9-5-2.6-7.4,0.3c-2.7-0.3-5.2-1.6-7.7-1c-0.9-0.5-0.6-1.1-0.7-1.5c-0.6-0.8-1.6-0.6-2.3-0.4c-4.4,1.1-8.6,0.3-12.8-1
			c-0.9-0.3-2.1-0.4-3,0c-3.9,1.8-7.8,1.1-11.7,0c-0.5-0.1-1,0-2,0c-0.3,0.5-0.9,1.4-1.1,1.8c-2.8,0.5-5.2-0.5-7.3,1.3
			c-1.5-1.7-3.5-1-5.5-1.2c-0.2,0.6-0.4,1.2-0.7,1.9c-2.5-0.1-4.8,0.9-7.3,1.8c-0.9-1-2.4-0.6-4.2-0.7c-0.8,1-1.7,2.1-2.5,3.1
			c-2.3-0.4-3.6,1.1-5.4,1.6C1012.9,371.8,1010.7,373.6,1008.4,374.9z"/>
	</g>
</g>
</svg>
