<?xml version="1.0" encoding="utf-8"?>
<!-- Generator: Adobe Illustrator 17.1.0, SVG Export Plug-In . SVG Version: 6.00 Build 0)  -->
<!DOCTYPE svg PUBLIC "-//W3C//DTD SVG 1.1//EN" "http://www.w3.org/Graphics/SVG/1.1/DTD/svg11.dtd">
<svg version="1.1" id="Layer_1" xmlns="http://www.w3.org/2000/svg" xmlns:xlink="http://www.w3.org/1999/xlink" x="0px" y="0px"
	 viewBox="0 0 1440 937" enable-background="new 0 0 1440 937" xml:space="preserve">
<g>
	<g>
		<path d="M552.9,621.1c-1.4,0-2.6,0-3.9,0c0,4.3-0.3,8.4,0.1,12.5c0.4,4.8-1.4,9.4-1.1,14.1c-1.4,2-0.9,4.4-1,6.8
			c-0.5,0.4-1,1-1.7,1.6c-2.5-2-5.3-0.9-8.4-1.3c1,4.1-1,7.6-0.8,11.3c0.1,3.9-0.5,7.8,1.5,11.6c0.7,0.2,1.8,0.6,2.5,1.7
			c0,2.5-0.1,5.2,0,7.9c0.1,1.7-0.2,3.4,0.8,5.2c0.7,1.3,0.8,3.8-0.5,5.6c-0.3,0.3-0.4,0.9-0.3,1.4c0.7,4-1.4,7.6-1.1,11.6
			c0.1,1.8-1.2,3.5-1,5.6c0.2,1.7,0.4,3.6-0.9,5.1c-0.2,0.2-0.1,0.7,0,1c0.7,4.1-1.7,7.9-0.9,12.2c-5.5,0-10.8,0.7-15.8-0.2
			c-6.9-1.2-13.8,0.1-20.6-1c-6.7-1-13.4-0.3-20.1-1c-2.7-0.3-5.3-1-8.1-0.8c-1.5-3-1.8-6.1-1.6-9.4c0.1-2.4-1.4-4.5-1.1-7.1
			c0.3-2.2,0.7-4.6-0.9-6.6c-0.1-0.1,0-0.3,0-0.5c0.6-4.9-1.6-9.7-1-14.6c0.3-2.5-1.4-4.5-1.1-7.1c0.2-2.1,0.9-4.6-0.9-6.6
			c-0.2-0.2-0.1-0.7,0-1c0.7-5.1-1.3-10-1.1-15.1c0.1-2.2-1.2-4.2-1-6.6c0.2-2.2,0.6-4.6-0.9-6.6c-0.1-0.1,0-0.3,0-0.5
			c0.6-4.9-1.6-9.7-1-14.6c0.3-2.3-1.5-4.2-1.1-6.6c0.3-2.3,0.7-4.9,0-6.9c-1.5-4.4-0.5-8.7-0.9-12.9c0.9-0.9,1.8-0.3,2.9-0.6
			c-0.2-4.6,1.6-8.7,4-12.3c5.3-2,10.6-0.9,15.6-1.7c5.2-0.8,10.5,0,15.6-1c5.2-1,10.4-0.4,15.5-0.9c0.7-0.8,1.5-1.2,1.4-2.5
			c-0.1-3.2,0.1-6.3-0.1-9.5c-0.1-2.1-1.5-3.9-0.1-6.3c1-1.8-0.5-4.5,1.2-6.5c-0.7-3.5,1.3-6.7,1-10.1c-0.1-1.3,0.4-2.2,1.4-2.9
			c0.8,0.4,1.4,1,2.5,0.9c2.5-0.1,5,0,7.5,0c3.2,0,6.3,0,9.5,0c2.9-0.1,5.6,1.8,8.8,0.8c0.5,2.4,0.3,4.7,0.3,7
			c-0.1,8.7,1.9,17.3,0.8,26.4c3.6-0.7,6.9,0.8,10-1.1c0.6-0.4,1.6-0.1,2.5-0.1c2.7,0,5.4-0.2,8,0.1c2.5,0.3,4.6-1.4,7.1-1.1
			c6.3,0.7,12.7,1.4,19.1,1c4.9,1.9,10.2,0,15,1.2c4.8,1.2,9.4,0.3,14.2,0.9c0.4,0.4,0.9,0.9,1.4,1.4c0,2.8-0.1,5.6,0,8.4
			c0.2,2.7-1,5.6,0.9,7.7c-1.5,6.7-2.3,13.2-3.2,20.2c-0.3,0.2-1.2,0.8-1.8,1.2c0,2.6,0,4.7,0,6.9c0,2.2,0,4.4-0.9,6.6
			c-0.8,1.9,0.7,4.1-1,6.1c-0.6,0.7,0.1,2.3-0.1,3.4c-0.8,3.5-0.6,7.2-2.2,10.6c-0.1,0.3-0.5,0.5-0.8,0.8c0,1.9,0,3.9,0,5.8
			c0,2.1,0,4.1-0.9,6.1c-0.8,1.8,0.3,4-0.9,6.1c-1,1.7,0.3,4.5-1.2,6.5c0.7,3.3-1,6.3-1.1,9.9c-6.1,0-12.3,0.8-18.3-0.2
			c-5.4-0.9-10.8-0.8-16.1-0.6c-4.5,0.1-8.7-1.4-13.1-1.2c-4.3,0.2-8.7,0-13,0.1c-1,0-1.4-0.6-2.4-1.5c0-7.4-0.1-15.2,0.1-23
			c0-1.7,1.1-3.2,1-5.1c-0.1-1.5-0.4-3.1,0.5-4.8c0.8-1.4-0.2-3.7,0.5-5.3c1.1-2.7,0.3-5.6,1-8.1c0.8-2.6,0.1-5.4,1-7.6
			c1.6-3.5-0.3-7.4,1.8-10.8c0.4-0.7,0.5-2.2,0-2.9C552.5,625.9,553.2,623.6,552.9,621.1z M516.7,642.1c1.2-6.1-1.2-11.4-0.8-17
			c-1.7,0-3,0-3.8-1.5c-0.6-2.1,0.4-4.5-0.5-6.6c-3.7-0.1-1.8,4-4.4,5c-0.2,0-0.9,0-1.5,0c-7.9-0.7-15.6,1.7-24,0.9
			c0.9,3,0,5.6,1,8.5c0.9,2.6,0.4,5.7,0.5,8.9c4.2-1.3,7.7,1,11.4,0.8c4-0.2,8-0.1,12-0.1c1.2,0,2.6-0.4,3.4,0.1
			C512.2,642.5,514.4,641.8,516.7,642.1z M596.3,636.9c-1.3-5.6,1.9-10.6,0.5-15.6c-5.3-1.6-10.5-1.6-15.5-1.2
			c-1.2,5.9,1.3,11.2,0.7,16.7C586.8,636.9,591.2,636.9,596.3,636.9z M490.1,699.1c4.1-0.9,7.9,1.1,11.9,0.9c4.3-0.2,8.5,0,12.9,0
			c0-1.1,0-1.9,0-3c-1.8,0-3.6,0-5.4,0c-2.2,0-4.5,0.6-6.4-0.1c-4.3-1.7-8.6-0.4-13-1C490.1,697.1,490.1,697.9,490.1,699.1z
			 M575.9,618c-0.2-1,0.7-2-0.4-3c-0.8,0.2-1.6-0.3-2.5,0.6c0.4,0.7-0.5,1.7,0.6,2.4C574.2,618,574.8,618,575.9,618z"/>
		<path d="M444.6,730.7c-2-7.4-1.7-14.1-1.5-20.8c0.1-3.8,0.6-7.6,1.7-11.2c0.4-1.2,0.2-2.6,0.2-3.9c0-20,0-40,0-59.9
			c0-1.6-0.3-3.2,0.3-4.8c0.7,0.4,0.7,0.9,0.7,1.4c-0.8,23.5,1.6,47,1,70.5c-0.1,2.7-0.2,5.3,0,8c0.4,4.4-1.8,8.6-1,13.1
			C444.3,725,445.4,727.6,444.6,730.7z"/>
	</g>
</g>
</svg>
