<?xml version="1.0" encoding="utf-8"?>
<!-- Generator: Adobe Illustrator 17.1.0, SVG Export Plug-In . SVG Version: 6.00 Build 0)  -->
<!DOCTYPE svg PUBLIC "-//W3C//DTD SVG 1.1//EN" "http://www.w3.org/Graphics/SVG/1.1/DTD/svg11.dtd">
<svg version="1.1" id="Layer_1" xmlns="http://www.w3.org/2000/svg" xmlns:xlink="http://www.w3.org/1999/xlink" x="0px" y="0px"
	 viewBox="0 0 1440 937" enable-background="new 0 0 1440 937" xml:space="preserve">
<g>
	<g>
		<path d="M984.9,522.1c0-2.6,0-5.7,0-8.8c-0.3-0.2-0.4-0.3-0.6-0.3c-8.6,0.5-17.1-0.6-25.6-1c-0.8,0-1.6,0-2.6,0c0,2.9,0,5.7,0,8.6
			c-0.7,0.3-1.3,0.5-2.1,0.7c0,1.4,0,2.8,0,4.5c-3.3,0-6.4,0-9.8,0c-2.1-0.7-0.9-2.9-1.4-4.3c-3.5-1.9-7-1.6-10.6-1.4
			c-3.8,0.2-7.4-0.5-11.4-1.3c0.5-2.7-1-5.7,1-8.4c0.2-0.2,0.1-0.7,0-1c-0.7-6.9,1-13.7,1.1-20.6c0.1-5.5,1.4-11,0.9-16.6
			c1.7-3.2,0.7-6.7,1-10.1c0.3-3.2,1.5-6.3,1-9.6c-0.1-0.5-0.1-0.9-0.2-1.6c-7,0.7-13.7-1.7-20.6-1c-0.6,0.1-1.3,0-2.3,0
			c0.5,5.6-0.9,10.8-1.2,16.2c-0.2,4.5-0.2,9.1-1,13.6c-0.5,2.7-0.7,5.4-0.8,8.1c-0.1,2.2,0.3,4.1,2,5.7c0,1.3-0.1,2.7,0,4
			c0.5,8.4-2.1,16.6-0.7,25.5c-5.7-0.4-11,1-16.6-1c1.1-3.2-0.6-5.6-1-8.3c-0.1-1.3-0.9-2.7-0.8-4.1c0.1-1.4-0.9-2.3-1.2-3.6
			c-0.8-3.8-1.1-7.7-2.7-11.4c-0.4-0.8-0.2-1.9-0.2-2.9c0-3.5,0.1-7,0-10.5c-0.1-2.8,1.5-5.2,1.1-8.1c-0.4-2.6-0.7-5.6,0.1-7.9
			c1.1-3.1,0.8-6.1,0.7-9.1c-0.1-2.3,1.5-4.2,1.2-6.6c-0.3-2.1-0.7-4.6,0.1-6.4c1.2-2.9,0.9-5.8,0.8-8.6c-0.1-2.6,1.5-4.9,1.1-7.6
			c-0.3-2.5-0.7-5.2,0.1-7.4c1.1-3.2,0.9-6.4,0.8-9.6c-0.1-2.1,1.8-3.5,0.9-5.7c4.9,0,9.3,0,14.2,0c0-1.6,0-3.1,0-4.5
			c-0.1-4.1,1.4-7.9,1.1-12.1c-0.4-4-0.8-8.2,0.1-12c1.4-5.9,0.5-11.8,0.8-17.6c0.3-5.2,1.6-10.3,1-15.6c1.9-3.9,0.5-8,1.1-12
			c0.4-0.4,0.7-0.7,1.4-1.4c3.7,0,7.8-0.7,11.5,0.2c4.9,1.1,9.7,0.6,14.6,0.8c2.4,0.1,4.5,2.1,7.6,0.3c-0.7,2.7,0.4,4.6-1.2,6.4
			c-0.4,0.4-0.1,1.6-0.1,2.4c0.6,9.9-1.7,19.7-1,29.6c-1.8,5.9-0.2,12.1-1.2,18.1c-0.7,4.6-0.8,9.1-0.8,13.6c0,0.5,0.1,0.9,0.1,1.3
			c6.1,1.2,12.1,1,18.1,1.6c5.4,0.5,10.8,0.1,16.1,1c4.6,0.8,9.1,0.6,13.6,0.8c2.8,0.1,5.2,1.5,8.1,1.1c2.8-0.4,5.8-0.7,8.4,0.1
			c4.6,1.4,9.1,0.7,13.6,0.8c2.6,0.1,4.9,1.8,7.5,0.9c2.3,2.7,2,6.4,4,9.1c2.3,0,4.6,0.2,6.9-0.1c3.2-0.4,5.9,1.5,9.1,1.1
			c3-0.3,6.2-0.7,8.9,0.1c5.4,1.6,10.8,0.3,16.2,1c0.4,0.4,0.9,0.9,1.3,1.3c0,3,0.6,6.1-0.2,8.9c-0.8,3.1-0.7,6.1-0.9,9.2
			c-4.1,1.6-7.9-0.9-11.9-0.7c-3.8,0.2-7.8,0.8-11.6-0.9c-0.5,0.5-0.9,0.9-1.3,1.3c2.4,6.7,4.8,13.4,7.2,20.1c0.2,1,1.1,0.5,1.9,0.7
			c2,2.2,1.5,5.7,3.9,7.7c1.7-1.1,3.7-0.8,5.5-0.7c1.8,0.2,3.1-1.8,5.4-0.7c-0.4,5.3,0.8,10.9-1.2,16.1c2.7,1.7,4.8-0.6,7.1-0.5
			c2.6,0.1,5.1-0.1,7.6-0.9c2.2-0.7,4.8,0.8,7.4-1.2c0,1.7,0,3.2,0,4.6c0,3.7-0.6,7.5,0.2,11c0.8,3.4,0.7,6.7,0.8,10.1
			c0.1,3.7-0.2,7.3,0.1,11c0.4,5.4-1.8,10.7-1,16.1c0.2,1.3-1.5,1.8-1.1,3.5c-2.9-0.6-5.9,1-8.6-1.1c-0.2-0.2-0.7,0-1,0
			c-6.7,0.6-13.4-1.1-20.1-0.9c-6.7,0.2-13.3-2.2-20.2-0.8c0-1.9,0-3.4,0-4.8c-4.7-1.1-9.2-2-14.1-1.3c0-6.3-0.8-12.2,0.2-17.8
			c0.9-5.1,0.2-10,0.8-15.2c-2.3,1.3-4.5,0.7-6.4,0.9c-2-0.9-1.3-3.3-3.3-3.8c-0.6,1-1.8,0.8-2.9,0.8c-0.2,0.3-0.5,0.5-0.5,0.8
			c0.6,9.1-1.7,18-1,27.1c0.2,2.1-1.8,3.8-0.8,6.2c-3.3-0.4-6.1,0.6-8.4-1.2c-1,0.3-0.8,1.1-1,1.8c-2.7,0-5.5,0-8.7,0
			c-0.3-0.1-0.1-0.9-0.3-1.5C987.6,523.8,985.9,524.2,984.9,522.1z M1011.2,471.9c0-2.5,0-4.6,0-6.6c0.5-0.5,0.9-0.9,1.4-1.4
			c3,1,5.8-1.1,8.8-0.9c3.2,0.2,6.2-1.8,10.1-0.7c-2.6-7.6-4.4-14.6-7.6-21.6c0-1.1,0-2.8,0-5c-5.2,1.3-10-0.8-15-0.7
			c-4.7,0.1-9.4,0.2-13.7-1.5c-2.2-0.4-0.5-2.4-1.9-3.6c-3,1.2-5.8-2-9.2-0.5c0,5.6-1.8,11.2-1.2,16.9c0.2,1.6,0.3,3.4,0,5
			c-1.1,6.1-1.3,12.1-0.4,16.7c3.7,0.4,7.4,0,11.1,0.9c3.8,0.9,7.9,0.2,11.5,0.2c1.5,0.6,1.8,1.7,2.2,2.9
			C1008.4,471.9,1009.5,471.9,1011.2,471.9z M951.8,500.1c0-3.4,0-6.2,0-8.9c-4.6-0.7-9.2,0.7-13.6-0.9c-0.3,0.3-0.7,0.7-1.1,1.1
			c-0.7,2.4,0.6,5.1-1,7.5C941.2,501.2,946.5,499.4,951.8,500.1z M946.1,436.6c5.8,2.4,11.8,1,17.6,1.4c0.4-1.2,0.7-2.2-0.3-3.2
			c-5.3,1.2-10.6-1.1-15.9-0.8C946.8,434.9,945.8,435.2,946.1,436.6z M988.8,498.7c-2.8-1.6-5.8-1.9-8.8-1.7c-2.9,0.2-5.9-0.3-8.8,1
			c1.8,0,3.6,0,5.3,0c1.3,0,3-0.5,3.9,0.1C983.2,500,986,498.4,988.8,498.7z"/>
		<path d="M1067.1,417c3.3,0,6.3,0.1,9.3,0c2.9-0.2,5.6,1.5,8.6,1.1c2.8-0.4,5.8-0.6,8.4,0.1c2.7,0.7,5.4,0.9,8.3,0.8
			c0-1.4,0-2.9,0-4.1c0.9-0.8,1.4-2.2,2.5-1.7c3.7,1.5,7.7,0.8,11.9,1c-0.6,4.2,0.6,8.2-1,12.2c-0.7,1.7-0.1,4-0.1,6
			c0,4.3-0.1,8.7,0,13c0.1,4.1-1.5,7.9-1.1,12.1c0.3,4,0.5,8.1-0.1,12c-0.4,2.5-0.8,5-0.8,7.7c-4,0-7.8,0-11.8,0c0,1.9,0,3.7,0,5.3
			c-2,1.8-4.2,1.8-6.5,1.8c-1.4,0-2.8-0.3-4.2,0.8c-0.9,0.7-2.8,0.1-4.4,0.1c0-1.7,0-3.1,0-5.1c-3,0.7-5.9-1-8.6,1.1
			c-0.1,0.1-0.3,0-0.5,0c-4.3-0.8-8.3,1.5-12.7,0.9c-0.1-1.9-0.9-3.7,0.7-5.5c0.5-0.6,0.1-1.9,0.1-2.9c0-5.2,0.3-10.3-0.1-15.5
			c-0.5-8.7,1.4-17.4,1.1-26.1C1067.8,427.2,1066.6,422.2,1067.1,417z M1079.3,455c3.5-0.2,6.8-0.1,10.2-0.8c3.4-0.7,7-0.5,10.3-1.6
			c0-2.5,0-4.9,0-7.6c-1.9,0-3.7,0-5.5,0c-1.8,0-4,0.6-5.4-0.1c-2.9-1.5-5.7-0.5-9.2-1C1080.9,447.8,1077.9,450.9,1079.3,455z"/>
	</g>
</g>
</svg>
