<?xml version="1.0" encoding="utf-8"?>
<!-- Generator: Adobe Illustrator 17.1.0, SVG Export Plug-In . SVG Version: 6.00 Build 0)  -->
<!DOCTYPE svg PUBLIC "-//W3C//DTD SVG 1.1//EN" "http://www.w3.org/Graphics/SVG/1.1/DTD/svg11.dtd">
<svg version="1.1" id="Layer_1" xmlns="http://www.w3.org/2000/svg" xmlns:xlink="http://www.w3.org/1999/xlink" x="0px" y="0px"
	 viewBox="0 0 1440 937" enable-background="new 0 0 1440 937" xml:space="preserve">
<g>
	<g>
		<path d="M248.6,502.2c-0.7-0.8-1.6-1.4-1.6-1.8c0.5-3.6-1.6-7-1.1-10.6c0.3-2.3-1.1-4.2-1.1-6.6c0-2.4,0.4-4.6,1.3-6.5
			c3.2-7.5,6.5-15,8.9-22.8c0-0.1,0-0.4,0.1-0.5c2.7-1.8,2.6-4.9,3.5-7.5c1.6-4.3,3.4-8.6,4.9-13c1.4-4.1,3.3-8,4.6-12.1
			c0.5-1.5,2.1-2.7,2.9-4.9c-0.7-3.2,1.7-6.1,2.9-9.2c3.4-8.6,6.4-17.3,10.1-25.8c0.2-0.4,0-1,0-1.9c2.9,0.4,5.5-0.6,8.5,0.7
			c2.3,1.1,5.5-0.4,8.2,1.6c0.4,0.9,1,2.1,1.6,3.4c0.9,0.6,1.5,0,2-0.7c1.7,1.4,3.7,0.9,5.5,0.8c1.9-0.2,3.3,0.9,5.2,1.4
			c-0.7,4.7,1.7,9.2,1,13.9c1.9,5.6,1,11.4,0.9,17.1c-0.1,4.8,1.4,9.3,1.2,14.1c-0.2,4.8,0,9.7-0.1,14.5c0,1.8,1.1,3.2,1.1,5.1
			c0,5.6-1.3,11-2.8,16.4c-0.6,2.2-1.3,4.5-1.4,7c-0.1,2.2-1.4,4.4-2.1,6.6c-4.3,0.4-8.3-2.2-12.5-0.6c1.5,3.2,1.1,6.4-0.5,9.4
			c-2.6,4.6-6,8.7-8.5,13.5c-0.4,0.7-1.1,1.2-1.6,1.6c-3.2,1-5.8-1.2-8.8-0.9c-2.8,0.3-5.9,0.7-8.4-0.1c-4.4-1.3-8.8-0.8-13.1-0.8
			C255.6,503.1,252.1,500.9,248.6,502.2z M278,470.7c2,0.8,3.1,0,4-1.4c-1.4-0.5-2.7-0.6-4,0C278,469.8,278,470.2,278,470.7z
			 M291.5,444c0.8-1,0.8-2,0-3.1C290.7,442,290.7,443,291.5,444z"/>
		<path d="M147.2,399.2c-1.4,0-2.6,0.3-3.7-0.1c-1.2-0.4-2.2-0.3-3.3-0.3c-1.2,0-2.4,0-3.5,0c-0.2-0.2-0.4-0.4-0.6-0.6
			c0.3-2.3-0.8-4.6-0.3-7c-0.2-0.2-0.5-0.4-0.7-0.7c-1.4,0.2-2.8-0.2-4.2-0.5c-0.2,0-0.3-0.3-0.5-0.5c0-0.8,0-1.7,0-2.5
			c-1.7-0.9-3.5-0.5-5.1-0.6c-0.6-0.4-0.7-0.9-0.6-1.6c-0.8,0.2-1.4-0.5-2.3-0.5c-0.9,0.1-1.9,0.1-2.6-0.5c0,0,0-0.1-0.1-0.2
			c-0.1-3.4,0-3.4,1.4-6.7c0.8-2.1,1.6-4.2,2.4-6.2c0.7-1.9,1.4-3.8,2.2-5.7c0.7-1.8,1.3-3.6,2-5.3c0.7-1.7,1.4-3.4,2-5.2
			c0.4-1.4,1.2-2.7,1.8-4.1c1.2,0.1,2.5,0,3.8,0.4c1.1,0.3,2.4-0.2,3.4,0.6c0.3,1.8,0.6,3.6,0.6,5.4c0,1.9,0.1,3.6-0.5,4.6
			c-1.2,2.1-1.6,4.6-2.8,6.7c-0.1,0.2,0,0.5,0,0.9c-1.3,0.3-1.7,1.4-2,2.4c-0.2,0.4-0.2,1,0.5,1.2c-0.8,2.3-1.7,4.5-2.5,6.7
			c0.7,0.6,1.7,0.6,2.8,0.5c-0.1-2.9,0.8-5.7,1.4-8.6c1.9,0,3.9-0.3,5.8,0.1c2.6,0.5,5.3,0.2,7.9,0.3c0.5,0,1.1-0.1,1.5,1
			c0,0.6-0.1,1.7,0,2.6c0.1,0.6,0.5,1.2,0.4,1.9c-0.2,0.8,0.2,1.7-0.3,2.6c-0.5,0.7,0.3,1.7-0.5,2.5c0.1,1.7-0.5,3.3-0.9,5
			c-0.4,1.9-0.3,3.9-1.2,5.7c0.2,1.2-0.5,2.2-0.5,3.3C148,397.3,147.5,398.2,147.2,399.2z"/>

		<path d="M149.2,371.5c-2.5,0-4.9,0-7.4,0c-0.6,0-0.9-0.2-1.3-0.7c0.2-1.4-0.5-3.1,0.8-4.5c0.1-2.5,1.3-4.9,0.8-7.4
			c0.3-0.3,0.6-0.6,0.8-0.8c0.2-2.6,1.3-5,0.8-7.9c1.4,0.8,2.6,0.6,3.9,0.6c1.2,0,2.5,0,3.9,0c0.2,0.3,0.5,0.8,1,1.6
			c-0.1,2.1,0.3,4.8-0.6,7.5c-0.5,0-1.2,0-1.8,0c0.7,0.6,1.4,0.3,2.3,0.5c0.3,0.5-0.3,1.4,0.5,1.9c-0.7,2.1-0.6,4.2-1.4,6.3
			c-0.8,0-1.7,0-2.7,0C149.4,369.7,149.3,370.6,149.2,371.5z"/>
		<path d="M360.8,349c-6.1,0-11.9-0.1-17.8,0c-1.4,0-2.2-0.5-3.1-1.6c0.4-3.5-1.1-7.6,1.9-10.9c0.2-6.1,3.2-11.9,1.9-17.9
			c0.8-0.8,1.4-1.4,2-2c0.5-6.2,3.1-12.1,2-19.2c3.4,1.9,6.4,1.4,9.4,1.5c3,0,6,0,9.5,0c0.5,0.8,1.2,1.9,2.3,3.8
			c-0.2,5.2,0.7,11.6-1.4,18.2c-1.3,0-2.8,0-4.4,0c1.7,1.4,3.5,0.8,5.6,1.2c0.8,1.3-0.7,3.5,1.2,4.5c-1.7,5-1.4,10.1-3.4,15.2
			c-1.9,0-4.1,0-6.5,0C361.4,344.5,361.1,346.7,360.8,349z"/>
	</g>
</g>
</svg>
