<?xml version="1.0" encoding="utf-8"?>
<!-- Generator: Adobe Illustrator 17.1.0, SVG Export Plug-In . SVG Version: 6.00 Build 0)  -->
<!DOCTYPE svg PUBLIC "-//W3C//DTD SVG 1.1//EN" "http://www.w3.org/Graphics/SVG/1.1/DTD/svg11.dtd">
<svg version="1.1" id="Layer_1" xmlns="http://www.w3.org/2000/svg" xmlns:xlink="http://www.w3.org/1999/xlink" x="0px" y="0px"
	 viewBox="0 0 1440 937" enable-background="new 0 0 1440 937" xml:space="preserve">
<g>
	<g>
		<path d="M1130.1,478c-1.6,0-2.7,0-3.8,0c-0.2-0.5-0.3-0.8-0.3-1.1c0-4.2,0.2-8.3-0.1-12.5c-0.4-5.1,1.7-10,1.1-15.1
			c1.5-2.5,0.8-5.3,1.1-8.2c3.2,0,6.3,0,9.4,0c2.5-9.3,4.5-18.5,8.9-27.2c4,0.4,8-0.7,12,1c1,0.4,2.3,0,3.5,0.1
			c1.6,0.2,3.3-0.7,4.6,0.9c0.2,0.3,1,0,1.4,0.1c2.1,0.1,3.8-1.8,6.3-0.2c1.5,1,4.2,0.2,6.4,0.2c2.3,0,4.6,0,6.9,0
			c0.6,0.6,1,1,1.2,1.2c1.1,2.5-0.8,4.2-0.8,6.4c0,2,0.9,4.3-0.9,6.1c-0.2,0.2-0.1,0.7,0,1c0.7,4.3-1,8.3-1.2,12.6
			c-0.2,4.9-1.4,9.7-2,14.6c-0.3,2.2-0.3,4.5-0.9,6.6c-0.7,2.2-0.9,4.4-0.9,6.6c0.1,1.8-1.6,3.1-1.1,5.1c0.3,1.5-0.3,3.1-0.7,4.6
			c-0.7,2.5-0.7,5.4-1,8.1c-0.3,3.5-1.9,6.9-1.2,10.6c-2.2,3.3,0.2,7.4-2,10.7c0.8,3.6-0.7,7.1-1.2,10.6c-0.6,4-0.2,8.3-2.3,12.2
			c-3.2,1.2-6.4-1.1-9.7-0.7c-3.3,0.4-6.2-1.9-9.7-0.8c0,1.4,0,2.8,0,4.2c-4.7,1.7-9.1-0.7-13.9-0.5c0.2-2.3-0.9-4.4-1.4-6.7
			c-0.6-2.3-1.1-4.6-1.8-6.7c-0.8-2.4-0.8-4.7-0.9-6.2C1129.8,502.9,1129.6,490.8,1130.1,478z M1153.8,494.4c1.8-0.8,3,0,4-0.8
			c0.2-5.5,1.1-11,2-16.5c-1.4-0.1-2.7-0.5-3.6,0.2C1155.4,482.9,1154.7,488.3,1153.8,494.4z M1165.9,452.8c0.5-1.3-0.5-3.3,1-4.5
			c-3.4-2.1-7.1-1-10.3-1.3c-2,1.5-1.8,3.2-1.2,5c1.7,0,3.5,0.3,5-0.1C1162.4,451.5,1163.6,453.7,1165.9,452.8z M1156.5,506.2
			c3.2-2.8,3.3-4.6,0.8-7.1c-0.6,1.1,0.2,2.5-0.4,3.2C1156,503.6,1155.7,504.5,1156.5,506.2z"/>
		<path d="M1158,636.5c-6.4-1-12.6-1.2-18.8-2.7c-0.1-1.3-0.8-2.7,0.5-4c0.4-0.4,0.3-0.9,0.3-1.4c0.1-3.1,0.5-6.1,0.8-9.1
			c0.3-3.9,1.7-7.6,1.3-11.6c-0.2-1.7,1.5-3.1,1.1-5.1c-0.3-1.5,0.3-3,0.8-4.6c0.7-2.4,0.7-5.1,0.9-7.5c0.3-3.5,1.7-6.9,1.2-10.6
			c-0.2-1.8,1.3-3.2,1-5.1c-0.2-1.5-0.2-3.1,0.8-4.6c0.6-0.9,0.1-2.6,0.1-3.9c0-1.1-0.4-2.3,1.8-3c-7.8-1.1-14.6-2-21.9-3
			c-2.1,3.8-0.1,8.2-1.1,12.4c-0.4,0.4-0.8,0.8-1.5,1.5c-6-2-12.5-1-19.2-1.3c0.4,2.5-1,4.5-1.4,6.9c-2.4,0-4.9,0-7.7,0
			c0-1.8,0-3.6,0-5.4c0-9.5-0.1-19,0.1-28.5c0.1-3.5-1.4-6.6-1.1-10.1c0.3-3.3,0.3-6.7,0-10c-0.2-2.5,1.3-4.6,1.2-7.1
			c-0.1-2.2-0.9-4.6,0.9-6.6c0.2-0.2,0.1-0.7,0-1c-0.7-5.4,1.4-10.6,1.1-16.1c-0.1-2.2,1.2-4.2,1-6.6c-0.2-2.2-0.4-4.4,0.8-6.6
			c0.7-1.3,0.1-3.2,0.1-5c6.4,0,12.6-0.5,18.7,0.2c3.3,0.3,6.7,0.7,10.3,0.8c0,8.1,0.4,16.1-0.2,24c-0.2,3.2,0,6.7-1,9.5
			c-1.4,3.9-0.2,7.9-1.6,11.8c-1,2.8-0.2,6.2-0.2,9.3c2.9,1.1,5.8,1.1,8.6,1.5c2.9,0.4,6,0.2,8.5,1.1c3,1,5.7,0.4,8.7,0.9
			c0-1.8,0-3.2,0-4.6c3.6-1.9,6.7,0.9,10.1,0.5c3.4-0.4,6.4,1.4,9.1,1.4c1.3,1.6-0.3,1.7-0.1,2.6c0.8,4.4-1.4,8.6-1,13.1
			c0.2,1.9-1.3,3.5-1,5.6c0.2,1.7-0.1,3.4-0.7,5.1c-0.8,2.3-0.8,5.1-0.9,7.5c-0.3,3.5-1.7,6.9-1.2,10.6c0.3,1.9-1.4,3.5-1.1,5.6
			c0.2,1.6,0.9,3.6-0.9,5.1c-0.2,0.1,0,0.6,0,1c0.1,2.4-0.3,4.7-0.9,7.1c-0.5,2.1,0.3,4.5-1.1,6.6c0.6,3.8-1.6,7.3-0.9,11.1
			c0.4,1.9-1.3,3.2-1.1,5.1c0.1,1.7,0.7,3.5-0.8,5.2c-0.5,0.5-0.1,1.9-0.1,2.9c0.1,2.9-1.2,5.6-1.4,8.4
			C1158.6,636.1,1158.2,636.3,1158,636.5z"/>
		<path d="M1105.9,624.7c-1.2-2.5-3.3-1.2-4.8-2c0-6.8,0-13.5,0-20.3c0.4-0.4,0.9-0.9,1.4-1.4c2,0,4,0,6,0c0.4-1.3,1.6-2.3,1.5-3.8
			c0-1.4-1.3-2-5.1-2.4c0.4-7.1-0.8-14.3,1.4-21.6c6.2,0,12.8,0,19.4,0c0.3,0.3,0.7,0.7,1.3,1.3c0,3.9-0.2,8,0,12.2
			c0.2,3.7-0.9,7.4,0.8,11c-1.8,3.4-0.6,7.1-0.8,10.6c-0.2,4.7,0,9.4,0.8,14.1c0.7,4.1,0.7,8.4-1.3,12.5c-6.9,0-14.1,0-21.2,0
			C1104.6,628.3,1104.7,627,1105.9,624.7z"/>
	</g>
</g>
</svg>
