<?xml version="1.0" encoding="utf-8"?>
<!-- Generator: Adobe Illustrator 17.1.0, SVG Export Plug-In . SVG Version: 6.00 Build 0)  -->
<!DOCTYPE svg PUBLIC "-//W3C//DTD SVG 1.1//EN" "http://www.w3.org/Graphics/SVG/1.1/DTD/svg11.dtd">
<svg version="1.1" id="Layer_1" xmlns="http://www.w3.org/2000/svg" xmlns:xlink="http://www.w3.org/1999/xlink" x="0px" y="0px"
	 viewBox="0 0 1440 937" enable-background="new 0 0 1440 937" xml:space="preserve">
<g>
	<g>
		<path d="M794.9,161c0.7,5.9-1.4,11.3-1,16.9c0.4,5.6,0,11.3,0.1,17c0.1,2.2-1.3,3.9-1.3,6.1c-1.4,0-2.7,0.1-4,0
			c-7.1-0.5-14,1.5-21.1,1.2c-2.1-0.1-4.3,1-6.6,0.9c-0.8,0-1.1-0.7-1.6-1c-0.1,0.1-0.2,0.2-0.3,0.3c-0.2,0.2-0.5,0.6-0.7,0.6
			c-6.4,0-12.6,2-19.2,0.8c-0.8-2.1-1.7-4.4-2.6-6.8c-1.7,0-3.4-0.2-5,0c-3.3,0.5-6.3-1.5-9.6-1.1c-3.1,0.3-6.4,0.4-9.5-0.1
			c-2-0.3-4-1-6.6-0.8c0.2-5.3-0.6-10.4,1.4-15.4c-1.4-0.7-2.5-1.2-3.5-1.8c-0.3,0.3-0.8,0.5-0.8,0.7c0,3,0,6,0,8.9
			c-2.7,2-2.7,5.9-6,7.6c-1.9-1.9-4.5-0.7-6.8-1.3c-0.1-0.9-0.2-1.6-0.3-2.4c-0.3-0.1-0.6-0.4-0.8-0.4c-1.2,0-2.3,0-3.5,0
			c-3.4,0-6.8,0.5-10.5-1.9c0-2.2,0-5.4,0-8.5c0-3.2,0.3-6.4-0.1-9.5c-0.4-3.2,0.9-6.1,1.3-9.1c0.4-3,0.3-6.1,1.3-8.9
			c1-2.9-0.2-6.1,2.5-9c1.3,0.3,3.6-1.2,5.6,0.8c0.1,0.1,0.3,0,0.5,0c4.1-0.7,8,0.8,12.1,1.1c4.2,0.3,8.5,1,12.7,1.6
			c3.4,0.5,6.9,2,10.5,1.2c2.5-0.5,4.7,0.8,7.1,1.1c2.4,0.2,4.7-0.2,7.2,0.7c2.2,0.8,5.1,1.1,7.5,1.1c4.8-0.1,9.4,0.7,14.1,1.4
			c2.5,0.4,5.4,0.1,7.7,1.8c0.8,0.1,1.1-0.5,1.8-1.1c2.7,2.2,6.3,0.1,9.2,1.6c3.1,1.5,6.3-0.2,9.5,1.2c2.8,1.2,6.3,1.4,9.4,1.3
			c3.3-0.1,6.4,1.3,9.6,1c3.3-0.3,6.2,1.8,9.5,1.2c-0.7,0.4,0.4,0,0,0.5c-0.1,0.1-0.2,0.3-0.3,0.3C807.5,161,801.5,161,794.9,161z"
			/>
		<path d="M930.7,176.2c0.5,0.5,0.9,1,1.5,1.6c-0.8,1.4-1.3,2.8-1.2,4.5c0.2,3-0.1,6,0.1,9c0.2,3.7-1.1,7.1-2.3,11
			c-7.1-2.1-14.3-0.9-21.4-1.3c-0.3-1.5-1.5-2.5-1.5-3.7c-1.3-0.5-2.2,0.2-2.3,0.8c-0.3,1.9-2.3,1.9-3.3,3c-2.7-1.8-5.7-0.8-8.8-1.1
			c-0.8-0.9-1.7-2.1-2.5-2.9c-2.5,0-4.5,0-6.5,0c-0.4-0.3-0.7-0.7-1.1-1c-2,0-2.2,1.5-2.8,3c-0.8-1.1-0.9-2.8-2.5-3
			c-2.4,0.3-1.8,3.3-3.7,4c-1.1,0.3-1.4-0.9-2.1-0.9c-2-0.1-3.9,0-6.2,0c0,1.8-0.1,3.4,0,5c0.7,7.9-1.2,15.7-1.1,23.9
			c-4.6-0.4-9.3,1.1-13.9-0.9c-1.1-0.5-2.6-0.1-4-0.1c-2.3,0-4.7-0.1-7,0c-10.2,0.3-20.3-2-30.3-0.8c-0.7-0.7-1.2-1.2-1.8-1.8
			c0-3.3,0-6.7,0-10.3c-4,0-7.7,0-11.3,0c-0.5-0.5-0.9-0.9-1.5-1.5c0-7.5,0-15.3,0-23c2-4.6,1-9.4,0.9-14.1c-0.1-5.1,1-10,1.3-15.1
			c2.8-1.4,5.1,1.3,7.9,0.8c2.6-0.5,5.3-0.1,8-0.1c2.8,0,5.7,0,8.5,0c0.5,0.5,1,1,1.5,1.5c0,5.1,0.6,10.3-0.2,15.4
			c-0.6,4.2-0.7,8.4-0.8,12.6c0,0.5-0.2,1,0.4,1.4c1.9-2,1.7-4.8,2.5-7.1c0.9-2.9,1.5-5.9,1.1-9c-0.3-2.4,0.9-4.6,1.7-6.8
			c0.6-1.6-0.8-3.9,1-4.4c2.9-1.4,4.6,0.6,6.7,0.6c2,0,4.3-1,6.1,0.9c0.2,0.2,0.7,0.1,1,0c4.4-0.8,8.7,1.4,13.1,1
			c2.1-0.2,3.9,1.3,6.1,1.1c2-0.2,4.3-0.8,6.1,0.9c0.2,0.2,0.7,0.1,1,0c4.3-0.7,8.3,1.4,12.6,1.1c1.8-0.1,3.6,0.9,5.6,1
			c1.9,0,3.7-0.5,5.7,0.7c1.5,0.9,4.1-0.3,5.8,0.3c3,1.1,6.2,0.3,9.1,1c2.9,0.8,6,0.1,8.6,1c2.8,1,5.7-0.1,8.1,1
			C924.9,176.4,927.6,175.5,930.7,176.2z"/>
		<path d="M881.5,224c-4,0-8,0-12,0c-0.5-0.5-0.9-0.9-1.3-1.3c-1.2-3.3,1-6.1,0.8-9.2c-0.1-3,0-6,0-9c2.9-2.8,4.1-7,7.6-9.5
			c0.5,1.2,1.1,2.4,1.7,3.6c1.4,0.4,2.6,1.4,4.3,1.4c6.3-0.2,12.6-0.1,19.6-0.1c0.7-0.8,1.6-2,2.9-3.6c1,1.9,2,3.5,3.4,4.5
			c7,0.6,13.9-0.8,20.9,1c1.7-0.8,2.4-2.5,3.5-4.6c1.5,1.7,3.2,2.4,3.4,4.4c1.1,0.7,3-0.6,3.8,1.4c0,2.5-0.3,5,0.1,7.4
			c0.3,2.5-1.1,4.7-1.2,7.3c-5.5,0.8-10.9-2-16.7-0.6c-0.8,0.8,0.3,2.3-0.6,3.8c-3.3-0.7-6.9,1.1-10.3-1c-0.7-0.4-2-0.1-3-0.1
			c-5.2,0-10.3,0-15.5,0c-2.2,0-4.6,0.6-5.9-1.1c-2.4,0.2-2.9,2.6-4.7,2.3C881.6,222.1,882.5,223.3,881.5,224z"/>
	</g>
</g>
</svg>
