<?xml version="1.0" encoding="utf-8"?>
<!-- Generator: Adobe Illustrator 17.1.0, SVG Export Plug-In . SVG Version: 6.00 Build 0)  -->
<!DOCTYPE svg PUBLIC "-//W3C//DTD SVG 1.1//EN" "http://www.w3.org/Graphics/SVG/1.1/DTD/svg11.dtd">
<svg version="1.1" id="Layer_1" xmlns="http://www.w3.org/2000/svg" xmlns:xlink="http://www.w3.org/1999/xlink" x="0px" y="0px"
	 viewBox="0 0 1440 937" enable-background="new 0 0 1440 937" xml:space="preserve">
<g>
	<g>
		<path d="M807.8,762.3c5.5-1.2,10.2,1,15.1,0.7c2.5-0.2,5,0,7.4,0c1.5,0.9,2.2,2.5,1.5,3.8c-1.5,3-0.7,6.1-0.9,9.1
			c-0.1,2-0.1,4,0,6c0,0.8-0.7,1.1-1,1.6c0.8,0.8,1.5,1.4,2.9,1.6c4.2,0.4,8.4,1.2,12.4,2.7c1.9,0.7,4,0.5,6,1
			c2.8,0.8,5.8,1.4,8.8,1.8c3,0.4,6,0.9,8.9,1.6c5.3,1.4,10.6,2.5,15.9,3.6c4.1,0.9,8.4,1.6,12.6,2.4c3.6,0.7,7.4,1.1,10.9,2.5
			c1.9,0.8,4.3,1,6.5,1.2c4.1,0.4,8,2.1,12.2,2.2c1.2,0,3.1,0.8,3.5,2c0.6,1.8,2.5,1.8,3.5,3.6c-1.8,7.3-0.9,15.3-2.8,23.2
			c-1.9,7.6-2.8,15.4-4.5,23.8c-1.7-1.9-3.5-2-5.3-1.7c-2.4,0.5-4.3-1.5-6.6-1.1c-2.3,0.4-4.4-0.5-6.6-0.9c-1-0.2-1.3-0.9-1.9-1.2
			c-0.4-0.7,0.4-0.8,0.6-1.2c-0.9-2.1-2.7-1.6-4.4-1.5c-1,0.7,0.1,2-1,3c-2-0.3-4.1,0.4-6.3-0.9c-1.8-1.1-4.5,0.8-6.6-1
			c-0.3-0.3-0.9-0.1-1.4-0.1c-6.3,0-12.3-2.3-18.7-2c-2.2-1.4-4.9-0.4-7-1.1c-2.4-0.8-4.9-0.3-7.1-1c-2.4-0.8-4.9-0.3-7.1-1
			c-2.2-0.7-4.5-0.4-6.6-1c-2.5-0.7-5.1-0.6-7.6-1c-2.5-0.4-5.2-0.3-7.6-1c-4.1-1.2-8.1-0.7-12.1-0.8c-2.1-0.1-3.9-1.5-6.1-1.1
			c-1.9,0.3-3.9,0.1-6.3,0.1c0-4.6-0.6-9.1,0.2-13.5c0.6-3.2,0.2-6.5,0.9-9.6c0.8-3.4,0.3-6.8,1-10.1c0.7-3.1,0.3-6.2,1-9.1
			c0.9-3.4,0.3-6.8,1-10.1c0.7-3.2,0.1-6.6,1-9.6c1-3.3,0.2-6.5,0.9-9.6C807.6,766.5,808.2,764.6,807.8,762.3z M829.5,813
			c1.9,0,4.3-0.7,5.8,0.2c2,1.1,3.8,0.9,5.7,0.7c2.2-0.1,3.9,1.4,6.1,1.1c3.4-0.4,6.6,1.7,10.1,1c2,1.6,4.5,0.4,6.5,1.1
			c2.4,0.9,4.7,0.8,7.1,0.9c0.5,0,1.2-0.2,1.5,0c1.7,1.6,3.7,0.9,5.6,0.9c2.1,0,3.9,1.7,6.1,1c0.6-0.2,1.6,0.5,2-1.1
			c-3.4,0.8-6.3-1.4-9.6-1c-5.8-2.2-11.9-2.7-17.9-4c-2-0.4-4.2-0.4-6.1-1.1c-4.4-1.5-8.8-2.2-13.3-2.9c-1.1-0.2-2.2-0.9-3.3-1.4
			c0.5-1.7-0.4-2.7-1.5-3.5c-1.7-0.2-3.6,0.5-5-0.9c-1.8,2.2-1.4,4.8-1.4,7.4C828.5,812,828.9,812.4,829.5,813z M886.9,820.5
			c1.3,0.8,2.2,0.6,3.3,0C889,819.8,888.1,819.8,886.9,820.5z"/>
	</g>
</g>
</svg>
