<?xml version="1.0" encoding="utf-8"?>
<!-- Generator: Adobe Illustrator 17.1.0, SVG Export Plug-In . SVG Version: 6.00 Build 0)  -->
<!DOCTYPE svg PUBLIC "-//W3C//DTD SVG 1.1//EN" "http://www.w3.org/Graphics/SVG/1.1/DTD/svg11.dtd">
<svg version="1.1" id="Layer_1" xmlns="http://www.w3.org/2000/svg" xmlns:xlink="http://www.w3.org/1999/xlink" x="0px" y="0px"
	 viewBox="0 0 1440 937" enable-background="new 0 0 1440 937" xml:space="preserve">
<g>
	<g>
		<path d="M571,575.4c2-5.6,1.8-11.1,2.5-16.4c0.8-5.3,1.7-10.6,2.6-15.9c0.9-5.2,1.4-10.6,3.2-15.9c1.9,0,4,0,6.5,0
			c-0.2-4.5,0.7-8.7-0.8-13.1c-0.8-2.4-0.3-5.3-0.1-7.9c0.2-2.5-0.6-5,0.8-7.7c0.9-1.8-0.3-4.5,1.2-6.5c-0.6-3.3,1.7-6.2,1-9.3
			c0.6-0.7,1.1-1.1,1.5-1.6c5,1.9,10.2,0.1,15.1,1.2c4.1,1,8.1,0.4,12.4,1c0,1.6,0.1,3.2,0,4.8c-0.3,4.1,1.5,7.9,1.1,12.1
			c-0.4,4.1-0.1,8.3-0.1,12.5c0,4.2,0,8.3,0,12.5c0,1.4,0.9,2.6,0.5,4c0,0.2,0.4,0.5,1,1c0.7,0,1.6,0,2.6,0c6.7-0.2,13.3,1.8,20.1,1
			c4.4,1.7,9.1,0.3,13.6,1.1c4.9,1,9.9,0.1,14.6,1c4.6,1,9.2,0,13.6,1c4.2,0.9,8.4,0.7,12.7,0.9c0.9,1.1,0.4,2.5,0.4,3.7
			c0.1,6,0,12,0,18c0,3.9-1.4,7.6-1.1,11.6c0.3,4,0.5,8.1-0.1,12c-0.4,2.7-0.3,5.5-1,8.1c-0.7,2.6-0.9,5.1-0.8,7.6
			c0,1-1.6,1.3-1.1,2.5c-7.4,2.8-14.6,5.8-21.7,9.4c0,2.3,0,4.4,0,6.6c-6,2.5-11.8,4.9-17.4,7.2c-1.2-1.3-2.5-2.5-3.6-3.6
			c-1.9,0-3.4,0-4,0c-10.1,4.3-19.6,8.3-29.1,12.3c0,2,0,4,0,6c-1.4,2.2-4.2,2-6.1,4.1c-7.3-8.1-13.3-16.8-19.7-25.1
			c-6.4-8.3-12.5-16.9-19.2-25.4c-0.3-4.3,0.5-9.1-0.4-13.9C571.6,575.9,571.2,575.7,571,575.4z M678.8,583.9
			c0.6-4.4,1.2-8.5,1.8-12.7c-1.3-0.3-2.5-1.3-4.3-1.3c-4.4,0-8.7,0.4-13.1-0.8c-2.8-0.8-6-0.4-8.9-0.1c-3,0.3-5.6-1.3-8.6-1.2
			c-4,0.2-8,0.3-12.1-0.7c-4.5-1.1-9.4,0.8-14.1-1.2c-0.4,0.5-0.8,1-1.4,1.6c-0.4,2,0.2,4.2-0.9,6.4c-1,2,1,4.9-1.7,7.1
			c-1.7,0-3.7,0-5.7,0c-1.8,0-3.7,0.2-5.4-0.2c-4-0.9-8.9-1.1-14.2-0.1c3,0.5,5.2,0.5,7.3,1.1c2.3,0.7,5,0.4,7.4,0.1
			c2.6-0.4,4.6,1.1,7.1,1.2c4.5,0.1,9-0.6,13.6,0.8c2.8,0.8,5.9,0.2,8.9,0.1c3.1-0.1,5.9,1.3,9.1,1.1c3.2-0.2,6.3-0.3,9.6,0.7
			c2.9,0.9,6.3,0.3,9.4,0.2c3.1-0.1,5.9,2,9,0.8C674,585.8,676,583.7,678.8,583.9z M609.3,602.9c2.9,2.7,3.7,5.8,6.6,7.2
			c1.3-0.7,2.7-1.7,4.1-1.9c1.6-0.3,2.9-1.1,4.3-1.8c1.2-0.7,3.4,0.4,3.4-2.3c-2.5,0-5.2,0.6-7.4-0.1
			C616.9,602.7,613.6,603.3,609.3,602.9z"/>
	</g>
</g>
</svg>
