<?xml version="1.0" encoding="utf-8"?>
<!-- Generator: Adobe Illustrator 17.1.0, SVG Export Plug-In . SVG Version: 6.00 Build 0)  -->
<!DOCTYPE svg PUBLIC "-//W3C//DTD SVG 1.1//EN" "http://www.w3.org/Graphics/SVG/1.1/DTD/svg11.dtd">
<svg version="1.1" id="Layer_1" xmlns="http://www.w3.org/2000/svg" xmlns:xlink="http://www.w3.org/1999/xlink" x="0px" y="0px"
	 viewBox="0 0 1440 937" enable-background="new 0 0 1440 937" xml:space="preserve">
<g>
	<g>
		<path d="M984,486.4c-0.1-1.4-1-1.8-1.8-2.4c-2.7-0.1-4.8,1.6-7,2.5c-5.9,2.5-11.9,5-17.8,7.6c-6.6,2.9-13.2,5.9-19.9,8.8
			c-0.8,0.4-2,0-3,0c-1.4-3-4.3-4.7-6.5-7.5c0-0.3-0.1-0.9-0.1-1.9c-2-0.7-3.3-2.6-5-4c-1.9-1.6-2.5-4.1-4.6-5.6
			c-1.8-1.3-2.9-3.6-5.3-4.2c-0.4-2.5-3-3.4-4-5.1c-1.2-1.1-3,0.1-3.6-1.6c-2,0-4,0-6.4,0c0-2.5-0.8-4.9,0.7-7.5
			c0.5-0.9,0.3-2.3,0.1-3.4c-0.6-6.2,1.7-12.3,1-18.6c1.7-3.6,0.7-7.4,1.1-11.1c0.4-0.4,0.9-0.9,1.5-1.5c3.7,1.7,7.8,1,12.2,1.2
			c1,6.5-2.2,13.1-0.4,19.8c2.1,0,4.4,0,6.3,0c2.7,0.8,4.2,2.5,5.8,4.1c0.9-1.2,0.5-2.6,0.4-3.8c-0.4-5.4,0.6-10.7,1.3-16.3
			c2.8,0.5,5.6-0.6,8.5,1c1.1,0.6,3,0.3,4.4,0.1c4.8-0.6,9.4,1,14.3,1.1c6.7,6.5,12.7,14,18.9,20.9c2.3,0.2,3.8-0.8,5.4-1.4
			c2.8-0.9,4.2-3.1,4.2-6.1c0-3.7,0-7.3,0-11.4c4,0.3,7.9-0.5,12,0.7c3.2,1,6.9,0.2,10.4,0.2c5.4,0,8.2,1.7,10.9,6.8
			c3.6,1.5,6.6-3.5,10.4-0.9c5.3-2.3,10.6-4.6,16-6.9c1.9,0.7,3.8,2.1,5.7,0.1c0.3-0.3,1-0.1,1.3-0.4c2.5-2.1,5.1-2.3,7.5-0.6
			c2.4-0.4,3.8-2.4,6.8-2c1.2,1.3,2.9,3.1,4.6,4.9c2-1.2,4.7-1,6.2-3.7c3.7,4.4,8.6,6.7,11.8,11.1c-1.6,1.8-0.2,4.2-1,6.4
			c-3.3,2.6-7.7,3.3-10.9,6.6c-1.3-1.3-2.4-2.4-3.5-3.5c-1.4,0.4-2.4,1.7-4,1c-1-1.1-2.1-2.3-3.5-3.8c0-1.1,0-2.5,0-4.4
			c-2.8,1.3-5.2,2.5-7.6,3.6c1.2,1.2,2.5,2.4,3.4,3.4c0.8,5.1,0.1,9.6-1,14.3c-3.8,1.7-7.9,3.6-11.9,5.3c-2.3-2.3-4.3-4.3-6.2-6.4
			c-0.8,0.7-0.8,1.4-0.1,2.1c4.4,4.2,7.6,9.6,12.5,13.2c0,2.9-0.2,5.8,0,8.6c0.2,2.6-1.9,4.9-0.7,8c-12.9,5.7-25.8,11.1-38.4,16.7
			c-1.3-1.3-2.6-2.7-4.2-4.2c-2.5,2.2-5.4,2.1-7.6,3.9c0,1.8,0,3.5,0,5.4c-11.9,5.1-23.6,10.1-35.8,15.3c-2-2.6-5.3-4.2-6.7-7.7
			c-0.1-0.3-0.4-0.5-0.7-0.7c-4.6-3.8-7.4-9.3-11.8-12.7c-1-3.5,1.2-6.3,0.9-9.4c-0.4-2.9-0.1-6-0.1-9.4
			C961.2,496.1,972.5,491.3,984,486.4z M941.8,473c3.5,0.4,6.2-2.5,9.6-3.1c0.8-0.1,1.8-0.9,1.7-1.8c-2-2-3.9-3.9-6.1-6.1
			c-2,0-4.6,0-7.3,0c-2.5,0-5,0.4-7.7-1.4C934.2,465.9,938.9,468.4,941.8,473z M1001.5,470c1.4-1.2,2.2-2.3,1.1-4
			c-1.5,0.1-3-0.4-4.6,0.4C999.2,467.7,1000.2,468.7,1001.5,470z"/>
		<path d="M1098.7,493.1c1.6,1.6,3.3,3.3,5,5c1.3,0.1,2-1.2,3.2-1.6c1-0.3,2.2-0.7,2.8-0.3c3.9,2.3,7.3-0.3,10.8-1.1
			c0.1,0,0.2-0.2,0.4-0.4c0.2-0.6,0.2-1.1-0.6-1.6c-1.5,0.5-3.1,1.3-4.5,2.4c-1.5-1.7-2.8-3.1-4-4.6c-0.5,0.5-0.8,0.8-1,1
			c-1.5,0-1.6-2.6-3.4-1.7c-0.8-4.1-1.9-7.8-1.1-12c3.5-1.9,7.1-4.1,11-5.3c3.7,3.7,7.2,7.3,10.6,10.8c-1.9,1.6-0.3,4-1,6
			c-2.1,1.1-2.1,1.1-3.8,3.9c1,0.7,2,1.5,3.3,2.5c2.6,0.2,4.5-3.1,7.8-3c6.4,4.9,10.6,11.9,16.4,17.1c1,1.1-0.5,2.7,1.9,3.2
			c-1.5,0.9-2.5,1.6-4.4,2.8c-0.2,0-0.6-1.4-1.5-2c-3.5,1.9-7,3.9-11,6c-1.6-1.6-3.5-3.4-5.3-5.3c-6.5,1.6-12,5.3-18.8,7.1
			c-1.2-0.9-2.4-2.9-4.9-2.9c-7.3,3.1-14.6,6.2-21.6,9.2c-3.6-3.6-6.7-6.7-9.9-10c-1.2-5.2,1.3-10.5,0.8-15.8c0.8-1.6,2.9-1.5,3.9-3
			c0.1-0.7,0.2-1.5,0.2-2.2c2.8-1.3,5.9-1.9,7.6-3.3c2.6-0.3,2.7,1.8,4.6,1.9C1094.4,495.7,1096.5,494.3,1098.7,493.1z"/>
		<path d="M1058.8,475.3c2.2-0.6,3.6-1.1,4.8-2.3c1-0.7,0-1.9,0.7-2.7c3.3-0.5,5.9-2.6,9.4-3.3c0.5,0.7,1.1,1.5,1.4,2.1
			c2.8-1,1.6-3.2,2.2-4.9c3.1-1.3,5.7-4.8,9.8-2.1c0.8,0.2,1-0.7,1.6-0.9c0.3,0.3,0.7,0.6,0.9,0.8c2.6-1.3,5.1-2.6,7.7-3.9
			c4.2,2.9,8.4,5.9,10.8,10.7c-1.7,1.3-0.4,3.3-1,5.1c-4.1,4.6-10.6,4.9-15.5,8.4c-0.5,2.4-1.9,4.7-1.2,7.6
			c-7.3,3-14.5,6.1-21.7,9.1c-3.3-3.3-6.8-6.8-10.5-10.5C1057.5,484.1,1060,479.9,1058.8,475.3z"/>
	</g>
</g>
</svg>
