<?xml version="1.0" encoding="utf-8"?>
<!-- Generator: Adobe Illustrator 17.1.0, SVG Export Plug-In . SVG Version: 6.00 Build 0)  -->
<!DOCTYPE svg PUBLIC "-//W3C//DTD SVG 1.1//EN" "http://www.w3.org/Graphics/SVG/1.1/DTD/svg11.dtd">
<svg version="1.1" id="Layer_1" xmlns="http://www.w3.org/2000/svg" xmlns:xlink="http://www.w3.org/1999/xlink" x="0px" y="0px"
	 viewBox="0 0 1440 937" enable-background="new 0 0 1440 937" xml:space="preserve">
<g>
	<g>
		<path d="M767,319.6c-6.5,2.6-12.7,5.1-19.1,7.7c0.5,2.3-0.5,4.3-1.7,6.1c-3.5,1.3-6.8,2.6-9.9,3.8c-2.7,3.2-0.1,7.5-2.9,10.8
			c-3-0.3-6.4,0.7-9.7-1c-0.5-0.3-1.3-0.1-2,0c-8.9,0.6-17.6-2.1-26.2-0.8c-0.7-1-1.6-1.3-1.6-2.4c0-6.2,0-12.3,0-18.5
			c1.5-2.2,0.8-4.7,1-6.7c0.5-1.1,1.5-0.2,2-1.7c-0.7-7.1,1.1-14.7,2.2-22.7c0.8-0.3,1.9-1.2,3.1-1.2c1.4,0,1.8-1,2.7-1.6
			c-0.9-0.9-1.8-0.3-3-0.7c0-3,0-6.1,0-9.2c0-3,0-6,0-9c2.4-2.5-0.4-6.2,2-8.6c-2-4.1-5.7-6.7-8.4-10.1c-3.3-4.1-7-7.8-10.7-11.6
			c-1.6-1.6-1.9-3.5-1.8-7c2.2-1.1,4.5-2.3,6.7-3.4c0-2.3,0-4.4,0-6.7c4.1-2.7,9-3.5,12.6-6.1c2.7,2.7,5.2,5.2,7.8,7.8
			c0.2-0.2,0.5-0.4,0.7-0.6c0,2,0,4,0,6.2c-0.8,1.1-2.9,2.1-1.4,4.6c4.5-1.9,9.5-2.8,13.5-5.5c-3.3-3.3-6.3-6.3-9.3-9.3
			c-0.5-3.4,1.4-5.8,1.6-8.1c3.1-2.9,7.2-2.9,10.4-5.2c0.8,0,1.8,0,2.9,0c0.9,0.9,1.8,1.9,2.8,2.9c0.5-0.3,1-0.6,1.6-1
			c2.8,0.9,2.2,4.4,4.5,5.9c0.9,0,2,0,3.2,0c0.4-0.2,0.4-0.4,0.1-0.7c-2.1-2.1-4.3-4.2-6.5-6.5c0-1.9,0-4.1,0-6.4
			c4.6-1.7,8.7-5.1,13.8-5.4c2.4,2.4,4.6,4.6,7.1,7.1c0,1.6,0,3.6,0,5.5c-1.3,1.6-3.2,2-4.9,2.9c1.9,2.2,3,4.9,5.3,6.5
			c4.6-1.8,9.2-3.5,13.9-5.3c-1.5-3.3-5-5.3-4.3-9.1c-1.7-1.7-3.3-3.3-5-5c0-1.7,0-3.3,0-4.9c1.3-1.7,3-2.9,5-3.5
			c3.1-1,5.9-2.6,9.2-3.2c3.1-0.6,6.1-2.1,8.5-3.8c2.7,2.7,5.3,5.3,8.2,8.2c0,1.2,0,3.2,0,5.2c-0.8,1.6-2.9,1.4-3.9,3
			c2,2.1,4,4.1,5.9,6.3c1.8,2.2,1.4,5.4,3.1,7.7c1.8,2.5,2,5.3,2,8.2c-0.1,3,0,6,0,8.9c-2.8,1.6-6.1,1.8-8.8,3.6
			c0,7.8,0,15.6,0,23.2c1.4,1.5,2.9,3.1,4.3,4.6c0.8,0.1,1.8-0.2,2.1,0.2c2.5,2.6,5.5,4.8,7.4,7.9c0.3,0.6,0.7,1.1,1.1,1.5
			c4.5,3.8,7.6,9.1,11.9,12.9c0,4.5,0,8.8,0,13.5c-10.2,5-21.2,8.2-31.6,13c-5.7-6.3-10.9-13.3-17.4-19.4c0-3,0-6.1,0-9.3
			c-4.9,0.5-13.5,4-16,6.5c3.6,5,6.5,7.5,9.2,8.2c3.2,1.7,4,5.5,6.8,7.4C767,310.8,767,315.2,767,319.6z M711.1,319
			c2.3,0,4.2-0.3,5.9,0.1c1.7,0.4,3.2,1.5,4.7,0.7c1.1-0.8,1.5-1.6,1.4-2.7c-0.1-0.9-0.3-2,0.4-3c4-3,9.3-3.8,13.7-6.3
			c-1.3-1.4-2.4-2.6-3.6-3.8c-0.6,1.8-1.6,3.6-3.3,3.9c-4,0.9-7.5,2.8-11.2,4.3c-2.7,1.1-6.3,1.3-7.9,4.4
			C711.1,317.4,711.1,318,711.1,319z M742.9,243.6c-2.2-4.8-7.3-7.1-9.5-11.9c-1.6,1.1-3.3,1.3-4.5,2.9c0.7,0.5,1.5,1.1,2,1.5
			c0,1.4,0,2.4,0,3.7c0.6,0.5,1.4,1.1,2.2,1.8c0,1.9,0,3.6,0,5.8C736.5,245.6,739.7,244.6,742.9,243.6z M721.9,284.7
			c0.2-2.4,0.3-5-0.1-8.2c-1.3,2.3-4.9,0.7-4.7,4c-2.1,2-0.5,4.3-1,6.4C718.5,287.2,720.1,286.4,721.9,284.7z M736,269.5
			c-0.3-0.5-0.7-0.5-1,0C735.3,270,735.7,270,736,269.5z"/>
	</g>
</g>
</svg>
