<?xml version="1.0" encoding="utf-8"?>
<!-- Generator: Adobe Illustrator 17.1.0, SVG Export Plug-In . SVG Version: 6.00 Build 0)  -->
<!DOCTYPE svg PUBLIC "-//W3C//DTD SVG 1.1//EN" "http://www.w3.org/Graphics/SVG/1.1/DTD/svg11.dtd">
<svg version="1.1" id="Layer_1" xmlns="http://www.w3.org/2000/svg" xmlns:xlink="http://www.w3.org/1999/xlink" x="0px" y="0px"
	 viewBox="0 0 1440 937" enable-background="new 0 0 1440 937" xml:space="preserve">
<g>
	<g>
		<path d="M266,382.3c-1-0.9-1.8-1.3-2-2.5c-0.5-3-2-5.6-4.3-7.7c-0.4-0.3-0.8-1-1.1-1c-2.8,0.4-3.5-1.7-4.6-4.2
			c-0.2-2.9,0.7-6.5-1.1-9.6c2.5-5.6,7.2-7.3,12.6-8.5c0.9,1.2,1.7,2.4,2.3,3.1c16.5-6.3,32.3-12.3,48.3-18.3
			c-0.1-1.4,0.4-3.3-0.4-4.2c-1.3-1.7,1.6-2.5,0.2-4c3.6-1.3,6.7-3.6,10.8-3.4c4,6.7,9.6,12.4,13.3,20.1c-0.9,3.5,1.8,7.3,0.9,11.6
			c-0.6,1.4-2.9,1-3.7,3c2.6,1.9,6.1,3.6,5.8,7.8c0.7,0.9,1.6,0.3,2.5,0.5c0.4,2.1,3.4,3,2.4,5.9c3.3,0.6,4,3.7,6.2,5.5
			c0,1,0,2.1,0,3.3c2.4,1,4.1,2.7,5.8,4.5c0.7,3.9,1.9,7.9,0.8,12.6c0,0-0.7,0.5-1.4,1.1c-0.6,0.1-1.1-0.2-1.4-0.6
			c-3.1,0.1-5.3,2.6-8.5,2.7c-1,1,0.1,2.4-0.6,3.6c-0.6,0.5-1.7,0-2.1,1.1c-0.2,0.2-0.4-0.1-0.7-0.2c-1.7-0.6-2.7-1.7-3.5-3.5
			c-1.7-3.7-4.3-6.8-7.4-9.4c-0.1-0.9-0.2-1.7-0.3-2.4c-1.4-0.5-2.5-1-3-2.7c-0.4-1.4-1.4-2.8-2.6-3.9c-0.9-0.9-1.8-0.5-2.7-0.7
			c-0.8,0.4-0.4,1.2-0.8,1.7c-2.4,0.7-4.3,2.6-7.4,2.6c1.7,2.3,2.6,4.5,4.5,6.2c0,2.3,0.1,4.6,0,6.9c-0.2,2.2,1.9,3.9,0.7,6.4
			c-0.8,0.3-1.9,0.7-3,1.3c-1,0.5-1.9,1.3-1.8,3c-1.7-0.6-3.1,1.6-4.4,0.8c-1.8-1.1-2.9,0.2-4.2,0.5c-1.4,0.3-2.8,1.3-4.2,1.9
			c-1.4,0.7-2.6,1.5-4.3,1.8c-1.4,0.2-2.8,1.3-4.1,2c-3.6-2.5-5.8-6.3-8.7-9.7c-0.8-2.5,1-5.6-1.1-8.2c-0.1-1.3,2-2,0.8-3.4
			c1.6-1.4,3.7-1.4,4.7-2.7c-0.8-0.9-1.6-1.8-2.8-3.1c0.1,0-0.6,0-1.2,0c-1.7-1-1.5-3.3-3.6-4.2c0.8-3.9-1.1-7.6-1.1-11.6
			c-1.1,0.1-1.5,1.1-2.1,1.6c-0.8,0.6-1.4,1.4-2.1,2.1c-1.1,0.2-2.3,0.4-3-0.7C273.8,378.9,270,380.5,266,382.3z"/>
		<path d="M385.5,283.8c1.3,2.9,2.8,4.4,5.2,5.5c0.8,1.1,1.3,2.8,2.1,4.3c0.6,1,0.9,1.9,2,2.4c1.7,0.7,3,1.7,3.1,3.9
			c0.1,1.7,2.5,2.1,2.3,4c2.6,0.4,3.3,2.7,4.7,5.1c0,1.3,0,3,0,5c1.3,0.1,2.4,0.1,3.6,0.2c0.3,2.6,2.8,3.7,4,5.8
			c2.1,3.6,5.1,6.6,7.6,9.9c1,1.4,2,2.8,1.8,4.8c-0.1,1.3,0,2.7,0,4c-2.2,1.1-4.3,2.5-6.7,2.7c-2.9,2-0.8,7.5-6.4,7.2
			c-1.4-0.5-1.9-2.8-3.2-4.3c-2.8-3.3-5.7-6.6-8.1-10.1c-1.9-2.8-3.2-6-3.7-9.6c-0.9-0.9-2.1-0.1-3.5-0.5c-1.3-1.3-3.1-2.6-4.2-4.4
			c-1.1-1.6-1.5-3.6-3.5-4.5c-2.2-1-1-4.1-3.5-5.1c-1.2,0.5-2.6,1.7-4.3,1c-1.2-0.4-1.6-2-3-2c-0.6,0.3-0.9,0.7-0.7,1.2
			c0.5,1,1.2,1.9,1,3.1c-1.5,1.2-3.2,1.6-5.1,1.8c-3.4,0.4-6.5,1.9-9.4,3.9c-0.4,0.3-0.6,0.8-0.5,1.6c1.6,0.7,2.9,0.2,4.6-0.5
			c4.5-1.7,9-3.1,13.6-5.2c3.9,3.1,5.8,7.7,8.7,11.6c0,3.7,0,7.3,0,11c-0.6,0.8-2,0.3-2.4,1.4c-2.2,0.3-4.6-0.6-6.6,1.1
			c-1.9-0.7-1.7,1.5-2.6,1.9c-2.7,1.4-5.4,2.9-8.4,2c-4.2,2.5-8.9,3.2-13.2,5.5c-1.2-2.5-3.1-4.2-3-7c0-1-1.2-2.2-2-3.1
			c-1.8-2-4.1-3.7-4.8-6.5c-0.3-1.3-2-0.7-2.6-1.8c-0.4-0.8-0.5-1.8-1.3-2.5c-1.3-1-1.7-2.6-2.2-4.1c-3.9-0.7-2.9-5.4-5.8-6.8
			c-0.2-2.7,0.4-5.3-1-7.8c-1-1.9,1.7-3.4,0.7-5.7c3.3,0.2,5.5-1.8,8.2-2.7c6-1.9,12.1-3.8,17.7-6.6c4.1-2,8.5-2.8,12.6-4.7
			c3.9-1.8,8.1-3,12-4.8c1.4-0.7,2.9-1,4.5-1.3C384.4,283.9,385.4,283.7,385.5,283.8z"/>
	</g>
</g>
</svg>
