<?xml version="1.0" encoding="utf-8"?>
<!-- Generator: Adobe Illustrator 17.1.0, SVG Export Plug-In . SVG Version: 6.00 Build 0)  -->
<!DOCTYPE svg PUBLIC "-//W3C//DTD SVG 1.1//EN" "http://www.w3.org/Graphics/SVG/1.1/DTD/svg11.dtd">
<svg version="1.1" id="Layer_1" xmlns="http://www.w3.org/2000/svg" xmlns:xlink="http://www.w3.org/1999/xlink" x="0px" y="0px"
	 viewBox="0 0 1440 937" enable-background="new 0 0 1440 937" xml:space="preserve">
<g>
	<g>
		<path d="M864.7,632.3c-3.6-4-7.5-7-10.6-11.3c-3.5,0-7.7,0.6-11.5-0.2c-3.8-0.9-7.4-0.6-11.1-0.8c-0.9,1.2-0.6,2.6-0.4,3.8
			c0.6,4-1.7,7.6-1,11.6c-3.5,2.1-7.7,2.3-11.3,4.9c-1.3-1.8-2.5-3.6-3.7-5.4c-0.3,0.3-0.7,0.5-1,0.8c0-6.6-0.5-13.3,0.2-19.9
			c0.4-3.7,0.1-7.5,1-11.1c1-4.2,0.6-8.4,0.9-12.8c5.2,0,10.5-0.5,15.5,0.2c3,0.5,6,0.6,8.9,0.8c1,0.4,0.1,1.7,1.2,1.8
			c0.8-0.7,0.1-1.7,0.5-2.4c4.1,0.2,8.1,1.8,12.3,1.5c1.8,3.4,4.8,5.9,6.6,10.4c0,0.4,0,1.9,0,3.2c1,0.8,1.8,0.4,2.2-0.3
			c1.1-1.8,2.2-3.4,4.6-3.2c1.5,0.1,1.6-1.6,2.8-1.8c0.2,0.2,0.5,0.5,1,0.9c0.2-0.6,0.4-1.2,0.7-1.9c1.7-0.6,3.9,0.6,5.5-1.1
			c0.2-0.2,0.8-0.2,1,0c1.9,1.5,3.8,1.1,5.7,0c1.6-0.9,3.7-0.7,5.2-2c0.3-0.3,1,0.2,1.3-0.6c0.1-0.6,0.1-1.4,0.2-2.5
			c1.9,0.4,3.5-0.7,5.1-0.7c1.1,0,1.6-1.6,2.9-0.6c0.9,0.7,1.7-1.1,2.9-0.6c1.3,0.6,2-0.9,3.1-1c1,0,2.3-0.4,3,0.1
			c2.4,1.6,5.1,0.5,7.6,1c5.3,16.2,3.4,13.5,2.2,20.6c-2.8,0.8-5.6,1.7-8.5,2.5c-3.9,1.1-7.3,3.2-11.2,4.3
			c-3.8,1.1-7.5,2.8-11.3,4.2C879.6,627.2,872.3,629.7,864.7,632.3z"/>
		<path d="M962.2,600.3c-3.5-6.7-6.9-12.9-10.2-19.2c-1.4-2.6-3.2-5.1-3.9-7.9c-0.7-3-0.2-6.3-0.2-9.4c0-1.5,0-3,0-4.3
			c0.8-0.7,1.3-1.7,2.5-1.5c2.3,0.4,4.7-0.5,7.2,0.9c1.5,0.8,3.9,0.2,5.8,0.2c1.1,2.3,2.2,4.5,3.5,7c5.9-0.4,11.6,2.2,17.9,0.6
			c0.1-0.1,0.5-0.6,1.3-1.4c0-3.7,0-7.8,0-11.9c0-0.4,0.7-0.7,1-1.1c3.6-1,6.9,0.5,10.7,1.1c0,5.6-0.1,11.4,0,17.2
			c0.1,5.7-2,11.3-0.8,17.2C985.5,591.5,974.5,596.7,962.2,600.3z"/>
		<path d="M861.1,544.9c2.6,0.5,5.1-0.6,7.7,1c1.2,0.7,3.3,0.2,4.9,0.1c6.6-0.6,13,1.7,19.5,1c1.6-0.2,2.5,1.3,3.8,1.5
			c2.7,3.6,3.5,8,5.7,11.7c0.5,0.8,0.5,1.7,0.2,2.4c-1.8,4.3-0.4,8.7-1.1,13.1c-4.8,1.5-9.7,3-14.6,4.5c-4,1.2-8,2.5-11.9,3.8
			c-3.9,1.4-7.9,2.6-11.9,3.8c-1.6,0.5-3.5,0.1-5.6,0.1c0-4.1-0.6-8.2,0.2-12c0.7-3.7,0.2-7.5,1-11.1c0.7-3.4,0.2-6.9,1-10.1
			C861,551.6,860.8,548.4,861.1,544.9z"/>
		<path d="M762.9,532.8c2.5,1.2,2.6,3.5,1.9,4.5c-1.1,1.6-0.9,3.2-0.8,4.7c0.2,2.1-1.4,3.6-1.2,5.6c0.2,1.7,0.5,3.5-0.9,5.1
			c-0.5,0.6-0.1,1.9-0.1,2.9c0,4.5-0.2,9,0.1,13.5c0.1,1.1-2,2.1-0.1,3.3c-0.4,0.5-0.9,0.9-1.5,1.5c-3,0-6.3,0.6-9.3-0.1
			c-5.4-1.2-10.8-0.2-16.1-1c-4.2-0.7-8.5-0.2-12.6-1c-3.1-0.6-6.1-0.7-9.6-0.9c0-6.9-0.6-13.9,0.2-20.7c0.7-6.6,1.5-13.2,3.1-20.1
			c3.5,0.3,7.4-1.2,11.1,0.8c0.4,0.2,1,0.1,1.5,0.1c7.9-0.6,15.7,1.6,23.6,1C756.2,531.8,759.7,534.1,762.9,532.8z"/>
		<path d="M938.3,573.9c2.8,0,4.8,1.6,5.7,2.6c3.3,8.1,3.1,15.5,2.9,23.1c-0.7,0.7-1.6,1.5-2.5,2.4c-2.4,0-4.9,0.1-6,3
			c-2,0.3-3.5-1.4-5.6-1c-1.8,0.3-3.5,1.9-5.3,1c-4.5-7.3-6-15.7-11.3-22.7c-3.1-1.2-3.7-4.4-4.2-7.4c-0.3-1.8,0-3.7,0.7-5.6
			c0.8-2.4,0.2-5.2,0.2-7.8c2.6-0.5,4.8-2.3,7.8-1c0.7,1,0.9,2.9,2.2,4.1c3.8-0.3,7.5-1.9,11.7-1.5C937.1,566,936.8,570,938.3,573.9
			z"/>
		<path d="M851.3,586.7c-5,1.1-8.7-1.9-13.1-0.4c0-1.8,0-3.3,0-4.5c-0.9-1.2-2.3-1-2.9-2.1c-0.5-0.8,0-1.6-0.4-2.6
			c-1.4-0.2-3-0.7-4.3,0.8c-0.7-0.7-1.4-1.3-2-1.9c-0.8,0-1.4,0-1.9,0c-2,0.8-1.2,4.1-4,4c-0.8,1.5-1.9,2.9-1.8,4.7
			c-0.7,0.6-1.6,0.2-2.4,0.3c-1-0.7,0-1.9-0.8-2.8c-1.7-0.6-3.8,0.5-5.5-1.1c-0.5-0.5-1.9-0.1-2.9,0.1c-3.6,0.9-3.5,0.5-7.8,0.1
			c-3-0.3-5.9-1.5-9-1.3c-6.7,0.4-13.3-1.6-20.1-0.9c-3.5-1.8-7.4-0.6-11.5-1.1c0-4.4-0.7-9,0.2-13.2c0.7-3.8,0.7-7.4,0.7-11.1
			c0-2,1.3-3.5,1.1-5.6c-0.1-1.8-0.4-3.7,0.8-5.7c0.7-1.2,0.1-3.2,0.1-5.1c2.9,0,5.7,0,8.4,0c1-1.5,3-1.9,2.9-4.2
			c1,2.2,2.8,3.5,4.3,5c3.7,0,7.3,0,11,0c1-0.7,0-1.9,0.9-2.9c3,0,6.1,0,9.1,0c1.3-3.3,4.5-3.7,7.2-5c1.5,0.2,0.5,2.6,2.4,3
			c1.3,0.2,2.3,1.2,1.8,2.9c3.6,0.1,6.9-0.5,10,1.7c0,1.1,0,2.5,0,3.9c0.9,0.5,1.1,1.6,2.1,1.4c5.9-0.7,11.7,1.1,17.6,1
			c4,0,8.1-0.5,12.2,1.4C855,559.1,852.4,572.9,851.3,586.7z"/>
		<path d="M763.5,617c-2.1-1.2-2-3.5-1.4-4.9c1.3-2.9,0.7-5.8,0.9-8.6c0.1-2,0-4,0-5.9c0.5-0.5,1-1,1.5-1.5
			c3.6,0.2,7.4-0.4,11.5,0.6c0.6-0.6-0.6-2.7,1.5-3.3c7.5-0.8,8-0.8,12.5,1.1c0.1,1.1,0.1,2.2,0.2,3.3c0.3,0.1,0.6,0.4,0.9,0.4
			c2.8,0,5.7,0.1,8.5,0c1.2-0.1,1.7,0.8,2.6,1.6c0,3,0,6.1,0,9.6c3.8-0.9,7,1.2,11,0.9c-0.3,3.4,0.8,6.8-1.6,10c-3-0.6-6.3,1-9.3-1
			c-0.1-0.1-0.3-0.1-0.5,0c-2.1,0.9-4,0.8-6.2,0.1c-2.1-0.6-4.6-0.3-6.9-0.1c-5.8,0.6-11.3-1.5-17.1-1
			C768.9,616.5,766.1,617.2,763.5,617z"/>
		<path d="M826.3,576c0.8,0,1.4,0,2.2,0c0.6,0.6,1.3,1.3,2,1.9c1.1-1.6,2.7-0.7,3.9-1c1.6,1.2,1.7,3.3,3.5,4.3c0,3.8,0,7.5,0,11.4
			c-2.7,1-5.2-0.2-7.9-0.6c-2.8-0.4-5.6-0.1-8.8-0.1c0-1.7-0.1-3.5-0.1-5.3c0-1.8,0-3.6,0-5.6C823.6,580.3,825,578.2,826.3,576z"/>
	</g>
</g>
</svg>
