<?xml version="1.0" encoding="utf-8"?>
<!-- Generator: Adobe Illustrator 17.1.0, SVG Export Plug-In . SVG Version: 6.00 Build 0)  -->
<!DOCTYPE svg PUBLIC "-//W3C//DTD SVG 1.1//EN" "http://www.w3.org/Graphics/SVG/1.1/DTD/svg11.dtd">
<svg version="1.1" id="Layer_1" xmlns="http://www.w3.org/2000/svg" xmlns:xlink="http://www.w3.org/1999/xlink" x="0px" y="0px"
	 viewBox="0 0 1440 937" enable-background="new 0 0 1440 937" xml:space="preserve">
<g>
	<g>
		<path d="M631.8,342.5c-1.4-2.3-3.3-1-4.8-1.8c0-1.4,0-2.9,0-4.4c-0.6-0.1-1.1-0.2-1.6-0.3c-0.9-1.1,0.4-3.5-3.3-3.8
			c0.1,0-1.2-0.5-1.7,1.4c-1.6-1.4-3.1-1.8-4.8-1.4c-0.7,1.4-1.4,3-3.6,3.3c0,1.4,0,2.9,0,4.2c-1.1,0.8-1.7,0.2-2.2-0.4
			c-3.6,1.6-7.3,0.3-11,0.9c-3.3-2.7-5.4-6.2-7.2-10.2c-2.9,1-5.7,2.7-8.9,2.1c-2.7,2.6-6.3,2.8-9.5,4c-4,1.6-8.3,2.6-12.4,3.9
			c-1.9,0.6-3.8,0.1-5.7,0.6c-4.7,1.3-9.4,2.9-14.6,2.6c-1.2-2.8-2.5-5.6-2.4-8.9c0.1-3.2-1.8-6.3-0.7-10c1.1-1.6,3.8-1.1,5.6-2.5
			c0.1-0.7,0.2-1.5,0.3-2.6c2.5,1,3.9-2.6,6.5-1.2c2-1.5,4.9-1.1,7.1-2.9c0.6,0.7,1.2,1.5,1.7,2.2c3.3-1.1,6.3-2.2,9.4-3.3
			c0.1-0.9,0.2-1.7,0.3-2.5c4.7-1,8.9-3.8,14.5-3.9c1.6,1.2,4.3,0.3,6.8,0.6c0.9,2.5,3.3,3.9,5,6c2.6,0,5.3-0.2,7.9,0.1
			c2.7,0.2,5.6-1,8.1,0.9c2.4-2,4.7,1.3,7.6-0.5c0,0,0.4-0.4,1.1-1.1c-1.1-3.7,1.3-7.2,0.9-11c3.1-2.8,7.4-2.9,11.3-4.7
			c1.4,1.8,2.7,3.5,4.7,6.1c0,3.8,0.3,9.2-0.1,14.4c-0.3,3.1-0.3,6.3-1.8,9.2c-0.2,0.4-0.1,1-0.1,1.5c0.5,3.8-1.8,7.3-1,11.1
			C633.2,340.9,632.2,341,631.8,342.5z"/>
		<path d="M471.4,370.2c-0.8,1.3-1.5,2.9-1.5,4.6c-3.7,1.1-7.1-0.6-10.8-1c0-1.6-0.2-3.2,0-4.8c0.6-4-1.6-7.6-1.1-11.6
			c0.5-3.3,0.9-6.5,1.8-9.7c0.4-1.7,0.2-3.5,0.3-5.4c3.4-2.5,7.4-3.2,10.9-4.3c1.4,0.3,0.6,1.7,1.4,2c7.5-1.9,14.3-5.9,22.1-7.2
			c2.1,2.8,3.2,6,4.2,8.9c1.2,3.2,2.7,6.2,4,9.3c2.1,4.9,3.6,9.8,3.3,15.1c-0.1,1.8,0,3.6,0,5.9c-2.3-0.6-4.4,0.8-6.6-1
			c-0.8-0.6-2.6-0.2-3.9-0.1C487.4,371.5,479.5,369,471.4,370.2z"/>
		<path d="M588.6,378c-2.7,0-5.6,0.6-8-0.1c-4.4-1.4-8.8-0.4-13.3-1c-0.7-0.7-0.3-1.7-0.3-2.7c0-1-0.9-1.3-1.4-2.1
			c-4.7,0-9.5,0-14.1,0c-0.5-0.5-0.9-0.9-1.6-1.6c0.8-5.2-2-10.5-0.7-16.3c0.1-0.1,0.4-0.7,0.8-0.8c2.9-0.6,5.6-1.8,8.5-2.3
			c1.3-0.2,2.4-0.8,3.6-1.1c7.7-2.3,15.5-4.2,23.1-6.7c1.6-0.5,3.5-0.3,5.2-0.3c0.8,0.9,1.6,1.4,1.6,2.6c-0.1,4.8,0.5,9.7-0.2,14.4
			c-0.7,4.4-0.9,9.1-2.6,13.3C588.6,374.8,589.6,376.6,588.6,378z"/>
		<path d="M725.6,392c-2.5,0-4.8,0-7.2,0c-0.9-1.7-0.6-3.4,0.8-5.2c-2-1.7-3.3-4-4.7-5.9c-1.6,0-1.8,1-2.6,1.5
			c0.3,0.4,0.6,0.7,0.9,1c-2.6,1.4-2.6,1.4-3.4,4.5c-0.3,0-0.7,0-1.3,0.1c-0.5-2.2-0.2-4.5-0.2-6.7c-0.1-2.1,0-4.2,0-6.8
			c-1.6,1.6-0.5,3.1-1.3,4.4c-3.8,0.3-7.5,0.4-11.2-1.7c-2.4,2.8-1.2,6.3-1.6,9.5c-4.9,1.6-9.6-1.2-14.6-0.6
			c-1.3-12.1,0.9-23.8,2.9-36c3,0.3,6.1-0.9,9.3,0.8c1,0.6,2.6,0.2,3.9,0.1c8.4-0.5,16.7,1.7,25.1,1c2.2,1.3,4.7,1,7,1
			c0.6,0.6,1,1,1.3,1.3C729.8,367.2,728.1,379.6,725.6,392z"/>
		<path d="M530.6,373.3c-0.3-0.2-0.7-1.1-0.9-2.3c-3.1-0.1-6,1.3-9.4,1.5c-1.1-1.5-1.9-3.7-2.2-5.8c-0.4-2.8-2.8-4.2-3.5-6.6
			c-2.8-0.8-2.6-3.1-2.6-5.3c0-2.9,0.5-5.9-1.9-8.2c0-4.5,0-8.9,0-13.3c2.1-0.6,4-1.1,5.6-1.6c1.6-1.1,1.2-3.4,3.3-3.7
			c1.3-0.1,0.8,1.1,1.1,1.7c0.4,0.5,0.8,1.1,1.3,1.7c2.4-1.9,4.8-1.4,7.6-1.2c2.4,5.9,3.6,12.2,4.2,18.8c1.4,0,2.9,0,4.4,0
			c3.3,7.9,3,15.7,1.2,23.8C536.4,373,534.2,374.9,530.6,373.3z"/>
		<path d="M625.3,386.2c-2.7-4.5-5.1-8.4-4.3-13.4c0.3-1.8-0.2-3.7,0.1-5.5c0.3-2.1-0.9-3.5-1.4-5.4c-1.2,0.9-0.3,2.1-0.8,2.9
			c-0.9,0.2-1-0.7-1.7-1c0-1.4,0-2.8,0-4.3c-0.2,0.2-0.5,0.3-0.7,0.5c-0.7-1.1-1.5-2.1-2.1-3c-1.3,0-1.6,1-2.4,1.5
			c0,1.3,0,2.8,0,4.2c-0.8,0.3-0.9-0.4-1.5-0.6c-2.3,5.3-2.6,10.9-2.3,16.8c-4.3,0-8.4,0-12.7,0c-0.3-0.3-0.8-0.8-1.1-1.1
			c-1.1-11.5,1.1-22.4,4-33.7c3.3,0,6.7-0.7,9.8,0.2c3.1,0.9,6.1,1,9.1,0.7c3.3-0.3,6.3,1.4,9.5,1.1c0.8-0.9,2.1-1.4,1.3-3.2
			c3.2,0.6,6.1-0.7,8.7,1c0.8-0.6,0.6-2,1.9-2.7c2.2,0,4.6,0,7.2,0c5.8,3.9,5.8,3.9,10.9,3.9c0.5,0.6,1.1,1.4,1.6,2
			c4,0,7.8-0.7,11.3,0.2c3.8,0.9,7.4,0.5,11.1,0.9c0.5,0.5,0.9,0.9,1.5,1.5c-0.5,2.1,0.6,4.4-0.7,6.6c-1.2,1.9,0.7,4.6-1.3,6.4
			c-0.4,6.9-1.5,13.7-1,20.6c0,0.4,0.5,0.8,1,1.5c-0.4,0.2-1,0.5-2.4,1.2c-2-0.4-5.2,1-8.4-0.8c-1.3-0.7-3.3-0.3-4.9-0.1
			c-5.9,0.7-11.7-1.7-17.7-1c-0.9,1.5-1.5,3-4.1,3C636.8,387.2,631.2,385.1,625.3,386.2z"/>
		<path d="M680.8,343c-4.8,0-9.3-0.2-13.7,0.1c-2.4,0.2-4.3-1.2-6.6-1.1c-2.2,0.1-4.6,0.7-6.4-0.1c-2.6-1.2-5.1-0.5-7.6-0.9
			c-1-0.7,0-1.9-0.7-2.7c-0.3-0.4-0.7-0.7-1.2-1.2c-2.6,0-5.4,0-7.8,0c-0.8-0.7-1.3-1.1-1.6-1.4c-0.7-1.7,0.7-2.6,0.9-3.8
			c0.2-1.1,0-2.3,0-3.2c1.1-2,3.4-2.2,4.4-1.5c1.8,1.3,3.5,0.5,5.4,0.9c0-1.9,0-3.7,0-5.3c0.7-0.8,1.3-1.3,1.9-1.9
			c3.1,2.1,6.4,0.7,10,1.2c0.2-1.8,1.6-2.9,3-4.2c2.2,0.5,4.8-0.9,6.9,1.1c3-0.4,3.6,1.5,3.5,4.1c4.1-0.5,7.9,0.3,11.8,1.3
			C683.7,330.7,682.1,336.8,680.8,343z"/>
		<path d="M626.8,346.3c-4.9-0.7-9.5-2-14.2-1.1c-1.1-3-1.9-5.7-1.5-8.8c0.7-1.9,4.3-1,3.9-4.2c1.9-0.6,3.5-0.3,5.1,0.8
			c1-0.4,1.8-1.3,3.2-1c2,0.7,1.7,3.4,3.5,4.2C626.8,339.5,626.8,342.8,626.8,346.3z"/>
	</g>
</g>
</svg>
