<?xml version="1.0" encoding="utf-8"?>
<!-- Generator: Adobe Illustrator 17.1.0, SVG Export Plug-In . SVG Version: 6.00 Build 0)  -->
<!DOCTYPE svg PUBLIC "-//W3C//DTD SVG 1.1//EN" "http://www.w3.org/Graphics/SVG/1.1/DTD/svg11.dtd">
<svg version="1.1" id="Layer_1" xmlns="http://www.w3.org/2000/svg" xmlns:xlink="http://www.w3.org/1999/xlink" x="0px" y="0px"
	 viewBox="0 0 1440 937" enable-background="new 0 0 1440 937" xml:space="preserve">
<g>
	<g>
		<path d="M1220.9,414.1c0,2.2,0,3.8,0,5.3c-1.7,2.4-4.5,3-6.7,3.3c-6.2,1-11.9,3.6-17.8,5.4c-7.1,2.2-14.2,4.2-21.2,6.7
			c-3.8,1.4-7.6,2.6-11.8,4.1c-7.5-8.7-13.6-18.9-21.6-27.7c0.6-2.4-1.1-5.2,1.1-7.1c-2.1-2.1-3.9-3.9-6.2-6.2
			c-3,0.3-6.3,2.3-10,3.1c-3.6-2.5-4.4-7.1-7.8-9.5c-0.3-3,0.1-5.9,1.4-8.5c0.8-0.1,1.6-0.2,2.2-0.2c0.4-0.4,0.2-0.5-0.1-0.8
			c-2.9-3.6-5.7-7.3-8.5-10.9c-2.4-3.2-4.6-6.5-7-9.6c-3.9-4.9-7.8-10-10.9-15.5c-0.8-1.4-2.1-1.9-2.6-3.1c-3,1-5.6,1.9-8.3,2.9
			c-2.4-3-4.2-6.6-7.2-9.3c0-2,0-4,0-6c0.6-0.6,1.3-1.1,1-2.1c6-2.9,12.8-3.6,19.2-6.5c3.2,2.5,4.7,6.5,7.7,9.7c0,1.3,0,2.7,0,4.2
			c0,1.4,0.3,2.8-1,4.2c4.2-0.5,7.6-3.3,11.6-2.9c2.5,3,4.1,6.4,6.9,9c2.2-0.7,4.4-1.5,6.5-2.2c3,1.6,3.5,5.3,6.3,6.8
			c2.1,1.3,3.9-0.9,5.9-0.7c1.3-2.1,4.5,0.4,5.7-3.2c0-1.2,0-3.3,0-5.6c3-1,5.5-2.8,8.6-3.6c2.8-0.7,5.9-0.9,8.3-2.6
			c2.8,0.4,4,2.7,5.1,4.6c5.3,9.1,12,17.2,17.5,26.2c3.2,5.2,7.3,9.8,10.2,15.3c0.4,0.8,0.3,1.6,0.5,2.5c1.6,0.5,3,1.6,3.9,3.1
			c5.1,8.5,11.2,16.3,16.7,24.6C1219.3,412.2,1219.4,413.7,1220.9,414.1z M1152.8,354.1c-4.9,2.1-9.8,3.3-14,6.3
			c0.5,1.7,0.3,3.3-0.9,4.5c2,3.2,0.7,6.5,1.1,9.5c-0.9,1-1.7,1.9-2.5,2.6c-5.6,1-5.6,1-8.3,2.9c4.5,0.7,8.2-1.9,12.6-3
			c-0.4,1.6,0.7,2.5,1.7,3.2c1.3,0.9,1.2,2.6,2.4,3.6c1.8,1.4,3.4,3.4,2.8,5.7c-0.6,2.1-0.3,4.4-1.7,6.1c1,2.3,2.5,4.1,4.8,5.8
			c2.7-0.9,5.7-1.9,8.6-2.9c1.1,0.6,2.4,1.1,3.1,2.7c0.7,1.5,2.5,2.3,2.7,3.9c1.5,0.5,1.8-1.2,3-0.9c0.9,0.2,1.8-0.1,2.8-0.5
			c3.7-1.4,7.6-2.4,11.5-3.6c0.2-0.1,0.2-0.5,0.4-0.8c-0.2-1.3-1.6-1.6-2.2-3.2c0-1.2,0-3,0-4.5c-1.3-0.7-1.7,0.3-2.3,0.7
			C1169.9,379.4,1161.4,366.8,1152.8,354.1z"/>
		<path d="M1078.5,326.3c-4.5-6.1-8.9-11.9-13.4-17.9c0-0.8,0-1.8,0-2.9c1.9-0.4,3-2.1,4.5-3.4c3.6-0.1,7.5,0.7,9.9-3.1
			c1.5,0.4,2.7,1.5,4.3,1.2c1.2,1.3,2.5,2.6,3.8,4c1-1.6,0-3.3,0.8-5.1c2.8-1.2,5.8-2.5,9.2-3.1c2.6,4.2,5.4,8.4,9.2,11.4
			c0.4,1.2-0.2,1.7-0.8,2.2c0,1.7,0,3.4,0,5.2c-1.8,1-4.1-0.4-5.6,0.7c-1.9,1.2-3.3,0.8-5,0.1c-0.9,3.7-4.9,2.7-7.4,4.2c0,1,0,2,0,3
			C1085.3,324.3,1081.9,324.5,1078.5,326.3z"/>
		<path d="M1143.1,287c2.3,0.9,2.6,3.5,4.3,5c1.6,1.4,1.9,3.7,3.9,4.8c-1.4,2.3-1.6,4.5-1.4,6.7c-2.9,3.1-7.1,2.1-10.6,3.4
			c-3.4,1.3-7.1,2-11,3.1c-2.4-2.4-3.4-6.2-6.5-8.4c0-2.7,0-5.4,0-8.5C1128.6,290,1136.2,289.6,1143.1,287z"/>
		<path d="M1256.5,453.2c2.2,0.5,3.3,2.1,4.3,4c1.8,3.3,3.9,6.4,6.1,9.8c-0.2,0.9-1.4,2-1.1,3.5c-2.5,1.9-6.7,1-8.2,5.1
			c-3.5,0.8-7,3.1-11.3,2.2c-1.4-2.3-2.9-4.8-4.3-7.2c-1-3.8,1.2-6.9,2-10.2C1245.6,454.9,1249.5,452.9,1256.5,453.2z"/>
		<path d="M1228.4,457c2.6,4,5.1,7.9,7.9,12.1c-1.8,1.1-1.3,3-1.3,4.7c-2.9,1.5-5.9,1.9-8.9,2.5c-0.7,1.1-1.5,2.3-2.2,3.4
			c-2.6,0.3-4.9,2-7.3,1.3c-2.4-3.2-4.6-6.2-6.6-10.5c0-0.9,0-2.8,0-5.2c3.2-1.9,7.1-2.1,10.8-3.6c0.6-0.8-0.4-2.2,1-3
			C1222.5,458.3,1226.7,457.1,1228.4,457z"/>
		<path d="M1123.5,433c-0.7,0-1.4,0-1.9,0c-2.5-1.4-2.9-4.4-5.2-5.9c-0.3,0.2-0.6,0.5-1,0.9c-0.7-0.8-1.5-1.7-2.4-2.7
			c0-1.4,0-3,0-4.7c0.3-0.7,1-0.5,1.5-0.6c1-1.1-0.1-2.6,1.1-4.3c3.1-1.1,6.7-2.3,10-3.5c1.1,1.1,2.1,2.1,2.4,2.4
			c4.7,1,5.4,1.7,6,5.1c0.9,0.9,1.9,1.9,2.8,2.8c0,2.6,0,5.3,0,8.2c-4.2,0.9-7.6,4.6-12.5,4.3C1124.2,434.4,1123.9,433.7,1123.5,433
			z"/>
		<path d="M1225.7,445.9c-2.5-1.3-3.7-4-5.2-6.2c-1.4-2-2.4-4.5-0.7-7.1c0.4-0.6,0.3-1.5,0.4-2.6c6-1.3,11.8-3.9,18.1-4.2
			c2,3,3.9,5.9,5.9,9c-1.8,1.5-1,3.7-1.3,6.3C1237.3,442.7,1231.5,444.3,1225.7,445.9z"/>
	</g>
</g>
</svg>
