<?xml version="1.0" encoding="utf-8"?>
<!-- Generator: Adobe Illustrator 17.1.0, SVG Export Plug-In . SVG Version: 6.00 Build 0)  -->
<!DOCTYPE svg PUBLIC "-//W3C//DTD SVG 1.1//EN" "http://www.w3.org/Graphics/SVG/1.1/DTD/svg11.dtd">
<svg version="1.1" id="Layer_1" xmlns="http://www.w3.org/2000/svg" xmlns:xlink="http://www.w3.org/1999/xlink" x="0px" y="0px"
	 viewBox="0 0 1440 937" enable-background="new 0 0 1440 937" xml:space="preserve">
<g>
	<g>
		<path d="M853.2,848.3c-0.8-0.8-1.4-1.4-2.2-2.2c-1.1,0.7-2.9,0.8-3.9,2.6c-0.1,0.5-0.1,1.3-0.2,2.1c-1.1,0.8-2.8-0.3-3.5,1.3
			c-5.2,0.6-9.9,2.5-14.8,4c-5.6,1.7-11.3,3.3-16.9,5c-4.3,1.3-8.6,2.6-13.3,4c-10.2-16.9-19.9-34.4-30.3-51.7c0-1.5,0-3.1,0-5.1
			c14.3-5,28.7-10.1,43.1-15.2c0.7-0.3,1.6,0,2.7,0c1.2,1.9,2.5,3.9,4,6.3c4.2-1.8,8.6-3.6,13-5.5c1.2-3-2.5-3.8-2.6-6.2
			c0-2.8,0-5.6,0-8.6c5.4-2.1,10.7-4,16.1-5.2c2.2,3.8,4.2,7.1,6.3,10.7c3-2.2,7.1-1.5,9.5-5c0-1.1,0-2.6,0-3.8
			c16.6-5.7,32.9-11.3,48.9-16.7c2.3,0.9,1.9,3.4,4,4.3c1.2-1.5,3.9-0.5,5.2-3c-2.5-3.2-2.5-7-1.9-11.3c5.3-1.7,10.5-4.1,16.4-5
			c3,6.3,8.4,11,11.5,17.6c-1.6,2-1,4.7-1.1,7c-5.1,2.4-10.3,3.8-15.8,5.3c-2.3-1.3-2.5-4.6-4.5-6.5c-2.4-0.9-4.3,1.2-6.7,1
			c0.2,2.6,2.2,4.2,2.6,6.7c-1.6,1.8,0,4.4-1,6.9c-3.2,1.6-7.3,2.4-10.6,4.5c0,2.5,0,4.8,0,7.1c-0.6,0.9-1.6,0.3-2.2,0.6
			c-0.7,0.3-1.3,1-2.1,1.7c2.5,3.1,4,6.7,5.7,10.3c3,0.3,5.7-1.3,9.5-2c0,0,0.7,0.8,0.9,1.4c1.7,4.2,3.7,8.2,6.2,11.9
			c2.1,3,1.9,6,1.9,9.2c-4.6,1.9-9.5,2.8-14.2,4.4c-5.7,2-11.6,3.3-17.4,5.1c-4.9,1.5-9.6,3.4-14.6,4.5c-6.7,1.5-13,4.1-19.7,5.5
			c-1.3,0.3-2.9,0.5-3.9,1.3C855.9,848.5,854.6,847.6,853.2,848.3z M823,830.9c2.2,0.1,4-0.1,5.9-0.7c2.8-0.9,5.6-2.2,8.6-2.1
			c2.6,0,4.9-0.9,7.2-2c2.4-1.1,4.9-2.3,7.3-2.9c4-0.9,7.8-2.3,11.7-3.2c5.7-1.4,11.3-3.3,16.9-4.9c2.2-0.6,4.4-1.5,6.6-2.1
			c4.6-1.3,9.4-2.1,13.8-4.3c-1.8-1-2.1-3.2-3.5-4.5c-1.5-1.4-3.4-2.6-3.9-5c-1.1,0-2.3,0.1-3.4,0c-1.2-0.2-1.7,1.9-3,0.8
			c-0.9-2.3-1.9-4.7-4.5-6c-4.8,1.8-9.5,3.5-14.2,5.3c-2.3-3.7-4.5-7.3-6.7-11c-3-0.2-5.6,0.6-7.7,2.3c1.6,2.4,0.6,4.9,1,7.5
			c-5,3.6-11.1,4.2-15.3,6c-3-0.2-2.3-2.2-3.7-2.9c-4.8,1.2-9.5,3.2-14.2,5.2c2.2,3.7,2.2,3.7,1.7,7.8c-2.1,2.1-5.2,1.9-7.9,3.7
			C817.5,822.4,821,826.3,823,830.9z"/>
		<path d="M968.9,776.9c-2.9-0.8-1.3-3.2-2.1-4.7c-0.8-1.5-2-2.9-1.8-4.8c-4.1-1.4-4.8-5.7-7.3-8.3c-1.5-0.7-2.2,1.5-4.4,0.5
			c-2.3-2.5-5.3-5.5-5.3-10.3c9.6-3.4,19-6.7,28.7-10.1c1.9,1.5,3.5,3.5,4.5,6.1c0.6,1.5,1.5,3.1,3,4.3c2.2,1.7,2.8,4.3,2.8,6.8
			c0,1.8,0.2,3.7,1.2,5c2,2.5,2.1,5.3,1.8,8.4C983,772.2,976,774.5,968.9,776.9z"/>
		<path d="M988.7,816.2c-1.3-1.4-2.4-2.5-3.1-4c-2.3-4.6-4.9-9-7.4-13.5c-2-3.5-1.8-6.9,0.8-10.4c4.9-0.8,9.7-2.7,15-4
			c3.5,6,7.4,12.4,10.9,19.5c0,2,0,4.4,0,7C999.8,813.7,993.9,814.1,988.7,816.2z"/>
		<path d="M737.7,893.9c-6.2,1.7-12.7,3.5-19,5.3c-1.6-2.7-2.8-5.3-3.5-8.2c-1.6,0-2.7,0-3.6,0c-2.8-2.3-2.2-6.1-4.5-8.5
			c0-2.7,0-5.5,0-8.2c4.1-1.1,8.2-2.1,12.3-3.2c2.2,2.1,1.9,5.7,4.1,7.9c3.6-0.1,6.5-3,10.2-1.9c1.2,2.8,2.9,5.5,3.4,8.6
			C737.4,888.4,738.7,890.9,737.7,893.9z"/>
		<path d="M704.8,861.2c-1.7-3.1-3.6-7-2.7-11.8c5-2.6,10.8-3.1,16.3-5.5c2.5,3.3,3,7.8,5.8,11c1.6,0.9,2.5-1.9,4.3-0.6
			c0.6,1.3,1.4,2.8,2.4,4.6c0,2,0,4.5,0,7.4c-5.8,1.6-11.4,3.8-17.4,5c-1.7-3.4-3.3-6.7-5-10C707.2,860.2,706.9,862.9,704.8,861.2z"
			/>
		<path d="M774,778.5c0.9-0.9,1.9-1.9,3-3c0-1.3,0-2.7,0-4.2c5.4-1,10.2-4,15.5-4.4c2.9,3.7,4.7,7.4,6.5,11.3
			c-0.3,0.4-0.7,0.9-1.1,1.4c1.6,2.9,0.8,6,1,8.8c-1.7,2.6-4.1,1.2-6.1,1.6c-2.2-2-4.4-0.3-6.7-0.1c-2.1,0.2-3.6,1.9-6.3,1.1
			c-0.1-0.3-0.7-1.4-1.1-2.5C775,786.2,773.8,782.7,774,778.5z"/>
		<path d="M780.1,877.9c-4.7,1.8-9.6,2.8-14.6,4.3c-2.3-4.7-4.5-9.5-7-14c-0.5-1-0.5-1.8-0.6-2.8c-0.1-2,0-4,0-6.2
			c3.9-2.7,9-2.2,13-4.3c2.1,0.5,2.3,2.5,3,3.7c2,4,3.6,8.2,5.5,12.2C780.5,873.1,779.6,875.4,780.1,877.9z"/>
	</g>
</g>
</svg>
