<?xml version="1.0" encoding="utf-8"?>
<!-- Generator: Adobe Illustrator 17.1.0, SVG Export Plug-In . SVG Version: 6.00 Build 0)  -->
<!DOCTYPE svg PUBLIC "-//W3C//DTD SVG 1.1//EN" "http://www.w3.org/Graphics/SVG/1.1/DTD/svg11.dtd">
<svg version="1.1" id="Layer_1" xmlns="http://www.w3.org/2000/svg" xmlns:xlink="http://www.w3.org/1999/xlink" x="0px" y="0px"
	 viewBox="0 0 1440 937" enable-background="new 0 0 1440 937" xml:space="preserve">
<g>
	<g>
		<path d="M1109.9,726.7c-4.5,2-9,3-13.4,4.4c-6.9,2.2-13.9,4.1-20.8,6.6c-2.6,0.9-5.3,1.6-8,2.3c-2,0.5-3.4,1.2-4.2,3
			c-0.7,1.8-2.3,0.9-3.5,1.3c-5.7,2-11.4,3.9-17.1,5.7c-0.8,0.2-1.7,0-2.3,0c-2.5-1.4-2.9-4.4-5.1-5.8c-3.4-0.7-6.7,0.3-9.9,1.2
			c-0.7-0.8-1.1-1.5-1.6-1.7c-1.7-0.8-4.1-1-4.7-2.9c-0.5-1.8-1.9-3-2.8-4.3c-2.8-4.2-5.4-8.5-8.4-12.5c-1.6-2.2-2.5-4.4-2.3-7.1
			c0.1-2.1,0-4.3,0-6.3c1.1-1.5,3-1.8,3.7-3.6c0.4-0.9,1.9-1.5,3.1-1.9c11.3-3.7,22.6-7.4,33.9-11c3.4-1.1,6.8-2.2,10.1-3.4
			c0.6-0.2,1-0.6,1.7-0.6c1.4,0,2.7,2,4,0.9c1.4-1.2,2.8-0.9,4.2-0.8c2.5,0.2,4.6-1.5,7.1-1.1c2.3,0.3,4.8,0.6,6.9-0.1
			c1.9-0.6,3.7-0.8,5.6-0.8c1.8,0,3.6,0,5.4,0c0.1,0.7,0.2,1.1,0.4,1.8c3.7,0,7.5,0,11.2,0c1.8,2.5,1.8,5.4,2.6,8.1
			c2,6.4,2.7,13.1,4.7,19.5c0.7,2.1,1.1,4.8-0.6,7C1109.8,724.9,1110,725.7,1109.9,726.7z"/>
		<path d="M1129,655c1.3,4.5,4.7,7.6,6.1,12.1c2.8-0.3,5.6,0.6,8-1.1c2.1,0.7,1.4,2.7,2,4c0.8,1.7,0.4,3.5,1.3,5
			c1,1.6,0.3,3.1,0.5,4.7c-3.8,1.1-7.6,1.8-11.6,1.3c-0.8-0.6,0.1-2.5-1.9-2.7c-3.2,0.4-6.9-1.4-10.2,0.8c-0.1,0.1-0.3,0-0.5,0
			c-5.4-0.7-10.7,1.2-16,1.1c-2-2.1-1.8-5-2.6-7.4c-0.8-2.5-1-5.2-2.1-7.6c1.8-2.3,0.7-5,1.1-7.6c3.4-1.8,7.2-1.7,10.9-1.4
			c2.6,0.3,4.6-1.3,7.1-1.1C1123.5,655.2,1126,655,1129,655z"/>
		<path d="M1143,749.4c0.5-0.5,0.9-0.9,1.4-1.4c0.6,0,1.3,0,2.1,0c0.7-1.7,0.8-3.6,2.2-5.4c2.2-1.1,4.6-2.4,7.5-3.9
			c2.1,2.8,5.3,4.3,7.7,6.7c-0.1,1.5-1.7,2.4-0.8,4.2c2.1,0,3.9,1.9,6.3,1.3c1.6,2.3-0.6,4.1-0.5,6.1c0.1,2.2,0,4.3,0,6.4
			c-0.5,0.5-1,1-1.4,1.4c-1.1,0-2.4,0.4-2.9-0.9c-2.5,0-4.8,0-7.2,0c-1,1.4,0,3.2-0.7,4.8c-4.8-0.6-9.6-1.3-14.4-1.9
			C1140.9,761,1143.3,755.3,1143,749.4z"/>
		<path d="M1079.5,789.4c-3.1-5.2-5.7-9.6-8.4-14c1.9-1.6,0.3-4,1.1-6.3c2.6-0.1,5-1.8,7.2-2.2c1.9,0.2,2.2,1.7,3.5,2.1
			c1-0.5,2.2-0.9,3.1-1.7c0.9-0.8,1.4-2.1,2-3c2.6-0.4,4.9-1.9,7.7-1.2c3.5,3.8,5.1,8.8,8.5,13.1c-1.5,1.9-1.3,4.2-1.3,6.4
			C1095.1,784.9,1087.4,787.1,1079.5,789.4z"/>
	</g>
</g>
</svg>
