<?xml version="1.0" encoding="utf-8"?>
<!-- Generator: Adobe Illustrator 17.1.0, SVG Export Plug-In . SVG Version: 6.00 Build 0)  -->
<!DOCTYPE svg PUBLIC "-//W3C//DTD SVG 1.1//EN" "http://www.w3.org/Graphics/SVG/1.1/DTD/svg11.dtd">
<svg version="1.1" id="Layer_1" xmlns="http://www.w3.org/2000/svg" xmlns:xlink="http://www.w3.org/1999/xlink" x="0px" y="0px"
	 viewBox="0 0 1440 937" enable-background="new 0 0 1440 937" xml:space="preserve">
<g>
	<g>
		<path d="M1040.6,221.8c1.6,4,4.3,6.5,6.3,9.5c3.6,5.5,7.5,10.9,11.2,16.3c0.7,1,1.4,2.1,1.8,3.2c0.2,0.7,0.5,1.4,1,1.5
			c3.8,1.4,4.7,5.4,6.8,8.2c1.5,2,4.2,3.6,4.2,6.6c0.3,1.5-1.2,2.2-1.2,3.6c-1.6,0-3,0.7-4.6,1.5c-0.2,1.1,0,2.5-0.6,3.5
			c-0.8,1.1-0.4,2.2-0.6,3.4c-1.4,3.3-5.1,3.1-7.7,4.8c-4.2-0.2-7.8,2.1-11.7,3.2c-2.9,0.9-6.3,0.6-8.8,3.3c-2-2.7-3.7-5.1-5.6-7.5
			c-1.3-0.5-2.2,0.7-3.7,1.1c-3.9-4-6.7-9.1-10.5-13.5c-0.4-2-0.3-4,0.9-5.6c-2.6-3.4-5.1-6.5-7.3-9.8c-0.9-1.4-1.4-3.1-1.7-4.8
			c-1.1-5.7-2.4-11.3-3.9-16.8c-0.3-1-1.2-1.5-1.1-2.5c1.7-2,0.7-4.4,1.1-6.5c5.9-1.8,12.1-0.6,17.8-1.7
			C1028.8,221.5,1034.7,222.8,1040.6,221.8z"/>
		<path d="M985,227.6c-5.9,2-11.6,1.3-17.5,1.4c-0.6-1.2-1.1-2.4-1.8-3.8c-0.9-0.6-2-0.1-3.4-0.3c-0.3-2.5-2.1-4.8-1.1-7.7
			c0.6-1,1.9-1.1,2.8-1.8c-0.2-0.2-0.4-0.5-0.7-0.7c1.4-2.7,0.3-5.6,0.8-8.5c1.3-0.8,2.8,0.1,4.7-0.6c0.4-0.3,1.3-1,1.3-2.3
			c4.3-1.9,8.9-1.2,13.4-1.4c1.2,1.2-0.3,3,1.1,4.1c0.8,0.6,0.3,1.5,0.4,2.3c0.3,2.1-1.9,4-0.9,6c1,2.2,0.9,4.4,0.9,6.6
			C985,223.2,985,225.3,985,227.6z"/>
		<path d="M1113.9,242.4c0,2.3,0,4.3,0,6.7c-4.9,1.8-9.9,3.3-15,4.2c-2.3-2-3.6-4.3-5-6.6c-1.3-2.2-3.2-4-4.8-6.1c0-2,0-4.2,0-6.3
			c4.2-3.4,9.7-3.3,14.5-5.1c4.1,3.9,4.2,4.1,4.4,8.3c0.7,1,1.9,0.1,2.7,0.7c0.6,0.7,1.4,1.2,1.5,2.4
			C1112.3,241.2,1113.3,241.8,1113.9,242.4z"/>
		<path d="M1061.7,194.8c2.4,0.4,4.3-0.6,5.8,1.1c1.2-0.8,1.8-1.8,1.5-3.7c2.8,0.3,3.2-3.9,6.5-3.2c1.4,1.5,2.8,3,4.5,4.8
			c0,1.2,0,2.8,0,4.1c0.9,2.8,3.1,1.7,4.9,2.2c0.5,4.2,0.1,8.3-1.2,12.6c-0.9,0.5-1.8,0.6-2.9-0.4c-1.1-1-2.5-0.3-3.8-0.3
			c-3.4-0.1-6.8,0.2-9.9-1.4c-0.1-0.5-0.2-0.9-0.3-1.5c-1.5,0-2.9,0-4.2,0c-0.5-0.5-0.9-0.9-1.4-1.4
			C1060,203.6,1063.1,199.7,1061.7,194.8z"/>
	</g>
</g>
</svg>
