<?xml version="1.0" encoding="utf-8"?>
<!-- Generator: Adobe Illustrator 17.1.0, SVG Export Plug-In . SVG Version: 6.00 Build 0)  -->
<!DOCTYPE svg PUBLIC "-//W3C//DTD SVG 1.1//EN" "http://www.w3.org/Graphics/SVG/1.1/DTD/svg11.dtd">
<svg version="1.1" id="Layer_1" xmlns="http://www.w3.org/2000/svg" xmlns:xlink="http://www.w3.org/1999/xlink" x="0px" y="0px"
	 viewBox="0 0 1440 937" enable-background="new 0 0 1440 937" xml:space="preserve">
<g>
	<g>
		<path d="M684,781.2c0,1.3,0,2.3,0,3.3c-0.7,0.8-2,0.3-2.5,1.5c-1.8,0-3.8-0.5-5.4,0.1c-4,1.4-8.3,1.5-12.9,2.5
			c-3.6-4.1-8.6-7.6-11.9-12.7c-1-1.5-2.5-2.7-3.8-3.9c-5.4-5.1-9.7-11.2-14.1-17.2c-3.6-4.9-7.2-9.6-10.6-14.6
			c-3.4-5-7.1-9.7-10.6-14.6c-3.4-4.6-6.5-9.3-10-14.5c0-3.8,0-8.3,0-13c5-1.1,10-2.1,15.1-3.2c2.4,1.3,3.2,4,5.1,5.7
			c8,7.4,14.6,16.2,22.6,23.7c0.2,0.2,0.5,0.4,0.8,0.4c13.7,7.5,28.1,13.4,41.4,21.5c3.1-1.3,5.9-2.7,8.8-3.8
			c4.6-1.8,8.8-4.5,13.4-6.2c6.8-2.5,13.1-6.2,20-8.4c2-0.6,3.8-2.1,5.8-2.9c5.3-2.1,10.9-3.3,16.4-5.1c5.3-1.7,10.9-2.5,16-4.9
			c1.2-0.6,3,0.5,4-1.1c0.4,0.4,0.7,0.7,1.1,1.1c0.2,0.2,0.4,0.5,0.4,0.8c1.2,8.4,4.2,16.6,2.7,26c-0.5,0.3-1.6,1-2.7,1.7
			c-5.3,2.2-11.2,3.7-16.7,6.2c0,2.7,0,5.2,0,7.3c-1,1.5-2.5,1-3.6,1.6c-7.7,3.8-15.7,7.2-23.5,10.7c-2.8,1.3-5.9,2.1-8.5,3.7
			c-1.9,1.2-3.7,1.2-5.5,0.5c-1.3-0.5-2.1-0.3-3.5,0.1c-5.2,1.7-10.5,2.9-15.7,4.3C692.1,779.1,688.3,780.7,684,781.2z"/>
		<path d="M792.5,739c-1.7-4.1-0.8-8.3-2.5-12c0.7-3.3-1.7-6.3-0.9-9.6c0.4-1.8-1.3-2.9-1.1-4.6c0.1-1.3,0.8-3-0.7-4.2
			c-0.3-0.2-0.3-0.9-0.2-1.4c0.2-5.8-2.4-11.3-2-17.2c-1.3-1.9-0.5-4.2-1.1-6c-0.7-1.9-0.5-3.8-0.9-5.6c-1-4.4-1.5-8.8-1.9-13.2
			c-2.1-2.4-0.3-5.6-1.8-8.3c-0.9-1.5-0.2-3.8-0.2-5.8c-5.7-0.8-11.2-1-16.7-1.5c-4.9-0.5-9.9,0-14.6-1c-4.4-0.9-8.8-0.1-13.1-0.9
			c-5-1-10.2-0.1-15.1-1.1c-4.3-0.8-8.6,0.1-12.6-0.9c-4.9-1.2-9.7-0.5-14.6-0.9c-0.5-0.5-0.9-0.9-1.4-1.4c0-4,0.2-8-0.1-12
			c-0.2-1.9,1.6-3.1,1.2-5.1c-0.3-1.6-0.1-3.3-0.1-4.9c0.7-0.6,1.2-1.2,1.1-2.1c0.3-0.5,0.9-0.4,1.3-0.4c2.3-0.2,4.2,1.5,6.6,1.1
			c2.3-0.4,4.8-0.6,7,0c5,1.4,10.2,0.1,15.1,1.1c4.4,0.9,8.9,0.1,13.1,1c4.7,1,9.5,0.2,14.1,1c5,0.9,10.2,0.2,15.1,1.1
			c4.4,0.8,8.8,0.1,13.1,0.9c4.7,0.9,9.4,0.9,14.1,0.8c1.5,0,2.4,2,4.3,0.7c0.5,5.4,2.4,10.2,2.3,15.4c1.5,1.8,0.4,4.2,1.1,6
			c0.8,1.9,0.5,3.8,0.9,5.6c1,4.3,1.2,8.8,2.1,13.1c0.4,2.1,0.3,4.2,1,6.1c0.8,2.1,0.3,4.3,1,6.1c1,2.2,0,4.8,1.1,6.5
			c1.3,2.2,0.1,4.3,0.9,6.2c1.9,4.6,1.5,9.6,2.8,14.3c0.6,2.3,1.2,5.2-0.8,7.5c-0.9,1.1,1.8,1.5,0.3,2.9c-0.6,0.6-0.3,2.2-0.3,3.3
			c0,6,0,12,0,18.4c-2.9-0.8-5.3,1-8,1C798.2,738.9,795.3,739,792.5,739z"/>
		<path d="M693.5,838.9c-3.1-5.1-6.2-10.2-9.3-15.2c-1.4-2.3-2.8-4.5-4.2-6.7c-1.5-2.3-2.2-4.8-2-7.7c0.2-2.6,0-5.3,0-7.9
			c2.3-0.9,4.3-2.3,6.1-3.6c3.6-2.5,7.6-3.5,11.5-4.8c5.4-1.9,10.9-3.4,16.2-5.5c1.4-0.5,2.5-0.3,3.7-0.5c0.2,0.3,0.3,0.6,0.5,0.8
			c2.9,3.2,3.1,7.1,3,11.2c-0.2,9.8-0.1,19.6-0.1,29.4c-2.2,2.2-5.1,3.4-7.7,4.3c-4.7,1.5-9.1,3.7-13.8,5.4
			C696,838.7,694.8,838.9,693.5,838.9z"/>
		<path d="M679.7,640c1.3,3-0.8,5.3-0.7,7.9c0.1,2.5,1,4.5,1.8,6.5c-0.4,2.4-2.8,3.4-3,5.7c-1,0-1.6,0-2.6,0c0,2.3,0,4.5,0,7.3
			c-2.8-1.3-5.3-2.1-7.5-3.4c-1.9-1.2-3.3-1.1-5.3,0c-2,1.1-4.2,1.9-6.4,3.5c0.5,2.8-0.3,5.6-1.3,8.4c-4.4,1.3-8.8-0.8-13.2-0.8
			c-0.5-0.3-0.4-0.8-0.5-1.3c0-0.5,0.2-1-0.3-1.4c-5.4-0.6-10.9-1.4-16.4-1.3c-2.9,0-5.9-1.3-9.1-0.7c-0.1,0.9-0.2,1.6-0.3,2.8
			c-3.5-0.5-6.9,2.1-10.3,0.9c-3.4-1.1-6.7-0.7-10.1-0.9c-0.5-0.5-1-1-1.3-1.3c-0.9-3,1-5.5,0.7-8.2c-0.2-2.8,2.4-5.2,0.8-8.1
			c-0.2-0.5-0.7-0.4-1.5-0.4c-0.5-2.3-0.4-4.8-0.1-7.2c0.2-2.2,1.3-4.2,0.9-6.4c1.3-0.8,3.1,0.2,4-2.5c1-5.9,2.2-12.7,3.3-19.6
			c0.6-0.3,0.8-1.3,1.8-1.3c1.6,0,3.1,0.2,4.7-0.9c0.6-0.4,2.1-0.3,3.3,0.3c3.3,1.7,7.1,2.1,10.5,3.5c1.1,0.5,2.6,0.1,4.1,0.1
			c1.3,5-0.5,9.8-0.9,15.3c3.3-1.1,5.7,0.9,8.5,0.7c2.8-0.1,5.8-0.6,8.5,0.1c5,1.2,10.2,0.1,15.1,1c4.9,0.9,9.8,0.2,14.6,1
			C674.1,639.6,676.8,639.9,679.7,640z"/>
		<path d="M652.2,698.7c-0.8-0.8-1.4-1.3-2.1-2.1c0-1.8,0-3.8,0-6.1c0.9-0.9,1.6-2.4,3.4-2.6c1.9-4.8,1.6-9.9,1.4-14.9
			c-0.1-2.4,1.9-4.2,0.9-6.7c2.3-0.3,3.8-1.8,5.7-2.5c2-0.7,4-1,6.2-0.8c1.8,2.7,5.7,2.7,8.3,5.8c0.7,0,2.2,0,3.5,0
			c1.8,3.3-1.2,6-0.3,9.1c-1.5,0-2.7,0-3.7,0c-1.1,1.6,0.3,3.5-0.9,4.9c-1.1,1.4-0.5,2.8-0.6,4.3c-0.1,1.7,0,3.3,0,5
			c0,1.5,0,3,0,4.4c-0.5,0.5-1,1-1.5,1.5c-2.6,0-5.3,0-8.3,0c0,2.6,0,5.1,0,7.6c-4.1,3-8,0.3-12,0.2
			C652.2,703.4,652.2,701,652.2,698.7z"/>
		<path d="M757,681.9c1.9,0.3,3.1,1.5,4.9,1.1c0,2.9,0,5.7,0,8.7c-1.3,0.6-2.9,0.2-4.3,0.2c-0.6-0.6-1.1-1-1.4-1.3
			c-0.9-1.8,1.1-2.7,0.9-4.2C756.9,685,757,683.6,757,681.9z"/>
		<path d="M591,683.1c0,2.1,0,4.7,0,7.4c-0.5,0.5-1,1-1.5,1.5c-1.6,0-3.3,0-4.9,0c-2.4-2.7-1.4-6-1.7-9.6c0.7-0.5,1.7-1.2,3.2-2.3
			c0,0,1,0,2.5,0C589.2,680.8,590,681.8,591,683.1z"/>
	</g>
</g>
</svg>
