<?xml version="1.0" encoding="utf-8"?>
<!-- Generator: Adobe Illustrator 17.1.0, SVG Export Plug-In . SVG Version: 6.00 Build 0)  -->
<!DOCTYPE svg PUBLIC "-//W3C//DTD SVG 1.1//EN" "http://www.w3.org/Graphics/SVG/1.1/DTD/svg11.dtd">
<svg version="1.1" id="Layer_1" xmlns="http://www.w3.org/2000/svg" xmlns:xlink="http://www.w3.org/1999/xlink" x="0px" y="0px"
	 viewBox="0 0 1440 937" enable-background="new 0 0 1440 937" xml:space="preserve">
<g>
	<g>
		<path d="M369.8,527.8c-0.6,0.6-1,0.9-1.3,1.2c-2.2-1.8-4.8-0.5-7.1-1c-0.9-5.1-2-10.2-1.3-15.4c0.3-2.1-1.3-3.6-1.1-5.6
			c0.2-1.6-2.4-0.4-2-2.1c-2.7-3.3-4.1-7.3-6-11c-0.3-0.6-0.7-1-1.3-1.9c-2.5,0.3-5.3-0.6-8,1.2c-3.1-2.8-5.2-6.4-7.6-9.7
			c-3.1-4.3-6.1-8.8-9.4-13.1c-1.8-2.3-2.8-4.6-2.7-7.4c0.1-6.8-3.5-12.2-6-17.9c-1.4,0-2.4,0-3.5,0c-0.5-1.1-1.3-2.2-1.4-3.3
			c-0.4-5.4-2.2-10.6-2.2-16.2c0-1.9-1.1-4-0.8-6.2c1.9-2,4.7-3.1,7.2-3.9c3.7-1.2,7-3.2,10.5-4.8c9.3-4.2,18.4-8.6,28.2-11.7
			c4.8-1.5,9.5-3.7,14.2-5.6c4.6-1.8,9.2-3.7,13.8-5.3c2.6-0.9,5.1-2.2,7.8-2.9c2.5-0.7,4.9-1.9,7.4-2.6c2.8-0.7,5.2-3.3,8.6-2.4
			c1.6,4.3,3.6,8.6,3.4,13.5c-0.1,2.6,1.7,5.2,0.5,8.5c-3,1.5-6.2,3.5-9.6,4.7c-1.6,0.6-3.1,1.3-4.6,2.1c-6.2,3.2-12.8,5.5-18.9,8.8
			c-2.1,1.2-4.2,2.2-5.8,4c-6.1,6.5-13.4,11.7-19.4,18.4c-0.8,0.8-1.8,1.4-2.2,1.6c-0.3,3.5,1.8,4.9,3,6.7c2.8,4.2,6,8.2,8.9,12.3
			c2.7,3.8,5.6,7.5,7.3,12c2.2,5.4,4.6,10.7,7.1,16.1c0.3,0.6,0.6,1.1,0.6,1.8c-0.2,4.1,1.8,7.9,0.8,12.6c2.2-0.5,4.2,0.8,5.8-1.1
			c0.1-0.2,0.6-0.1,1,0c6.9,0.7,13.7-1.6,20.6-0.9c2.9,0.3,5.3-1.2,8.1-1.1c2.8,0.1,5.9,0.7,8.4-0.1c3.6-1.1,7.1-0.7,10.6-0.8
			c5.7-0.3,11.3-1.6,17.1-1c4.1-1.8,8.5-0.2,12.6-1.1c3.9-0.8,7.7-0.8,11.9-0.9c0.7-5.6,3.3-10.8,3.1-16.6c0-1.1,1-1.5,1.1-2.6
			c0.4-5.7,2.5-11.1,3-16.8c2-1.8-0.1-4.9,2-6.7c-0.5-2.3,0.9-4.4,0.9-6.6c0-2.4,1.6-4.5,1.1-7.1c-0.1-0.7,0.8-1.6,1.4-2.7
			c4.9,0.5,10.2-1.1,15.5,1.3c-0.1,2.4,0.3,4.9,0.9,7.3c0.9,3.7-0.4,7.4-1.3,10.9c-0.6,2.2-0.8,4.6-1.4,6.9
			c-0.6,2.4-1.9,4.9-1.3,7.5c-2,1.8-0.8,4.5-1.8,6.8c-0.9,1.9-0.9,4.7-1.1,7c-0.2,2.3-1.8,4.2-1.1,6.6c-1.6,1.5-0.3,3.7-1.1,5
			c-1.1,1.6-0.9,3.1-0.8,4.7c0.1,1.5-1,2.3-1.1,3.6c-0.4,4.1-1.8,8-1.9,12.2c-0.1,1.3-1.6,2.1-1,3.6c-3.4,1.8-3.4,1.8-10.5,1.5
			c-1.6-0.7-1.2-2.7-3.1-3.7c-0.9,0-2.4,0-3.2,0c-1,0.6-1.8,1-2.1,1.1c-0.2,1.4,0.5,1.7,0.9,2.2c-0.5,0.4-1,0.8-1.7,1.5
			c-6.9-0.5-14,1.8-21.2,1c-4.4,1.6-9.2,0.2-13.5,1.2c-4.1,0.9-8.2,0.1-12.1,0.9c-4.5,0.9-9.2,0.2-13.6,1.1c-4.4,0.8-8.9,0-13.1,1
			c-6.7,1.5-13.4,0.4-20.1,0.8C372.9,529.1,371.1,529.3,369.8,527.8z"/>
		<path d="M256.3,468c-0.7-1.8-1.3-3.2-2.2-4.5c-2.2-3.1-4.3-6.2-6-9.5c-1.4-2.6-2.1-5.6-2.1-8.6c0-1.9,0.8-4-1.7-5.6
			c11-3.7,21.3-7.1,32.1-10.7c3.2,2.9,6.5,6,8.5,10.4c1.6,3.5,3.6,6.9,5,10.4c0.5,1.2,1.7,1.6,2,3.6c-1,3.5,1.6,7.7,1,12.2
			c-0.4,0.6-1.2,0.2-1.7,0.4c-3.9,2-8,2.1-12.2,2C271.5,467.9,264,468,256.3,468z"/>
			<path d="M433.6,384.8c-1.7-0.5-3-1.6-3.6-3.3c0-2.3,0-4.6,0-7c2.2-1,4.4-2.9,6.9-0.2c0,3,0,6.1,0,9.3
			C436,384.5,434.1,383.3,433.6,384.8z"/>
			<path d="M448.1,433.1c-0.6,0-1.8-0.1-2.8-0.2c-1.5-5.4,2.1-10.1,1.7-15.8c0.4-0.3,1.1-0.7,1.6-1.3c0.4-0.4,0.5-1.1,0.8-1.9
			c1,0,2.2,0,3.2,0c2.2-4.3,1.6-9.1,3.4-13.3c-0.5-1.3-1.8-0.4-2.6-0.8c-2.6-6.4-1.6-12.7,0.9-18.8c5-0.6,9.7,1.6,14.7,1
			c3-0.4,6,0.3,9.1-0.8c1.7-0.6,4.1-0.7,6.2,0.5c1.2,0.6,2.8,0.3,4.3,0.5c1.1,1.1,2.2,2.3,3.9,2.7c8.1-0.5,16.1,0.8,24.3,1.5
			c0.4,0,0.7,0.7,1.3,1.3c-0.7,6.2-2.1,12.4-4.1,18.4c-3.8,0-7.1,0.1-10.4,0c-2.7-0.1-5.3-1.7-8.5-0.7c-2.9,4.3-2.1,10-3.5,15.1
			c-1.4,4.9-2.9,10.1-2.5,15c-0.9,1.8-2.3,1.7-3.7,1.8c-0.1,1.7-1,3.2-1.5,4.6c-3.1-1.2-6.4-1.1-9.5-0.3c-1.7,0.4-3,1-4.4-0.1
			c-1.1-0.9-2.6,0.3-3.7-0.7c-0.1-0.5-0.2-0.9-0.3-1.3c-0.3-0.1-0.6-0.2-0.9-0.3c-2.7,0-5.3,0.1-8-0.1c-2.2-0.2-4.2-1.5-6.4-0.9
			C449.4,436.5,450.9,434.4,448.1,433.1z"/>
			<path d="M443.7,439c-3.5,0-6.8,0.6-9.8-0.1c-4.9-1.3-9.7-0.5-14.7-1c0-1.8,0-3.6,0-5.7c-3.4,0-6.6,0-9.4,0c-3-4-0.2-7.7-0.8-11.2
			c1.4-1.4,2.6-2.6,4-4c1.4,0.9,2.9,2.3,4.6,2.9c1.7,0.6,3.5,0,5.5-1.8c0.1-0.1,0.2-1.3,1.6-2.1c3.7,0.4,7.7-0.3,11.7,0.9
			c2.8,0.8,5.9,0.2,9,0.2c2,1.3,1.7,2.9,1.2,5c-0.8,3.5-2.2,7-1.4,10.7c1.5,0.6,3.5-0.5,4.7,1.8c0,1.4,0,3.2,0,5.1
			c-0.7,0.7-1.5,1.5-2.3,2.3C445.3,442.4,444.2,441.2,443.7,439z"/>
			<path d="M422.3,490c2.6,0,4.9,0,7.2,0c1.1,1.8,0,3.8,0.6,5.4c-0.6,0.6-0.9,0.9-1.5,1.5c-1.9,0-4,0-6.3,0
			C419.6,494.9,421.4,492.6,422.3,490z"/>
	</g>
</g>
</svg>
