<?xml version="1.0" encoding="utf-8"?>
<!-- Generator: Adobe Illustrator 17.1.0, SVG Export Plug-In . SVG Version: 6.00 Build 0)  -->
<!DOCTYPE svg PUBLIC "-//W3C//DTD SVG 1.1//EN" "http://www.w3.org/Graphics/SVG/1.1/DTD/svg11.dtd">
<svg version="1.1" id="Layer_1" xmlns="http://www.w3.org/2000/svg" xmlns:xlink="http://www.w3.org/1999/xlink" x="0px" y="0px"
	 viewBox="0 0 1440 937" enable-background="new 0 0 1440 937" xml:space="preserve">
<g>
	<g>
		<path d="M676.1,242.8c-2.6-8-3.7-16.1-3-24.5c5.7-1.9,11.5-3,16.9-5.4c0-1.8,0-3.2,0-4.4c1.5-2,3.7-2.8,5.4-3.2
			c5.4-1.4,10.3-4.3,15.6-5.8c3.6-1,6.7-3.2,10.5-3.6c0.9-1.4,2.4-1,3.6-0.9c5.2,0.4,10-1.4,14.9-2.6c3.8-1,7.6-1.8,11.6-2.7
			c0.4-0.6,1.7-0.9,1.2-2.1c0.6-1,2.1-0.3,2.5-1.5c2.2-0.5,4.6,0.6,6.7-0.7c2-1.3,4.6,0.8,6.5-1.3c0.3-0.3,1.6-0.4,2.3,0.3
			c0.7,0.9,2,0.8,2.8,1.7c6.7,7.3,14.9,13.1,21.4,20.6c5.2,6,10.7,11.9,15.8,18c2.4,2.9,5.4,5.3,7.4,8.4c2.5,3.9,6.7,6.2,8.5,10.7
			c1.2,3.9-1.7,7.7-0.7,12.2c-4.8-0.5-8.9,2.6-13.2,2.1c-6.8-4.9-11.9-11-17.8-16.1c-2.6-2.2-5.1-4.6-7.7-6.9c-0.6,0-1.4,0.3-1.8,0
			c-3.7-2.7-8.1-3.8-12.1-5.8c-5.3-2.7-11-4.8-16.5-7.1c-0.9-0.3-2-0.8-2.4-1.2c-3.3-2.8-6.4-1.9-9.6-0.2c-5.4,2.8-11.3,4-16.8,6.4
			c-4.7,2-9.5,3.7-14.2,5.6c-5.6,2.2-11.3,4.1-17.3,5.4c-4.7,1-9.4,2.1-13.9,3.7c-1,0.4-2.3,0.3-3.4,0.2
			C678.1,241.8,677.8,243.4,676.1,242.8z"/>
		<path d="M747.1,319.7c-5.3,1.3-9.8-1.4-15-0.5c0-2-0.1-4-0.1-5.9c0-2,0-4,0-5.8c-0.8-0.5-1.1-1.5-2.1-1.4c-1.8,0.1-3.7,0.1-5.5,0
			c-3.2-0.2-6.5,0.6-9.6-0.9c-0.9-0.4-2.3-0.1-3.2-0.1c-0.5,0.5-0.9,0.9-1.4,1.4c0,1.3,0,2.7,0,4.6c-2-0.3-3.8,0.8-5.7-0.9
			c-0.5-0.5-1.9-0.1-2.9-0.1c-7.9,0.5-15.7-1.8-23.6-1c-4.8-1.8-9.8-0.4-14.6-1.1c-3.4-0.5-6.6-1.2-10.4-0.7c0,1.9,0,3.8,0,6.2
			c-0.9-0.8-1.3-1.2-2-1.8c0-1.1,0-2.4,0-3.7c0.1-3.9-0.4-7.6-1.9-11.2c-0.1-0.3-0.1-0.6-0.1-1c0.6-3.9-1.7-7.6-1-11.6
			c0.3-1.8-1.3-3.2-1-5.1c0.2-1.5-0.3-3.1-0.7-4.6c-0.8-2.5-0.8-5.4-1-8c-0.2-3.9-0.7-7.8-1.4-11.5c-1.4-7.6-0.4-15.1-0.8-22.6
			c-0.1-3.2,1.8-6.3,0.7-9.9c5.2,0,10-2.1,15.3-0.9c-0.9,4,0.8,7.8,1.1,11.9c0.3,4.9,1.5,9.7,2,14.7c0.2,2.2,0.3,4.5,0.9,6.6
			c0.7,2.2,0.6,4.4,0.9,6.6c0.8,5,2,10,1.9,15.2c1.8,2.1,0.4,4.8,1.1,7.1c0.6,2.4,1.2,4.7,0.9,7c1.8,1.9,4.1,1.7,6.3,1.7
			c2.3,0,4.7,0.1,7,0c3.3-0.1,6.2,1.5,9.6,1.1c3.1-0.4,6.5-0.7,9.5,0.1c4.6,1.2,9.1,0.6,13.6,0.8c2.7,0.1,5.2,1.5,8.1,1.1
			c2.8-0.4,5.8-0.7,8.4,0.1c4.1,1.2,8.1,0.7,12.1,0.8c2,0,3.7,0.7,5.4,1.6c0,2.5,0,5,0,7.5c0,2.5-0.3,5,0.1,7.5
			C748.5,315.1,746.2,317,747.1,319.7z"/>
		<path d="M757,178.5c-10.1,5.7-20.9,7.9-31.5,11c-0.3-2-1.5-2.9-2.4-3.8c0-10.2,0-20.3,0-30.8c6.7-2.3,13.4-4.5,20.5-6.9
			c4.3,5.8,8.8,11.7,13.4,17.7C757,169.8,757,174.1,757,178.5z"/>
		<path d="M831.7,328c-2.5,0-4.9,0-7.6,0c0-1.9-0.1-3.8-0.1-5.8c0-2,0-3.9,0-5.8c-4.5-2.1-9.1-1.3-13.5-1.5
			c-0.6-0.6-1.2-1.2-1.9-1.9c-5.4-0.2-10.9,0.5-16.4-1.4c0-4,0-8.1,0-12.7c-1.6,0-3.1-0.1-4.5,0c-6.1,0.8-12-1.8-18.3-0.9
			c-0.3,0.3-0.7,0.8-1.4,1.5c0.6,3.4-0.6,6.7-1.3,10.2c-0.1,0.4-0.7,0.7-1.3,1.3c-1.8-1-3.9-1.5-6.5-0.9c0.5-4.9-0.3-9.2-1.1-13.7
			c2.3-1,1.9-4.5,5.1-4.8c0-4.4,0-8.9,0-13.2c1-1,1.8-1.8,2.6-2.6c7.3-1.1,7.7-1.1,13.1,2c1.1,0,2.4,0,3.7,0c1.1,0,2.3,0,3.6,0
			c0.1,1,0.1,1.8,0.2,2.8c2.1,0,4.2,0,5.6,0c2,0.6,0.5,2.9,2.7,2.9c3.4,0.4,7.1,0.5,10.7,1.2c3.7,0.7,7.6,0.1,11.3,0.1
			c0.6-0.4,0.5-0.9,0.5-1.4c1-1.2,2.5-0.2,3.7-0.7c0.7-0.6,0-1.6,0.5-2.5c4.8-1.3,9.8-1.6,14.7,1c0.6,5.1-0.1,10.2-1.2,15.4
			c1.3,0.1,2.1,0.2,3.1,0.3c1.1,3.9-2,7.5-0.7,11.2c-0.7,1.1-1.6,0.5-2.5,0.8c-2.6,2.7-0.6,6.5-1.9,9.4
			C831.4,321.7,832.8,325,831.7,328z"/>
			<path d="M762.9,286c-1.3-0.1-2.5,0.3-3.1-0.8c-1.1-2.1-2.1-4.3-1.8-6.7c1.9-1.5,1.9-1.5,4.9-1.8c0-5.8,0-11.5,0-17.2
			c2.9-2.5,6.5-3.3,9.6-5.4c2.9,0,6,0,9.3,0c0,2.5,0,5,0,7.5c0.7,0.2,1.3,0.4,2,0.7c0,2.4,0,4.8,0,7.4c-1,0.9-2.5,0-3.8,0.5
			c0,2.5,0,5,0,7.8c-4.2-0.4-7.4-4-11.7-2.9c-1.1,1.2-2.8,1.4-4.3,2.2C764.2,280.3,762.4,282.9,762.9,286z"/>
			<path d="M688.8,274.8c-1.7,0-3.1,0-4.7,0c0-1.8,0-3.4,0-5.5c0.7-0.5,1.7-1.3,3-2.4c0.1,0,0.7,0,1.6,0
			C688.8,269.7,688.8,272.3,688.8,274.8z"/>
			<path d="M839.5,275c-0.8-0.8-1.6-1.6-2.5-2.5c-0.5-2.8,1.8-5.2,0.8-8.2c1.7-0.6,3.3-0.3,4.7-0.3c0.5,0.5,0.8,0.8,1.3,1.3
			c0,2.7,0,5.4,0,8.2C842.9,275.4,841.1,275,839.5,275z"/>
	</g>
</g>
</svg>
