<?xml version="1.0" encoding="utf-8"?>
<!-- Generator: Adobe Illustrator 17.1.0, SVG Export Plug-In . SVG Version: 6.00 Build 0)  -->
<!DOCTYPE svg PUBLIC "-//W3C//DTD SVG 1.1//EN" "http://www.w3.org/Graphics/SVG/1.1/DTD/svg11.dtd">
<svg version="1.1" id="Layer_1" xmlns="http://www.w3.org/2000/svg" xmlns:xlink="http://www.w3.org/1999/xlink" x="0px" y="0px"
	 viewBox="0 0 1440 937" enable-background="new 0 0 1440 937" xml:space="preserve">
<g>
	<g>
		<path d="M1044.9,526.4c5-1.7,8.7-4.7,12.9-6.7c6.8-3.2,13.4-7.1,20.1-10.6c1.1-0.6,1.9-1.3,2.6-2.1c2.6-3.2,5.7-6.1,7.8-9.7
			c0.2-0.3,0.4-0.5,0.7-0.7c3.6-2.9,5.6-7.2,9.6-10.5c-1.8-0.8-2.5-2.3-3.5-3.5c-1.2-1.4-2.6-2.5-3.9-3.9c-4.4-4.9-9-9.6-13.3-14.5
			c-6.2-7.1-11.5-14.9-15.9-23.4c-0.8-1.5-2.2-2.7-2.9-5c0-3.3,0-7.3,0-11.7c-2.2,0.2-4.3-1-6.5,0.6c-0.8,0.6-2.2,0.3-3.4,0.2
			c-6.9-0.4-13.7,1.8-20.6,1c-4.1,1.8-8.4,0.9-12.6,0.9c-2.6,0.1-4.9,1.5-7.6,1.1c-2.6-0.3-5.5-0.7-7.9,0.1
			c-4.1,1.3-8.1,0.8-12.1,0.8c-2.5,0-4.6,1.5-7.1,1.2c-2.3-0.3-4.7-0.4-7,0c-2,0.4-3.9,1.4-6.2,0.6c-0.1-1.1-0.1-2.2-0.2-3.5
			c-1.6,0-3.1,0-4.7,0c-0.1,0.2-0.3,0.4-0.2,0.5c0.7,7.7-1.6,15.3-1,23.1c-1.5,4.4-0.2,9.2-1.2,13.5c-0.9,4.4-0.7,8.8-0.8,13.1
			c0,2.1-1.5,3.8-1.1,6.1c0.3,1.9,0.1,4,0.1,6.1c-2.8,1.4-5.2-1.1-7.9-0.7c-2.6,0.4-5.2,0.1-7.6,0.1c-0.6-0.6-1-1-1.4-1.4
			c0.1-0.7,1-1.1,0.9-2c-0.2-1.3,0.1-2.7-0.1-4c-0.6-6.7,1.7-13.3,1-20.1c1.8-4.1,0.9-8.4,0.9-12.6c0-2.3,1.5-4.2,1.2-6.6
			c-0.3-2.3-0.7-4.8,0.1-6.9c1.3-3.9,0.2-7.8,1-11.6c1-4.7,1-9.4,0.8-14.1c-0.1-1.6,1.9-2,0.8-3.7c2.2,0,3.8-0.2,5.4,0
			c2.8,0.4,5.2-1.4,8.1-1.1c2.8,0.3,5.9,0.7,8.4-0.1c3.6-1.1,7.1-0.8,10.6-0.8c2.9,0,5.6-1.5,8.6-1.2c2.8,0.4,5.8,0.7,8.4-0.1
			c4.2-1.3,8.5-0.1,12.6-1c4.7-1.1,9.5-0.1,14.1-1c4.4-0.9,8.9-0.1,13.1-1c7.4-1.6,14.8-0.3,22.1-0.9c3.6-0.3,6.9,2,9.7,1.2
			c3.4,1,1.1,4,3,5.2c-0.4,2.9,2.8,5.7,0.2,8.6c0,2.6,0,5.3,0,8.1c1.8-1.5,3.6-0.8,5.4-1.1c4.6,4,6.8,10,11.2,14.2
			c2.6-0.7,5-1.7,7.8-1c8.1,7.5,15.7,15.7,23.4,24.5c0,1.3,0,3.1,0,4.4c4.2,6.6,8.2,12.8,12.3,19.1c1-1.3,2.1-1.3,3.5-1.2
			c2,4.7,4.1,9.5,6.1,14.4c-1.5,1.9-0.8,4.3-0.7,6.4c0.1,2.2-1.3,3.9-1.3,6c-3,1.7-5.9,3.5-9,5.1c-6.5,3.5-13,7.1-19.7,10.3
			c-6,2.9-12.2,5.2-18.2,7.8c-4.8,2.1-9.7,3.9-14.5,6.1c-5.5,2.5-11.1,4.6-16.6,7c-4.4,1.9-9,3.3-13,6.1c-3.2-2.7-3.3-7-5.8-9.8
			c0-2.4-0.1-4.9,0-7.4C1044.1,530.8,1045.6,528.8,1044.9,526.4z"/>
		<path d="M1170.8,497c-5.6-3.3-9.8-7.7-13.2-13c-1.7-2.7-3.3-5.5-5.7-7.6c-0.9-0.8-0.5-2.3-1.7-2.8c-1.2-4.5,1.3-8.7,0.8-13.1
			c4.8-2.6,10-2.8,15.3-2.7c7.1,0.1,14.3,0,20.9,0c4.7,5.4,9,10.4,13.7,15.7c0.9,4-2.1,8.2-0.6,12.9
			C1190.4,490.1,1180.7,493.5,1170.8,497z"/>
		<path d="M958.2,494c3.4,0,6.5,0.1,9.7,0c1.5-0.1,3.2,0.6,4.7-0.8c0.6-0.5,2.4-0.6,3.6,0.5c1.6,1.6,3.8,1.4,5.9,1.3
			c2.3,0,4.7,0.2,7,0c4.3-0.4,8.3,0.9,12.9,1.2c-0.4,9.1,0.8,18.3-1.6,27.7c-1,0.5-2.7-0.2-4.3,0.2c0,4.9,0,9.7,0,14.5
			c1,0.8,2.2,0.2,3.3,0.4c2.6,3.4,1.2,7.5,1.5,11.3c-1.9,1.9-0.4,4.4-1.2,6.6c-0.5,0-0.9,0.1-1.3,0.1c-1-1.2,0.1-2.7-0.9-3.9
			c-3.4,0.5-6.7-2-10.3-0.8c-0.6,1,0.4,2.8-2.5,3.7c-1.8,0-4.7,0-7.5,0c-0.2,0.8-0.3,1.3-0.5,1.8c-4.5,1.3-8.9-1.6-13.2-0.7
			c-0.7-0.4-0.6-1-0.6-1.4c-2.7-1.6-5.7-1.8-8.8-1.6c-6.4,0.4-12.7-1.7-19.1-1c-1,0.1-1.3-0.8-2.2-1.5c0.7-6.3,1.4-12.8,2.2-19.6
			c2.9,0.5,5.7,0.1,8.6,0.9c3.7,1,7.9,0.2,12.2,0.2c0-2.1,0.3-4.1-0.1-6c-0.5-3,1.3-5.6,1.1-8.6c-0.2-3-0.7-6.2,0.1-8.9
			C958.7,504.4,957.3,499.4,958.2,494z"/>
		<path d="M1028,501.5c0.7,0.7,1.1,1.1,1.5,1.5c1.3,0,2.6,0,4,0c0.9-0.4,1.3-1.8,3-2c1.7-0.3,2.3,1.7,3.4,2.5c0,4.2,0,8.3,0,12.8
			c-5.7-0.8-11.1,0.6-16.3,1c-0.9-1-0.3-1.9-0.7-3c-6.8,0-13.6,0-20.7,0c0-6.1,0-11.9,0-17.7c-1.6-0.9-3.3-0.2-4.8-0.5
			c-0.6-0.9-0.3-1.7-0.3-2.8c1.6,0,3.2,0,4.6,0c0.2-0.8,0.3-1.2,0.4-1.8c7.5-1.5,14.8,1.7,22.3,0.6c0.6,2.1,2.3,3.2,3.6,4.6
			C1028,498.2,1028,499.8,1028,501.5z"/>
		<path d="M1015.8,445.9c-2.3,0-4.4,0-6.4,0c-0.5-0.5-0.8-0.8-1.3-1.3c0-1.3,0-2.8,0-4c2.3-3.6,5-0.1,7.7-0.6
			C1015.8,442,1015.8,444,1015.8,445.9z"/>
		<path d="M1019,562.5c0.2-0.7-0.1-1.3-0.7-1.7c1.3-2.4,0.4-4.9,0.8-7.4c0.4-0.4,0.9-0.9,1.2-1.2c1.6,0,3,0,4.3,0
			c0.5,0.5,0.9,0.9,1.3,1.3c0,2.5,0,5.2,0,8.3c-0.7,0.5-1.8,1.3-3.6,2.5C1021.6,564.3,1020.4,563,1019,562.5z"/>
	</g>
</g>
</svg>
