<?xml version="1.0" encoding="utf-8"?>
<!-- Generator: Adobe Illustrator 17.1.0, SVG Export Plug-In . SVG Version: 6.00 Build 0)  -->
<!DOCTYPE svg PUBLIC "-//W3C//DTD SVG 1.1//EN" "http://www.w3.org/Graphics/SVG/1.1/DTD/svg11.dtd">
<svg version="1.1" id="Layer_1" xmlns="http://www.w3.org/2000/svg" xmlns:xlink="http://www.w3.org/1999/xlink" x="0px" y="0px"
	 viewBox="0 0 1440 937" enable-background="new 0 0 1440 937" xml:space="preserve">
<g>
	<g>
		<path d="M940.5,306.9c-1.8-2.2-1.2-4.8-2.4-6.9c-0.4-0.6-0.3-1.9,0.2-2.8c1.2-2.1,0.8-4.1,0.1-6.4c-0.7-2.3-0.4-4.9-0.5-7.3
			c0.7-0.3,1.3-0.5,1.9-0.7c0.2-0.2,0-0.8-0.3-0.7c-2.7,1-3.1-2.8-5.5-2.1c0-3.4,0-6.4,0-9.5c0.4-0.4,0.9-0.8,1.7-1.5
			c7.4,0.8,14.9-1.7,22.7-0.9c4.9-1.5,10.1-0.7,15.1-1.1c2-0.2,4-1,6.5-0.8c2.4,10,5.9,20,6.3,31c-7.1-0.6-13.6,1.7-20.3,0.9
			c-5.1,1.5-10.3,0.8-15.8,1.1c0,2.3,0.3,4.6-1.6,6.8C946,305.5,943.5,307.8,940.5,306.9z"/>
		<path d="M847.2,307.1c-0.2-1.7,0-3.1-1.6-3.9c-4.4-1-8.8,0.5-13.3,1c-0.9,0.7,0.3,2-0.7,2.7c-0.2-0.2-0.6-0.4-0.6-0.5
			c0-3.4-1-6.5-1.8-9.8c-0.5-2-0.1-4.2-0.1-6.3c6.5-0.5,13-0.9,19.5-1.4c0.7-0.7,0.2-1.6,0.4-2.4c3.8-1.2,7.8-1.8,11.8-1.5
			c6.2,0.5,12.3-1.7,18.6-1c3.9-1.8,8.1-0.3,12.1-1.1c5.2-1.1,10.5-0.1,15.6-1.1c4.7-0.9,9.5,0,14.1-1c4.8-1,9.4-0.5,13.8-0.9
			c1.8,0.9,3.3,1.7,5.3,2.7c-1,0.4-2,0.7-2.1,0.7c-0.8,5.8,2.1,10.3,0.2,15.7c0.1-0.1-0.4,0.3-1,0.9c-5.1-0.4-10.4,2-16,0.8
			c-0.5-0.6-2-0.9-1.2-2.8c-3.5,0-6.7,0.1-9.8,0c-3.1-0.1-5.9,1.9-8.9,0.9c-1,1.2-0.2,2.4-0.8,3.9c-3-0.3-6.1,1.5-9.5,1.3
			c-3.2-0.2-6.5-0.3-9.6,0.5c-2.3-0.5-0.8-3.8-3.3-4.5c-3.8,1.9-8,0.4-12.1,1.2c0,1.1,0,2.2,0,3.1c-0.6,0.6-1.1,1.1-1.6,1.6
			c-2.8,0-5.8-0.7-8.4,0.2C853.2,307.2,850.4,306.7,847.2,307.1z"/>
		<path d="M848.2,288.1c-2.7-12.8-5.4-25.5-7.4-37.4c0.4-2.1,1.6-1.5,2.1-2.1c2.7-2.9,6.4-3.2,10-3.5c3.5-0.3,7-0.1,10.6-0.1
			c0.8,1.7,2.9,1.8,4,3c2.4,11.9,4.7,23.8,7.1,35.8c-2.5-0.4-5.1,1.1-8,1.2c-2.9,0.1-5.7-0.3-8.6,0.7c-2.6,0.9-5.8,0.2-8.6,0.2
			C848.8,286.8,849.2,287.6,848.2,288.1z"/>
		<path d="M868.2,250.8c-0.5-1.3-1-2.4-1.5-3.6c-1.3-0.8-3-0.9-4.2-2.2c-2.7,0-5.6,0.2-8.3-0.1c-2.7-0.3-4.9,2.3-7.2,0.9
			c-2.3,1.6-4.2,3-6.6,4.7c-0.3-5.4-2.1-10.1-1.2-15.2c3.8-1.9,7.9-1.5,11.9-1.3c2.9,0.1,5.7-0.6,8.6-1c2.9-0.4,6.2,0.6,8.9-0.2
			c5.4-1.5,10.7-0.3,15.9-0.9c0.5,0.5,0.9,0.9,1.6,1.6c-0.9,2.5,1.1,4.9,1,7.6c-0.1,2.8,0,5.6,0,8.6
			C880.8,250.2,874.7,251.7,868.2,250.8z"/>
		<path d="M820.9,285.9c-0.8-6.6-3.2-12.8-2.9-19.4c3.7-2.9,5.4-3.5,9.5-3.5c1.1,1.2,2.7,1.6,4.3,2.2c0.5,6.4,3.2,12.7,1.9,19.8
			c-1.2,0-2.7,0.2-4.1,0C826.7,284.4,824.3,286.4,820.9,285.9z"/>
		<path d="M809.1,259.8c-0.9-7.1-3.5-13.9-3-21.5c5-1.3,9.8-3.9,15.4-3.2c1.1,2.8,4,2.8,6.5,4.5c0,2.7-0.2,5.8,0.1,8.9
			c0.2,2.8,1,5.5,1.6,8.4c-0.4,0.3-0.8,0.9-0.7,1.8C822.5,259.4,816.1,260.6,809.1,259.8z"/>
		<path d="M778.3,238c-3.4-9.8-2.8-19.8-4.4-29.5c3.9-1,5.9-6.2,10.9-4.2c0.3,0.3,0.8,0.7,1.2,1.2c0.2,0.4-0.2,1,0.8,1.5
			c1.8-0.7,3.5,1.2,5.7,1c0.8,1.7,1.4,3.7,4.3,2.8c0.4,2.7,0.5,5.1-2.8,6.6c0.5,6.3,2.9,12.6,1.7,19.6c-2.8-0.7-5.3,1.2-8.2,1.1
			C784.5,237.9,781.5,238,778.3,238z"/>
		<path d="M876.4,193.9c0.6,0.6,0.9,0.9,1.5,1.5c0,5.7,3.1,11.2,1.9,17.4c-0.2,0.2-0.6,0.6-0.9,0.9c-0.6,0.7-1.3,0.4-1.9,0.4
			c-8.1-0.5-16,1.8-24,1c-4.6,1.7-9.4,0.8-14.1,1c-1.9,0.1-3.5,1.7-5.5,0.9c-1.7-5.3-2.8-10.8-2.3-16.6c-1.7,0-3.3,0-4.8,0
			c-0.7,1.5,0,2.5,0.7,3.6c-1.4,3.8-3,7.3-7.8,8c-3.6-0.7-7.3,1.3-11.2,1.2c-3.8,0-7.6,0-11.6,0c-0.2-0.6-0.4-1.1-0.7-1.9
			c-0.7-0.1-1.5-0.1-2.3-0.2c-1.6-5-3.2-10.1-2.2-15.7c1.3-0.5,3.5-0.1,4-2.2c3.1,0,6,0.1,8.8,0c4.2-0.2,8.3,1.5,12.6,1.1
			c4.3-0.4,8.6-0.1,13-0.1s8.7,0,13,0s8.7,0,13,0s8.7,0,13,0c0.8,0,1.5-0.1,2.4,0.2C873.5,195.2,873.6,195.1,876.4,193.9z"/>
		<path d="M928.8,192.3c0.5,1.6,1.6,2.9,1.2,4.6c-0.4,1.6,1.4,2.5,1,4.1c-0.4,1.9,2.4,3.8,0,5.6c0,2,0,4,0,5.9
			c-3.7,1.9-7.6,1.7-11.4,1.4c-4.1-0.3-7.9,2-12.4,0.9c0.3-2.7-1.9-5.1-1-8.2c-3.9-3.5-6.9-7.8-11.8-10.7c-1.5,0-3.3,0-5.2,0
			c0.3-1.4,1.3-1,1.8-0.9c3,0.7,5.6-1.2,8.6-1.1c3,0.2,6.2,0.7,8.9-0.1c4.6-1.3,9.1-0.7,13.6-0.8
			C924.3,193.1,926.2,191.2,928.8,192.3z"/>
		<path d="M892.8,235.3c-0.8-0.8-1.3-1.3-1.7-1.7c-0.6-1.7,0.4-3.4-1-5.2c-1-1.2,0.7-3.6-1.1-5c0.1-3.8-1.4-7.4-1.9-11.2
			c-0.2-1.8-1.3-3.4-1-5c0.3-1.4-1.5-2.2-0.3-3.8c0.7-0.8,0.2-2.6,0.2-3.9c0-1.5,0-2.9,0-5c3.2,1.9,6.2,1.3,9,1.4
			c3.6,3.6,7.1,7.1,10.9,10.9c1,4.9,2.1,10.3,3.2,15.6c-0.8,0.8-2.1,0.4-2.6,1.7c-4.4,0-8.8,0-13.6,0
			C892.8,227.9,892.8,231.4,892.8,235.3z"/>
		<path d="M908.8,222.9c3,1.1,1.9,3.3,2.4,5c2.5,0,5,0,7.4,0c0.4-0.4,0.7-0.7,1.2-1.2c0-1.9,0-4.1,0-6c0.9-0.7,1.3-1.8,2.9-1.5
			c0,2.1,0,4.4,0,6.2c0.7,0.7,1.1,1.1,1.7,1.7c3,0,6.4,0.5,9.5-0.1c3.4-0.7,6.8-1.1,10.1-0.8c3.3,0.4,6.3-1.3,9.7-1.1
			c1.6,2.7,1.9,5.6,2.3,8.6c0.7,0.7,1.6,0.2,2.3,0.4c0.1,0.1,0.3,0.2,0.3,0.3c0,3,0,5.9,0,9.4c-0.4,0.3-1.2,0.9-1.8,1.3
			c0,1.4,0,2.4,0,3.4c-3.1,1.6-6.4,1.8-9.9,1.5c1.4,5.8,1.4,11.3-0.4,17.1c-1.5,0-3.2,0.2-4.8,0c-4.6-0.7-9,1.8-13.5,0.9
			c-1.5-2.5-0.9-5.5-2.1-8.1c-0.2-0.5-0.6-7-0.5-7.5c-0.4-0.5-0.9-0.3-1.7-0.3c0,5.3,0,10.5,0,15.9c-1.8,0-3.2,0-4.8,0
			c-0.4-0.3-0.3-0.8-0.3-1.5c-3.3-1.3-6.4,2.1-9.7,0.4c-1.4-0.7-1.4-2-1.4-3.7c-2.1,0-4.2,0.2-6.3-0.1c-2.2-0.3-3.8,2-6.8,0.4
			c-2.3-2.8-0.7-7.6-3-11c1.4-1.2,2.6-2.2,3.4-2.9c-1.8-4.5-2-8.6-3.1-12.5c1.6-4.1,0.8-8.4,1.1-12.7
			C898.3,223.3,903.8,225.2,908.8,222.9z"/>
	</g>
</g>
</svg>
