<?xml version="1.0" encoding="utf-8"?>
<!-- Generator: Adobe Illustrator 17.1.0, SVG Export Plug-In . SVG Version: 6.00 Build 0)  -->
<!DOCTYPE svg PUBLIC "-//W3C//DTD SVG 1.1//EN" "http://www.w3.org/Graphics/SVG/1.1/DTD/svg11.dtd">
<svg version="1.1" id="Layer_1" xmlns="http://www.w3.org/2000/svg" xmlns:xlink="http://www.w3.org/1999/xlink" x="0px" y="0px"
	 viewBox="0 0 1440 937" enable-background="new 0 0 1440 937" xml:space="preserve">
<g>
	<g>
		<path d="M481,638.6c0.3,4.2-0.7,8.5,1.1,12.2c-0.1,1.4-0.9,1.1-1.5,1.3c-0.6,0.2-1,0.9-1.5,1.3c0.9,0.6,1.7,1.1,2.5,1.6
			c0.9,4.4,1.9,8.7,1.4,13.1c-0.5,4.3,2,8.3,0.7,12.9c-1.2,0-2.7,0.2-4.1,0c-4.8-0.6-9.3,2-14.1,0.8c-1,1.6-0.2,3.3-0.6,4.8
			c-3.4,2.3-7.1,1-10.6,1.5c-0.2,0.5-0.3,1.2-0.6,1.7c-0.2,0.4-0.7,0.7-1.1,1.1c-1.1,0-2.2,0-3.4,0c-0.1-0.5-0.2-1-0.4-1.9
			c-3.9,0.4-7.9-0.9-11.8,1c-2.8-0.6-1.7-3-2.1-4.8c-0.6-0.1-1-0.2-1.9-0.4c0.6-2.3-1.2-4.3-1-6.8c0.1-2.3,0-4.7,0-7
			c0.1-2.7-1.5-5.2-1.1-8.1c0.4-2.8,0.7-5.9-0.1-8.4c-1.4-4.4-0.5-8.7-0.9-13.5c1.6,0,3.1-0.2,4.5,0c2.7,0.5,5-1.2,7.6-1.1
			c2.7,0.1,5.6,0.7,7.9-0.1c3.1-1.1,6.1-0.9,9.1-0.7c2.9,0.2,5.3-1.2,8.1-1.1c2.8,0.1,5.7,0,8.5,0c0.8,0,1.1-0.5,1.7-0.8
			C478.7,636.5,479.8,637,481,638.6z"/>
		<path d="M577.9,641.6c0.1,0.6,0.1,1.4,0.2,2.5c4.1-0.5,8,0.3,12.1-0.9c2.9-0.9,6.2-0.2,9.3-0.2c1.9,6.5,1,13.2,3,20.1
			c-6.8-0.6-12.6,1.6-18.7,0.9c-1.2-0.1-2.6-0.3-3.8,1.2c0.4-3.8-2.3-5.4-4.7-6c-1.9-0.4-3.9-1.6-6-1.2c-0.3,0-0.7,0.1-1,0
			c-4-2.4-7.1,0.3-10.5,1.6c-3.1,1.1-5.7,2.6-7.9,5c0.4,0.4,0.7,0.8,0.9,1c0.3,1.1-0.6,1.5-1.3,2.3c-3.3,0-6.7,0-10,0
			c-0.6,0.6-1.1,1.1-1.6,1.6c0.3,0.5,0.7,1,0.9,1.3c0,1.3-1,1.5-1.4,2.2c-5.9,0.1-11.6,1.8-17.5,1.1c-3.8,1.4-7.9,0.3-11.5,1.2
			c-3.8,0.9-7.4,0.5-11.1,0.9c-0.8-3.4-1.9-6.6-1.5-10c0.5-3.4-0.6-6.7-1.4-9.9c-0.3,0-0.6-0.1-1-0.1c-0.1,0.1-0.3,0.1-0.4,0.2
			c-0.1,0.1-0.3,0.3-0.3,0.4c0,6.7,0,13.3,0,20.2c-2.9,0-5.6,0-8.6,0c-1.6-1.6-1.6-3.9-1.3-6.1c0.7-5.1-1.9-10-1-14.6
			c-0.4-2.1-2.7-1.5-3.1-3c0.4-2,2.1-0.6,3-1.6c0.1-0.6,0.1-1.4,0.2-2.2c0.3-0.1,0.6-0.4,0.8-0.4c6.2,0.6,12.4-0.8,18.6-1.3
			c6.5-0.5,13.1-1.4,19.7-2c4.2-0.4,8.5-0.1,12.6-0.9c4.1-0.8,8.2-0.1,12.1-1.1c3.3-0.8,6.4-0.7,9.6-0.7c5.7,0,11.3-1.7,17.1-1.1
			C574.2,642.1,575.6,640.1,577.9,641.6z"/>
		<path d="M550.2,664.6c8.6-7.4,15.3-10.3,29.9-3.3c-0.8,5.1,1.6,10.1,1,15.3c-0.2,2.1,1.4,3.8,1.1,6.1c-0.3,2-0.6,4.2,0.9,6.1
			c-0.7,6,2.1,11.9,0.7,18.2c-6.9-0.7-13.6,1.6-20.5,1c-2.2-0.2-4.2,1.3-6.6,1c-1.2-0.1-1.7-0.8-2.6-1.6c0-1.5-0.1-3.1,0-4.8
			c0.3-4.6-1.8-9-1-13.6c-1.7-2.7-1-5.7-0.9-8.6c0-2-1.4-3.5-1.1-5.6c0.3-2,0.3-4,0-6C550.7,667.7,549.3,666.5,550.2,664.6z"/>
		<path d="M534.4,732.2c-1.2-7-1.2-13.8-2-20.9c1.9-0.4,4.1-1.5,6.7-1.4c6.4,0.2,12.6-1.7,19.1-0.9c4.1-1.6,8.5-0.1,12.5-1.2
			c4.8-1.2,9.4-0.4,14.5-0.9c-1,3.9,1,7.1,0.9,10.7c-0.1,3.3-0.8,6.8,1.1,9.9c-4.8,0.9-9.3,1.1-13.7,1.6c-4.5,0.5-9.2,0.2-13.6,1
			c-4.2,0.8-8.6-0.1-12.5,1C542.9,732.4,538.6,731.4,534.4,732.2z"/>
		<path d="M596.9,693c0.7-5.1-1.1-9.6-1.1-14.3c0-2.6-1-5.3-0.7-8.2c1.8-2.4,5.2-2.5,7.2-4.2c2.6,0.7,5,1.3,7.6,2
			c0.1,3.9,0.9,7.8,1.4,11.8c0.4,3.9,0.6,7.7,0.8,12c-2.6-0.7-4.6,1.1-7.1,1C602.5,692.9,600,693,596.9,693z"/>
		<path d="M600.1,714.1c-2.1-3.2-0.6-6.5-1.2-9.6c1.2-0.9,2.4-0.3,3.5-0.5c0.7-0.8,2.1-1.2,1.6-2.5c6.2-3,11.9-0.9,18,0.9
			c-0.8,4.2,1.5,8.3,1,12.7c2,4,0.1,8.5,1.7,12.7c-0.1,0.1-0.3,0.3-0.5,0.5c-0.2,0.2-0.5,0.6-0.7,0.6c-7.3,0-14.6,2.1-22.3,0.7
			c-0.2-2.3,0.4-5.2-2.2-7.2C599.5,719.8,598,716.9,600.1,714.1z"/>
		<path d="M645,769c-2,1.6-4.3,0.7-6.8,1.1c0-2.3-1.9-4.1-1.2-6.5c-1.8-0.8-3.8-1.5-2.9-4.4c0.7-1.3,2.8-1.1,3.8-2.8
			c-0.5-2.4,0.6-5.1-0.8-7.9c-1.2-2.3,0.7-5.4-1.1-8c-0.5-0.7-0.1-1.9-0.1-2.9c0-3.8,0-7.6,0-11.7c3.4,0.9,6.1-1,9.3-0.9
			c3,0.1,6.2,0.8,9.5-0.7c1.5,1.7,2.4,4,2.3,6.5c-0.2,4.4,1.7,8.6,1,13c1.8,3.2,1.1,6.7,0.8,10c-0.1,1.6-1.5,3.5-0.7,5
			c1.4,2.9,0.7,5.7,0.9,8.6C649,770,648.4,770.8,645,769z"/>
		<path d="M537,759.5c0.6-0.6,1-1,1.5-1.5c1.1,0,2.3-0.1,3.4,0c6.2,0.4,12.3-1.8,18.6-1c3.9-1.8,8.1-0.3,12-1.1
			c4.5-0.9,9.1-1,13.6-0.8c1.6,0.1,2.4-2,4.1-0.9c1.6,1.4,1.9,3.3,1.7,5.4c-0.3,5.7,2,11.3,0.7,17.1c-1.4,0.6-2.9,1.5-4.8,1.3
			c-6.4-0.6-12.7,1.6-19.1,1c-3.8,1.7-8,0.6-12.1,1.2c1,1.2,2,0.7,2.9,0.7c6.5,0,13,0.2,19.5,0c5.9-0.2,11.7,0.8,17.6,1.1
			c1,0,1.9,0,3.4,0c-0.9-3.6-2.9-6.7-1.8-11.3c0,0,1.2-0.4,1.5-1.2c1.8-4.1,5.3-5.3,9.2-5.4c2.3-0.1,4.2-1.5,6.6-1.2
			c2.3,0.3,4.9,0.7,6.9-0.1c3-1.1,6.1-0.6,9-0.9c0.6-0.6,1.2-1.2,1.9-1.9c1.2,0.7,1.8,2.3,3.4,2.2c1.8,7.7,1.7,15.5,3,23.4
			c-1.3,0.6-3,0-4.7,0.4c-0.1,1.2-0.1,2.4-0.2,3.5c-0.3,0.1-0.5,0.4-0.8,0.4c-3.8,0-7.7,0.5-11.5-0.1c-8.8-1.4-17.7-0.7-26.6-0.9
			c-8.8-0.1-17.6-0.1-26.5,0c-1.5,0-3.1-0.3-4.5-0.7c-1.6-0.4-3.2-0.3-4.8-0.4c-1.8-0.1-3.7,0-5.5,0c-1.7,0-3.3,0-5,0
			c-1.8,0-3.7,0-5.5,0c-1.7,0-3.3,0-5.4,0c0-1.5-0.2-3,0.1-4.4c0.5-2.5-1.1-4.7-1.1-7.1c0.1-2.5,0.7-5.3-0.1-7.4
			C536.6,765.8,537.4,762.6,537,759.5z"/>
		<path d="M528.9,768.4c0,3.4,0,6.4,0,9.3c-4.9,1-9.7,1-14.5,1.5c-4.2,0.4-8.5,0.1-12.5,1c-4.2,0.9-8.4,0.4-12.6,0.9
			c-2.9,0.4-5.6,1.1-8.6,1c-1.2,0-1.7-0.7-2.5-1.4c0.3-7.2-1.4-14.3-1.2-21.4c0-0.6,0-1.3,0-2.3c2.9,0.3,5.5-0.4,8.1-0.9
			c2.7-0.5,5.6-0.2,8.5-0.1c2.1,0.1,3.8-1.5,6.1-1.1c1.9,0.3,4,0.2,6,0c4.1-0.3,7.6,2,11.4,2.6c2.9,0.4,3.6,3.6,5.8,5
			C525.2,764,526.9,766.4,528.9,768.4z"/>
		<path d="M528.7,767.9c-1.1-0.4-5.3-3.4-5.6-4.4c-0.7-2.3-3.1-2.4-4.3-4.1c-1.2-1.7-3.4-2-5.4-2.7c-2-0.7-4-1.6-6.5-2
			c0.6-5.8-1.8-11.5-0.9-17.3c0.3-1.9-1.5-3.1-1.1-5.1c0.3-1.8,0.1-3.6,0.1-5.9c0.8-0.6,1.8-1.4,3.2-2.4c2.2,0,4.2-2.1,6.5-3
			c3.3,1.1,6.5,2.2,10.2,3.4c0.5,0.7-0.1,2.1,0.1,3.4c0.7,4.7,1.4,9.3,1,14c1.7,2.7,1.1,5.7,0.9,8.6c-0.2,2.5,1.5,4.5,1.2,7.1
			c-0.3,2.4,0,5-0.1,7.5C527.9,766,529.7,766.3,528.7,767.9z"/>
		<path d="M505.2,733.5c-5.4,1.9-10.6,0.8-15.5,1.7c-4.6,0.9-9.1,0.7-13.6,0.7c-2.5,0-4.5,1.6-7.1,1.2c-2.3-0.4-4.9-0.7-6.9,0.1
			c-2.3,0.8-4.4,0.8-6.6,0.8c-0.8-0.7-0.3-2-1.6-2.5c0-2.7,0-5.5,0-8.3c-1-0.1-1.7-0.2-2.9-0.3c0.7-3.5-1.7-6.8-0.8-10.4
			c0.9-0.6,2.1-0.7,2.9-2c0-1.2,0-2.6,0-4c4.5-2.1,9.1-1.3,13.5-1.5c0.4-0.4,0.8-0.8,1.4-1.4c0.7-3.6-1.7-7.3-0.9-11.1
			c0.8-3.8-1.5-7.3-0.9-11c3.7-1.9,7.6-1.7,11.4-1.3c3.5,0.3,6.6-1.6,10.4-1c-0.6,4,1.6,7.8,1,11.8c-0.6,4,1.4,7.7,1,11.6
			c1.2,1.1,2.5,0.1,4.3,0.9c-0.9-4.1,0.9-7.7-1.3-11c0.4-2.9-0.9-5.9,0.8-8.7c0.3-0.5,0.5-1.5,0.2-1.9c-1.7-2.2-0.9-4.8-0.9-7.1
			c-0.1-7.8,0-15.6,0-23.1c0.6-0.8,1.1-0.5,1.8-0.5c1.8,10.7,1.9,21.7,3.5,32.8c0.8,0.8,2.3-0.4,3.4,0.4c1.1,0.9,1.5,2,1.1,3.6
			c2.4,0,4.5,0,6.9,0c0.1,1.8,0.7,3.4,1.8,5.1c4.1,0,8.5,0,12.8,0c0.5,0.5,0.9,0.9,1.6,1.6c-0.6,4.9,2,9.8,0.7,15.4
			c-0.5,0.6-1.6-0.3-2.4,0.2c-1.4,3.4,1.8,6.4,0.4,9.9c-3.6,0.1-6.5-2.8-10-2.9c-3.1,1.6-6.3,3.2-9.5,4.8
			C505.2,728.6,505.2,731,505.2,733.5z"/>
	</g>
</g>
</svg>
