<?xml version="1.0" encoding="utf-8"?>
<!-- Generator: Adobe Illustrator 17.1.0, SVG Export Plug-In . SVG Version: 6.00 Build 0)  -->
<!DOCTYPE svg PUBLIC "-//W3C//DTD SVG 1.1//EN" "http://www.w3.org/Graphics/SVG/1.1/DTD/svg11.dtd">
<svg version="1.1" id="Layer_1" xmlns="http://www.w3.org/2000/svg" xmlns:xlink="http://www.w3.org/1999/xlink" x="0px" y="0px"
	 viewBox="0 0 1440 937" enable-background="new 0 0 1440 937" xml:space="preserve">
<g>
	<g>
		<path d="M1025.7,670.8c-1,1-1.5,1.5-1.9,1.9c-0.3,0.1-0.6,0.2-0.9,0.2c-6.7-0.5-13.3,1.8-20.1,1c-3.9,1.6-8.2,0.3-12,1.2
			c-3.6,0.8-7,0.7-10.5,0.9c-2.7-12.8-5.3-25.3-8-38.3c1.8-2.6,0.2-6.1,0.9-9.6c7.6,0.1,15-2.5,22.6-0.4c0.5-0.5,1.1-1.1,1.7-1.7
			c2.6,0,5.4,0.6,7.9-0.1c3.7-1.2,7.4-0.6,11.3-0.9c2.4,6.7,2.8,14,5,20.5c1.9,1.1,3.6,0,5.3,1c-0.6,2.5,0.7,4.8,1.2,7.3
			c1.1,0.6,2.8-0.4,3.6,2c0,0.8,0,2.3,0,4.1c-0.2,0.4-1,0-1.7,0.5c-0.7,3.1,2,6,0.7,9.4c-0.2,0.2-0.6,0.6-1.1,1.1
			C1028.4,670.8,1027,670.8,1025.7,670.8z"/>
		<path d="M998.3,593c1.5,0,2.8,0,4.3,0c0.4,0.4,1.2,0.9,1.2,1.4c0.2,4.1,1.6,8.1,2.4,12.1c0.7,3.6,1.3,7.3,2.6,10.9
			c0.8,2.1-0.8,4.6,1.1,5.6c0.3,1.9-0.7,2.2-1.2,2.9c-3.2,0-6.5,0-9.6,0c-1.4,0.8-2.6,1.4-3.9,2.1c-3.2-1.4-9.8-1.4-12.8,0.1
			c-1.5-2.4-2.6-5-3.2-7.7c-0.8-3.7-1.5-7.4-2.3-11.1c-0.8-3.6-1-7.4-2.6-10.9c-0.8-1.7-0.7-4-1.1-6c-0.7-4.3-1.7-8.6-2.8-12.8
			c-0.6-2.1-1-4.3-1.2-6.5c-0.2-2.7-1.8-5.3-1.1-8.1c-1.8-3.9-1.2-8.3-3-12.3c-0.3-0.7,0-1.6,0-2.4c6.8-4.5,14.4-3.1,21.6-3.3
			c1.6,3.5,2.5,7,2.5,10.4c1.1,1.6,1.4,3.3,3,4.1c-0.6,2.7,0.8,5.6-0.9,8.1c2.4,4.4,4.5,8.8,4.9,14c0.2,1.7,0.3,3.8,1.3,5.4
			C998.3,590.2,997.6,591.4,998.3,593z"/>
		<path d="M1053.4,558.2c2.7,1.1,2.7,3.7,3.4,5.7c0.6,1.5-0.3,3.6,1.1,5c-0.4,4.2,2,8.3,0.7,12.8c-0.2,0.2-0.7,0.7-1.2,1.2
			c-2.3,0-4.7-0.4-6.9,0.1c-4.7,1.1-9.5,0.3-14.1,1.1c-3.4,0.6-6.8,0.2-10.1,0.9c-4.7,1-9.6,0.1-14.1,1.1
			c-5.1,1.2-10.1,0.1-14.8,0.9c-2.1-2.2-1.2-4.9-2.1-7.1c-1.2-2.9-2.1-5.8-3.7-8.5c-0.9-1.6-1.4-3.1-0.4-4.4
			c0.9-1.3,0.2-2.6,0.6-3.7c5.2-1,10.5-1.8,15.9-1.4c2.5,0.2,4.5-1.5,7.1-1.1c2.4,0.4,5.2,0.7,7.4-0.1c3.7-1.2,7.5-0.2,11.1-1
			c4.5-1,9.1-0.7,13.6-1C1049.3,558.8,1051.2,557.4,1053.4,558.2z"/>
		<path d="M1080.7,588.8c-0.9,2-2.9,0.9-4.4,1.4c-0.5,1.5-1.8,2.7-1.3,4.7c-4.2,0.4-8.5-0.2-12.5,0.7c-2.2-0.3-0.9-2.9-2.5-3.9
			c0.5-3.1-1.7-5.9-1.1-9c0.8-4.3-0.6-8.4-1.2-12.5c-0.5-3.2-0.8-6.5-2.6-10.3c0.1,0.1-0.5-0.5-1.1-1.1c-0.1-1.6-0.5-3.3,1.2-4.4
			c3.8-0.6,7.7,0.3,11.5-1.1c1.4-0.5,3.2-0.1,5.3-0.1c1.7,5.9,2.5,12,4.2,17.8C1078.1,576.6,1078.9,582.6,1080.7,588.8z"/>
		<path d="M1024.2,539c2.6,2.6,1,5.6,2.1,7.7c1.5,2.8,0.2,4.9-0.7,7.3c-2.5,0-5.1-0.3-7.5,0.1c-2.5,0.4-5,1-7.6,1
			c-2.4,0-4.9-0.9-7.1,0.9c-1.3-1.2-2.5-2.7-2.3-4.4c0.2-1.8-1.4-2.9-1.2-4.6c0.2-1.8,0.1-3.6,0.1-5.4c0.5-0.5,1-1,1.6-1.6
			C1009.2,540.8,1016.8,538.2,1024.2,539z"/>
		<path d="M1069.2,531c3.2,2.1,2,5.5,3.8,7.5c-0.7,3.8,1.5,7.3,0.9,11.1c-1.4,0.7-3.2,0.1-4.1,1.6c-0.6-0.6-1-0.9-1-1
			c-2.7,0.2-4.6,3-7.6,0.8c-1.1-0.8-3.4-0.6-4.9,0c-4.3,1.8-8.7,0.4-13.1,1c-0.7-6.4-3.6-12.3-3.2-19.1c1.5,0,3,0,4.4,0
			c6,0.1,11.9-1.7,18-1C1064.7,530.7,1067.1,531,1069.2,531z"/>
		<path d="M1117.4,506.9c0.9,0.9,1.8,1.8,2.5,2.5c0,4.2,0,8.3,0,12.6c-0.7-0.4-1.2-0.7-1.7-1c-1-0.2-1.3,0.8-2.1,1.4
			c0,1.3,0,2.8,0,3.9c-0.7,0.8-1.1,1.3-1.5,1.7c-2.5,0.3-4.1-1.7-6.2-2.1c-0.5-1-0.5-2.3-2-2.6c-1.6,1.2-3.5,2-5.9,1.8
			c-6.7-0.5-13.3,1.7-20.1,0.9c-1.2-0.1-1.5,1.3-3,0.9c-3-7.1-3.9-14.7-3.2-22.7c3,0,5.8-1.5,9-1.3c3,0.2,6,0.2,9.1-0.7
			c2.9-0.9,6.2-0.2,8.4-0.2c3.8,1.1,1.1,4.5,3.5,5.6C1108.5,506.3,1113,507.5,1117.4,506.9z"/>
		<path d="M1114.2,549.3c2.6-0.4,4.9-1.8,7.6-1.1c-4.4-8.2-5.5-17-6.3-26.1c0.3-0.2,0.8-0.9,1.9-1.1c1.1-0.2,1.5,1.4,2.4,0.7
			c0.7-0.7,1.5-0.5,2.3-0.6c4.5-0.3,9.1,0.7,13.6-0.9c1.2-0.4,2.6-0.1,3.8-0.1c0.7,1.4,1.2,2.7,1.8,3.9c1.1,0.4,1.6-0.3,2.1-0.9
			c0.5,0.5,0.9,0.9,1.4,1.4c-0.1,6.4,1.8,12.6,1.1,19c1.7,3.7,1,7.7,0.9,11.6c0,2.3,1.5,4.2,1.2,6.6c-0.3,2.3-0.7,4.9,0.1,6.9
			c1.3,3.7,0.7,7.4,0.8,11.1c0.1,3.1,1.7,5.9,1,9.1c-0.1,0.6,0,1.3,0,1.7c-0.6,0.6-0.9,0.9-1.4,1.4c-1.3,0-2.8,0-4.3,0
			c-0.9-1.5,0.3-3.3-0.7-4.8c-1.2,1.4-1.6,3.1-1.9,4.8c-1.6,0.4-2.1-1-2.9-1.6c-5.5-1.2-10.9,0.7-16.3,0.8c-2-3.7-2.5-7.6-3.3-11.3
			c-0.7-3.2-2.1-6.2-2.6-9.5c-0.4-2.2-0.6-4.6-1.4-6.9c-0.8-2.1-1-4.5-1.9-6.7c-0.2-0.6-0.4-1.6-0.1-1.9
			C1114.7,553.2,1113.6,551,1114.2,549.3z M1134.5,549.1c2.1,12.4,5.7,23,7.9,34c0.9-0.7,0.6-1.4,0.6-2c0-1.7,0-3.3,0-5
			c0.1-1.8-1.2-3.2-1.1-5.1c0.7-7.5-1.6-15-1-22.5c0-0.1-0.2-0.2-0.4-0.4C1138.4,547.5,1138,551.5,1134.5,549.1z"/>
		<path d="M1140,590.1c0.1,2.2,0.3,4,0.9,6c1.4,4.1,2.1,8.5,3.1,12.7c1.2,4.8,2.2,9.7,3.7,14.5c0.6,2.1,0.9,4.6,0,6.2
			c-1,1.8-0.2,3.5-1,5.5c-1.5,0-3.1,0.1-4.7,0c-4.9-0.4-9.6,1.9-14.6,0.8c-1.4-5.3-2.8-10.7-4-16.1c-0.7-3-3-6.3-0.4-9.5
			c-0.7-5.2,2.8-8.4,5.4-12.3c2.3-3.5,5.3-5.8,8.8-7.6C1138.1,589.8,1138.8,590,1140,590.1z"/>
		<path d="M1083.7,594.5c5.3-2,10.2-1,15-1.7c3.9-0.6,7.8-0.3,11.6-1c4.9-0.9,9.9,0,14.5-1.1c4.5-1,8.7-0.3,13.2-0.2
			c-1.3,0.6-2.5,1.2-3.8,1.8c-2.2,1-3.9,2.6-5.2,4.8c-1.7,2.8-3.7,5.5-5.9,8.8c0.3,2.6-0.1,5.7-1.5,9.1c-1.4,0-3.2,0-5,0
			c-5.7-0.1-11.3,1.7-17.1,1c-3.9,1.8-8,0.7-11.9,1c-1.1-0.8,0-2.1-0.9-2.8c-1.3-1.1-1.1-2.9-0.6-3.6c1-1.2,0.7-2.4,0.9-3.7
			C1087.5,602.5,1086,598.5,1083.7,594.5z"/>
		<path d="M1060.2,645.1c-4-0.8-7.1,1.5-10.6,0.9c-3.4-0.6-6.7,0.5-10.2,1.2c-2.4-5.6-2.6-11.7-4.3-17.3c-0.1-0.4,0.5-1,0.8-1.5
			c-0.6-0.6-1.2-1.2-1.9-1.9c0-2.5,0.2-5.2-0.1-7.8c-0.2-2.1,1.3-3.5,1.2-5.6c-0.1-1.8-1-4,0.9-5.6c0.1-0.1,0-0.3,0-0.5
			c-0.7-4.1,1.4-8,1-12.1c-0.4-3.3,2.2-6.2,0.8-9.3c1-0.9,1.5-1.9,3.1-1.5c0,5.5,0,11,0,16.7c2.6,0.5,4.5-1.7,7.2-0.5
			c-0.9-5.7,1.6-10.7,0.8-15.8c0.8-0.7,1.3-1.8,3-1.4c0.1,2.6,0,5.4,0.1,8.2c0,2.8,0,5.6,0,8.3c2.4,1,4.2-0.1,6-1.1c0-0.7,0-1.3,0-2
			c5-2.6,10.5-1.1,15.1-1.6c2.5-0.8,1.4-2.9,2-3.6c2.7-2.7,5.6-2.5,9-2.2c-1.2,4.3,1.8,7.8,2.4,11.8c0.6,3.7,0.9,7.3-0.3,11.1
			c0.6,2.2,1.5,4.5,1.7,7c0.4,3.8,1.7,7.3,2.7,10.9c0.6,2-0.1,4,1.2,6c0.8,1.3,1,3.6,1.4,5.4c0.6,2.9,1,5.4-0.1,8.2
			c-0.4,1.2-0.1,2.6-0.1,4.4c-4.6-0.6-8.9,1.4-13.4,1c-0.8,0.4-0.5,1.1-0.7,1.7c-0.7,0.8-1.6,0.1-2.5,0.5c-0.2-0.7-0.4-1.3-0.6-1.9
			c-2.2-1.3-3.9,0.9-5.9,0.7c-3.2-0.7-1.3-3.7-2.6-5.4c-1-1.4-1.2-3.6-1.3-5.4c-0.1-2.1-1.8-3.8-0.9-6c-2-0.3-3.6-0.7-5,1.1
			C1060.2,641.6,1060.2,643,1060.2,645.1z M1040.5,609c0.5-0.3,0.5-0.7,0-1C1040,608.3,1040,608.7,1040.5,609z"/>
	</g>
</g>
</svg>
