<?xml version="1.0" encoding="utf-8"?>
<!-- Generator: Adobe Illustrator 17.1.0, SVG Export Plug-In . SVG Version: 6.00 Build 0)  -->
<!DOCTYPE svg PUBLIC "-//W3C//DTD SVG 1.1//EN" "http://www.w3.org/Graphics/SVG/1.1/DTD/svg11.dtd">
<svg version="1.1" id="Layer_1" xmlns="http://www.w3.org/2000/svg" xmlns:xlink="http://www.w3.org/1999/xlink" x="0px" y="0px"
	 viewBox="0 0 1440 937" enable-background="new 0 0 1440 937" xml:space="preserve">
<g>
	<g>
		<path d="M453.5,317c-1,0-2,0-3.1,0c-1.2-3.9-1-8.1-2.4-12.2c-1.7,1.7-3.2,1.1-4.9,1.3c0.2-2.5-1.9-4.3-1.1-6.5
			c-0.9-0.9-1.8-0.4-2.8-0.6c-0.5-1.5-0.2-3.1-0.2-4.6c1.3-0.3,2.3-0.8,2.9-1.8c-1.9-2.2-0.5-4.7-1.1-7.1c2-0.6,4-1.2,6.1-1.8
			c0-2.4,0-4.8,0-7.1c5.4-2,10.8-1.6,16.1-1.5c2.5,0,4.5-1.5,7.1-1.1c2.4,0.4,5.2,0.7,7.4-0.1c3.1-1,6-0.6,9.2-0.9
			c0.1,5,1.1,9.8,1.4,14.6c0.2,3.7,0,7.6,0.9,11c1.5,5.4,0.2,10.7,0.9,16.2c-3.4,0-6.5,0-10,0c0-1.8,0-3.7,0-5.6
			c-2.6-1.3-4.6-3.2-7.7-3.3c-0.8-0.9-1.7-1.9-2.6-2.8c-0.3-0.1-0.5,0-0.8,0.3c-1.8,1.8-3.6,3.6-6.1,4.6c-1.8,0.7-3.5,2-2.8,4.5
			c-2,0.6-4,1.2-5.9,1.7C453.6,315.1,454.5,316.3,453.5,317z"/>
		<path d="M465.9,390.7c0.9-5-1.5-9.7-0.9-14.6c-1.9-3.4-1.2-7.1-0.8-10.5c0.3-2.3,0.8-4.7,0.8-7.2c-2.5-1.6-1.2-5.1-3.2-7.3
			c-1.4,0-2.8,0-4.5,0c-1.9-12.3-2.2-24.5-3.6-36.7c2.2-0.6,4.2-1.2,6.2-1.8c0.1-1.1,0.1-2.2,0.2-3.3c3.6-1.5,7-3.2,9.6-6.7
			c1.1,1.2,2.1,2.2,3.1,3.3c2.7-0.4,4.3,2.8,7.3,1.8c-0.3,5.1,0.2,9.6,1.9,14c0.1,0.1,0,0.3,0,0.5c-0.7,4.9,1.4,9.6,1.1,14.6
			c-0.3,5,1.6,10,0.9,15.1c1.7,2.7,0.9,5.7,1,8.6c0,3.1,1.5,5.9,1.1,9.1c-0.3,3-0.7,6.2,0.1,8.9c1.1,3.7,0.5,7.4,0.9,11.5
			c-1.6,0-3.1,0.1-4.5,0C477.2,389.4,471.9,391.9,465.9,390.7z"/>
		<path d="M403.8,381.1c1-4.1-1.1-7.3-0.9-11c0.3-3.5,0.5-7.1-1.3-10.8c3.7-0.5,7.2-1.4,10.6-1.2c7.4,0.3,14.6-1.8,22-1.1
			c4.4-1.8,9.1-0.2,13.5-1.1c4.9-1.1,9.7-0.6,14.5-0.9c1.7,0.6,1.5,2.5,2.6,3.4c0.4,3.1-0.1,6-0.9,9c-0.8,3.1,1.2,6,1,9.1
			c-0.9,1-2.2,0.5-3.3,0.4c-6,0-12,1.7-18,1c-4.2,1.7-8.8,0.3-13,1.1c-4.7,0.9-9.5,0.2-14,1.1C412.5,381,408.5,380.7,403.8,381.1z"
			/>
		<path d="M387.6,382c-2.1-4-1.3-8-1.7-11.8c-0.6-6.8-1.2-13.6-1-20.5c0-1.7-1.3-3.2-1-5.1c0.1-1.2,0.8-1.7,1.6-2.7
			c4.9,0.6,10-0.4,14.9-1c1.9,3.6,1.8,7.2,1.5,10.7c-0.3,3.6,1.2,7,1.1,10.6c-0.1,3.5-0.6,7.1,0.2,10.4c0.6,2.7,0.6,5.4,0.9,8
			C398.6,382.6,393,381.9,387.6,382z"/>
		<path d="M430.2,397.7c-0.4-0.4-0.7-0.7-1.1-1.1c0-4.1,0-8.3,0-12.3c5.9-0.8,11.7-1.8,17.6-1.2c1.8,0.2,3.1-1.9,5.3-0.7
			c-0.5,4.7,1.9,9.3,0.7,14.6c-1.3,0-2.7,0-4.1,0C442.5,396.8,436.6,399,430.2,397.7z"/>
		<path d="M384.4,406.9c-1.4-6-1.7-11.8-1.2-17.8c1.8,0,3.6,0,5.2,0c1.2-1.1,0.2-2.4,1.1-3.8c0.6-0.3,1.7-0.9,2.7-1.4
			c1.8,0.7,2.1,2,1.9,3.7c6,1.4,11.8-0.6,17.9-0.7c-0.2,6.1,2.1,11.8,0.7,18.1c-1.2,0-2.6,0-4.1,0c-6-0.1-11.9,1.4-18,1.2
			C388.7,406.1,386.6,407.2,384.4,406.9z"/>
		<path d="M358.1,428.6c0,0-0.3-0.3-0.7-0.7c-2.9,1-5.7,1.8-8.8,0.3c-0.9-0.5-2.4-0.6-3.4-0.2c-3.5,1.7-7.1,0.5-10.5,1
			c-1.8-1.6-1.8-3.7-1.8-5.8c0-1.7,0.2-3.4-0.9-5.1c-0.9-1.5,0.2-3.4,1.8-5.1c0.4,0,1.6-0.1,2.7-0.1c1.1-0.6,1.3-1.7,1.7-2.7
			c3.9-1.6,5.8,3.1,9.3,2.8c1-1.9,0-3.9,0.6-5.8c5.8-0.9,11.6-1.4,17.4-1.4c3,0,5.9-1.4,9.4-0.6c-0.9,3.5,1,6.8,0.9,10.3
			c0,3.7,0,7.3,0,11.4c-3.1-0.6-5.9,0.9-8.9,1C364.2,428.1,361.2,427.5,358.1,428.6z"/>
		<path d="M314.1,416.8c-0.1-0.9-0.2-1.7-0.3-2.6c-1.2,0-2.3,0-3.3,0c-0.2-0.4-0.5-0.7-0.5-1c0.3-2.5-0.6-5.1,0.8-7.7
			c1.1-2-0.9-4.9,1.1-7c0.3-0.4,0.2-1.3,0-2c-0.6-3,1.4-5.6,1.1-8.6c-0.3-2.7,1.7-5.3,1-8.1c1.7-2,0.3-4.5,1.1-6.5
			c0.8-2.1,1-4.1,0.8-6.1c-0.2-1.9,1.4-3.2,1.1-5.1c-0.2-1.5-0.4-3,0.8-4.7c0.8-1.1,0.1-3.2,0.1-5.1c1.9,0,3.8,0,6.1,0
			c-0.5,2.5,0.3,4.9-0.9,7.5c-1,2.1,0.2,5.1-1.2,7.5c0.7,3.6-0.9,7-1.2,10.6c-0.3,3-0.2,6.3-1.7,9.2c-0.2,0.4-0.4,1.3,0.4,1.9
			c2.5-0.4,4.7-2.1,7.7-1.9c-0.5-4,0.1-7.6-0.9-11.4c-0.9-3.4-0.5-7.3-0.1-10.9c0.5-5.8-1.5-11.3-1.1-17.1c3.5-2.1,7.5-1.5,11.3-1.6
			c2.1,0,4.2,0.5,5.9-1.2c0.7,0.6,1.1,1.1,1.8,1.7c-0.9,4.1,1.1,8.1,1,12.3c-0.1,4.2-0.6,8.4,0.1,12.5c0.8,4.7,0.7,9.4,0.9,14.2
			c-4.3,2.8-9.2,0.8-14.2,1.8c1.5,1.9,4,2.2,5.1,4.4c-0.2,3.3,1.5,6.6,1.2,10.3c-0.4,3.5-0.1,7-0.1,10.6c-1.4,1-3.2,0-4.7,0.7
			c-0.3,1-0.7,2.1-1.9,2.8C325.8,415.3,320.3,418,314.1,416.8z"/>
		<path d="M330.4,338c-0.1-9-2.2-17.5-1.4-26.2c0.1-1.1,0-2.3,0-3.7c1.8,0,3.4-0.1,5,0c4.2,0.3,8.2-2,12.5-0.8
			c1.4,6,1.8,12.2,1.3,18.5c-2.3,0.2-4.4,1-6.5,1.6c-3.2,0.9-5,3.9-7.4,6.2C334,335.9,331.2,336.1,330.4,338z"/>
		<path d="M331.1,346.8c-0.2-2.5-1.9-4.6-0.9-7.6c2.9-2.6,5.3-6.2,7.7-9.8c3.4-1,6.9-2,10.2-3.1c1.2-0.4,2.3-0.3,3.4-0.3
			c7,0.2,14-1.7,21-1c2.9-1.5,6-0.8,9.4-1c-0.5,5.1,1.7,9.9,1.1,15c-0.2,1.2-0.1,2.4,0.9,3.7c0.8,1.1-0.1,2.5-1.5,3.4
			c-7.7-0.6-15.5,1.8-23.3,1c-4.4,1.6-9.2,1.7-13.5,0.8C340.8,346.7,336.2,347.6,331.1,346.8z"/>
		<path d="M407.1,344.6c-0.1-0.4-0.2-0.9-0.4-1.5c-1.7,0-3.5,0-5.3,0c-0.3-0.7-0.5-1.3-0.8-2.2c-4.7,1.6-9.5,1.1-14.4,1
			c-1.1,0-1.4,1.5-2.7,1c-1.2-0.5-0.5-1.7-0.5-2.5c0.5-6.6-2.1-13.1-0.9-19.6c0.8-4.7,1.5-9.5,0.7-14.1c-0.8-4.4-0.5-8.7-0.8-13.1
			c0-0.5,0.1-0.9,0.2-1.7c4.3,0.2,8.4,0.1,13.1-1.7c0,0,0.6-0.6,1.2-1.2c0.8,0.2,0.5,1,0.8,1.7c2,0,4.1,0,6.4,0
			c0.7,2.7,1.9,5.2,1.3,8.1c1.8,0,3.2,0,4.7,0c0.5-0.9,0.7-2.1,2-2.9c1.2,0,2.6,0,4.5,0c-0.6-3.2,0.9-6.3-1.3-8.9
			c0.7-1.2,1.2-2.2,3.1-1.9c0,1.8,0.1,3.8,0,5.7c-0.2,1.9,1.6,3.1,1.1,5.1c2.4,0,4.5,0,7,0c0-3.6,0-7.2,0-10.7
			c0.7-0.1,1-0.2,1.8-0.3c3,13.8,3.1,27.9,4.5,41.9c-1.3,0.2-2.1,0.2-3,0.4c0,2.1,0,4.2,0,6.7c-2.2-0.1-3.8,1.4-6.1,1.4
			c0,2.8,0,5.6,0,8.6C417.8,343.8,412.8,346.1,407.1,344.6z M419.5,328.2c1.2-0.3,2.1,0.3,2.5-0.8c-0.7-0.7-1.3-0.6-1.9,0.6
			c-0.5-0.1-0.8,0.1-0.9,0.6c0,0.1,0.2,0.3,0.3,0.3C419.9,328.8,420.1,328.5,419.5,328.2z M421.4,324.2c0.8-0.9,1.4-1.6,2-2.4
			c1.1-0.4,2.5,0.8,3.6-0.7c-1.8,0-3.3,0-4.8,0C421.7,322,420.6,322.4,421.4,324.2z"/>
	</g>
</g>
</svg>
