<?xml version="1.0" encoding="utf-8"?>
<!-- Generator: Adobe Illustrator 17.1.0, SVG Export Plug-In . SVG Version: 6.00 Build 0)  -->
<!DOCTYPE svg PUBLIC "-//W3C//DTD SVG 1.1//EN" "http://www.w3.org/Graphics/SVG/1.1/DTD/svg11.dtd">
<svg version="1.1" id="Layer_1" xmlns="http://www.w3.org/2000/svg" xmlns:xlink="http://www.w3.org/1999/xlink" x="0px" y="0px"
	 viewBox="0 0 1440 937" enable-background="new 0 0 1440 937" xml:space="preserve">
<g>
	<g>
		<path d="M789,602.6c2,1.3,2.5,3.6,3.5,5.5c1,1.9,0.4,4.4,2.1,6.1c0.6,0.5,0.5,4.2,0.4,5.5c-0.1,2.3,0,4.6,0,7.2
			c-1.5,0-2.9,0.7-4.2-0.5c-0.3-0.3-0.9-0.4-1.3-0.3c-6.6,0.7-13-1.5-19.6-0.9c-3,0.3-5.6-1.3-8.6-1.1c-3,0.2-6.2,0.7-8.9-0.1
			c-3.8-1.2-7.4-0.8-11.1-0.7c-3,0.1-5.6-1.5-8.6-1.2c-3,0.3-6.2,0.7-8.9-0.1c-4.1-1.1-8.1-0.7-12.1-0.8c-1.2,0-1.7-0.8-2.6-1.6
			c0-1.3,0-2.8,0-4.3c-2.4,0-4.2-1.8-6.4-1.2c-1.3-0.7-1.5-1.9-2-3c-2.6,0-5.6,0.8-7.8-0.2c-2.7-1.1-5.1-0.7-7.7-0.7
			c-2.6,0-5.1-0.3-8.1-1.5c0-2.7-0.1-5.8,0-8.9c0.2-2.9-0.9-5.9,1-8.6c-0.7-3.3,1.7-6.3,1-9.6c-0.4-2,1.4-3.2,1.1-5.1
			c-0.3-1.7,0-3.3,0.7-5.1c0.9-2.3-0.3-5.1,1.2-7.5c-0.7-3.6,1.5-7,1-10.6c-0.3-1.7,1.4-2.8,1.1-4.6c-0.2-1.3-0.3-2.7,0.7-4.2
			c0.8-1.1,0.2-3.2,0.2-5.3c3.8,0.1,7.6-1.1,11.4,0.6c1,0.4,2.3,0.3,3.4,0.2c7.2-0.5,14.3,1.7,21.6,1c4.6,1.8,9.4,0.8,14.1,1
			c2.4,0.1,4.6,1.8,7.4,0.8c-0.6-2.8,1.5-5.5,1.2-8.8c4.8,2,9.7,0.4,14.2,1.2c4.7,0.9,9.4,0.8,14.1,0.9c1.5,1.6,1.6,3.6,1.7,5.7
			c0.1,3.1-0.7,6.2,0.5,9.3c1,2.8,1,5.8,2.3,8.5c0.6,1.3,0.5,3,1,4.6c0.5,1.4,0.4,3,1,4.6c3,8.3,5.4,16.7,8.5,25
			C788.4,596.6,789.2,599.4,789,602.6z M752.2,569.1c2,1.2,4.6,1.3,7.8,0c-2.9,0-5.4,0-8-0.1c0-0.3,0-0.7,0-1c-4.3,0-8.6,0-12.9,0
			c0,0.3,0,0.7,0,1C743.4,569,747.7,569,752.2,569.1z M766.8,594.1c-4.1-0.3-7.9,0-11.8-0.9c-4-0.9-8.3-0.1-12.5-0.9
			c-4.6-0.9-9.5-0.2-15-0.2c2.3,2,4.5,2,6.4,2.1c0.5,2.2-0.7,4.4,1.9,6c7.4-1.1,15.1,1.3,22.9,0.9c1,0,2.1-0.2,2.9,0.2
			c2.5,1.4,4.9,0.7,7.9,0.6C768.4,598.9,767.6,596.4,766.8,594.1z M723.8,566.8c0-0.3,0-0.5,0.1-0.8c-2.3,0-4.6,0-6.8,0
			c-2.3,0.1-4.7-0.3-6.9,0.8C714.7,566.8,719.2,566.8,723.8,566.8z M710.7,590.2c-1.8,0-3.7,0-5.4,0c-0.5,0.5-0.4,1-0.2,1.6
			c1.4,0.7,3.3-0.5,4.4,1.2C710.4,592,711.5,591.6,710.7,590.2z"/>
		<path d="M614.3,531.3c3.3-1.3,6.1,0.9,9.2,0.8c3.2-0.2,6.5-0.6,9.4,0.1c2.3,0.6,4.1,0.2,6.2,0c3.4-0.2,7.1-1.3,10.6,0.7
			c0.9,0.5,2.3,0.2,3.5,0.1c7.5-0.6,14.9,2.1,22.1,0.8c1,1.1,1.7,1.6,1.7,2.8c-0.1,5.2,0.6,10.4-0.2,15.4c-1,5.6-0.5,11.4-2.8,16.8
			c0.7,3.8-1.5,7.3-1,11.1c0.7,5.4-1.1,10.7-1,16.1c-1.4,1.7-0.9,3.7-1,6c-2.8-0.3-5.6,1-8.4-0.8c-0.8-0.5-2.3-0.2-3.4-0.1
			c-7.1,0.6-14-1.6-21.1-1c-0.8,0.1-1-0.7-1.8-1.1c-0.2,2.2-1.7,4.1-1.3,6.5c0.3,2.2-1.3,4.2-1.1,6.6c0.2,1.9-0.8,3.9-1.3,5.9
			c-0.1,0.4-0.7,0.7-1,1.1c-3.4-1.7-7-0.9-10.6-0.9c-3.6,0-6.9-2-10.9-0.8c0-7.5,0-14.8,0-21.9c-1.4-0.7-3.1,0.1-4.1-2.5
			c0-5.1-0.7-11.3,0.2-17.3c0.7-4.7,0.7-9.7,2.8-14.3c-0.7-3.3,1.5-6.3,1-9.6c-0.3-2.3,0.9-4.4,1.2-6.5c0.3-2,0.8-4,0.8-6.1
			c-0.1-2,1.7-3.5,1-5.6C612.7,532.3,613.8,531.8,614.3,531.3z"/>
		<path d="M614.1,530.5c-0.5-1.9,0.2-3.5,1.3-5.3c4.3-0.6,8.3-3.8,13.1-3.2c3.3,2.8,8.7,2.1,11,6.8c6.5,0.4,13.3,1.8,20.1,1.2
			c1.9-0.2,3.2,1.5,5.1,1.1c1.6-0.3,3.3-0.1,5.2-0.1c-0.3-3.1,0.9-5.6,2-7.8c2.4-1.1,3.6,1.8,5.5,0.6c1.2,10.7,2.8,9.5-0.1,27.1
			c-0.5-2.5-0.3-5-0.3-7.6c0-2.6,0-5.3,0-7.9c-0.4-0.4-0.8-0.8-1.1-1.1c-0.5-0.7-1.3-0.4-1.9-0.4c-8.4,0.6-16.6-1.7-25-1.1
			c-2.1,0.2-3.8-1.6-6.1-1c-1.8,0.4-3.8-0.5-5.6,0.9c-0.7,0.6-2.5,0.5-3.4,0c-2.6-1.6-5.4-0.8-8.1-0.9
			C621.9,531.8,618,532.5,614.1,530.5z"/>
		<path d="M609.5,553.5c-2.4-1.2-1-3-1.7-4.2c-1.9-1.2-4.6,0.9-6.3-1.2c-1.6,0.8-1.4,2.4-1.7,3.8c-0.5,0-0.9,0-1.4,0
			c-0.7-1.1-0.2-2.3-0.3-3.4c-0.8-1.6-2.9-1.4-3.8-2.9c1.8-3.2,0.2-6.7,1.1-10.5c0.3-0.2,1.1-0.8,1.8-1.3c-0.7-5.5,1.6-10.3,2-15.5
			c0.2-0.4,0.7-0.4,1.6-0.3c-0.2-2.5,2-3.9,2.7-5.8c2.4,2.3,2.5,5.8,3.9,8.8c0.6-1.2,1-2.4,2.1-3c2.5,5.3,1,10.9,1.6,16.7
			c0.1,0.4,0.9,0.2,1.9,0.4C611.8,541.1,611.4,547.1,609.5,553.5z"/>
	</g>
</g>
</svg>
