<?xml version="1.0" encoding="utf-8"?>
<!-- Generator: Adobe Illustrator 17.1.0, SVG Export Plug-In . SVG Version: 6.00 Build 0)  -->
<!DOCTYPE svg PUBLIC "-//W3C//DTD SVG 1.1//EN" "http://www.w3.org/Graphics/SVG/1.1/DTD/svg11.dtd">
<svg version="1.1" id="Layer_1" xmlns="http://www.w3.org/2000/svg" xmlns:xlink="http://www.w3.org/1999/xlink" x="0px" y="0px"
	 viewBox="0 0 1440 937" enable-background="new 0 0 1440 937" xml:space="preserve">
<g>
	<g>
		<path d="M566.4,479.9c0.1,1.5-1.7,2.1-1.4,3.6c4.6,1.7,9.1-0.7,13.6-0.5c2.1,8,1.2,15.8,1.4,23.5c-0.5,0.5-0.9,0.9-1.3,1.3
			c-17.4,1.7-34.6,5-52.3,8.2c-0.4-0.6-1-1.5-1.3-1.9c-2.7-0.4-4.6,0.1-6.6,0.8c-1.9,0.7-4.3-0.9-6.1,1.1c-2.8-0.7-5.3,1.4-8.1,1
			c-0.9-0.1-1.8,0-2.7,0.7c-1.2,0.9-2.5,0.2-3.6-1.3c0-3.2-0.6-7,0.1-10.4c0.9-4.4,1.7-8.9,2.5-13.4c0.8-4.2,2.3-8.2,2.5-12.6
			c0.2-3.9,1.9-7.6,2-11.6c1.7-1.5,0.9-3.5,0.8-5.1c-0.4-6,1.8-11.7,2.2-17.7c0.1-0.9,1.1-2.2,0.7-3.8c3.3,0.6,6.1-0.1,9.1,0.9
			c2.8,1,6.3,0.2,9.6,0.2c2.2-5.3,2-11.3,3.7-16.7c3.3-1.4,6.3,1.2,9.6,0.6c0-4.6,0-9,0-13.9c-2.6-1.3-5.6-2.1-8.9-2
			c-3.2,0-6.3,0-9.5,0c-0.5-0.5-0.9-0.9-1.8-1.8c0-4.8,0-9.9,0-15c0-0.2-0.4-0.5-0.5-0.5c1.6-5.2,1.6-10.6,3.7-15.6
			c2.8,1.5,5.6,0.7,8.2,0.8c2.8,0.1,5.6,0,8.4,0c0.6-2.6,2-4.9,1.3-7.6c8-1.6,15.7,1.8,22.9,0.5c3,1,1.9,3.2,2.5,5.1
			c1.8,0,3.6,0.1,5.3,0c3.6-0.2,7.1,0.6,10.6,0.9c3.5,0.4,7.1-0.4,10.5,0.2c4.9,1,9.8,0.9,14.8,0.8c2,0,3.5,1.3,5.9,1.2
			c-0.7,1.7-0.9,3.2-2.2,4.3c-0.4,2.5,0.5,5.1-1,7.6c-0.5,0.9-0.3,2.3,0,3.4c0.9,4.4,0.5,4.3,0.1,9.2c-0.3,3.1-1.1,6-1.3,9
			c-0.6,0.6-1.2,1.2-1.8,1.8c0,3.1,0,6.3,0,9.4c0,3.2-0.3,6.4,0.1,9.5c0.4,3.2-1.9,5.9-0.9,9.4c-2.6,0.4-5.1,0.3-7.5,0.2
			c-7.2-0.3-14.3,1.9-21.7,0.9c0,5.9-0.9,11.5,0.2,16.7c1.4,6.4,0,12.7,1.1,19.4c-2.5,0-5.1,0.8-6.7-0.2
			C570.4,479.5,568.4,480.5,566.4,479.9z M545.8,488c1.5-1.1,2.4-1.8,3.3-2.5c-1.1-3.9,2.2-7.6,0.4-11.4c-0.2,0-0.4,0-0.5,0
			c-4.5-0.4-9.1,0.8-13.5-1c-1.3-0.5-2.6,0-3.5,1.5c0.3,5-2.8,9.9-1.8,15.5C535.8,490.1,541.1,487.5,545.8,488z"/>
		<path d="M608.1,439.8c0-8.6,0-17.1,0-25.6c0.5-0.1,1-0.2,1.5-0.3c0.8-3.2,1.2-6.5,1.7-9.8c0.4-2.5,1.4-5.4,0.5-7.5
			c-0.8-2-1.2-4.2-0.6-5.6c0.9-2.3,0.6-4.4,0.9-6.6c1.2-0.4,0.6-1.8,1.4-2.4c3,0,6,0,9.1,0c0.4,0.4,0.8,0.9,1.4,1.6
			c0,5,0.4,10.4-0.1,15.6c-0.3,3-0.5,6.2-1.7,9.2c-0.8,2,0.4,4.5-1.1,6.5c0.8,3.1-1.5,6-1,9.1c0.3,1.7-1.5,2.8-1.1,4.6
			c0.3,1.4-0.3,2.7-0.8,4.1c-0.7,2.1-0.2,4.6-0.2,7C614.7,439.8,611.6,439.8,608.1,439.8z"/>
		<path d="M623.1,382c-3.2,0-5.9,0-8.6,0c-0.6-0.6-1.2-1.2-1.8-1.8c-1.3-0.6-3.3,0.6-4.4-1.5c-1.3-5.4,0.6-10.8,0.8-16.3
			c0.4-0.4,0.9-0.9,1.3-1.3c0.3,0.3,0.7,0.6,1.1,1c0.9-1,0.2-2.3,0.5-3.6c0.7-0.6,1.6-1.4,2.6-2.2c2.4,1.8,2.5,4.7,2.4,7.4
			c2,1.2,1.9-0.4,2.3-1.3c0.2-0.2,0.4-0.1,0.7,0.2c0.6,0.6,1.1,1.1,1,2.1c-0.1,1.2,0,2.3,0,3.5C621.1,372.7,620.3,377.5,623.1,382z"
			/>
	</g>
</g>
</svg>
