<?xml version="1.0" encoding="utf-8"?>
<!-- Generator: Adobe Illustrator 17.1.0, SVG Export Plug-In . SVG Version: 6.00 Build 0)  -->
<!DOCTYPE svg PUBLIC "-//W3C//DTD SVG 1.1//EN" "http://www.w3.org/Graphics/SVG/1.1/DTD/svg11.dtd">
<svg version="1.1" id="Layer_1" xmlns="http://www.w3.org/2000/svg" xmlns:xlink="http://www.w3.org/1999/xlink" x="0px" y="0px"
	 viewBox="0 0 1440 937" enable-background="new 0 0 1440 937" xml:space="preserve">
<g>
	<g>
		<path d="M745.6,535.1c-0.6-0.6-1.1-1.1-1.4-1.4c-1.2-5.6,0.4-11,1-16.2c0.6-4.7,0.5-9.8,2.8-14.3c-0.7-3.3,1-6.3,1.1-9.6
			c0.1-3,1.1-6,0.9-9.1c0-0.3,0.6-0.7,1.1-1.2c5.8,1.3,11.6,2.6,17.6,3.9c1.4,1.8,1.3,4,1.3,6.3c0,2.3-0.4,4.7,0.1,7
			c1.3,6.8,0.2,13.8,1.2,20.6c0.7,4.9,0.4,9.7,0.9,14.6C763,537.1,754.3,534.1,745.6,535.1z"/>
		<path d="M646,492.2c0-4,0.1-7.1,0-10.3c-0.1-1.9,0.2-3.7-0.8-5.7c-0.9-1.8-0.2-4.3,0.7-6.5c2.1-5.2,4.6-10.1,7.3-14.8
			c3.1-0.1,4.9,1.9,7.9,2.9c3.6-0.1,7.6,1.6,11.7,2.6c1.8,0.4,3.8,0,5.4,1.4c0.5,0.5,2.3,0.6,3.1-0.7c1.5,1.3,4.3,0.4,4.9,2.8
			c1.4,0,2.7-0.3,3.7,0.1c7.2,2.5,14.9,3.4,22.2,5.6c0.1,0,0.2,0.2,0.3,0.3c1.8-0.9,1.8-1,4.2-0.9c0.9,2.3,3.4,2.4,5.2,2.8
			c4.7,1.1,9.4,2.3,14.2,3.1c0.8,0.1,1.5,0.3,2.2,0.7c1.1,0.7,2.5,0.7,3.3-1.1c3,2.2,6.4,3,9.4,4.5c-0.1,2.6,0.2,4.7-0.9,6.9
			c-0.9,1.9,0.7,4.5-1,6.6c-0.4,0.5-0.1,1.6-0.1,2.4c0,3.2-1.4,6.2-1.7,9.3c-0.4,3.8-1.9,7.5-1.2,11.7c-18.5-4.3-36.7-8.6-54.4-12.7
			c-1.3-1.5-0.2-3-1.1-4.2c-0.5,0-1.2-0.1-1.9-0.1c-0.9,0.8-0.8,2.4-2.5,3.1C673.1,498.7,659.5,496.2,646,492.2z"/>
		<path d="M640.3,526.2c-2-1.8-4.5-1-6.4-1.2c-2.1-1.1-3.7-1.9-5.9-3.1c-3-0.9-6,2-10,2.1c0-1.8,0-3.6,0-5.4c0-3.7-0.1-7.3,0-11
			c0.1-2-0.7-4.1,0.8-6.2c1.1-1.6-0.3-3.9,1-6.1c1-1.7-0.3-4.5,1.2-6.5c-0.8-3,1.2-5.6,1.1-8.6c-0.1-2.5,1.6-4.9,0.9-7.6
			c2.3-2-0.2-5.1,1.8-7.3c0.5-0.5,0.2-1.9,0.2-2.9c0-3,0-6,0-9.2c2-0.7,1.7-3.6,4.2-4.5c1.9,0.9,2.1,3.7,4.2,4
			c1.2,1.4,0.1,2.9,1.2,4.3c4.6,2.3,10.4,1.6,15.6,4.4c-1.6,3.3-3.2,6.6-5.1,10.4c0.2,1.6-0.1,3.7,0.8,6c0.8,2.2,0.2,4.9,0.2,7.4
			c0,2.3,0,4.7,0,7c0,2.4,0,4.7-0.9,7.1c-0.7,2-0.1,4.3-1,6.6c-0.8,1.9-0.7,4.4-0.9,6.5c-0.3,2.4-1.4,4.6-1.2,7.1
			C642.2,522,641.9,524.1,640.3,526.2z"/>
		<path d="M620.5,485.8c-0.8-0.6-1.8-1-2.8-0.8c-2.2,0.5-1.2,3.1-2.5,4.3c-2.2-3.8-2.2-3.8-4.5-5.1c-0.8,0.3-1.6,0.7-2.5,1.1
			c-0.6,0.6,0,1.5-0.3,2.3c-0.3,0.5-0.8,0.4-1.7,0.4c-0.4-4.3,0-8.7-0.2-13.1c-0.2-4.2,2-8.2,0.8-12.9c3.2,1.6,6.3,0.9,9.2,0.9
			c3,0.1,5.8,2.1,9.2,0.6c-1.2,7.5-3,14-3.3,21.1C621.6,484.9,621.1,485.3,620.5,485.8z"/>
		<path d="M661.1,521.2c-3.5-1.8-7.2-1.1-11.1-1.3c-0.4-6.2,1-11.9,2-17.6c9-1.3,6.4-0.9,12,1.2c-0.8,2.9,0.6,5.9-0.9,9.1
			C662.1,515,663.7,518.4,661.1,521.2z"/>
	</g>
</g>
</svg>
