<?xml version="1.0" encoding="utf-8"?>
<!-- Generator: Adobe Illustrator 17.1.0, SVG Export Plug-In . SVG Version: 6.00 Build 0)  -->
<!DOCTYPE svg PUBLIC "-//W3C//DTD SVG 1.1//EN" "http://www.w3.org/Graphics/SVG/1.1/DTD/svg11.dtd">
<svg version="1.1" id="Layer_1" xmlns="http://www.w3.org/2000/svg" xmlns:xlink="http://www.w3.org/1999/xlink" x="0px" y="0px"
	 viewBox="0 0 1440 937" enable-background="new 0 0 1440 937" xml:space="preserve">
<g>
	<g>
		<path d="M615.3,464.9c1.7,0.5,3.4-0.6,5.1,0.9c0.5,0.4,1.6,0.3,2.4,0.2c6.7-0.8,13.3,1.5,20,1c0.6,1.8-0.6,4.1,2.2,5
			c1.5,0,3.6,0.2,5.5-0.1c3.2-0.5,6,1.2,9.1,1.1c3-0.1,6.2-0.6,8.9,0.1c3.1,0.8,6.1,0.7,9.1,0.9c0.5,0.5,1,1,1.5,1.5
			c0,4-0.1,8,0.1,12c0.1,2-0.4,3.9-1.5,5.4c-1.3,1.8-1.6,4-2.4,6c-0.9,2-2,3.6-3.5,5.1c-6.4,0-12.8,0-19.5,0c0-1.2,0-2.3,0-3.7
			c-2.7,0-5.3,0-8,0c-0.1,1.1-0.1,2.3-0.2,3.4c-7.5,1.6-14.9-1.1-22.5-0.6c-0.5,0.6-1.1,1.1-1.8,1.8c-2.7,0-5.5,0-8.3,0
			c-0.3-0.3-0.7-0.7-1.4-1.4c0-6.8,0-13.9,0-21C612.7,477,612,470.5,615.3,464.9z"/>
		<path d="M683.6,484.2c0.1,2.3-3.7,2.1-4.4,4.6c0-4.5,0-8.9,0-13.2c-0.6-0.6-1.1-1.1-1.7-1.7c-2.6,0-5.4,0.6-7.8-0.1
			c-4.7-1.4-9.4-0.4-14.5-1c-0.2-3.2-0.4-6.2,1.6-9.4c2.3-3.8,4.5-7.8,6-12c3.3-9,8.5-17.1,12.2-25.9c3.5-8.2,7.5-16.2,11.9-24
			c1-1.8,0.6-4.1,2.6-5.6c2.6,1.5,5.7,1.1,8.5,2c3.3,1,6.6,2.2,10.1,2.2c1.1,0,2.7,0.9,3.7,2.4c0,0.5,0.1,1.3,0,2.1
			c-0.5,4.6,0.6,9.1,1,13.6c0.2,2.8-0.7,5-2.7,6.9c-1.8,1.7-3.3,3.4-3.4,6.1c0,0.8-0.7,1.8-1.2,2.4c-1.7,2-2,4.3-1.7,5.9
			c-1,3.4-3.2,4.9-5,6.8c0,0.6,0,1.3,0,2c-0.9,0.9-1.9,1.9-3,2.9c0.4,3.1-1.7,5.5-3,8.5c0,0.9-0.1,2.2,0,3.6
			c0.1,1.4-0.9,2.9-1.5,3.3c-4.4,2.5-4.3,7.6-6.9,11.1C683.3,479.6,684.4,481.4,683.6,484.2z"/>
		<path d="M643.9,415.1c0.6-10.5-1.4-20.9,2.3-31.1c3.1,0,6.4-0.5,9.4,0.1c4.9,1.1,9.9,0.1,14.6,1.1c4.8,1,9.5,0.1,14.1,0.9
			c5.4,1,10.8,0.4,16.1,1c2.7,0.3,5.4,0.9,8.2,0.8c2.1-2,2.8-5.2,5-7c1.9,0.3,2.1,1.6,2.7,2.7c0.6,1.1,1.8,1.9,2.9,3
			c-2.3,6.8-0.5,14-1.2,20.8c-2.1,3-2.9,6.7-5.5,9.8c-0.8-5.2,0-10.1-0.5-15.4c-7.2-2.5-14.8-4.1-22.7-5.1
			c-3.4,6.8-6.9,13.2-9.9,20.3c-3.6-0.5-7.7,0.9-11.6-1c-0.5-0.3-1.3-0.1-2,0C658.5,416.7,651.4,414.3,643.9,415.1z"/>
		<path d="M707.5,387.8c-4.5,1-8.7-0.8-13.4-0.9c0.2-3.2-0.9-6.6,1.1-10.1c1,1.7,2.6,0.7,3.4,1.5c1.4,1.3,2.8,0.5,4.2,0.7
			c1.3,0.1,2.6,0,3.7,0c1-1.4-0.2-2.9,0.9-4C708.3,375.7,708.3,383.2,707.5,387.8z"/>
		<path d="M668.5,430c-3,0-6.2,0.6-9-0.2c-3.1-0.8-6.1-0.7-9.2-0.9c-1.7-3.9,1.5-7.5,0.4-11.7c6.5-1.1,12.6,1.9,19,0.6
			C670.2,422.3,670.3,426.2,668.5,430z"/>
	</g>
</g>
</svg>
