<?xml version="1.0" encoding="utf-8"?>
<!-- Generator: Adobe Illustrator 17.1.0, SVG Export Plug-In . SVG Version: 6.00 Build 0)  -->
<!DOCTYPE svg PUBLIC "-//W3C//DTD SVG 1.1//EN" "http://www.w3.org/Graphics/SVG/1.1/DTD/svg11.dtd">
<svg version="1.1" id="Layer_1" xmlns="http://www.w3.org/2000/svg" xmlns:xlink="http://www.w3.org/1999/xlink" x="0px" y="0px"
	 viewBox="0 0 1440 937" enable-background="new 0 0 1440 937" xml:space="preserve">
<g>
	<g>
		<path d="M674.2,435.9c-2.3-13.7-0.8-27.2-1.1-40.7c-0.1-3.4-1.5-6.6-1.1-10.1c0.4-3.5,0.1-7,0.1-10.5c0.5-0.5,1.1-1.1,1.3-1.3
			c8.7,1.3,17.3,1.2,25.7,3c-0.3,8.9,0.8,17.7-1.4,26.6c-0.9,0.6-2.7-0.5-3.2,1.1c-2.6,10.5-2.8,21-2.4,32c-2.7,0-5.3-0.1-7.9,0
			c-1.6,0.1-3.2-0.6-4.7,0.8c-0.5,0.5-1.9,0.5-2.6-0.5C676.2,435.6,675.3,436.2,674.2,435.9z"/>
		<path d="M731.2,432.8c-3.2,0.9-5.2-1.7-7.9-0.7c-0.2-0.8-0.3-1.3-0.5-1.9c-2.9,0-5.8-3.3-8.5-0.2c-1.4,0.1-1.5-1.3-2.6-1
			c-0.2,0.1-0.6,0.3-0.8,0.5c-0.7,1.7-1.2,3.5-2.2,5.1c-0.7,1-0.8,2.7-2.7,2.9c-0.9,0.1-1.2,1.4-1.4,2.4c-1.4,0-2.9,0-4.2,0
			c-2.1-1-1.4-2.9-1.6-4.4c-2.3-1.8-4.2,1-6.8,0.5c-0.7-10.9-0.3-21.8,2.3-33c5.5,1,11,2.7,16.7,3.6c5.6,0.9,11,2.7,16.5,3.7
			c5.6,1,11.3,2.5,16.9,3.8c5.6,1.4,11.2,2.6,16.8,4c5.4,1.3,10.9,2.8,16.4,3.7c5.7,1,11.2,3.5,16.9,3.4c0.5,0.5,0.9,0.9,1.4,1.4
			c0,1.5-0.1,3.2,0,4.8c0.1,1.4-0.8,2.6-1.4,3.4c-0.6,0.7-2.4,1-2.5,1.9c-0.2,2.6-1.5,4.8-2.2,7.1c-1.3,4.6-0.8,9.3-1,13.9
			c-1.8,1.3-2.9-0.6-4.1-0.5c-1.8,0.2-3.1-1.7-4.5-1c-1.6,0.7-2.9,0.2-4.2-0.1c-5.2-1.2-10.3-2.3-15.5-3.6c-3.6-0.9-7.3-1.8-11-2.4
			c-2.2-0.4-4.2-1.6-6.4-0.7c-0.1,0.5-0.3,1-0.4,1.6c-4,0.8-7.7-0.8-11.6-2C731.2,443.7,731.2,438.6,731.2,432.8z"/>
		<path d="M790.4,458.9c-0.3-0.3-0.7-0.7-1.4-1.4c0-3.4-0.8-7.4,0.2-10.9c1.2-4.2,1.2-9.1,5-12.4c1.2-1.1,2.1-2.8,1.8-4.7
			c-0.1-0.7,0.1-1.3,0-2c-0.7-5.4,1.6-10.6,1-16.1c-0.1-1.4,1.3-2.5,1-4.1c-0.3-1.4-0.1-3-0.1-4.5c1-3.3,3.6-4.4,6.7-4.8
			c0.8-0.1,1.5,0,2.3-0.4c2.4-1.2,5-0.8,7.3,0.4c1.7,0.9,3.1,2.3,5.2,2c0.8,0.8,1.6,1.6,2.5,2.5c0.3,1.4-1.2,2.1-1,3.6
			c0.2,2.6-0.1,5.3,0.1,8c0.6,5.6-1.2,11-1.2,16.6c0,2.9-1.3,5.7-2.1,8.6c-0.5,1.9-0.9,3.8-0.7,5.6c0.5,7-0.8,14-1.3,20.9
			c-0.4,0.4-0.7,0.7-1.2,1.2c-1.3,0-2.8,0-4.5,0c-0.1-2.2-0.4-4.1-3.5-4c-2.5,0.1-4.5-2-7.2-1.9c-1-1.9-3.1-0.3-4.4-1.4
			C793.7,458.3,791.9,459.4,790.4,458.9z"/>
		<path d="M830.4,456c-1,0-2,0-2.8,0c-1.8,0.8-1.4,2.8-1.9,4.1c-0.7-0.1-1-0.2-1.4-0.3c-0.6-1.1-0.1-2.2-0.4-3.6
			c-1.5-0.5-3.1-0.2-4.8-0.2c-0.1,0.9-0.2,1.7-0.2,2.5c-0.7,0.8-1.6,0.2-2.3,0.4c-0.2-0.2-0.6-0.5-0.6-0.7c0-6,1.6-12,1-18.1
			c-0.1-1.4,2-2.3,0.5-4.3c2.7,0.6,4.2-1.2,6.2-1c0.2-0.6,0.4-1.2,0.7-1.7c4.4-0.9,6.5,3.8,10.7,4c-0.4,1.9,0.8,3.9-1,5.5
			c-0.2,0.1-0.1,0.6,0,1c0.6,5.1-1.6,10-1,15.1c0.1,0.5,0.1,1-0.5,1.3C831.3,459.1,833,456.7,830.4,456z"/>
		<path d="M789.8,424c-4.2,0.4-7.6-1.6-11.5-2.1c0-1.7,0-3.5,0-5.3c6.9-2.2,7.4-2.2,11.5,0.7C789.8,419.5,789.8,421.8,789.8,424z"/>
	</g>
</g>
</svg>
