<?xml version="1.0" encoding="utf-8"?>
<!-- Generator: Adobe Illustrator 17.1.0, SVG Export Plug-In . SVG Version: 6.00 Build 0)  -->
<!DOCTYPE svg PUBLIC "-//W3C//DTD SVG 1.1//EN" "http://www.w3.org/Graphics/SVG/1.1/DTD/svg11.dtd">
<svg version="1.1" id="Layer_1" xmlns="http://www.w3.org/2000/svg" xmlns:xlink="http://www.w3.org/1999/xlink" x="0px" y="0px"
	 viewBox="0 0 1440 937" enable-background="new 0 0 1440 937" xml:space="preserve">
<g>
	<g>
		<path d="M729,456.9c0-6.3,0-12.3,0-18.6c-4.2-0.9-8-2.8-12.1-5.1c-0.5-1.3,0.7-2.6,1.4-3.9c3.5-6.4,6.3-13.1,9.2-19.7
			c2.5-5.6,5.9-10.9,7.4-16.9c0.1-0.6,0.8-1,1.2-1.5c2.2-0.7,4.6,0.6,6.6-1.2c0.3-0.2,1.2-0.2,1.4,0c2,1.8,4.4,1,6.6,0.9
			c7.9-0.3,15.7,1.8,23.6,1.1c4.6,1.8,9.5,0.2,14,1.1c5.5,1.1,11.2,0,16.6,1.1c5.1,1,10.1,0.4,15.7,1c0.2,0.4,0.7,1.2,1,1.7
			c1.7,0.1,2.8,0.1,4.2,0.2c0,4.4,0.6,8.8-0.2,13c-0.6,3.7-0.2,7.5-1,11.1c-0.8,3.5-0.6,7-0.9,10.5c-0.8,0.5-1,1.5-2.1,1.4
			c-3.2-0.5-6.4,0.8-9.6-0.9c-1.3-0.7-3.3-0.2-4.9-0.1c-7.9,0.4-15.7-1.7-23.6-1.1c-1.9,0.1-3.6-0.9-4.7-2.5c-0.2-0.9,0.3-1.3,1.1-2
			c-0.6-0.5-1.2-1-1.7-1.4c-1.5,0-2.4,0.9-2.4,2.1c0.1,1.4-0.7,2.1-1.3,2.7c-5,1.3-9.5-1.6-14.8-0.5c-5.4,9.9-9.2,21.1-15,31.4
			C739.6,459.4,734.3,458.1,729,456.9z"/>
		<path d="M827.8,474.7c0.9-2.8-1-5.1-0.9-7.7c0.1-2.5,0.3-5,0-7.5c-0.3-2.5,1.3-4.6,1.2-7.1c-0.1-2.3-1-4.9,0.9-7.1
			c0.2-0.2,0.1-0.7,0-1c-0.8-4.9,1.4-9.7,1-14.6c-0.2-2.4,1.4-4.5,1.1-7.1c-0.3-2.2-0.7-4.6,0.9-6.6c0.1-0.1,0-0.3,0-0.5
			c-0.8-5.4,1.5-10.7,1-16.1c-0.1-1-0.4-2.3,0.1-2.9c1.8-2.3,0.2-5.5,2.5-7.6c3.1,0,6.4,0.1,9.8,0c3.1-0.2,5.9,1.9,9,0.9
			c2.9,4,0.9,8.6,1.8,13c2.8,0,5.6,0,8.8,0c0,5.9,0.5,11.8-0.2,17.5c-0.4,3.4-0.1,6.9-0.9,10.1c-0.9,3.4-0.8,6.7-0.8,10.1
			c0,2.1-1.4,3.9-1.1,6.1c0.2,2,0.8,4.3-0.9,6.1c-0.2,0.2-0.1,0.7,0,1c0.8,6.1-1.5,12-1,18.1c0.2,2.5-1.4,4.7-1.3,7.7
			c-1.7-2.6,0.5-5.3-1.6-6.9c-1.1-1.1-1.3,0.5-2.1,0.4c-5.9-0.6-11.7,1.8-17.6,0.9C834.4,473.5,831.6,475.8,827.8,474.7z"/>
		<path d="M699,465.8c3.4,1.1,3.7-1.6,5-3.6c0-3.2,0-6.9,0-10.5c0-2.1-0.1-4.1,0.9-6.1c1.9-3.7,3.4-7.6,5-11.1c1.9-1,4,0.5,5.4-1.2
			c1.2,1.7,3.5,0,4.8,1.4c2,2.2,4.7,2.7,7.4,2.4c0.6,0.6,1,1,1.5,1.5c0,9,0,18,0,27.1c6.9,1.6,13.8-1,20.9-0.6c0,17,0,33.8,0,50.6
			c-4.9,2.3-10.2,1-15.4,1.4c-0.4,0.4-0.9,0.9-1.4,1.4c-0.4,1,0.3,1.5,0.9,2.1c0,3,0,6,0,8.6c-0.9,2.7-3.2,1.6-4.9,2.1
			c0,2.2,0,4.3,0,6.3c-4,2-8.1,1.7-12.1,1.4c-3.3-0.3-6.3,1.8-9.6,1c-1.1-0.8,0.7-2.9-1.3-3.2c-0.3-2.8,0.2-5.3-0.9-7.9
			c-1-2.3,0.9-5.2-1.1-7.5c0.7-3.1-1.5-6-0.9-9.1c0.4-2.3-1.3-3.9-1.2-6.1c0.1-1.8,1-4-0.8-5.6c-0.3-0.2-0.1-1-0.1-1.4
			c0-2.2-0.2-4.4-0.9-6.6c-0.7-2-0.2-4.3-1-6.6c-0.7-2.1-0.2-4.6-0.2-6.9C699,474.7,699,470.6,699,465.8z"/>
		<path d="M780.4,469c-0.9-1.8,0.1-3.9-0.7-5.9c-2.1,0-4.2,0-6.2,0c-0.9-1.1,0.8-1.2,0.6-2.1c-0.2-0.8,0.1-1.7-0.1-2.5
			c-0.7-4.6,1.3-9,1.1-13.6c-0.3-4.6,0-9.3-0.1-14c0-2,2-3.5,0.8-5.5c2.5-0.3,2.5-0.3,4.2,1c0,8.5,0.2,17.1-0.1,25.8
			c-0.2,4.9,1.3,9.7,1.1,14.6C780.9,467.5,781.4,468.4,780.4,469z"/>
		<path d="M781.5,474c-0.8-0.7-0.5-1.3-0.3-2C782.4,472.5,782.1,473.1,781.5,474z"/>
	</g>
</g>
</svg>
