<?xml version="1.0" encoding="utf-8"?>
<!-- Generator: Adobe Illustrator 17.1.0, SVG Export Plug-In . SVG Version: 6.00 Build 0)  -->
<!DOCTYPE svg PUBLIC "-//W3C//DTD SVG 1.1//EN" "http://www.w3.org/Graphics/SVG/1.1/DTD/svg11.dtd">
<svg version="1.1" id="Layer_1" xmlns="http://www.w3.org/2000/svg" xmlns:xlink="http://www.w3.org/1999/xlink" x="0px" y="0px"
	 viewBox="0 0 1440 937" enable-background="new 0 0 1440 937" xml:space="preserve">
<g>
	<g>
		<path d="M800.1,525.9c-4,0-8.4,0-13,0c0-6.9,0-13.7,0-20.9c-4.7,0.5-8.9-2-13.5-0.8c-2-2.8,1.7-5.3,0.1-7.9
			c-5.4-1.6-11.1-1.9-16.2-4.2c-5.6,0.2-10.7-2.6-16.2-3.2c-2.7-0.3-6-0.5-8.1-3.2c0.5-0.9,0.9-1.8,0.9-3c-0.1-3.8,0.1-7.7-0.1-11.5
			c-0.1-1.7,0.4-3.3,1.1-4.5c3.2-5.7,5-12,8.7-17.9c9,1.9,18.2,4.4,27.6,6.1c9.4,1.7,18.8,3.7,28.6,5.7c2.7,1.5,5.9,2.8,9.6,2.5
			c0.4,0.5,0.8,1,1.4,1.5c0,0.2,0.2,0.6,0.1,0.8c-0.6,0.8-1.1,1.5-1,2.6c0.1,2.3-0.2,4.7,0.1,7c0.7,6.3-1.3,12.3-1,18.6
			c-1.6,3.2-0.3,6.9-1.1,10c-1.4,5-0.4,10.5-2.8,15.3c-0.2,0.4-0.1,1,0,1.5c0.6,5.2-2.2,10.2-0.6,15.9c-2.1-1.2-1.2-2.5-1.4-3.6
			c-0.2-1.1,0.4-2.4-0.3-3.3C801.9,528.2,802,526.7,800.1,525.9z"/>
		<path d="M748,528.5c0,13.3,0,26.6,0,40.3c-2.5,0-4.9,0.8-7.4-0.6c-0.9-0.5-2.3-0.1-3.4-0.2c-3.9-0.5-7.9,1.2-11.6-0.9
			c-1.9,2.2-3.6-0.7-5.7-0.2c-1.9,0.5-4,0-6,0.1c-1.5,0.1-2.8-0.3-4-1.1c-0.6,0.3-1.1,0.6-1.9,1.1c0-7.2-0.6-14.2,0.2-21.1
			c0.7-6.6,0.8-13.3,3.1-20.1c3.9,0.5,8-0.8,11.9,1.1c0.4,0.2,1,0.1,1.5,0c7.6-0.7,15,1.5,22.6,1C747.5,528,747.7,528.3,748,528.5z"
			/>
		<path d="M786.6,524.7c5.1,2.1,9.5,0.9,14,1.4c1.2,0.7,1.4,2.3,2.3,3.6c0,4.1-0.2,8.4,0.1,12.7c0.2,2.5-1.5,4.6-1.2,7.1
			c0.3,2.3,0.7,4.9-0.1,6.9c-1.3,3.7-0.6,7.4-0.9,11.1c-0.3,0.5-0.8,0.4-1.6,0.4c-0.9-1.8,0-3.8-0.5-5.8c-2.4,0-4.8,0-7.5,0
			c-0.3,4.1-2.1,8.1-1.1,12.4c-1.2,0.5-2.1,0.7-2.2-0.5c-0.1-2.3-1.8-4-2-6.2c-0.3-3-0.1-6-0.1-9c0-2,0.1-4,0-6
			C785.4,543.7,788.1,534.6,786.6,524.7z"/>
		<path d="M690.8,545.1c-1.7,0-3.1,0-4.9,0c0.5,3.8-0.3,7.4,1,11.2c0.9,2.5,0.2,5.6,0.2,8.2c-0.5,0.5-0.9,1.2-1.2,1.2
			c-5.5,0-10.9,1.7-16.4,1.3c-0.5-1.1-0.7-2.2-1.6-2.8c-3.8,1.8-8-0.3-11.5,1.2c-3.6,1.5-7.5-0.6-11,1.4c-0.3-0.3-1.2-0.8-1.1-1.2
			c0.4-3.6-1.5-7-1-10.6c0.3-2.4-1.1-4.3-1.1-6.6c-0.1-2,0.8-4.3-0.9-6.1c-0.2-0.3-0.1-1,0-1.5c0.7-4.4-1.5-8.6-1-13.1
			c-2.1-6.9-0.4-14.1-1.1-21.2c1.3-0.6,2.5-1.2,4-1.9c0-1.9,0-4,0-5.1c0.9-1.5,1.3-2.2,1.5-2.6c1.9,0,2.5,1.2,2.8,4.9
			c3.4-1.3,6.8-2.7,10.2-3.7c1.8-0.5,3.7-0.3,5.7,0.3c2.4,0.7,4.7,2,7.3,1.5c1.1,0.8,1.5,2.5,3,2c1.7,0.2,2-1.3,3-1.9
			c1.1,0,2.2,0,3.4,0c1.3,5.2,1.9,10.4,2.4,15.6c0.4,0.4,0.9,0.9,1.3,1.3c2.2,0.4,3.9-2.1,6.4-0.6c0,1.4,0.1,3,0,4.6
			C689.3,528.9,691.8,536.7,690.8,545.1z"/>
		<path d="M656.1,498.1c-0.2-3.2,0.1-5.7-0.9-8.3c-1-2.3,0.6-5.1-1-7.6c-0.7-1.2-0.1-3.2-0.1-5.2c-6,0-11.7,2-17.8,0.7
			c-0.6-0.9,0.2-2.9-1.6-3.5c-3,1.7-6.3,0.4-9.8,0.9c0.7-6.1-1.7-11.6-0.9-17.4c-1.9-5.3-0.6-10.7-1.1-16.1c1.4-0.7,2.5-2,4.4-1.7
			c1,0.6,0.7,2.4,2.1,2.8c3.2,1.1,6-1,9-0.9c3.2,0.1,6.3,0,9.5,0.1c1.1,0,1.3-1.8,2.5-1c1.1-0.8,0.2-2.7,1.9-2.9
			c0.3-0.1,0.6-0.2,0.9-0.2c2.7,0,5.4,0.4,8-0.1c5.4-1.1,10.8-0.2,16.1-1.1c4.6-0.8,9.1-0.3,13.6-0.9c2.5-0.3,5-1.2,7.6-0.9
			c0.8,1.4,1.7,2.9,1.7,4.7c1.1,0.5,2.2,0.2,3.4,0.2c1.1-0.6,1.3-1.8,1.8-2.8c0.6,0,1.3,0,1.9,0c2.1-2.3,1.6-5.8,4.2-7.9
			c3,0,6.1,0,9.2,0c2.9,2.6,6.6,3.3,10.4,4.2c0,9.2,0,18.3,0,27.5c0,2.6-1.3,4.8-2.4,7c-1.1,2.4-2.6,4.6-3,7.4
			c-5.9-1.8-11.9-2-17.6-4c0-5.5,0-10.6,0-15.6c-1.2-1.1-2.4-0.2-3.9-0.9c-0.1,2.6-0.7,4.8-0.4,7.3c0.5,3.6,0.8,7.5,0,10.9
			c-1.2,5.4-0.7,10.8-0.8,16.1c0,1.7-1.6,2.8-1.2,4.6c0.4,1.6,0.1,3.3,0.1,5c-1.2,0.9-2.6,0.6-3.8,0.4c-3.3-0.6-6.3,1.4-9.6,1.1
			c-3.3-0.3-6.7,0-10-0.1c-1,0-1.6,1-2.1,0.9c-2-0.1-4.3,1-6.1-0.9C665.6,499.9,661.2,497.4,656.1,498.1z"/>
		<path d="M709.8,485.1c0,1.9,0,3.8,0,5.8c-0.4-0.2-0.8-0.3-0.8-0.4c0-1.8,0-3.5,0-5.3C709.3,485.2,709.6,485.2,709.8,485.1z"/>
		<path d="M702.6,460c2.5-1.6,0-5,3.1-6c1.2-0.3,1.5,1,2.3,1.3c0,0.8,0,1.4,0,2.1c-0.7,10.5,1.6,21,1,31.5c1.4,3.4,0.3,7.2,1.2,10.5
			c1.1,4.1,0.5,8.1,0.9,12c-0.5,0.5-1,1-1.5,1.5c-2.3,0-4.6,0-7,0c-1.5-2.5-2.2-5.1-0.9-8c0.5-1.2-1-1.7-0.6-2.9
			c0.3-0.9,1.2-1.4,1.1-2.6c-0.6-6.4,1.7-12.6,0.9-19c-0.7-5.8,1.4-11.3,1-17C704,462.2,703.9,461.2,702.6,460z"/>
	</g>
</g>
</svg>
