<?xml version="1.0" encoding="utf-8"?>
<!-- Generator: Adobe Illustrator 17.1.0, SVG Export Plug-In . SVG Version: 6.00 Build 0)  -->
<!DOCTYPE svg PUBLIC "-//W3C//DTD SVG 1.1//EN" "http://www.w3.org/Graphics/SVG/1.1/DTD/svg11.dtd">
<svg version="1.1" id="Layer_1" xmlns="http://www.w3.org/2000/svg" xmlns:xlink="http://www.w3.org/1999/xlink" x="0px" y="0px"
	 viewBox="0 0 1440 937" enable-background="new 0 0 1440 937" xml:space="preserve">
<g>
	<g>
		<path d="M880.3,639c2.8,0,5.3-0.2,7.8,0.1c2.8,0.3,5.3-1.4,8.1-1.1c2.8,0.3,5.9,0.7,8.4-0.1c3.6-1.1,7.2-0.2,10.6-0.9
			c4.7-1,9.5-0.3,14.1-1.1c3.7-0.7,7.5-0.2,11.1-0.9c5-1,10.1-0.3,15.1-1.1c3.1-0.5,6-0.8,9.1-0.8c2.1,2.5,1.6,5.7,2.3,8.5
			c1.4,5.3,2.3,10.8,3.3,16.2c0.7,4.2,2.2,8.3,1.9,12.7c-0.1,1.5,1.5,2.4,1.1,4.1c-0.3,1.3-0.4,3,0.9,4.1c0,3.7,0.4,7.5-1.6,11.3
			c-6.5,2.2-13.5,4.7-20.5,7c-6.6,2.2-13.2,4.2-19.8,6.5c-0.8,0.3-1.5,0.5-2.3,0.5c-3.9,0.2-7.8-0.6-11.6,1
			c-6.7-0.7-13.3,1.6-20.1,1c-3.2-0.3-6.2,2.1-10,0.5c-0.7-3.6-1.5-7.7-2.4-11.9c-0.9-4.4-0.9-9.1-2.8-13.3c0.7-2.8-1.6-5.3-1-8.1
			c0.3-1.3-1.1-2.2-0.9-3.1c0.4-2.6-1.5-4.7-1.1-7.1c0.4-2.3-1.7-4.2-1-6.6c-1.7-3.6-0.9-7.4-0.9-11.1
			C878,643.2,878.9,641.1,880.3,639z"/>
		<path d="M823,647.4c5.3-1.9,10.5-0.7,15.3-1.6c4.3-0.8,8.5,0,12.6-0.9c4.6-1,9.1-0.8,13.6-0.8c1.2,0,1.5-1.4,2.7-1.1
			c0.8,0.4,1.7,0.9,1.8,2c0.1,1.8,0.2,3.4,0.9,5.1c0.6,1.4-0.4,3.3,1.1,4.5c-0.7,3,1.2,5.7,1,8.6c-0.1,1.4,1,2.6,0.9,3.6
			c-0.3,2.4,1.5,4.4,1.1,6.6c-0.4,2.4,0.8,4.4,1.2,6.6c1,4.6,0.9,9.4,2.8,13.8c0.7,1.7-0.8,4,1,5.6c-0.3,5.2,2,10,2.2,15.1
			c0.1,2.5-1.2,4.6-1.2,7.2c-4.8,1.5-9.5,3.4-14.3,5c-4.8,1.6-10,2.7-14.7,4.4c-4.8,1.8-9.7,3.1-14.8,5.4c0.2-5.8-2.4-10.5-2.1-15.7
			c-1.5-1.8-0.4-4.2-1.1-6c-0.8-1.9-0.2-4.1-1-5.6c-1.5-2.8,0.1-6.1-1.9-8.7c0.7-3.1-1-6-1.2-9.1c-0.1-2.1-0.2-4.6-0.9-6.5
			c-0.8-2.1-0.3-4.3-0.9-6.1c-1.7-4.6-1.1-9.7-2.9-14.3c0.7-3-1.3-5.6-1.1-8.6C823.2,653.2,823,650.3,823,647.4z"/>
	</g>
</g>
</svg>
