<?xml version="1.0" encoding="utf-8"?>
<!-- Generator: Adobe Illustrator 17.1.0, SVG Export Plug-In . SVG Version: 6.00 Build 0)  -->
<!DOCTYPE svg PUBLIC "-//W3C//DTD SVG 1.1//EN" "http://www.w3.org/Graphics/SVG/1.1/DTD/svg11.dtd">
<svg version="1.1" id="Layer_1" xmlns="http://www.w3.org/2000/svg" xmlns:xlink="http://www.w3.org/1999/xlink" x="0px" y="0px"
	 viewBox="0 0 1440 937" enable-background="new 0 0 1440 937" xml:space="preserve">
<g>
	<g>
		<path d="M961.9,366.3c-2.7-2.1-2.2-4.9-2.8-7.3c-1.3-5.2-2-10.5-3.4-15.6c-0.3-1.2-0.8-2.5-0.6-3.7c0.2-1.5-1-2.2-1.2-3.6
			c-0.7-5.6-2-11-3.6-16.4c-0.9-3-1.8-15.4-1.2-17.9c0.2-0.9,1.2-1.5,1.1-2.8c1.6,0,3.3-0.1,4.9,0c5.7,0.3,11.3-1.8,17.1-1
			c4.9-1.8,10-0.8,15.1-0.9c1,0,1.6-0.7,2.5-0.9c1.1,0.6,1.2,1.9,1.8,2.9c3.5-0.2,7.1,0.7,10.7-1.4c4,4.7,7.4,9.6,10.8,14.5
			c3.3,4.8,7.3,9.1,9.9,14.7c-0.2,4,1.5,8,2.6,12.1c2.4,8.9,2.8,10.3,2.2,20.2c-6.8-0.8-13.5,1.7-20.4,0.9c-2.8-0.3-5.2,1.4-8.1,1.1
			c-2.6-0.3-5.5-0.7-7.9,0.1c-3.7,1.3-7.4,0.4-11.1,0.9c-5.5,0.6-11,1.5-16.4,0.9C962.6,363.7,961.7,364.6,961.9,366.3z"/>
		<path d="M968.2,401.7c-1.1-5.2-2.2-10.1-3.3-14.9c-0.9-3.6-1.7-7.3-2.6-10.9c-0.9-3.6-0.2-7.6-0.2-11.4c0.5-0.5,0.9-0.9,1.5-1.5
			c7.4,0.7,14.9-1.7,22.4-1c4.8-1.7,9.8-0.2,14.5-1.2c4.1-0.9,8.1-0.8,12.1-0.7c2.6,0,4.9-1.5,7.6-1.2c2.4,0.3,5.2,0.7,7.4-0.1
			c3.7-1.3,7.5-0.9,11.1-0.7c2.7,0.1,5-1.6,7.8-1.1c2.5,3.5,6.7,5.4,9.7,8.7c0.9,1,1.6,1.9,2.1,3.1c2.5,5.3,5,10.6,7.8,15.7
			c0.6,1.1,1.2,2.4,0.7,3.1c-1.3,2.3-0.6,4.7-1,7.1c-6.1,0.4-12.1,1.1-18.1,1.4c-5,0.3-10.2,0.1-15.1,1c-4.1,0.7-8.2,0.2-12.1,0.9
			c-4.7,0.9-9.5,0.1-14.1,1.1c-4.4,0.9-8.9,0-13.1,0.9c-5.2,1.1-10.5,0.3-15.6,1.1c-2.9,0.4-5.7,0.8-8.6,0.8
			C968.8,402,968.3,402,968.2,401.7z"/>
	</g>
</g>
</svg>
