<?xml version="1.0" encoding="utf-8"?>
<!-- Generator: Adobe Illustrator 17.1.0, SVG Export Plug-In . SVG Version: 6.00 Build 0)  -->
<!DOCTYPE svg PUBLIC "-//W3C//DTD SVG 1.1//EN" "http://www.w3.org/Graphics/SVG/1.1/DTD/svg11.dtd">
<svg version="1.1" id="Layer_1" xmlns="http://www.w3.org/2000/svg" xmlns:xlink="http://www.w3.org/1999/xlink" x="0px" y="0px"
	 viewBox="0 0 1440 937" enable-background="new 0 0 1440 937" xml:space="preserve">
<g>
	<g>
		<path d="M856.1,418.3c-2.7-2.7-5.1-5.1-7.1-7.1c-2.3-0.7-3.4,0.7-5,1.2c-0.3,2.1,0.7,4.6-2.8,6.7c-2.3,0.5-6.3-1-10,0.7
			c-0.3-0.3-0.7-0.7-1.1-1.1c-0.8-7.9-3.7-15.5-3.3-23.6c-1.7,0-3.2,0-4.4,0c-0.6,0.5-1.2,1-1.5,1.3c-0.1,0.9,0,1.5,0.5,1.7
			c-1.2,5.3-0.1,10.5-0.7,15.6c-0.4,0.4-0.7,0.7-1.2,1.2c-7.3,0-14.7,0-22.1,0c-0.9,1.2-0.3,2.4-0.5,3.5c-2.9,1.6-6.1,1.7-9.3,1.6
			c-3.5-0.1-7-0.1-10.5,0c-3.9,0.1-7.8,0.3-11.1-2.8c0-2.1,0-4.8,0-7.4c-1-1.1-1.7-2.4-3.3-2.8c-1,1.2-1.3,2.9-3.1,3.6
			c1.4,2.1,1.7,4.1,1.2,6.2c-1.7-1.4-1.3-1.6-3-6.6c-0.9-2.6-0.5-5.1-0.9-7.6c-1.2-0.5-1.5-2.1-1.6-2.8c-0.3-1.7-1.3-3.2-1.5-5
			c-0.1-1.6-2.3-2-3.4-3.4c-2.6-3.5-6.6-5.3-10.8-6.2c-1.5-0.3-3.2-0.5-4.4-1.4c-1.3-0.9-2.5-0.4-3.8-0.6c-1.3-0.6-1.4-2.3-2.3-3.2
			c-0.6,0.4-1.1,0.5-1.1,0.7c-0.2,1.6,0.4,3.4-1.9,4.6c-9.9-0.9-20.2,1.7-30.6,0.9c-6,1.7-12.1,0.6-18.1,1.1c-2,0.2-4,1.1-6.1,0.8
			c-0.5-0.5-0.9-0.9-1.3-1.3c-0.6-2.4,0.4-4.8-1-7.3c-1.1-1.9,0.8-4.9-1.1-7c-0.1-0.1,0-0.3,0-0.5c0.8-4.3-1.6-8.3-1-12.6
			c0.3-2.6-1.5-4.9-1.1-7.6c0.4-2.6,0.6-5.5,0-8c-1.6-5.9-0.8-11.8-0.8-17.6c-0.2-14.7-0.1-29.3,0-44c0-8.5-1.5-17-1.1-25.6
			c0.4-8.6,0.1-17.3,0.1-26.1c0.4-0.4,0.9-0.9,1.6-1.5c0.8,0,1.7,0,2.7,0c3.8,0,7.7,0.2,11.5-0.1c3.5-0.3,7-1.5,10.9-0.7
			c0.2,0.2,0.6,0.7,1.2,1.4c-0.1,6.8,1.8,13.7,1.1,20.8c2.1,9.8,0.7,19.7,0.9,29.6c0.2,10,0.1,20,0.1,30c0,6.2,0,12.3,0,18.8
			c1.9,0,3.8,0,5.8,0c0-5.7,0-11.5,0-17c0.8-1.1,2.2-0.5,2.6-1.7c8.2,0.6,16.3-1.5,24.6-1.1c4.4-1.6,9.1-0.3,13.6-1.1
			c4.7-0.8,9.6-0.1,14.1-1.1c4.1-0.9,8.1-0.4,12.1-0.9c0.1,0.7,0.2,1.1,0.4,1.9c4.5-0.4,7.4,3.3,11.2,5.1c2.4,1.1,4.5,2.8,6.8,4.1
			c3.2,1.9,6.4,1.3,9.8-0.3c0-4,0-8.1,0-12.1c0.6-0.6,1.1-1.1,1.6-1.6c4,0,8,0,12.1,0c0.4,0.4,0.8,0.9,1.4,1.7c-0.8,2.7,1.6,5.2,1,8
			c5.8,0.9,11.2-0.1,16.6-0.9c1.7,3.6,1.8,7.3,2.6,10.8c0.1,0.1,0.2,0.3,0.3,0.3c0.7,0,1.3,0,2.4,0c-0.3-3-1.2-5.9-1-8.9
			c0.2-3.1,0.1-6.3,0.1-9.6c4.7-2.4,9.8-1.2,15.2-1.6c-1.1,3.6,1.6,6.4,0.6,10.1c5.9-0.5,11.6,1.1,17.1-1.2
			c0.5-3.7-0.8-7.4,1.6-10.9c4.4,0.5,8.8-0.6,13.4-1.2c0.4,5,2.2,9.3,2.3,14.2c5.9,0.6,11.6-2.1,17.9-0.5c0-1.9,0.2-3.4,0-4.8
			c-0.5-3.2,1.3-6,1-9.2c6-2.5,12.3-0.9,18.6-1.5c2,4.5,2.2,9.4,3.5,14c1.3,4.9,0.7,9.7,1,14.6c0.8,0.7,2.1,0.7,2.5,1.3
			c3.4,15.9,6.6,31.2,10,47.2c0.5,0.4,1.4,1.3,2.1,1.9c2.1,9.1,1.7,17.8,0.1,26.8c-1.3,1.3-3.3,1.6-5.4,1.3
			c-1.7-0.2-2.9,1.3-4.6,1.1c-1.4-0.1-2.7-0.1-4.2,0.7c-1.8,1-4.5-0.4-6.5,1.2c-3-0.8-5.8,0.7-8.6,1.1c-4.9,0.9-10,1-14.8,2.7
			c-0.6,0.2-1.3,0.1-1.9,0.2c-1.7,0.3-3.4-0.5-5.2,0.8c-1.3,1-3.5-0.6-5,1.1c-0.3,0.3-1.3,0.1-1.9,0c-1.9,0-3.7,0.1-5.6,0.9
			c-1.7,0.7-3.6,0-5.6,0.9c-1.9,0.9-4.3,0.4-6.6,1C860.5,417.4,857.9,417.1,856.1,418.3z M894.8,381c-3.9,0-7.1,0.3-10.3-0.1
			c-3.2-0.4-6.2,2.1-9.4,0.7c-1.8-0.7-0.7-2.4-1.4-3.4c-2.3,0-4.5,0-6.8,0c0.5,3.6,1.4,6.3,2.5,7.7c1.8-1.9,4.4,0,6-1.1
			c2.1-1.5,4.6,0.1,6-1c2.1-1.6,4.6,0.1,6.5-1.3c1.9-1.4,4.2,0.2,5.3-2.1c2.4,0.7,4,0.7,5.7-0.1C897.3,380,895.6,379.8,894.8,381z
			 M791.2,398.2c-4-6.9-4.3-14.6-7.6-21.2c-3.3,0.1-6.6-0.4-9.3,1.1c-2.5-0.5-2-2.5-2.6-3.9c-2.2,0-4.3,0-6.5,0
			c-0.3,2.5,0,4.7,0.8,7.1c1.4,4.4,3.1,8.7,4.8,13c0.8,2.2,1,4.5,2.3,6.3c1,0.8,2,0.7,2.6,0.4c3.3-1.5,6.7-0.9,10.1-0.9
			c6-0.1,12,0,17.9,0c0.7-0.8,1.7-1.3,1.4-2.8C800.4,396.5,795.8,397.1,791.2,398.2z M709.3,360.9c1.6,0.4,2.5-1.1,4.2-1.1
			c5.9,0,11.7,0.3,17.6-0.7c6.4-1.1,13,0.4,19.5-1.1c2.5-0.6,5.3-0.1,7.9-0.1c0.6,1,0.8,2.2,2.1,3c3.1,0.1,6.1-1.5,9.9-1.2
			c-2.6-5-8-5.4-11-8.9c-6.3,0.3-12.7-0.7-19,1c-0.1,0-0.2-0.2-0.4-0.4c-0.1-1.1-0.1-2.2-0.2-3.3c-1.1-0.4-2-0.6-3,0.3
			c0,1,0,2.1,0,3.2c-9.3,0.3-18.4,1.8-27.6,1.2c-0.3,0-0.6,0.1-1,0.2C707.2,356,708.8,358.4,709.3,360.9z M864.3,360.8
			c1.7,0.5,1.9-1,3.1-0.9c4.7,0.2,9.4,0.1,14.1-0.8c4.3-0.8,8.8,0.7,13-1.1c6.2,0.6,12.4-0.8,18.6-1c0.9,0,2,0.4,2.8-0.4
			c0.4-1.4-1.3-2.1-1-3.6c0.3-1.4,0.3-3-1.4-3.9c-0.5,0.3-1,0.8-1.5,0.8c-5.2,0.2-10.4-0.2-15.6,0.9c-3.9,0.8-8.1-0.7-12,1.1
			c-6.7-0.7-13.3,1.1-20.1,1c-1.4,0-2.9,0-4.2,0c0,1.9,0,3.3,0,4.8c0.9,0.1,1.7,0.2,2.5,0.3C863.1,359.1,863.3,360.3,864.3,360.8z
			 M793.1,343.2c-1-3-3.3-2.1-4.7-3.1c-1.3-0.8-3.6,0.2-5.2-1.2c-0.6,4.9,1.6,9,1,13.5c-0.1,0.4,0.7,1.6,1.2,2.4c2.1,0,4.2,0,6.7,0
			C791.1,350.6,793.6,346.6,793.1,343.2z M813.7,364.2c-5.4-0.6-10.5,0.1-15.8,1.3c1.4,3.1,1.9,6.6,3.6,9.6c2.6,0,0.7-2.3,1.3-2.6
			c4.3-1.1,8.1-1.7,12-1.3c0-2.1,0-3.9,0-5.7C814.6,365.1,814.2,364.7,813.7,364.2z M907.3,380.7c2.1,1.1,3.5-0.5,5.2-0.7
			c1.8-0.2,3.7,0.6,6.1-1c-5.1,0.2-9.5-0.6-13.6,1.5c0.3,0.4,0.7,0.7,0.9,1.1c0.2,0.4-0.3,1.3,0.8,1.3
			C906.9,382.3,907,381.9,907.3,380.7z M828.9,343c-1-0.1-1.7-0.2-1.9,0.9c0.5,0.9,1,2,1.5,3.1C829.3,345.8,828.9,344.6,828.9,343z"
			/>
		<path d="M761.2,424c-0.7-4.5,0.8-8.8-1.3-12.5c0.3-2.2,2.9-2.5,2.4-4.5c2.1-0.1,2.3,1.7,3.6,2.1c0,4.6,0,9,0,13.3
			C764.9,424.4,763.1,423.9,761.2,424z"/>
	</g>
</g>
</svg>
