<?xml version="1.0" encoding="utf-8"?>
<!-- Generator: Adobe Illustrator 17.1.0, SVG Export Plug-In . SVG Version: 6.00 Build 0)  -->
<!DOCTYPE svg PUBLIC "-//W3C//DTD SVG 1.1//EN" "http://www.w3.org/Graphics/SVG/1.1/DTD/svg11.dtd">
<svg version="1.1" id="Layer_1" xmlns="http://www.w3.org/2000/svg" xmlns:xlink="http://www.w3.org/1999/xlink" x="0px" y="0px"
	 viewBox="0 0 1440 937" enable-background="new 0 0 1440 937" xml:space="preserve">
<g>
	<g>
		<path d="M584,625.7c-1.1-1.6-2.5-2.2-3.3-1.6c-1.5,1.2-3.1,0.8-4.7,0.9c-2.2,0.1-4.4-0.4-6.5,0.1c-2,0.5-4,1-6.5,0.8
			c0.4,2.3-0.6,4.2,0.7,6.6c0.9,1.6,0.2,4.1,0.2,6.2c-5.4,0.3-10.4,2-16,0.9c0.5-4.1-0.5-8.2-1.3-12.5c-3.6-1-7,1.5-10.8,0.9
			c-3.5-0.6-7.1,0.1-10.9,1.6c0,3.7,0,7.9,0,12.1c-7.1,0.7-13.9,2-21.1,1.1c0.6-5.2-0.9-10.3-1.2-15.4c-0.3-4.9,0-9.8-0.9-14.6
			c-0.7-3.5,0-7.2-1.2-10.5c-1.1-3.4,0.1-6.9-0.8-10.2c-1-3.9-0.2-7.9-1.1-11.6c-0.9-3.8-0.1-7.5-0.9-11.1
			c-0.9-4.2-0.3-8.5-1.1-12.6c-0.7-3.7-0.1-7.6-1-11.1c-1.2-4.6-0.1-9.2-1-13.6c-0.9-4.2-0.7-8.4-0.9-12.7c0.5-0.4,1-0.9,1.5-1.4
			c1.9-0.7,4,0.6,6.1-0.9c1.5-1.1,4,0.4,6.1-1c1.5-1.1,4.2,0.8,6-1.1c4.1,0.7,7.9-2,12.4-0.7c0.2,0.1,0,0.7,0.1,1.5
			c4.6,0.4,8.9-1.5,13.4-1.9c4.6-0.4,9.2-1.2,13.6-2.2c4.4-1,9-1.4,13.4-2.5c4.4-1,9.1-1.2,13.5-2.5c0-3.4,0.5-6.6-0.1-9.7
			c-1.6-9,0.1-18.2-1.1-27.1c-1.2-8.3-0.1-16.4-1-24.5c1.4-1,2.7-0.6,4-0.6c6.6,0,13-1.7,19.6-1c1.5,0.2,2.5-1.8,4.1-1
			c1.2,2.8,1.7,5.7,1.5,8.8c-0.2,2.1,1.4,3.9,1.1,6.1c-0.3,2-0.4,4.2,0.9,6.1c0.4,0.6,0.1,1.6,0.1,2.5c0,5.2,0.3,10.4-0.1,15.5
			c-0.5,7.1,1.3,14,1.1,21.1c-0.2,7.2,0,14.3-0.1,21.5c0,2.2,2.1,3.8,0.7,6.2c2.6,0,4.8,0,7.3,0c0.3-2.4,0.1-5,0.1-7.6
			c-0.1-2.4,0.2-4.7-0.8-7.2c-0.7-1.7-0.5-4.1,0.8-6c1.4-2,1.2-4.9,3.4-6.8c2.6,0,5.4,0,8.3,0c0.6,0.7,0.5,2,2.1,2.8
			c3.2-0.4,6.8,0.3,10.6-0.9c2.7-0.9,5.9-0.2,8.9-0.2c4.2,0,8.3,0,12.5,0c1.6,0,3.3,0.5,4.3-1.3c1.8,1.8,1.8,4.1,4,5.5
			c2.1,1.2,4.6-0.2,6,2.2c0.7-0.6,1-0.9,1.5-1.2c0.3,0.3,0.8,0.5,1,0.9c1.7,3.1,2.6,6.6,3.6,10c1.7,6,3.2,12.1,8.1,16.7
			c3.7,3.5,8.1,4.8,12.8,5.3c3.3,0.3,6.7-0.1,10,0.1c3.4,0.2,6.6-1.5,10.1-1.1c3.5,0.4,7.2,0.8,10.4-0.1c4.4-1.2,8.8-0.4,13.2-0.9
			c0.4-0.4,0.9-0.9,1.4-1.4c0-24.6,0-49.3,0-74c0.5-0.4,1-0.9,1.7-1.5c8.4,0.8,17-1.7,25.7-1c0.8,0.1,1.6,0,2.7,0
			c-1,4.6,1.5,8.5,0.8,12.8c2.1,10.8,0.6,21.7,1,32.6c0.2,5.2-0.1,10.3,0.1,15.5c0.1,4.2-1.5,8.3-1.1,12.6c0.4,4.3,0.1,8.7,0.1,13
			s0,8.7,0,13s0,8.7,0,13s-0.1,8.7,0,13c0.1,2.1-1.5,3.8-1.1,6.1c0.3,1.9,0.1,4,0.1,6c-1.4,0.8-2.9,0.5-4.3,0.3
			c-3.6-0.4-7,1.1-10.6,1.1c-3.5,0-7.1-0.6-10.5,0.2c-3.4,0.8-6.7,0.7-10.4,0.9c0,6.7,0,13.5,0,20c-1.8,2-3.8,2.1-5.9,2
			c-6.6-0.6-13,1.7-19.6,1c-4.1,1.7-8.5,0.3-12.6,1.1c-3.9,0.8-7.8,0.3-11.6,1c-4.7,0.9-9.6,0.1-14.1,1.1c-4.8,1.1-9.4,0.2-13.8,0.9
			c-5.5-3.7-10.8-7.2-17-11.3c-2.2-0.9-5.1,2-8.7,1c0,3.6-0.1,6.9,0,10.2c0.1,1.4-0.5,2.2-1.7,3.2c-4.6-0.9-9.3,0.9-14.5,0.9
			c1.1-4.6-1.5-8.5-0.7-13.2c-2.2,0.5-3.9,0-5.9,1c-1.8,0.8-4.3,0.1-6.4,0.2c-1.9,0.1-3.8-0.6-5.6,0.9c-2.2-2.4-0.3-5.6-1.4-8
			c-1.1-2.6-0.9-5.1-0.8-7.6c0.2-2.8-1-5.4-1.1-8.1c-0.1-2.6,0-5.3,0-7.6c1.6-2.5,3.8-1.2,5.8-1.8c0-1.3,0.7-2.7-0.5-4
			c-0.3-0.3-0.4-0.9-0.3-1.3c0.6-4.8-1.6-9.3-1-14.1c0.2-2.1-1.3-3.9-1.1-6.1c0.2-2,0.7-4.2-0.9-6.1c-0.2-0.3-0.1-1,0-1.5
			c0.3-4.9-1.8-9.6-0.9-14.6c-4.5,0-8.6,0-13.1,0c0.4,2.2-0.8,4.5,1,6.5c0.2,0.2,0.1,0.7,0,1c-0.7,4.8,1.6,9.3,1,14.1
			c-0.2,2.1,1.4,3.8,1.1,6.1c-0.3,2-0.7,4.2,0.9,6.1c0.1,0.1,0,0.3,0,0.5c-0.5,5.7,1.7,11.3,1,17.1c-0.4,3.4,0.5,6.7,1.7,9.8
			c0.3,0.7,0.3,1.3,0.2,1.9c-0.5,4.4,1.7,8.6,1,13.1c1.9,5.3,0.7,10.7,1,16.1c0,0.5-0.1,1-0.1,1.3c-4.8,1.6-9.6,1.6-14.5,1.3
			C583.5,633.3,584.1,629.4,584,625.7z M559,572c-2.4,0-5.4,0.1-8.4,0c-3-0.2-5.6,1.4-8.6,1.2c-3-0.2-6-0.4-9.1,0.7
			c-2.4,0.8-5.3,0.4-7.9,0.1c-2.8-0.3-5.3,1.5-8.1,1.1c-1.2-0.1-2.6-0.5-3.7,0.3c0,2.9,0,5.7,0,8.3c0.5,0.5,0.9,0.9,0.9,0.9
			c3.1,1.3,5.6-0.4,8.3-0.6c4-0.3,8,0,12.1-0.8c4.5-0.9,9.4-0.2,14.1-1.1c3.9-0.8,8.1,0.6,12.1-1.1c5.6,0.5,11.1-0.6,16.6-1
			c0.9-0.1,2,0.5,2.6-0.5c1.1-1.8-1.2-2.9-0.9-4.6c0.3-1.6,0.1-3.2,0.1-4.8c-2.5,0-4.7-0.5-6.4,1.4c-1.2-1.9,0.4-4.5-2-5.2
			c-3.1,1.7-6.3,0.2-9.4,1C560.6,568.7,561.8,571,559,572z M734.5,567.8c-6.8,0.6-12.6-0.5-18.4,0.8c-1.9-0.8-0.2-4-2.6-4.4
			c-2.5,0.9-0.9,3.3-1.8,4.6c-4.5,0.6-8.8-0.1-13.3,0.9c-4.5,1-9.3,0.2-13.9,0.2c-0.2,0-0.4,0.1-0.5,0c-0.8-0.4-1,1.4-2.2,0.4
			c-0.7-1.4-1.6-2.9-2.5-4.6c-3.2,2.3-6.8,0.5-10.2,1.5c0,1.8,0,3.6,0,5.4c3.9,2.7,7.7,5.5,11.6,8.2c2.4,1.4,4.2-0.9,6.5-0.9
			c5.4-0.1,10.8,0.7,16.1-1c9.9,0.6,19.6-1.7,29.5-1c0.3,0,0.6-0.1,1.1-0.2C737.1,574.7,732.5,571.5,734.5,567.8z M654.3,550.9
			c3.5,0.2,7.3,0.6,10.8-1c1.4,0.8,1.9,2,2.4,3.1c2.4,0,4.7,0,6.8,0c2.1-1,2.3-3.1,1.6-4.3c-1.5-2.5-1.9-5.3-2.5-8
			c-1.1-5-4.4-8.9-5.6-13.4c-4-1.4-7.5,0.9-11.2,0.7c-6-0.2-12,0-18-0.1c-1.9,0-3.4,0.5-5.1,1.1c-0.2,0.1-0.2,0.4-0.4,0.7
			c1,0.4,0.7,1.4,1.1,2.1c4.5,0.6,8.9,0.1,13.6-1.1C650.7,537.3,651.5,544.2,654.3,550.9z M511.5,552c3.3-0.2,6.7,0.6,10-1
			c5.7,0.6,11.4-0.7,17.1-1c3.2-0.2,6.5,0.8,9.6-1c5.7,0.4,11.4-0.5,17.1-1c1.3-0.1,2.6,0.5,3.6-0.3c0-2.7,0-5.1,0-7.8
			c-2.7,0.7-5.3,0.7-7.7,1.3c-5.5,1.5-11.2,1.9-16.8,2.8c-2.4,2.1-5.6,0.3-8.3,1.8c-1.5,0.9-3.9,0.2-6,0.2c0-1.7-1.1-2.7-1.7-4.2
			c-6.1,1.4-12.4,1.8-18.4,3.5c0,1.9,0,3.5,0,5.2C510.4,550.9,510.7,551.2,511.5,552z M644.8,577.1c0,4.5,0,8.6,0,12.6
			c-2.8,0.6-5.3,1.1-8.3,1.8c1.2,1.8,2.7,2.6,4.4,2.5c2.6-0.1,4.9,1.7,7.6,1c1.4,1.8,3.7,0.2,5,1.2c1.7,1.3,3.5,0.4,4.6,0.8
			c3.1,1.8,5.6,3.4,7.9,5.4c0.9,0.8,2.2,2.4,4.3,1.2c-3.5-2.6-6.6-5.4-10.2-7.5c-3.6-2.1-4.9-5.2-5.1-9c-0.1-1.7,0.2-3.3-0.1-5
			c-0.2-1.7-0.8-3.3-1.3-5C650.9,577.1,648.1,577.1,644.8,577.1z M637.7,555.1c-4.1-0.9-7.8,1.6-11.8,0.9c-1.6-0.3-3.2,0-4.9,0
			c0,3.1,0,5.9,0,8.6c1.7,2.4,4.4,1.9,6,1.3c2.6-1.1,5.1-0.6,7.7-0.8c1.8-0.1,3.5,0,5.6,0C639.4,561.4,638.6,558.4,637.7,555.1z
			 M579.2,599.7c0.9-0.1,1.9,0.7,2.8-0.3C580.9,598.8,580.1,598.8,579.2,599.7z"/>
		<path d="M678.7,502c-0.1,1.8,1.7,2.5,2.1,3.2c0.8,2.5-1.7,3.5-0.4,5.5c-2.1,0.5-3.7,0.8-5.1-1c-0.5-2.7-0.4-5.3,1.3-7.7
			C677.2,502,677.8,502,678.7,502z"/>
	</g>
</g>
</svg>
