<?xml version="1.0" encoding="utf-8"?>
<!-- Generator: Adobe Illustrator 17.1.0, SVG Export Plug-In . SVG Version: 6.00 Build 0)  -->
<!DOCTYPE svg PUBLIC "-//W3C//DTD SVG 1.1//EN" "http://www.w3.org/Graphics/SVG/1.1/DTD/svg11.dtd">
<svg version="1.1" id="Layer_1" xmlns="http://www.w3.org/2000/svg" xmlns:xlink="http://www.w3.org/1999/xlink" x="0px" y="0px"
	 viewBox="0 0 1440 937" enable-background="new 0 0 1440 937" xml:space="preserve">
<g>
	<g>
		<path d="M534.3,421.5c-1.7,3.3-2.6,5.1-3.7,7.2c-2.9,2.1-6.8,3.7-9.8,6.9c1.6,3.5,1.4,7.3,1.1,11c-0.3,3.7,1.2,7,1.1,10.6
			c-0.1,3.7-0.7,7.5,0.1,11c1.2,5.2,0.5,10.4,0.9,15.3c-4.6,2.2-9.2,1.3-13.5,1.5c-1.5-1.9-1.6-4-1.5-6.1c0.3-4.9-1.8-9.6-1-14.6
			c-1.6-2.9-0.8-6-1-9.1c-0.2-2.2-1.3-4.2-1.1-6.6c0.2-2.2,0.7-4.6-0.9-6.6c-0.2-0.2-0.1-0.7,0-1c0.7-6.9-1.9-13.7-0.8-20.8
			c1.8-1.4,4.2-2.5,5.7-4.8c-1.1-0.7-2.6-0.8-3.5-0.2c-1.1,0.8-2,0.9-3.1,0.5c-1.8-4.7-1.2-9.6-1.4-14.5c-0.1-2.4-1.2-4.6-1-7.1
			c0.2-2.2-0.6-4.5-0.7-6.6c-0.2-3.4-1.5-6.6-1.3-10.1c0.2-3.3,0-6.7,0-10.1c0.6-0.3,1.3-0.6,2-0.9c-0.7-1-1.9-0.2-3.1-0.9
			c0.9-2.7-1.1-5.1-1-7.8c0.1-2.8,0-5.7,0-8.5c0-1-0.1-1.8-0.8-2.7c-0.8-1.2-0.1-2.5,1.2-3.5c4.7-0.5,9.8,0.8,15.3-2
			c-5.9,0.2-11.1-1-16.2,0.9c-1.9-4.1-1.2-8.5-1.7-12.8c-0.4-4.2-1.2-8.3-0.8-12.7c1.6-1.8,4-1.5,6.2-1.5c2.8,0,5.9,0.7,8.5-0.1
			c5.4-1.7,10.7-0.3,15.9-0.9c0.2,0.6,0.3,0.9,0.3,1.2c-0.5,5.7,1.7,11.3,1,17.1c1.4,3.1,0.3,6.6,1.2,9.5c1,3.3,0,6.6,0.9,9.6
			c1,3.4,0.2,6.9,1,10.1c0.8,3.2,0.8,6.4,0.8,9.6c0,1.8,1.7,3,0.9,5.3c1.5-1.1,2.2-1.9,2.3-3.3c2.8,0,5.6,0,8.2,0
			c0.7-0.6,1.1-1.1,1.6-1.6c0.8-1.9-1.5-3.2-1.1-5.1c0.4-1.6,0.6-3.5,0-4.9c-1.2-3-0.8-6.1-0.9-9.1c-0.1-2.2-1.4-4.2-1.1-6.6
			c0.2-2.2,0.7-4.6-0.9-6.6c-0.1-0.1,0-0.3,0-0.5c0.7-4.8-1.3-9.3-1.1-14.1c0.2-3.7,0.5-7.5-1.1-10.9c0.6-0.6,1.1-1.1,1.6-1.6
			c0.2,0,0.3-0.1,0.5-0.1c8.7,0.7,17.4-1.6,26.1-1c4.6-1.7,9.5-0.2,14.1-1.2c4.6-0.9,9.2-0.1,13.6-1c4.9-1,9.8-0.2,14.6-1
			c3.2-0.6,6.4-0.6,9.7-0.9c0-1.9,0-3.7,0-5.3c0.8-1,1.7-0.4,2.9-0.9c0.5-0.4,0.3-1.9,1.4-2.4c0.3-0.1,0.6-0.3,0.9-0.3
			c4.2,0,8.5,0.7,12.5-0.2c3.9-0.9,7.8-0.6,11.6-0.8c0.1,0,0.3,0.1,0.5,0.1c1.4,2.8,0.9,6,1.5,8.9c3.5,17,1.2,34.1,1.9,51.2
			c0.1,1.3,0,2.7,0,4c0,7.7,2,15.3,0.7,23.2c0.9,0.7,1.7,1.3,2.4,1.8c-0.9,10.2,1.6,19.9,0.9,29.8c-0.1,2.2,1.5,4.2,0.8,6.6
			c-1.8,1.1-1.8,3.8-4.3,4.9c1.9,1.8,1.4,4,1.4,6c-1.4,1.7-3.9,1.9-5,4.6c-0.1,0.9,0.6,2.8-1.5,3.8c-2.8,0.6-6-0.8-9,0.9
			c-0.8-0.5-1.5-1.2-1.6-2.5c-0.1-0.1-0.3-0.3-0.4-0.3c-2.4,0.2-4.9-0.3-7.4,0.3c-3.1,0.7-6.1,1.8-9.3,1.7c-2.6-0.1-4.9,0.8-6.7,2.4
			c-0.2,1,0.2,1.5,0.8,1.9c-0.2,0.3-0.3,0.5-0.4,0.7c-0.3,0.3-0.7,0.9-1.1,0.9c-5.9,1-9.4,4.9-12.5,9.8c0.6,1.3,1.3,2.7,1.2,4.4
			c-0.6,6.4,1.7,12.7,1,19.1c1.9,5.4,0.9,11.1,0.9,16.6c0,2.4,1.4,4.3,1.1,7c-4.6-0.3-9.1,1.5-13.8,1.2c-4.2-0.3-8.5-0.4-12.4,1.2
			c-0.9-1.1-2.3-1.5-1.8-2.8c-0.4-0.3-0.5-0.4-0.6-0.4c-2.7,0-5.5-0.5-7.9,0.3c-1.6,0.5-3.1,0.6-4.7,0.7c-3.2,0.1-6.6-0.7-9.4,0.2
			c-4.1,1.3-8.1,0.4-12.5,1c1-7.1-1-13.6-0.9-20.3c0.1-7-1.5-14-0.9-21.1c-1.8-4.4-0.2-9.2-1.1-13.6c-1.3-6.1-0.1-12.1-1-18.1
			C534.3,429.7,534,426.4,534.3,421.5c0.1-0.3-0.3,0-0.3,0.1c0.3,0.4-0.6,1.5,0.4,1.3C535.3,422.7,535.2,421.8,534.3,421.5z
			 M553,333c0.1,3.5-0.5,6.6,1,9.5c-0.7,5.4,1.9,10.6,0.9,15.9c0.6,0.6,1.1,1.1,1.5,1.5c8.9,1,17.4-1.9,26-0.7
			c0.6-0.6,1.1-1.1,1.8-1.8c-1.1-8.7-2.2-17.5-3.3-26.7c-3.2,1.6-6.3,1.3-9.4,1.4c-2.9,0.1-5.7-0.1-8.6,0.8
			C559.9,333.7,556.6,333,553,333z M583.7,463c1.3-6.4-0.7-12.1-0.7-18c0-4,0.5-8.1-1.5-12.1c-5.4,0.4-10.8,0.9-16.3,1.3
			c-0.4,0.4-0.7,0.7-1.1,1.1c1.1,0.9,0.9,2.2,0.9,3.4c0,4.7,0,9.3,0,14c0,3.7-0.5,7.4,1.5,11.1c2.7,1.2,5.3-1.2,8.2-0.9
			C577.6,463.2,580.6,463,583.7,463z M620.9,350.6c-1.5-2.1-1.7-4.8-2.7-7.2c-0.9-2.1-0.2-4.9-0.2-7.4c0-2.4,0.2-4.8-1.5-7
			c-3,0-6.4-0.7-9.3,0.2c-3.4,1.1-6.7,0.4-9,0.8c-2.9-0.8-1.6-2.9-2.8-4.1c-1.5,4.7,1.4,9.1,0.6,13.6c2.1,4.3-0.3,9.3,2.7,13.6
			c3.4,0.8,6.9-1.4,10.7-1.1C613.2,352.2,617.2,352.5,620.9,350.6z M640.2,409c-4.2,0-7.7-0.2-11.2,0.1c-3.3,0.3-6.5,1.3-10.1,0.9
			c0,3.5,0,6.7,0,9.8c-5.3,1.4-10.7,1.7-16.3,2.6c1.9,1.1,3.6,0.1,5.1,0.9c0.2,0.6,0.4,1.2,0.7,2c10.8-2,21.6-3.1,32.5-5.5
			C641.1,416.2,639.2,412.9,640.2,409z M574,404.2c4-0.1,7.9-1.6,12-1.7c-5.1-0.3-10.1-1.3-14.8,1c0,1.5,0,3,0,4.9
			c1-0.7,2.1,0.3,2.8-0.8C574,406.5,574,405.5,574,404.2z M621.3,384.9c0.8-0.6,1.3-1,2.2-1.8c-2.2,0.2-1-1.6-1.9-2.1
			c-1.8,0-3.6,0-5.7,0c0.4,1.3-0.3,2.6,0.5,3.8C618.1,384.9,619.9,384.9,621.3,384.9z M513.8,365.8c0-0.3,0-0.6,0-0.8
			c-1.6,0-3.2-0.1-4.8,0c-1.6,0.1-3.3-0.3-4.8,0.8C507.4,365.8,510.6,365.8,513.8,365.8z M600.9,423.8c0-0.3,0-0.6,0-0.8
			c-1.4,0-2.9,0-4.3,0c-0.1,0-0.2,0.4-0.4,0.8C597.7,423.8,599.3,423.8,600.9,423.8z M590.2,424.2c1.6,0.7,3.2,1.2,5.8,0
			C593.3,424.2,591.7,424.2,590.2,424.2z"/>
		<path d="M656.9,438c-1.7,0-3,0-4.4,0c-0.1-0.1-0.3-0.2-0.3-0.3c-0.6-2.5,0.7-5.3-0.8-7.7c-0.7-1.2,0-2.3-0.5-3.2
			c1-1.1,1.9-2,2.7-2.9c1.7,0.2,2.2,1.7,3.5,2.5c0,1.9,0,3.8,0,5.8C657,434.2,656.9,436.1,656.9,438z"/>
	</g>
</g>
</svg>
