<?xml version="1.0" encoding="utf-8"?>
<!-- Generator: Adobe Illustrator 17.1.0, SVG Export Plug-In . SVG Version: 6.00 Build 0)  -->
<!DOCTYPE svg PUBLIC "-//W3C//DTD SVG 1.1//EN" "http://www.w3.org/Graphics/SVG/1.1/DTD/svg11.dtd">
<svg version="1.1" id="Layer_1" xmlns="http://www.w3.org/2000/svg" xmlns:xlink="http://www.w3.org/1999/xlink" x="0px" y="0px"
	 viewBox="0 0 1440 937" enable-background="new 0 0 1440 937" xml:space="preserve">
<g>
	<g>
		<path d="M552.1,546.8c-0.1,0.9-0.1,1.3-0.2,1.8c-2.5,0.8-4.9,1.6-7.7,1.4c-7.6-0.6-15,1.8-22.6,0.9c-1.4-0.2-1.8,1.5-3.3,1
			c-0.3-0.3-0.7-0.9-1.4-1.7c0-1-0.1-2.5,0-4c0.5-6.9-1.8-13.7-1-20.6c-2.1-5.6-0.3-11.4-1.2-17.1c0.6-0.5,1.1-0.9,2-1.7
			c9.3,1,18.9-1.5,28.6-0.9c5.3-1.5,10.8-0.2,16-1.2c4.1-0.8,8.1-0.4,12.1-0.8c0.7,1.1,0.9,2.5,2.4,3.1c1.2-0.8,2.7-1.2,4.4-1.1
			c3.5,0.2,7.2,0.8,10.4-0.1c3.6-1,7.1-0.5,10.6-0.9c2.1,1.7,1.8,4.1,1.7,6.3c-0.3,5.2,1.8,10.3,1,15.6c1.7,2.7,1.1,5.7,0.9,8.6
			c-0.1,1.9,1.6,3.2,1.2,5.1c-0.3,1.6-0.1,3.3-0.1,5c-1.1,0.9-2.5,0.5-3.8,0.4c-7.2-0.1-14.3,1.4-21.6,1.2c-2.7-0.1-5.6,1.1-8.4,0.6
			c-0.2-0.6-0.3-1-0.5-1.8c-3.2,0-6.5,0.2-9.8,0C558.7,545.7,555.8,547.9,552.1,546.8z"/>
		<path d="M511,585.9c1.2,0.1,2,0.2,2.9,0.3c0,1.2,0,2.4,0,3.5c-0.6,0.2-1.1,0.4-1.7,0.6c-0.1,0.5-0.2,0.9-0.3,1.3
			c-3.4-1.3-7-0.3-10.2-0.7c-0.8,0.5-0.7,1-0.7,1.9c-1.1-0.2-2.3-0.7-3.2-0.9c-1.2-0.4-1.9,1.9-3.3,0.3c-0.6-0.7-2.5-0.1-3.9-0.1
			c-1.3,0-2.7,0-4.1,0c-0.5,0.6-1.1,1.2-1.7,1.8c-2.8-1.5-5.7-0.3-8.4-0.9c-0.3,0.8-0.6,1.4-0.8,2c-1-0.1-0.5-0.9-0.8-1.6
			c-2.5-1.5-4.8,1.7-7.3,0.5c-0.4,0.8-0.7,1.5-1.1,2.4c-0.3-0.8-0.5-1.4-0.7-2.1c-2.4,0-4.9,0-7.3,0c-1.7,0.7-1.2,2.5-1.8,4
			c-1.3-1,0.2-3.2-2.6-3.9c-4.2,0-9.3,0-14.4,0c-1.1-1.3-0.5-2.7-0.6-3.9c-0.7-6-1.4-12-1-18.1c-1.9-3.2-0.6-6.6-1.2-10.3
			c7.4,1.1,14.1-1.3,21-0.8c0.6,0,1.3,0,2.1,0c0.1,1,0.1,1.8,0.2,3c2.1-0.5,4.3,1,6.5-0.9c0.7-0.6,2.3-0.2,3.4-0.1
			c7.9,0.5,15.7-1.7,23.6-1c4.6-2,9.4-0.4,13.9-1.1c0.8,1,0.6,2.5,2.6,2.2c0.1,3.7,0.2,7.4,0.9,11C511.5,577.8,511,581.7,511,585.9z
			"/>
		<path d="M547,589.7c0.6-10.5-1.7-20.8-1-31.2c0-0.5-0.1-0.9-0.2-1.6c-2.1,0-4.1,0.4-6-0.1c-7.1-1.7-14.4-0.5-21.7-1.1
			c0-1.5,0-3,0-4.6c1.3-0.7,2.8-0.3,4.2-0.3c7.7,0.3,15.3-1.5,23.1-1.2c2,0.1,4.2-1,6.3-0.8c0.2-0.8,0.3-1.3,0.5-1.7
			c1.5-0.9,3.3,0.4,4.7-0.7c1.5-1.2,3.2-0.4,4.8-0.6c1.5-0.1,3,0,4.5,0c1.7,0,3.3,0,5.2,0c0.7,0.6,1.5,1.4,2.5,2.2
			c3-1.6,6.3-1.2,9.5-1.2c7.4,0,14.7-1.9,22.2-0.8c1.4,2.9,1.7,6.2,1.4,9.6c-0.3,2.5,1.3,4.6,1.1,7.1c-0.2,2.3,0,4.7,0.7,7.1
			c0.8,2.7,0.2,5.9,0.2,8.9c0,2.8,0,5.7,0,8.5c-1.1,0.9-2.5,0.4-3.8,0.4c-7.7,0-15.3,1.8-23.1,1c-1.6-0.2-3.1,0.3-4.7-0.8
			c-1-0.7-3.1-0.7-4.3-0.1c-3,1.5-6.1,0.6-9.1,0.9C558.5,589.4,553,590.7,547,589.7z"/>
		<path d="M513,556.1c1.1,0,1.9,0,2.7,0c1.6,4.4-1.5,8.4-0.9,12.7C512.3,564.8,513.2,560.5,513,556.1z"/>
	</g>
</g>
</svg>
