<?xml version="1.0" encoding="utf-8"?>
<!-- Generator: Adobe Illustrator 17.1.0, SVG Export Plug-In . SVG Version: 6.00 Build 0)  -->
<!DOCTYPE svg PUBLIC "-//W3C//DTD SVG 1.1//EN" "http://www.w3.org/Graphics/SVG/1.1/DTD/svg11.dtd">
<svg version="1.1" id="Layer_1" xmlns="http://www.w3.org/2000/svg" xmlns:xlink="http://www.w3.org/1999/xlink" x="0px" y="0px"
	 viewBox="0 0 1440 937" enable-background="new 0 0 1440 937" xml:space="preserve">
<g>
	<g>
		<path d="M595,322.2c2.9-0.2,5.5,0.2,7.7-0.6c2.3-0.9,4.5-0.4,6.7-0.5c2.5-0.2,5,0.1,7.5-0.1c1.7-0.1,3.3-0.8,4.9-1.3
			c0.1-0.8,0.2-1.6,0.3-2.4c2.7-0.6,5.3,0,8-0.3c2.5-0.3,5,0.4,7.7-0.8c2.2-1,5.2-0.2,7.9-0.2c0.6,0,1.3,0,1.7,0
			c1.5,0.9,1.8,2.1,1.6,3.5c-0.5,4.7,1.7,9.3,1,14.1c1.5,2.7,0.8,5.7,1,8.6c0.1,1.9,1.3,3.6,1,5.6c-0.2,1.7-0.3,3.5,0.9,5.1
			c0.3,0.4,0.1,1.3,0,2c-0.6,5.6,1.7,11,1,16.6c2.1,5.6,0.3,11.4,1.2,17.3c-4.3,0.8-8.6-0.4-13.4,0.9c-0.7-0.2-0.5-1.8-1.4-2.7
			c-1.8,0-2.3,1.4-2.7,2.8c-3.7,0.8-7.7-0.7-11.5,1c-0.5-1-0.6-2.4-2.2-2.7c-1.5,0.2-2,1.4-2.3,2.7c-0.3,0.1-0.6,0.3-0.9,0.3
			c-2.8,0-5.7,0.1-8.5,0c-0.9,0-1.5,0.5-2,1c-0.7-1.1-0.8-2.6-2.3-3c-1.7,0.2-2.3,1.5-2.3,2.9c-1.8,0-3.2,0-5,0
			c1-3.1-1.1-5.7-0.9-8.6c0.2-3,0.2-6,0-9c-0.1-2.2-1.2-4.2-1-6.6c0.2-2.2,0.7-4.6-0.9-6.6c-0.1-0.1,0-0.3,0-0.5
			c0.6-4.9-1.6-9.7-1-14.6c0.3-2.5-1.5-4.5-1.1-7.1c0.3-2.3-0.1-4.7-0.7-7.1C594.4,328.9,595,325.6,595,322.2z"/>
		<path d="M556,326.1c0.3-6-0.9-10.5-1.2-15.2c-0.3-3.7-0.4-7.4-0.8-11.1c-0.3-2.5-1.5-4.9-1.1-6.3c1.3-3.5,3.7-1.9,5.5-3.1
			c-1.6-1.6-1.3-3.5-1.3-5.4c0-3,0.2-6,0-9c-0.2-3.3,1.9-6.2,0.8-9.9c5.2,0.4,10-2.1,15.2-0.7c0,2.1-0.4,4.3,0.1,6.3
			c1.2,4.5,0.3,9.1,1.1,13.5c0.7,3.7,0.2,7.5,1,11.1c0.8,3.4,0.1,6.9,1,10.1c1.5,5.4,0.3,10.8,1,16.1c-4.6,2.4-9.6,1.4-14.4,1.6
			C560.7,324.1,558.5,323.5,556,326.1z"/>
		<path d="M563.5,395c-0.7-0.7-1.1-1.1-1.6-1.6c0.8-5.6-1.6-11.2-0.9-16.9c-1.6-3.4-0.3-7.2-1.1-10.6c-0.9-3.7-0.3-7.5-1-11.1
			c-0.8-3.9,0-7.9-1-11.6c-1.7-6.4,0-12.7-1.1-19.3c4.1,0,7.7,0,11.3,0c3.6,0,7-1.3,10.6-1.1c3.5,0.2,7.1,0.7,10.6-0.8
			c1.2-0.5,2.9-0.1,4.2-0.1c0.5,0.5,0.9,0.9,1.5,1.5c0,0.5,0.1,1.3,0,2.1c-0.5,4.8,1.8,9.3,1,14.1c1.6,2.9,0.8,6,1,9.1
			c0.2,2.2,1.3,4.2,1.1,6.6c-0.2,2.2-0.7,4.6,0.9,6.6c0.1,0.1,0,0.3,0,0.5c-0.7,5.4,1.7,10.7,0.9,16.1c-0.3,2.4,1.4,4.2,1.1,6.6
			c-0.3,2.1-0.1,4.3-0.1,6.4c-2,1.3-4.7-0.8-6.5,1.4c-0.6-1.1-0.9-2.4-2.2-3c-1.5,0.4-2.5,1.2-2.3,3.1c-8.4-0.6-16.3,1.7-24.4,0.9
			C564.6,393.9,564,394.3,563.5,395z"/>
	</g>
</g>
</svg>
