<?xml version="1.0" encoding="utf-8"?>
<!-- Generator: Adobe Illustrator 17.1.0, SVG Export Plug-In . SVG Version: 6.00 Build 0)  -->
<!DOCTYPE svg PUBLIC "-//W3C//DTD SVG 1.1//EN" "http://www.w3.org/Graphics/SVG/1.1/DTD/svg11.dtd">
<svg version="1.1" id="Layer_1" xmlns="http://www.w3.org/2000/svg" xmlns:xlink="http://www.w3.org/1999/xlink" x="0px" y="0px"
	 viewBox="0 0 1440 937" enable-background="new 0 0 1440 937" xml:space="preserve">
<g>
	<g>
		<path d="M789.8,541c2.7,0,4.9,0.4,6.9-0.1c5-1.3,10.2-0.1,15.1-1.1c5.4-1,10.8,0,16.1-1c5.1-1,10.1-0.7,15.1-0.8
			c1.4,0,2.2-1.3,3.6-1.1c1,2.5,2,5.1,1.5,7.9c-0.3,1.7,1.5,2.8,1.1,4.6c-0.3,1.3-0.2,2.7,0.8,4.2c0.7,1,0.1,2.9,0.2,4.4
			c0.2,2.6-0.8,5.5,0.5,7.8c1.3,2.3-0.7,5,1.5,6.9c-0.7,3,0.6,5.7,1.1,8.5c0.6,3.7,0.5,7.4,2.4,11c1,1.9,1.6,4.4,1.5,6.8
			c-0.1,3.5,0,7,0,10.5c-1.5,1-3.2,0-4.9,0.7c0,1.4,0,2.8,0,4.7c-1.6,0-3.1,0.2-4.5,0c-3.2-0.5-5.9,1.5-9.1,1.1
			c-3-0.3-6.2-0.7-8.9,0.1c-4.7,1.3-9.6-0.1-14.1,1c-5.4,1.3-10.7,0.3-16.4,1c0.2-3-1.4-5.6-1.2-8.6c0.1-2.7-0.7-5.4-1.1-8
			c-0.4-2.4-0.2-4.9-0.9-7.1c-0.8-2.4-0.3-4.9-1-7.1c-0.8-2.4-0.3-4.9-1-7.1c-0.8-2.4-0.3-4.9-1-7.1c-0.8-2.4-0.3-4.9-1-7.1
			c-0.7-2.2-0.3-4.5-0.9-6.6C789.1,553.6,790.6,547.5,789.8,541z"/>
		<path d="M883.4,661.9c-0.8-1.7-2-3.4-1.4-5.4c0.6-1.8-1.3-2.9-1.1-4.6c0.2-1.5,0.5-3.3-0.9-4.6c0.7-3-0.7-5.7-1.1-8.5
			c-0.5-3.1-1-6.2-1.6-9.2c-0.5-2.9-1.3-5.9-1.3-9c0-4.7,0-9.3,0-14.1c1.5-1.4,3.5-2.4,4.3-4.5c4.2,0,8.2,0,12.3,0
			c0.3,1.4,1.3,2.4,2.6,3.5c0,1.3,0,2.7,0,4.2c1.3,0.8,2.5,1.6,3.6,2.3c0.9,6,1.3,12,3.3,17.7c-0.7,3,0.9,5.7,1.1,8.6
			c0.2,2.6,1.1,5.2,1.5,7.8c0.6,4.2,2.1,8.4,1.2,13c-0.9-1.4-1.1-2.9-2.8-3.2c-2,0.5-1.9,2.3-2.2,3.8c-1.3,0.1-2.6,0.6-3.7-0.3
			c-1.2-1-2.6-0.1-3.8-0.5c-1.2-0.4-2,1-3.4,0.5c-1.1-0.4-2.4,0.4-3.3,0.7C885.6,660.6,884.2,661,883.4,661.9z"/>
		<path d="M886.8,534.8c0.9,5.2,1.5,9.8,2.4,14.3c0.9,4.2,0.6,8.8,2.8,12.8c-0.8,3.1,1.5,6,1,9.1c-0.3,1.5,1.1,2.2,1.1,3.6
			c0,1.2-0.3,2.4,0.6,3.7c1.2,1.9-0.6,4.6,1.3,6.4c0.5,8.7,3.3,17.2,1.6,26.2c-0.7,0-1.5,0-2.4,0c0-1.8,0-3.5,0-5
			c-1-1.4-2.8-1.9-2.2-3.8c-2.6,0-4.7,0-6.9,0c-1.9,0-3.8,0.1-5.6,1c-1.8,0.8-2.6,2.9-4.5,3.3c0,2,0.5,4-0.1,5.7
			c-0.6,1.7-0.8,3.3-0.9,4.9c-0.8,0.2-1.3,0.4-1.8-0.3c0-0.5-0.1-1.3-0.2-2.3c-1.9,0-3.8,0-5.7,0c-0.1,0.9-0.2,1.7-0.3,2.4
			c-0.4,0.7-0.9,0.3-1.4,0.5c-1-0.7-0.2-1.9-0.8-2.9c-1.4,0-2.9,0-4.5,0c-1.3,0.9,1,3.3-1.8,4.1c-0.9-1.6-0.2-4.6-3.4-4.2
			c-2.5,0.3-1.8,2.7-2.9,4.7c0-3.2,0-5.8,0-8.5c1.4,0,2.9,0,4.8,0c-0.3-6,0.7-11.8-1.6-18.1c0,0-0.6-0.6-1.2-1.1
			c-0.1-0.4-0.3-0.7-0.3-1c-0.2-1.9,0.6-4-1-5.6c0.5-2.6-0.8-5.1-0.9-7.6c-0.1-1.8-0.6-3.4-1-5.1c-0.4-1.7,0.3-3.4-0.9-5.2
			c-0.8-1.1-0.1-3.2-0.2-4.9c-0.1-2.5,0.8-5.2-0.4-7.3c-1.3-2.3,0.8-5-1.6-6.9c0.7-3.4-1.1-6.6-1-10.4c1.9,0,3.7,0,5.5,0
			c6.7-0.2,13.3-1.6,20.1-1C877.1,534,881.9,535.6,886.8,534.8z"/>
	</g>
</g>
</svg>
