<?xml version="1.0" encoding="utf-8"?>
<!-- Generator: Adobe Illustrator 17.1.0, SVG Export Plug-In . SVG Version: 6.00 Build 0)  -->
<!DOCTYPE svg PUBLIC "-//W3C//DTD SVG 1.1//EN" "http://www.w3.org/Graphics/SVG/1.1/DTD/svg11.dtd">
<svg version="1.1" id="Layer_1" xmlns="http://www.w3.org/2000/svg" xmlns:xlink="http://www.w3.org/1999/xlink" x="0px" y="0px"
	 viewBox="0 0 1440 937" enable-background="new 0 0 1440 937" xml:space="preserve">
<g>
	<g>
		<path d="M1051.9,186.4c2.6,7.2,2.8,15,5.5,22.5c-4.7,0-8.9,0-13.3,0c0,2.7,0,5.3,0,8c-2.8,0-5.2,0-7.8,0c-0.4-0.4-0.9-0.9-1.4-1.4
			c0-2,0-4,0-6.4c-1.9,0-3.8-0.1-5.8-0.1c-2,0-3.9,0-6.2,0c0,2.1-0.3,4.1,0.1,6c0.5,2.9-1.2,5.3-1.1,8.1c0.1,2.8,0.1,5.7,0,8.5
			c0,1.4-1.5,2.5-1,4.4c-4.4,0-8.7,0-13,0c-4.3,0-8.7-0.1-13,0c-4.3,0.2-8.3-2-12.4-0.9c-1.1-1,0.1-1.1,0.4-2
			c-3.2-4,1.5-8.4-0.4-13.1c-0.1-0.1-0.6-0.6-1-1c-5.5,0-11,0-16.4,0c-0.7,2,0.3,4-0.7,5.9c-0.9-0.6-0.6-1.5-0.6-2.3
			c0-10.5-0.2-21,0.1-31.5c0.1-4,1.4-7.9,0.9-12c4.1-1.4,7.8,1.7,11.8,0.5c0.7-0.6,0.1-1.5,0.3-2.5c5.4-1.5,10.8,1.1,16.2,0.7
			c0.9,0.7,1.9,1.3,1.8,2.6c1.8,1.3,3.8,1.7,5.9,1.3c2.5-0.4,4.6,1.2,7.1,1.1c2.2-0.1,4.3-0.2,6.7,0.7c2.3,0.9,5.2,0.2,7.6,0.2
			c0.8-0.5,0.6-1,0.7-1.8c2-0.2,4-0.7,6,0.4c0.4,0.2,0.8,0.5,1.3,0.4c4.1-0.6,8,1.1,12.1,1.1
			C1045.5,184.1,1048.6,184.8,1051.9,186.4z"/>
		<path d="M1104.5,332c-0.5-0.7-1.1-1.1-2.1-1c-6.5,0.1-13,0.2-19.5,0c-6.4-0.3-12.7-1.3-19.1-1c-4,0.2-8-0.1-12,0.1
			c-3.9,0.2-7.6-1.5-11.6-1.1c-3.8,0.4-7.8,0.8-11.4-0.1c-5.7-1.3-11.4-0.6-17.1-0.8c-5.8-0.2-11.6,0-17.2,0
			c-1.1,0.9,0.1,2.2-0.9,2.9c-0.2-0.2-0.6-0.4-0.6-0.6c0-19,0-38,0-57c1.7-5.2,0.7-10.7,1.1-16c0.5-0.5,1.1-1.4,1.5-1.3
			c3.6,0.3,7.2-0.9,10.7,0.6c0.7,0.3,1.6,0.3,2.4,0.3c4.7,0,9.3,0,13.9,0c1.1-1.2-0.1-2.7,1-4.1c2.6,0.5,5.6-0.9,8.3,1
			c0.6,0.4,1.6,0.1,2.5,0.1c2.3,0,4.7,0.1,7,0c9.7-0.6,19.4,1,29.1,1c1.1,0,2.3,0,3.2,0c0.6-0.6,1-1,1.3-1.3
			c0.1-0.3,0.2-0.6,0.2-0.9c-0.6-6.1,1.7-12,1-18.1c1.6-3.6,0.3-7.5,1.2-11c0.9-3.8,0.6-7.4,0.9-11.2c0.4-0.4,0.9-0.8,1.6-1.4
			c3.9,0,8.1-0.6,12.2,0.1c6.7,1.1,13.3,0.6,20.2,1c0,9.6,0,19.1,0,28.6c0,2.2-1.4,4.2-1.1,6.6c0.2,2.2,0.7,4.6-0.9,6.6
			c-0.2,0.2-0.1,0.7,0,1c0.7,5.4-1.4,10.6-1.1,16.1c0.1,2.1-1.1,4.3-1,6.6c0.2,2.2,0,4.4-0.8,6.6c-0.7,2.1-0.1,4.6-0.2,6.9
			c-0.1,2.1-1.1,3.9-1.1,6.1c0.2,5.7-1.3,11.3-1,17.1c0.3,5.6,0.1,11.3,0.1,17C1105,331.5,1104.7,331.7,1104.5,332z"/>
		<path d="M1034.5,209.2c2.1,2.4,1.3,5.1,1.6,7.7c2.3,0,4.4,0,6.5,0c0.4-0.4,0.7-0.7,1.2-1.2c0-1.9,0-4.1,0-6.6c1.9,0,4,0.6,5.4-0.1
			c1.8-1,3.9-1.4,5.1-0.7c1.8,1.1,3.5,0.6,5.4,0.9c0.5,4.9,2.5,9.7,2.3,14.9c-0.1,2-1,3.6-1.2,5.6c-0.2,2.8,1.3,5.3,1.2,8.1
			c1.3,1.3,2.6,2.6,3.9,3.9c-0.5,4.5,2.1,8.6,2,13.1c-6.8,1.5-13.4-1-20-0.7c-6.8,0.2-13.7,0.1-20.5,0.1c-0.6-1-1.6-1.1-2.6-1
			c-2.1,0.5-1.7,2.4-2.2,3.9c-0.5,0-1,0-1.7,0c0-7.9,0-15.7,0-23.5c1.8-4.1,0.9-8.4,0.9-12.6c0-2,1.5-3.5,1.2-5.6
			c-0.3-1.9-0.1-3.9-0.1-6.1C1026.9,209.2,1030.7,209.2,1034.5,209.2z"/>
		<path d="M982.9,316c-3.1,0-5.7,0-8.4,0c-0.5-0.8-1.9-1.2-1.5-2.4c1.8-4.8,0.7-9.7,0.9-14.6c0-1.3,0.9-2,1.1-3.1
			c0.2-0.9-1.1-1.1-1-2.1c0.2-5.3-1.5-10.4-2.1-15.6c-0.8-6.1-2.4-12.1-2.8-18.3c-1.5-1.8-0.4-4.2-1.1-6c-0.8-1.9-0.2-4.1-1-5.6
			c-1.7-3-0.4-6.2-1.6-9.3c-1.1-2.9-0.2-6.6-0.2-9.9c0-3.3,0-6.6,0-10c5.7,0,11.1,0,16.6,0c0.4,0.4,0.9,0.9,1.3,1.3
			c0,10.3,0,20.6,0,30.9c0.7,0.7,1.4,1.4,2,2.1c0,4.4-0.3,8.7,0.1,13c0.5,7.1-1.4,14-1.1,21.1c0.3,7,0.1,14,0,21
			C983.9,311.1,982.5,313.4,982.9,316z"/>
		
		<path d="M1008.4,374.9c-1.2-1.2-2.4-3.4-3.8-3.6c-2.4-0.3-1.9-3-4.1-3.5c-1.6-0.3-2-3-3.3-3.7c-1.7-0.9-2.5-2.5-4.2-3.5
			c0-7,0.1-14-0.1-20.9c-0.1-2,1.5-3.5,1.1-5.6c-0.3-1.9-0.1-3.9-0.1-6.1c9.2,0,18.2-0.8,27.1,0.2c7.6,0.9,15.1,0.6,22.6,0.7
			c5.9,0.1,11.6,1.6,17.6,1.2c5.8-0.4,11.8-0.9,17.4,0.1c8.7,1.5,17.4,0.1,26,1c1.5,7.2-1.4,14.2-0.7,21.1c-3.1,5-4.9,10.3-7.3,15.4
			c-2.3,1.9-5-2.6-7.4,0.3c-2.7-0.3-5.2-1.6-7.7-1c-0.9-0.5-0.6-1.1-0.7-1.5c-0.6-0.8-1.6-0.6-2.3-0.4c-4.4,1.1-8.6,0.3-12.8-1
			c-0.9-0.3-2.1-0.4-3,0c-3.9,1.8-7.8,1.1-11.7,0c-0.5-0.1-1,0-2,0c-0.3,0.5-0.9,1.4-1.1,1.8c-2.8,0.5-5.2-0.5-7.3,1.3
			c-1.5-1.7-3.5-1-5.5-1.2c-0.2,0.6-0.4,1.2-0.7,1.9c-2.5-0.1-4.8,0.9-7.3,1.8c-0.9-1-2.4-0.6-4.2-0.7c-0.8,1-1.7,2.1-2.5,3.1
			c-2.3-0.4-3.6,1.1-5.4,1.6C1012.9,371.8,1010.7,373.6,1008.4,374.9z"/>
	</g>
</g>
</svg>
