<?xml version="1.0" encoding="utf-8"?>
<!-- Generator: Adobe Illustrator 17.1.0, SVG Export Plug-In . SVG Version: 6.00 Build 0)  -->
<!DOCTYPE svg PUBLIC "-//W3C//DTD SVG 1.1//EN" "http://www.w3.org/Graphics/SVG/1.1/DTD/svg11.dtd">
<svg version="1.1" id="Layer_1" xmlns="http://www.w3.org/2000/svg" xmlns:xlink="http://www.w3.org/1999/xlink" x="0px" y="0px"
	 viewBox="0 0 1440 937" enable-background="new 0 0 1440 937" xml:space="preserve">
<g>
	<g>
		<path d="M1144.9,636.1c0.1,1.4,0.1,2.5,0.2,3.8c1.9,0,3.7,0,5.4,0c1,1.2,0.2,2.4,0.8,3.8c1.1,0.8,2.9-0.2,4.8,0.6
			c-0.7,3,1,6.3-1.1,9.3c0.7,4.3-1.2,8.3-1.1,12.6c0,1.1,0.8,1.7,0.9,2.2c0.4,1.4-0.9,1.6-0.9,2.5c0,1.7-0.2,3.4,0.1,5
			c0.2,1.6-1.4,2.5-1.1,4.1c0.8,4.3-0.8,8.4-1.2,12.6c-0.2,2.5-0.1,5.3-0.9,7.5c-1,2.6-0.2,5.2-1,7.6c-0.6,1.9-0.9,3.7-0.9,5.9
			c-0.5,0.4-1.2,0.8-1.7,1.2c-1.1,7.9-2.2,15.4-3.3,23.2c-1.8,0-3.4,0.1-5,0c-8.1-0.3-16,1.8-24.1,1c-5.4,1.9-11,0.6-16.5,1
			c-0.7-1,0.7-1.1,0.6-1.6c-0.7-4.8,1.4-9.4,1-14.1c-0.2-2.7,1.5-4.9,1.1-7.6c-0.4-2.6-0.1-5.3-0.1-8c0-0.8,0-1.6,0-2.2
			c-0.8-0.8-1.4-1.4-2-2c-0.2-1.9,0.5-3.9-1.1-5.5c1.9-2.6,0.9-5.5,1-8.2c0.1-2.5,0.7-5.2-1.6-7.6c-0.8-0.2-2.4-0.9-3.4-1.7
			c0-7.6,0-15.2,0-22.9c0-2.4,1.4-4.5,1.1-7.1c-0.3-2.2,0.1-4.4,0.7-6.6c0.8-2.6,0.2-5.6,0.2-8.4c1.1-0.5,0.7-1.8,1.5-2.5
			c5-0.1,9.9,1.5,15,1.1c5.1-0.4,10.5-0.8,15.5,0.1C1133.5,636.2,1139,635.6,1144.9,636.1z"/>
		<path d="M1054.1,768c5-0.1,9.7,0.5,14.1-1.3c2.6,3.4,3.1,7.4,4.7,10.9c-1.7,1.3-0.4,3.3-1,5c-0.4,0.4-0.9,0.9-1.2,1.2
			c-6.9,0-13.7,0-20.6,0C1049.4,777.9,1051.5,772.9,1054.1,768z"/>
		<path d="M1108.1,781.6c1.7-2,0.1-4.6,1-6.5c1-2.2,0.7-4.4,0.9-6.7c0.7-0.6,1.4-1.3,1-2.3c3.2-0.7,5.6,1.2,8.4,0.9
			c2.7-0.3,5.2,1.5,8.1,0.8c1.1,2.6,2.2,5.2,3.4,8.1c-1.6,1.4-0.8,3.6-1.1,5.6c-0.4,0.4-0.7,0.7-1.5,1.5c-6.2-0.3-12.7,0.4-19.3-0.4
			C1108.9,782.6,1108.7,782.2,1108.1,781.6z"/>
		<path d="M941.9,694c0-1.8,0-3.2,0-4.6c-9.8-2.2-19.7-1.1-29.4-1.4c-0.4-0.4-0.8-0.8-1.5-1.5c0-5.1-0.6-10.6,0.2-16
			c0.5-3.4,0.6-6.7,0.9-10.5c5.2,0,10.5,0.3,15.8-0.1c5.1-0.4,9.9,2.1,15.2,0.8c-0.8-3.9,1.1-7.5,1-11.3c5.3-2.3,10.8-1.7,16-1.2
			c3.9,0.4,7.7,0.7,11.6,0.8c3.8,0.1,7.7,0,11.9,0c0.4,0.6,1,1.4,1.3,2c5.5,0,10.4,0,15.4,0c1.4,0.9,2.2,2.1,1.4,3.9
			c4.5,0,8.6,0,12.7,0c1,1.3,0.4,2.7,0.5,4c2,14.6,0.6,29.4,1,44.1c0,1.3,0.4,2.2,1.6,3.1c3.2,0,6.7,0,10,0c1.2,2.6,2.5,5.1,0.4,7.7
			c-0.2,0.3-0.1,1,0,1.5c0.6,5.6-1,11-1.2,16.7c-3.5,0-6.9,0-10.8,0c0,3.6-0.2,7.1,0,10.5c0.6,7.4-1.4,14.7-1,22.1
			c-1.6,3.2-0.8,6.7-1,10.2c-1.1,0.9-2.5,0.4-3.8,0.4c-3,0.1-6-0.2-9,0.1c-5.9,0.6-11.7-1.1-17.6-1.1c-5.8,0-11.8,0.8-17.5-0.2
			c-8.4-1.4-16.7-0.1-25.2-1c0-2.9,0-5.6,0-8.8c-1.6,0-3.1-0.1-4.5,0c-9.1,0.5-18-2.1-27.1-0.8c-0.4-1.6-0.8-3,0.2-4.3
			c0.8-1,0.4-2.2,0.4-3.3c0-8.8,0-17.7,0-26.5c0-1.9-0.4-3.9,1.2-5.3c-0.6-0.6-0.9-1-1.2-1.3c2-4.8,0.7-9.7,1-14.6
			c0.2-4.8,0-9.6,0-14.5c5.1-1.5,10,1.2,15,0.8C931.1,693.7,936.3,694,941.9,694z"/>
		<path d="M1028.7,680.5c5.1-1.5,9.1,0.8,13.4,0.6c4.1-0.2,8.3,0,12.4,0c1,1.2,0.1,2.6,0.7,4.1c7.6-0.9,15,1.5,22.5,0.9
			c0.6-0.1,1.3,0,1.9,0c0.7-1.2,0.2-2.4,0.5-3.7c6-1.3,11.8,1.6,17.4,0.7c0.6,0.6,1,1,1.5,1.5c0,6.3,0,12.7,0,19
			c0.8,0.8,1.3,1.3,2,2c0,4.6-0.1,9.2,0,13.9c0.1,2.3-1.4,4.2-1.1,6.6c0.3,2-0.2,4-0.7,6.1c-0.7,2.6-0.2,5.6-0.2,8.4
			c-0.5,0.5-0.9,0.9-1.5,1.5c-3.9,0-7.9-0.1-11.8,0c-1.4,0-2.9-0.6-4.2,0.9c-0.4,0.4-1.7,0.4-2.4,0.1c-4.3-1.9-8.8-1.2-13.1-0.7
			c-3.9,0.4-7.7,0.7-11.6,0.8c-1.4,0-2.8,0.8-4,1.2c-2.7,0.9-5.4,0.7-8.1,0.8c-3.5,0.2-7.1-0.6-10.6,0.9c-1.2,0.5-2.9,0.1-4.7,0.1
			c0-7.3-0.7-14.5,0.2-21.5c0.7-5.3,0.5-10.4,0.7-15.6c0.1-3-1.2-5.9-1.1-9.1c0.1-2.5,1.4-4.6,1.2-7.1c-0.2-2.5-0.2-5,0-7.5
			C1028.2,683.6,1029.9,682.2,1028.7,680.5z"/>
		<path d="M1017.6,676c-1-0.9-1.8-1.7-2.7-2.5c0-5.7,0-11.4,0-17c-4-1.4-8.2-1.8-12.2-1.4c-1.7-0.9-1.9-2.3-1.9-3.9
			c-5.2,0-10.3,0-15.2,0c-0.8-0.8-1.3-1.3-2.1-2.1c-6.9,0-14.1,0-21.1,0c-0.5-0.8-1.5-1.1-1.5-1.2c0.2-1.8,1.1-2.1,1.7-3
			c9.7,1.2,19.5-1.5,29.4-0.8c4.8,0.4,9.3-1.3,14.1-1.1c4.7,0.2,9.5,0.7,13.9-0.1c6.9-1.3,13.8,0.1,20.6-1c6.2-1,12.4-0.7,18.6-0.8
			c6.3-0.1,12.7,0.2,19-0.1c3.6-0.2,7,1.4,10.9,1.1c0,3.1,0,6,0,9c0,3,0,6,0,9c0.1,2.9-1.7,5.6-1,8.6c0.6,3-1.3,5.5-1.1,8.3
			c-1.8,0.4-2.7-1.1-4.4-1c-15.5,0.9-31-1.4-46.5-1c-3.1,0.1-5.9,1.4-9.1,1.2C1023.8,675.8,1020.6,676,1017.6,676z"/>
		
		<path d="M883,723.7c-2.5-3.9-3.5-8-2.9-12.1c-0.9-0.9-0.9,0.1-1.6,0.2c-2.6-0.5-0.4-4.5-3.4-4.8c0-2,0-3.8,0-5.6
			c-1.5-0.7-3.6,0-4.1-2.2c-0.4-1.8-2.2-2.4-3-3.9c0-0.8,0-1.8,0-2.8c-0.6-0.6-1.2-1.2-1.9-1.9c0-2,0-4.1,0-6.2
			c1.5-0.4,2.7-2,4.4-1.3c0.9-1.9,2.1-3.5,1.3-5.5c1.8-0.6,3-2.2,5.1-1.4c0-1.8,0-3.3,0-4.5c1.7-2,3.4-3.3,5.9-3.8
			c0-1.7,0-3.5,0-5.4c4.6-3.7,9.6-4.1,15-3.2l4.5-0.2c1.3,0,3.1-0.7,3.8,0c1.8,1.4,3.8,0.4,5.8,1.2c0,4.4,0.6,9-0.1,13.3
			c-1.4,7.7-0.6,15.4-0.8,23.1c-0.2,7.8-0.1,15.6,0,23.5c0.1,6.6-1.5,13-1.1,19.6c0.4,6.6,0.5,13.4-0.1,19.9
			c-0.4,3.7-0.7,7.3-0.8,11.3c-2.3,0-4.5,0.5-6.4-0.1c-1.9-0.6-3.6-1.8-5.7-1.8c-2.3-0.1-3.8-1.5-5.3-3c-0.4,0.3-0.7,0.6-1.3,1.2
			c-1.5-1.6-4.4-0.6-5.5-3.2c-2.1,2.4-3.7-1-5.7,0.1c0-4.1,0-7.7,0-11.2c1.9-4.5,4.1-8.8,3.9-13.9C882.9,733.8,883,728.7,883,723.7z
			"/>
	</g>
</g>
</svg>
