<?xml version="1.0" encoding="utf-8"?>
<!-- Generator: Adobe Illustrator 17.1.0, SVG Export Plug-In . SVG Version: 6.00 Build 0)  -->
<!DOCTYPE svg PUBLIC "-//W3C//DTD SVG 1.1//EN" "http://www.w3.org/Graphics/SVG/1.1/DTD/svg11.dtd">
<svg version="1.1" id="Layer_1" xmlns="http://www.w3.org/2000/svg" xmlns:xlink="http://www.w3.org/1999/xlink" x="0px" y="0px"
	 viewBox="0 0 1440 937" enable-background="new 0 0 1440 937" xml:space="preserve">
<g>
	<g>
		<path d="M353.7,208.9c3.8,1,7.5-1.2,11.4-1c4,0.3,8.1,0.7,12-0.1c3.9-0.8,7.7-0.7,11.3-0.9c1.9,1.5,1.9,3.1,1.2,4.9
			c-1,2.5-1,5,0.2,7.8c-0.4,0.9-2.2,1.4-1.8,3.2c0.3,1.1-2.2,2-0.3,3.3c-1,4,1.1,8,0.3,12c-0.5,2.5,1.3,4.6,1.1,7.1
			c-0.2,2.5-0.6,5.1,0.1,7.4c0.5,1.9,0.9,3.3-0.1,5.3c-0.8,1.6,0.2,3.6-0.9,5.6c-0.9,1.8-0.8,4.4-1,6.5c-0.3,3.1-1.8,6-1.2,9
			c0.3,1.5-1.4,2.1-1.1,3.6c0.2,1.2,0.6,2.7-0.8,3.6c0.1,2.9-0.3,5.7-1.5,8.6c-4.4,0-9,0.6-13.3-0.1c-9.7-1.7-19.4-0.3-29.1-0.9
			c-3.5-0.2-7-1.7-10.4-0.8c-2.1-3-2-6.3-1.7-9.4c0.2-2-0.7-3.7-1.1-5.6c-0.8-4.3,0.9-8.2,2.4-12c0.7-1.9,1.2-3.8,2.3-5.6
			c0.6-1,1.4-2.6,1.2-3.9c-0.4-4.1,1.9-7.2,3.1-10.7c1.2-3.5,2.9-6.8,3.9-10.4c0.4-1.5,1.5-2.1,2.2-3.2c-0.6-3.8,1.4-7,2.5-10.4
			c1-3.1,2.6-5.9,3.4-9.1c0.3-1,1-2,1.9-1.9C351.8,211.3,352.4,209.8,353.7,208.9z"/>
		<path d="M372.6,207c-1.5-2.1-1.9-4-1.6-5.9c0.4-2-1.4-3.6-1-6c6.1-0.1,12.4,0,18.6-0.1c0.6,6.8,0.3,8.8-2.1,12
			c-2.4,0.1-4.7-0.1-7,0.9C377.1,209,375,206.2,372.6,207z"/>
		<path d="M438.8,194.2c0.6,1.6-0.4,3.5,1.3,4.6c-0.8,1.4-1,3-2.6,4.2c-2.2,0-4.7,0-6.9,0c-1.1,1.1-2,2-3,3c-1.6,0-3.3,0-5.2,0
			c-1.3-3.7-2.5-7.5-2.3-11.8C426.2,194.2,432.3,194.2,438.8,194.2z"/>
		<path d="M531,189.2c9.1-1.1,17.6,1.5,26.4,0.8c0.1,0,0.3,0.2,0.7,0.4c-0.6,3,1,6.3-1,9.3c-0.2,0.2-0.1,0.7,0,1
			c0.7,4.1-1.1,8-1.2,12.1c0,2.8-0.5,5.8-1,8.5c-0.6,2.9-0.2,5.9-1,8.6c-0.9,2.6-0.1,5.3-0.9,7.6c-0.8,2.4-0.7,4.7-0.9,7
			c-0.5,0.6-1,1-1.5,1.5c-7.6-2-15.4-0.5-22.8-1.1c-0.7,0.5-0.7,1-0.7,1.5c0.2,0.5,0.6,0.6,1.2,0.6c1.2,0,2.3,0.1,3.5,0
			c6.4-0.4,12.7,0.6,19,1.2c1.5,3.9-1,7.5-0.7,11.4c0.2,4,0.1,8,0.1,12.4c-4.3,0-8.6,0.1-12.9,0c-4.2-0.2-8.5,0.9-12.6-1
			c-2,2.2-1.5,5.1-1.6,7.5c-0.6,0.6-0.9,0.9-1.5,1.5c-3.4-0.4-7.1,0.6-10.8-0.9c-1.5-0.6-3.6-0.1-5.5-0.1c0-4.3,0-8.4,0-12.3
			c-0.5-0.8-1-0.7-1.6-0.7c-1.1-1.4-0.1-3.1-0.7-5c-3.6,0-7.5-0.3-11.2,0.1c-5.1,0.5-10-1.5-15.1-1.1c-1.3,1.3,0.8,3.9-1.9,4.7
			c-5.4,1.3-10.8-1.1-16.7-0.7c0.9-4.7-1.6-9-0.8-13.6c-2-0.9-4,0-6-0.6c0-9.8,0-19.6,0-29.4c0.4-0.4,0.7-0.7,1.3-1.3
			c2.6,0,5.4,0,8.6,0c-0.3-2.9,1.4-5.2,1.1-8.1c-0.3-2.7,1.7-5.3,1-8.1c1.9-4.9,1-10.4,3-15.2c-0.8-3.5,1.5-6.7,1-10.1
			c-0.2-1.2,0.6-1.8,1.6-2.7c2.9,0.6,6.1-0.8,9.3,0.9c1.1,0.6,2.9,0.1,4.4,0.1c4.1,0,8.3,0,12.8,0c-0.4-2.4,0.6-4.6-1-6.7
			c-0.4-0.5-0.1-1.6-0.1-2.4c0.6-10.2-1.7-20.3-1-30.6c0.1-1.7-1.2-2.9-1.1-4.6c0.1-1.5,1.5-2.4,1.2-4.1c-0.3-1.3-0.7-3,0.9-4.1
			c0.1-0.1,0.1-0.3,0-0.5c-0.8-4,1.8-7.6,0.9-11.7c10.7-1.6,21.1,1.4,31.5,0.6c1.8,3.1,1.7,6.5,1.6,9.8c-0.4,11.4,1.8,22.7,1,34.1
			c2,6.8,0.7,13.7,0.9,20.6c0.1,2.1,1.5,3.8,1.1,6.1C530.7,184.5,531,186.5,531,189.2z"/>
		<path d="M407.9,204.2c0.1,1,0.2,1.7,0.3,2.5c6.8-2.2,14.2,1.1,20.8-2c0.1-0.8-0.1-1.3,0.6-1.7c3.6,0,7.5-0.3,11.2,0.1
			c3.7,0.4,6.9-2,10.9-0.8c1.8,2.1,0.5,5.5,1.5,7.9c1.2,2.9,0.2,5.5,0.9,8.1c-1.8,0.6-2.9,2.1-3,3.7c-0.3,3.1-0.1,6.3,0,9.5
			c0,0.4,0.6,0.7,1.1,1.2c-0.7,1.4-1.3,2.8-1.2,4.5c0.2,5,0.1,10,0,15c0,1.9,0.4,3.9-2.8,5.8c-4.1,0-9.8,0.8-15.3-0.2
			c-7.7-1.4-15.4-0.6-23.1-0.7c-6.5-0.1-12.9-2-19.2-1c-0.6-0.6-1-1-1.3-1.3c-0.1-0.1-0.3-0.3-0.3-0.4c0.7-6.7-1.7-13.4-0.9-20.1
			c0.2-1.5-0.9-2.3-1.1-3.6c-0.3-2.4-0.1-7.8,1.1-10c0.8-1.4,0.8-2.7,0.9-4.1c0.2-1.7-0.8-3.6,0.9-5.2c0.3-0.3,0.3-1.5-0.3-2.3
			c-1.2-1.7-1.2-3.3,0.7-4.9C395.9,204.2,401.7,204.2,407.9,204.2z"/>
		<path d="M387.6,275c1.5-4.1,0.9-8.2,2.9-12c3.4,0,7-0.6,10.4,0.1c9,1.8,18.1,0.3,27.1,1c3.4,0.3,6.7,1.6,10.1,0.9
			c8.7-1.9,17.4-0.3,26.1-1c3.7-0.3,6.9,2.1,10.8,0.7c0.2,3.6,0.6,6.8-2.5,9.5c-13.9-1-28.1,1.6-42.3,0.9c-9.8,2-19.7,0.4-29.6,1.1
			C396.4,276.3,392.5,274.9,387.6,275z"/>
		<path d="M504,279.7c-0.1-4.5,0.5-9-1.3-12.7c0.8-1.2,1.3-0.9,2.3-1.1c0,4.7,0,9.4,0,14.1C504.7,279.9,504.3,279.8,504,279.7z"/>
		
		<path d="M557.1,280.9c-2.9,0.3-5.1,0.1-7.1-1.4c0-7.6,0.1-15.2-0.1-22.9c-0.1-2,1.3-3.5,1.2-5.6c-0.1-1.8-1-4,0.9-5.6
			c0.2-0.1,0.1-0.6,0-1c-0.6-4.3,1.5-8.3,1-12.6c-0.2-1.9,1.3-3.5,1-5.6c-0.2-1.7-0.6-3.6,0.9-5.1c0.3-0.4,0.1-1.3,0-2
			c-0.4-4.1,1.8-8,1-12.1c1.6-2.5,0.3-5.6,1.2-8c0.9-2.6,0.6-5.1,0.8-7.1c0.6-1,1.1-1.7,1.3-2c1.3-0.3,1.7,0.4,2.2,0.8
			c0.3-0.3,0.7-0.6,1.1-1c1.4-0.2,2.4,1.8,4,1c1,1.9,0,3.9,0.7,6c1.9-0.4,3.4,1.4,5.5,1.2c0,1.5,0,2.9,0,4.4c2.2,0.8,4.5,0.9,6.2,3
			c0,0.9,0,2,0,3.3c1.6,0,3.1,0,4.4,0c0.3,0.4,0.6,0.7,0.6,1c0,5.4,1,11.1-3.8,15.5c-0.2,3.9-1.2,7.8-1.3,11.9
			c-0.1,4.8,1.7,9,3.2,13.2c1.6,4.2,1.9,4.1,2,7.2c0.1,0.1,0.2,0.3,0.4,0.3c0.7,0.1,1.3,0.1,2.1,0.1c3.4,3.3,4.2,7.8,4.7,12
			c-0.7,0.7-1.5,1.6-2.6,2.8c-2.3-0.3-3.7,3.8-7,3.1c-2.1,1.7-4.8,1.9-7.1,3.2c-1.7-3.5-1.8-7-1.6-10.6c0.1-1.4,0-2.7-1.6-3.6
			c-4.3-0.5-8.6,1.8-13.5,0.8C558.7,271.3,556,276,557.1,280.9z"/>
	</g>
</g>
</svg>
