<?xml version="1.0" encoding="utf-8"?>
<!-- Generator: Adobe Illustrator 17.1.0, SVG Export Plug-In . SVG Version: 6.00 Build 0)  -->
<!DOCTYPE svg PUBLIC "-//W3C//DTD SVG 1.1//EN" "http://www.w3.org/Graphics/SVG/1.1/DTD/svg11.dtd">
<svg version="1.1" id="Layer_1" xmlns="http://www.w3.org/2000/svg" xmlns:xlink="http://www.w3.org/1999/xlink" x="0px" y="0px"
	 viewBox="0 0 1440 937" enable-background="new 0 0 1440 937" xml:space="preserve">
<g>
	<g>
		<path d="M337.9,769.3c1-4.9-0.6-10-1.2-15.1c-0.7-5.7-0.6-11.4-0.7-17.1c-0.2-5.8,0-11.7,0-17.5c0-2.3,0-4.7,0-7
			c0.3-0.8,1.1-0.5,1.7-0.8c0.8-0.9-0.5-2.8,1.3-3.3c1-1,1.2,0.7,2,0.5c0.8-0.2,1.7,0,2.6,0c1.1-1.4,0.1-3.2,0.8-5
			c7.1,0,14.4,0.1,21.7-0.1c1.6,0,2.5,1.1,4.1,1.2c1.6,0,2.4-1.4,4.1-1.2c3,0.4,6,0.2,9.1,0.9c3.5,0.8,7.3,0.3,10.9,0.2
			c11.2-0.2,22.3,2,33.6,0.8c0,1.5,0,2.7,0,3.7c0.4,0.2,0.7,0.5,1,0.5c0.8,0.1,1.7,0,2.5,0c1.7,0,3.3,0.1,5,0c1.5-0.1,2.5,1.8,4.1,1
			c1.6,1.9,1.6,4.1,1.6,6.3c-0.1,8,1.7,16,1,24.1c-0.2,2.1-0.1,4.1-0.9,6.1c-0.8,1.8,0.9,4.3-1.1,6.1c-0.2,0.2-0.1,0.6,0,1
			c0.6,3.9-1.7,7.6-1,11.6c0.3,1.8-1.5,3.1-1,5.1c0.3,1.5,0.3,3.1-0.8,4.6c-0.5,0.6-0.1,1.9-0.1,2.9c0.2,2.1,0,4.2-1.3,6.1
			c-2,0.6-3.9-0.1-5.9-0.8c-1.9-0.6-4.2,0.8-6.2-0.9c-0.4-0.3-1.3-0.2-1.9-0.2c-3.6,0.4-6.9-1.8-10.6-1c-1.9-1.3-4-0.9-6.1-1
			c-0.8,0-1,0.7-1.2,0.8c-11.6-1.7-22.9-3.3-34.5-5c-0.5-0.5-1.2-1.1-1.7-1.7c-2.5-0.6-4.9,0.4-7.4-1c-2-1.1-4.9,0.7-7-1.1
			c-3.5,0.7-6.7-1.1-10.1-1C341.8,772.1,339.7,771.6,337.9,769.3z"/>
		<path d="M289.4,756c-1.9,0-3.9,0-5.9,0c-0.6,0.5-1,1.4-2.4,0.6c0.7-2.4-1.6-4.7-0.9-7.1c0.7-2.6,1.1-5.1,0.8-7.6
			c-0.3-2.7,1.6-4.9,1.1-7.5c2.4-1.6,4.3,1.1,6.4,0.5c2.2-0.6,3.9,1.5,6.3,0.9c0,3.4,0,6.6,0,9.8C292.3,748.8,293.1,753.6,289.4,756
			z"/>
		<path d="M284.9,690.1c3.8,1.5,7.6,1.5,10.8,3.2c1.9,5.8,1.1,11.6,1.3,17.2c-0.5,0.5-0.9,0.9-1.5,1.5c-3.3-0.9-6.5,1.5-10,0.9
			c-0.4-0.4-0.7-0.7-1.4-1.4c0-3.4,0.3-7.2-0.1-10.9C283.6,696.9,285.6,693.7,284.9,690.1z"/>
		<path d="M296.8,522c7.4,0,14.5-0.7,21.3,0.2c4.9,0.6,9.7,0.4,14.5,0.9c0.8,1.8,1.6,3.5,1.4,5.5c-0.6,4.7,1.7,9.3,1,14.1
			c1.6,2.9,0.9,6,1,9.1c0,2.1,1.4,3.9,1.1,6.1c-0.2,2,0,4,0.8,6.1c0.8,2,0.1,4.6,0.2,6.9c0.1,2.2,1.6,4.2,0.8,6.6c1.9,1,4,0,5.7,0.6
			c2,3.4,1.4,7,1.5,10.7c4.3,0,8.6,0,13.1,0c-0.8-3.4,0.9-6.3,1.1-9.7c7.5,0,14.9,0,22.4,0c0.4,1.1,1.8,0.5,2.4,1.3
			c0.1,3-0.5,6.2,2,9.5c5,2.1,11.3,0.5,17.3,1.1c1.8-3.1,1.8-6.4,1.6-9.2c1.1-2.3,3-2.3,4.1-1.7c2.2,1.2,4.4,0.8,6.6,0.9
			c3.6,0.1,7.3,0,10.8,0c0.5,0.5,0.9,0.9,1.5,1.5c0,4.7,0,9.6,0,14.6c0,1.8-1.6,3.1-1.1,5.1c0.4,1.5-0.4,3.1-0.7,4.6
			c-0.6,2.8-0.2,5.7-1.2,8.6c-0.6,1.8,0.7,3.4,0.9,5.1c0.2,2.2,0.3,4.4-0.8,6.6c-0.9,1.8,0.6,4.2-0.8,6.2c-0.2,0.4-0.4,0.9-0.3,1.4
			c0.6,3.6-1.5,7-1.1,10.6c0.2,1.7-1.5,3.1-1,5.1c0.3,1.5-0.3,3-0.8,4.6c-0.7,2.4,0.2,5.1-1.2,7.5c0.7,4.1-1.9,7.9-0.9,12
			c-0.6,0.6-1.1,1-1.6,1.5c-3.1,0.9-5.9-1.2-9-1c-6.1,0.3-12.3,0.1-18.5,0.1c-1.9,0-3.9,0.4-6.1-2c-1.1-2.3-1.4-5.8-0.9-9.3
			c0.3-2.3-1.4-4-1-6.4c-2.1,0.1-3.7-1.4-5.9-1.4c-0.1-0.8-0.1-1.6-0.2-2.3c-1.8-1.3-3.8-1.5-5.9-1.4c-5.8,0.1-11.7-0.1-17.5,0.1
			c-3.8,0.1-7.3-2.1-11.6-0.6c-0.8,0.5-1.4,1.7-0.8,3.1c-1.3,0.8-1.9,0.1-2.4-0.5c-2.3,0.8-1.4,2.9-1.6,4.4
			c-0.8,0.8-1.7,0.3-2.5,0.5c-0.1,0.1-0.3,0.2-0.3,0.3c0,4.1,0,8.2,0,12.7c-8.1,0-15.9,0-23.7,0c-3.5-1.8-7.4-0.6-11.4-1.1
			c0.7-4.8-1.5-9.5-1-14.4c0.2-2-1.3-3.5-1.1-5.6c0.1-1.8,0.8-4-0.9-5.6c0.5-3.5-0.8-7.2,0.8-10.7c0.8-1.7-0.4-3.9,1.2-5.5
			c-0.1-6.6,2.6-12.9,2.1-19.7c-0.2-2.3-0.7-4.4-1.1-6.6c-0.4-2.2,0.8-4.6-1-6.6c-0.2-0.2-0.1-0.7,0-1c0.7-4.4-1.4-8.7-1-13.1
			c0.2-2.1-1.3-3.9-1.1-6.1c0.2-2,0.6-4.2-0.9-6.1c-0.1-0.1,0-0.3,0-0.5c0.6-4.4-1.7-8.6-1-13.1c0.3-2-1.1-3.6-1.1-5.6
			c0.1-4.7,0.5-9.2,2-13.7c0.7-2,0.6-4.4,0.9-6.6C296.2,527.9,297.9,525.2,296.8,522z"/>
		<path d="M381.7,705c-1.8-0.3-3.6,0.6-5.2-0.9c-0.5-0.5-2.2-0.5-2.9,0c-2.6,1.9-5.7,1.3-8.1,0.8c-6.7-1.7-13.4-0.2-20.1-1
			c-0.9,1.7,0.6,4-2.6,5.2c-0.6,0-2,0-3.3,0c-0.8,0.9-0.2,1.8-0.5,2.6c-0.7,0.9-1.9,0-3,0.8c0,2.7,0,5.7,0,8.6
			c-0.7-4.5-2.3-8.8-1.9-13.3c0.3-4.1-0.4-8.4,0.2-12.5c0.5-3.4,1.5-6.8,0.8-10.1c-1.9-8.5-0.2-17.1-1-25.4c0.8-1.2,2-0.3,3-1
			c0-1.1,0-2.2,0-2.8c1-2.1,2.6-1.8,4-2.2c0.1-0.9,0.2-1.6,0.3-2.4c5.9-1.5,11.7,0.9,17.5,0.7c6-0.2,12,0,17.9,0
			c1,1.2,0.1,2.6,0.6,4c1.9,0,3.7,0,5.6,0c0,2.1,1.4,3.6,1.3,5.6c-0.1,1.8,0.1,3.7-0.1,5.5c-0.2,2.5,1.4,4.5,1.1,7.1
			c-0.2,2.1-0.6,4.4,0.8,6.6c0.7,1.1,0,2.9,0.1,4.4c0.1,1.5-1.4,2.4-1.1,4.1c0.2,1.3,0.4,2.8-0.7,4.2c-0.7,0.8,0,2.6-0.2,3.9
			C383.5,700,383.5,702.8,381.7,705z"/>
		<path d="M426.8,705.9c-1.3,0-2.5,0-4.4,0c1.8-2.2,2-4.4,1.6-6.4c-0.4-2,1.5-3.2,1.2-5.1c-0.2-1.6-0.8-3.6,0.9-5.1
			c0.1-0.1,0-0.3,0-0.5c-0.5-4.3,1.6-8.3,1-12.6c-0.2-1.2,0.5-2.6-0.8-3.7c-0.4-0.4-0.1-1.6-0.2-2.4c-0.3-1.8,1.4-3.2,1.1-5.1
			c-0.2-1.5-0.7-3.3,0.8-4.6c0.3-0.2,0.2-1,0.1-1.4c-0.7-3.2,1.4-6,1.1-9.1c-0.3-2.9,0.9-5.7,1.2-8.5c0.2-2.3,0.2-4.9,0.9-7.1
			c0.8-2.4,0.3-4.9,1-7.1c0.7-2.2,0.9-4.4,0.8-6.6c0-1.4,1.2-2.2,1.3-3.6c3.1,0,6.2,0,9.3,0c0.3,0.3,0.7,0.7,1.3,1.3
			c0.4,0.5,0.1,1.3,0.1,2.1c0,21.3,0,42.6,0.1,63.9c0,1.7-0.8,3.7,1,5.1c0.1,0.1,0,0.3,0,0.5c0.2,1.8-1.4,3.2-1.1,5.1
			c0.2,1.5,0.5,3.3-0.3,4.8c-0.2,0.4-0.5,0.8-0.6,1.3c-0.5,6.5-1.9,13.1-0.9,19.5c0.7,4,0.7,8,0.9,11.9c-1,0.5-1-0.1-1-0.5
			c0-0.3-0.1-0.7,0-1c0.7-2.5-1.2-4.6-1.1-7.1c0.2-2.5,0.2-5,0-7.5c-0.1-1.7-1.5-3.2-0.7-5.5c-4.5,0.7-8.5-1.5-12.7-0.9
			C427.4,709.1,428.8,706.9,426.8,705.9z"/>
		
		<path d="M407.3,581.2c-0.5,0.5-0.9,0.9-1.3,1.3c-0.2,2.8,0.7,5.8-1.6,8.5c-5.9,0-12,0-18.1,0c-0.5-1.7-1.6-3.1-1.4-5
			c0.2-1.8,0-3.6,0-5.9c-4.1,0.6-7.9-1.4-12-1.1c-4.1,0.3-8.3,0.1-12.8,0.1c-0.4,3.7-0.9,7.4-2.1,11c-4.1-1.9-8.1-0.4-12.2-1.3
			c0.9-3.5-1.3-6.8-1-10.5c-1.9,0-3.6,0-5.4,0c-1.3-1.5,0.3-3.7-1.5-5.1c2.7,0.7,5.3,1.9,7.8-0.2c2.3,1.8,5,0.9,7.7,1.2
			c0.9,0.2,0.1,1.5,0.9,1.9c0.3,0,0.6,0,1,0c0.7-0.3,0.4-1.1,0.7-1.7c5.8-1,11.6,0.4,17.1,0.9c0.9-0.5,0.7-1,0.8-1.8
			c1.5-0.7,3.1-0.2,4.7-0.3c1.4-0.2,3.1,0.8,3.9-1.3c2,1.5,4.1,1.5,6.2,1.1c0.1-0.5,0.2-1,0.3-1.4c2.3-1.3,5.3-0.7,7.5-2.4
			c3.2,1.6,5.4-0.9,7.8-2c3.4-1.6,4.6-1.9,9.9-2c1.3-0.7,2.4-1.3,3.5-1.9c5.5,0,5.5,0,9.7-2.2c0.3,2.2,2.3,3.2,3.4,4.7
			c0,7.4,1.6,14.5,1.1,21.8c-0.2,3.4-1.5,6.6-1.2,10.1c0.1,1-0.9,2.9-3.1,4c2.1-6.7,1-12.8,1.3-18.8c-0.5-0.5-0.8-0.8-1.3-1.3
			C421.1,581.2,414.3,581.2,407.3,581.2z"/>
	</g>
</g>
</svg>
