<?xml version="1.0" encoding="utf-8"?>
<!-- Generator: Adobe Illustrator 17.1.0, SVG Export Plug-In . SVG Version: 6.00 Build 0)  -->
<!DOCTYPE svg PUBLIC "-//W3C//DTD SVG 1.1//EN" "http://www.w3.org/Graphics/SVG/1.1/DTD/svg11.dtd">
<svg version="1.1" id="Layer_1" xmlns="http://www.w3.org/2000/svg" xmlns:xlink="http://www.w3.org/1999/xlink" x="0px" y="0px"
	 viewBox="0 0 1440 937" enable-background="new 0 0 1440 937" xml:space="preserve">
<g>
	<g>
		<path d="M819.1,248.4c0.4-0.4,0.7-0.7,1.5-1.5c2.4,0.6,5.4-1.1,8.1,1c0.3,0.2,1,0.1,1.5,0c12.9-0.8,25.7,1.5,38.6,1
			c2-0.1,4,0,5.8,0c0.6,0.6,1.1,1,1.6,1.5c-1.8,3.6-0.8,7.4-1,11.1c-0.2,3.8,0.6,7.8-0.2,11.5c-1.4,6.4-0.6,12.7-0.8,19.1
			c0,2.2-1.5,3.8-1.2,6.1c0.4,2.1,0.1,4.3,0.1,6.5c0,0.6,0,1.3,0,1.9c1.2,0.7,2.4,0.2,3.6,0.4c0.8,1.4,0.1,3.2,0.5,4.8
			c0.6,0.1,1,0.1,1.4,0.2c0.2-0.3,0.4-0.6,0.4-0.9c-0.6-9.7,1.7-19.3,1-29.1c-0.1-1.5,0-3,0-4.5c0-4.5,1.4-9,1.1-13.6
			c-0.3-4.6-0.8-9.5,0.1-14c1.3-6.9,0.6-13.7,0.7-20.6c0-2,0.6-4,1.3-5.5c0.7-1.6,0.5-3.1,1.1-4.9c2.4,0.5,4.9-0.8,7.4,1
			c0.6,0.5,1.9,0.1,2.9,0.1c3.8,0,7.7-0.1,11.5,0c3.4,0.1,6.8-0.5,10.1,0.9c1.6,0.6,3.6,0.1,5.3,0.1c0.9-1.2,0.1-2.4,0.6-3.6
			c6.5-1.6,13,1.2,19.4,0.6c1.2,4.9,2.2,9.5,3.5,13.9c1.1,3.7,1.9,7.5,2.9,11.3c1.2,4.7,2.4,9.3,3.7,14c0.8,2.8,0,5.6,0.4,8.5
			c3.3,1.6,2.9,5.4,3.7,8.2c1.1,3.7,1.7,7.6,2.9,11.3c1.2,3.7,1.6,7.6,3.1,11.2c0.4,0.8,0.2,1.9,0.2,2.9c0,4.5,0.4,9-0.1,13.5
			c-0.4,3.4-0.7,6.8-1.8,10.2c-1.3,4.1-1.8,8.5-3.6,13c-1.3,0-3,0.1-4.6,0c-3.1-0.3-5.9,1.5-9.1,1.1c-3.1-0.4-6.5-0.8-9.4,0.1
			c-5.7,1.6-11.4,0.2-16.8,1c-1.6-1.4-0.1-1.9,0.3-2.7c-0.7-0.4-0.9-1.4-1.9-1.5c-2.8,0.4-1.4,3.8-3.6,4.9c-1.2,0-2.7,0-4.5,0
			c0-2-0.3-4,0.1-5.9c0.5-3.2-0.9-6-1.1-9.1c-0.2-3-0.7-5.9-1.9-8.7c-0.4-0.8-0.1-1.9-0.1-3c-4.9-1.2-9.4,1.2-14.1,0.8
			c-4.5-0.3-9.1-0.7-13.9,1.3c0,1.1-0.1,2.6,0,4c0.6,7.4-1.9,14.7-0.9,22c-6,2.2-12,1.4-18,1.5c-0.1-1.4-0.1-2.5-0.2-3.6
			c-0.7-0.9-1.7-0.1-2.4-0.5c-1.2,1.1-0.1,2.6-0.8,3.8c-0.3,0.1-0.6,0.3-0.9,0.3c-1.3,0-2.7,0-4,0c-7.4,0.3-14.7-1.7-22.1-1
			c-5.1-1.9-10.4-0.6-15.9-1.1c0-6.4-0.6-13,0.2-19.3c0.6-5.1,0.6-10.3,2-15.1c1-3.6,0.7-7.1,0.8-10.6c0-2.3,1.4-4.2,1.1-6.6
			c-0.2-2-0.6-4.2,0.9-6.1c-0.7-3.3,1.3-6.4,1-9.6c-0.5-5.1,1.7-10,1-15.1C819.6,254.6,818.8,251.4,819.1,248.4z M906.1,308
			c2.1,0,3.8,0,5.4,0c2.3,0,2.3,0,2.7,3c3.9,0,7.9-0.1,11.8,0c4.1,0.2,7.8-1.7,11.9-1.1c0.1-5.2-1-8.8-3.4-12
			c-4.8,0-9.6-0.2-14.4,0.1c-4.7,0.3-9.2-2.2-14-0.7C906.1,300.8,906.1,304.2,906.1,308z M834.2,302.3c0,3.3,0,6.4,0,9.7
			c2.6,0,5.2,0.3,7.5-0.1c2.6-0.4,4.7,2.5,7.1,0.7c0-3.9,0-7.7,0-11.5c-4.6,0-9,0-13.4,0C835,301.5,834.7,301.8,834.2,302.3z"/>
		<path d="M973.4,313c-0.4-1.4-1.4-2.5-1.5-4.1c-0.4-3.9-1.1-7.8-1.7-11.7c-0.4-3-1.7-6-1.2-9c0.3-1.7-1.5-2.8-1.1-4.6
			c0.3-1.3-0.3-2.7-0.7-4.1c-0.6-2.2-0.9-4.7-1.1-7c-0.3-5.1-2.3-10-2.1-15.2c-1.8-3-0.7-6.4-1-9.6c-0.6-6.2,2-12.2,0.8-18.7
			c1.7,0.6,1.3,1.5,1.2,2.2c-0.6,4.6,0.5,9.2,1.3,13.5c0.9,4.7,0.8,9.7,2.8,14.3c-0.8,3.1,1.5,6,1,9.1c-0.3,1.7,1.6,2.8,1.1,4.6
			c-0.3,1.3-0.4,2.9,0.9,4.1c-0.6,2.8,0.6,5.4,1,8.1c0.6,3.2,0.6,6.6,1.8,9.7c0.3,0.9,0.4,2.1,0.1,2.9c-1.7,4.6-0.6,9.4-1,14.1
			C974,312,974.2,312.5,973.4,313z"/>
	</g>
</g>
</svg>
