<?xml version="1.0" encoding="utf-8"?>
<!-- Generator: Adobe Illustrator 17.1.0, SVG Export Plug-In . SVG Version: 6.00 Build 0)  -->
<!DOCTYPE svg PUBLIC "-//W3C//DTD SVG 1.1//EN" "http://www.w3.org/Graphics/SVG/1.1/DTD/svg11.dtd">
<svg version="1.1" id="Layer_1" xmlns="http://www.w3.org/2000/svg" xmlns:xlink="http://www.w3.org/1999/xlink" x="0px" y="0px"
	 viewBox="0 0 1440 937" enable-background="new 0 0 1440 937" xml:space="preserve">
<g>
	<g>
		<path d="M381,351.5c0.2-6.9-1.6-12.8-1.1-18.9c0.1-1.8,0.6-3.4,1.1-5.1c0.4-1.5,0.1-3.1,0.6-4.7c0.7-2.7,1.7-5.5,1.5-8.4
			c2.2-2.2-0.2-5.5,1.9-7.7c-1.5-1.7-1-3.2-0.1-5.2c0.7-1.6,0.2-3.7,1.1-5.6c0.5-1.1,0.1-2.6,0.1-4.2c1-0.8,2.2-1.7,2.4-1.9
			c1.4-3.5-0.7-5.4-0.4-7.7c0.3-2.1,0.1-4.3,0.1-6.9c3.5,0.2,7-1.1,10.4,0.7c0.8,0.4,1.9,0.1,2.9,0.1c6.5,0,13.1,0.7,19.5-0.2
			c8.4-1.1,16.9,0.2,25.1-1c8.6-1.3,17.1-0.1,25.8-1c0.4-0.4,0.9-1.2,1.9-0.8c1.6-4.1,1.5-8.5,2.8-12.9c8.5-0.8,17.3,2.1,26.3,0.6
			c0.5,6.5,1.9,12.7,1.2,18.9c2.9,1.2,5.2-0.4,7.6-0.8c0.8,1.6,0.6,3,0.4,4.2c-0.6,3.2,1.4,6,1.1,9.1c-0.3,3.1,0.3,6.4-0.1,9.5
			c-0.5,4.1-0.6,8.2-1.9,12c-1.2,0.7-2.4,0.2-3.5,0.4c-0.5,0.5-0.9,0.9-1.2,1.2c-1.3,4.2,1.1,7.8,0.8,11.8
			c-0.3,3.8,0.1,7.7-0.1,11.5c-0.1,2.2,0.7,4.5-0.6,6.7c-1.2,1.9,0.7,4.6-1.3,6.4c0.7,3.1-0.8,6-1.1,9.1c-0.4,3.6-0.4,7.2-1.7,10.7
			c-0.5,1.5-0.1,3.3-0.1,4.9c-0.9,0.7-1.3,2.1-3,1.4c-0.1,3.9,1.9,7.4,0.9,10.9c-0.9,3.3-0.5,6.9-2.4,10.4c-3.2-0.3-6.6,0.7-9.8-1
			c-0.1-0.1-0.3,0-0.5,0c-7.1,0.7-14-1.1-21.1-1c-7.6,0.1-15-2-23-0.7c-0.5,0.4-0.2,1.8-1.3,2.4c-3.9,1.5-7.6-1.3-11.3-0.7
			c-0.9-0.8-0.3-1.7-0.5-2.5c-3.1-1.6-6.4-1.8-10-1.5c0-1.8,0.1-3.2,0-4.7c-0.2-2,0.5-4.1-0.9-6.2c-0.7-1.1-0.6-3.1,0-4.4
			c1.7-4.1,0.8-8.8,2.9-12.8c-0.8-3.1,1.6-6,1-9.1c-0.3-1.5,1.5-2.2,1-3.6c-0.1-0.1-0.2-0.3-0.4-0.3c-9.4-0.3-18.7-1.6-28.1-1.1
			C390.8,352.2,386.2,349.9,381,351.5z M453.1,294.1c-0.5,6.3,0.5,12.5-1.1,18.6c-0.9,3.3-1.5,6.8-1.8,10.2
			c-0.6,5.2-2.4,10.3-2.1,15.6c0.1,1.1-1.5,1.4-0.8,2.4c1.5,0,3,0,4.4,0c0.7-17.3,2.9-27.4,5.6-40.8c0.6-0.2,1.3,0.1,1.4-0.2
			c0-2.2,0-4,0-5.7C456.8,294.1,455,294.1,453.1,294.1z M475.6,330.9c0.2,3.9-1.8,7.3-1.6,11.1c1.1,0,1.9,0,2.8,0c0-3.3,0-6.5,0-9.7
			c-0.2,0.1-0.3,0.3-0.5,0.4C476.1,332,475.9,331.4,475.6,330.9z M425.5,322c0.5-0.3,0.5-0.7,0-1C425,321.3,425,321.7,425.5,322z"/>
		<path d="M507.2,391c-0.5-1.9,0.3-3.7-1.4-4.9c1.7-1.8,1.2-4,1.2-6.1c0-2,1.9-3.5,0.7-5.9c3.6,0,6.8,0,9.9,0
			c0.6-1.1,0.3-2.3,1.3-2.9c-1.8,0-3.6,0-5.2,0c-0.6-0.6-1.1-1.1-1.7-1.7c0-2.7,0.1-5.6,0-8.4c-0.1-1.6,0.1-3-0.7-4.7
			c-0.7-1.4-0.9-3.8,0.5-5.6c0.1-0.1,0.3-0.3,0.3-0.4c-0.6-3.1,1.2-6,1.1-9.1c0.7-1,2,0.1,2.6-0.6c1.3-4.5-1.1-8.8-0.6-13.1
			c0.6-4.2,0.5-8.5,2.2-12.5c1-0.6,1.5,0.1,2.1,0.8c0.5-0.4,0.9-0.8,1.6-1.4c0.1-4.9-1.2-9.8-1.2-14.8c0-4.9,1.8-9.6,1.1-14.7
			c4.4-0.2,8.1,1,12.1,2.2c-0.3,5.4,1.7,10.6,1,16c1.5,3.6,0.3,7.5,1.2,11c0.9,3.9,0.2,7.8,1,11.6c0.8,3.9,0.2,7.9,1,11.6
			c0.7,3.4,0.2,6.8,0.9,10.1c0.9,4.4,0.3,8.8,1.1,13.1c0.6,3.1,1.1,6.1,0.7,9.1c-0.5,3.6-0.4,7.3-1.7,10.7c-0.4,1.2-0.3,2.6-0.1,3.9
			c0.2,1.4-1.4,2.1-1.1,3.6c0.5,1.8-0.7,3.3-1.4,4.9c-0.7-0.3-1.1-1-2-0.9C524.8,392.7,516.2,390.4,507.2,391z"/>
	</g>
</g>
</svg>
